<svg id="_01_Multivitamin" enable-background="new 0 0 512 512" viewBox="0 0 512 512" xmlns="http://www.w3.org/2000/svg" xmlns:xlink="http://www.w3.org/1999/xlink"><linearGradient id="SVGID_1_" gradientTransform="matrix(1 0 0 -1 0 514)" gradientUnits="userSpaceOnUse" x1="366.488" x2="452.921" y1="120.701" y2="34.269"><stop offset="0" stop-color="#feca9c"/><stop offset=".1252" stop-color="#fdc391"/><stop offset=".3429" stop-color="#fbb174"/><stop offset=".6269" stop-color="#f89346"/><stop offset=".9631" stop-color="#f46b07"/><stop offset="1" stop-color="#f46700"/></linearGradient><linearGradient id="lg1"><stop offset="0" stop-color="#ff7920" stop-opacity="0"/><stop offset=".088" stop-color="#fe7720" stop-opacity=".028"/><stop offset=".2178" stop-color="#fe7221" stop-opacity=".107"/><stop offset=".3734" stop-color="#fe6b22" stop-opacity=".236"/><stop offset=".549" stop-color="#fe6024" stop-opacity=".415"/><stop offset=".7413" stop-color="#fd5227" stop-opacity=".645"/><stop offset=".9447" stop-color="#fd422a" stop-opacity=".92"/><stop offset="1" stop-color="#fd3e2b"/></linearGradient><linearGradient id="SVGID_00000109729026603752437490000010737163809552802436_" gradientTransform="matrix(1 0 0 -1 0 514)" gradientUnits="userSpaceOnUse" x1="399.642" x2="387.523" xlink:href="#lg1" y1="105.592" y2="143.375"/><linearGradient id="SVGID_00000093165696974207880530000006312876072887212686_" gradientTransform="matrix(1 0 0 -1 0 514)" gradientUnits="userSpaceOnUse" x1="408.164" x2="408.164" xlink:href="#lg1" y1="66.612" y2="1.334"/><linearGradient id="SVGID_00000170971674540596363730000002054884253028659368_" gradientTransform="matrix(1 0 0 -1 0 514)" gradientUnits="userSpaceOnUse" x1="420.302" x2="485.67" xlink:href="#lg1" y1="79.026" y2="79.026"/><linearGradient id="lg2"><stop offset="0" stop-color="#fff" stop-opacity="0"/><stop offset=".0925" stop-color="#fff" stop-opacity=".024"/><stop offset=".2178" stop-color="#fff" stop-opacity=".092"/><stop offset=".3619" stop-color="#fff" stop-opacity=".203"/><stop offset=".52" stop-color="#fff" stop-opacity=".359"/><stop offset=".6897" stop-color="#fff" stop-opacity=".559"/><stop offset=".8661" stop-color="#fff" stop-opacity=".798"/><stop offset="1" stop-color="#fff"/></linearGradient><linearGradient id="SVGID_00000013182103336492442050000011868910473019390380_" gradientTransform="matrix(1 0 0 -1 0 514)" gradientUnits="userSpaceOnUse" x1="434.781" x2="472.812" xlink:href="#lg2" y1="52.409" y2="14.378"/><linearGradient id="lg3"><stop offset="0" stop-color="#7a6d79"/><stop offset="1" stop-color="#593636"/></linearGradient><linearGradient id="SVGID_00000040535473822817794740000016538136318829710754_" gradientTransform="matrix(1 0 0 -1 0 514)" gradientUnits="userSpaceOnUse" x1="61.741" x2="92.395" xlink:href="#lg3" y1="336.95" y2="346.217"/><linearGradient id="SVGID_00000044166630135149463940000012442052550686949505_" gradientTransform="matrix(1 0 0 -1 0 514)" gradientUnits="userSpaceOnUse" x1="412.853" x2="450.635" xlink:href="#lg3" y1="348.374" y2="329.84"/><linearGradient id="SVGID_00000111877308411092751770000011801458826491237030_" gradientTransform="matrix(1 0 0 -1 0 514)" gradientUnits="userSpaceOnUse" x1="338.28" x2="338.28" y1="246.153" y2="164.437"><stop offset="0" stop-color="#f3faff"/><stop offset="1" stop-color="#d5daf3"/></linearGradient><linearGradient id="lg4"><stop offset="0" stop-color="#dbd5ef" stop-opacity="0"/><stop offset=".2667" stop-color="#d8d2ec" stop-opacity=".023"/><stop offset=".4431" stop-color="#d1c9e2" stop-opacity=".098"/><stop offset=".5933" stop-color="#c4b9d1" stop-opacity=".225"/><stop offset=".7288" stop-color="#b2a4ba" stop-opacity=".405"/><stop offset=".8545" stop-color="#9a889c" stop-opacity=".638"/><stop offset=".9713" stop-color="#7e6678" stop-opacity=".92"/><stop offset="1" stop-color="#765d6e"/></linearGradient><linearGradient id="SVGID_00000116955348354170091720000003438494593926264216_" gradientTransform="matrix(1 0 0 -1 0 514)" gradientUnits="userSpaceOnUse" x1="346.243" x2="313.095" xlink:href="#lg4" y1="249.846" y2="314.361"/><linearGradient id="SVGID_00000070798898183754386920000017879629430454407586_" gradientTransform="matrix(1 0 0 -1 0 514)" gradientUnits="userSpaceOnUse" x1="338.28" x2="338.28" xlink:href="#lg4" y1="234.261" y2="118.597"/><linearGradient id="SVGID_00000180362369009311904880000002870843069758897843_" gradientTransform="matrix(1 0 0 -1 0 514)" gradientUnits="userSpaceOnUse" x1="160.12" x2="160.12" y1="246.153" y2="164.437"><stop offset="0" stop-color="#fef0ae"/><stop offset="1" stop-color="#fac600"/></linearGradient><linearGradient id="lg5"><stop offset="0" stop-color="#fe9738" stop-opacity="0"/><stop offset=".1648" stop-color="#fe9637" stop-opacity=".012"/><stop offset=".2957" stop-color="#fe9535" stop-opacity=".052"/><stop offset=".415" stop-color="#fe9331" stop-opacity=".118"/><stop offset=".5274" stop-color="#fe902c" stop-opacity=".211"/><stop offset=".635" stop-color="#fe8c25" stop-opacity=".331"/><stop offset=".739" stop-color="#fe871d" stop-opacity=".479"/><stop offset=".8401" stop-color="#fe8213" stop-opacity=".655"/><stop offset=".9364" stop-color="#fe7b09" stop-opacity=".852"/><stop offset="1" stop-color="#fe7701"/></linearGradient><linearGradient id="SVGID_00000163787495772061516870000016553213235314767497_" gradientTransform="matrix(1 0 0 -1 0 514)" gradientUnits="userSpaceOnUse" x1="220.312" x2="236.945" xlink:href="#lg5" y1="265.164" y2="294.154"/><linearGradient id="SVGID_00000140706780501549067670000006900554175426340240_" gradientTransform="matrix(1 0 0 -1 0 514)" gradientUnits="userSpaceOnUse" x1="160.12" x2="160.12" xlink:href="#lg5" y1="213.004" y2="131.169"/><linearGradient id="SVGID_00000103223203204179087970000013215890192372207802_" gradientTransform="matrix(1 0 0 -1 0 514)" gradientUnits="userSpaceOnUse" x1="344.386" x2="392.048" xlink:href="#lg4" y1="194.029" y2="127.149"/><linearGradient id="SVGID_00000142173942475506491720000017107046752302543778_" gradientTransform="matrix(1 0 0 -1 0 514)" gradientUnits="userSpaceOnUse" x1="351.621" x2="424.57" xlink:href="#lg4" y1="195.057" y2="151.393"/><linearGradient id="SVGID_00000145748694625838499030000009961830978818972852_" gradientTransform="matrix(1 0 0 -1 0 514)" gradientUnits="userSpaceOnUse" x1="361.998" x2="381.483" y1="159.714" y2="123.12"><stop offset="0" stop-color="#d5daf3" stop-opacity="0"/><stop offset=".1385" stop-color="#d8ddf4" stop-opacity=".114"/><stop offset=".4399" stop-color="#e1e6f7" stop-opacity=".406"/><stop offset=".8782" stop-color="#eff5fd" stop-opacity=".867"/><stop offset="1" stop-color="#f3faff"/></linearGradient><linearGradient id="SVGID_00000180346539292776223450000017258370115668625580_" gradientTransform="matrix(1 0 0 -1 0 514)" gradientUnits="userSpaceOnUse" x1="35.351" x2="121.784" y1="478.649" y2="392.217"><stop offset="0" stop-color="#99e6fc"/><stop offset=".1325" stop-color="#8ee1fb"/><stop offset=".3627" stop-color="#71d5f9"/><stop offset=".6631" stop-color="#43c2f5"/><stop offset="1" stop-color="#08a9f1"/></linearGradient><linearGradient id="lg6"><stop offset="0" stop-color="#2740b0" stop-opacity="0"/><stop offset=".1646" stop-color="#263fae" stop-opacity=".036"/><stop offset=".3472" stop-color="#243ca8" stop-opacity=".143"/><stop offset=".5386" stop-color="#22389f" stop-opacity=".321"/><stop offset=".7359" stop-color="#1f3392" stop-opacity=".569"/><stop offset=".9359" stop-color="#1a2c82" stop-opacity=".885"/><stop offset="1" stop-color="#192a7d"/></linearGradient><linearGradient id="SVGID_00000134245813857852470900000004160443019567629187_" gradientTransform="matrix(1 0 0 -1 0 514)" gradientUnits="userSpaceOnUse" x1="77.026" x2="77.026" xlink:href="#lg6" y1="424.56" y2="359.281"/><linearGradient id="SVGID_00000012446841100829298280000001418566182656811658_" gradientTransform="matrix(1 0 0 -1 0 514)" gradientUnits="userSpaceOnUse" x1="80.425" x2="169.261" xlink:href="#lg6" y1="436.974" y2="436.974"/><linearGradient id="SVGID_00000112612843392462997530000007285734808296555920_" gradientTransform="matrix(1 0 0 -1 0 514)" gradientUnits="userSpaceOnUse" x1="103.644" x2="141.675" y1="410.356" y2="372.325"><stop offset="0" stop-color="#08a9f1" stop-opacity="0"/><stop offset=".0927" stop-color="#0baaf1" stop-opacity=".025"/><stop offset=".2192" stop-color="#15aef2" stop-opacity=".094"/><stop offset=".3651" stop-color="#26b5f3" stop-opacity=".208"/><stop offset=".5256" stop-color="#3dbff5" stop-opacity=".367"/><stop offset=".698" stop-color="#5acbf7" stop-opacity=".571"/><stop offset=".8776" stop-color="#7edaf9" stop-opacity=".816"/><stop offset="1" stop-color="#99e6fc"/></linearGradient><linearGradient id="SVGID_00000096054698755720451410000004867019640822257045_" gradientTransform="matrix(1 0 0 -1 0 514)" gradientUnits="userSpaceOnUse" x1="214.325" x2="300.757" y1="402.942" y2="316.51"><stop offset="0" stop-color="#c1e9af"/><stop offset=".1072" stop-color="#b6e4aa"/><stop offset=".2935" stop-color="#99d69e"/><stop offset=".5365" stop-color="#6bc18a"/><stop offset=".8238" stop-color="#2ca36f"/><stop offset="1" stop-color="#02905d"/></linearGradient><linearGradient id="lg7"><stop offset="0" stop-color="#026841" stop-opacity="0"/><stop offset=".2182" stop-color="#026841" stop-opacity=".033"/><stop offset=".4099" stop-color="#026841" stop-opacity=".137"/><stop offset=".5916" stop-color="#026841" stop-opacity=".31"/><stop offset=".7671" stop-color="#026841" stop-opacity=".553"/><stop offset=".9367" stop-color="#026841" stop-opacity=".864"/><stop offset="1" stop-color="#026841"/></linearGradient><linearGradient id="SVGID_00000133497601679111254850000005068733381508919703_" gradientTransform="matrix(1 0 0 -1 0 514)" gradientUnits="userSpaceOnUse" x1="256" x2="256" xlink:href="#lg7" y1="348.853" y2="283.575"/><linearGradient id="SVGID_00000098218195026019114910000011745973008041622936_" gradientTransform="matrix(1 0 0 -1 0 514)" gradientUnits="userSpaceOnUse" x1="270.438" x2="335.806" xlink:href="#lg7" y1="361.267" y2="361.267"/><linearGradient id="SVGID_00000107589727762042808110000000151083569312477599_" gradientTransform="matrix(1 0 0 -1 0 514)" gradientUnits="userSpaceOnUse" x1="282.618" x2="320.648" y1="334.649" y2="296.619"><stop offset="0" stop-color="#c1e9af" stop-opacity="0"/><stop offset=".1414" stop-color="#c1e9af" stop-opacity=".016"/><stop offset=".2738" stop-color="#c1e9af" stop-opacity=".065"/><stop offset=".4027" stop-color="#c1e9af" stop-opacity=".146"/><stop offset=".5294" stop-color="#c1e9af" stop-opacity=".26"/><stop offset=".6545" stop-color="#c1e9af" stop-opacity=".408"/><stop offset=".7785" stop-color="#c1e9af" stop-opacity=".589"/><stop offset=".8992" stop-color="#c1e9af" stop-opacity=".799"/><stop offset="1" stop-color="#c1e9af"/></linearGradient><linearGradient id="SVGID_00000168104711926700921750000000213203788656513962_" gradientTransform="matrix(1 0 0 -1 0 514)" gradientUnits="userSpaceOnUse" x1="393.299" x2="479.731" y1="478.649" y2="392.217"><stop offset="0" stop-color="#fe646f"/><stop offset=".235" stop-color="#fa5964"/><stop offset=".6415" stop-color="#ef3d49"/><stop offset="1" stop-color="#e41f2d"/></linearGradient><linearGradient id="lg8"><stop offset="0" stop-color="#a72b2b" stop-opacity="0"/><stop offset=".1561" stop-color="#a32b2a" stop-opacity=".066"/><stop offset=".386" stop-color="#982c29" stop-opacity=".248"/><stop offset=".6615" stop-color="#872f28" stop-opacity=".545"/><stop offset=".97" stop-color="#6f3226" stop-opacity=".956"/><stop offset="1" stop-color="#6d3326"/></linearGradient><linearGradient id="SVGID_00000062899533904269931510000010899589228255208123_" gradientTransform="matrix(1 0 0 -1 0 514)" gradientUnits="userSpaceOnUse" x1="434.974" x2="434.974" xlink:href="#lg8" y1="424.56" y2="359.281"/><linearGradient id="SVGID_00000018923319642548836970000000744569336363723679_" gradientTransform="matrix(1 0 0 -1 0 514)" gradientUnits="userSpaceOnUse" x1="447.113" x2="512.481" xlink:href="#lg8" y1="436.974" y2="436.974"/><linearGradient id="SVGID_00000068640332456952781670000017112410840174244751_" gradientTransform="matrix(1 0 0 -1 0 514)" gradientUnits="userSpaceOnUse" x1="461.591" x2="499.622" y1="410.356" y2="372.325"><stop offset="0" stop-color="#e41f2d" stop-opacity="0"/><stop offset=".0725" stop-color="#e62533" stop-opacity=".093"/><stop offset=".3356" stop-color="#ee3b48" stop-opacity=".411"/><stop offset=".5691" stop-color="#f54c58" stop-opacity=".664"/><stop offset=".7644" stop-color="#f95964" stop-opacity=".846"/><stop offset=".914" stop-color="#fc616c" stop-opacity=".958"/><stop offset="1" stop-color="#fe646f"/></linearGradient><linearGradient id="SVGID_00000107574293521353570280000007719130794957458320_" gradientTransform="matrix(1 0 0 -1 0 514)" gradientUnits="userSpaceOnUse" x1="194.073" x2="172.509" xlink:href="#lg8" y1="137.232" y2="134.024"/><linearGradient id="SVGID_00000176012631588042944590000012285082121155227291_" gradientTransform="matrix(1 0 0 -1 0 514)" gradientUnits="userSpaceOnUse" x1="72.125" x2="158.558" y1="134.648" y2="48.216"><stop offset="0" stop-color="#e5caf3"/><stop offset=".1585" stop-color="#ddbfee"/><stop offset=".4338" stop-color="#caa2e0"/><stop offset=".7905" stop-color="#ac75cb"/><stop offset="1" stop-color="#9857bd"/></linearGradient><linearGradient id="lg9"><stop offset="0" stop-color="#814aa0" stop-opacity="0"/><stop offset=".1758" stop-color="#7f499e" stop-opacity=".038"/><stop offset=".3644" stop-color="#7b4699" stop-opacity=".149"/><stop offset=".559" stop-color="#744291" stop-opacity=".333"/><stop offset=".7577" stop-color="#6a3c85" stop-opacity=".592"/><stop offset=".9577" stop-color="#5d3477" stop-opacity=".922"/><stop offset="1" stop-color="#5b3374"/></linearGradient><linearGradient id="SVGID_00000143599234129783546140000006039100695358752925_" gradientTransform="matrix(1 0 0 -1 0 514)" gradientUnits="userSpaceOnUse" x1="113.8" x2="113.8" xlink:href="#lg9" y1="80.559" y2="15.281"/><linearGradient id="SVGID_00000130614585768233879320000005269980075821044872_" gradientTransform="matrix(1 0 0 -1 0 514)" gradientUnits="userSpaceOnUse" x1="131.112" x2="196.48" xlink:href="#lg9" y1="92.973" y2="92.973"/><linearGradient id="SVGID_00000078026792745876420060000002201421730929952445_" gradientTransform="matrix(1 0 0 -1 0 514)" gradientUnits="userSpaceOnUse" x1="140.418" x2="178.449" xlink:href="#lg2" y1="66.356" y2="28.325"/><g><g><circle cx="408.163" cy="434.974" fill="url(#SVGID_1_)" r="77.026"/><circle cx="408.163" cy="434.974" fill="url(#SVGID_00000109729026603752437490000010737163809552802436_)" r="77.026"/><path d="m399.688 428.524h15.99c1.635 0 2.88.658 3.731 1.972.853 1.315 1.281 2.825 1.281 4.531 0 1.422-.393 2.825-1.173 4.211-.784 1.386-2.063 2.078-3.839 2.078h-15.99v18.123h28.57c1.634 0 2.878.73 3.731 2.185.853 1.457 1.279 3.181 1.279 5.17 0 1.706-.391 3.323-1.173 4.85-.782 1.529-2.061 2.292-3.837 2.292h-37.951c-1.849 0-3.517-.427-5.01-1.279-1.493-.853-2.238-2.132-2.238-3.838v-67.694c0-1.706.746-2.985 2.238-3.838 1.493-.852 3.161-1.279 5.01-1.279h37.951c1.776 0 3.055.765 3.837 2.292.782 1.528 1.173 3.145 1.173 4.85 0 1.991-.426 3.715-1.279 5.17-.853 1.457-2.098 2.185-3.731 2.185h-28.57z" fill="#fff"/><path d="m331.137 434.974c0 42.54 34.486 77.026 77.026 77.026s77.026-34.486 77.026-77.026c0-2.13-.09-4.238-.26-6.324h-153.532c-.169 2.086-.26 4.194-.26 6.324z" fill="url(#SVGID_00000093165696974207880530000006312876072887212686_)"/><path d="m408.163 357.947c-4.962 0-9.813.475-14.514 1.371v151.31c4.701.897 9.552 1.372 14.514 1.372 42.54 0 77.026-34.486 77.026-77.026.001-42.541-34.485-77.026-77.026-77.027z" fill="url(#SVGID_00000170971674540596363730000002054884253028659368_)"/><path d="m462.305 380.191-108.924 108.924c13.963 14.128 33.349 22.885 54.782 22.885 42.54 0 77.026-34.486 77.026-77.026.001-21.434-8.756-40.819-22.884-54.783z" fill="url(#SVGID_00000013182103336492442050000011868910473019390380_)"/></g><g><path d="m128.821 254.827-38.318-38.318c-14.353-14.353-22.257-33.435-22.257-53.732v-85.75h15v85.75c0 16.291 6.344 31.606 17.863 43.126l38.318 38.318z" fill="url(#SVGID_00000040535473822817794740000016538136318829710754_)"/><path d="m383.179 254.827 38.318-38.318c14.353-14.353 22.257-33.435 22.257-53.732v-85.75h-15v85.75c0 16.291-6.344 31.606-17.863 43.126l-38.318 38.318z" fill="url(#SVGID_00000044166630135149463940000012442052550686949505_)"/></g><g><path d="m447.76 299.144c0 25.46-10.32 48.51-27 65.19s-39.73 27-65.19 27h-99.57l-27.2-92.19 27.2-92.19h99.57c50.92 0 92.19 41.27 92.19 92.19z" fill="url(#SVGID_00000111877308411092751770000011801458826491237030_)"/><path d="m355.57 206.954h-99.57l-12.463 42.24 138.328 138.328c14.886-4.422 28.201-12.495 38.894-23.189 16.68-16.68 27-39.73 27-65.19.001-50.919-41.269-92.189-92.189-92.189z" fill="url(#SVGID_00000116955348354170091720000003438494593926264216_)"/><path d="m447.76 299.144c0 25.46-10.32 48.51-27 65.19s-39.73 27-65.19 27h-99.57l-27.2-92.19 8.29-28.09h206.31c2.83 8.86 4.36 18.29 4.36 28.09z" fill="url(#SVGID_00000070798898183754386920000017879629430454407586_)"/><path d="m256 206.954v184.38h-99.57c-50.92 0-92.19-41.27-92.19-92.19 0-25.46 10.32-48.51 27-65.19s39.73-27 65.19-27z" fill="url(#SVGID_00000180362369009311904880000002870843069758897843_)"/><path d="m256 261.657v-54.703h-54.703z" fill="url(#SVGID_00000163787495772061516870000016553213235314767497_)"/><path d="m256 271.054v120.28h-99.57c-50.92 0-92.19-41.27-92.19-92.19 0-9.8 1.53-19.24 4.36-28.09z" fill="url(#SVGID_00000140706780501549067670000006900554175426340240_)"/><path d="m355.57 206.954h-99.57v184.38h99.57c25.46 0 48.51-10.32 65.19-27s27-39.73 27-65.19c0-50.92-41.27-92.19-92.19-92.19z" fill="url(#SVGID_00000103223203204179087970000013215890192372207802_)"/><path d="m355.57 206.954h-99.57v184.38h99.57c25.46 0 48.51-10.32 65.19-27s27-39.73 27-65.19c0-50.92-41.27-92.19-92.19-92.19z" fill="url(#SVGID_00000142173942475506491720000017107046752302543778_)"/><path d="m447.76 299.14c0 25.46-10.32 48.51-27 65.19s-39.73 27-65.19 27h-99.57v-120.28h187.4c2.83 8.86 4.36 18.29 4.36 28.09z" fill="url(#SVGID_00000145748694625838499030000009961830978818972852_)"/></g><g><circle cx="77.026" cy="77.026" fill="url(#SVGID_00000180346539292776223450000017258370115668625580_)" r="77.026"/><path d="m56.719 116.31c-1.138 0-2.329-.177-3.571-.533-1.244-.355-2.4-.835-3.465-1.44-1.065-.602-1.938-1.314-2.612-2.132-.676-.817-1.013-1.722-1.013-2.719 0-.213.071-.603.214-1.172l19.828-65.029c.568-1.847 1.9-3.233 3.997-4.157 2.096-.923 4.388-1.386 6.877-1.386 2.487 0 4.779.463 6.875 1.386 2.096.924 3.429 2.31 3.999 4.157l19.935 65.03c.141.569.214.959.214 1.172 0 .997-.339 1.902-1.013 2.719-.676.818-1.547 1.529-2.612 2.132-1.067.605-2.223 1.084-3.465 1.44-1.244.356-2.435.533-3.571.533-1.35 0-2.504-.23-3.464-.693-.959-.461-1.618-1.262-1.972-2.399l-3.625-13.326h-22.495l-3.625 13.326c-.356 1.137-1.013 1.938-1.972 2.399-.96.462-2.116.692-3.464.692zm28.036-29.21-7.782-28.57-7.782 28.57z" fill="#fff"/><path d="m0 77.026c0 42.54 34.486 77.026 77.026 77.026s77.026-34.486 77.026-77.026c0-2.13-.09-4.238-.26-6.324h-153.532c-.17 2.086-.26 4.195-.26 6.324z" fill="url(#SVGID_00000134245813857852470900000004160443019567629187_)"/><path d="m77.026 0c-4.962 0-9.813.475-14.514 1.371v151.31c4.701.897 9.552 1.372 14.514 1.372 42.54 0 77.026-34.486 77.026-77.026.001-42.541-34.485-77.027-77.026-77.027z" fill="url(#SVGID_00000012446841100829298280000001418566182656811658_)"/><path d="m131.167 22.244-108.923 108.923c13.964 14.128 33.349 22.885 54.783 22.885 42.54 0 77.026-34.486 77.026-77.026 0-21.433-8.758-40.819-22.886-54.782z" fill="url(#SVGID_00000112612843392462997530000007285734808296555920_)"/></g><g><circle cx="256" cy="152.733" fill="url(#SVGID_00000096054698755720451410000004867019640822257045_)" r="77.026"/><g fill="#fff"><path d="m211.504 118.886c0-1.706.746-2.985 2.238-3.838 1.493-.852 3.161-1.279 5.01-1.279h21.854c2.629 0 5.224.285 7.782.852 2.558.57 4.85 1.564 6.877 2.986 2.025 1.422 3.641 3.358 4.85 5.81 1.208 2.452 1.813 5.562 1.813 9.328 0 4.336-.799 7.907-2.4 10.714-1.599 2.808-3.82 4.816-6.661 6.023 1.634.64 3.126 1.385 4.477 2.238 1.349.852 2.504 1.937 3.465 3.252.959 1.315 1.705 2.915 2.238 4.797.532 1.884.799 4.14.799 6.769v2.239c0 4.194-.551 7.746-1.653 10.66-1.103 2.915-2.612 5.277-4.531 7.09-1.919 1.812-4.195 3.128-6.823 3.944-2.629.818-5.436 1.226-8.422 1.226h-23.666c-2.276 0-4.051-.496-5.33-1.493-1.279-.994-1.919-2.167-1.919-3.517zm16.523 24.199h11.194c2.06 0 3.587-.762 4.583-2.291.996-1.528 1.493-3.215 1.493-5.064 0-1.847-.497-3.553-1.493-5.117-.996-1.562-2.523-2.345-4.583-2.345h-11.194zm10.66 34.114c2.701 0 4.797-.781 6.289-2.345 1.493-1.562 2.238-4.051 2.238-7.462v-1.706c0-3.625-.746-6.165-2.238-7.622-1.493-1.456-3.589-2.185-6.289-2.185h-10.66v21.321h10.66z"/><path d="m269.973 155.853c0-2.038.433-3.845 1.297-5.419.865-1.574 1.995-2.903 3.392-3.99 1.396-1.086 2.992-1.917 4.787-2.493 1.796-.576 3.647-.865 5.553-.865s3.791.299 5.653.898c1.861.598 3.524 1.486 4.987 2.66 1.463 1.175 2.638 2.616 3.524 4.322.887 1.707 1.33 3.669 1.33 5.885 0 2.394-.51 4.545-1.53 6.45-1.02 1.907-2.283 3.625-3.79 5.154-1.508 1.53-3.159 2.904-4.954 4.123-1.795 1.22-3.447 2.372-4.954 3.458-1.508 1.087-2.771 2.106-3.791 3.059-1.02.954-1.53 1.94-1.53 2.96v.598h17.423c.842 0 1.573.443 2.195 1.33.62.888.93 1.929.93 3.126s-.31 2.261-.93 3.192c-.622.931-1.353 1.396-2.195 1.396h-23.674c-.488 0-.987-.077-1.496-.233-.511-.155-.997-.366-1.463-.632-.465-.266-.842-.598-1.13-.997-.289-.399-.433-.842-.433-1.33v-6.45c0-1.729.52-3.358 1.562-4.888s2.338-2.969 3.891-4.322c1.551-1.352 3.225-2.671 5.02-3.957 1.796-1.285 3.469-2.561 5.021-3.824 1.551-1.264 2.848-2.537 3.89-3.824 1.042-1.285 1.563-2.637 1.563-4.057 0-.532-.09-1.074-.267-1.629-.177-.553-.465-1.064-.864-1.529-.399-.466-.92-.842-1.563-1.131-.643-.288-1.429-.432-2.36-.432-1.33 0-2.494.365-3.492 1.097-.997.731-1.496 2.028-1.496 3.89 0 .976-.488 1.852-1.462 2.627-.976.776-2.306 1.164-3.99 1.164-1.33 0-2.439-.376-3.325-1.131-.887-.753-1.329-2.172-1.329-4.256z"/></g><path d="m178.974 152.733c0 42.54 34.486 77.026 77.026 77.026s77.026-34.486 77.026-77.026c0-2.13-.09-4.238-.26-6.324h-153.532c-.17 2.086-.26 4.194-.26 6.324z" fill="url(#SVGID_00000133497601679111254850000005068733381508919703_)"/><path d="m256 75.707c-4.962 0-9.813.475-14.514 1.371v151.31c4.701.897 9.552 1.372 14.514 1.372 42.54 0 77.026-34.486 77.026-77.026 0-42.541-34.486-77.027-77.026-77.027z" fill="url(#SVGID_00000098218195026019114910000011745973008041622936_)"/><path d="m310.141 97.95-108.924 108.924c13.964 14.128 33.349 22.885 54.783 22.885 42.54 0 77.026-34.486 77.026-77.026 0-21.433-8.757-40.819-22.885-54.783z" fill="url(#SVGID_00000107589727762042808110000000151083569312477599_)"/></g><g><circle cx="434.974" cy="77.026" fill="url(#SVGID_00000168104711926700921750000000213203788656513962_)" r="77.026"/><path d="m434.919 38.062c3.695 0 7.143.445 10.342 1.332 3.198.89 5.97 2.345 8.314 4.372 2.346 2.025 4.193 4.637 5.544 7.835 1.35 3.198 2.026 7.072 2.026 11.62v27.61c0 4.621-.676 8.512-2.026 11.673-1.35 3.164-3.198 5.757-5.544 7.782-2.344 2.025-5.116 3.483-8.314 4.371-3.199.89-6.647 1.333-10.342 1.333h-18.868c-2.204 0-3.962-.496-5.278-1.493-1.315-.994-1.971-2.167-1.971-3.517v-67.907c0-1.35.655-2.522 1.971-3.518 1.315-.994 3.074-1.492 5.278-1.492h18.868zm-9.487 14.498v48.932h9.487c2.986 0 5.332-.87 7.036-2.612 1.706-1.741 2.558-4.424 2.558-8.049v-27.61c0-3.625-.852-6.307-2.558-8.049-1.705-1.741-4.051-2.612-7.036-2.612z" fill="#fff"/><path d="m357.947 77.026c0 42.54 34.486 77.026 77.026 77.026s77.027-34.485 77.027-77.026c0-2.13-.09-4.238-.26-6.324h-153.533c-.169 2.086-.26 4.195-.26 6.324z" fill="url(#SVGID_00000062899533904269931510000010899589228255208123_)"/><path d="m434.974 0c-4.962 0-9.813.475-14.514 1.371v151.31c4.701.897 9.552 1.372 14.514 1.372 42.54 0 77.026-34.486 77.026-77.026 0-42.541-34.486-77.027-77.026-77.027z" fill="url(#SVGID_00000018923319642548836970000000744569336363723679_)"/><path d="m489.115 22.244-108.924 108.923c13.964 14.128 33.349 22.885 54.783 22.885 42.54 0 77.026-34.486 77.026-77.026 0-21.433-8.757-40.819-22.885-54.782z" fill="url(#SVGID_00000068640332456952781670000017112410840174244751_)"/></g><path d="m167.942 366.244v25.09h25.089z" fill="url(#SVGID_00000107574293521353570280000007719130794957458320_)"/><g><circle cx="113.8" cy="421.027" fill="url(#SVGID_00000176012631588042944590000012285082121155227291_)" r="77.026"/><g fill="#fff"><path d="m69.304 387.18c0-1.706.746-2.985 2.238-3.838 1.493-.852 3.161-1.279 5.01-1.279h21.854c2.629 0 5.224.285 7.782.852 2.558.57 4.85 1.564 6.877 2.986 2.025 1.422 3.641 3.358 4.85 5.81 1.208 2.452 1.813 5.562 1.813 9.328 0 4.336-.799 7.907-2.4 10.714-1.599 2.808-3.82 4.816-6.661 6.023 1.634.64 3.126 1.385 4.477 2.238 1.349.852 2.504 1.937 3.465 3.252.959 1.315 1.705 2.915 2.238 4.797.532 1.884.799 4.14.799 6.769v2.239c0 4.194-.551 7.746-1.653 10.66-1.103 2.915-2.612 5.277-4.531 7.09-1.919 1.812-4.195 3.128-6.823 3.944-2.629.818-5.436 1.226-8.422 1.226h-23.664c-2.276 0-4.051-.496-5.33-1.493-1.279-.994-1.919-2.167-1.919-3.517zm16.524 24.199h11.194c2.06 0 3.587-.762 4.583-2.291.996-1.528 1.493-3.215 1.493-5.064 0-1.847-.497-3.553-1.493-5.117-.996-1.562-2.523-2.345-4.583-2.345h-11.194zm10.66 34.114c2.701 0 4.797-.781 6.289-2.345 1.493-1.562 2.238-4.051 2.238-7.462v-1.706c0-3.625-.746-6.165-2.238-7.622-1.493-1.456-3.589-2.185-6.289-2.185h-10.66v21.321h10.66z"/><path d="m144.978 429.979c1.889 0 3.671.231 5.342.692 1.671.462 3.133 1.22 4.387 2.276 1.253 1.055 2.253 2.474 3.001 4.254.747 1.781 1.121 3.991 1.121 6.629v.594c0 2.859-.419 5.267-1.254 7.223-.835 1.957-1.979 3.562-3.43 4.815s-3.156 2.155-5.112 2.705c-1.957.549-4.078.824-6.365.824s-4.419-.275-6.399-.824c-1.979-.549-3.694-1.452-5.144-2.705-1.452-1.253-2.596-2.858-3.43-4.815-.835-1.956-1.254-4.363-1.254-7.223v-17.479c0-2.814.429-5.211 1.287-7.19.857-1.979 2.044-3.595 3.561-4.848 1.517-1.254 3.298-2.154 5.343-2.705 2.044-.549 4.254-.824 6.629-.824 2.77 0 5.145.385 7.124 1.154 1.979.77 3.595 1.759 4.847 2.968 1.254 1.21 2.166 2.551 2.738 4.024.571 1.474.858 2.892.858 4.254 0 1.583-.386 2.671-1.155 3.265-.77.594-1.99.89-3.66.89-.704 0-1.375-.055-2.012-.165-.639-.109-1.211-.307-1.715-.594-.506-.286-.902-.67-1.187-1.154-.287-.483-.429-1.098-.429-1.847 0-1.275-.572-2.231-1.715-2.869-1.144-.637-2.485-.956-4.024-.956-1.979 0-3.507.528-4.584 1.583-1.078 1.055-1.616 2.727-1.616 5.013v5.936c1.055-1.143 2.297-1.913 3.727-2.309 1.429-.394 2.936-.592 4.52-.592zm-8.245 15.171c0 2.287.528 3.947 1.583 4.98 1.056 1.033 2.506 1.55 4.354 1.55 1.846 0 3.286-.517 4.32-1.55 1.032-1.033 1.549-2.693 1.549-4.98v-.594c0-2.418-.517-4.133-1.549-5.145-1.034-1.011-2.497-1.517-4.387-1.517-1.803 0-3.231.462-4.287 1.385-1.055.923-1.583 2.485-1.583 4.683z"/></g><path d="m36.774 421.027c0 42.54 34.486 77.026 77.026 77.026s77.026-34.486 77.026-77.026c0-2.13-.09-4.238-.26-6.324h-153.532c-.17 2.086-.26 4.194-.26 6.324z" fill="url(#SVGID_00000143599234129783546140000006039100695358752925_)"/><path d="m113.8 344.001c-4.962 0-9.813.475-14.514 1.371v151.31c4.701.897 9.552 1.371 14.514 1.371 42.54 0 77.026-34.486 77.026-77.026.001-42.541-34.485-77.026-77.026-77.026z" fill="url(#SVGID_00000130614585768233879320000005269980075821044872_)"/><path d="m167.942 366.244-108.924 108.924c13.964 14.128 33.349 22.885 54.783 22.885 42.54 0 77.026-34.486 77.026-77.026 0-21.433-8.757-40.819-22.885-54.783z" fill="url(#SVGID_00000078026792745876420060000002201421730929952445_)"/></g></g></svg>