<svg id="_02_Allergen_Free" enable-background="new 0 0 512 512" viewBox="0 0 512 512" xmlns="http://www.w3.org/2000/svg" xmlns:xlink="http://www.w3.org/1999/xlink"><linearGradient id="lg1"><stop offset="0" stop-color="#c1e9af"/><stop offset=".1072" stop-color="#b6e4aa"/><stop offset=".2935" stop-color="#99d69e"/><stop offset=".5365" stop-color="#6bc18a"/><stop offset=".8238" stop-color="#2ca36f"/><stop offset="1" stop-color="#02905d"/></linearGradient><linearGradient id="SVGID_1_" gradientTransform="matrix(1 0 0 -1 0 514)" gradientUnits="userSpaceOnUse" x1="117.491" x2="404.752" xlink:href="#lg1" y1="396.509" y2="109.248"/><linearGradient id="lg2"><stop offset="0" stop-color="#026841" stop-opacity="0"/><stop offset=".2182" stop-color="#026841" stop-opacity=".033"/><stop offset=".4099" stop-color="#026841" stop-opacity=".137"/><stop offset=".5916" stop-color="#026841" stop-opacity=".31"/><stop offset=".7671" stop-color="#026841" stop-opacity=".553"/><stop offset=".9367" stop-color="#026841" stop-opacity=".864"/><stop offset="1" stop-color="#026841"/></linearGradient><linearGradient id="SVGID_00000115493225165838887780000015034189892497748613_" gradientTransform="matrix(1 0 0 -1 0 514)" gradientUnits="userSpaceOnUse" x1="256" x2="256" xlink:href="#lg2" y1="216.742" y2="-.214"/><linearGradient id="SVGID_00000021108220596958036320000012171718543648416134_" gradientTransform="matrix(1 0 0 -1 0 514)" gradientUnits="userSpaceOnUse" x1="296.344" x2="513.597" xlink:href="#lg2" y1="258" y2="258"/><linearGradient id="lg3"><stop offset="0" stop-color="#c1e9af" stop-opacity="0"/><stop offset=".1414" stop-color="#c1e9af" stop-opacity=".016"/><stop offset=".2738" stop-color="#c1e9af" stop-opacity=".065"/><stop offset=".4027" stop-color="#c1e9af" stop-opacity=".146"/><stop offset=".5294" stop-color="#c1e9af" stop-opacity=".26"/><stop offset=".6545" stop-color="#c1e9af" stop-opacity=".408"/><stop offset=".7785" stop-color="#c1e9af" stop-opacity=".589"/><stop offset=".8992" stop-color="#c1e9af" stop-opacity=".799"/><stop offset="1" stop-color="#c1e9af"/></linearGradient><linearGradient id="SVGID_00000018954567256971202410000017342960659627654321_" gradientTransform="matrix(1 0 0 -1 0 514)" gradientUnits="userSpaceOnUse" x1="344.465" x2="470.862" xlink:href="#lg3" y1="169.536" y2="43.138"/><linearGradient id="SVGID_00000183215931449858120870000000319611657304604811_" gradientTransform="matrix(1 0 0 -1 0 514)" gradientUnits="userSpaceOnUse" x1="185.505" x2="319.378" y1="328.495" y2="194.622"><stop offset="0" stop-color="#f3faff"/><stop offset="1" stop-color="#d5daf3"/></linearGradient><linearGradient id="lg4"><stop offset="0" stop-color="#dbd5ef" stop-opacity="0"/><stop offset=".2667" stop-color="#d8d2ec" stop-opacity=".023"/><stop offset=".4431" stop-color="#d1c9e2" stop-opacity=".098"/><stop offset=".5933" stop-color="#c4b9d1" stop-opacity=".225"/><stop offset=".7288" stop-color="#b2a4ba" stop-opacity=".405"/><stop offset=".8545" stop-color="#9a889c" stop-opacity=".638"/><stop offset=".9713" stop-color="#7e6678" stop-opacity=".92"/><stop offset="1" stop-color="#765d6e"/></linearGradient><linearGradient id="SVGID_00000083788839504747610360000009780773968309570184_" gradientTransform="matrix(1 0 0 -1 0 514)" gradientUnits="userSpaceOnUse" x1="256" x2="256" xlink:href="#lg4" y1="298.921" y2="425.212"/><linearGradient id="SVGID_00000039135978410562381700000005494859426268789395_" gradientTransform="matrix(1 0 0 -1 0 514)" gradientUnits="userSpaceOnUse" x1="273.723" x2="127.409" xlink:href="#lg4" y1="240.277" y2="386.591"/><linearGradient id="SVGID_00000157307457458728718410000002288872074921381286_" gradientTransform="matrix(1 0 0 -1 0 514)" gradientUnits="userSpaceOnUse" x1="201.911" x2="80.01" xlink:href="#lg4" y1="258" y2="258"/><linearGradient id="SVGID_00000006692452857406227000000005759187653832498824_" gradientTransform="matrix(1 0 0 -1 0 514)" gradientUnits="userSpaceOnUse" x1="386.199" x2="282.12" y1="13.307" y2="213.624"><stop offset="0" stop-color="#dbd5ef" stop-opacity="0"/><stop offset=".1592" stop-color="#d6cfe9" stop-opacity=".044"/><stop offset=".3536" stop-color="#c9c0d8" stop-opacity=".171"/><stop offset=".5664" stop-color="#b4a7bd" stop-opacity=".38"/><stop offset=".7906" stop-color="#978498" stop-opacity=".671"/><stop offset="1" stop-color="#765d6e"/></linearGradient><linearGradient id="SVGID_00000111156489345838534320000005753882042206718637_" gradientTransform="matrix(1 0 0 -1 0 514)" gradientUnits="userSpaceOnUse" x1="341.743" x2="294.693" xlink:href="#lg4" y1="319.455" y2="308.049"/><linearGradient id="SVGID_00000057826896664539765590000003340495167577105823_" gradientTransform="matrix(.707 .707 .707 -.707 -134.094 299.196)" gradientUnits="userSpaceOnUse" x1="313.945" x2="371.251" xlink:href="#lg1" y1="314.15" y2="314.15"/><linearGradient id="SVGID_00000063632296700363281850000017599733665338945726_" gradientTransform="matrix(.707 .707 .707 -.707 -2834.736 299.199)" gradientUnits="userSpaceOnUse" x1="2227.548" x2="2253.111" xlink:href="#lg2" y1="2225.343" y2="2223.087"/><linearGradient id="SVGID_00000047055725989413667750000017556643440075752618_" gradientTransform="matrix(.707 .707 .707 -.707 -2834.736 299.199)" gradientUnits="userSpaceOnUse" x1="2255.578" x2="2285.151" xlink:href="#lg2" y1="2222.848" y2="2220.091"/><linearGradient id="SVGID_00000111906048758133300360000006205329462481751720_" gradientTransform="matrix(.707 .707 .707 -.707 -2834.736 299.199)" gradientUnits="userSpaceOnUse" x1="2269.897" x2="2290.698" xlink:href="#lg2" y1="2209.589" y2="2197.058"/><linearGradient id="SVGID_00000168835006560226426660000004012498905872852627_" gradientTransform="matrix(.707 .707 .707 -.707 -2834.736 299.199)" gradientUnits="userSpaceOnUse" x1="2245.255" x2="2245.255" xlink:href="#lg2" y1="2176.015" y2="2125.031"/><linearGradient id="SVGID_00000106835007929903195570000004620589105413817245_" gradientTransform="matrix(.707 .707 .707 -.707 -2834.736 299.199)" gradientUnits="userSpaceOnUse" x1="2243.314" x2="2229.029" xlink:href="#lg2" y1="2218.263" y2="2221.772"/><linearGradient id="SVGID_00000080167230675769799110000001286223462992122802_" gradientTransform="matrix(.707 .707 .707 -.707 -2834.736 299.199)" gradientUnits="userSpaceOnUse" x1="2256.202" x2="2234.649" xlink:href="#lg2" y1="2201.309" y2="2208.326"/><linearGradient id="SVGID_00000019669809334643406210000017353313056740942253_" gradientTransform="matrix(.707 .707 .707 -.707 -2834.736 299.199)" gradientUnits="userSpaceOnUse" x1="2266.245" x2="2243.314" xlink:href="#lg2" y1="2178.138" y2="2186.409"/><linearGradient id="SVGID_00000030454185479333658120000001559625749688513189_" gradientTransform="matrix(.707 .707 .707 -.707 -2834.736 299.199)" gradientUnits="userSpaceOnUse" x1="2254.367" x2="2284.942" xlink:href="#lg2" y1="2223.216" y2="2235.998"/><linearGradient id="SVGID_00000042719111275480807180000014335084412982753941_" gradientTransform="matrix(.707 .707 .707 -.707 -2834.736 299.199)" gradientUnits="userSpaceOnUse" x1="2240.258" x2="2261.31" xlink:href="#lg2" y1="2204.385" y2="2213.157"/><linearGradient id="SVGID_00000007387885912979504620000011610433686730908317_" gradientTransform="matrix(.707 .707 .707 -.707 -2834.736 299.199)" gradientUnits="userSpaceOnUse" x1="2227.571" x2="2250.377" xlink:href="#lg2" y1="2179.832" y2="2191.611"/><linearGradient id="SVGID_00000047738567308665303190000012473467016998568832_" gradientTransform="matrix(-.707 .707 -.707 -.707 352.781 299.196)" gradientUnits="userSpaceOnUse" x1="106.541" x2="163.847" xlink:href="#lg1" y1="106.747" y2="106.747"/><linearGradient id="SVGID_00000030466255012835242140000016444677800863036582_" gradientTransform="matrix(-.707 .707 -.707 -.707 3053.424 299.199)" gradientUnits="userSpaceOnUse" x1="2020.145" x2="2045.708" xlink:href="#lg2" y1="2017.94" y2="2015.684"/><linearGradient id="SVGID_00000101098176948657582730000017691665098407555005_" gradientTransform="matrix(-.707 .707 -.707 -.707 3053.424 299.199)" gradientUnits="userSpaceOnUse" x1="2048.175" x2="2077.748" xlink:href="#lg2" y1="2015.445" y2="2012.688"/><linearGradient id="SVGID_00000000912347887319526220000010375776950226845870_" gradientTransform="matrix(-.707 .707 -.707 -.707 3053.424 299.199)" gradientUnits="userSpaceOnUse" x1="2062.494" x2="2083.295" xlink:href="#lg2" y1="2002.186" y2="1989.655"/><linearGradient id="SVGID_00000097473690867333073160000016985067916905188497_" gradientTransform="matrix(-.707 .707 -.707 -.707 3053.424 299.199)" gradientUnits="userSpaceOnUse" x1="2037.852" x2="2037.852" xlink:href="#lg2" y1="1968.612" y2="1917.628"/><linearGradient id="SVGID_00000042732990594999340340000002149963711585540280_" gradientTransform="matrix(-.707 .707 -.707 -.707 3053.424 299.199)" gradientUnits="userSpaceOnUse" x1="2035.911" x2="2021.626" xlink:href="#lg2" y1="2010.86" y2="2014.369"/><linearGradient id="SVGID_00000031929618591237493590000011202836500200579717_" gradientTransform="matrix(-.707 .707 -.707 -.707 3053.424 299.199)" gradientUnits="userSpaceOnUse" x1="2048.799" x2="2027.246" xlink:href="#lg2" y1="1993.906" y2="2000.923"/><linearGradient id="SVGID_00000044870792282325290770000004640551333782544809_" gradientTransform="matrix(-.707 .707 -.707 -.707 3053.424 299.199)" gradientUnits="userSpaceOnUse" x1="2058.842" x2="2035.911" xlink:href="#lg2" y1="1970.735" y2="1979.005"/><linearGradient id="SVGID_00000036211183764059699680000012798295061796058273_" gradientTransform="matrix(-.707 .707 -.707 -.707 3053.424 299.199)" gradientUnits="userSpaceOnUse" x1="2046.964" x2="2077.539" xlink:href="#lg2" y1="2015.813" y2="2028.595"/><linearGradient id="SVGID_00000029024820367958623740000002532085930755688126_" gradientTransform="matrix(-.707 .707 -.707 -.707 3053.424 299.199)" gradientUnits="userSpaceOnUse" x1="2032.855" x2="2053.907" xlink:href="#lg2" y1="1996.982" y2="2005.754"/><linearGradient id="SVGID_00000078744396101306077820000006839044179702760582_" gradientTransform="matrix(-.707 .707 -.707 -.707 3053.424 299.199)" gradientUnits="userSpaceOnUse" x1="2020.168" x2="2042.975" xlink:href="#lg2" y1="1972.429" y2="1984.208"/><linearGradient id="SVGID_00000173125984843493685210000004876059769452103593_" gradientTransform="matrix(1 0 0 -1 0 514)" gradientUnits="userSpaceOnUse" x1="322.4" x2="336.182" xlink:href="#lg3" y1="165.836" y2="139.223"/><linearGradient id="SVGID_00000005946367050788405650000011236202188627772607_" gradientTransform="matrix(1 0 0 -1 0 514)" gradientUnits="userSpaceOnUse" x1="226.687" x2="304.202" xlink:href="#lg1" y1="258" y2="258"/><linearGradient id="SVGID_00000082328200671812699760000006423548335576163205_" gradientTransform="matrix(1 0 0 -1 -1909.641 2423.645)" gradientUnits="userSpaceOnUse" x1="2141.689" x2="2176.266" xlink:href="#lg2" y1="2169.739" y2="2166.688"/><linearGradient id="SVGID_00000078010733382357001270000001767758068133681594_" gradientTransform="matrix(1 0 0 -1 -1909.641 2423.645)" gradientUnits="userSpaceOnUse" x1="2179.604" x2="2219.606" xlink:href="#lg2" y1="2166.365" y2="2162.636"/><linearGradient id="SVGID_00000173877921411849849460000005494539673917085575_" gradientTransform="matrix(1 0 0 -1 -1909.641 2423.645)" gradientUnits="userSpaceOnUse" x1="2198.971" x2="2227.108" xlink:href="#lg2" y1="2148.429" y2="2131.479"/><linearGradient id="SVGID_00000091717290818399707350000003348370610912798388_" gradientTransform="matrix(1 0 0 -1 -1909.641 2423.645)" gradientUnits="userSpaceOnUse" x1="2165.639" x2="2165.639" xlink:href="#lg2" y1="2103.016" y2="2034.051"/><linearGradient id="SVGID_00000057853005794246336490000009897375533995228034_" gradientTransform="matrix(1 0 0 -1 -1909.641 2423.645)" gradientUnits="userSpaceOnUse" x1="2163.014" x2="2143.691" xlink:href="#lg2" y1="2160.163" y2="2164.909"/><linearGradient id="SVGID_00000096052451358825982230000001988395289913859259_" gradientTransform="matrix(1 0 0 -1 -1909.641 2423.645)" gradientUnits="userSpaceOnUse" x1="2180.447" x2="2151.293" xlink:href="#lg2" y1="2137.229" y2="2146.721"/><linearGradient id="SVGID_00000147188315940321850860000014692842049522350212_" gradientTransform="matrix(1 0 0 -1 -1909.641 2423.645)" gradientUnits="userSpaceOnUse" x1="2194.032" x2="2163.014" xlink:href="#lg2" y1="2105.888" y2="2117.075"/><linearGradient id="SVGID_00000070804796901782620600000000515981477833672104_" gradientTransform="matrix(1 0 0 -1 -1909.641 2423.645)" gradientUnits="userSpaceOnUse" x1="2177.965" x2="2219.323" xlink:href="#lg2" y1="2166.863" y2="2184.152"/><linearGradient id="SVGID_00000142159149996771307820000007840815532184139691_" gradientTransform="matrix(1 0 0 -1 -1909.641 2423.645)" gradientUnits="userSpaceOnUse" x1="2158.881" x2="2187.357" xlink:href="#lg2" y1="2141.39" y2="2153.255"/><linearGradient id="SVGID_00000069386345324308207750000016559689986557167499_" gradientTransform="matrix(1 0 0 -1 -1909.641 2423.645)" gradientUnits="userSpaceOnUse" x1="2141.72" x2="2172.569" xlink:href="#lg2" y1="2108.179" y2="2124.112"/><linearGradient id="SVGID_00000036239710928432002480000017003216018190249386_" gradientTransform="matrix(1 0 0 -1 0 514)" gradientUnits="userSpaceOnUse" x1="273.795" x2="296.132" xlink:href="#lg3" y1="179.533" y2="153.87"/><g><g><circle cx="256" cy="256" fill="url(#SVGID_1_)" r="256"/><path d="m0 256c0 141.385 114.615 256 256 256s256-114.615 256-256c0-7.078-.3-14.085-.864-21.017h-510.272c-.564 6.932-.864 13.939-.864 21.017z" fill="url(#SVGID_00000115493225165838887780000015034189892497748613_)"/><path d="m256 0c-16.492 0-32.613 1.579-48.237 4.558v502.884c15.624 2.979 31.745 4.558 48.237 4.558 141.385 0 256-114.615 256-256s-114.615-256-256-256z" fill="url(#SVGID_00000021108220596958036320000012171718543648416134_)"/><path d="m435.94 73.927-362.013 362.013c46.409 46.955 110.838 76.06 182.073 76.06 141.385 0 256-114.615 256-256 0-71.235-29.105-135.664-76.06-182.073z" fill="url(#SVGID_00000018954567256971202410000017342960659627654321_)"/></g><g><circle cx="256" cy="256" fill="url(#SVGID_00000183215931449858120870000000319611657304604811_)" r="158.05"/><circle cx="256" cy="256" fill="url(#SVGID_00000083788839504747610360000009780773968309570184_)" r="158.05"/><circle cx="256" cy="256" fill="url(#SVGID_00000039135978410562381700000005494859426268789395_)" r="158.05"/><circle cx="256" cy="256" fill="url(#SVGID_00000157307457458728718410000002288872074921381286_)" r="158.05"/></g><path d="m413.516 268.985-21.384-21.384-99.036 99.036-136.038-2.68 66.823 66.823c10.372 2.141 21.114 3.269 32.119 3.269 82.916.001 150.91-63.851 157.516-145.064z" fill="url(#SVGID_00000006692452857406227000000005759187653832498824_)"/><path d="m263.089 130.992 124.979 124.979-117.809 38.523z" fill="url(#SVGID_00000111156489345838534320000005753882042206718637_)"/><g><g><path d="m394.417 252.732c-.38-4.175-3.241-7.035-7.415-7.415-28.315-2.577-63.187 11.435-91.226 39.474s-42.052 62.911-39.474 91.226c.38 4.175 3.241 7.035 7.415 7.415 28.315 2.577 63.187-11.435 91.226-39.474 28.039-28.04 42.051-62.911 39.474-91.226z" fill="url(#SVGID_00000057826896664539765590000003340495167577105823_)"/><path d="m392.132 247.601c-1.284-1.284-3.043-2.095-5.131-2.285-28.315-2.578-63.187 11.435-91.226 39.474s-42.052 62.911-39.474 91.226c.19 2.087 1 3.846 2.285 5.131z" fill="url(#SVGID_00000063632296700363281850000017599733665338945726_)"/><path d="m354.944 343.959c-28.037 28.037-62.91 42.05-91.227 39.47-2.088-.186-3.848-.999-5.131-2.282l133.545-133.545c1.283 1.283 2.096 3.043 2.282 5.131 2.581 28.316-11.432 63.188-39.469 91.226z" fill="url(#SVGID_00000047055725989413667750000017556643440075752618_)"/><path d="m354.944 343.959c-28.037 28.037-62.91 42.05-91.227 39.47-2.088-.186-3.848-.999-5.131-2.282l133.545-133.545c1.283 1.283 2.096 3.043 2.282 5.131 2.581 28.316-11.432 63.188-39.469 91.226z" fill="url(#SVGID_00000111906048758133300360000006205329462481751720_)"/><path d="m279.005 304.619c-16.73 23.584-24.7 49.458-22.703 71.397.38 4.175 3.241 7.035 7.415 7.415 21.94 1.997 47.814-5.973 71.397-22.703z" fill="url(#SVGID_00000168835006560226426660000004012498905872852627_)"/><g><path d="m354.943 343.957c21.74-21.74 35.041-47.587 38.721-71.301h-6.907c-12.601 0-24.685 5.006-33.595 13.916l-94.575 94.575c1.284 1.284 3.043 2.095 5.131 2.285 28.314 2.577 63.186-11.436 91.225-39.475z" fill="url(#SVGID_00000106835007929903195570000004620589105413817245_)"/><path d="m354.943 343.957c11.43-11.43 20.527-23.996 27.122-36.789h-29.82c-12.601 0-24.685 5.006-33.595 13.916l-60.063 60.063c1.284 1.284 3.043 2.095 5.131 2.285 28.314 2.577 63.186-11.436 91.225-39.475z" fill="url(#SVGID_00000080167230675769799110000001286223462992122802_)"/><path d="m258.586 381.147c1.284 1.284 3.043 2.095 5.131 2.285 28.315 2.578 63.187-11.435 91.226-39.474.754-.754 1.492-1.514 2.225-2.277h-39.435c-12.601 0-24.685 5.006-33.595 13.916z" fill="url(#SVGID_00000019669809334643406210000017353313056740942253_)"/></g><g><path d="m295.776 284.79c21.74-21.74 47.587-35.041 71.301-38.721v6.907c0 12.601-5.006 24.685-13.916 33.595l-94.575 94.575c-1.284-1.284-2.095-3.043-2.285-5.131-2.577-28.314 11.436-63.186 39.475-91.225z" fill="url(#SVGID_00000030454185479333658120000001559625749688513189_)"/><path d="m295.776 284.79c11.43-11.43 23.996-20.527 36.789-27.122v29.82c0 12.601-5.006 24.685-13.916 33.595l-60.063 60.063c-1.284-1.284-2.095-3.043-2.285-5.131-2.577-28.314 11.436-63.186 39.475-91.225z" fill="url(#SVGID_00000042719111275480807180000014335084412982753941_)"/><path d="m258.586 381.147c-1.284-1.284-2.095-3.043-2.285-5.131-2.578-28.315 11.435-63.187 39.474-91.226.754-.754 1.514-1.492 2.277-2.225v39.435c0 12.601-5.006 24.685-13.916 33.595z" fill="url(#SVGID_00000007387885912979504620000011610433686730908317_)"/></g></g><g><path d="m117.583 252.732c.38-4.175 3.241-7.035 7.415-7.415 28.315-2.577 63.187 11.435 91.226 39.474s42.052 62.911 39.474 91.226c-.38 4.175-3.241 7.035-7.415 7.415-28.315 2.577-63.187-11.435-91.226-39.474-28.039-28.04-42.051-62.911-39.474-91.226z" fill="url(#SVGID_00000047738567308665303190000012473467016998568832_)"/><path d="m119.868 247.601c1.284-1.284 3.043-2.095 5.131-2.285 28.315-2.578 63.187 11.435 91.226 39.474s42.052 62.911 39.474 91.226c-.19 2.087-1 3.846-2.285 5.131z" fill="url(#SVGID_00000030466255012835242140000016444677800863036582_)"/><path d="m157.056 343.959c28.037 28.037 62.91 42.05 91.227 39.47 2.088-.186 3.848-.999 5.131-2.282l-133.546-133.546c-1.283 1.283-2.096 3.043-2.282 5.131-2.58 28.317 11.433 63.189 39.47 91.227z" fill="url(#SVGID_00000101098176948657582730000017691665098407555005_)"/><path d="m157.056 343.959c28.037 28.037 62.91 42.05 91.227 39.47 2.088-.186 3.848-.999 5.131-2.282l-133.546-133.546c-1.283 1.283-2.096 3.043-2.282 5.131-2.58 28.317 11.433 63.189 39.47 91.227z" fill="url(#SVGID_00000000912347887319526220000010375776950226845870_)"/><path d="m232.995 304.619c16.73 23.584 24.7 49.458 22.703 71.397-.38 4.175-3.241 7.035-7.415 7.415-21.94 1.997-47.814-5.973-71.397-22.703z" fill="url(#SVGID_00000097473690867333073160000016985067916905188497_)"/><g><path d="m157.057 343.957c-21.74-21.74-35.041-47.587-38.721-71.301h6.907c12.601 0 24.685 5.006 33.595 13.916l94.575 94.575c-1.284 1.284-3.043 2.095-5.131 2.285-28.314 2.577-63.186-11.436-91.225-39.475z" fill="url(#SVGID_00000042732990594999340340000002149963711585540280_)"/><path d="m157.057 343.957c-11.43-11.43-20.527-23.996-27.122-36.789h29.82c12.601 0 24.685 5.006 33.595 13.916l60.063 60.063c-1.284 1.284-3.043 2.095-5.131 2.285-28.314 2.577-63.186-11.436-91.225-39.475z" fill="url(#SVGID_00000031929618591237493590000011202836500200579717_)"/><path d="m253.414 381.147c-1.284 1.284-3.043 2.095-5.131 2.285-28.315 2.578-63.187-11.435-91.226-39.474-.754-.754-1.492-1.514-2.225-2.277h39.435c12.601 0 24.685 5.006 33.595 13.916z" fill="url(#SVGID_00000044870792282325290770000004640551333782544809_)"/></g><g><path d="m216.224 284.79c-21.74-21.74-47.587-35.041-71.301-38.721v6.907c0 12.601 5.006 24.685 13.916 33.595l94.575 94.575c1.284-1.284 2.095-3.043 2.285-5.131 2.577-28.314-11.436-63.186-39.475-91.225z" fill="url(#SVGID_00000036211183764059699680000012798295061796058273_)"/><path d="m216.224 284.79c-11.43-11.43-23.996-20.527-36.789-27.122v29.82c0 12.601 5.006 24.685 13.916 33.595l60.063 60.063c1.284-1.284 2.095-3.043 2.285-5.131 2.577-28.314-11.436-63.186-39.475-91.225z" fill="url(#SVGID_00000029024820367958623740000002532085930755688126_)"/><path d="m253.414 381.147c1.284-1.284 2.095-3.043 2.285-5.131 2.578-28.315-11.435-63.187-39.474-91.226-.754-.754-1.514-1.492-2.277-2.225v39.435c0 12.601 5.006 24.685 13.916 33.595z" fill="url(#SVGID_00000078744396101306077820000006839044179702760582_)"/></g></g></g><path d="m354.943 343.957c11.43-11.43 20.527-23.996 27.122-36.789h-29.82c-12.601 0-24.685 5.006-33.595 13.916l-60.063 60.063c1.284 1.284 3.043 2.095 5.131 2.285 28.314 2.577 63.186-11.436 91.225-39.475z" fill="url(#SVGID_00000173125984843493685210000004876059769452103593_)"/><g><path d="m263.091 130.989c-4.356-3.629-9.829-3.629-14.185 0-29.548 24.617-49.499 71.374-49.499 125.011s19.951 100.393 49.499 125.011c4.356 3.629 9.829 3.629 14.185 0 29.548-24.618 49.499-71.374 49.499-125.011s-19.951-100.393-49.499-125.011z" fill="url(#SVGID_00000005946367050788405650000011236202188627772607_)"/><path d="m255.999 128.267c-2.457 0-4.914.907-7.092 2.722-29.548 24.617-49.499 71.374-49.499 125.011s19.951 100.393 49.499 125.011c2.178 1.815 4.635 2.722 7.092 2.722z" fill="url(#SVGID_00000082328200671812699760000006423548335576163205_)"/><path d="m312.593 256c0 53.634-19.951 100.391-49.504 125.008-2.176 1.819-4.637 2.725-7.09 2.725v-255.466c2.454 0 4.915.906 7.09 2.725 29.553 24.617 49.504 71.374 49.504 125.008z" fill="url(#SVGID_00000078010733382357001270000001767758068133681594_)"/><path d="m312.593 256c0 53.634-19.951 100.391-49.504 125.008-2.176 1.819-4.637 2.725-7.09 2.725v-255.466c2.454 0 4.915.906 7.09 2.725 29.553 24.617 49.504 71.374 49.504 125.008z" fill="url(#SVGID_00000173877921411849849460000005494539673917085575_)"/><path d="m202.332 291.006c6.555 38.559 23.68 70.93 46.574 90.005 4.356 3.629 9.829 3.629 14.185 0 22.895-19.074 40.02-51.445 46.574-90.005z" fill="url(#SVGID_00000091717290818399707350000003348370610912798388_)"/><g><path d="m312.59 256c0-41.588-12-79.031-31.162-105.234l-6.607 6.607c-12.052 12.052-18.823 28.399-18.823 45.443v180.917c2.457 0 4.914-.907 7.092-2.722 29.549-24.618 49.5-71.374 49.5-125.011z" fill="url(#SVGID_00000057853005794246336490000009897375533995228034_)"/><path d="m312.59 256c0-21.865-3.317-42.585-9.247-61.129l-28.522 28.522c-12.052 12.052-18.823 28.399-18.823 45.443v114.897c2.457 0 4.914-.907 7.092-2.722 29.549-24.618 49.5-71.374 49.5-125.011z" fill="url(#SVGID_00000096052451358825982230000001988395289913859259_)"/><path d="m255.999 383.733c2.457 0 4.914-.907 7.092-2.722 29.548-24.618 49.499-71.374 49.499-125.011 0-1.441-.021-2.875-.05-4.306l-37.719 37.718c-12.052 12.052-18.823 28.399-18.823 45.443z" fill="url(#SVGID_00000147188315940321850860000014692842049522350212_)"/></g><g><path d="m199.407 256c0-41.588 12-79.031 31.162-105.234l6.607 6.607c12.052 12.052 18.823 28.399 18.823 45.443v180.917c-2.457 0-4.914-.907-7.092-2.722-29.549-24.618-49.5-71.374-49.5-125.011z" fill="url(#SVGID_00000070804796901782620600000000515981477833672104_)"/><path d="m199.407 256c0-21.865 3.317-42.585 9.247-61.129l28.522 28.522c12.052 12.052 18.823 28.399 18.823 45.443v114.897c-2.457 0-4.914-.907-7.092-2.722-29.549-24.618-49.5-71.374-49.5-125.011z" fill="url(#SVGID_00000142159149996771307820000007840815532184139691_)"/><path d="m255.999 383.733c-2.457 0-4.914-.907-7.092-2.722-29.548-24.617-49.499-71.374-49.499-125.011 0-1.441.021-2.875.05-4.306l37.719 37.718c12.052 12.052 18.823 28.399 18.823 45.443z" fill="url(#SVGID_00000069386345324308207750000016559689986557167499_)"/></g></g><path d="m308.51 297.24c-7.27 35.81-23.77 65.73-45.42 83.77-4.36 3.63-9.83 3.63-14.18 0-21.65-18.04-38.15-47.96-45.42-83.77z" fill="url(#SVGID_00000036239710928432002480000017003216018190249386_)"/><g fill="#fff"><g><path d="m119.086 123.946c-.589.493-1.283.918-2.081 1.272-.798.356-1.604.608-2.418.757-.813.15-1.573.159-2.277.028-.704-.13-1.271-.453-1.703-.969-.092-.11-.225-.342-.398-.7l-17.918-42.275c-.507-1.203-.417-2.499.268-3.886.685-1.386 1.672-2.62 2.96-3.698s2.676-1.832 4.162-2.263c1.486-.429 2.777-.289 3.873.42l38.514 25.039c.32.234.526.405.619.515.432.516.65 1.132.654 1.847.004.717-.138 1.462-.429 2.236-.29.775-.681 1.525-1.17 2.248-.49.724-1.03 1.332-1.619 1.824-.7.585-1.397.967-2.095 1.143-.697.177-1.384.048-2.061-.387l-7.654-5.331-11.65 9.75 3.899 8.473c.309.744.315 1.442.019 2.097-.297.656-.796 1.276-1.495 1.86zm1.859-27.281-16.415-11.424 8.354 18.17z"/><path d="m151.848 98.924c-1.097.597-2.225.884-3.385.86s-2.017-.542-2.567-1.553l-21.9-40.215c-.574-1.053-.471-2.093.31-3.12.78-1.025 1.781-1.872 3.004-2.538 1.222-.666 2.476-1.047 3.762-1.147 1.285-.098 2.215.379 2.789 1.433l18.871 34.651 14.417-7.852c.969-.528 1.927-.475 2.873.157.946.633 1.717 1.498 2.314 2.593.597 1.097.904 2.213.923 3.351.018 1.138-.458 1.971-1.427 2.499z"/><path d="m181.604 84.3c-1.187.389-2.347.467-3.485.234-1.137-.233-1.885-.897-2.245-1.991l-14.275-43.51c-.374-1.14-.085-2.144.868-3.013.953-.868 2.09-1.519 3.414-1.954 1.322-.434 2.624-.583 3.907-.448 1.282.136 2.11.773 2.484 1.913l12.3 37.49 15.598-5.118c1.048-.344 1.98-.119 2.797.674.815.793 1.418 1.783 1.807 2.968.39 1.187.49 2.34.303 3.462-.188 1.123-.806 1.855-1.855 2.2z"/><path d="m215.826 44 10.713-1.364c1.095-.14 1.984.195 2.668 1.003.684.809 1.098 1.784 1.244 2.926.121.953-.021 1.926-.427 2.921s-1.204 1.568-2.394 1.72l-10.714 1.364 1.546 12.142 19.142-2.437c1.095-.14 1.991.243 2.686 1.146.696.904 1.128 2.022 1.298 3.355.146 1.143.021 2.26-.372 3.35-.394 1.091-1.186 1.711-2.375 1.863l-25.427 3.237c-1.239.158-2.394.014-3.466-.43s-1.682-1.237-1.827-2.38l-5.774-45.354c-.146-1.143.245-2.063 1.172-2.762s2.009-1.126 3.248-1.284l25.427-3.237c1.19-.151 2.112.251 2.767 1.208.654.958 1.054 2.007 1.199 3.149.17 1.334.031 2.525-.416 3.573-.447 1.049-1.219 1.643-2.313 1.783l-19.142 2.437z"/><path d="m248.491 22.535c.07-.909.442-1.674 1.117-2.296.673-.622 1.537-.892 2.59-.81l14.859 1.152c2.44.189 4.718.619 6.833 1.289 2.115.669 3.926 1.665 5.438 2.985 1.51 1.321 2.644 2.998 3.401 5.03.756 2.033 1.022 4.509.796 7.428-.312 4.02-1.385 7.15-3.22 9.391-1.834 2.241-4.034 3.744-6.596 4.507l7.527 16.543c.209.402.295.842.258 1.32-.056.718-.326 1.408-.81 2.068-.485.661-1.083 1.241-1.796 1.738-.713.499-1.501.883-2.364 1.152-.864.27-1.702.374-2.516.311-.718-.056-1.388-.265-2.01-.625s-1.095-.939-1.418-1.735l-8.353-19.857-4.738-.367-1.342 17.3c-.089 1.148-.742 1.964-1.959 2.448-1.218.483-2.52.671-3.907.563-1.389-.107-2.646-.494-3.774-1.159s-1.647-1.572-1.558-2.721zm10.702 7.257-1.036 13.352 7.107.551c2.01.156 3.626-.199 4.849-1.068 1.223-.868 1.932-2.569 2.129-5.106.197-2.536-.242-4.327-1.316-5.374-1.075-1.046-2.617-1.647-4.626-1.803z"/><path d="m316.973 47.184c.178-.597.332-1.278.46-2.042.127-.763.078-1.518-.15-2.262-.229-.745-.684-1.444-1.364-2.099-.681-.654-1.758-1.202-3.229-1.642-1.978-.591-3.676-.485-5.093.319-1.418.804-2.477 2.378-3.178 4.724l-5.465 18.281c-.701 2.345-.68 4.243.064 5.693.743 1.45 2.082 2.463 4.013 3.041 1.932.578 3.618.469 5.059-.329 1.44-.796 2.511-2.368 3.212-4.713l.701-2.346-4.07-1.217c-1.059-.316-1.736-.981-2.033-1.998-.297-1.015-.288-2.052.028-3.11.302-1.011.86-1.872 1.673-2.581.812-.708 1.748-.905 2.806-.589l11.589 3.464c1.058.316 1.763.891 2.116 1.722.353.833.391 1.708.116 2.627l-2.166 7.243c-.894 2.99-2.084 5.377-3.569 7.162-1.486 1.786-3.183 3.106-5.092 3.963-1.91.857-3.985 1.264-6.227 1.22-2.241-.044-4.558-.423-6.949-1.138-2.392-.715-4.525-1.666-6.399-2.853-1.875-1.186-3.375-2.662-4.5-4.426-1.126-1.765-1.821-3.8-2.082-6.108-.262-2.307.054-4.956.948-7.945l5.465-18.281c.88-2.942 2.066-5.319 3.559-7.127 1.492-1.808 3.193-3.141 5.103-3.998 1.909-.857 3.95-1.273 6.123-1.251 2.172.023 4.385.372 6.639 1.045 2.483.742 4.681 1.726 6.596 2.949 1.914 1.224 3.477 2.655 4.69 4.295 1.212 1.64 2.001 3.442 2.367 5.404.364 1.963.218 4.048-.442 6.255-.619 2.07-1.465 3.308-2.538 3.713-1.074.406-2.53.333-4.369-.216-1.472-.44-2.656-1.044-3.553-1.814-.899-.767-1.185-1.78-.859-3.035z"/><path d="m345.434 65.399 9.499 5.139c.971.525 1.499 1.316 1.583 2.371.083 1.056-.148 2.089-.696 3.103-.457.845-1.14 1.552-2.05 2.125-.91.572-1.893.572-2.948.001l-9.499-5.139-5.824 10.766 16.971 9.182c.971.525 1.476 1.358 1.514 2.497.038 1.14-.263 2.301-.902 3.482-.548 1.013-1.3 1.848-2.255 2.504-.957.657-1.961.699-3.016.128l-22.544-12.197c-1.098-.594-1.953-1.384-2.565-2.37s-.645-1.986-.097-2.999l21.755-40.212c.548-1.014 1.403-1.534 2.563-1.561s2.289.256 3.387.851l22.544 12.197c1.055.571 1.569 1.436 1.543 2.595-.027 1.16-.314 2.245-.862 3.258-.64 1.183-1.447 2.069-2.422 2.66-.975.592-1.948.625-2.918.099l-16.972-9.182z"/><path d="m376.442 124.814c-.984-.843-1.771-1.769-2.359-2.779-.59-1.01-.733-2.207-.431-3.592l5.815-27.819-15.924 18.593c-.75.875-1.758 1.148-3.026.821-1.269-.328-2.431-.944-3.488-1.85-1.058-.906-1.845-1.959-2.363-3.162-.519-1.203-.403-2.241.346-3.116l29.741-34.725c.78-.911 1.796-1.194 3.049-.849 1.251.346 2.407.971 3.464 1.877.766.656 1.39 1.254 1.875 1.795.484.542.846 1.151 1.086 1.831.239.679.328 1.499.267 2.456-.062.958-.26 2.147-.592 3.569l-5.613 24.485 15.924-18.593c.78-.911 1.788-1.185 3.026-.821 1.236.364 2.383.998 3.441 1.904 1.057.905 1.86 1.941 2.41 3.107.549 1.166.434 2.205-.346 3.116l-29.788 34.779c-.75.875-1.758 1.148-3.026.821-1.269-.327-2.432-.943-3.488-1.848z"/></g><g><path d="m182.055 428.46c.347-1.099 1.088-1.771 2.223-2.016s2.296-.181 3.487.195l23.823 7.526c1.144.361 1.812 1.114 2.005 2.257.192 1.144.115 2.264-.232 3.362-.405 1.282-1.03 2.305-1.876 3.069-.846.765-1.795.981-2.847.648l-17.782-5.618-3.666 11.603 10.367 3.275c1.052.333 1.72 1.009 2.002 2.029.281 1.021.249 2.08-.098 3.178-.29.916-.827 1.739-1.612 2.473-.786.733-1.751.919-2.895.558l-10.367-3.275-5.596 17.713c-.347 1.099-1.168 1.745-2.463 1.94s-2.606.083-3.933-.336c-1.328-.42-2.465-1.081-3.413-1.984-.949-.904-1.249-1.905-.901-3.003z"/><path d="m216.319 438.368c.1-.906.497-1.659 1.191-2.259.693-.599 1.565-.841 2.616-.726l14.814 1.635c2.433.268 4.696.771 6.788 1.509 2.091.738 3.87 1.792 5.337 3.16 1.466 1.37 2.545 3.083 3.236 5.138.69 2.057.875 4.54.555 7.45-.442 4.008-1.617 7.102-3.523 9.282s-4.153 3.61-6.739 4.291l6.986 16.779c.196.409.268.852.216 1.328-.079.716-.372 1.396-.877 2.041-.506.645-1.124 1.205-1.852 1.679-.729.476-1.529.834-2.4 1.075-.872.241-1.713.318-2.524.229-.715-.079-1.378-.31-1.988-.69s-1.064-.974-1.361-1.78l-7.704-20.119-4.724-.521-1.903 17.248c-.126 1.145-.806 1.939-2.038 2.383-1.233.443-2.54.589-3.923.437-1.384-.153-2.629-.58-3.734-1.281-1.107-.702-1.596-1.625-1.469-2.77zm10.462 7.601-1.469 13.311 7.085.782c2.004.221 3.631-.082 4.881-.91s2.015-2.505 2.294-5.035c.279-2.528-.102-4.333-1.141-5.414-1.04-1.08-2.562-1.731-4.565-1.952z"/><path d="m267.612 459.548 10.76-.934c1.1-.096 1.975.274 2.625 1.109.651.835 1.026 1.826 1.125 2.974.083.957-.098 1.924-.543 2.902-.446.979-1.266 1.52-2.461 1.623l-10.759.934 1.059 12.194 19.224-1.669c1.1-.096 1.979.323 2.638 1.252.659.931 1.047 2.066 1.163 3.404.1 1.148-.069 2.259-.506 3.333-.438 1.075-1.253 1.663-2.448 1.766l-25.536 2.217c-1.244.108-2.392-.082-3.446-.568-1.054-.487-1.631-1.304-1.73-2.452l-3.955-45.549c-.1-1.147.328-2.052 1.282-2.713.955-.661 2.053-1.045 3.297-1.153l25.536-2.217c1.195-.104 2.101.336 2.716 1.318.615.983.973 2.048 1.072 3.195.117 1.339-.07 2.524-.559 3.554s-1.283 1.593-2.383 1.688l-19.224 1.669z"/><path d="m308.063 453.293 10.384-2.97c1.061-.303 1.991-.107 2.789.588.798.696 1.355 1.597 1.672 2.705.264.923.271 1.907.021 2.952-.251 1.045-.953 1.732-2.106 2.062l-10.383 2.97 3.366 11.768 18.552-5.306c1.061-.303 2.005-.061 2.829.727s1.421 1.828 1.791 3.12c.317 1.107.363 2.23.14 3.368-.225 1.138-.914 1.871-2.066 2.201l-24.644 7.048c-1.201.343-2.364.376-3.491.1-1.127-.277-1.85-.969-2.167-2.077l-12.572-43.958c-.317-1.107-.07-2.077.741-2.908s1.815-1.418 3.016-1.761l24.644-7.048c1.153-.33 2.125-.071 2.917.776.792.848 1.346 1.824 1.663 2.932.37 1.292.413 2.491.129 3.595-.283 1.104-.956 1.809-2.017 2.112l-18.552 5.306z"/></g></g></g></svg>