<svg id="_03_Multivitamin" enable-background="new 0 0 512 512" viewBox="0 0 512 512" xmlns="http://www.w3.org/2000/svg" xmlns:xlink="http://www.w3.org/1999/xlink"><linearGradient id="lg1"><stop offset="0" stop-color="#f3faff"/><stop offset="1" stop-color="#d5daf3"/></linearGradient><linearGradient id="SVGID_1_" gradientTransform="matrix(1 0 0 -1 0 514)" gradientUnits="userSpaceOnUse" x1="291.536" x2="367.107" xlink:href="#lg1" y1="404.985" y2="404.985"/><linearGradient id="lg2"><stop offset="0" stop-color="#dbd5ef" stop-opacity="0"/><stop offset=".2667" stop-color="#d8d2ec" stop-opacity=".023"/><stop offset=".4431" stop-color="#d1c9e2" stop-opacity=".098"/><stop offset=".5933" stop-color="#c4b9d1" stop-opacity=".225"/><stop offset=".7288" stop-color="#b2a4ba" stop-opacity=".405"/><stop offset=".8545" stop-color="#9a889c" stop-opacity=".638"/><stop offset=".9713" stop-color="#7e6678" stop-opacity=".92"/><stop offset="1" stop-color="#765d6e"/></linearGradient><linearGradient id="SVGID_00000054254222153004445800000010130711542369719432_" gradientTransform="matrix(1 0 0 -1 0 514)" gradientUnits="userSpaceOnUse" x1="328.708" x2="335.312" xlink:href="#lg2" y1="456.681" y2="382.388"/><linearGradient id="SVGID_00000071522780681625852610000000923513127212445614_" gradientTransform="matrix(1 0 0 -1 0 514)" gradientUnits="userSpaceOnUse" x1="333.303" x2="333.303" xlink:href="#lg2" y1="387.925" y2="425.412"/><linearGradient id="SVGID_00000173865949808381217230000011175528239658075834_" gradientTransform="matrix(1 0 0 -1 0 514)" gradientUnits="userSpaceOnUse" x1="364.178" x2="448.636" xlink:href="#lg2" y1="404.985" y2="404.985"/><linearGradient id="SVGID_00000023239196116870925300000005052611050199648684_" gradientTransform="matrix(1 0 0 -1 0 514)" gradientUnits="userSpaceOnUse" x1="213.115" x2="363.587" xlink:href="#lg1" y1="199.254" y2="199.254"/><linearGradient id="SVGID_00000148641614775233196130000011218167637820835244_" gradientTransform="matrix(1 0 0 -1 0 514)" gradientUnits="userSpaceOnUse" x1="333.303" x2="333.303" xlink:href="#lg2" y1="68.188" y2="-.017"/><linearGradient id="SVGID_00000101102005942389994430000010996326063382712243_" gradientTransform="matrix(1 0 0 -1 0 514)" gradientUnits="userSpaceOnUse" x1="251.251" x2="195.629" xlink:href="#lg2" y1="54.162" y2="109.784"/><linearGradient id="SVGID_00000179633956592375691700000008892702721086693250_" gradientTransform="matrix(1 0 0 -1 0 514)" gradientUnits="userSpaceOnUse" x1="351.246" x2="513.985" xlink:href="#lg2" y1="199.254" y2="199.254"/><linearGradient id="SVGID_00000121259142464043095850000007438189219969013658_" gradientTransform="matrix(1 0 0 -1 0 514)" gradientUnits="userSpaceOnUse" x1="246.547" x2="432.697" y1="178.437" y2="178.437"><stop offset="0" stop-color="#c1e9af"/><stop offset=".1072" stop-color="#b6e4aa"/><stop offset=".2935" stop-color="#99d69e"/><stop offset=".5365" stop-color="#6bc18a"/><stop offset=".8238" stop-color="#2ca36f"/><stop offset="1" stop-color="#02905d"/></linearGradient><linearGradient id="lg3"><stop offset="0" stop-color="#026841" stop-opacity="0"/><stop offset=".2182" stop-color="#026841" stop-opacity=".033"/><stop offset=".4099" stop-color="#026841" stop-opacity=".137"/><stop offset=".5916" stop-color="#026841" stop-opacity=".31"/><stop offset=".7671" stop-color="#026841" stop-opacity=".553"/><stop offset=".9367" stop-color="#026841" stop-opacity=".864"/><stop offset="1" stop-color="#026841"/></linearGradient><linearGradient id="SVGID_00000129180240187846571700000005446637501578028186_" gradientTransform="matrix(1 0 0 -1 0 514)" gradientUnits="userSpaceOnUse" x1="326.656" x2="119.923" xlink:href="#lg3" y1="104.205" y2="166.938"/><linearGradient id="SVGID_00000173859473119011218810000012413156642224481703_" gradientTransform="matrix(1 0 0 -1 0 514)" gradientUnits="userSpaceOnUse" x1="190.303" x2="528.683" xlink:href="#lg3" y1="96.62" y2="96.62"/><linearGradient id="SVGID_00000082367676439341495100000005591728412851117711_" gradientTransform="matrix(1 0 0 -1 0 514)" gradientUnits="userSpaceOnUse" x1="190.303" x2="528.683" xlink:href="#lg3" y1="119.108" y2="119.108"/><linearGradient id="SVGID_00000103962226589504975560000013872411611993463190_" gradientTransform="matrix(1 0 0 -1 0 514)" gradientUnits="userSpaceOnUse" x1="190.303" x2="528.683" xlink:href="#lg3" y1="141.597" y2="141.597"/><linearGradient id="SVGID_00000073698940491482551110000001649766238490441370_" gradientTransform="matrix(1 0 0 -1 0 514)" gradientUnits="userSpaceOnUse" x1="372.846" x2="514.339" xlink:href="#lg3" y1="178.439" y2="178.439"/><linearGradient id="SVGID_00000085233112943315904700000001648064722383924647_" gradientTransform="matrix(1 0 0 -1 0 514)" gradientUnits="userSpaceOnUse" x1="328.024" x2="319.131" y1="344.99" y2="407.649"><stop offset="0" stop-color="#fff" stop-opacity="0"/><stop offset=".0925" stop-color="#fff" stop-opacity=".024"/><stop offset=".2178" stop-color="#fff" stop-opacity=".092"/><stop offset=".3619" stop-color="#fff" stop-opacity=".203"/><stop offset=".52" stop-color="#fff" stop-opacity=".359"/><stop offset=".6897" stop-color="#fff" stop-opacity=".559"/><stop offset=".8661" stop-color="#fff" stop-opacity=".798"/><stop offset="1" stop-color="#fff"/></linearGradient><linearGradient id="lg4"><stop offset="0" stop-color="#99e6fc"/><stop offset=".1325" stop-color="#8ee1fb"/><stop offset=".3627" stop-color="#71d5f9"/><stop offset=".6631" stop-color="#43c2f5"/><stop offset="1" stop-color="#08a9f1"/></linearGradient><linearGradient id="SVGID_00000164487372551365764400000017418318767772025742_" gradientTransform="matrix(1 0 0 -1 0 514)" gradientUnits="userSpaceOnUse" x1="333.303" x2="333.303" xlink:href="#lg4" y1="514" y2="420.439"/><linearGradient id="SVGID_00000013907868684266972730000006283479202532744618_" gradientTransform="matrix(1 0 0 -1 0 514)" gradientUnits="userSpaceOnUse" x1="264" x2="213.938" xlink:href="#lg4" y1="468.16" y2="468.16"/><linearGradient id="SVGID_00000090993597897646101500000004496575707426603904_" gradientTransform="matrix(1 0 0 -1 0 514)" gradientUnits="userSpaceOnUse" x1="443.5" x2="397.457" xlink:href="#lg4" y1="468.16" y2="468.16"/><linearGradient id="SVGID_00000077299153486499776490000007841041616523384451_" gradientTransform="matrix(1 0 0 -1 0 514)" gradientUnits="userSpaceOnUse" x1="333.303" x2="333.303" xlink:href="#lg4" y1="518.901" y2="428.869"/><linearGradient id="SVGID_00000039837693747554189670000011032952977914521259_" gradientTransform="matrix(1 0 0 -1 0 514)" gradientUnits="userSpaceOnUse" x1="356.749" x2="298.942" xlink:href="#lg4" y1="468.16" y2="468.16"/><linearGradient id="lg5"><stop offset="0" stop-color="#2740b0" stop-opacity="0"/><stop offset=".1646" stop-color="#263fae" stop-opacity=".036"/><stop offset=".3472" stop-color="#243ca8" stop-opacity=".143"/><stop offset=".5386" stop-color="#22389f" stop-opacity=".321"/><stop offset=".7359" stop-color="#1f3392" stop-opacity=".569"/><stop offset=".9359" stop-color="#1a2c82" stop-opacity=".885"/><stop offset="1" stop-color="#192a7d"/></linearGradient><linearGradient id="SVGID_00000165202946426663262070000011275521267069281964_" gradientTransform="matrix(1 0 0 -1 0 514)" gradientUnits="userSpaceOnUse" x1="333.303" x2="333.303" xlink:href="#lg5" y1="457.123" y2="404.427"/><linearGradient id="SVGID_00000131352515931185925750000005418407303058773168_" gradientTransform="matrix(1 0 0 -1 0 514)" gradientUnits="userSpaceOnUse" x1="330.751" x2="327.417" y1="438.229" y2="403.562"><stop offset="0" stop-color="#08a9f1" stop-opacity="0"/><stop offset=".0927" stop-color="#0baaf1" stop-opacity=".025"/><stop offset=".2192" stop-color="#15aef2" stop-opacity=".094"/><stop offset=".3651" stop-color="#26b5f3" stop-opacity=".208"/><stop offset=".5256" stop-color="#3dbff5" stop-opacity=".367"/><stop offset=".698" stop-color="#5acbf7" stop-opacity=".571"/><stop offset=".8776" stop-color="#7edaf9" stop-opacity=".816"/><stop offset="1" stop-color="#99e6fc"/></linearGradient><linearGradient id="SVGID_00000073713408387078120530000014846795093542787987_" gradientTransform="matrix(1 0 0 -1 0 514)" gradientUnits="userSpaceOnUse" x1="439.847" x2="471.604" xlink:href="#lg5" y1="468.16" y2="468.16"/><linearGradient id="SVGID_00000174594528180107086770000010423778109322911378_" gradientTransform="matrix(.707 -.707 -.707 -.707 60.665 717.766)" gradientUnits="userSpaceOnUse" x1="327.759" x2="327.759" y1="210.964" y2="152.036"><stop offset="0" stop-color="#fe646f"/><stop offset=".235" stop-color="#fa5964"/><stop offset=".6415" stop-color="#ef3d49"/><stop offset="1" stop-color="#e41f2d"/></linearGradient><linearGradient id="lg6"><stop offset="0" stop-color="#a72b2b" stop-opacity="0"/><stop offset=".1561" stop-color="#a32b2a" stop-opacity=".066"/><stop offset=".386" stop-color="#982c29" stop-opacity=".248"/><stop offset=".6615" stop-color="#872f28" stop-opacity=".545"/><stop offset=".97" stop-color="#6f3226" stop-opacity=".956"/><stop offset="1" stop-color="#6d3326"/></linearGradient><linearGradient id="SVGID_00000033336046529682644870000001541811957734487716_" gradientTransform="matrix(.707 -.707 -.707 -.707 60.665 717.766)" gradientUnits="userSpaceOnUse" x1="327.759" x2="327.759" xlink:href="#lg6" y1="202.388" y2="118.98"/><linearGradient id="SVGID_00000172405499932584236530000006406593415786221213_" gradientTransform="matrix(.707 -.707 -.707 -.707 60.665 717.766)" gradientUnits="userSpaceOnUse" x1="199.283" x2="199.283" y1="210.964" y2="152.036"><stop offset="0" stop-color="#fef0ae"/><stop offset="1" stop-color="#fac600"/></linearGradient><linearGradient id="SVGID_00000083804232776790487320000014582037269240679296_" gradientTransform="matrix(.707 -.707 -.707 -.707 60.665 717.766)" gradientUnits="userSpaceOnUse" x1="199.283" x2="199.283" y1="187.06" y2="128.046"><stop offset="0" stop-color="#fe9738" stop-opacity="0"/><stop offset=".1648" stop-color="#fe9637" stop-opacity=".012"/><stop offset=".2957" stop-color="#fe9535" stop-opacity=".052"/><stop offset=".415" stop-color="#fe9331" stop-opacity=".118"/><stop offset=".5274" stop-color="#fe902c" stop-opacity=".211"/><stop offset=".635" stop-color="#fe8c25" stop-opacity=".331"/><stop offset=".739" stop-color="#fe871d" stop-opacity=".479"/><stop offset=".8401" stop-color="#fe8213" stop-opacity=".655"/><stop offset=".9364" stop-color="#fe7b09" stop-opacity=".852"/><stop offset="1" stop-color="#fe7701"/></linearGradient><linearGradient id="SVGID_00000073722801589993742200000001890213280936827045_" gradientTransform="matrix(.707 -.707 -.707 -.707 60.665 717.766)" gradientUnits="userSpaceOnUse" x1="341.387" x2="373.26" xlink:href="#lg6" y1="174.691" y2="129.967"/><linearGradient id="SVGID_00000042733519946459501530000004795328500135838397_" gradientTransform="matrix(.707 -.707 -.707 -.707 60.665 717.766)" gradientUnits="userSpaceOnUse" x1="325.352" x2="407.09" xlink:href="#lg6" y1="186.583" y2="159.594"/><g><g><g><path d="m219.054 82.6h228.497v52.831h-228.497z" fill="url(#SVGID_1_)"/><path d="m219.054 82.6h228.497v52.831h-228.497z" fill="url(#SVGID_00000054254222153004445800000010130711542369719432_)"/><path d="m219.054 82.6h228.497v52.831h-228.497z" fill="url(#SVGID_00000071522780681625852610000000923513127212445614_)"/><path d="m333.303 82.6h114.249v52.831h-114.249z" fill="url(#SVGID_00000173865949808381217230000011175528239658075834_)"/></g><g><path d="m512 214.253-56.196 121.308 56.196 121.308v17.323c0 20.879-16.929 37.808-37.808 37.808h-281.779c-20.878 0-37.808-16.929-37.808-37.807v-269.829c0-47.974 38.896-86.871 86.871-86.871h183.653c47.974 0 86.871 38.896 86.871 86.871z" fill="url(#SVGID_00000023239196116870925300000005052611050199648684_)"/><path d="m512 456.869v17.323c0 20.879-16.929 37.808-37.808 37.808h-281.779c-20.878 0-37.808-16.929-37.808-37.807v-100.767h318.741z" fill="url(#SVGID_00000148641614775233196130000011218167637820835244_)"/><path d="m215.034 296.962-60.428 60.428v116.802c0 20.878 16.929 37.807 37.808 37.807h237.659z" fill="url(#SVGID_00000101102005942389994430000010996326063382712243_)"/><path d="m512 214.253-56.196 121.308 56.196 121.308v17.323c0 20.879-16.929 37.808-37.808 37.808h-154.588v-394.507h105.525c47.974 0 86.871 38.896 86.871 86.871z" fill="url(#SVGID_00000179633956592375691700000008892702721086693250_)"/><path d="m224.326 214.255h287.67v242.615h-287.67c-10.167 0-18.422-8.255-18.422-18.422v-205.771c0-10.167 8.254-18.422 18.422-18.422z" fill="url(#SVGID_00000121259142464043095850000007438189219969013658_)"/><path d="m215.034 296.962-9.13 9.13v132.356c0 10.174 8.248 18.422 18.422 18.422h150.616z" fill="url(#SVGID_00000129180240187846571700000005446637501578028186_)"/><g><g fill="#fff"><path d="m273.688 349.431c-1.464 0-2.997-.227-4.595-.686-1.601-.457-3.086-1.074-4.458-1.852-1.372-.776-2.493-1.691-3.36-2.744-.871-1.05-1.303-2.216-1.303-3.498 0-.274.09-.776.274-1.509l25.514-83.676c.731-2.377 2.445-4.16 5.144-5.35 2.696-1.188 5.646-1.783 8.848-1.783 3.2 0 6.149.596 8.848 1.783 2.696 1.189 4.411 2.973 5.144 5.35l25.652 83.676c.182.733.274 1.234.274 1.509 0 1.282-.435 2.448-1.303 3.498-.871 1.052-1.989 1.968-3.361 2.744-1.372.778-2.859 1.395-4.458 1.852-1.601.459-3.133.686-4.595.686-1.738 0-3.224-.296-4.458-.892-1.235-.594-2.081-1.623-2.538-3.086l-4.664-17.147h-28.944l-4.664 17.147c-.459 1.464-1.303 2.493-2.538 3.086-1.235.596-2.723.892-4.459.892zm36.077-37.585-10.014-36.763-10.014 36.763z"/><path d="m347.623 255.741c0-2.195.96-3.841 2.881-4.938 1.92-1.098 4.068-1.646 6.447-1.646h28.121c3.382 0 6.722.367 10.014 1.098 3.292.733 6.241 2.013 8.848 3.841 2.606 1.831 4.686 4.321 6.241 7.476 1.554 3.155 2.332 7.157 2.332 12.002 0 5.579-1.029 10.175-3.086 13.786-2.058 3.614-4.917 6.196-8.573 7.75 2.103.823 4.023 1.783 5.761 2.88 1.736 1.098 3.224 2.493 4.458 4.184 1.234 1.693 2.194 3.751 2.88 6.173.686 2.424 1.029 5.328 1.029 8.71v2.881c0 5.396-.709 9.968-2.126 13.717-1.419 3.751-3.361 6.79-5.83 9.122s-5.397 4.025-8.779 5.075c-3.384 1.053-6.996 1.578-10.836 1.578h-30.453c-2.928 0-5.213-.639-6.859-1.92-1.646-1.28-2.469-2.789-2.469-4.527v-87.242zm21.262 31.139h14.403c2.651 0 4.617-.982 5.898-2.949 1.279-1.965 1.92-4.137 1.92-6.516 0-2.377-.641-4.572-1.92-6.584-1.282-2.011-3.247-3.018-5.898-3.018h-14.403zm13.718 43.895c3.475 0 6.173-1.005 8.093-3.018 1.92-2.011 2.881-5.213 2.881-9.603v-2.194c0-4.664-.96-7.933-2.881-9.808-1.92-1.874-4.619-2.812-8.093-2.812h-13.717v27.435z"/><path d="m470.942 280.158c0-.913-.092-2.058-.274-3.429-.184-1.372-.686-2.72-1.509-4.047-.823-1.324-2.036-2.469-3.635-3.429-1.601-.96-3.864-1.44-6.79-1.44-3.933 0-6.974 1.121-9.122 3.361-2.15 2.242-3.224 5.693-3.224 10.357v36.351c0 4.664 1.074 8.117 3.224 10.356 2.148 2.242 5.234 3.361 9.259 3.361 2.744 0 4.891-.457 6.447-1.372 1.554-.913 2.744-2.058 3.566-3.429.823-1.372 1.348-2.857 1.578-4.458.227-1.599.388-3.086.48-4.458.182-2.56 1.303-4.274 3.361-5.144 2.058-.868 4.458-1.303 7.202-1.303 3.749 0 6.492.665 8.23 1.989 1.736 1.327 2.606 4.047 2.606 8.162 0 4.574-.871 8.642-2.606 12.208-1.738 3.566-4.163 6.563-7.27 8.985-3.11 2.424-6.745 4.276-10.906 5.556-4.162 1.279-8.71 1.92-13.648 1.92-4.482 0-8.711-.572-12.689-1.715s-7.476-3.018-10.494-5.624-5.397-5.944-7.133-10.014c-1.738-4.068-2.606-9.075-2.606-15.021v-36.351c0-5.852.868-10.837 2.606-14.952 1.736-4.115 4.115-7.476 7.133-10.083 3.018-2.606 6.516-4.479 10.494-5.624 3.978-1.142 8.207-1.715 12.689-1.715 4.938 0 9.486.596 13.648 1.784 4.161 1.189 7.795 2.949 10.906 5.281 3.107 2.332 5.532 5.191 7.27 8.573 1.736 3.384 2.606 7.27 2.606 11.66 0 4.115-.871 6.837-2.606 8.162-1.738 1.327-4.437 1.989-8.093 1.989-2.928 0-5.397-.457-7.407-1.372-2.014-.912-3.111-2.605-3.293-5.075z"/></g><g><path d="m288.455 411.969h175.402c2.988 0 5.411 2.423 5.411 5.411 0 2.988-2.423 5.411-5.411 5.411h-175.402c-2.988 0-5.411-2.423-5.411-5.411 0-2.988 2.423-5.411 5.411-5.411z" fill="url(#SVGID_00000173859473119011218810000012413156642224481703_)"/><path d="m265.414 389.481h221.483c2.988 0 5.411 2.423 5.411 5.411 0 2.988-2.423 5.411-5.411 5.411h-221.483c-2.988 0-5.411-2.423-5.411-5.411 0-2.989 2.423-5.411 5.411-5.411z" fill="url(#SVGID_00000082367676439341495100000005591728412851117711_)"/><path d="m323.491 366.992h105.331c2.988 0 5.411 2.423 5.411 5.411 0 2.988-2.423 5.411-5.411 5.411h-105.331c-2.988 0-5.411-2.423-5.411-5.411 0-2.988 2.422-5.411 5.411-5.411z" fill="url(#SVGID_00000103962226589504975560000013872411611993463190_)"/></g></g><path d="m319.604 214.253h192.396v242.617h-192.396z" fill="url(#SVGID_00000073698940491482551110000001649766238490441370_)"/></g><path d="m425.129 117.493h-183.653c-47.974 0-86.871 38.896-86.871 86.871v9.892h357.393l.001-.003v-9.889c.001-47.975-38.895-86.871-86.87-86.871z" fill="url(#SVGID_00000085233112943315904700000001648064722383924647_)"/><path d="m211.751 0h243.104c8.076 0 14.624 6.547 14.624 14.624v62.433c0 8.076-6.547 14.624-14.624 14.624h-243.104c-8.076 0-14.624-6.547-14.624-14.624v-62.433c0-8.077 6.548-14.624 14.624-14.624z" fill="url(#SVGID_00000164487372551365764400000017418318767772025742_)"/><path d="m264 10.43v70.82c0 5.76 4.67 10.43 10.44 10.43h-37.33c-7.24 0-13.1-5.87-13.1-13.1v-65.48c0-7.23 5.86-13.1 13.1-13.1h37.33c-5.77 0-10.44 4.67-10.44 10.43z" fill="url(#SVGID_00000013907868684266972730000006283479202532744618_)"/><path d="m442.6 13.1v65.48c0 7.23-5.87 13.1-13.1 13.1h-37.33c5.76 0 10.43-4.67 10.43-10.43v-70.82c0-5.76-4.67-10.43-10.43-10.43h37.33c7.23 0 13.1 5.87 13.1 13.1z" fill="url(#SVGID_00000090993597897646101500000004496575707426603904_)"/><path d="m274.436 0h117.734c5.761 0 10.432 4.671 10.432 10.432v70.816c0 5.761-4.671 10.432-10.432 10.432h-117.734c-5.761 0-10.432-4.671-10.432-10.432v-70.816c0-5.761 4.67-10.432 10.432-10.432z" fill="url(#SVGID_00000077299153486499776490000007841041616523384451_)"/><path d="m314.002 0h38.601c3.505 0 6.346 2.841 6.346 6.346v78.987c0 3.505-2.841 6.346-6.346 6.346h-38.601c-3.505 0-6.346-2.841-6.346-6.346v-78.987c0-3.505 2.841-6.346 6.346-6.346z" fill="url(#SVGID_00000039837693747554189670000011032952977914521259_)"/><path d="m197.127 20.688v56.368c0 8.076 6.547 14.624 14.624 14.624h243.104c8.076 0 14.624-6.547 14.624-14.624v-56.368z" fill="url(#SVGID_00000165202946426663262070000011275521267069281964_)"/><path d="m197.127 20.688v56.368c0 8.076 6.547 14.624 14.624 14.624h243.104c8.076 0 14.624-6.547 14.624-14.624v-56.368z" fill="url(#SVGID_00000131352515931185925750000005418407303058773168_)"/><path d="m454.855 0h-121.552v91.68h121.552c8.076 0 14.624-6.547 14.624-14.624v-62.432c-.001-8.077-6.548-14.624-14.624-14.624z" fill="url(#SVGID_00000073713408387078120530000014846795093542787987_)"/></g><g><path d="m215.036 296.964c12.982 12.982 19.474 29.998 19.474 47.009s-6.491 34.027-19.474 47.009l-50.772 50.772-60.879-33.139-33.139-60.879 50.772-50.772c25.965-25.965 68.053-25.965 94.018 0z" fill="url(#SVGID_00000174594528180107086770000010423778109322911378_)"/><path d="m215.036 296.964c12.982 12.982 19.474 29.998 19.474 47.009s-6.491 34.027-19.474 47.009l-50.772 50.772-60.879-33.139-10.096-18.551 105.2-105.2c5.961 3.075 11.55 7.103 16.547 12.1z" fill="url(#SVGID_00000033336046529682644870000001541811957734487716_)"/><path d="m70.246 347.736 94.018 94.018-50.772 50.772c-25.965 25.965-68.053 25.965-94.018 0-12.983-12.982-19.474-29.998-19.474-47.009s6.491-34.027 19.474-47.009z" fill="url(#SVGID_00000172405499932584236530000006406593415786221213_)"/><path d="m102.931 380.422 61.332 61.332-50.772 50.772c-25.965 25.965-68.053 25.965-94.018 0-4.997-4.997-9.031-10.591-12.1-16.547z" fill="url(#SVGID_00000083804232776790487320000014582037269240679296_)"/><path d="m121.018 296.964-36.401 36.401 94.018 94.018 36.401-36.401c12.982-12.982 19.474-29.998 19.474-47.009s-6.491-34.027-19.474-47.009c-25.965-25.965-68.053-25.965-94.018 0z" fill="url(#SVGID_00000073722801589993742200000001890213280936827045_)"/><path d="m121.018 296.964-36.401 36.401 94.018 94.018 36.401-36.401c12.982-12.982 19.474-29.998 19.474-47.009s-6.491-34.027-19.474-47.009c-25.965-25.965-68.053-25.965-94.018 0z" fill="url(#SVGID_00000042733519946459501530000004795328500135838397_)"/></g></g></svg>