<svg id="_04_Syringe" enable-background="new 0 0 512 512" viewBox="0 0 512 512" xmlns="http://www.w3.org/2000/svg" xmlns:xlink="http://www.w3.org/1999/xlink"><linearGradient id="lg1"><stop offset="0" stop-color="#fef0ae"/><stop offset="1" stop-color="#fac600"/></linearGradient><linearGradient id="SVGID_1_" gradientTransform="matrix(1 0 0 -1 0 514)" gradientUnits="userSpaceOnUse" x1="38.537" x2="65.804" xlink:href="#lg1" y1="40.569" y2="10.338"/><linearGradient id="lg2"><stop offset="0" stop-color="#fe9738" stop-opacity="0"/><stop offset=".1648" stop-color="#fe9637" stop-opacity=".012"/><stop offset=".2957" stop-color="#fe9535" stop-opacity=".052"/><stop offset=".415" stop-color="#fe9331" stop-opacity=".118"/><stop offset=".5274" stop-color="#fe902c" stop-opacity=".211"/><stop offset=".635" stop-color="#fe8c25" stop-opacity=".331"/><stop offset=".739" stop-color="#fe871d" stop-opacity=".479"/><stop offset=".8401" stop-color="#fe8213" stop-opacity=".655"/><stop offset=".9364" stop-color="#fe7b09" stop-opacity=".852"/><stop offset="1" stop-color="#fe7701"/></linearGradient><linearGradient id="SVGID_00000052809519535190322780000013385693907604535452_" gradientTransform="matrix(1 0 0 -1 0 514)" gradientUnits="userSpaceOnUse" x1="48.192" x2="48.192" xlink:href="#lg2" y1="30.814" y2="-.318"/><linearGradient id="SVGID_00000177456200886201741980000008809122614091185842_" gradientTransform="matrix(1 0 0 -1 0 514)" gradientUnits="userSpaceOnUse" x1="48.028" x2="75.838" xlink:href="#lg2" y1="33.624" y2="36.175"/><linearGradient id="SVGID_00000070824226314155612570000007148219103916302253_" gradientTransform="matrix(1 0 0 -1 0 514)" gradientUnits="userSpaceOnUse" x1="55.326" x2="72.527" y1="23.649" y2="7.186"><stop offset="0" stop-color="#fac600" stop-opacity="0"/><stop offset=".1175" stop-color="#fac602" stop-opacity=".017"/><stop offset=".2423" stop-color="#fac80b" stop-opacity=".067"/><stop offset=".3705" stop-color="#facc1a" stop-opacity=".151"/><stop offset=".5011" stop-color="#fbd12e" stop-opacity=".268"/><stop offset=".6336" stop-color="#fbd748" stop-opacity=".419"/><stop offset=".7676" stop-color="#fcdf69" stop-opacity=".604"/><stop offset=".9003" stop-color="#fde88e" stop-opacity=".819"/><stop offset="1" stop-color="#fef0ae"/></linearGradient><linearGradient id="lg3"><stop offset="0" stop-color="#7a6d79"/><stop offset="1" stop-color="#593636"/></linearGradient><linearGradient id="SVGID_00000121989595442355471620000014181020000954091906_" gradientTransform="matrix(1 0 0 -1 0 514)" gradientUnits="userSpaceOnUse" x1="126.892" x2="132.146" xlink:href="#lg3" y1="157.117" y2="151.862"/><linearGradient id="SVGID_00000037657724794118454070000010979040104484744325_" gradientTransform="matrix(.707 .707 .707 -.707 -219.236 251.705)" gradientUnits="userSpaceOnUse" x1="305.632" x2="344.561" y1="213.834" y2="213.834"><stop offset="0" stop-color="#c1e9af"/><stop offset=".1072" stop-color="#b6e4aa"/><stop offset=".2935" stop-color="#99d69e"/><stop offset=".5365" stop-color="#6bc18a"/><stop offset=".8238" stop-color="#2ca36f"/><stop offset="1" stop-color="#02905d"/></linearGradient><linearGradient id="SVGID_00000088135257154613597500000001908370872619488166_" gradientTransform="matrix(.707 .707 .707 -.707 -219.236 251.705)" gradientUnits="userSpaceOnUse" x1="323.331" x2="323.331" y1="201.029" y2="235.447"><stop offset="0" stop-color="#026841" stop-opacity="0"/><stop offset=".2182" stop-color="#026841" stop-opacity=".033"/><stop offset=".4099" stop-color="#026841" stop-opacity=".137"/><stop offset=".5916" stop-color="#026841" stop-opacity=".31"/><stop offset=".7671" stop-color="#026841" stop-opacity=".553"/><stop offset=".9367" stop-color="#026841" stop-opacity=".864"/><stop offset="1" stop-color="#026841"/></linearGradient><linearGradient id="lg4"><stop offset="0" stop-color="#f3faff"/><stop offset="1" stop-color="#d5daf3"/></linearGradient><linearGradient id="SVGID_00000000197850062786795010000008657212194776426898_" gradientTransform="matrix(.707 .707 .707 -.707 -219.236 251.705)" gradientUnits="userSpaceOnUse" x1="305.174" x2="339.282" xlink:href="#lg4" y1="254.473" y2="254.473"/><linearGradient id="lg5"><stop offset="0" stop-color="#c1e9af" stop-opacity="0"/><stop offset=".1332" stop-color="#b2e2a8" stop-opacity=".074"/><stop offset=".3646" stop-color="#8dd098" stop-opacity=".271"/><stop offset=".6666" stop-color="#4fb47e" stop-opacity=".592"/><stop offset="1" stop-color="#02905d"/></linearGradient><linearGradient id="SVGID_00000041260515096299617230000017163134657982927521_" gradientTransform="matrix(.707 .707 .707 -.707 -219.236 251.705)" gradientUnits="userSpaceOnUse" x1="287.551" x2="348.005" xlink:href="#lg5" y1="237.999" y2="239.373"/><linearGradient id="SVGID_00000136376644990731473650000007037575879058909118_" gradientTransform="matrix(.707 .707 .707 -.707 -219.236 251.705)" gradientUnits="userSpaceOnUse" x1="321.419" x2="326.915" xlink:href="#lg5" y1="220.217" y2="265.557"/><linearGradient id="lg6"><stop offset="0" stop-color="#dbd5ef" stop-opacity="0"/><stop offset=".2667" stop-color="#d8d2ec" stop-opacity=".023"/><stop offset=".4431" stop-color="#d1c9e2" stop-opacity=".098"/><stop offset=".5933" stop-color="#c4b9d1" stop-opacity=".225"/><stop offset=".7288" stop-color="#b2a4ba" stop-opacity=".405"/><stop offset=".8545" stop-color="#9a889c" stop-opacity=".638"/><stop offset=".9713" stop-color="#7e6678" stop-opacity=".92"/><stop offset="1" stop-color="#765d6e"/></linearGradient><linearGradient id="SVGID_00000093879154228501935200000004258145815326784651_" gradientTransform="matrix(.707 .707 .707 -.707 -219.236 251.705)" gradientUnits="userSpaceOnUse" x1="304.487" x2="356.498" xlink:href="#lg6" y1="254.473" y2="254.473"/><linearGradient id="SVGID_00000041978481258823889500000016751950022667477407_" gradientTransform="matrix(.707 .707 .707 -.707 -219.236 251.705)" gradientUnits="userSpaceOnUse" x1="323.331" x2="323.331" xlink:href="#lg6" y1="241.57" y2="216.83"/><linearGradient id="SVGID_00000152240434071933740360000003433973404918920861_" gradientTransform="matrix(.707 .707 .707 -.707 -219.236 251.705)" gradientUnits="userSpaceOnUse" x1="323.331" x2="323.331" xlink:href="#lg6" y1="234.7" y2="268.808"/><linearGradient id="SVGID_00000140723260612971168020000003024651879276431281_" gradientTransform="matrix(.707 .707 .707 -.707 -219.236 251.705)" gradientUnits="userSpaceOnUse" x1="307.922" x2="337.494" xlink:href="#lg4" y1="542.508" y2="542.508"/><linearGradient id="SVGID_00000070086179220831259590000006961475749537232312_" gradientTransform="matrix(.707 .707 .707 -.707 -219.236 251.705)" gradientUnits="userSpaceOnUse" x1="313.418" x2="345.685" xlink:href="#lg6" y1="542.508" y2="542.508"/><linearGradient id="SVGID_00000020385428340634839800000002104044122939789748_" gradientTransform="matrix(.707 .707 .707 -.707 -219.236 251.705)" gradientUnits="userSpaceOnUse" x1="323.331" x2="323.331" xlink:href="#lg6" y1="589.8" y2="559.573"/><linearGradient id="SVGID_00000070813827217185231780000016592222866248270265_" gradientTransform="matrix(.707 .707 .707 -.707 -219.236 251.705)" gradientUnits="userSpaceOnUse" x1="323.331" x2="323.331" xlink:href="#lg6" y1="574.71" y2="600.646"/><linearGradient id="SVGID_00000007387858580951899530000017098153683727013299_" gradientTransform="matrix(.707 .707 .707 -.707 -219.236 251.705)" gradientUnits="userSpaceOnUse" x1="287.313" x2="356.024" xlink:href="#lg4" y1="412.013" y2="412.013"/><linearGradient id="SVGID_00000154419166051861665190000011749443117499989121_" gradientTransform="matrix(.707 .707 .707 -.707 -219.236 251.705)" gradientUnits="userSpaceOnUse" x1="323.331" x2="323.331" xlink:href="#lg6" y1="438.666" y2="480.115"/><linearGradient id="SVGID_00000066492131880873170560000011271600519845467052_" gradientTransform="matrix(.707 .707 .707 -.707 -219.236 251.705)" gradientUnits="userSpaceOnUse" x1="299.22" x2="334.887" xlink:href="#lg1" y1="397.217" y2="397.217"/><linearGradient id="SVGID_00000116923424336760399570000012658766326015617439_" gradientTransform="matrix(1 0 0 -1 0 514)" gradientUnits="userSpaceOnUse" x1="328.115" x2="348.866" xlink:href="#lg2" y1="352.385" y2="373.137"/><linearGradient id="SVGID_00000015326345027694624240000008515303898632090765_" gradientTransform="matrix(.707 .707 .707 -.707 -219.236 251.705)" gradientUnits="userSpaceOnUse" x1="321.204" x2="360.585" xlink:href="#lg2" y1="397.217" y2="397.217"/><linearGradient id="SVGID_00000174591482027501471940000010332252423494309284_" gradientTransform="matrix(.707 .707 .707 -.707 -219.236 251.705)" gradientUnits="userSpaceOnUse" x1="300.594" x2="350.684" xlink:href="#lg3" y1="300.829" y2="300.829"/><linearGradient id="lg7"><stop offset="0" stop-color="#593636" stop-opacity="0"/><stop offset=".2774" stop-color="#543333" stop-opacity=".101"/><stop offset=".5956" stop-color="#482d2e" stop-opacity=".396"/><stop offset=".9328" stop-color="#332224" stop-opacity=".883"/><stop offset="1" stop-color="#2f2022"/></linearGradient><linearGradient id="SVGID_00000042703744737279404880000002776423304746104996_" gradientTransform="matrix(.707 .707 .707 -.707 -219.236 251.705)" gradientUnits="userSpaceOnUse" x1="323.331" x2="323.331" xlink:href="#lg7" y1="302.711" y2="280.382"/><linearGradient id="SVGID_00000013900009715150511530000013015911887680189606_" gradientTransform="matrix(.707 .707 .707 -.707 -219.236 251.705)" gradientUnits="userSpaceOnUse" x1="334.027" x2="360.874" xlink:href="#lg7" y1="300.831" y2="300.831"/><linearGradient id="SVGID_00000174593136432293376970000004696709025098441386_" gradientTransform="matrix(.707 .707 .707 -.707 -219.236 251.705)" gradientUnits="userSpaceOnUse" x1="259.31" x2="350.677" xlink:href="#lg6" y1="511.277" y2="522.269"/><linearGradient id="SVGID_00000027597917724400493230000007716160326354608004_" gradientTransform="matrix(.707 .707 .707 -.707 -219.236 251.705)" gradientUnits="userSpaceOnUse" x1="323.331" x2="323.331" xlink:href="#lg4" y1="490.303" y2="475.174"/><linearGradient id="SVGID_00000052087662943133826660000011757951157413612456_" gradientTransform="matrix(.707 .707 .707 -.707 -219.236 251.705)" gradientUnits="userSpaceOnUse" x1="325.783" x2="377.284" xlink:href="#lg6" y1="412.013" y2="412.013"/><linearGradient id="SVGID_00000113336340246997533090000008855524845875481270_" gradientTransform="matrix(.707 .707 .707 -.707 -219.236 251.705)" gradientUnits="userSpaceOnUse" x1="323.331" x2="323.331" xlink:href="#lg6" y1="494.998" y2="543.019"/><linearGradient id="SVGID_00000075841332073015570160000008781853994281025681_" gradientTransform="matrix(.707 .707 .707 -.707 -219.236 251.705)" gradientUnits="userSpaceOnUse" x1="323.331" x2="323.331" xlink:href="#lg6" y1="320.442" y2="265.533"/><linearGradient id="SVGID_00000163072751965948333310000017592898953205132439_" gradientTransform="matrix(.707 .707 .707 -.707 -219.236 251.705)" gradientUnits="userSpaceOnUse" x1="323.331" x2="323.331" xlink:href="#lg4" y1="560.489" y2="540.988"/><linearGradient id="SVGID_00000008847325372687674950000004840273752960934827_" gradientTransform="matrix(.707 .707 .707 -.707 -219.236 251.705)" gradientUnits="userSpaceOnUse" x1="323.331" x2="323.331" xlink:href="#lg6" y1="559.573" y2="537.585"/><linearGradient id="SVGID_00000043441996722597379670000005384532063351855519_" gradientTransform="matrix(.707 .707 .707 -.707 -219.236 251.705)" gradientUnits="userSpaceOnUse" x1="367.918" x2="411.484" xlink:href="#lg6" y1="551.33" y2="551.33"/><linearGradient id="SVGID_00000173875544991342088520000016502889409182982078_" gradientTransform="matrix(.707 .707 .707 -.707 -219.236 251.705)" gradientUnits="userSpaceOnUse" x1="323.81" x2="322.689" xlink:href="#lg4" y1="619.246" y2="599.442"/><linearGradient id="SVGID_00000121957802373732602880000012737809736193525671_" gradientTransform="matrix(.707 .707 .707 -.707 -219.236 251.705)" gradientUnits="userSpaceOnUse" x1="323.331" x2="323.331" xlink:href="#lg6" y1="629.759" y2="600.361"/><linearGradient id="SVGID_00000018933930415306710830000017337294804191945892_" gradientTransform="matrix(.707 .707 .707 -.707 -219.236 251.705)" gradientUnits="userSpaceOnUse" x1="323.331" x2="323.331" xlink:href="#lg6" y1="613.272" y2="595.2"/><linearGradient id="SVGID_00000055690586716238855590000005399486122154856876_" gradientTransform="matrix(.707 .707 .707 -.707 -219.236 251.705)" gradientUnits="userSpaceOnUse" x1="349.119" x2="373.163" xlink:href="#lg6" y1="611.342" y2="590.045"/><linearGradient id="lg8"><stop offset="0" stop-color="#fff" stop-opacity="0"/><stop offset=".0925" stop-color="#fff" stop-opacity=".024"/><stop offset=".2178" stop-color="#fff" stop-opacity=".092"/><stop offset=".3619" stop-color="#fff" stop-opacity=".203"/><stop offset=".52" stop-color="#fff" stop-opacity=".359"/><stop offset=".6897" stop-color="#fff" stop-opacity=".559"/><stop offset=".8661" stop-color="#fff" stop-opacity=".798"/><stop offset="1" stop-color="#fff"/></linearGradient><linearGradient id="SVGID_00000109716197579013853820000004450818653298374570_" gradientTransform="matrix(.707 .707 .707 -.707 -219.236 251.705)" gradientUnits="userSpaceOnUse" x1="284.565" x2="372.393" xlink:href="#lg8" y1="340.714" y2="340.714"/><linearGradient id="SVGID_00000116213833062395086460000013069888450557758609_" gradientTransform="matrix(.707 .707 .707 -.707 -219.236 251.705)" gradientUnits="userSpaceOnUse" x1="284.565" x2="372.393" xlink:href="#lg8" y1="363.274" y2="363.274"/><linearGradient id="SVGID_00000159465402266253123600000010415779318471340194_" gradientTransform="matrix(.707 .707 .707 -.707 -219.236 251.705)" gradientUnits="userSpaceOnUse" x1="284.565" x2="372.393" xlink:href="#lg8" y1="385.834" y2="385.834"/><linearGradient id="SVGID_00000104676355983087514120000018102956353596837544_" gradientTransform="matrix(.707 .707 .707 -.707 -219.236 251.705)" gradientUnits="userSpaceOnUse" x1="284.565" x2="372.393" xlink:href="#lg8" y1="408.393" y2="408.393"/><linearGradient id="SVGID_00000116943704519378787440000007389721779905479090_" gradientTransform="matrix(.707 .707 .707 -.707 -219.236 251.705)" gradientUnits="userSpaceOnUse" x1="284.565" x2="372.393" xlink:href="#lg8" y1="430.953" y2="430.953"/><linearGradient id="SVGID_00000034794639155010371210000001491474397156644264_" gradientTransform="matrix(.707 .707 .707 -.707 -219.236 251.705)" gradientUnits="userSpaceOnUse" x1="284.565" x2="372.393" xlink:href="#lg8" y1="453.513" y2="453.513"/><g><g><path d="m74.114 486.079c0 14.316-11.605 25.921-25.921 25.921s-25.921-11.605-25.921-25.921 17.463-37.446 25.921-37.446 25.921 23.13 25.921 37.446z" fill="url(#SVGID_1_)"/><path d="m22.271 486.079c0 14.316 11.605 25.921 25.921 25.921s25.921-11.605 25.921-25.921c0-4.783-1.955-10.548-4.866-16.107h-42.111c-2.911 5.559-4.865 11.324-4.865 16.107z" fill="url(#SVGID_00000052809519535190322780000013385693907604535452_)"/><path d="m48.192 448.632c-1.798 0-4.003 1.052-6.36 2.835v59.744c2.035.513 4.165.789 6.36.789 14.316 0 25.921-11.605 25.921-25.921s-17.462-37.447-25.921-37.447z" fill="url(#SVGID_00000177456200886201741980000008809122614091185842_)"/><path d="m74.114 486.079c0 14.316-11.605 25.921-25.921 25.921s-25.921-11.605-25.921-25.921 17.463-37.446 25.921-37.446 25.921 23.13 25.921 37.446z" fill="url(#SVGID_00000070824226314155612570000007148219103916302253_)"/></g><path d="m49.315 434.95 155.657-155.631c1.505-1.505 3.946-1.505 5.451 0 1.505 1.505 1.505 3.946 0 5.451l-155.658 155.631c-1.505 1.505-3.946 1.505-5.451 0-1.505-1.506-1.505-3.946.001-5.451z" fill="url(#SVGID_00000121989595442355471620000014181020000954091906_)"/><g><path d="m171.361 283.299-34.776 34.776c-5.729 5.729-9.722 12.961-11.518 20.862l-1.64 7.215c-2.747 12.086 8.064 22.897 20.15 20.15l7.215-1.64c7.901-1.796 15.133-5.789 20.862-11.518l34.776-34.776c2.408-2.408 2.408-6.313 0-8.721l-26.349-26.349c-2.407-2.407-6.312-2.407-8.72.001z" fill="url(#SVGID_00000037657724794118454070000010979040104484744325_)"/><path d="m171.361 283.299-34.776 34.776c-5.729 5.729-9.722 12.961-11.518 20.862l-1.64 7.215c-2.747 12.086 8.064 22.897 20.15 20.15l7.215-1.64c7.901-1.796 15.133-5.789 20.862-11.518l34.776-34.776c2.408-2.408 2.408-6.313 0-8.721l-26.349-26.349c-2.407-2.407-6.312-2.407-8.72.001z" fill="url(#SVGID_00000088135257154613597500000001908370872619488166_)"/><g><path d="m192.693 251.793-46.511 46.511c-3.01 3.01-3.01 7.889 0 10.899l34.345 34.345c3.01 3.01 7.889 3.01 10.899 0l46.511-46.511z" fill="url(#SVGID_00000000197850062786795010000008657212194776426898_)"/><path d="m206.43 309.647-26.349-26.349c-2.408-2.408-6.313-2.408-8.721 0l-25.524 25.524c.112.128.222.258.344.381l34.344 34.344c.122.122.252.232.381.344l25.524-25.524c2.41-2.407 2.41-6.311.001-8.72z" fill="url(#SVGID_00000041260515096299617230000017163134657982927521_)"/><path d="m206.43 309.647-26.349-26.349c-2.408-2.408-6.313-2.408-8.721 0l-25.524 25.524c.112.128.222.258.344.381l34.344 34.344c.122.122.252.232.381.344l25.524-25.524c2.41-2.407 2.41-6.311.001-8.72z" fill="url(#SVGID_00000136376644990731473650000007037575879058909118_)"/><path d="m192.693 251.793-46.511 46.511c-3.01 3.01-3.01 7.889 0 10.899l34.345 34.345c3.01 3.01 7.889 3.01 10.899 0l46.511-46.511z" fill="url(#SVGID_00000093879154228501935200000004258145815326784651_)"/><path d="m192.693 251.793-46.511 46.511c-3.01 3.01-3.01 7.889 0 10.899l34.345 34.345c3.01 3.01 7.889 3.01 10.899 0l46.511-46.511z" fill="url(#SVGID_00000041978481258823889500000016751950022667477407_)"/><path d="m192.693 251.793-46.511 46.511c-3.01 3.01-3.01 7.889 0 10.899l34.345 34.345c3.01 3.01 7.889 3.01 10.899 0l46.511-46.511z" fill="url(#SVGID_00000152240434071933740360000003433973404918920861_)"/></g><path d="m420.633 38.041 31.056 31.055-86.312 86.312-31.055-31.056z" fill="url(#SVGID_00000140723260612971168020000003024651879276431281_)"/><path d="m420.633 38.041 31.056 31.055-86.312 86.312-31.055-31.056z" fill="url(#SVGID_00000070086179220831259590000006961475749537232312_)"/><path d="m420.633 38.041 31.056 31.055-86.312 86.312-31.055-31.056z" fill="url(#SVGID_00000020385428340634839800000002104044122939789748_)"/><path d="m420.633 38.041 31.056 31.055-86.312 86.312-31.055-31.056z" fill="url(#SVGID_00000070813827217185231780000016592222866248270265_)"/><g><path d="m366.483 50.439 72.806 72.806-195.54 195.542c-4.84 4.84-12.699 4.84-17.539 0l-55.268-55.268c-4.84-4.84-4.84-12.699 0-17.539z" fill="url(#SVGID_00000007387858580951899530000017098153683727013299_)"/><path d="m248.596 168.326 64.85-64.849 72.806 72.806-64.849 64.85z" fill="url(#SVGID_00000154419166051861665190000011749443117499989121_)"/><path d="m320.481 111.928 57.32 57.321-117.744 117.743-57.32-57.32z" fill="url(#SVGID_00000066492131880873170560000011271600519845467052_)"/><path d="m256.34 176.07 64.141-64.142 57.32 57.321-64.141 64.141z" fill="url(#SVGID_00000116923424336760399570000012658766326015617439_)"/><path d="m219.527 246.462 117.744-117.744 40.53 40.53-117.744 117.744z" fill="url(#SVGID_00000015326345027694624240000008515303898632090765_)"/><g><path d="m214.641 227.699 47.389 47.389c2.743 2.743 2.743 7.189 0 9.932l-22.514 22.514c-2.743 2.743-7.189 2.743-9.932 0l-47.389-47.389c-2.743-2.743-2.743-7.189 0-9.932l22.514-22.514c2.743-2.742 7.19-2.742 9.932 0z" fill="url(#SVGID_00000174591482027501471940000010332252423494309284_)"/><path d="m214.641 227.699 47.389 47.389c2.743 2.743 2.743 7.189 0 9.932l-22.514 22.514c-2.743 2.743-7.189 2.743-9.932 0l-47.389-47.389c-2.743-2.743-2.743-7.189 0-9.932l22.514-22.514c2.743-2.742 7.19-2.742 9.932 0z" fill="url(#SVGID_00000042703744737279404880000002776423304746104996_)"/><path d="m262.031 285.019-22.514 22.514c-2.746 2.746-7.189 2.746-9.935 0l-23.693-23.693 32.449-32.449 23.693 23.693c2.746 2.746 2.739 7.196 0 9.935z" fill="url(#SVGID_00000013900009715150511530000013015911887680189606_)"/></g><path d="m334.322 124.352 53.037-53.037 31.055 31.055-53.037 53.038z" fill="url(#SVGID_00000174593136432293376970000004696709025098441386_)"/><path d="m306.962 109.961 12.969-12.969 72.806 72.807-12.969 12.969z" fill="url(#SVGID_00000027597917724400493230000007716160326354608004_)"/><path d="m439.286 123.246-195.537 195.537c-4.844 4.844-12.696 4.844-17.54 0l-39.502-39.502 204.308-204.307z" fill="url(#SVGID_00000052087662943133826660000011757951157413612456_)"/><path d="m301.634 115.289 64.849-64.85 72.807 72.807-64.85 64.85z" fill="url(#SVGID_00000113336340246997533090000008855524845875481270_)"/><path d="m225.179 191.744-54.236 54.236c-4.843 4.843-4.843 12.696 0 17.539l55.268 55.268c4.843 4.843 12.695 4.843 17.539 0l54.236-54.236z" fill="url(#SVGID_00000075841332073015570160000008781853994281025681_)"/></g><g><path d="m357.746 29.552 102.431 102.431c5.367 5.367 5.367 14.069 0 19.436-5.367 5.367-14.069 5.367-19.436 0l-102.431-102.431c-5.367-5.367-5.367-14.069 0-19.436 5.367-5.367 14.069-5.367 19.436 0z" fill="url(#SVGID_00000163072751965948333310000017592898953205132439_)"/><path d="m357.746 29.552 102.431 102.431c5.367 5.367 5.367 14.069 0 19.436-5.367 5.367-14.069 5.367-19.436 0l-102.431-102.431c-5.367-5.367-5.367-14.069 0-19.436 5.367-5.367 14.069-5.367 19.436 0z" fill="url(#SVGID_00000008847325372687674950000004840273752960934827_)"/><path d="m460.177 131.984-51.216-51.216-19.436 19.436 51.216 51.216c5.367 5.367 14.069 5.367 19.436 0 5.367-5.368 5.367-14.069 0-19.436z" fill="url(#SVGID_00000043441996722597379670000005384532063351855519_)"/></g><g><path d="m482.953 68.653c-1.874-1.874-4.209-3.2-6.762-3.91-9.874-2.745-21.247-9.634-31.409-19.796s-17.051-21.535-19.796-31.409c-.71-2.553-2.036-4.888-3.91-6.762l-2.335-2.335c-5.921-5.921-15.522-5.921-21.444 0-5.921 5.921-5.921 15.522 0 21.444l66.547 66.547c5.921 5.921 15.522 5.921 21.444 0 5.921-5.921 5.921-15.522 0-21.444z" fill="url(#SVGID_00000173875544991342088520000016502889409182982078_)"/><path d="m479.773 66.233c-1.122-.64-2.325-1.14-3.582-1.49-9.874-2.745-21.247-9.634-31.409-19.796s-17.051-21.535-19.796-31.409c-.349-1.257-.85-2.46-1.49-3.582-5.905 10.986-.658 28.997 13.311 42.966 13.969 13.97 31.98 19.216 42.966 13.311z" fill="url(#SVGID_00000121957802373732602880000012737809736193525671_)"/><path d="m444.782 44.947c-5.981-5.981-10.817-12.38-14.353-18.647l-25.882-25.882c-2.656.623-5.179 1.952-7.249 4.023-5.921 5.921-5.921 15.522 0 21.443l66.547 66.547c5.921 5.921 15.522 5.922 21.443 0 2.071-2.071 3.4-4.594 4.023-7.249l-25.882-25.882c-6.268-3.536-12.666-8.372-18.647-14.353z" fill="url(#SVGID_00000018933930415306710830000017337294804191945892_)"/><path d="m463.844 92.432c5.921 5.921 15.522 5.922 21.443 0s5.922-15.522 0-21.444l-2.335-2.335c-1.874-1.874-4.209-3.2-6.762-3.91-9.874-2.745-21.247-9.634-31.409-19.796l-14.211 14.211c.001 0 33.274 33.274 33.274 33.274z" fill="url(#SVGID_00000055690586716238855590000005399486122154856876_)"/></g><g><path d="m278.975 260.124-13.579-13.579c-2.195-2.195-5.754-2.195-7.95 0s-2.195 5.755 0 7.95l13.579 13.579c2.195 2.195 5.755 2.195 7.95 0s2.196-5.755 0-7.95z" fill="url(#SVGID_00000109716197579013853820000004450818653298374570_)"/><path d="m294.928 244.172-13.579-13.579c-2.195-2.195-5.755-2.195-7.95 0s-2.195 5.754 0 7.95l13.579 13.579c2.195 2.195 5.755 2.195 7.95 0s2.195-5.755 0-7.95z" fill="url(#SVGID_00000116213833062395086460000013069888450557758609_)"/><path d="m310.88 228.219-13.579-13.579c-2.195-2.195-5.754-2.195-7.95 0s-2.195 5.755 0 7.95l13.579 13.579c2.195 2.195 5.755 2.195 7.95 0s2.195-5.754 0-7.95z" fill="url(#SVGID_00000159465402266253123600000010415779318471340194_)"/><path d="m326.832 212.267-13.579-13.579c-2.195-2.195-5.755-2.195-7.95 0-2.195 2.195-2.195 5.754 0 7.95l13.579 13.579c2.195 2.195 5.755 2.195 7.95 0 2.195-2.195 2.195-5.754 0-7.95z" fill="url(#SVGID_00000104676355983087514120000018102956353596837544_)"/><path d="m342.784 196.315-13.579-13.579c-2.195-2.195-5.755-2.195-7.95 0s-2.195 5.755 0 7.95l13.579 13.579c2.195 2.195 5.755 2.195 7.95 0s2.195-5.755 0-7.95z" fill="url(#SVGID_00000116943704519378787440000007389721779905479090_)"/><path d="m337.208 174.734 13.579 13.579c2.195 2.195 5.755 2.195 7.95 0s2.195-5.755 0-7.95l-13.579-13.579c-2.195-2.195-5.755-2.195-7.95 0s-2.196 5.755 0 7.95z" fill="url(#SVGID_00000034794639155010371210000001491474397156644264_)"/></g></g></g></svg>