<svg id="_05_Multivitamin" enable-background="new 0 0 512 512" viewBox="0 0 512 512" xmlns="http://www.w3.org/2000/svg" xmlns:xlink="http://www.w3.org/1999/xlink"><linearGradient id="lg1"><stop offset="0" stop-color="#f3faff"/><stop offset="1" stop-color="#d5daf3"/></linearGradient><linearGradient id="SVGID_1_" gradientTransform="matrix(1 0 0 -1 0 514)" gradientUnits="userSpaceOnUse" x1="349.028" x2="467.696" xlink:href="#lg1" y1="465.464" y2="346.796"/><linearGradient id="lg2"><stop offset="0" stop-color="#c1e9af"/><stop offset=".1072" stop-color="#b6e4aa"/><stop offset=".2935" stop-color="#99d69e"/><stop offset=".5365" stop-color="#6bc18a"/><stop offset=".8238" stop-color="#2ca36f"/><stop offset="1" stop-color="#02905d"/></linearGradient><linearGradient id="SVGID_00000090987177775871450210000005039577325459809727_" gradientTransform="matrix(1 0 0 -1 0 514)" gradientUnits="userSpaceOnUse" x1="397.181" x2="432.267" xlink:href="#lg2" y1="389.852" y2="371.265"/><linearGradient id="lg3"><stop offset="0" stop-color="#026841" stop-opacity="0"/><stop offset=".2182" stop-color="#026841" stop-opacity=".033"/><stop offset=".4099" stop-color="#026841" stop-opacity=".137"/><stop offset=".5916" stop-color="#026841" stop-opacity=".31"/><stop offset=".7671" stop-color="#026841" stop-opacity=".553"/><stop offset=".9367" stop-color="#026841" stop-opacity=".864"/><stop offset="1" stop-color="#026841"/></linearGradient><linearGradient id="SVGID_00000161629037631568742740000016484484199642836651_" gradientTransform="matrix(1 0 0 -1 0 514)" gradientUnits="userSpaceOnUse" x1="391.905" x2="377.169" xlink:href="#lg3" y1="368.695" y2="363.783"/><linearGradient id="SVGID_00000094579383941898702030000009741666437884158619_" gradientTransform="matrix(1 0 0 -1 0 514)" gradientUnits="userSpaceOnUse" x1="380.517" x2="371.505" xlink:href="#lg3" y1="388.989" y2="399.678"/><linearGradient id="SVGID_00000152221830432729218590000008009281196760720797_" gradientTransform="matrix(1 0 0 -1 0 514)" gradientUnits="userSpaceOnUse" x1="418.1" x2="429.669" xlink:href="#lg3" y1="369.749" y2="364.455"/><linearGradient id="SVGID_00000056414424886561890530000010010758376505521853_" gradientTransform="matrix(1 0 0 -1 0 514)" gradientUnits="userSpaceOnUse" x1="430.991" x2="441.09" xlink:href="#lg3" y1="386.591" y2="393.16"/><linearGradient id="SVGID_00000124843082012121527490000005787526864680890248_" gradientTransform="matrix(1 0 0 -1 0 514)" gradientUnits="userSpaceOnUse" x1="405.286" x2="397.05" xlink:href="#lg3" y1="383.197" y2="382.805"/><linearGradient id="SVGID_00000087383818204571552240000016900219216457331374_" gradientTransform="matrix(1 0 0 -1 0 514)" gradientUnits="userSpaceOnUse" x1="409.934" x2="423.072" xlink:href="#lg3" y1="397.446" y2="396.661"/><linearGradient id="SVGID_00000013902368625703748540000011838574571577891503_" gradientTransform="matrix(1 0 0 -1 0 514)" gradientUnits="userSpaceOnUse" x1="408.251" x2="417.762" xlink:href="#lg3" y1="393.604" y2="406.055"/><linearGradient id="SVGID_00000143599111438013874620000003850031557386342323_" gradientTransform="matrix(1 0 0 -1 0 514)" gradientUnits="userSpaceOnUse" x1="404.979" x2="404.979" xlink:href="#lg3" y1="347.022" y2="336.334"/><linearGradient id="SVGID_00000077296371584386118460000004292026274270121892_" gradientTransform="matrix(1 0 0 -1 0 514)" gradientUnits="userSpaceOnUse" x1="385.106" x2="424.087" xlink:href="#lg2" y1="461.903" y2="382.683"/><linearGradient id="SVGID_00000032629828898560606750000010339363075804567941_" gradientTransform="matrix(1 0 0 -1 0 514)" gradientUnits="userSpaceOnUse" x1="363.302" x2="363.302" xlink:href="#lg3" y1="410.733" y2="390.614"/><linearGradient id="SVGID_00000029013900052767557840000012197968315403536513_" gradientTransform="matrix(1 0 0 -1 0 514)" gradientUnits="userSpaceOnUse" x1="371.242" x2="338.548" xlink:href="#lg3" y1="446.182" y2="445.554"/><linearGradient id="SVGID_00000088843296999446295550000001746301365779219342_" gradientTransform="matrix(1 0 0 -1 0 514)" gradientUnits="userSpaceOnUse" x1="446.372" x2="473.25" xlink:href="#lg3" y1="420.426" y2="406.28"/><linearGradient id="SVGID_00000048476745887884636280000012736588748220313233_" gradientTransform="matrix(1 0 0 -1 0 514)" gradientUnits="userSpaceOnUse" x1="438.718" x2="457.16" xlink:href="#lg3" y1="448.711" y2="453.113"/><linearGradient id="SVGID_00000042011651753727048040000010673002480791116716_" gradientTransform="matrix(1 0 0 -1 0 514)" gradientUnits="userSpaceOnUse" x1="419.375" x2="434.307" xlink:href="#lg3" y1="462.272" y2="469.188"/><linearGradient id="SVGID_00000015327498058715097640000007154927596215172239_" gradientTransform="matrix(1 0 0 -1 0 514)" gradientUnits="userSpaceOnUse" x1="409.483" x2="427.402" xlink:href="#lg3" y1="406.214" y2="383.108"/><linearGradient id="lg4"><stop offset="0" stop-color="#dbd5ef" stop-opacity="0"/><stop offset=".2667" stop-color="#d8d2ec" stop-opacity=".023"/><stop offset=".4431" stop-color="#d1c9e2" stop-opacity=".098"/><stop offset=".5933" stop-color="#c4b9d1" stop-opacity=".225"/><stop offset=".7288" stop-color="#b2a4ba" stop-opacity=".405"/><stop offset=".8545" stop-color="#9a889c" stop-opacity=".638"/><stop offset=".9713" stop-color="#7e6678" stop-opacity=".92"/><stop offset="1" stop-color="#765d6e"/></linearGradient><linearGradient id="SVGID_00000105396857939221725570000016775457261316958860_" gradientTransform="matrix(1 0 0 -1 0 514)" gradientUnits="userSpaceOnUse" x1="402.193" x2="385.797" xlink:href="#lg4" y1="387.883" y2="315.17"/><linearGradient id="SVGID_00000109749019491797712730000012165818593295942533_" gradientTransform="matrix(1 0 0 -1 0 514)" gradientUnits="userSpaceOnUse" x1="422.912" x2="512.66" xlink:href="#lg4" y1="408.246" y2="408.246"/><linearGradient id="SVGID_00000141416591382339206790000010917691102343963799_" gradientTransform="matrix(1 0 0 -1 0 514)" gradientUnits="userSpaceOnUse" x1="442.791" x2="495.006" y1="371.701" y2="319.487"><stop offset="0" stop-color="#d5daf3" stop-opacity="0"/><stop offset=".1385" stop-color="#d8ddf4" stop-opacity=".114"/><stop offset=".4399" stop-color="#e1e6f7" stop-opacity=".406"/><stop offset=".8782" stop-color="#eff5fd" stop-opacity=".867"/><stop offset="1" stop-color="#f3faff"/></linearGradient><linearGradient id="lg5"><stop offset="0" stop-color="#99e6fc"/><stop offset=".1325" stop-color="#8ee1fb"/><stop offset=".3627" stop-color="#71d5f9"/><stop offset=".6631" stop-color="#43c2f5"/><stop offset="1" stop-color="#08a9f1"/></linearGradient><linearGradient id="SVGID_00000098935142559290533010000013358141611646704050_" gradientTransform="matrix(1 0 0 -1 0 514)" gradientUnits="userSpaceOnUse" x1="338.28" x2="338.28" xlink:href="#lg5" y1="274.243" y2="192.527"/><linearGradient id="lg6"><stop offset="0" stop-color="#2740b0" stop-opacity="0"/><stop offset=".1646" stop-color="#263fae" stop-opacity=".036"/><stop offset=".3472" stop-color="#243ca8" stop-opacity=".143"/><stop offset=".5386" stop-color="#22389f" stop-opacity=".321"/><stop offset=".7359" stop-color="#1f3392" stop-opacity=".569"/><stop offset=".9359" stop-color="#1a2c82" stop-opacity=".885"/><stop offset="1" stop-color="#192a7d"/></linearGradient><linearGradient id="SVGID_00000098206627630620630320000013497097659921322924_" gradientTransform="matrix(1 0 0 -1 0 514)" gradientUnits="userSpaceOnUse" x1="338.28" x2="338.28" xlink:href="#lg6" y1="229.416" y2="132.494"/><linearGradient id="lg7"><stop offset="0" stop-color="#fef0ae"/><stop offset="1" stop-color="#fac600"/></linearGradient><linearGradient id="SVGID_00000103255933805763452360000009537101858971791755_" gradientTransform="matrix(1 0 0 -1 0 514)" gradientUnits="userSpaceOnUse" x1="160.12" x2="160.12" xlink:href="#lg7" y1="274.243" y2="192.527"/><linearGradient id="lg8"><stop offset="0" stop-color="#fe9738" stop-opacity="0"/><stop offset=".1648" stop-color="#fe9637" stop-opacity=".012"/><stop offset=".2957" stop-color="#fe9535" stop-opacity=".052"/><stop offset=".415" stop-color="#fe9331" stop-opacity=".118"/><stop offset=".5274" stop-color="#fe902c" stop-opacity=".211"/><stop offset=".635" stop-color="#fe8c25" stop-opacity=".331"/><stop offset=".739" stop-color="#fe871d" stop-opacity=".479"/><stop offset=".8401" stop-color="#fe8213" stop-opacity=".655"/><stop offset=".9364" stop-color="#fe7b09" stop-opacity=".852"/><stop offset="1" stop-color="#fe7701"/></linearGradient><linearGradient id="SVGID_00000134956429227036990140000004356224628003330440_" gradientTransform="matrix(1 0 0 -1 0 514)" gradientUnits="userSpaceOnUse" x1="173.903" x2="120.794" xlink:href="#lg8" y1="255.373" y2="325.234"/><linearGradient id="SVGID_00000163032894398833821930000014666482153505470869_" gradientTransform="matrix(1 0 0 -1 0 514)" gradientUnits="userSpaceOnUse" x1="221" x2="285.003" xlink:href="#lg8" y1="242.946" y2="242.946"/><linearGradient id="SVGID_00000075856724699186969200000016628667039465473981_" gradientTransform="matrix(1 0 0 -1 0 514)" gradientUnits="userSpaceOnUse" x1="160.12" x2="160.12" xlink:href="#lg8" y1="241.095" y2="159.259"/><linearGradient id="SVGID_00000003074233363985304150000015718320174527047555_" gradientTransform="matrix(1 0 0 -1 0 514)" gradientUnits="userSpaceOnUse" x1="367.518" x2="425.261" xlink:href="#lg6" y1="214.776" y2="158.459"/><linearGradient id="SVGID_00000125562924383863609580000005448970055228151437_" gradientTransform="matrix(1 0 0 -1 0 514)" gradientUnits="userSpaceOnUse" x1="346.999" x2="463.197" xlink:href="#lg6" y1="234.705" y2="174.111"/><linearGradient id="SVGID_00000068679453621241799130000009048097542312088219_" gradientTransform="matrix(1 0 0 -1 0 514)" gradientUnits="userSpaceOnUse" x1="39.406" x2="135.752" xlink:href="#lg1" y1="409.013" y2="312.667"/><linearGradient id="SVGID_00000078735261285612718160000011094905590189312421_" gradientTransform="matrix(.707 -.707 -.707 -.707 352.196 361.16)" gradientUnits="userSpaceOnUse" x1="-43.413" x2="-17.727" xlink:href="#lg7" y1="350.186" y2="295.271"/><linearGradient id="SVGID_00000034087133024871162040000013110789007748861321_" gradientTransform="matrix(.707 -.707 -.707 -.707 352.196 361.16)" gradientUnits="userSpaceOnUse" x1="-43.413" x2="-17.726" y1="350.186" y2="295.271"><stop offset="0" stop-color="#feca9c"/><stop offset=".1252" stop-color="#fdc391"/><stop offset=".3429" stop-color="#fbb174"/><stop offset=".6269" stop-color="#f89346"/><stop offset=".9631" stop-color="#f46b07"/><stop offset="1" stop-color="#f46700"/></linearGradient><linearGradient id="SVGID_00000103266473265688535240000000219754530782733975_" gradientTransform="matrix(.707 -.707 -.707 -.707 352.196 361.16)" gradientUnits="userSpaceOnUse" x1="-40.034" x2="-40.034" xlink:href="#lg8" y1="316.371" y2="280.936"/><linearGradient id="SVGID_00000059273592562859479370000000394813968479832460_" gradientTransform="matrix(.707 -.707 -.707 -.707 352.196 361.16)" gradientUnits="userSpaceOnUse" x1="-62.064" x2="-41.781" xlink:href="#lg8" y1="327.306" y2="314.977"/><linearGradient id="SVGID_00000040553874105277119770000017189046863042572173_" gradientTransform="matrix(.707 -.707 -.707 -.707 352.196 361.16)" gradientUnits="userSpaceOnUse" x1="-58.021" x2="-61.003" xlink:href="#lg8" y1="316.874" y2="296.194"/><linearGradient id="SVGID_00000096755166076006248270000000855380448151255451_" gradientTransform="matrix(.707 -.707 -.707 -.707 352.196 361.16)" gradientUnits="userSpaceOnUse" x1="-54.785" x2="-42.257" xlink:href="#lg8" y1="321.926" y2="320.534"/><linearGradient id="SVGID_00000142153994426128781770000000379735869851689089_" gradientTransform="matrix(.707 -.707 -.707 -.707 352.196 361.16)" gradientUnits="userSpaceOnUse" x1="-4.939" x2="-1.559" xlink:href="#lg8" y1="350.239" y2="320.014"/><linearGradient id="SVGID_00000042003591360815529100000001235262452487733672_" gradientTransform="matrix(.707 -.707 -.707 -.707 352.196 361.16)" gradientUnits="userSpaceOnUse" x1="2.153" x2="13.686" xlink:href="#lg8" y1="338.294" y2="324.175"/><linearGradient id="SVGID_00000152968220764749205190000005694978729767451272_" gradientTransform="matrix(.707 -.707 -.707 -.707 352.196 361.16)" gradientUnits="userSpaceOnUse" x1="-5.258" x2="-12.217" xlink:href="#lg8" y1="339.807" y2="328.87"/><linearGradient id="SVGID_00000060013900757369204860000007954202794026448037_" gradientTransform="matrix(.707 -.707 -.707 -.707 352.196 361.16)" gradientUnits="userSpaceOnUse" x1="-37.953" x2="-10.512" xlink:href="#lg8" y1="323.039" y2="316.079"/><linearGradient id="SVGID_00000035527505800355751900000002675795611133807746_" gradientTransform="matrix(.707 -.707 -.707 -.707 352.196 361.16)" gradientUnits="userSpaceOnUse" x1="-23.821" x2="-15.271" xlink:href="#lg8" y1="314.534" y2="299.422"/><linearGradient id="SVGID_00000111884820422338932710000014208912180401038753_" gradientTransform="matrix(.707 -.707 -.707 -.707 352.196 361.16)" gradientUnits="userSpaceOnUse" x1="-29.367" x2="-41.895" xlink:href="#lg8" y1="321.522" y2="318.937"/><linearGradient id="SVGID_00000143609893557004312690000000461065677950743441_" gradientTransform="matrix(.707 -.707 -.707 -.707 352.196 361.16)" gradientUnits="userSpaceOnUse" x1="-78.42" x2="-68.876" xlink:href="#lg8" y1="348.259" y2="327.976"/><linearGradient id="SVGID_00000042002803797829171000000015107754219658628238_" gradientTransform="matrix(.707 -.707 -.707 -.707 352.196 361.16)" gradientUnits="userSpaceOnUse" x1="-87.698" x2="-98.138" xlink:href="#lg8" y1="334.582" y2="325.634"/><linearGradient id="SVGID_00000046329133160894153360000017920555833211233200_" gradientTransform="matrix(.707 -.707 -.707 -.707 352.196 361.16)" gradientUnits="userSpaceOnUse" x1="-74.84" x2="-67.681" xlink:href="#lg8" y1="338.857" y2="331.102"/><linearGradient id="SVGID_00000006665848157621256700000014456928727787304088_" gradientTransform="matrix(1 0 0 -1 0 514)" gradientUnits="userSpaceOnUse" x1="85.861" x2="85.861" xlink:href="#lg4" y1="354.644" y2="268.151"/><linearGradient id="SVGID_00000034083568925908409700000007413150984990159238_" gradientTransform="matrix(1 0 0 -1 0 514)" gradientUnits="userSpaceOnUse" x1="85.779" x2="179.878" xlink:href="#lg4" y1="362.572" y2="349.74"/><linearGradient id="SVGID_00000027581958998336240990000010154758061872324491_" gradientTransform="matrix(1 0 0 -1 0 514)" gradientUnits="userSpaceOnUse" x1="237.728" x2="334.074" xlink:href="#lg1" y1="134.317" y2="37.97"/><linearGradient id="SVGID_00000070838942397667108160000002263385507763784120_" gradientTransform="matrix(1 0 0 -1 0 514)" gradientUnits="userSpaceOnUse" x1="267.115" x2="315.317" xlink:href="#lg5" y1="100.032" y2="46.591"/><linearGradient id="SVGID_00000136389844259094256990000000374846244548823944_" gradientTransform="matrix(1 0 0 -1 0 514)" gradientUnits="userSpaceOnUse" x1="284.183" x2="284.183" xlink:href="#lg6" y1="82.787" y2="27.754"/><linearGradient id="SVGID_00000067950812946862806870000013283042258907742855_" gradientTransform="matrix(1 0 0 -1 0 514)" gradientUnits="userSpaceOnUse" x1="283.892" x2="333.054" xlink:href="#lg6" y1="87.755" y2="92.265"/><linearGradient id="SVGID_00000127035785410911726330000005223741469309507761_" gradientTransform="matrix(1 0 0 -1 0 514)" gradientUnits="userSpaceOnUse" x1="296.794" x2="321.244" y1="70.122" y2="46.72"><stop offset="0" stop-color="#99e6fc" stop-opacity="0"/><stop offset=".165" stop-color="#99e6fc" stop-opacity=".013"/><stop offset=".2963" stop-color="#99e6fc" stop-opacity=".052"/><stop offset=".416" stop-color="#99e6fc" stop-opacity=".119"/><stop offset=".5289" stop-color="#99e6fc" stop-opacity=".213"/><stop offset=".637" stop-color="#99e6fc" stop-opacity=".334"/><stop offset=".7415" stop-color="#99e6fc" stop-opacity=".484"/><stop offset=".843" stop-color="#99e6fc" stop-opacity=".661"/><stop offset=".9398" stop-color="#99e6fc" stop-opacity=".86"/><stop offset="1" stop-color="#99e6fc"/></linearGradient><linearGradient id="SVGID_00000181771106797037669370000009610473374294924971_" gradientTransform="matrix(1 0 0 -1 0 514)" gradientUnits="userSpaceOnUse" x1="284.183" x2="284.183" xlink:href="#lg4" y1="89.214" y2="2.722"/><linearGradient id="SVGID_00000096056780123895336970000011428233509062564797_" gradientTransform="matrix(1 0 0 -1 0 514)" gradientUnits="userSpaceOnUse" x1="302.653" x2="375.366" xlink:href="#lg4" y1="84.424" y2="70.88"/><g><g><circle cx="406.246" cy="105.754" fill="url(#SVGID_1_)" r="105.754"/><g><g><path d="m439.385 111.123c-8.773 5.151-15.709 11.76-21.184 18.825 4.016-29.024 13.887-42.807 13.887-42.807l-10.743-5.039c-12.786 18.861-18.814 39.759-21.549 57.301-6.198-10.742-14.827-21.316-26.69-28.28l-9.805 3.53s22.667 14.613 25.553 55.59c.347 4.922 4.463 8.728 9.398 8.728h12.468c4.886 0 8.971-3.735 9.387-8.604 3.364-39.357 29.082-55.714 29.082-55.714z" fill="url(#SVGID_00000090987177775871450210000005039577325459809727_)"/><path d="m407.096 154.526c4.651 11.594 6.607 21.252 7.078 23.791-1.073.424-2.236.655-3.452.655h-12.469c-4.935 0-9.05-3.807-9.396-8.728-2.888-40.977-25.554-55.589-25.554-55.589l9.804-3.532c11.864 6.965 20.493 17.539 26.69 28.28.001.001.003.003.003.003 2.955 5.126 5.36 10.292 7.296 15.12z" fill="url(#SVGID_00000161629037631568742740000016484484199642836651_)"/><path d="m373.107 111.123-9.805 3.53s8.816 5.685 16.152 19.903h17.361c-5.9-9.009-13.639-17.522-23.708-23.433z" fill="url(#SVGID_00000094579383941898702030000009741666437884158619_)"/><path d="m449.19 114.654s-14.727 9.366-23.351 30.981c-2.759 6.913-4.891 15.077-5.719 24.589-.005.047-.011.096-.014.143-.415 4.869-4.5 8.604-9.385 8.604h-12.516s1.631-15.874 10.255-33.336c6.131-12.414 15.797-25.628 30.926-34.513z" fill="url(#SVGID_00000152221830432729218590000008009281196760720797_)"/><path d="m418.204 129.949 10.114 10.114c8.693-17.661 20.872-25.409 20.872-25.409l-9.804-3.532c-8.773 5.153-15.706 11.762-21.182 18.827z" fill="url(#SVGID_00000056414424886561890530000010010758376505521853_)"/><path d="m416.534 154.526c-.022 6.662.278 13.839.993 21.538-.932.977-2.077 1.752-3.353 2.253-.47-2.539-2.426-12.197-7.078-23.791-1.937-4.827-4.341-9.993-7.298-15.121 2.734-17.544 8.761-38.441 21.546-57.303l10.744 5.039c.001 0-15.406 21.514-15.554 67.385z" fill="url(#SVGID_00000124843082012121527490000005787526864680890248_)"/><path d="m432.089 87.141s-9.87 13.784-13.886 42.807c-3.969 5.116-7.166 10.472-9.743 15.687-.968 1.961-1.848 3.906-2.649 5.807-1.686-3.912-3.678-7.988-6.013-12.037 2.734-17.544 8.761-38.441 21.546-57.303z" fill="url(#SVGID_00000087383818204571552240000016900219216457331374_)"/><path d="m401.94 128.183h16.519c4.162-27.815 13.63-41.042 13.63-41.042l-10.744-5.039c-10.152 14.977-16.04 31.235-19.405 46.081z" fill="url(#SVGID_00000013902368625703748540000011838574571577891503_)"/><path d="m384.116 145.635c2.301 6.857 4.063 15.009 4.739 24.607.347 4.922 4.463 8.728 9.398 8.728h12.468c4.886 0 8.971-3.735 9.387-8.604.818-9.574 2.962-17.784 5.734-24.732z" fill="url(#SVGID_00000143599111438013874620000003850031557386342323_)"/></g><g><path d="m453.517 70.161c.417-5.36-1.42-10.862-5.52-14.962-4.799-4.799-11.519-6.499-17.684-5.109-3.263-10.181-12.803-17.553-24.068-17.553s-20.804 7.372-24.068 17.553c-6.165-1.389-12.885.31-17.684 5.109-4.1 4.1-5.936 9.602-5.52 14.962-11.895 2.053-20.946 12.414-20.946 24.896 0 13.958 11.315 25.273 25.273 25.273 5.295 0 10.208-1.631 14.269-4.415 4.835 11.041 15.851 18.757 28.676 18.757s23.841-7.717 28.676-18.757c4.061 2.783 8.974 4.415 14.269 4.415 13.958 0 25.273-11.315 25.273-25.273 0-12.481-9.051-22.843-20.946-24.896z" fill="url(#SVGID_00000077296371584386118460000004292026274270121892_)"/><circle cx="363.302" cy="95.057" fill="url(#SVGID_00000032629828898560606750000010339363075804567941_)" r="25.273"/><path d="m391.447 82.152c-1.42 1.42-3.007 2.571-4.701 3.444-3.748-9.269-12.833-15.809-23.443-15.809-1.477 0-2.928.128-4.335.37-.415-5.358 1.424-10.857 5.526-14.958 7.444-7.444 19.509-7.444 26.953 0s7.444 19.509 0 26.953z" fill="url(#SVGID_00000029013900052767557840000012197968315403536513_)"/><circle cx="449.19" cy="95.057" fill="url(#SVGID_00000088843296999446295550000001746301365779219342_)" r="25.273"/><path d="m453.524 70.157c-1.407-.243-2.858-.37-4.335-.37-10.61 0-19.694 6.54-23.443 15.809-1.693-.873-3.281-2.024-4.701-3.444-7.444-7.444-7.444-19.509 0-26.953s19.509-7.444 26.953 0c4.101 4.101 5.94 9.6 5.526 14.958z" fill="url(#SVGID_00000048476745887884636280000012736588748220313233_)"/><path d="m421.046 55.199c-6.663 6.663-7.36 17.022-2.099 24.461-3.731 2.178-8.07 3.422-12.7 3.422-13.957 0-25.273-11.316-25.273-25.273s11.316-25.273 25.273-25.273c11.263 0 20.806 7.369 24.069 17.547-3.397.768-6.625 2.47-9.27 5.116z" fill="url(#SVGID_00000042011651753727048040000010673002480791116716_)"/><path d="m434.923 115.922c-4.833 11.038-15.853 18.751-28.677 18.751-17.286 0-31.297-14.01-31.297-31.297s14.01-31.297 31.297-31.297c8.537 0 16.272 3.418 21.917 8.956-2.686 4.013-4.247 8.837-4.247 14.023 0 8.667 4.362 16.309 11.007 20.864z" fill="url(#SVGID_00000015327498058715097640000007154927596215172239_)"/></g></g><path d="m300.492 105.754c0 58.406 47.348 105.754 105.754 105.754s105.754-47.348 105.754-105.754c0-2.924-.124-5.818-.357-8.682h-210.794c-.233 2.863-.357 5.758-.357 8.682z" fill="url(#SVGID_00000105396857939221725570000016775457261316958860_)"/><path d="m406.246 0c-6.813 0-13.472.652-19.927 1.883v207.742c6.454 1.231 13.114 1.883 19.927 1.883 58.406 0 105.754-47.348 105.754-105.754s-47.348-105.754-105.754-105.754z" fill="url(#SVGID_00000109749019491797712730000012165818593295942533_)"/><path d="m480.58 30.539-149.548 149.548c19.171 19.397 45.787 31.42 75.214 31.42 58.406.001 105.754-47.347 105.754-105.753 0-29.427-12.023-56.043-31.42-75.215z" fill="url(#SVGID_00000141416591382339206790000010917691102343963799_)"/></g><g><path d="m447.76 271.054c0 25.46-10.32 48.51-27 65.19s-39.73 27-65.19 27h-99.57l-27.2-92.19 27.2-92.19h99.57c50.92 0 92.19 41.27 92.19 92.19z" fill="url(#SVGID_00000098935142559290533010000013358141611646704050_)"/><path d="m447.76 271.054c0 25.46-10.32 48.51-27 65.19s-39.73 27-65.19 27h-99.57l-27.2-92.19 8.29-28.09h206.31c2.83 8.86 4.36 18.29 4.36 28.09z" fill="url(#SVGID_00000098206627630620630320000013497097659921322924_)"/><path d="m256 178.864v184.38h-99.57c-50.92 0-92.19-41.27-92.19-92.19 0-25.46 10.32-48.51 27-65.19s39.73-27 65.19-27z" fill="url(#SVGID_00000103255933805763452360000009537101858971791755_)"/><path d="m256 178.864v184.38h-99.57c-50.92 0-92.19-41.27-92.19-92.19 0-25.46 10.32-48.51 27-65.19s39.73-27 65.19-27z" fill="url(#SVGID_00000134956429227036990140000004356224628003330440_)"/><path d="m151.099 179.021v184.066c1.765.101 3.541.157 5.331.157h99.57v-184.38h-99.57c-1.79 0-3.566.057-5.331.157z" fill="url(#SVGID_00000163032894398833821930000014666482153505470869_)"/><path d="m256 242.964v120.28h-99.57c-50.92 0-92.19-41.27-92.19-92.19 0-9.8 1.53-19.24 4.36-28.09z" fill="url(#SVGID_00000075856724699186969200000016628667039465473981_)"/><path d="m355.57 178.864h-71.387v184.38h71.387c25.46 0 48.51-10.32 65.19-27s27-39.73 27-65.19c0-50.92-41.27-92.19-92.19-92.19z" fill="url(#SVGID_00000003074233363985304150000015718320174527047555_)"/><path d="m355.57 178.864h-71.387v184.38h71.387c25.46 0 48.51-10.32 65.19-27s27-39.73 27-65.19c0-50.92-41.27-92.19-92.19-92.19z" fill="url(#SVGID_00000125562924383863609580000005448970055228151437_)"/></g><g><circle cx="85.861" cy="151.442" fill="url(#SVGID_00000068679453621241799130000009048097542312088219_)" r="85.861"/><g><path d="m121.883 93.002c1.571-1.571 4.15-1.516 5.63.141 24.808 27.798 23.874 70.472-2.804 97.149-26.677 26.677-69.348 27.609-97.146 2.801-1.658-1.479-1.712-4.058-.141-5.63z" fill="url(#SVGID_00000078735261285612718160000011094905590189312421_)"/><g><path d="m127.511 93.142c24.811 27.798 23.874 70.473-2.803 97.15-26.676 26.676-69.349 27.611-97.147 2.8-1.658-1.476-1.713-4.056-.141-5.629l.24-.24c12.025 12.025 28.641 19.463 46.992 19.463 36.701 0 66.452-29.751 66.452-66.452 0-18.35-7.439-34.967-19.466-46.989l.243-.243c1.574-1.573 4.154-1.517 5.63.14z" fill="url(#SVGID_00000034087133024871162040000013110789007748861321_)"/><path d="m39.213 201.529c27.079 15.679 62.321 11.938 85.495-11.237 23.174-23.174 26.918-58.419 11.24-85.498z" fill="url(#SVGID_00000103266473265688535240000000219754530782733975_)"/></g><g><path d="m90.625 198.662c4.138-1.211 8.091-2.856 11.806-4.882 7.753-4.229 9.279-14.714 3.034-20.959l-26.651-26.651c-1.864-1.864-5.05-.544-5.05 2.092v37.695c0 8.787 8.428 15.172 16.861 12.705z" fill="url(#SVGID_00000059273592562859479370000000394813968479832460_)"/><path d="m90.625 198.662c4.138-1.211 8.091-2.856 11.806-4.882 7.753-4.229 9.279-14.714 3.034-20.959l-26.651-26.651c-1.864-1.864-5.05-.544-5.05 2.092v37.695c0 8.787 8.428 15.172 16.861 12.705z" fill="url(#SVGID_00000040553874105277119770000017189046863042572173_)"/><path d="m90.625 198.662c4.138-1.211 8.091-2.856 11.806-4.882 7.753-4.229 9.279-14.714 3.034-20.959l-26.651-26.651c-1.864-1.864-5.05-.544-5.05 2.092v37.695c0 8.787 8.428 15.172 16.861 12.705z" fill="url(#SVGID_00000096755166076006248270000000855380448151255451_)"/><path d="m85.049 136.978h37.695c8.786 0 15.171-8.428 12.704-16.86-1.211-4.138-2.856-8.091-4.882-11.806-4.229-7.753-14.714-9.279-20.959-3.034l-26.651 26.651c-1.863 1.862-.543 5.049 2.093 5.049z" fill="url(#SVGID_00000142153994426128781770000000379735869851689089_)"/><path d="m85.049 136.978h37.695c8.786 0 15.171-8.428 12.704-16.86-1.211-4.138-2.856-8.091-4.882-11.806-4.229-7.753-14.714-9.279-20.959-3.034l-26.651 26.651c-1.863 1.862-.543 5.049 2.093 5.049z" fill="url(#SVGID_00000042003591360815529100000001235262452487733672_)"/><path d="m85.049 136.978h37.695c8.786 0 15.171-8.428 12.704-16.86-1.211-4.138-2.856-8.091-4.882-11.806-4.229-7.753-14.714-9.279-20.959-3.034l-26.651 26.651c-1.863 1.862-.543 5.049 2.093 5.049z" fill="url(#SVGID_00000152968220764749205190000005694978729767451272_)"/><path d="m80.59 144.395 26.651 26.651c6.245 6.245 16.729 4.718 20.959-3.034 2.027-3.715 3.672-7.668 4.882-11.806 2.467-8.432-3.918-16.86-12.704-16.86h-37.695c-2.637-.001-3.957 3.186-2.093 5.049z" fill="url(#SVGID_00000060013900757369204860000007954202794026448037_)"/><path d="m80.59 144.395 26.651 26.651c6.245 6.245 16.729 4.718 20.959-3.034 2.027-3.715 3.672-7.668 4.882-11.806 2.467-8.432-3.918-16.86-12.704-16.86h-37.695c-2.637-.001-3.957 3.186-2.093 5.049z" fill="url(#SVGID_00000035527505800355751900000002675795611133807746_)"/><path d="m80.59 144.395 26.651 26.651c6.245 6.245 16.729 4.718 20.959-3.034 2.027-3.715 3.672-7.668 4.882-11.806 2.467-8.432-3.918-16.86-12.704-16.86h-37.695c-2.637-.001-3.957 3.186-2.093 5.049z" fill="url(#SVGID_00000111884820422338932710000014208912180401038753_)"/><path d="m39.696 175.188c-6.245 6.245-4.718 16.729 3.034 20.959 3.715 2.027 7.668 3.672 11.806 4.882 8.432 2.467 16.86-3.918 16.86-12.704v-37.695c0-2.636-3.187-3.956-5.05-2.092z" fill="url(#SVGID_00000143609893557004312690000000461065677950743441_)"/><path d="m39.696 175.188c-6.245 6.245-4.718 16.729 3.034 20.959 3.715 2.027 7.668 3.672 11.806 4.882 8.432 2.467 16.86-3.918 16.86-12.704v-37.695c0-2.636-3.187-3.956-5.05-2.092z" fill="url(#SVGID_00000042002803797829171000000015107754219658628238_)"/><path d="m39.696 175.188c-6.245 6.245-4.718 16.729 3.034 20.959 3.715 2.027 7.668 3.672 11.806 4.882 8.432 2.467 16.86-3.918 16.86-12.704v-37.695c0-2.636-3.187-3.956-5.05-2.092z" fill="url(#SVGID_00000046329133160894153360000017920555833211233200_)"/></g></g><path d="m0 151.442c0 47.42 38.441 85.861 85.861 85.861s85.861-38.442 85.861-85.861c0-2.374-.101-4.724-.29-7.049h-171.142c-.189 2.325-.29 4.675-.29 7.049z" fill="url(#SVGID_00000006665848157621256700000014456928727787304088_)"/><path d="m85.861 65.581c-5.531 0-10.938.529-16.179 1.529v168.665c5.24.999 10.647 1.529 16.179 1.529 47.42 0 85.861-38.442 85.861-85.861.001-47.421-38.441-85.862-85.861-85.862z" fill="url(#SVGID_00000034083568925908409700000007413150984990159238_)"/></g><g><circle cx="284.183" cy="426.139" fill="url(#SVGID_00000027581958998336240990000010154758061872324491_)" r="85.861"/><g><path d="m330.006 436.325c0 25.307-20.516 45.823-45.823 45.823s-45.823-20.516-45.823-45.823 30.87-66.197 45.823-66.197 45.823 40.89 45.823 66.197z" fill="url(#SVGID_00000070838942397667108160000002263385507763784120_)"/><path d="m238.36 436.325c0 25.307 20.516 45.823 45.823 45.823s45.823-20.516 45.823-45.823c0-8.455-3.455-18.646-8.601-28.473h-74.444c-5.146 9.827-8.601 20.019-8.601 28.473z" fill="url(#SVGID_00000136389844259094256990000000374846244548823944_)"/><path d="m284.183 370.129c-3.178 0-7.077 1.86-11.244 5.012v105.614c3.598.908 7.364 1.395 11.244 1.395 25.307 0 45.823-20.516 45.823-45.823s-30.87-66.198-45.823-66.198z" fill="url(#SVGID_00000067950812946862806870000013283042258907742855_)"/><path d="m330.006 436.325c0 25.307-20.516 45.823-45.823 45.823s-45.823-20.516-45.823-45.823 30.87-66.197 45.823-66.197 45.823 40.89 45.823 66.197z" fill="url(#SVGID_00000127035785410911726330000005223741469309507761_)"/></g><path d="m198.321 426.139c0 47.42 38.441 85.861 85.861 85.861s85.861-38.442 85.861-85.861c0-2.374-.101-4.724-.29-7.049h-171.142c-.189 2.325-.289 4.675-.29 7.049z" fill="url(#SVGID_00000181771106797037669370000009610473374294924971_)"/><path d="m284.183 340.277c-5.531 0-10.938.529-16.179 1.529v168.665c5.24.999 10.647 1.529 16.179 1.529 47.42 0 85.861-38.442 85.861-85.861 0-47.42-38.441-85.862-85.861-85.862z" fill="url(#SVGID_00000096056780123895336970000011428233509062564797_)"/></g></g></svg>