<svg id="_06_Suppository" enable-background="new 0 0 512 512" viewBox="0 0 512 512" xmlns="http://www.w3.org/2000/svg" xmlns:xlink="http://www.w3.org/1999/xlink"><linearGradient id="lg1"><stop offset="0" stop-color="#f3faff"/><stop offset="1" stop-color="#d5daf3"/></linearGradient><linearGradient id="SVGID_1_" gradientTransform="matrix(1 0 0 -1 0 514)" gradientUnits="userSpaceOnUse" x1="26.778" x2="186.536" xlink:href="#lg1" y1="321.345" y2="245.056"/><linearGradient id="SVGID_00000021077946647639741960000015957855168221482383_" gradientTransform="matrix(1 0 0 -1 0 514)" gradientUnits="userSpaceOnUse" x1="85.333" x2="85.333" xlink:href="#lg1" y1="209.029" y2="222.281"/><linearGradient id="SVGID_00000130635291233981162560000008107123066193676694_" gradientTransform="matrix(1 0 0 -1 0 514)" gradientUnits="userSpaceOnUse" x1="85.333" x2="85.333" xlink:href="#lg1" y1="232.26" y2="245.512"/><linearGradient id="SVGID_00000009585410017173931770000007940175429759844030_" gradientTransform="matrix(1 0 0 -1 0 514)" gradientUnits="userSpaceOnUse" x1="85.333" x2="85.333" xlink:href="#lg1" y1="255.491" y2="268.742"/><linearGradient id="SVGID_00000163071635941467483790000009378506725549444005_" gradientTransform="matrix(1 0 0 -1 0 514)" gradientUnits="userSpaceOnUse" x1="85.333" x2="85.333" xlink:href="#lg1" y1="278.721" y2="291.973"/><linearGradient id="SVGID_00000084491459320198242340000014729882880637124026_" gradientTransform="matrix(1 0 0 -1 0 514)" gradientUnits="userSpaceOnUse" x1="85.333" x2="85.333" xlink:href="#lg1" y1="301.952" y2="315.204"/><linearGradient id="SVGID_00000098918162599859318840000000103291737144298918_" gradientTransform="matrix(1 0 0 -1 0 514)" gradientUnits="userSpaceOnUse" x1="85.333" x2="85.333" xlink:href="#lg1" y1="325.183" y2="338.434"/><linearGradient id="SVGID_00000077324881995298539510000005490566468332260270_" gradientTransform="matrix(1 0 0 -1 0 514)" gradientUnits="userSpaceOnUse" x1="85.333" x2="85.333" xlink:href="#lg1" y1="348.413" y2="361.665"/><linearGradient id="SVGID_00000129927772687337924890000002391061450462558893_" gradientTransform="matrix(1 0 0 -1 0 514)" gradientUnits="userSpaceOnUse" x1="85.333" x2="85.333" xlink:href="#lg1" y1="371.644" y2="384.896"/><linearGradient id="SVGID_00000024683405960121086060000013809671032069938605_" gradientTransform="matrix(1 0 0 -1 0 514)" gradientUnits="userSpaceOnUse" x1="85.333" x2="85.333" xlink:href="#lg1" y1="142.405" y2="156.912"/><linearGradient id="lg2"><stop offset="0" stop-color="#dbd5ef" stop-opacity="0"/><stop offset=".2667" stop-color="#d8d2ec" stop-opacity=".023"/><stop offset=".4431" stop-color="#d1c9e2" stop-opacity=".098"/><stop offset=".5933" stop-color="#c4b9d1" stop-opacity=".225"/><stop offset=".7288" stop-color="#b2a4ba" stop-opacity=".405"/><stop offset=".8545" stop-color="#9a889c" stop-opacity=".638"/><stop offset=".9713" stop-color="#7e6678" stop-opacity=".92"/><stop offset="1" stop-color="#765d6e"/></linearGradient><linearGradient id="SVGID_00000150815859169896934390000011835522313549647278_" gradientTransform="matrix(1 0 0 -1 0 514)" gradientUnits="userSpaceOnUse" x1="85.333" x2="85.333" xlink:href="#lg2" y1="166.324" y2="124.967"/><linearGradient id="SVGID_00000145758735432699632070000014161328716213165996_" gradientTransform="matrix(1 0 0 -1 0 514)" gradientUnits="userSpaceOnUse" x1="125.988" x2="170.528" xlink:href="#lg2" y1="310.251" y2="310.251"/><linearGradient id="SVGID_00000112598044403663323260000011476159017829934223_" gradientTransform="matrix(1 0 0 -1 0 514)" gradientUnits="userSpaceOnUse" x1="161.1" x2="63.209" xlink:href="#lg2" y1="253.614" y2="283.965"/><linearGradient id="SVGID_00000030463320268219527350000005412381715876055950_" gradientTransform="matrix(1 0 0 -1 0 514)" gradientUnits="userSpaceOnUse" x1="56.737" x2="101.759" xlink:href="#lg1" y1="298.298" y2="298.298"/><linearGradient id="lg3"><stop offset="0" stop-color="#fff" stop-opacity="0"/><stop offset=".0925" stop-color="#fff" stop-opacity=".024"/><stop offset=".2178" stop-color="#fff" stop-opacity=".092"/><stop offset=".3619" stop-color="#fff" stop-opacity=".203"/><stop offset=".52" stop-color="#fff" stop-opacity=".359"/><stop offset=".6897" stop-color="#fff" stop-opacity=".559"/><stop offset=".8661" stop-color="#fff" stop-opacity=".798"/><stop offset="1" stop-color="#fff"/></linearGradient><linearGradient id="SVGID_00000016039376717290835550000016457803163900051584_" gradientTransform="matrix(1 0 0 -1 0 514)" gradientUnits="userSpaceOnUse" x1="70.368" x2="20.995" xlink:href="#lg3" y1="299.772" y2="331.192"/><linearGradient id="SVGID_00000145771087547447487300000017866390777780855720_" gradientTransform="matrix(1 0 0 -1 0 514)" gradientUnits="userSpaceOnUse" x1="64.93" x2="136.104" xlink:href="#lg2" y1="298.891" y2="294.403"/><linearGradient id="SVGID_00000130621244412361902240000004948023011628424088_" gradientTransform="matrix(1 0 0 -1 0 514)" gradientUnits="userSpaceOnUse" x1="85.333" x2="85.333" xlink:href="#lg2" y1="206.72" y2="166.96"/><linearGradient id="SVGID_00000115501736011447907890000012885357245192185255_" gradientTransform="matrix(1 0 0 -1 0 514)" gradientUnits="userSpaceOnUse" x1="197.445" x2="357.203" xlink:href="#lg1" y1="321.345" y2="245.056"/><linearGradient id="SVGID_00000147921179953638593500000017975080077875677375_" gradientTransform="matrix(1 0 0 -1 0 514)" gradientUnits="userSpaceOnUse" x1="256" x2="256" xlink:href="#lg1" y1="209.029" y2="222.281"/><linearGradient id="SVGID_00000021808755599571059170000015998200649015281826_" gradientTransform="matrix(1 0 0 -1 0 514)" gradientUnits="userSpaceOnUse" x1="256" x2="256" xlink:href="#lg1" y1="232.26" y2="245.512"/><linearGradient id="SVGID_00000038388263580849239760000000583291168493194880_" gradientTransform="matrix(1 0 0 -1 0 514)" gradientUnits="userSpaceOnUse" x1="256" x2="256" xlink:href="#lg1" y1="255.491" y2="268.742"/><linearGradient id="SVGID_00000068679016125712175030000017477261650365399952_" gradientTransform="matrix(1 0 0 -1 0 514)" gradientUnits="userSpaceOnUse" x1="256" x2="256" xlink:href="#lg1" y1="278.721" y2="291.973"/><linearGradient id="SVGID_00000080196015022661027960000010900394910261861009_" gradientTransform="matrix(1 0 0 -1 0 514)" gradientUnits="userSpaceOnUse" x1="256" x2="256" xlink:href="#lg1" y1="301.952" y2="315.204"/><linearGradient id="SVGID_00000029016922012865063680000007184424537308790461_" gradientTransform="matrix(1 0 0 -1 0 514)" gradientUnits="userSpaceOnUse" x1="256" x2="256" xlink:href="#lg1" y1="325.183" y2="338.434"/><linearGradient id="SVGID_00000071552277845405989150000007321146397628176550_" gradientTransform="matrix(1 0 0 -1 0 514)" gradientUnits="userSpaceOnUse" x1="256" x2="256" xlink:href="#lg1" y1="348.413" y2="361.665"/><linearGradient id="SVGID_00000077326559443989850990000016592910934614304904_" gradientTransform="matrix(1 0 0 -1 0 514)" gradientUnits="userSpaceOnUse" x1="256" x2="256" xlink:href="#lg1" y1="371.644" y2="384.896"/><linearGradient id="SVGID_00000034775574784543538500000017666291366528862897_" gradientTransform="matrix(1 0 0 -1 0 514)" gradientUnits="userSpaceOnUse" x1="256" x2="256" xlink:href="#lg1" y1="142.405" y2="156.912"/><linearGradient id="SVGID_00000119108907211354495800000015841963038007294880_" gradientTransform="matrix(1 0 0 -1 0 514)" gradientUnits="userSpaceOnUse" x1="256" x2="256" xlink:href="#lg2" y1="166.324" y2="124.967"/><linearGradient id="SVGID_00000011749916126939084690000002995925436399225783_" gradientTransform="matrix(1 0 0 -1 0 514)" gradientUnits="userSpaceOnUse" x1="296.655" x2="341.195" xlink:href="#lg2" y1="310.251" y2="310.251"/><linearGradient id="SVGID_00000026874940035429905330000014926696881451470510_" gradientTransform="matrix(1 0 0 -1 0 514)" gradientUnits="userSpaceOnUse" x1="331.767" x2="233.875" xlink:href="#lg2" y1="253.614" y2="283.965"/><linearGradient id="SVGID_00000169537132108289251660000001135682885676713142_" gradientTransform="matrix(1 0 0 -1 0 514)" gradientUnits="userSpaceOnUse" x1="227.404" x2="272.426" xlink:href="#lg1" y1="298.298" y2="298.298"/><linearGradient id="SVGID_00000132069993763459222140000006789542644544154240_" gradientTransform="matrix(1 0 0 -1 0 514)" gradientUnits="userSpaceOnUse" x1="241.035" x2="191.661" xlink:href="#lg3" y1="299.772" y2="331.192"/><linearGradient id="SVGID_00000131348929559240864240000007491917343750615730_" gradientTransform="matrix(1 0 0 -1 0 514)" gradientUnits="userSpaceOnUse" x1="235.596" x2="306.771" xlink:href="#lg2" y1="298.891" y2="294.403"/><linearGradient id="SVGID_00000127756046086868159810000010382242665246514851_" gradientTransform="matrix(1 0 0 -1 0 514)" gradientUnits="userSpaceOnUse" x1="256" x2="256" xlink:href="#lg2" y1="206.72" y2="166.96"/><linearGradient id="SVGID_00000130645446170248280670000013009751245612159164_" gradientTransform="matrix(1 0 0 -1 0 514)" gradientUnits="userSpaceOnUse" x1="368.111" x2="527.869" xlink:href="#lg1" y1="321.345" y2="245.056"/><linearGradient id="SVGID_00000075875461172075848310000007367872030609244863_" gradientTransform="matrix(1 0 0 -1 0 514)" gradientUnits="userSpaceOnUse" x1="426.667" x2="426.667" xlink:href="#lg1" y1="209.029" y2="222.281"/><linearGradient id="SVGID_00000159440198528297369920000006271103582432375479_" gradientTransform="matrix(1 0 0 -1 0 514)" gradientUnits="userSpaceOnUse" x1="426.667" x2="426.667" xlink:href="#lg1" y1="232.26" y2="245.512"/><linearGradient id="SVGID_00000125586571405212639210000004818121964244485263_" gradientTransform="matrix(1 0 0 -1 0 514)" gradientUnits="userSpaceOnUse" x1="426.667" x2="426.667" xlink:href="#lg1" y1="255.491" y2="268.742"/><linearGradient id="SVGID_00000029759870033005126560000017146146570441362084_" gradientTransform="matrix(1 0 0 -1 0 514)" gradientUnits="userSpaceOnUse" x1="426.667" x2="426.667" xlink:href="#lg1" y1="278.721" y2="291.973"/><linearGradient id="SVGID_00000130632359830260479890000015724519356487957667_" gradientTransform="matrix(1 0 0 -1 0 514)" gradientUnits="userSpaceOnUse" x1="426.667" x2="426.667" xlink:href="#lg1" y1="301.952" y2="315.204"/><linearGradient id="SVGID_00000119828126987136926580000003915743204807991740_" gradientTransform="matrix(1 0 0 -1 0 514)" gradientUnits="userSpaceOnUse" x1="426.667" x2="426.667" xlink:href="#lg1" y1="325.183" y2="338.434"/><linearGradient id="SVGID_00000057147976972524166760000008773487294340561034_" gradientTransform="matrix(1 0 0 -1 0 514)" gradientUnits="userSpaceOnUse" x1="426.667" x2="426.667" xlink:href="#lg1" y1="348.413" y2="361.665"/><linearGradient id="SVGID_00000131338074018352001590000017780358284497637004_" gradientTransform="matrix(1 0 0 -1 0 514)" gradientUnits="userSpaceOnUse" x1="426.667" x2="426.667" xlink:href="#lg1" y1="371.644" y2="384.896"/><linearGradient id="SVGID_00000134214130656785105830000015593292169287776914_" gradientTransform="matrix(1 0 0 -1 0 514)" gradientUnits="userSpaceOnUse" x1="426.667" x2="426.667" xlink:href="#lg1" y1="142.405" y2="156.912"/><linearGradient id="SVGID_00000121981670059798026840000001491488383454960573_" gradientTransform="matrix(1 0 0 -1 0 514)" gradientUnits="userSpaceOnUse" x1="426.667" x2="426.667" xlink:href="#lg2" y1="166.324" y2="124.967"/><linearGradient id="SVGID_00000171693471423745102020000012036926954735668360_" gradientTransform="matrix(1 0 0 -1 0 514)" gradientUnits="userSpaceOnUse" x1="467.321" x2="511.861" xlink:href="#lg2" y1="310.251" y2="310.251"/><linearGradient id="SVGID_00000048499158369350570280000001247882328455949724_" gradientTransform="matrix(1 0 0 -1 0 514)" gradientUnits="userSpaceOnUse" x1="502.433" x2="404.542" xlink:href="#lg2" y1="253.614" y2="283.965"/><linearGradient id="SVGID_00000108991751114741346200000015875638397179787452_" gradientTransform="matrix(1 0 0 -1 0 514)" gradientUnits="userSpaceOnUse" x1="398.07" x2="443.092" xlink:href="#lg1" y1="298.298" y2="298.298"/><linearGradient id="SVGID_00000142874919388580650540000005641567351489231783_" gradientTransform="matrix(1 0 0 -1 0 514)" gradientUnits="userSpaceOnUse" x1="411.701" x2="362.328" xlink:href="#lg3" y1="299.772" y2="331.192"/><linearGradient id="SVGID_00000102522179057701385680000011180788483240476806_" gradientTransform="matrix(1 0 0 -1 0 514)" gradientUnits="userSpaceOnUse" x1="406.263" x2="477.437" xlink:href="#lg2" y1="298.891" y2="294.403"/><linearGradient id="SVGID_00000059306202042702824410000015845771286565866906_" gradientTransform="matrix(1 0 0 -1 0 514)" gradientUnits="userSpaceOnUse" x1="426.667" x2="426.667" xlink:href="#lg2" y1="206.72" y2="166.96"/><linearGradient id="SVGID_00000145775288854498230780000017008930608878233516_" gradientTransform="matrix(1 0 0 -1 0 514)" gradientUnits="userSpaceOnUse" x1="172.254" x2="167.87" xlink:href="#lg1" y1="417.336" y2="417.336"/><linearGradient id="SVGID_00000001658963777686765910000003369954338720290689_" gradientTransform="matrix(1 0 0 -1 0 514)" gradientUnits="userSpaceOnUse" x1="172.254" x2="167.87" xlink:href="#lg1" y1="388.362" y2="388.362"/><linearGradient id="SVGID_00000183213160787787307920000006335294724311142317_" gradientTransform="matrix(1 0 0 -1 0 514)" gradientUnits="userSpaceOnUse" x1="172.254" x2="167.87" xlink:href="#lg1" y1="359.388" y2="359.388"/><linearGradient id="SVGID_00000040553325217976804260000016568044102281900223_" gradientTransform="matrix(1 0 0 -1 0 514)" gradientUnits="userSpaceOnUse" x1="172.254" x2="167.87" xlink:href="#lg1" y1="330.414" y2="330.414"/><linearGradient id="SVGID_00000067204592737048946730000000013506710613059766_" gradientTransform="matrix(1 0 0 -1 0 514)" gradientUnits="userSpaceOnUse" x1="172.254" x2="167.87" xlink:href="#lg1" y1="301.44" y2="301.44"/><linearGradient id="SVGID_00000036946945850357955980000004109758328574984346_" gradientTransform="matrix(1 0 0 -1 0 514)" gradientUnits="userSpaceOnUse" x1="172.254" x2="167.87" xlink:href="#lg1" y1="272.467" y2="272.467"/><linearGradient id="SVGID_00000094604701688619270950000011243228454897657258_" gradientTransform="matrix(1 0 0 -1 0 514)" gradientUnits="userSpaceOnUse" x1="172.254" x2="167.87" xlink:href="#lg1" y1="243.493" y2="243.493"/><linearGradient id="SVGID_00000049907770318501082540000000893737213130057638_" gradientTransform="matrix(1 0 0 -1 0 514)" gradientUnits="userSpaceOnUse" x1="172.254" x2="167.87" xlink:href="#lg1" y1="214.519" y2="214.519"/><linearGradient id="SVGID_00000062172752953802488660000005985220347181284250_" gradientTransform="matrix(1 0 0 -1 0 514)" gradientUnits="userSpaceOnUse" x1="172.254" x2="167.87" xlink:href="#lg1" y1="185.545" y2="185.545"/><linearGradient id="SVGID_00000135666298102102785960000000364947652414599582_" gradientTransform="matrix(1 0 0 -1 0 514)" gradientUnits="userSpaceOnUse" x1="172.254" x2="167.87" xlink:href="#lg1" y1="156.571" y2="156.571"/><linearGradient id="SVGID_00000080167224987921148280000004086680524729322662_" gradientTransform="matrix(1 0 0 -1 0 514)" gradientUnits="userSpaceOnUse" x1="202.678" x2="156.61" xlink:href="#lg2" y1="417.336" y2="417.336"/><linearGradient id="SVGID_00000031888062686365553690000002114971991311443867_" gradientTransform="matrix(1 0 0 -1 0 514)" gradientUnits="userSpaceOnUse" x1="202.678" x2="156.61" xlink:href="#lg2" y1="388.362" y2="388.362"/><linearGradient id="SVGID_00000173154643894198689560000014433597364375280796_" gradientTransform="matrix(1 0 0 -1 0 514)" gradientUnits="userSpaceOnUse" x1="202.678" x2="156.61" xlink:href="#lg2" y1="359.388" y2="359.388"/><linearGradient id="SVGID_00000083801084486132511720000008154935441166187437_" gradientTransform="matrix(1 0 0 -1 0 514)" gradientUnits="userSpaceOnUse" x1="202.678" x2="156.61" xlink:href="#lg2" y1="330.414" y2="330.414"/><linearGradient id="SVGID_00000175311359411336854740000009880138621410419128_" gradientTransform="matrix(1 0 0 -1 0 514)" gradientUnits="userSpaceOnUse" x1="202.678" x2="156.61" xlink:href="#lg2" y1="301.44" y2="301.44"/><linearGradient id="SVGID_00000107581472105897494850000012576086135810024358_" gradientTransform="matrix(1 0 0 -1 0 514)" gradientUnits="userSpaceOnUse" x1="202.678" x2="156.61" xlink:href="#lg2" y1="272.467" y2="272.467"/><linearGradient id="SVGID_00000093140190061817396190000001861818225440978066_" gradientTransform="matrix(1 0 0 -1 0 514)" gradientUnits="userSpaceOnUse" x1="202.678" x2="156.61" xlink:href="#lg2" y1="243.493" y2="243.493"/><linearGradient id="SVGID_00000146461451441087077640000018079962861643915689_" gradientTransform="matrix(1 0 0 -1 0 514)" gradientUnits="userSpaceOnUse" x1="202.678" x2="156.61" xlink:href="#lg2" y1="214.519" y2="214.519"/><linearGradient id="SVGID_00000158028182579473093500000012455822825275308184_" gradientTransform="matrix(1 0 0 -1 0 514)" gradientUnits="userSpaceOnUse" x1="202.678" x2="156.61" xlink:href="#lg2" y1="185.545" y2="185.545"/><linearGradient id="SVGID_00000163036386183519889570000016010638428070549120_" gradientTransform="matrix(1 0 0 -1 0 514)" gradientUnits="userSpaceOnUse" x1="202.678" x2="156.61" xlink:href="#lg2" y1="156.571" y2="156.571"/><linearGradient id="SVGID_00000060002995810537092700000002192006350503181696_" gradientTransform="matrix(1 0 0 -1 0 514)" gradientUnits="userSpaceOnUse" x1="342.921" x2="338.537" xlink:href="#lg1" y1="417.336" y2="417.336"/><linearGradient id="SVGID_00000178180197819743189670000011315476914953647295_" gradientTransform="matrix(1 0 0 -1 0 514)" gradientUnits="userSpaceOnUse" x1="342.921" x2="338.537" xlink:href="#lg1" y1="388.362" y2="388.362"/><linearGradient id="SVGID_00000019669755801744205980000009416948086700340631_" gradientTransform="matrix(1 0 0 -1 0 514)" gradientUnits="userSpaceOnUse" x1="342.921" x2="338.537" xlink:href="#lg1" y1="359.388" y2="359.388"/><linearGradient id="SVGID_00000064312160073575568640000002918023324733221278_" gradientTransform="matrix(1 0 0 -1 0 514)" gradientUnits="userSpaceOnUse" x1="342.921" x2="338.537" xlink:href="#lg1" y1="330.414" y2="330.414"/><linearGradient id="SVGID_00000034799439244773124910000015963312011853552298_" gradientTransform="matrix(1 0 0 -1 0 514)" gradientUnits="userSpaceOnUse" x1="342.921" x2="338.537" xlink:href="#lg1" y1="301.44" y2="301.44"/><linearGradient id="SVGID_00000143575180636765231990000017698288605194550173_" gradientTransform="matrix(1 0 0 -1 0 514)" gradientUnits="userSpaceOnUse" x1="342.921" x2="338.537" xlink:href="#lg1" y1="272.467" y2="272.467"/><linearGradient id="SVGID_00000050626167826434402190000004098861779661740968_" gradientTransform="matrix(1 0 0 -1 0 514)" gradientUnits="userSpaceOnUse" x1="342.921" x2="338.537" xlink:href="#lg1" y1="243.493" y2="243.493"/><linearGradient id="SVGID_00000137099027969405183840000003499325919790069427_" gradientTransform="matrix(1 0 0 -1 0 514)" gradientUnits="userSpaceOnUse" x1="342.921" x2="338.537" xlink:href="#lg1" y1="214.519" y2="214.519"/><linearGradient id="SVGID_00000044893054583404925700000003976713827118626974_" gradientTransform="matrix(1 0 0 -1 0 514)" gradientUnits="userSpaceOnUse" x1="342.921" x2="338.537" xlink:href="#lg1" y1="185.545" y2="185.545"/><linearGradient id="SVGID_00000061444138201717212370000009129973318113140119_" gradientTransform="matrix(1 0 0 -1 0 514)" gradientUnits="userSpaceOnUse" x1="342.921" x2="338.537" xlink:href="#lg1" y1="156.571" y2="156.571"/><linearGradient id="SVGID_00000003811714589203107000000004785025565512288191_" gradientTransform="matrix(1 0 0 -1 0 514)" gradientUnits="userSpaceOnUse" x1="373.345" x2="327.277" xlink:href="#lg2" y1="417.336" y2="417.336"/><linearGradient id="SVGID_00000151507637488664485050000015240666707153101225_" gradientTransform="matrix(1 0 0 -1 0 514)" gradientUnits="userSpaceOnUse" x1="373.345" x2="327.277" xlink:href="#lg2" y1="388.362" y2="388.362"/><linearGradient id="SVGID_00000058567133055482169980000007659662017799716269_" gradientTransform="matrix(1 0 0 -1 0 514)" gradientUnits="userSpaceOnUse" x1="373.345" x2="327.277" xlink:href="#lg2" y1="359.388" y2="359.388"/><linearGradient id="SVGID_00000072278380894079508990000015370550486576624033_" gradientTransform="matrix(1 0 0 -1 0 514)" gradientUnits="userSpaceOnUse" x1="373.345" x2="327.277" xlink:href="#lg2" y1="330.414" y2="330.414"/><linearGradient id="SVGID_00000121268639987631800040000000609090399680896425_" gradientTransform="matrix(1 0 0 -1 0 514)" gradientUnits="userSpaceOnUse" x1="373.345" x2="327.277" xlink:href="#lg2" y1="301.44" y2="301.44"/><linearGradient id="SVGID_00000144329714240926582590000002373181029107782057_" gradientTransform="matrix(1 0 0 -1 0 514)" gradientUnits="userSpaceOnUse" x1="373.345" x2="327.277" xlink:href="#lg2" y1="272.467" y2="272.467"/><linearGradient id="SVGID_00000030468193361847694770000005126225573363097266_" gradientTransform="matrix(1 0 0 -1 0 514)" gradientUnits="userSpaceOnUse" x1="373.345" x2="327.277" xlink:href="#lg2" y1="243.493" y2="243.493"/><linearGradient id="SVGID_00000153679600735933272940000013914859245037547941_" gradientTransform="matrix(1 0 0 -1 0 514)" gradientUnits="userSpaceOnUse" x1="373.345" x2="327.277" xlink:href="#lg2" y1="214.519" y2="214.519"/><linearGradient id="SVGID_00000046325109063613087010000015304229669399979177_" gradientTransform="matrix(1 0 0 -1 0 514)" gradientUnits="userSpaceOnUse" x1="373.345" x2="327.277" xlink:href="#lg2" y1="185.545" y2="185.545"/><linearGradient id="SVGID_00000126313931562600100840000003831742986179717565_" gradientTransform="matrix(1 0 0 -1 0 514)" gradientUnits="userSpaceOnUse" x1="373.345" x2="327.277" xlink:href="#lg2" y1="156.571" y2="156.571"/><linearGradient id="SVGID_00000183241191746209570440000004118776087004343729_" gradientTransform="matrix(1 0 0 -1 0 514)" gradientUnits="userSpaceOnUse" x1="433.537" x2="371.223" xlink:href="#lg2" y1="157.01" y2="176.458"/><linearGradient id="SVGID_00000013178724729028060960000011264251604017674919_" gradientTransform="matrix(1 0 0 -1 0 514)" gradientUnits="userSpaceOnUse" x1="273.215" x2="307.344" y1="159.602" y2="125.473"><stop offset="0" stop-color="#ffdfcf"/><stop offset="1" stop-color="#ffa78f"/></linearGradient><linearGradient id="SVGID_00000011726319728996510990000001680514431340184722_" gradientTransform="matrix(1 0 0 -1 0 514)" gradientUnits="userSpaceOnUse" x1="278.074" x2="261.801" xlink:href="#lg3" y1="164.665" y2="199.99"/><linearGradient id="lg4"><stop offset="0" stop-color="#f89580" stop-opacity="0"/><stop offset=".1028" stop-color="#f5937e" stop-opacity=".049"/><stop offset=".2747" stop-color="#ee8e79" stop-opacity=".18"/><stop offset=".4946" stop-color="#e38671" stop-opacity=".393"/><stop offset=".7511" stop-color="#d57c65" stop-opacity=".686"/><stop offset=".9972" stop-color="#c5715a"/></linearGradient><linearGradient id="SVGID_00000163046032553407719330000005612446655582252436_" gradientTransform="matrix(1 0 0 -1 0 514)" gradientUnits="userSpaceOnUse" x1="291.791" x2="323.146" xlink:href="#lg4" y1="140.302" y2="102.596"/><linearGradient id="SVGID_00000125568864785318176390000001814874606324301470_" gradientTransform="matrix(.707 .707 .707 -.707 -124.63 237.711)" gradientUnits="userSpaceOnUse" x1="395.857" x2="395.857" xlink:href="#lg4" y1="93.834" y2="69.769"/><g><g><g><path d="m170.667 84.363v287.945c0 7.647-6.199 13.846-13.846 13.846h-142.975c-7.647-.001-13.846-6.2-13.846-13.846v-287.945c0-4.52 2.206-8.756 5.911-11.346l69.343-48.496c6.053-4.233 14.106-4.233 20.159 0l69.343 48.496c3.704 2.59 5.911 6.825 5.911 11.346z" fill="url(#SVGID_1_)"/><g><path d="m0 289.131h170.667v15.758h-170.667z" fill="url(#SVGID_00000021077946647639741960000015957855168221482383_)"/><path d="m0 265.9h170.667v15.758h-170.667z" fill="url(#SVGID_00000130635291233981162560000008107123066193676694_)"/><path d="m0 242.669h170.667v15.758h-170.667z" fill="url(#SVGID_00000009585410017173931770000007940175429759844030_)"/><path d="m0 219.439h170.667v15.758h-170.667z" fill="url(#SVGID_00000163071635941467483790000009378506725549444005_)"/><path d="m0 196.208h170.667v15.758h-170.667z" fill="url(#SVGID_00000084491459320198242340000014729882880637124026_)"/><path d="m0 172.977h170.667v15.758h-170.667z" fill="url(#SVGID_00000098918162599859318840000000103291737144298918_)"/><path d="m0 149.747h170.667v15.758h-170.667z" fill="url(#SVGID_00000077324881995298539510000005490566468332260270_)"/><path d="m0 126.516h170.667v15.758h-170.667z" fill="url(#SVGID_00000129927772687337924890000002391061450462558893_)"/></g><path d="m61.577 354.255h47.512c4.763 0 8.625 3.862 8.625 8.625 0 4.763-3.862 8.625-8.625 8.625h-47.512c-4.763 0-8.625-3.862-8.625-8.625 0-4.763 3.862-8.625 8.625-8.625z" fill="url(#SVGID_00000024683405960121086060000013809671032069938605_)"/><path d="m0 322.193v50.115c0 7.647 6.199 13.846 13.846 13.846h142.976c7.647 0 13.846-6.199 13.846-13.846v-50.115z" fill="url(#SVGID_00000150815859169896934390000011835522313549647278_)"/><path d="m164.756 73.016-69.343-48.495c-6.053-4.233-14.106-4.233-20.159 0l-12.633 8.835v352.798h94.2c7.647 0 13.846-6.199 13.846-13.846v-287.946c0-4.52-2.207-8.755-5.911-11.346z" fill="url(#SVGID_00000145758735432699632070000014161328716213165996_)"/><path d="m101.862 95.8v183.48l-53.934 59.664 47.209 47.209h61.683c7.647 0 13.846-6.199 13.846-13.846v-207.702z" fill="url(#SVGID_00000112598044403663323260000011476159017829934223_)"/><g><path d="m120.288 122.693-15.697-23.56c-9.159-13.746-29.356-13.746-38.514 0l-15.697 23.56c-17.637 26.471-21.932 59.649-11.616 89.738 8.335 24.312 11.297 50.142 8.682 75.71l-3.997 39.077c-.841 8.22 5.61 15.364 13.873 15.364h56.024c8.263 0 14.714-7.144 13.873-15.364l-3.997-39.077c-2.615-25.568.347-51.398 8.682-75.71 10.315-30.09 6.021-63.267-11.616-89.738z" fill="url(#SVGID_00000030463320268219527350000005412381715876055950_)"/><path d="m120.288 122.693-15.697-23.56c-9.159-13.746-29.356-13.746-38.514 0l-15.697 23.56c-17.637 26.471-21.932 59.649-11.616 89.738 8.335 24.312 11.297 50.142 8.682 75.71l-3.997 39.077c-.841 8.22 5.61 15.364 13.873 15.364h56.024c8.263 0 14.714-7.144 13.873-15.364l-3.997-39.077c-2.615-25.568.347-51.398 8.682-75.71 10.315-30.09 6.021-63.267-11.616-89.738z" fill="url(#SVGID_00000016039376717290835550000016457803163900051584_)"/><path d="m104.59 99.133c-9.159-13.746-29.356-13.746-38.514 0l-3.455 5.186v238.263h50.724c8.263 0 14.714-7.144 13.873-15.364l-3.997-39.077c-2.615-25.567.347-51.398 8.682-75.71 10.316-30.089 6.021-63.267-11.616-89.738z" fill="url(#SVGID_00000145771087547447487300000017866390777780855720_)"/><path d="m46.38 243.652c2.207 14.686 2.584 29.631 1.065 44.489l-3.997 39.077c-.841 8.22 5.61 15.364 13.873 15.364h56.024c8.263 0 14.714-7.144 13.873-15.364l-3.997-39.077c-1.52-14.858-1.143-29.803 1.065-44.489z" fill="url(#SVGID_00000130621244412361902240000004948023011628424088_)"/></g></g><g><path d="m341.333 84.363v287.945c0 7.647-6.199 13.846-13.846 13.846h-142.975c-7.647 0-13.846-6.199-13.846-13.846v-287.945c0-4.52 2.206-8.756 5.911-11.346l69.343-48.496c6.053-4.233 14.106-4.233 20.159 0l69.343 48.496c3.705 2.59 5.911 6.825 5.911 11.346z" fill="url(#SVGID_00000115501736011447907890000012885357245192185255_)"/><g><path d="m170.667 289.131h170.667v15.758h-170.667z" fill="url(#SVGID_00000147921179953638593500000017975080077875677375_)"/><path d="m170.667 265.9h170.667v15.758h-170.667z" fill="url(#SVGID_00000021808755599571059170000015998200649015281826_)"/><path d="m170.667 242.669h170.667v15.758h-170.667z" fill="url(#SVGID_00000038388263580849239760000000583291168493194880_)"/><path d="m170.667 219.439h170.667v15.758h-170.667z" fill="url(#SVGID_00000068679016125712175030000017477261650365399952_)"/><path d="m170.667 196.208h170.667v15.758h-170.667z" fill="url(#SVGID_00000080196015022661027960000010900394910261861009_)"/><path d="m170.667 172.977h170.667v15.758h-170.667z" fill="url(#SVGID_00000029016922012865063680000007184424537308790461_)"/><path d="m170.667 149.747h170.667v15.758h-170.667z" fill="url(#SVGID_00000071552277845405989150000007321146397628176550_)"/><path d="m170.667 126.516h170.667v15.758h-170.667z" fill="url(#SVGID_00000077326559443989850990000016592910934614304904_)"/></g><path d="m232.244 354.255h47.512c4.763 0 8.625 3.862 8.625 8.625 0 4.763-3.862 8.625-8.625 8.625h-47.512c-4.763 0-8.625-3.862-8.625-8.625 0-4.763 3.861-8.625 8.625-8.625z" fill="url(#SVGID_00000034775574784543538500000017666291366528862897_)"/><path d="m170.667 322.193v50.115c0 7.647 6.199 13.846 13.846 13.846h142.976c7.647 0 13.846-6.199 13.846-13.846v-50.115z" fill="url(#SVGID_00000119108907211354495800000015841963038007294880_)"/><path d="m335.423 73.016-69.343-48.496c-6.053-4.233-14.106-4.233-20.159 0l-12.633 8.835v352.798h94.2c7.647 0 13.846-6.199 13.846-13.846v-287.945c-.001-4.52-2.207-8.755-5.911-11.346z" fill="url(#SVGID_00000011749916126939084690000002995925436399225783_)"/><path d="m272.529 95.8v183.48l-53.934 59.664 47.209 47.209h61.683c7.647 0 13.846-6.199 13.846-13.846v-207.702z" fill="url(#SVGID_00000026874940035429905330000014926696881451470510_)"/><g><path d="m290.954 122.693-15.697-23.56c-9.159-13.746-29.356-13.746-38.514 0l-15.697 23.56c-17.637 26.471-21.932 59.649-11.616 89.738 8.335 24.312 11.297 50.142 8.682 75.71l-3.997 39.077c-.841 8.22 5.61 15.364 13.873 15.364h56.024c8.263 0 14.714-7.144 13.873-15.364l-3.997-39.077c-2.615-25.568.347-51.398 8.682-75.71 10.316-30.09 6.021-63.267-11.616-89.738z" fill="url(#SVGID_00000169537132108289251660000001135682885676713142_)"/><path d="m290.954 122.693-15.697-23.56c-9.159-13.746-29.356-13.746-38.514 0l-15.697 23.56c-17.637 26.471-21.932 59.649-11.616 89.738 8.335 24.312 11.297 50.142 8.682 75.71l-3.997 39.077c-.841 8.22 5.61 15.364 13.873 15.364h56.024c8.263 0 14.714-7.144 13.873-15.364l-3.997-39.077c-2.615-25.568.347-51.398 8.682-75.71 10.316-30.09 6.021-63.267-11.616-89.738z" fill="url(#SVGID_00000132069993763459222140000006789542644544154240_)"/><path d="m275.257 99.133c-9.159-13.746-29.356-13.746-38.514 0l-3.455 5.186v238.263h50.724c8.263 0 14.714-7.144 13.873-15.364l-3.997-39.077c-2.615-25.567.347-51.398 8.682-75.71 10.316-30.089 6.021-63.267-11.616-89.738z" fill="url(#SVGID_00000131348929559240864240000007491917343750615730_)"/><path d="m217.047 243.652c2.207 14.686 2.584 29.631 1.065 44.489l-3.997 39.077c-.841 8.22 5.61 15.364 13.873 15.364h56.024c8.263 0 14.714-7.144 13.873-15.364l-3.997-39.077c-1.52-14.858-1.143-29.803 1.065-44.489z" fill="url(#SVGID_00000127756046086868159810000010382242665246514851_)"/></g></g><g><path d="m512 84.363v287.945c0 7.647-6.199 13.846-13.846 13.846h-142.975c-7.647 0-13.846-6.199-13.846-13.846v-287.945c0-4.52 2.206-8.756 5.911-11.346l69.343-48.496c6.053-4.233 14.106-4.233 20.159 0l69.343 48.496c3.705 2.59 5.911 6.825 5.911 11.346z" fill="url(#SVGID_00000130645446170248280670000013009751245612159164_)"/><g><path d="m341.333 289.131h170.667v15.758h-170.667z" fill="url(#SVGID_00000075875461172075848310000007367872030609244863_)"/><path d="m341.333 265.9h170.667v15.758h-170.667z" fill="url(#SVGID_00000159440198528297369920000006271103582432375479_)"/><path d="m341.333 242.669h170.667v15.758h-170.667z" fill="url(#SVGID_00000125586571405212639210000004818121964244485263_)"/><path d="m341.333 219.439h170.667v15.758h-170.667z" fill="url(#SVGID_00000029759870033005126560000017146146570441362084_)"/><path d="m341.333 196.208h170.667v15.758h-170.667z" fill="url(#SVGID_00000130632359830260479890000015724519356487957667_)"/><path d="m341.333 172.977h170.667v15.758h-170.667z" fill="url(#SVGID_00000119828126987136926580000003915743204807991740_)"/><path d="m341.333 149.747h170.667v15.758h-170.667z" fill="url(#SVGID_00000057147976972524166760000008773487294340561034_)"/><path d="m341.333 126.516h170.667v15.758h-170.667z" fill="url(#SVGID_00000131338074018352001590000017780358284497637004_)"/></g><path d="m402.911 354.255h47.512c4.763 0 8.625 3.862 8.625 8.625 0 4.763-3.862 8.625-8.625 8.625h-47.512c-4.763 0-8.625-3.862-8.625-8.625 0-4.763 3.861-8.625 8.625-8.625z" fill="url(#SVGID_00000134214130656785105830000015593292169287776914_)"/><path d="m341.333 322.193v50.115c0 7.647 6.199 13.846 13.846 13.846h142.976c7.647 0 13.846-6.199 13.846-13.846v-50.115z" fill="url(#SVGID_00000121981670059798026840000001491488383454960573_)"/><path d="m506.089 73.016-69.343-48.496c-6.053-4.233-14.106-4.233-20.159 0l-12.633 8.835v352.798h94.2c7.647 0 13.846-6.199 13.846-13.846v-287.945c0-4.52-2.206-8.755-5.911-11.346z" fill="url(#SVGID_00000171693471423745102020000012036926954735668360_)"/><path d="m443.196 95.8v183.48l-53.934 59.664 47.209 47.209h61.683c7.647 0 13.846-6.199 13.846-13.846v-207.702z" fill="url(#SVGID_00000048499158369350570280000001247882328455949724_)"/><g><path d="m461.621 122.693-15.697-23.56c-9.159-13.746-29.356-13.746-38.514 0l-15.697 23.56c-17.637 26.471-21.932 59.649-11.616 89.738 8.335 24.312 11.297 50.142 8.682 75.71l-3.997 39.077c-.841 8.22 5.61 15.364 13.873 15.364h56.024c8.263 0 14.714-7.144 13.873-15.364l-3.997-39.077c-2.615-25.568.347-51.398 8.682-75.71 10.316-30.09 6.021-63.267-11.616-89.738z" fill="url(#SVGID_00000108991751114741346200000015875638397179787452_)"/><path d="m461.621 122.693-15.697-23.56c-9.159-13.746-29.356-13.746-38.514 0l-15.697 23.56c-17.637 26.471-21.932 59.649-11.616 89.738 8.335 24.312 11.297 50.142 8.682 75.71l-3.997 39.077c-.841 8.22 5.61 15.364 13.873 15.364h56.024c8.263 0 14.714-7.144 13.873-15.364l-3.997-39.077c-2.615-25.568.347-51.398 8.682-75.71 10.316-30.09 6.021-63.267-11.616-89.738z" fill="url(#SVGID_00000142874919388580650540000005641567351489231783_)"/><path d="m445.924 99.133c-9.159-13.746-29.356-13.746-38.514 0l-3.455 5.186v238.263h50.724c8.263 0 14.714-7.144 13.873-15.364l-3.997-39.077c-2.615-25.567.347-51.398 8.682-75.71 10.316-30.089 6.021-63.267-11.616-89.738z" fill="url(#SVGID_00000102522179057701385680000011180788483240476806_)"/><path d="m387.714 243.652c2.207 14.686 2.584 29.631 1.065 44.489l-3.997 39.077c-.841 8.22 5.61 15.364 13.873 15.364h56.024c8.263 0 14.714-7.144 13.873-15.364l-3.997-39.077c-1.52-14.858-1.143-29.803 1.065-44.489z" fill="url(#SVGID_00000059306202042702824410000015845771286565866906_)"/></g></g><g><g><path d="m170.667 87.535c2.411 0 4.366 1.955 4.366 4.366v9.526c0 2.411-1.955 4.366-4.366 4.366-2.411 0-4.366-1.955-4.366-4.366v-9.526c0-2.411 1.954-4.366 4.366-4.366z" fill="url(#SVGID_00000145775288854498230780000017008930608878233516_)"/><path d="m170.667 116.509c2.411 0 4.366 1.955 4.366 4.366v9.526c0 2.411-1.955 4.366-4.366 4.366-2.411 0-4.366-1.955-4.366-4.366v-9.526c0-2.411 1.954-4.366 4.366-4.366z" fill="url(#SVGID_00000001658963777686765910000003369954338720290689_)"/><path d="m170.667 145.483c2.411 0 4.366 1.955 4.366 4.366v9.526c0 2.411-1.955 4.366-4.366 4.366-2.411 0-4.366-1.955-4.366-4.366v-9.526c0-2.411 1.954-4.366 4.366-4.366z" fill="url(#SVGID_00000183213160787787307920000006335294724311142317_)"/><path d="m170.667 174.457c2.411 0 4.366 1.955 4.366 4.366v9.526c0 2.411-1.955 4.366-4.366 4.366-2.411 0-4.366-1.955-4.366-4.366v-9.526c0-2.411 1.954-4.366 4.366-4.366z" fill="url(#SVGID_00000040553325217976804260000016568044102281900223_)"/><path d="m170.667 203.431c2.411 0 4.366 1.955 4.366 4.366v9.526c0 2.411-1.955 4.366-4.366 4.366-2.411 0-4.366-1.955-4.366-4.366v-9.526c0-2.411 1.954-4.366 4.366-4.366z" fill="url(#SVGID_00000067204592737048946730000000013506710613059766_)"/><path d="m170.667 232.405c2.411 0 4.366 1.955 4.366 4.366v9.526c0 2.411-1.955 4.366-4.366 4.366-2.411 0-4.366-1.955-4.366-4.366v-9.526c0-2.412 1.954-4.366 4.366-4.366z" fill="url(#SVGID_00000036946945850357955980000004109758328574984346_)"/><path d="m170.667 261.379c2.411 0 4.366 1.955 4.366 4.366v9.526c0 2.411-1.955 4.366-4.366 4.366-2.411 0-4.366-1.955-4.366-4.366v-9.526c0-2.412 1.954-4.366 4.366-4.366z" fill="url(#SVGID_00000094604701688619270950000011243228454897657258_)"/><path d="m170.667 290.352c2.411 0 4.366 1.955 4.366 4.366v9.526c0 2.411-1.955 4.366-4.366 4.366-2.411 0-4.366-1.955-4.366-4.366v-9.526c0-2.411 1.954-4.366 4.366-4.366z" fill="url(#SVGID_00000049907770318501082540000000893737213130057638_)"/><path d="m170.667 319.326c2.411 0 4.366 1.955 4.366 4.366v9.526c0 2.411-1.955 4.366-4.366 4.366-2.411 0-4.366-1.955-4.366-4.366v-9.526c0-2.411 1.954-4.366 4.366-4.366z" fill="url(#SVGID_00000062172752953802488660000005985220347181284250_)"/><path d="m170.667 348.3c2.411 0 4.366 1.955 4.366 4.366v9.526c0 2.411-1.955 4.366-4.366 4.366-2.411 0-4.366-1.955-4.366-4.366v-9.526c0-2.411 1.954-4.366 4.366-4.366z" fill="url(#SVGID_00000135666298102102785960000000364947652414599582_)"/></g><g><path d="m170.667 87.535c2.411 0 4.366 1.955 4.366 4.366v9.526c0 2.411-1.955 4.366-4.366 4.366-2.411 0-4.366-1.955-4.366-4.366v-9.526c0-2.411 1.954-4.366 4.366-4.366z" fill="url(#SVGID_00000080167224987921148280000004086680524729322662_)"/><path d="m170.667 116.509c2.411 0 4.366 1.955 4.366 4.366v9.526c0 2.411-1.955 4.366-4.366 4.366-2.411 0-4.366-1.955-4.366-4.366v-9.526c0-2.411 1.954-4.366 4.366-4.366z" fill="url(#SVGID_00000031888062686365553690000002114971991311443867_)"/><path d="m170.667 145.483c2.411 0 4.366 1.955 4.366 4.366v9.526c0 2.411-1.955 4.366-4.366 4.366-2.411 0-4.366-1.955-4.366-4.366v-9.526c0-2.411 1.954-4.366 4.366-4.366z" fill="url(#SVGID_00000173154643894198689560000014433597364375280796_)"/><path d="m170.667 174.457c2.411 0 4.366 1.955 4.366 4.366v9.526c0 2.411-1.955 4.366-4.366 4.366-2.411 0-4.366-1.955-4.366-4.366v-9.526c0-2.411 1.954-4.366 4.366-4.366z" fill="url(#SVGID_00000083801084486132511720000008154935441166187437_)"/><path d="m170.667 203.431c2.411 0 4.366 1.955 4.366 4.366v9.526c0 2.411-1.955 4.366-4.366 4.366-2.411 0-4.366-1.955-4.366-4.366v-9.526c0-2.411 1.954-4.366 4.366-4.366z" fill="url(#SVGID_00000175311359411336854740000009880138621410419128_)"/><path d="m170.667 232.405c2.411 0 4.366 1.955 4.366 4.366v9.526c0 2.411-1.955 4.366-4.366 4.366-2.411 0-4.366-1.955-4.366-4.366v-9.526c0-2.412 1.954-4.366 4.366-4.366z" fill="url(#SVGID_00000107581472105897494850000012576086135810024358_)"/><path d="m170.667 261.379c2.411 0 4.366 1.955 4.366 4.366v9.526c0 2.411-1.955 4.366-4.366 4.366-2.411 0-4.366-1.955-4.366-4.366v-9.526c0-2.412 1.954-4.366 4.366-4.366z" fill="url(#SVGID_00000093140190061817396190000001861818225440978066_)"/><path d="m170.667 290.352c2.411 0 4.366 1.955 4.366 4.366v9.526c0 2.411-1.955 4.366-4.366 4.366-2.411 0-4.366-1.955-4.366-4.366v-9.526c0-2.411 1.954-4.366 4.366-4.366z" fill="url(#SVGID_00000146461451441087077640000018079962861643915689_)"/><path d="m170.667 319.326c2.411 0 4.366 1.955 4.366 4.366v9.526c0 2.411-1.955 4.366-4.366 4.366-2.411 0-4.366-1.955-4.366-4.366v-9.526c0-2.411 1.954-4.366 4.366-4.366z" fill="url(#SVGID_00000158028182579473093500000012455822825275308184_)"/><path d="m170.667 348.3c2.411 0 4.366 1.955 4.366 4.366v9.526c0 2.411-1.955 4.366-4.366 4.366-2.411 0-4.366-1.955-4.366-4.366v-9.526c0-2.411 1.954-4.366 4.366-4.366z" fill="url(#SVGID_00000163036386183519889570000016010638428070549120_)"/></g></g><g><g><path d="m341.333 87.535c2.411 0 4.366 1.955 4.366 4.366v9.526c0 2.411-1.955 4.366-4.366 4.366-2.411 0-4.366-1.955-4.366-4.366v-9.526c0-2.411 1.955-4.366 4.366-4.366z" fill="url(#SVGID_00000060002995810537092700000002192006350503181696_)"/><path d="m341.333 116.509c2.411 0 4.366 1.955 4.366 4.366v9.526c0 2.411-1.955 4.366-4.366 4.366-2.411 0-4.366-1.955-4.366-4.366v-9.526c0-2.411 1.955-4.366 4.366-4.366z" fill="url(#SVGID_00000178180197819743189670000011315476914953647295_)"/><path d="m341.333 145.483c2.411 0 4.366 1.955 4.366 4.366v9.526c0 2.411-1.955 4.366-4.366 4.366-2.411 0-4.366-1.955-4.366-4.366v-9.526c0-2.411 1.955-4.366 4.366-4.366z" fill="url(#SVGID_00000019669755801744205980000009416948086700340631_)"/><path d="m341.333 174.457c2.411 0 4.366 1.955 4.366 4.366v9.526c0 2.411-1.955 4.366-4.366 4.366-2.411 0-4.366-1.955-4.366-4.366v-9.526c0-2.411 1.955-4.366 4.366-4.366z" fill="url(#SVGID_00000064312160073575568640000002918023324733221278_)"/><path d="m341.333 203.431c2.411 0 4.366 1.955 4.366 4.366v9.526c0 2.411-1.955 4.366-4.366 4.366-2.411 0-4.366-1.955-4.366-4.366v-9.526c0-2.411 1.955-4.366 4.366-4.366z" fill="url(#SVGID_00000034799439244773124910000015963312011853552298_)"/><path d="m341.333 232.405c2.411 0 4.366 1.955 4.366 4.366v9.526c0 2.411-1.955 4.366-4.366 4.366-2.411 0-4.366-1.955-4.366-4.366v-9.526c0-2.412 1.955-4.366 4.366-4.366z" fill="url(#SVGID_00000143575180636765231990000017698288605194550173_)"/><path d="m341.333 261.379c2.411 0 4.366 1.955 4.366 4.366v9.526c0 2.411-1.955 4.366-4.366 4.366-2.411 0-4.366-1.955-4.366-4.366v-9.526c0-2.412 1.955-4.366 4.366-4.366z" fill="url(#SVGID_00000050626167826434402190000004098861779661740968_)"/><path d="m341.333 290.352c2.411 0 4.366 1.955 4.366 4.366v9.526c0 2.411-1.955 4.366-4.366 4.366-2.411 0-4.366-1.955-4.366-4.366v-9.526c0-2.411 1.955-4.366 4.366-4.366z" fill="url(#SVGID_00000137099027969405183840000003499325919790069427_)"/><path d="m341.333 319.326c2.411 0 4.366 1.955 4.366 4.366v9.526c0 2.411-1.955 4.366-4.366 4.366-2.411 0-4.366-1.955-4.366-4.366v-9.526c0-2.411 1.955-4.366 4.366-4.366z" fill="url(#SVGID_00000044893054583404925700000003976713827118626974_)"/><path d="m341.333 348.3c2.411 0 4.366 1.955 4.366 4.366v9.526c0 2.411-1.955 4.366-4.366 4.366-2.411 0-4.366-1.955-4.366-4.366v-9.526c0-2.411 1.955-4.366 4.366-4.366z" fill="url(#SVGID_00000061444138201717212370000009129973318113140119_)"/></g><g><path d="m341.333 87.535c2.411 0 4.366 1.955 4.366 4.366v9.526c0 2.411-1.955 4.366-4.366 4.366-2.411 0-4.366-1.955-4.366-4.366v-9.526c0-2.411 1.955-4.366 4.366-4.366z" fill="url(#SVGID_00000003811714589203107000000004785025565512288191_)"/><path d="m341.333 116.509c2.411 0 4.366 1.955 4.366 4.366v9.526c0 2.411-1.955 4.366-4.366 4.366-2.411 0-4.366-1.955-4.366-4.366v-9.526c0-2.411 1.955-4.366 4.366-4.366z" fill="url(#SVGID_00000151507637488664485050000015240666707153101225_)"/><path d="m341.333 145.483c2.411 0 4.366 1.955 4.366 4.366v9.526c0 2.411-1.955 4.366-4.366 4.366-2.411 0-4.366-1.955-4.366-4.366v-9.526c0-2.411 1.955-4.366 4.366-4.366z" fill="url(#SVGID_00000058567133055482169980000007659662017799716269_)"/><path d="m341.333 174.457c2.411 0 4.366 1.955 4.366 4.366v9.526c0 2.411-1.955 4.366-4.366 4.366-2.411 0-4.366-1.955-4.366-4.366v-9.526c0-2.411 1.955-4.366 4.366-4.366z" fill="url(#SVGID_00000072278380894079508990000015370550486576624033_)"/><path d="m341.333 203.431c2.411 0 4.366 1.955 4.366 4.366v9.526c0 2.411-1.955 4.366-4.366 4.366-2.411 0-4.366-1.955-4.366-4.366v-9.526c0-2.411 1.955-4.366 4.366-4.366z" fill="url(#SVGID_00000121268639987631800040000000609090399680896425_)"/><path d="m341.333 232.405c2.411 0 4.366 1.955 4.366 4.366v9.526c0 2.411-1.955 4.366-4.366 4.366-2.411 0-4.366-1.955-4.366-4.366v-9.526c0-2.412 1.955-4.366 4.366-4.366z" fill="url(#SVGID_00000144329714240926582590000002373181029107782057_)"/><path d="m341.333 261.379c2.411 0 4.366 1.955 4.366 4.366v9.526c0 2.411-1.955 4.366-4.366 4.366-2.411 0-4.366-1.955-4.366-4.366v-9.526c0-2.412 1.955-4.366 4.366-4.366z" fill="url(#SVGID_00000030468193361847694770000005126225573363097266_)"/><path d="m341.333 290.352c2.411 0 4.366 1.955 4.366 4.366v9.526c0 2.411-1.955 4.366-4.366 4.366-2.411 0-4.366-1.955-4.366-4.366v-9.526c0-2.411 1.955-4.366 4.366-4.366z" fill="url(#SVGID_00000153679600735933272940000013914859245037547941_)"/><path d="m341.333 319.326c2.411 0 4.366 1.955 4.366 4.366v9.526c0 2.411-1.955 4.366-4.366 4.366-2.411 0-4.366-1.955-4.366-4.366v-9.526c0-2.411 1.955-4.366 4.366-4.366z" fill="url(#SVGID_00000046325109063613087010000015304229669399979177_)"/><path d="m341.333 348.3c2.411 0 4.366 1.955 4.366 4.366v9.526c0 2.411-1.955 4.366-4.366 4.366-2.411 0-4.366-1.955-4.366-4.366v-9.526c0-2.411 1.955-4.366 4.366-4.366z" fill="url(#SVGID_00000126313931562600100840000003831742986179717565_)"/></g></g></g><path d="m386.134 287.915-44.8 44.8v39.593c0 7.647 6.199 13.846 13.846 13.846h129.193z" fill="url(#SVGID_00000183241191746209570440000004118776087004343729_)"/><g><path d="m386.346 335.994 5.56-27.759c3.244-16.196-11.038-30.477-27.234-27.234l-27.759 5.56c-31.189 6.247-57.686 26.67-71.668 55.24-11.297 23.085-27.468 43.444-47.396 59.674l-30.458 24.805c-6.407 5.218-6.897 14.831-1.055 20.674l39.615 39.615c5.843 5.843 15.456 5.353 20.674-1.055l24.805-30.458c16.23-19.928 36.589-36.098 59.674-47.396 28.572-13.981 48.995-40.478 55.242-71.666z" fill="url(#SVGID_00000013178724729028060960000011264251604017674919_)"/><path d="m386.346 335.994 5.56-27.759c3.244-16.196-11.038-30.477-27.234-27.234l-27.759 5.56c-31.189 6.247-57.686 26.67-71.668 55.24-11.297 23.085-27.468 43.444-47.396 59.674l-30.458 24.805c-6.407 5.218-6.897 14.831-1.055 20.674l39.615 39.615c5.843 5.843 15.456 5.353 20.674-1.055l24.805-30.458c16.23-19.928 36.589-36.098 59.674-47.396 28.572-13.981 48.995-40.478 55.242-71.666z" fill="url(#SVGID_00000011726319728996510990000001680514431340184722_)"/><path d="m391.906 308.234c3.244-16.196-11.038-30.477-27.234-27.234l-6.11 1.224-168.478 168.478 35.868 35.868c5.843 5.843 15.456 5.353 20.674-1.055l24.805-30.458c16.23-19.928 36.589-36.098 59.674-47.396 28.57-13.982 48.994-40.479 55.24-71.668z" fill="url(#SVGID_00000163046032553407719330000005612446655582252436_)"/><path d="m248.554 369.264c-8.824 11.945-19.125 22.779-30.705 32.211l-30.458 24.805c-6.407 5.218-6.897 14.831-1.055 20.674l39.615 39.615c5.843 5.843 15.456 5.353 20.674-1.055l24.805-30.458c9.431-11.581 20.266-21.882 32.211-30.706z" fill="url(#SVGID_00000125568864785318176390000001814874606324301470_)"/></g></g></svg>