<svg id="_08_Caduceus" enable-background="new 0 0 512 512" viewBox="0 0 512 512" xmlns="http://www.w3.org/2000/svg" xmlns:xlink="http://www.w3.org/1999/xlink"><linearGradient id="lg1"><stop offset="0" stop-color="#99e6fc"/><stop offset=".1325" stop-color="#8ee1fb"/><stop offset=".3627" stop-color="#71d5f9"/><stop offset=".6631" stop-color="#43c2f5"/><stop offset="1" stop-color="#08a9f1"/></linearGradient><linearGradient id="SVGID_1_" gradientTransform="matrix(.975 .223 .223 -.975 -40.504 490.07)" gradientUnits="userSpaceOnUse" x1="77.458" x2="134.417" xlink:href="#lg1" y1="462.571" y2="342.324"/><linearGradient id="lg2"><stop offset="0" stop-color="#2740b0" stop-opacity="0"/><stop offset=".2505" stop-color="#263fae" stop-opacity=".023"/><stop offset=".4239" stop-color="#253dab" stop-opacity=".095"/><stop offset=".5741" stop-color="#233ba4" stop-opacity=".218"/><stop offset=".711" stop-color="#21379b" stop-opacity=".393"/><stop offset=".8389" stop-color="#1e3290" stop-opacity=".618"/><stop offset=".9585" stop-color="#1a2c82" stop-opacity=".89"/><stop offset="1" stop-color="#192a7d"/></linearGradient><linearGradient id="SVGID_00000147922955641655773260000000985803883676661158_" gradientTransform="matrix(.975 .223 .223 -.975 -40.504 490.07)" gradientUnits="userSpaceOnUse" x1="147.363" x2="177.425" xlink:href="#lg2" y1="388.786" y2="365.581"/><linearGradient id="SVGID_00000143612946482149403180000001146397920859192485_" gradientTransform="matrix(1 0 0 -1 0 514)" gradientUnits="userSpaceOnUse" x1="202.934" x2="217.667" xlink:href="#lg2" y1="357.309" y2="344.477"/><linearGradient id="lg3"><stop offset="0" stop-color="#08a9f1" stop-opacity="0"/><stop offset=".0927" stop-color="#0baaf1" stop-opacity=".025"/><stop offset=".2192" stop-color="#15aef2" stop-opacity=".094"/><stop offset=".3651" stop-color="#26b5f3" stop-opacity=".208"/><stop offset=".5256" stop-color="#3dbff5" stop-opacity=".367"/><stop offset=".698" stop-color="#5acbf7" stop-opacity=".571"/><stop offset=".8776" stop-color="#7edaf9" stop-opacity=".816"/><stop offset="1" stop-color="#99e6fc"/></linearGradient><linearGradient id="SVGID_00000013903841695052323160000011330890582799647379_" gradientTransform="matrix(1 0 0 -1 0 514)" gradientUnits="userSpaceOnUse" x1="209.217" x2="218.128" xlink:href="#lg3" y1="354.873" y2="350.833"/><linearGradient id="SVGID_00000137854633467553667070000012065121844733163433_" gradientTransform="matrix(1 0 0 -1 0 514)" gradientUnits="userSpaceOnUse" x1="101.204" x2="75.779" xlink:href="#lg2" y1="455.897" y2="422.867"/><linearGradient id="SVGID_00000006684229722054564640000007287314056839672251_" gradientTransform="matrix(1 0 0 -1 0 514)" gradientUnits="userSpaceOnUse" x1="90.122" x2="82.993" xlink:href="#lg3" y1="436.675" y2="425.269"/><linearGradient id="SVGID_00000044893558066196109640000015179330317744149438_" gradientTransform="matrix(1 0 0 -1 0 514)" gradientUnits="userSpaceOnUse" x1="171.374" x2="187.295" xlink:href="#lg2" y1="357.212" y2="333.925"/><linearGradient id="SVGID_00000154402508423158305270000006031605600125851549_" gradientTransform="matrix(.975 .223 .223 -.975 -40.504 490.07)" gradientUnits="userSpaceOnUse" x1="143.182" x2="155.049" xlink:href="#lg3" y1="367.423" y2="361.094"/><linearGradient id="SVGID_00000177451887301431147460000014526245710433778856_" gradientTransform="matrix(1 0 0 -1 0 514)" gradientUnits="userSpaceOnUse" x1="135.359" x2="146.765" xlink:href="#lg2" y1="377.999" y2="341.643"/><linearGradient id="SVGID_00000165913456356603812120000003645140088936684940_" gradientTransform="matrix(1 0 0 -1 0 514)" gradientUnits="userSpaceOnUse" x1="141.99" x2="145.317" xlink:href="#lg3" y1="356.202" y2="345.271"/><linearGradient id="SVGID_00000176041143136645516900000008913420198445424293_" gradientTransform="matrix(1 0 0 -1 0 514)" gradientUnits="userSpaceOnUse" x1="105.547" x2="99.844" xlink:href="#lg2" y1="415.102" y2="365.201"/><linearGradient id="SVGID_00000181785401805822666290000009734297225431037080_" gradientTransform="matrix(1 0 0 -1 0 514)" gradientUnits="userSpaceOnUse" x1="106.008" x2="106.008" xlink:href="#lg3" y1="386.208" y2="371.618"/><linearGradient id="SVGID_00000132788075082208302760000007859634581881587076_" gradientTransform="matrix(-.975 .223 -.223 -.975 242.176 490.07)" gradientUnits="userSpaceOnUse" x1="-225.029" x2="-168.07" xlink:href="#lg1" y1="393.252" y2="273.005"/><linearGradient id="SVGID_00000111889536307902814840000000106021303781991102_" gradientTransform="matrix(-.975 .223 -.223 -.975 242.176 490.07)" gradientUnits="userSpaceOnUse" x1="-155.124" x2="-125.062" xlink:href="#lg2" y1="319.467" y2="296.262"/><linearGradient id="SVGID_00000116219660551892869040000002851029173676866191_" gradientTransform="matrix(-1 0 0 -1 201.672 514)" gradientUnits="userSpaceOnUse" x1="-107.394" x2="-92.661" xlink:href="#lg2" y1="357.309" y2="344.477"/><linearGradient id="SVGID_00000085939673382938772820000011434527441588637087_" gradientTransform="matrix(-1 0 0 -1 201.672 514)" gradientUnits="userSpaceOnUse" x1="-101.111" x2="-92.2" xlink:href="#lg3" y1="354.873" y2="350.833"/><linearGradient id="SVGID_00000055665602528279289780000016881624576823504564_" gradientTransform="matrix(-1 0 0 -1 201.672 514)" gradientUnits="userSpaceOnUse" x1="-209.124" x2="-234.549" xlink:href="#lg2" y1="455.897" y2="422.867"/><linearGradient id="SVGID_00000116235533170268594780000010128439579711390098_" gradientTransform="matrix(-1 0 0 -1 201.672 514)" gradientUnits="userSpaceOnUse" x1="-220.206" x2="-227.335" xlink:href="#lg3" y1="436.675" y2="425.269"/><linearGradient id="SVGID_00000170268683343416487790000014713633831272754577_" gradientTransform="matrix(-1 0 0 -1 201.672 514)" gradientUnits="userSpaceOnUse" x1="-138.954" x2="-123.033" xlink:href="#lg2" y1="357.212" y2="333.925"/><linearGradient id="SVGID_00000024712619807783475900000002103651411612956591_" gradientTransform="matrix(-.975 .223 -.223 -.975 242.176 490.07)" gradientUnits="userSpaceOnUse" x1="-159.305" x2="-147.438" xlink:href="#lg3" y1="298.104" y2="291.775"/><linearGradient id="SVGID_00000160172527605765432380000012971408472604336575_" gradientTransform="matrix(-1 0 0 -1 201.672 514)" gradientUnits="userSpaceOnUse" x1="-174.969" x2="-163.563" xlink:href="#lg2" y1="377.999" y2="341.643"/><linearGradient id="SVGID_00000033362780646400485250000009552544192071562893_" gradientTransform="matrix(-1 0 0 -1 201.672 514)" gradientUnits="userSpaceOnUse" x1="-168.338" x2="-165.011" xlink:href="#lg3" y1="356.202" y2="345.271"/><linearGradient id="SVGID_00000013153574421932124480000014054305067467644067_" gradientTransform="matrix(-1 0 0 -1 201.672 514)" gradientUnits="userSpaceOnUse" x1="-204.781" x2="-210.484" xlink:href="#lg2" y1="415.102" y2="365.201"/><linearGradient id="SVGID_00000077311756412572614740000004263690918120567179_" gradientTransform="matrix(-1 0 0 -1 201.672 514)" gradientUnits="userSpaceOnUse" x1="-204.32" x2="-204.32" xlink:href="#lg3" y1="386.208" y2="371.618"/><linearGradient id="lg4"><stop offset="0" stop-color="#fef0ae"/><stop offset="1" stop-color="#fac600"/></linearGradient><linearGradient id="SVGID_00000152942553058299764690000003184279886703993525_" gradientTransform="matrix(1 0 0 -1 0 514)" gradientUnits="userSpaceOnUse" x1="232.291" x2="281.462" xlink:href="#lg4" y1="478.681" y2="429.51"/><linearGradient id="lg5"><stop offset="0" stop-color="#fe9738" stop-opacity="0"/><stop offset=".1648" stop-color="#fe9637" stop-opacity=".012"/><stop offset=".2957" stop-color="#fe9535" stop-opacity=".052"/><stop offset=".415" stop-color="#fe9331" stop-opacity=".118"/><stop offset=".5274" stop-color="#fe902c" stop-opacity=".211"/><stop offset=".635" stop-color="#fe8c25" stop-opacity=".331"/><stop offset=".739" stop-color="#fe871d" stop-opacity=".479"/><stop offset=".8401" stop-color="#fe8213" stop-opacity=".655"/><stop offset=".9364" stop-color="#fe7b09" stop-opacity=".852"/><stop offset="1" stop-color="#fe7701"/></linearGradient><linearGradient id="SVGID_00000067930503933359112990000006269484432052472235_" gradientTransform="matrix(1 0 0 -1 0 514)" gradientUnits="userSpaceOnUse" x1="256" x2="256" xlink:href="#lg5" y1="447.91" y2="410.774"/><linearGradient id="SVGID_00000108270288270662000160000005937371542315259068_" gradientTransform="matrix(1 0 0 -1 0 514)" gradientUnits="userSpaceOnUse" x1="262.906" x2="300.093" xlink:href="#lg5" y1="454.972" y2="454.972"/><linearGradient id="lg6"><stop offset="0" stop-color="#fac600" stop-opacity="0"/><stop offset=".1175" stop-color="#fac602" stop-opacity=".017"/><stop offset=".2423" stop-color="#fac80b" stop-opacity=".067"/><stop offset=".3705" stop-color="#facc1a" stop-opacity=".151"/><stop offset=".5011" stop-color="#fbd12e" stop-opacity=".268"/><stop offset=".6336" stop-color="#fbd748" stop-opacity=".419"/><stop offset=".7676" stop-color="#fcdf69" stop-opacity=".604"/><stop offset=".9003" stop-color="#fde88e" stop-opacity=".819"/><stop offset="1" stop-color="#fef0ae"/></linearGradient><linearGradient id="SVGID_00000027600968781207839080000016142728504648076459_" gradientTransform="matrix(1 0 0 -1 0 514)" gradientUnits="userSpaceOnUse" x1="271.143" x2="292.778" xlink:href="#lg6" y1="439.83" y2="418.194"/><linearGradient id="SVGID_00000109013418424849101020000015150693974782492297_" gradientTransform="matrix(1 0 0 -1 0 514)" gradientUnits="userSpaceOnUse" x1="244.129" x2="269.092" y1="206.153" y2="206.153"><stop offset="0" stop-color="#f3faff"/><stop offset="1" stop-color="#d5daf3"/></linearGradient><linearGradient id="lg7"><stop offset="0" stop-color="#dbd5ef" stop-opacity="0"/><stop offset=".2667" stop-color="#d8d2ec" stop-opacity=".023"/><stop offset=".4431" stop-color="#d1c9e2" stop-opacity=".098"/><stop offset=".5933" stop-color="#c4b9d1" stop-opacity=".225"/><stop offset=".7288" stop-color="#b2a4ba" stop-opacity=".405"/><stop offset=".8545" stop-color="#9a889c" stop-opacity=".638"/><stop offset=".9713" stop-color="#7e6678" stop-opacity=".92"/><stop offset="1" stop-color="#765d6e"/></linearGradient><linearGradient id="SVGID_00000145781315446791773490000016773366598227360688_" gradientTransform="matrix(1 0 0 -1 0 514)" gradientUnits="userSpaceOnUse" x1="243.535" x2="278.306" xlink:href="#lg7" y1="206.153" y2="206.153"/><linearGradient id="SVGID_00000000907668777961457840000003170545932664309893_" gradientTransform="matrix(1 0 0 -1 0 514)" gradientUnits="userSpaceOnUse" x1="263.006" x2="252.55" xlink:href="#lg7" y1="96.297" y2="132.178"/><linearGradient id="SVGID_00000005986606476019290750000003493131055426481587_" gradientTransform="matrix(1 0 0 -1 0 514)" gradientUnits="userSpaceOnUse" x1="264.268" x2="250.189" xlink:href="#lg7" y1="166.175" y2="202.888"/><linearGradient id="SVGID_00000081618673168352632330000000661521542972855439_" gradientTransform="matrix(1 0 0 -1 0 514)" gradientUnits="userSpaceOnUse" x1="256" x2="256" xlink:href="#lg7" y1="334.168" y2="380.512"/><linearGradient id="SVGID_00000077288101315895017480000015775656839998273932_" gradientTransform="matrix(1 0 0 -1 0 514)" gradientUnits="userSpaceOnUse" x1="255.471" x2="223.036" xlink:href="#lg7" y1="269.072" y2="290.101"/><linearGradient id="SVGID_00000140700310162766107760000004249898993290735780_" gradientTransform="matrix(1 0 0 -1 0 514)" gradientUnits="userSpaceOnUse" x1="256" x2="256" xlink:href="#lg7" y1="40.941" y2="2.258"/><linearGradient id="SVGID_00000160876132967199259560000002172599390178843531_" gradientTransform="matrix(1 0 0 -1 0 514)" gradientUnits="userSpaceOnUse" x1="265.926" x2="260.579" y1="-1.355" y2="15.487"><stop offset="0" stop-color="#765d6e" stop-opacity="0"/><stop offset=".1517" stop-color="#765d6e" stop-opacity=".051"/><stop offset=".3551" stop-color="#765d6e" stop-opacity=".195"/><stop offset=".5879" stop-color="#765d6e" stop-opacity=".432"/><stop offset=".8404" stop-color="#765d6e" stop-opacity=".76"/><stop offset="1" stop-color="#765d6e"/></linearGradient><linearGradient id="SVGID_00000005244119023630322540000012484505611796253601_" gradientTransform="matrix(1 0 0 -1 0 514)" gradientUnits="userSpaceOnUse" x1="262.701" x2="252.245" xlink:href="#lg7" y1="37.984" y2="76.003"/><linearGradient id="SVGID_00000028327612380372735760000001401012527782559888_" gradientTransform="matrix(1 0 0 -1 0 514)" gradientUnits="userSpaceOnUse" x1="256" x2="256" xlink:href="#lg4" y1="397.593" y2="382.187"/><linearGradient id="SVGID_00000168814114542066678890000011311249842410843306_" gradientTransform="matrix(1 0 0 -1 0 514)" gradientUnits="userSpaceOnUse" x1="256" x2="256" xlink:href="#lg5" y1="392.296" y2="379.332"/><linearGradient id="SVGID_00000045607763744761064540000017809697723722983606_" gradientTransform="matrix(1 0 0 -1 0 514)" gradientUnits="userSpaceOnUse" x1="256" x2="256" xlink:href="#lg5" y1="385.673" y2="397.27"/><linearGradient id="SVGID_00000162324918274014370860000007747883469146288555_" gradientTransform="matrix(1 0 0 -1 0 514)" gradientUnits="userSpaceOnUse" x1="265.917" x2="295.613" xlink:href="#lg5" y1="390.668" y2="390.668"/><linearGradient id="SVGID_00000155130432865140215350000017362337234066099901_" gradientTransform="matrix(1 0 0 -1 0 514)" gradientUnits="userSpaceOnUse" x1="256" x2="256" xlink:href="#lg4" y1="416.149" y2="397.491"/><linearGradient id="SVGID_00000021117131520593789540000017279922374257540253_" gradientTransform="matrix(1 0 0 -1 0 514)" gradientUnits="userSpaceOnUse" x1="256" x2="256" xlink:href="#lg5" y1="409.733" y2="394.033"/><linearGradient id="SVGID_00000011747001610035125860000002066799291176011658_" gradientTransform="matrix(1 0 0 -1 0 514)" gradientUnits="userSpaceOnUse" x1="256" x2="256" xlink:href="#lg6" y1="405" y2="392.982"/><linearGradient id="SVGID_00000168797186746658238450000001654708861015760274_" gradientTransform="matrix(1 0 0 -1 0 514)" gradientUnits="userSpaceOnUse" x1="268.01" x2="303.973" xlink:href="#lg5" y1="407.762" y2="407.762"/><linearGradient id="lg8"><stop offset="0" stop-color="#c1e9af"/><stop offset=".1072" stop-color="#b6e4aa"/><stop offset=".2935" stop-color="#99d69e"/><stop offset=".5365" stop-color="#6bc18a"/><stop offset=".8238" stop-color="#2ca36f"/><stop offset="1" stop-color="#02905d"/></linearGradient><linearGradient id="SVGID_00000020396733674671814500000009092556160730382734_" gradientTransform="matrix(1 0 0 -1 0 514)" gradientUnits="userSpaceOnUse" x1="178.025" x2="235.411" xlink:href="#lg8" y1="311.526" y2="233.467"/><linearGradient id="lg9"><stop offset="0" stop-color="#026841" stop-opacity="0"/><stop offset=".2182" stop-color="#026841" stop-opacity=".033"/><stop offset=".4099" stop-color="#026841" stop-opacity=".137"/><stop offset=".5916" stop-color="#026841" stop-opacity=".31"/><stop offset=".7671" stop-color="#026841" stop-opacity=".553"/><stop offset=".9367" stop-color="#026841" stop-opacity=".864"/><stop offset="1" stop-color="#026841"/></linearGradient><linearGradient id="SVGID_00000095338730493453545440000017644533432374676877_" gradientTransform="matrix(1 0 0 -1 0 514)" gradientUnits="userSpaceOnUse" x1="189.98" x2="184.99" xlink:href="#lg9" y1="243.537" y2="221.795"/><linearGradient id="SVGID_00000010994181516822107850000013400024513100807605_" gradientTransform="matrix(1 0 0 -1 0 514)" gradientUnits="userSpaceOnUse" x1="208.034" x2="231.915" xlink:href="#lg9" y1="238.32" y2="229.766"/><linearGradient id="SVGID_00000034775909697380067870000009607283616806980259_" gradientTransform="matrix(1 0 0 -1 0 514)" gradientUnits="userSpaceOnUse" x1="262.955" x2="293.965" xlink:href="#lg8" y1="54.505" y2="34.188"/><linearGradient id="SVGID_00000049184844931339637340000007723828851926902942_" gradientTransform="matrix(1 0 0 -1 0 514)" gradientUnits="userSpaceOnUse" x1="270.755" x2="272.715" xlink:href="#lg9" y1="27.487" y2="15.368"/><linearGradient id="lg10"><stop offset="0" stop-color="#c1e9af" stop-opacity="0"/><stop offset=".1414" stop-color="#c1e9af" stop-opacity=".016"/><stop offset=".2738" stop-color="#c1e9af" stop-opacity=".065"/><stop offset=".4027" stop-color="#c1e9af" stop-opacity=".146"/><stop offset=".5294" stop-color="#c1e9af" stop-opacity=".26"/><stop offset=".6545" stop-color="#c1e9af" stop-opacity=".408"/><stop offset=".7785" stop-color="#c1e9af" stop-opacity=".589"/><stop offset=".8992" stop-color="#c1e9af" stop-opacity=".799"/><stop offset="1" stop-color="#c1e9af"/></linearGradient><linearGradient id="SVGID_00000067216511898334087130000014797251396069639581_" gradientTransform="matrix(1 0 0 -1 0 514)" gradientUnits="userSpaceOnUse" x1="270.326" x2="270.326" xlink:href="#lg10" y1="22.406" y2="11.71"/><linearGradient id="SVGID_00000025412180940956642220000010290858806798993084_" gradientTransform="matrix(1 0 0 -1 0 514)" gradientUnits="userSpaceOnUse" x1="278.152" x2="302.033" xlink:href="#lg9" y1="56.74" y2="53.888"/><linearGradient id="SVGID_00000121268049162195346990000009869383530400711610_" gradientTransform="matrix(1 0 0 -1 0 514)" gradientUnits="userSpaceOnUse" x1="283.299" x2="277.418" xlink:href="#lg9" y1="65.865" y2="82.083"/><linearGradient id="SVGID_00000083051101854504712060000002446206587753912227_" gradientTransform="matrix(1 0 0 -1 0 514)" gradientUnits="userSpaceOnUse" x1="248.445" x2="287.653" xlink:href="#lg8" y1="130.432" y2="71.62"/><linearGradient id="SVGID_00000041976305188558406170000003864086192956248744_" gradientTransform="matrix(1 0 0 -1 0 514)" gradientUnits="userSpaceOnUse" x1="299.143" x2="339.064" xlink:href="#lg9" y1="113.845" y2="98.518"/><linearGradient id="SVGID_00000017508831083928324510000012174820994663737765_" gradientTransform="matrix(1 0 0 -1 0 514)" gradientUnits="userSpaceOnUse" x1="306.556" x2="294.437" xlink:href="#lg9" y1="124.945" y2="150.608"/><linearGradient id="SVGID_00000093885477609243329740000009669266373505264029_" gradientTransform="matrix(1 0 0 -1 0 514)" gradientUnits="userSpaceOnUse" x1="231.227" x2="246.02" xlink:href="#lg9" y1="51.836" y2="35.974"/><linearGradient id="SVGID_00000085968224440134434390000006352955980814687147_" gradientTransform="matrix(1 0 0 -1 0 514)" gradientUnits="userSpaceOnUse" x1="227.201" x2="259.637" xlink:href="#lg8" y1="180.468" y2="125.577"/><linearGradient id="SVGID_00000123417251333171819770000011078935340995861418_" gradientTransform="matrix(1 0 0 -1 0 514)" gradientUnits="userSpaceOnUse" x1="215.364" x2="226.414" xlink:href="#lg9" y1="113.022" y2="90.566"/><linearGradient id="SVGID_00000012463418753744199300000000566750941162883497_" gradientTransform="matrix(1 0 0 -1 0 514)" gradientUnits="userSpaceOnUse" x1="276.858" x2="310.719" xlink:href="#lg9" y1="172.605" y2="159.06"/><linearGradient id="SVGID_00000077312102366005206790000017891399348155056518_" gradientTransform="matrix(1 0 0 -1 0 514)" gradientUnits="userSpaceOnUse" x1="282.874" x2="294.28" xlink:href="#lg10" y1="157.652" y2="144.82"/><linearGradient id="SVGID_00000057145279719296002650000018193148251736648096_" gradientTransform="matrix(1 0 0 -1 0 514)" gradientUnits="userSpaceOnUse" x1="284.057" x2="276.216" xlink:href="#lg9" y1="187.239" y2="213.259"/><linearGradient id="SVGID_00000127019150219838467050000006142737110236193701_" gradientTransform="matrix(1 0 0 -1 0 514)" gradientUnits="userSpaceOnUse" x1="219.922" x2="322.1" xlink:href="#lg8" y1="289.785" y2="184.755"/><linearGradient id="SVGID_00000141441479581157186010000005969432963971776142_" gradientTransform="matrix(1 0 0 -1 0 514)" gradientUnits="userSpaceOnUse" x1="240.99" x2="246.336" xlink:href="#lg9" y1="183.101" y2="161.359"/><linearGradient id="SVGID_00000056389835718525439110000010414167133946263202_" gradientTransform="matrix(1 0 0 -1 0 514)" gradientUnits="userSpaceOnUse" x1="223.416" x2="234.228" xlink:href="#lg9" y1="171.873" y2="166.764"/><linearGradient id="SVGID_00000120541145003117381330000007209583034022842257_" gradientTransform="matrix(1 0 0 -1 0 514)" gradientUnits="userSpaceOnUse" x1="314.899" x2="364.8" xlink:href="#lg9" y1="267.485" y2="248.95"/><linearGradient id="SVGID_00000013191094847300964400000009701164367961144733_" gradientTransform="matrix(1 0 0 -1 0 514)" gradientUnits="userSpaceOnUse" x1="293.159" x2="280.328" xlink:href="#lg9" y1="297.776" y2="284.707"/><linearGradient id="lg11"><stop offset="0" stop-color="#7a6d79"/><stop offset="1" stop-color="#593636"/></linearGradient><linearGradient id="SVGID_00000021081312425176803300000014256501848615073676_" gradientTransform="matrix(1 0 0 -1 0 514)" gradientUnits="userSpaceOnUse" x1="298.416" x2="305.872" xlink:href="#lg11" y1="320.337" y2="312.88"/><linearGradient id="SVGID_00000109015332379028271930000005619827572128530365_" gradientTransform="matrix(1 0 0 -1 0 514)" gradientUnits="userSpaceOnUse" x1="206.455" x2="213.912" xlink:href="#lg11" y1="320.337" y2="312.88"/><linearGradient id="SVGID_00000015352956413751717310000007574360434674807188_" gradientTransform="matrix(1 0 0 -1 0 514)" gradientUnits="userSpaceOnUse" x1="291.302" x2="297.242" xlink:href="#lg10" y1="91.233" y2="77.451"/><linearGradient id="SVGID_00000118395484903204491850000003267016771090341760_" gradientTransform="matrix(1 0 0 -1 0 514)" gradientUnits="userSpaceOnUse" x1="213.274" x2="238.462" xlink:href="#lg9" y1="303.363" y2="288.868"/><linearGradient id="SVGID_00000031918524037909093880000008966661998938468745_" gradientTransform="matrix(1 0 0 -1 0 514)" gradientUnits="userSpaceOnUse" x1="221.898" x2="234.255" xlink:href="#lg10" y1="298.058" y2="289.741"/><g><g><g><path d="m212.755 121.514-.002-.007-.011-.002c-15.128-10.896-27.407-25.114-36.006-41.349-4.394-8.295-12.679-13.697-22.004-14.77-6.229-.716-12.165-2.237-17.568-4.118-14.314-4.983-27.171-13.416-37.782-24.238-10.142-10.341-19.289-21.689-27.285-33.903-1.776-2.713-4.808-3.578-7.465-2.914-2.413.604-4.516 2.469-5.086 5.359l-2.91 14.75c-3.576 18.125.638 36.918 11.609 51.781 2.649 3.588 5.634 6.868 8.898 9.808-7.945-3.551-15.696-7.578-23.203-12.081-2.5-1.499-5.268-1.177-7.3.213-2.198 1.504-3.534 4.259-2.735 7.311l3.736 14.266c4.591 17.53 16.343 32.321 32.383 40.754 5.854 3.078 12.087 5.201 18.473 6.363-3.338.419-6.692.749-10.06.979-2.434.166-4.165 1.744-4.846 3.689-.704 2.009-.288 4.408 1.63 6.045l9.169 7.823c11.267 9.613 26.059 14.044 40.755 12.208 2.364-.295 4.686-.762 6.963-1.365-1.299.812-2.611 1.606-3.937 2.378-1.78 1.036-2.481 2.891-2.238 4.613s1.43 3.311 3.427 3.815l9.704 2.448c11.924 3.008 24.563.862 34.826-5.913 1.493-.985 2.906-2.066 4.254-3.213-.432.763-.865 1.525-1.317 2.278-1.865 2.265.263 5.593 3.101 4.849l7.174-1.879c8.267-2.165 15.242-7.707 19.219-15.271.084-.159.158-.322.238-.482 22.313-3.566 36.324-17.373 38.977-20.184.153-.17.312-.333.463-.504-16.078-3.692-30.645-10.466-43.244-19.537z" fill="url(#SVGID_1_)"/><path d="m212.753 121.507-.011-.002c-15.128-10.896-27.407-25.114-36.006-41.349-.116-.219-.246-.427-.367-.642l-23.517 102.623c10.772 1.725 21.856-.618 31.038-6.679 1.493-.985 2.906-2.066 4.254-3.213-.432.763-.865 1.525-1.317 2.278-1.865 2.265.263 5.593 3.101 4.849l7.174-1.879c8.267-2.165 15.242-7.707 19.219-15.271.084-.159.158-.322.238-.482 22.313-3.566 36.324-17.373 38.977-20.184.153-.17.312-.333.463-.504-16.079-3.693-30.646-10.466-43.245-19.537z" fill="url(#SVGID_00000147922955641655773260000000985803883676661158_)"/><path d="m186.827 174.523c.429-.715.84-1.438 1.25-2.163.025-.038.051-.07.075-.111 7.448-13.173 11.884-27.819 13.026-42.889 1.92.537 3.867 1.036 5.843 1.489 3.132.718 6.249 1.304 9.343 1.772l1.964 6.046c2.478 7.628 1.841 15.919-1.757 23.071-.004.001-.007.001-.011.002-.081.16-.155.323-.238.482-3.977 7.564-10.952 13.106-19.219 15.271l-7.174 1.879c-2.84.744-4.968-2.584-3.102-4.849z" fill="url(#SVGID_00000143612946482149403180000001146397920859192485_)"/><path d="m186.827 174.523c.429-.715.84-1.438 1.25-2.163.025-.038.051-.07.075-.111 7.448-13.173 11.884-27.819 13.026-42.889 1.92.537 3.867 1.036 5.843 1.489 3.132.718 6.249 1.304 9.343 1.772l1.964 6.046c2.478 7.628 1.841 15.919-1.757 23.071-.004.001-.007.001-.011.002-.081.16-.155.323-.238.482-3.977 7.564-10.952 13.106-19.219 15.271l-7.174 1.879c-2.84.744-4.968-2.584-3.102-4.849z" fill="url(#SVGID_00000013903841695052323160000011330890582799647379_)"/><path d="m136.044 67.178c-25.409-16.7-47.202-38.475-63.948-64.048-1.062-1.625-2.572-2.586-4.181-2.954-3.534-.81-7.546 1.231-8.372 5.398l-2.909 14.749c-3.57 18.127.64 36.92 11.609 51.783 2.653 3.591 5.649 6.881 8.921 9.824 23.498 10.503 48.724 16.767 74.501 18.489-9.265-10.133-14.88-21.649-15.621-33.241z" fill="url(#SVGID_00000137854633467553667070000012065121844733163433_)"/><path d="m136.044 67.178c-25.409-16.7-47.202-38.475-63.948-64.048-1.062-1.625-2.572-2.586-4.181-2.954-3.534-.81-7.546 1.231-8.372 5.398l-2.909 14.749c-3.57 18.127.64 36.92 11.609 51.783 2.653 3.591 5.649 6.881 8.921 9.824 23.498 10.503 48.724 16.767 74.501 18.489-9.265-10.133-14.88-21.649-15.621-33.241z" fill="url(#SVGID_00000006684229722054564640000007287314056839672251_)"/><path d="m187.001 124.453c-12.521 18.848-29.21 34.617-48.829 46.043-1.192.698-1.907 1.764-2.17 2.911-.519 2.264.704 4.844 3.359 5.513l9.7 2.451c11.926 3.006 24.568.864 34.828-5.916 1.485-.981 2.905-2.044 4.244-3.187 7.463-13.176 11.905-27.826 13.048-42.907-4.927-1.378-9.665-3.024-14.18-4.908z" fill="url(#SVGID_00000044893558066196109640000015179330317744149438_)"/><path d="m187.001 124.453c-12.521 18.848-29.21 34.617-48.829 46.043-1.192.698-1.907 1.764-2.17 2.911-.519 2.264.704 4.844 3.359 5.513l9.7 2.451c11.926 3.006 24.568.864 34.828-5.916 1.485-.981 2.905-2.044 4.244-3.187 7.463-13.176 11.905-27.826 13.048-42.907-4.927-1.378-9.665-3.024-14.18-4.908z" fill="url(#SVGID_00000154402508423158305270000006031605600125851549_)"/><path d="m168.343 114.54c-24.231 14.6-51.614 23.244-79.905 25.174-2.683.182-4.516 2.085-5.025 4.306-.428 1.868.08 3.957 1.807 5.431l9.167 7.824c11.27 9.611 26.064 14.041 40.761 12.21 2.352-.296 4.666-.752 6.935-1.348 17.931-11.192 33.238-26.096 44.919-43.683-6.754-2.817-13.009-6.161-18.659-9.914z" fill="url(#SVGID_00000177451887301431147460000014526245710433778856_)"/><path d="m168.343 114.54c-24.231 14.6-51.614 23.244-79.905 25.174-2.683.182-4.516 2.085-5.025 4.306-.428 1.868.08 3.957 1.807 5.431l9.167 7.824c11.27 9.611 26.064 14.041 40.761 12.21 2.352-.296 4.666-.752 6.935-1.348 17.931-11.192 33.238-26.096 44.919-43.683-6.754-2.817-13.009-6.161-18.659-9.914z" fill="url(#SVGID_00000165913456356603812120000003645140088936684940_)"/><path d="m151.669 100.423c-34.498-2.3-68.005-12.764-97.728-30.593-.661-.394-1.343-.664-2.021-.82-4.673-1.071-9.359 3.214-8.014 8.342l3.736 14.268c4.59 17.53 16.342 32.321 32.382 40.756 4.978 2.621 10.221 4.551 15.607 5.785.937.215 1.88.408 2.827.58 24.72-3.088 48.529-11.333 69.883-24.2-6.383-4.241-11.992-9.002-16.672-14.118z" fill="url(#SVGID_00000176041143136645516900000008913420198445424293_)"/><path d="m151.669 100.423c-34.498-2.3-68.005-12.764-97.728-30.593-.661-.394-1.343-.664-2.021-.82-4.673-1.071-9.359 3.214-8.014 8.342l3.736 14.268c4.59 17.53 16.342 32.321 32.382 40.756 4.978 2.621 10.221 4.551 15.607 5.785.937.215 1.88.408 2.827.58 24.72-3.088 48.529-11.333 69.883-24.2-6.383-4.241-11.992-9.002-16.672-14.118z" fill="url(#SVGID_00000181785401805822666290000009734297225431037080_)"/></g><g><path d="m299.245 121.514.002-.007.011-.002c15.128-10.896 27.407-25.114 36.006-41.349 4.394-8.295 12.679-13.697 22.004-14.77 6.229-.716 12.165-2.237 17.568-4.118 14.314-4.983 27.171-13.416 37.782-24.238 10.142-10.342 19.289-21.69 27.284-33.904 1.776-2.713 4.808-3.578 7.465-2.914 2.413.604 4.516 2.469 5.086 5.359l2.91 14.75c3.576 18.125-.638 36.918-11.609 51.781-2.648 3.588-5.634 6.868-8.898 9.808 7.945-3.551 15.696-7.578 23.203-12.081 2.5-1.499 5.268-1.177 7.3.213 2.198 1.504 3.534 4.259 2.735 7.311l-3.736 14.266c-4.591 17.53-16.343 32.321-32.383 40.754-5.854 3.078-12.087 5.201-18.473 6.363 3.338.419 6.692.749 10.06.979 2.434.166 4.165 1.744 4.846 3.689.704 2.009.288 4.408-1.63 6.045l-9.169 7.823c-11.267 9.613-26.059 14.044-40.755 12.208-2.364-.295-4.686-.762-6.963-1.365 1.299.812 2.611 1.606 3.937 2.378 1.78 1.036 2.481 2.891 2.238 4.613s-1.43 3.311-3.427 3.815l-9.704 2.448c-11.924 3.008-24.563.862-34.826-5.913-1.493-.985-2.906-2.066-4.254-3.213.432.763.865 1.525 1.317 2.278 1.865 2.265-.263 5.593-3.101 4.849l-7.174-1.879c-8.267-2.165-15.242-7.707-19.219-15.271-.084-.159-.158-.322-.238-.482-22.313-3.566-36.324-17.373-38.977-20.184-.153-.17-.312-.333-.463-.504 16.079-3.691 30.646-10.465 43.245-19.536z" fill="url(#SVGID_00000132788075082208302760000007859634581881587076_)"/><path d="m299.247 121.507.011-.002c15.128-10.896 27.407-25.114 36.006-41.349.116-.219.246-.427.367-.642l23.517 102.623c-10.772 1.725-21.856-.618-31.038-6.679-1.493-.985-2.906-2.066-4.254-3.213.432.763.865 1.525 1.317 2.278 1.865 2.265-.263 5.593-3.101 4.849l-7.174-1.879c-8.267-2.165-15.242-7.707-19.219-15.271-.084-.159-.158-.322-.238-.482-22.313-3.566-36.324-17.373-38.977-20.184-.153-.17-.312-.333-.463-.504 16.079-3.693 30.646-10.466 43.245-19.537z" fill="url(#SVGID_00000111889536307902814840000000106021303781991102_)"/><path d="m325.173 174.523c-.429-.715-.84-1.438-1.25-2.163-.025-.038-.051-.07-.075-.111-7.448-13.173-11.884-27.819-13.026-42.889-1.92.537-3.867 1.036-5.843 1.489-3.132.718-6.249 1.304-9.343 1.772l-1.964 6.046c-2.478 7.628-1.841 15.919 1.757 23.071.004.001.007.001.011.002.081.16.155.323.238.482 3.977 7.564 10.952 13.106 19.219 15.271l7.174 1.879c2.84.744 4.968-2.584 3.102-4.849z" fill="url(#SVGID_00000116219660551892869040000002851029173676866191_)"/><path d="m325.173 174.523c-.429-.715-.84-1.438-1.25-2.163-.025-.038-.051-.07-.075-.111-7.448-13.173-11.884-27.819-13.026-42.889-1.92.537-3.867 1.036-5.843 1.489-3.132.718-6.249 1.304-9.343 1.772l-1.964 6.046c-2.478 7.628-1.841 15.919 1.757 23.071.004.001.007.001.011.002.081.16.155.323.238.482 3.977 7.564 10.952 13.106 19.219 15.271l7.174 1.879c2.84.744 4.968-2.584 3.102-4.849z" fill="url(#SVGID_00000085939673382938772820000011434527441588637087_)"/><path d="m375.956 67.178c25.409-16.7 47.202-38.475 63.948-64.048 1.062-1.625 2.572-2.586 4.181-2.954 3.534-.81 7.546 1.231 8.372 5.398l2.909 14.749c3.57 18.127-.64 36.92-11.609 51.783-2.653 3.591-5.649 6.881-8.921 9.824-23.498 10.503-48.724 16.767-74.501 18.489 9.265-10.133 14.88-21.649 15.621-33.241z" fill="url(#SVGID_00000055665602528279289780000016881624576823504564_)"/><path d="m375.956 67.178c25.409-16.7 47.202-38.475 63.948-64.048 1.062-1.625 2.572-2.586 4.181-2.954 3.534-.81 7.546 1.231 8.372 5.398l2.909 14.749c3.57 18.127-.64 36.92-11.609 51.783-2.653 3.591-5.649 6.881-8.921 9.824-23.498 10.503-48.724 16.767-74.501 18.489 9.265-10.133 14.88-21.649 15.621-33.241z" fill="url(#SVGID_00000116235533170268594780000010128439579711390098_)"/><path d="m324.999 124.453c12.521 18.848 29.21 34.617 48.829 46.043 1.192.698 1.907 1.764 2.17 2.911.519 2.264-.704 4.844-3.359 5.513l-9.7 2.451c-11.926 3.006-24.568.864-34.828-5.916-1.485-.981-2.905-2.044-4.244-3.187-7.463-13.176-11.905-27.826-13.048-42.907 4.927-1.378 9.665-3.024 14.18-4.908z" fill="url(#SVGID_00000170268683343416487790000014713633831272754577_)"/><path d="m324.999 124.453c12.521 18.848 29.21 34.617 48.829 46.043 1.192.698 1.907 1.764 2.17 2.911.519 2.264-.704 4.844-3.359 5.513l-9.7 2.451c-11.926 3.006-24.568.864-34.828-5.916-1.485-.981-2.905-2.044-4.244-3.187-7.463-13.176-11.905-27.826-13.048-42.907 4.927-1.378 9.665-3.024 14.18-4.908z" fill="url(#SVGID_00000024712619807783475900000002103651411612956591_)"/><path d="m343.657 114.54c24.231 14.6 51.614 23.244 79.905 25.174 2.683.182 4.516 2.085 5.025 4.306.428 1.868-.08 3.957-1.807 5.431l-9.167 7.824c-11.27 9.611-26.064 14.041-40.761 12.21-2.352-.296-4.666-.752-6.935-1.348-17.931-11.192-33.238-26.096-44.919-43.683 6.754-2.817 13.009-6.161 18.659-9.914z" fill="url(#SVGID_00000160172527605765432380000012971408472604336575_)"/><path d="m343.657 114.54c24.231 14.6 51.614 23.244 79.905 25.174 2.683.182 4.516 2.085 5.025 4.306.428 1.868-.08 3.957-1.807 5.431l-9.167 7.824c-11.27 9.611-26.064 14.041-40.761 12.21-2.352-.296-4.666-.752-6.935-1.348-17.931-11.192-33.238-26.096-44.919-43.683 6.754-2.817 13.009-6.161 18.659-9.914z" fill="url(#SVGID_00000033362780646400485250000009552544192071562893_)"/><path d="m360.331 100.423c34.497-2.3 68.005-12.764 97.728-30.593.661-.394 1.343-.664 2.021-.82 4.673-1.071 9.359 3.214 8.014 8.342l-3.736 14.268c-4.59 17.53-16.342 32.321-32.382 40.756-4.978 2.621-10.221 4.551-15.607 5.785-.937.215-1.88.408-2.827.58-24.72-3.088-48.529-11.333-69.883-24.2 6.383-4.241 11.992-9.002 16.672-14.118z" fill="url(#SVGID_00000013153574421932124480000014054305067467644067_)"/><path d="m360.331 100.423c34.497-2.3 68.005-12.764 97.728-30.593.661-.394 1.343-.664 2.021-.82 4.673-1.071 9.359 3.214 8.014 8.342l-3.736 14.268c-4.59 17.53-16.342 32.321-32.382 40.756-4.978 2.621-10.221 4.551-15.607 5.785-.937.215-1.88.408-2.827.58-24.72-3.088-48.529-11.333-69.883-24.2 6.383-4.241 11.992-9.002 16.672-14.118z" fill="url(#SVGID_00000077311756412572614740000004263690918120567179_)"/></g></g><g><g><circle cx="256" cy="59.028" fill="url(#SVGID_00000152942553058299764690000003184279886703993525_)" r="43.82"/><path d="m212.18 59.028c0 24.201 19.619 43.82 43.82 43.82s43.82-19.619 43.82-43.82c0-1.212-.051-2.411-.148-3.598h-87.344c-.096 1.187-.148 2.386-.148 3.598z" fill="url(#SVGID_00000067930503933359112990000006269484432052472235_)"/><path d="m256 15.208c-2.823 0-5.582.27-8.257.78v86.079c2.674.51 5.434.78 8.257.78 24.201 0 43.82-19.619 43.82-43.82 0-24.2-19.619-43.819-43.82-43.819z" fill="url(#SVGID_00000108270288270662000160000005937371542315259068_)"/><path d="m286.801 27.862-61.966 61.966c7.944 8.037 18.972 13.019 31.166 13.019 24.201 0 43.82-19.619 43.82-43.82-.001-12.193-4.983-23.221-13.02-31.165z" fill="url(#SVGID_00000027600968781207839080000016142728504648076459_)"/></g><g><path d="m229.376 103.695 9.258 391.345c.223 9.431 7.932 16.96 17.366 16.96s17.143-7.529 17.366-16.96l9.258-391.345z" fill="url(#SVGID_00000109013418424849101020000015150693974782492297_)"/><path d="m241.99 504.876c3.164 4.318 8.261 7.124 14.01 7.124 9.434 0 17.143-7.529 17.366-16.96l9.258-391.345h-40.634z" fill="url(#SVGID_00000145781315446791773490000016773366598227360688_)"/><path d="m236.906 422.012c5.622 2.589 12.138 4.078 19.094 4.078s13.472-1.489 19.094-4.078l1.241-52.444c-5.894-2.957-12.861-4.672-20.334-4.672s-14.441 1.716-20.334 4.672z" fill="url(#SVGID_00000000907668777961457840000003170545932664309893_)"/><path d="m235.378 357.42c6.107 2.715 13.136 4.268 20.622 4.268s14.514-1.552 20.622-4.268l1.388-58.69c-6.419-3.113-13.952-4.906-22.01-4.906s-15.591 1.793-22.01 4.906z" fill="url(#SVGID_00000005986606476019290750000003493131055426481587_)"/><path d="m232.428 232.703h47.144l3.052-129.008h-53.248z" fill="url(#SVGID_00000081618673168352632330000000661521542972855439_)"/><path d="m231.669 200.61 1.947 82.296h44.768l1.475-62.33-34.078-34.078z" fill="url(#SVGID_00000077288101315895017480000015775656839998273932_)"/><path d="m237.361 441.218 1.273 53.822c.223 9.431 7.932 16.96 17.366 16.96s17.143-7.529 17.366-16.96l1.273-53.822z" fill="url(#SVGID_00000140700310162766107760000004249898993290735780_)"/><path d="m244.903 498.458 13.376 13.376c8.364-1.099 14.883-8.136 15.088-16.794l.123-5.188z" fill="url(#SVGID_00000160876132967199259560000002172599390178843531_)"/><path d="m238.297 480.812c5.296 2.21 11.314 3.466 17.703 3.466s12.407-1.256 17.703-3.466l1.27-53.705c-5.595-2.555-12.067-4.022-18.973-4.022s-13.378 1.468-18.973 4.022z" fill="url(#SVGID_00000005244119023630322540000012484505611796253601_)"/></g><g><path d="m230.273 112.875h51.453c5.775 0 10.457 4.682 10.457 10.457 0 5.775-4.682 10.457-10.457 10.457h-51.453c-5.775 0-10.457-4.682-10.457-10.457 0-5.775 4.682-10.457 10.457-10.457z" fill="url(#SVGID_00000028327612380372735760000001401012527782559888_)"/><path d="m230.273 112.875h51.453c5.775 0 10.457 4.682 10.457 10.457 0 5.775-4.682 10.457-10.457 10.457h-51.453c-5.775 0-10.457-4.682-10.457-10.457 0-5.775 4.682-10.457 10.457-10.457z" fill="url(#SVGID_00000168814114542066678890000011311249842410843306_)"/><path d="m230.273 112.875h51.453c5.775 0 10.457 4.682 10.457 10.457 0 5.775-4.682 10.457-10.457 10.457h-51.453c-5.775 0-10.457-4.682-10.457-10.457 0-5.775 4.682-10.457 10.457-10.457z" fill="url(#SVGID_00000045607763744761064540000017809697723722983606_)"/><path d="m281.727 112.875h-28.84v20.915h28.84c5.775 0 10.457-4.682 10.457-10.457 0-5.776-4.682-10.458-10.457-10.458z" fill="url(#SVGID_00000162324918274014370860000007747883469146288555_)"/></g><g><path d="m224.844 93.574h62.311c6.994 0 12.664 5.67 12.664 12.664 0 6.994-5.67 12.664-12.664 12.664h-62.311c-6.994 0-12.664-5.67-12.664-12.664 0-6.994 5.67-12.664 12.664-12.664z" fill="url(#SVGID_00000155130432865140215350000017362337234066099901_)"/><path d="m224.844 93.574h62.311c6.994 0 12.664 5.67 12.664 12.664 0 6.994-5.67 12.664-12.664 12.664h-62.311c-6.994 0-12.664-5.67-12.664-12.664 0-6.994 5.67-12.664 12.664-12.664z" fill="url(#SVGID_00000021117131520593789540000017279922374257540253_)"/><path d="m224.844 93.574h62.311c6.994 0 12.664 5.67 12.664 12.664 0 6.994-5.67 12.664-12.664 12.664h-62.311c-6.994 0-12.664-5.67-12.664-12.664 0-6.994 5.67-12.664 12.664-12.664z" fill="url(#SVGID_00000011747001610035125860000002066799291176011658_)"/><path d="m287.156 93.574h-34.927v25.328h34.927c6.994 0 12.664-5.67 12.664-12.664s-5.67-12.664-12.664-12.664z" fill="url(#SVGID_00000168797186746658238450000001654708861015760274_)"/></g></g><g><path d="m169.08 283.33c-7.09-2.62-25.92-9.57-25.92-27.33 0-22.12 18.84-37.57 31.03-45.25 6.38-4.02 10.91-10.38 12.61-17.72 1.77-7.58 8.53-12.89 16.23-12.89.31 0 .63.01.95.03l27.24 1.57 4.73.27c7.02.4 12.81 5.65 13.91 12.6.12.77.18 1.55.18 2.32 0 4.28-1.84 8.4-5.12 11.26l-12.81 11.17-12.38 10.81c-4.78 4.18-10.85 6.59-17.19 6.85-5.61.23-9.66 4.95-9.66 9.94 0 1.74.49 3.5 1.57 5.12 1.28 1.92 3.24 3.44 5.85 4.13 4.64 1.23 9.33 2.41 13.57 3.48 6.29 1.59 12.79 3.24 19.32 5l.86 36.58c-9.54-2.79-19.46-5.29-28.76-7.64-13.59-3.44-26.44-6.69-36.21-10.3z" fill="url(#SVGID_00000020396733674671814500000009092556160730382734_)"/><path d="m197.844 238.406h-50.514c-2.565 5.282-4.17 11.153-4.17 17.594 0 17.76 18.83 24.71 25.92 27.33 9.77 3.61 22.62 6.86 36.21 10.3 9.3 2.35 19.22 4.85 28.76 7.64l-.86-36.58c-6.53-1.76-13.03-3.41-19.32-5-4.24-1.07-8.93-2.25-13.57-3.48-2.61-.69-4.57-2.21-5.85-4.13-1.08-1.62-1.57-3.38-1.57-5.12 0-3.442 1.928-6.754 4.964-8.554z" fill="url(#SVGID_00000095338730493453545440000017644533432374676877_)"/><path d="m213.87 259.69c-4.24-1.07-8.93-2.25-13.57-3.48-2.297-.607-4.09-1.858-5.359-3.458v38.239c3.374.873 6.836 1.75 10.349 2.639 9.3 2.35 19.22 4.85 28.76 7.64l-.86-36.58c-6.53-1.76-13.03-3.41-19.32-5z" fill="url(#SVGID_00000010994181516822107850000013400024513100807605_)"/></g><g><path d="m300.85 443.19c4.23 17.07-1.15 28.99-6.41 35.98-5.56 7.38-13.29 12.32-21.06 15.63-8.085 3.44-16.218 5.115-21.998 5.929-4.248.598-8.126-2.481-8.514-6.753-.345-3.802 2.219-7.237 5.954-8.025 6.376-1.345 15.289-4.537 21.338-11.721 1.79-2.13 3.07-4.46 3.86-6.9l.01-.01c1.29-3.93 1.33-8.11.28-12.01l.89-37.54c12.93 5.68 22.64 13.28 25.65 25.42z" fill="url(#SVGID_00000034775909697380067870000009607283616806980259_)"/><path d="m270.464 473.832c-.105.131-.195.268-.304.398-6.049 7.184-14.962 10.376-21.338 11.721-3.735.788-6.299 4.223-5.954 8.025.388 4.272 4.266 7.351 8.514 6.753 5.78-.813 13.913-2.488 21.998-5.929 7.77-3.31 15.5-8.25 21.06-15.63 1.156-1.536 2.311-3.324 3.375-5.338z" fill="url(#SVGID_00000049184844931339637340000007723828851926902942_)"/><path d="m270.464 473.832c-.105.131-.195.268-.304.398-6.049 7.184-14.962 10.376-21.338 11.721-3.735.788-6.299 4.223-5.954 8.025.388 4.272 4.266 7.351 8.514 6.753 5.78-.813 13.913-2.488 21.998-5.929 7.77-3.31 15.5-8.25 21.06-15.63 1.156-1.536 2.311-3.324 3.375-5.338z" fill="url(#SVGID_00000067216511898334087130000014797251396069639581_)"/><path d="m275.2 417.77-.89 37.54c1.05 3.9 1.01 8.08-.28 12.01l-.01.01c-.594 1.835-1.467 3.608-2.624 5.281v22.981c.661-.258 1.322-.51 1.984-.792 7.77-3.31 15.5-8.25 21.06-15.63 5.26-6.99 10.64-18.91 6.41-35.98-3.01-12.14-12.72-19.74-25.65-25.42z" fill="url(#SVGID_00000025412180940956642220000010290858806798993084_)"/><path d="m275.2 417.77-.89 37.54c1.05 3.9 1.01 8.08-.28 12.01l-.01.01c-.446 1.378-1.067 2.715-1.829 4.007h26.839c3.063-6.957 4.753-16.312 1.82-28.147-3.01-12.14-12.72-19.74-25.65-25.42z" fill="url(#SVGID_00000121268049162195346990000009869383530400711610_)"/></g><g><path d="m344.93 392.39c0 13.69-9.85 23.39-27.59 29.58-12.36 4.32-28.1 7.56-42.51 11.18-9.2 2.31-17.85 4.78-24.73 7.77-6.44 2.8-10.77 8.26-12.41 14.39-1.05 3.9-1.01 8.08.28 12.01l.65 27.48c-7.77-3.31-15.5-8.25-21.06-15.63-5.26-6.99-10.64-18.91-6.41-35.98 3.01-12.14 12.72-19.74 25.65-25.42 10.13-4.44 22.24-7.71 34.64-11.07 1.22-.33 2.55-.69 3.96-1.07.03-.01.05-.02.08-.03 8.93-2.51 9.15-15.04.43-17.92l.86-36.31c2.99.92 5.88 1.78 8.6 2.59 12.63 3.78 24.56 7.34 34.1 11.88 15.65 7.47 25.46 13.95 25.46 26.55z" fill="url(#SVGID_00000083051101854504712060000002446206587753912227_)"/><path d="m319.47 365.84c-9.54-4.54-21.47-8.1-34.1-11.88-2.72-.81-5.61-1.67-8.6-2.59l-.86 36.31c8.72 2.88 8.5 15.41-.43 17.92-.03.01-.05.02-.08.03-.261.07-.505.136-.761.205v27.363c.064-.016.127-.033.191-.049 14.41-3.62 30.15-6.86 42.51-11.18 17.74-6.19 27.59-15.89 27.59-29.58 0-12.599-9.81-19.079-25.46-26.549z" fill="url(#SVGID_00000041976305188558406170000003864086192956248744_)"/><path d="m319.47 365.84c-9.54-4.54-21.47-8.1-34.1-11.88-2.72-.81-5.61-1.67-8.6-2.59l-.86 36.31c8.72 2.88 8.5 15.41-.43 17.92-.03.01-.05.02-.08.03-.004.001-.007.002-.011.003h65.803c2.457-3.914 3.738-8.319 3.738-13.243 0-12.6-9.81-19.08-25.46-26.55z" fill="url(#SVGID_00000017508831083928324510000012174820994663737765_)"/><path d="m244.517 444.426h-33.635c-3.671 16.403 1.548 27.926 6.679 34.744 5.56 7.38 13.29 12.32 21.06 15.63l-.65-27.48c-1.29-3.93-1.33-8.11-.28-12.01 1.106-4.139 3.444-7.969 6.826-10.884z" fill="url(#SVGID_00000093885477609243329740000009669266373505264029_)"/></g><g><path d="m315.2 325.73c0 12.56-5.01 23.55-14.93 32.8-4.29 4.03-9.5 7.72-15.63 11.08-2.68 1.47-5.5 2.85-8.4 4.16-12.55 5.66-26.77 9.91-39.6 13.73l-.25.08c-.1.03-.2.06-.3.1-8.72 2.88-8.5 15.41.43 17.92l.29 12.17h-.01c-6.88 3.02-12.85 6.59-17.37 11.09-8.8-2.11-17.39-4.31-24.77-6.89-17.74-6.19-27.59-15.89-27.59-29.58 0-12.6 9.81-19.08 25.46-26.55 9.54-4.54 21.47-8.1 34.1-11.88 2.72-.81 5.61-1.67 8.6-2.59 16.14-4.95 34.85-11.42 41.99-19.18 1.9-2.07 2.98-4.22 2.98-6.46 0-1.19-.81-2.83-2.72-4.77l.96-40.61c21.26 10.16 36.76 24.15 36.76 45.38z" fill="url(#SVGID_00000085968224440134434390000006352955980814687147_)"/><path d="m236.09 387.68c.1-.04.2-.07.3-.1l.25-.08c5.361-1.596 10.965-3.276 16.588-5.094h-83.549c-1.699 2.897-2.609 6.157-2.609 9.984 0 13.69 9.85 23.39 27.59 29.58 7.38 2.58 15.97 4.78 24.77 6.89 4.52-4.5 10.49-8.07 17.37-11.09h.01l-.29-12.17c-8.93-2.51-9.15-15.04-.43-17.92z" fill="url(#SVGID_00000123417251333171819770000011078935340995861418_)"/><path d="m278.44 280.35-.96 40.61c1.91 1.94 2.72 3.58 2.72 4.77 0 2.24-1.08 4.39-2.98 6.46-6.826 7.419-24.225 13.657-39.845 18.517v36.574c12.638-3.764 26.552-7.957 38.865-13.51 2.9-1.31 5.72-2.69 8.4-4.16 6.13-3.36 11.34-7.05 15.63-11.08 9.92-9.25 14.93-20.24 14.93-32.8 0-21.231-15.5-35.221-36.76-45.381z" fill="url(#SVGID_00000012463418753744199300000000566750941162883497_)"/><path d="m278.44 280.35-.96 40.61c1.91 1.94 2.72 3.58 2.72 4.77 0 2.24-1.08 4.39-2.98 6.46-6.826 7.419-24.225 13.657-39.845 18.517v36.574c12.638-3.764 26.552-7.957 38.865-13.51 2.9-1.31 5.72-2.69 8.4-4.16 6.13-3.36 11.34-7.05 15.63-11.08 9.92-9.25 14.93-20.24 14.93-32.8 0-21.231-15.5-35.221-36.76-45.381z" fill="url(#SVGID_00000077312102366005206790000017891399348155056518_)"/><path d="m278.44 280.35-.96 40.61c1.91 1.94 2.72 3.58 2.72 4.77 0 2.24-1.08 4.39-2.98 6.46-4.111 4.469-12.062 8.508-21.147 12.077h54.944c2.774-5.727 4.183-11.911 4.183-18.537 0-21.23-15.5-35.22-36.76-45.38z" fill="url(#SVGID_00000057145279719296002650000018193148251736648096_)"/></g><g><path d="m368.84 256c0 17.76-18.83 24.71-25.92 27.33-9.77 3.61-22.62 6.86-36.21 10.3-1.86.47-3.75.95-5.66 1.43-7.6 1.93-15.47 3.98-23.1 6.21-9.81 2.86-19.22 6.01-27.19 9.58-8.33 3.74-13.46 7.26-16.24 10.11-1.91 1.94-2.72 3.58-2.72 4.77 0 2.24 1.08 4.39 2.98 6.46l.45 19.18c-2.99.92-5.88 1.78-8.6 2.59-5.12 1.53-10.12 3.03-14.9 4.57-9.92-9.25-14.93-20.24-14.93-32.8 0-21.23 15.5-35.22 36.76-45.38 13.58-6.49 29.51-11.42 45.25-15.66 6.53-1.76 13.03-3.41 19.32-5 4.24-1.07 8.93-2.25 13.57-3.48 2.61-.69 4.57-2.21 5.85-4.13 1.08-1.62 1.57-3.38 1.57-5.12 0-4.99-4.05-9.71-9.66-9.94-6.34-.26-12.41-2.67-17.19-6.85l-12.38-10.81-12.81-11.17c-3.28-2.86-5.12-6.98-5.12-11.26 0-.77.06-1.55.18-2.32 1.1-6.95 6.89-12.2 13.91-12.6l4.73-.27 27.24-1.57c.32-.02.64-.03.95-.03 7.7 0 14.46 5.31 16.23 12.89 1.7 7.34 6.23 13.7 12.61 17.72 12.19 7.68 31.03 23.13 31.03 45.25z" fill="url(#SVGID_00000127019150219838467050000006142737110236193701_)"/><path d="m196.8 325.73c0 12.56 5.01 23.55 14.93 32.8 4.78-1.54 9.78-3.04 14.9-4.57 2.72-.81 5.61-1.67 8.6-2.59l-.45-19.18c-1.9-2.07-2.98-4.22-2.98-6.46 0-1.19.81-2.83 2.72-4.77 2.78-2.85 7.91-6.37 16.24-10.11 7.97-3.57 17.38-6.72 27.19-9.58h-72.699c-5.338 6.908-8.451 14.957-8.451 24.46z" fill="url(#SVGID_00000141441479581157186010000005969432963971776142_)"/><path d="m235.23 351.37c-2.99.92-5.88 1.78-8.6 2.59-5.12 1.53-10.12 3.03-14.9 4.57-9.92-9.25-14.93-20.24-14.93-32.8 0-.48.01-.95.03-1.42h35.28c-.21.53-.31 1-.31 1.42 0 2.24 1.08 4.39 2.98 6.46z" fill="url(#SVGID_00000056389835718525439110000010414167133946263202_)"/><path d="m337.81 210.75c-6.38-4.02-10.91-10.38-12.61-17.72-1.77-7.58-8.53-12.89-16.23-12.89-.31 0-.63.01-.95.03l-25.2 1.452v40.296l9.45 8.251c4.78 4.18 10.85 6.59 17.19 6.85 5.61.23 9.66 4.95 9.66 9.94 0 1.74-.49 3.5-1.57 5.12-1.28 1.92-3.24 3.44-5.85 4.13-4.64 1.23-9.33 2.41-13.57 3.48-5 1.264-10.135 2.569-15.31 3.934v36.26c6.079-1.701 12.237-3.302 18.23-4.823 1.91-.48 3.8-.96 5.66-1.43 13.59-3.44 26.44-6.69 36.21-10.3 7.09-2.62 25.92-9.57 25.92-27.33 0-22.12-18.84-37.57-31.03-45.25z" fill="url(#SVGID_00000120541145003117381330000007209583034022842257_)"/><path d="m308.97 180.14c-.31 0-.63.01-.95.03l-27.24 1.57-4.73.27c-7.02.4-12.81 5.65-13.91 12.6-.12.77-.18 1.55-.18 2.32 0 4.28 1.84 8.4 5.12 11.26l12.81 11.17 12.38 10.81c4.78 4.18 10.85 6.59 17.19 6.85 5.61.23 9.66 4.95 9.66 9.94v-63.355c-2.843-2.187-6.382-3.465-10.15-3.465z" fill="url(#SVGID_00000013191094847300964400000009701164367961144733_)"/></g><circle cx="301.98" cy="197.228" fill="url(#SVGID_00000021081312425176803300000014256501848615073676_)" r="8.366"/><circle cx="210.02" cy="197.228" fill="url(#SVGID_00000109015332379028271930000005619827572128530365_)" r="8.366"/><path d="m275.91 387.68c8.72 2.88 8.5 15.41-.43 17.92-.03.01-.05.02-.08.03-1.41.38-2.74.74-3.96 1.07-12.177 3.3-24.062 6.519-34.079 10.838v39.191c.094-.476.203-.95.329-1.419 1.64-6.13 5.97-11.59 12.41-14.39 6.88-2.99 15.53-5.46 24.73-7.77 14.41-3.62 30.15-6.86 42.51-11.18 17.74-6.19 27.59-15.89 27.59-29.58 0-4.742-1.39-8.617-3.958-12.004h-64.89z" fill="url(#SVGID_00000015352956413751717310000007574360434674807188_)"/><path d="m235.95 182.01-4.73-.27-27.24-1.57c-.32-.02-.64-.03-.95-.03-3.375 0-6.57 1.021-9.243 2.806v59.984c1.492-3.246 4.713-5.744 8.753-5.91 6.34-.26 12.41-2.67 17.19-6.85l12.38-10.81 12.81-11.17c3.28-2.86 5.12-6.98 5.12-11.26 0-.77-.06-1.55-.18-2.32-1.1-6.95-6.89-12.2-13.91-12.6z" fill="url(#SVGID_00000118395484903204491850000003267016771090341760_)"/><path d="m235.95 182.01-4.73-.27-27.24-1.57c-.32-.02-.64-.03-.95-.03-3.375 0-6.57 1.021-9.243 2.806v59.984c1.492-3.246 4.713-5.744 8.753-5.91 6.34-.26 12.41-2.67 17.19-6.85l12.38-10.81 12.81-11.17c3.28-2.86 5.12-6.98 5.12-11.26 0-.77-.06-1.55-.18-2.32-1.1-6.95-6.89-12.2-13.91-12.6z" fill="url(#SVGID_00000031918524037909093880000008966661998938468745_)"/></g></svg>