<svg id="_09_Tablets" enable-background="new 0 0 512 512" viewBox="0 0 512 512" xmlns="http://www.w3.org/2000/svg" xmlns:xlink="http://www.w3.org/1999/xlink"><linearGradient id="lg1"><stop offset="0" stop-color="#f3faff"/><stop offset="1" stop-color="#d5daf3"/></linearGradient><linearGradient id="SVGID_1_" gradientTransform="matrix(1 0 0 -1 0 514)" gradientUnits="userSpaceOnUse" x1="156.07" x2="490.406" xlink:href="#lg1" y1="410.246" y2="115.118"/><linearGradient id="lg2"><stop offset="0" stop-color="#dbd5ef" stop-opacity="0"/><stop offset=".2667" stop-color="#d8d2ec" stop-opacity=".023"/><stop offset=".4431" stop-color="#d1c9e2" stop-opacity=".098"/><stop offset=".5933" stop-color="#c4b9d1" stop-opacity=".225"/><stop offset=".7288" stop-color="#b2a4ba" stop-opacity=".405"/><stop offset=".8545" stop-color="#9a889c" stop-opacity=".638"/><stop offset=".9713" stop-color="#7e6678" stop-opacity=".92"/><stop offset="1" stop-color="#765d6e"/></linearGradient><linearGradient id="SVGID_00000170990148037184050270000013001181801366974336_" gradientTransform="matrix(1 0 0 -1 0 514)" gradientUnits="userSpaceOnUse" x1="412.75" x2="506.514" xlink:href="#lg2" y1="258" y2="258"/><linearGradient id="SVGID_00000103947359902870584500000001420402794220278154_" gradientTransform="matrix(1 0 0 -1 0 514)" gradientUnits="userSpaceOnUse" x1="335.27" x2="323.665" xlink:href="#lg1" y1="258" y2="258"/><linearGradient id="SVGID_00000029754302832793475030000005752079282681787580_" gradientTransform="matrix(-1 0 0 1 581 -280)" gradientUnits="userSpaceOnUse" x1="153.815" x2="208.287" xlink:href="#lg1" y1="735.591" y2="681.119"/><linearGradient id="SVGID_00000023267440561188959780000009609660247697866156_" gradientTransform="matrix(-1 0 0 1 581 -280)" gradientUnits="userSpaceOnUse" x1="298.572" x2="353.044" xlink:href="#lg1" y1="735.591" y2="681.119"/><linearGradient id="SVGID_00000155850947784198201860000003309586190703797393_" gradientTransform="matrix(-1 0 0 1 581 -280)" gradientUnits="userSpaceOnUse" x1="153.815" x2="208.287" xlink:href="#lg1" y1="620.04" y2="565.568"/><linearGradient id="SVGID_00000176726727479135245410000013008784327217985213_" gradientTransform="matrix(-1 0 0 1 581 -280)" gradientUnits="userSpaceOnUse" x1="298.572" x2="353.044" xlink:href="#lg1" y1="620.04" y2="565.568"/><linearGradient id="SVGID_00000012469031266875304170000008021616616908539778_" gradientTransform="matrix(-1 0 0 1 581 -280)" gradientUnits="userSpaceOnUse" x1="153.815" x2="208.287" xlink:href="#lg1" y1="504.489" y2="450.017"/><linearGradient id="SVGID_00000097477004302141123770000015804290280272456587_" gradientTransform="matrix(-1 0 0 1 581 -280)" gradientUnits="userSpaceOnUse" x1="298.572" x2="353.044" xlink:href="#lg1" y1="504.489" y2="450.017"/><linearGradient id="SVGID_00000088834230065420928310000012607852838606098839_" gradientTransform="matrix(-1 0 0 1 581 -280)" gradientUnits="userSpaceOnUse" x1="153.815" x2="208.287" xlink:href="#lg1" y1="388.938" y2="334.466"/><linearGradient id="SVGID_00000062897265515393359170000003330675977783236251_" gradientTransform="matrix(-1 0 0 1 581 -280)" gradientUnits="userSpaceOnUse" x1="298.572" x2="353.044" xlink:href="#lg1" y1="388.938" y2="334.466"/><linearGradient id="lg3"><stop offset="0" stop-color="#99e6fc"/><stop offset=".1325" stop-color="#8ee1fb"/><stop offset=".3627" stop-color="#71d5f9"/><stop offset=".6631" stop-color="#43c2f5"/><stop offset="1" stop-color="#08a9f1"/></linearGradient><linearGradient id="SVGID_00000046312349919963588770000013068571522587898262_" gradientTransform="matrix(1 0 0 -1 0 514)" gradientUnits="userSpaceOnUse" x1="234.215" x2="279.735" xlink:href="#lg3" y1="337.724" y2="292.204"/><linearGradient id="SVGID_00000119819503874824325890000002086044371477640072_" gradientTransform="matrix(0 -1 -1 0 282.63 266.463)" gradientUnits="userSpaceOnUse" x1="68.239" x2="68.239" xlink:href="#lg3" y1="19.374" y2="37.006"/><linearGradient id="lg4"><stop offset="0" stop-color="#2740b0" stop-opacity="0"/><stop offset=".2505" stop-color="#263fae" stop-opacity=".023"/><stop offset=".4239" stop-color="#253dab" stop-opacity=".095"/><stop offset=".5741" stop-color="#233ba4" stop-opacity=".218"/><stop offset=".711" stop-color="#21379b" stop-opacity=".393"/><stop offset=".8389" stop-color="#1e3290" stop-opacity=".618"/><stop offset=".9585" stop-color="#1a2c82" stop-opacity=".89"/><stop offset="1" stop-color="#192a7d"/></linearGradient><linearGradient id="SVGID_00000021087472678419179210000013123627582946158488_" gradientTransform="matrix(1 0 0 -1 0 514)" gradientUnits="userSpaceOnUse" x1="256.163" x2="256.163" xlink:href="#lg4" y1="314.291" y2="272.693"/><linearGradient id="SVGID_00000011718397682537354680000016803935465462259841_" gradientTransform="matrix(1 0 0 -1 0 514)" gradientUnits="userSpaceOnUse" x1="259.958" x2="300.339" xlink:href="#lg4" y1="315.776" y2="315.776"/><linearGradient id="SVGID_00000144338441621561006910000003235915099303348390_" gradientTransform="matrix(1 0 0 -1 0 514)" gradientUnits="userSpaceOnUse" x1="378.972" x2="424.493" xlink:href="#lg3" y1="453.275" y2="407.755"/><linearGradient id="SVGID_00000101064678994470412000000004768301340215233937_" gradientTransform="matrix(1 0 0 -1 0 514)" gradientUnits="userSpaceOnUse" x1="406.661" x2="392.462" xlink:href="#lg3" y1="425.588" y2="439.786"/><linearGradient id="SVGID_00000121275005444613798930000005792539739009502896_" gradientTransform="matrix(1 0 0 -1 0 514)" gradientUnits="userSpaceOnUse" x1="400.921" x2="400.921" xlink:href="#lg4" y1="429.842" y2="388.244"/><linearGradient id="SVGID_00000172408106123734424730000013091005511447743365_" gradientTransform="matrix(1 0 0 -1 0 514)" gradientUnits="userSpaceOnUse" x1="404.716" x2="445.097" xlink:href="#lg4" y1="431.327" y2="431.327"/><linearGradient id="SVGID_00000114043450203240008720000006556988983881685407_" gradientTransform="matrix(1 0 0 -1 0 514)" gradientUnits="userSpaceOnUse" x1="234.215" x2="279.735" xlink:href="#lg3" y1="453.275" y2="407.755"/><linearGradient id="SVGID_00000142143280267845748420000009007374414646570633_" gradientTransform="matrix(1 0 0 -1 0 514)" gradientUnits="userSpaceOnUse" x1="256.166" x2="256.166" xlink:href="#lg3" y1="424.236" y2="441.868"/><linearGradient id="SVGID_00000142898690533721241540000016399045526293957047_" gradientTransform="matrix(1 0 0 -1 0 514)" gradientUnits="userSpaceOnUse" x1="256.163" x2="256.163" xlink:href="#lg4" y1="429.842" y2="388.244"/><linearGradient id="SVGID_00000098197498564283582130000004186993667010089654_" gradientTransform="matrix(1 0 0 -1 0 514)" gradientUnits="userSpaceOnUse" x1="259.958" x2="300.34" xlink:href="#lg4" y1="431.327" y2="431.327"/><linearGradient id="SVGID_00000031191436498300451950000001752902043135207599_" gradientTransform="matrix(1 0 0 -1 0 514)" gradientUnits="userSpaceOnUse" x1="378.972" x2="424.493" xlink:href="#lg3" y1="337.724" y2="292.204"/><linearGradient id="SVGID_00000013878863469275990280000016476239487593084071_" gradientTransform="matrix(1 0 0 -1 0 514)" gradientUnits="userSpaceOnUse" x1="400.923" x2="400.923" xlink:href="#lg3" y1="308.685" y2="326.317"/><linearGradient id="SVGID_00000044158327600235519960000001128398300427551921_" gradientTransform="matrix(1 0 0 -1 0 514)" gradientUnits="userSpaceOnUse" x1="400.921" x2="400.921" xlink:href="#lg4" y1="314.291" y2="272.693"/><linearGradient id="SVGID_00000067194479055997952110000006611104385559939248_" gradientTransform="matrix(1 0 0 -1 0 514)" gradientUnits="userSpaceOnUse" x1="404.715" x2="445.097" xlink:href="#lg4" y1="315.776" y2="315.776"/><linearGradient id="SVGID_00000065059020790555620130000002404789155717655435_" gradientTransform="matrix(1 0 0 -1 0 514)" gradientUnits="userSpaceOnUse" x1="378.972" x2="424.493" xlink:href="#lg3" y1="222.173" y2="176.653"/><linearGradient id="SVGID_00000078008403936400890380000013222598425928382891_" gradientTransform="matrix(0 -1 -1 0 282.63 266.463)" gradientUnits="userSpaceOnUse" x1="-47.312" x2="-47.312" xlink:href="#lg3" y1="-125.384" y2="-107.752"/><linearGradient id="SVGID_00000021088315463967334620000014813458686603968169_" gradientTransform="matrix(1 0 0 -1 0 514)" gradientUnits="userSpaceOnUse" x1="400.921" x2="400.921" xlink:href="#lg4" y1="198.74" y2="157.142"/><linearGradient id="SVGID_00000147221677709709737210000007313590324445067956_" gradientTransform="matrix(1 0 0 -1 0 514)" gradientUnits="userSpaceOnUse" x1="404.716" x2="445.097" xlink:href="#lg4" y1="200.225" y2="200.225"/><linearGradient id="SVGID_00000049928573717377368130000015620772911403424653_" gradientTransform="matrix(1 0 0 -1 0 514)" gradientUnits="userSpaceOnUse" x1="328.542" x2="328.542" xlink:href="#lg2" y1="51.396" y2=".988"/><linearGradient id="lg5"><stop offset="0" stop-color="#fff" stop-opacity="0"/><stop offset=".0925" stop-color="#fff" stop-opacity=".024"/><stop offset=".2178" stop-color="#fff" stop-opacity=".092"/><stop offset=".3619" stop-color="#fff" stop-opacity=".203"/><stop offset=".52" stop-color="#fff" stop-opacity=".359"/><stop offset=".6897" stop-color="#fff" stop-opacity=".559"/><stop offset=".8661" stop-color="#fff" stop-opacity=".798"/><stop offset="1" stop-color="#fff"/></linearGradient><linearGradient id="SVGID_00000136406475904558234420000012091919839915767177_" gradientTransform="matrix(1 0 0 -1 0 514)" gradientUnits="userSpaceOnUse" x1="229.899" x2="284.371" xlink:href="#lg5" y1="457.591" y2="403.119"/><linearGradient id="SVGID_00000008133626094232776620000008966246314055027893_" gradientTransform="matrix(1 0 0 -1 0 514)" gradientUnits="userSpaceOnUse" x1="374.656" x2="429.128" xlink:href="#lg5" y1="457.591" y2="403.119"/><linearGradient id="SVGID_00000142151106114557904890000013938137330867381120_" gradientTransform="matrix(1 0 0 -1 0 514)" gradientUnits="userSpaceOnUse" x1="229.899" x2="284.371" xlink:href="#lg5" y1="342.04" y2="287.568"/><linearGradient id="SVGID_00000095318537885606952940000018310568626275354776_" gradientTransform="matrix(1 0 0 -1 0 514)" gradientUnits="userSpaceOnUse" x1="374.656" x2="429.128" xlink:href="#lg5" y1="342.04" y2="287.568"/><linearGradient id="SVGID_00000003807032628936675660000003705137766746306207_" gradientTransform="matrix(1 0 0 -1 0 514)" gradientUnits="userSpaceOnUse" x1="229.899" x2="284.371" xlink:href="#lg5" y1="226.489" y2="172.017"/><linearGradient id="SVGID_00000078744320489035226130000013863834826899572662_" gradientTransform="matrix(1 0 0 -1 0 514)" gradientUnits="userSpaceOnUse" x1="374.656" x2="429.128" xlink:href="#lg5" y1="226.489" y2="172.017"/><linearGradient id="SVGID_00000122697193535108530430000011126297208655239075_" gradientTransform="matrix(1 0 0 -1 0 514)" gradientUnits="userSpaceOnUse" x1="229.899" x2="284.371" xlink:href="#lg5" y1="110.938" y2="56.466"/><linearGradient id="SVGID_00000001648049123873469600000010915605553998624916_" gradientTransform="matrix(1 0 0 -1 0 514)" gradientUnits="userSpaceOnUse" x1="374.656" x2="429.128" xlink:href="#lg5" y1="110.938" y2="56.466"/><linearGradient id="SVGID_00000034788104827859795920000009434743596713730191_" gradientTransform="matrix(-1 0 0 1 414 -280)" gradientUnits="userSpaceOnUse" x1="-13.185" x2="41.287" xlink:href="#lg5" y1="735.591" y2="681.119"/><linearGradient id="SVGID_00000084499560203348085880000013807807335985606335_" gradientTransform="matrix(-1 0 0 1 414 -280)" gradientUnits="userSpaceOnUse" x1="131.572" x2="186.044" xlink:href="#lg5" y1="735.591" y2="681.119"/><linearGradient id="SVGID_00000119098187108278881330000016378825923458978734_" gradientTransform="matrix(-1 0 0 1 414 -280)" gradientUnits="userSpaceOnUse" x1="-13.185" x2="41.287" xlink:href="#lg5" y1="620.04" y2="565.568"/><linearGradient id="SVGID_00000142142211185610362760000003795009291445490352_" gradientTransform="matrix(-1 0 0 1 414 -280)" gradientUnits="userSpaceOnUse" x1="131.572" x2="186.044" xlink:href="#lg5" y1="620.04" y2="565.568"/><linearGradient id="SVGID_00000100351655094575138430000010163238665941044113_" gradientTransform="matrix(-1 0 0 1 414 -280)" gradientUnits="userSpaceOnUse" x1="-13.185" x2="41.287" xlink:href="#lg5" y1="504.489" y2="450.017"/><linearGradient id="SVGID_00000037672659404734095110000016654133043943199899_" gradientTransform="matrix(-1 0 0 1 414 -280)" gradientUnits="userSpaceOnUse" x1="131.572" x2="186.044" xlink:href="#lg5" y1="504.489" y2="450.017"/><linearGradient id="SVGID_00000081640434611851420010000004314356220775812793_" gradientTransform="matrix(-1 0 0 1 414 -280)" gradientUnits="userSpaceOnUse" x1="-13.185" x2="41.287" xlink:href="#lg5" y1="388.938" y2="334.466"/><linearGradient id="SVGID_00000089532844831300782010000011032691411802328472_" gradientTransform="matrix(-1 0 0 1 414 -280)" gradientUnits="userSpaceOnUse" x1="131.572" x2="186.044" xlink:href="#lg5" y1="388.938" y2="334.466"/><linearGradient id="SVGID_00000155122848438329530070000005735541490358736788_" gradientTransform="matrix(1 0 0 -1 0 514)" gradientUnits="userSpaceOnUse" x1="214.601" x2="150.086" xlink:href="#lg2" y1="109.433" y2="118.7"/><linearGradient id="SVGID_00000183234987198595128570000014609481643776206223_" gradientTransform="matrix(1 0 0 -1 0 514)" gradientUnits="userSpaceOnUse" x1="29.576" x2="75.097" xlink:href="#lg3" y1="133.734" y2="88.214"/><linearGradient id="SVGID_00000068659895858050162510000017115600282648387741_" gradientTransform="matrix(0 -1 -1 0 282.63 266.463)" gradientUnits="userSpaceOnUse" x1="-135.751" x2="-135.751" xlink:href="#lg3" y1="224.012" y2="241.644"/><linearGradient id="SVGID_00000067194624783189341310000003193849466106552448_" gradientTransform="matrix(1 0 0 -1 0 514)" gradientUnits="userSpaceOnUse" x1="51.525" x2="51.525" xlink:href="#lg4" y1="106.05" y2="63.275"/><linearGradient id="SVGID_00000114068028335450152010000010758087073120655258_" gradientTransform="matrix(1 0 0 -1 0 514)" gradientUnits="userSpaceOnUse" x1="55.614" x2="107.783" xlink:href="#lg4" y1="111.785" y2="111.785"/><linearGradient id="lg6"><stop offset="0" stop-color="#08a9f1" stop-opacity="0"/><stop offset=".0927" stop-color="#0baaf1" stop-opacity=".025"/><stop offset=".2192" stop-color="#15aef2" stop-opacity=".094"/><stop offset=".3651" stop-color="#26b5f3" stop-opacity=".208"/><stop offset=".5256" stop-color="#3dbff5" stop-opacity=".367"/><stop offset=".698" stop-color="#5acbf7" stop-opacity=".571"/><stop offset=".8776" stop-color="#7edaf9" stop-opacity=".816"/><stop offset="1" stop-color="#99e6fc"/></linearGradient><linearGradient id="SVGID_00000180355589988070243770000017014938691877218719_" gradientTransform="matrix(1 0 0 -1 0 514)" gradientUnits="userSpaceOnUse" x1="65.543" x2="85.573" xlink:href="#lg6" y1="97.767" y2="77.738"/><linearGradient id="SVGID_00000159456527161441825370000017684372968157988540_" gradientTransform="matrix(1 0 0 -1 0 514)" gradientUnits="userSpaceOnUse" x1="128.665" x2="174.186" xlink:href="#lg3" y1="163.741" y2="118.22"/><linearGradient id="SVGID_00000163042231022918960490000002674989552076251314_" gradientTransform="matrix(1 0 0 -1 0 514)" gradientUnits="userSpaceOnUse" x1="150.616" x2="150.616" xlink:href="#lg3" y1="134.701" y2="152.333"/><linearGradient id="SVGID_00000035503299311981480000000000496875644249012153_" gradientTransform="matrix(1 0 0 -1 0 514)" gradientUnits="userSpaceOnUse" x1="150.614" x2="150.614" xlink:href="#lg4" y1="131.713" y2="93.548"/><linearGradient id="SVGID_00000006688602061671299420000013736272503623671690_" gradientTransform="matrix(1 0 0 -1 0 514)" gradientUnits="userSpaceOnUse" x1="164.921" x2="196.334" xlink:href="#lg4" y1="141.792" y2="141.792"/><linearGradient id="SVGID_00000047050305416401392260000006355862014200420004_" gradientTransform="matrix(1 0 0 -1 0 514)" gradientUnits="userSpaceOnUse" x1="164.632" x2="184.662" xlink:href="#lg6" y1="127.774" y2="107.744"/><linearGradient id="SVGID_00000103976491582112535100000017436033590632905869_" gradientTransform="matrix(1 0 0 -1 0 514)" gradientUnits="userSpaceOnUse" x1="108.749" x2="154.27" xlink:href="#lg3" y1="223.622" y2="178.101"/><linearGradient id="SVGID_00000083081450493035821630000003231017307321024682_" gradientTransform="matrix(1 0 0 -1 0 514)" gradientUnits="userSpaceOnUse" x1="136.438" x2="122.239" xlink:href="#lg3" y1="195.934" y2="210.133"/><linearGradient id="SVGID_00000109011554297362390830000011120659336849749913_" gradientTransform="matrix(1 0 0 -1 0 514)" gradientUnits="userSpaceOnUse" x1="130.698" x2="130.698" xlink:href="#lg4" y1="195.871" y2="149.694"/><linearGradient id="SVGID_00000005268431215835682080000002275484828468899763_" gradientTransform="matrix(1 0 0 -1 0 514)" gradientUnits="userSpaceOnUse" x1="144.96" x2="177.49" xlink:href="#lg4" y1="201.673" y2="201.673"/><linearGradient id="SVGID_00000162337561881699717440000017959736928685785740_" gradientTransform="matrix(1 0 0 -1 0 514)" gradientUnits="userSpaceOnUse" x1="144.716" x2="164.746" xlink:href="#lg6" y1="187.655" y2="167.625"/><g><g><path d="m176.371 0h304.342c11.228 0 20.329 9.102 20.329 20.329v471.342c0 11.228-9.102 20.329-20.329 20.329h-304.342c-11.228 0-20.329-9.102-20.329-20.329v-471.342c0-11.227 9.102-20.329 20.329-20.329z" fill="url(#SVGID_1_)"/><path d="m480.713 0h-149.931v512h149.931c11.228 0 20.329-9.102 20.329-20.329v-471.342c0-11.227-9.102-20.329-20.329-20.329z" fill="url(#SVGID_00000170990148037184050270000013001181801366974336_)"/><path d="m328.542 34.106c4.469 0 8.092 3.623 8.092 8.092v427.602c0 4.469-3.623 8.092-8.092 8.092-4.469 0-8.092-3.623-8.092-8.092v-427.601c0-4.469 3.623-8.093 8.092-8.093z" fill="url(#SVGID_00000103947359902870584500000001420402794220278154_)"/><g><path d="m400.921 380.76c26.779 0 48.566 21.787 48.566 48.567s-21.787 48.567-48.566 48.567c-26.78 0-48.567-21.787-48.567-48.567s21.787-48.567 48.567-48.567z" fill="url(#SVGID_00000029754302832793475030000005752079282681787580_)"/><path d="m256.163 380.76c26.78 0 48.567 21.787 48.567 48.567s-21.787 48.567-48.567 48.567c-26.779 0-48.566-21.787-48.566-48.567s21.787-48.567 48.566-48.567z" fill="url(#SVGID_00000023267440561188959780000009609660247697866156_)"/><path d="m400.921 265.208c26.779 0 48.566 21.787 48.566 48.567s-21.787 48.567-48.566 48.567c-26.78 0-48.567-21.787-48.567-48.567s21.787-48.567 48.567-48.567z" fill="url(#SVGID_00000155850947784198201860000003309586190703797393_)"/><path d="m256.163 265.208c26.78 0 48.567 21.787 48.567 48.567s-21.787 48.567-48.567 48.567c-26.779 0-48.566-21.787-48.566-48.567s21.787-48.567 48.566-48.567z" fill="url(#SVGID_00000176726727479135245410000013008784327217985213_)"/><path d="m400.921 149.658c26.779 0 48.566 21.787 48.566 48.567s-21.787 48.567-48.566 48.567c-26.78 0-48.567-21.787-48.567-48.567s21.787-48.567 48.567-48.567z" fill="url(#SVGID_00000012469031266875304170000008021616616908539778_)"/><path d="m256.163 149.658c26.78 0 48.567 21.787 48.567 48.567s-21.787 48.567-48.567 48.567c-26.779 0-48.566-21.787-48.566-48.567s21.787-48.567 48.566-48.567z" fill="url(#SVGID_00000097477004302141123770000015804290280272456587_)"/><path d="m400.921 34.106c26.779 0 48.566 21.787 48.566 48.567s-21.787 48.567-48.566 48.567c-26.78 0-48.567-21.787-48.567-48.567s21.787-48.567 48.567-48.567z" fill="url(#SVGID_00000088834230065420928310000012607852838606098839_)"/><path d="m256.163 34.106c26.78 0 48.567 21.787 48.567 48.567s-21.787 48.567-48.567 48.567c-26.779 0-48.566-21.787-48.566-48.567s21.787-48.567 48.566-48.567z" fill="url(#SVGID_00000062897265515393359170000003330675977783236251_)"/></g><g><g><circle cx="256.163" cy="198.224" fill="url(#SVGID_00000046312349919963588770000013068571522587898262_)" r="40.567"/><path d="m256.171 157.659c3.06 0 6.04.34 8.9.98v79.17c-2.86.64-5.84.98-8.9.98s-6.04-.34-8.91-.98v-79.17c2.87-.64 5.85-.98 8.91-.98z" fill="url(#SVGID_00000119819503874824325890000002086044371477640072_)"/><path d="m215.597 198.224c0 22.404 18.162 40.567 40.567 40.567s40.567-18.162 40.567-40.567c0-1.122-.048-2.232-.137-3.33h-80.86c-.09 1.099-.137 2.209-.137 3.33z" fill="url(#SVGID_00000021087472678419179210000013123627582946158488_)"/><path d="m256.163 157.658c-2.613 0-5.168.25-7.644.722v79.689c2.476.472 5.03.722 7.644.722 22.404 0 40.567-18.162 40.567-40.567 0-22.404-18.162-40.566-40.567-40.566z" fill="url(#SVGID_00000011718397682537354680000016803935465462259841_)"/></g><g><circle cx="400.921" cy="82.673" fill="url(#SVGID_00000144338441621561006910000003235915099303348390_)" r="40.567"/><path d="m435.206 60.983-55.98 55.98c-5.07-3.22-9.38-7.53-12.58-12.6l55.97-55.98c5.07 3.22 9.38 7.53 12.59 12.6z" fill="url(#SVGID_00000101064678994470412000000004768301340215233937_)"/><path d="m360.354 82.673c0 22.404 18.162 40.567 40.567 40.567s40.567-18.162 40.567-40.567c0-1.122-.048-2.232-.137-3.33h-80.86c-.089 1.098-.137 2.209-.137 3.33z" fill="url(#SVGID_00000121275005444613798930000005792539739009502896_)"/><path d="m400.921 42.107c-2.613 0-5.168.25-7.644.722v79.689c2.476.472 5.03.722 7.644.722 22.404 0 40.567-18.162 40.567-40.567 0-22.404-18.163-40.566-40.567-40.566z" fill="url(#SVGID_00000172408106123734424730000013091005511447743365_)"/></g><g><circle cx="256.163" cy="82.673" fill="url(#SVGID_00000114043450203240008720000006556988983881685407_)" r="40.567"/><path d="m296.73 82.678c0 3.06-.34 6.04-.98 8.9h-79.17c-.64-2.86-.98-5.84-.98-8.9s.34-6.04.98-8.91h79.17c.64 2.87.98 5.85.98 8.91z" fill="url(#SVGID_00000142143280267845748420000009007374414646570633_)"/><path d="m215.597 82.673c0 22.404 18.162 40.567 40.567 40.567s40.567-18.162 40.567-40.567c0-1.122-.048-2.232-.137-3.33h-80.86c-.09 1.098-.137 2.209-.137 3.33z" fill="url(#SVGID_00000142898690533721241540000016399045526293957047_)"/><path d="m256.163 42.107c-2.613 0-5.168.25-7.644.722v79.689c2.476.472 5.03.722 7.644.722 22.404 0 40.567-18.162 40.567-40.567 0-22.404-18.162-40.566-40.567-40.566z" fill="url(#SVGID_00000098197498564283582130000004186993667010089654_)"/></g><g><circle cx="400.921" cy="198.224" fill="url(#SVGID_00000031191436498300451950000001752902043135207599_)" r="40.567"/><path d="m441.488 198.23c0 3.06-.34 6.04-.98 8.9h-79.17c-.64-2.86-.98-5.84-.98-8.9s.34-6.04.98-8.91h79.17c.64 2.869.98 5.849.98 8.91z" fill="url(#SVGID_00000013878863469275990280000016476239487593084071_)"/><path d="m360.354 198.224c0 22.404 18.162 40.567 40.567 40.567s40.567-18.162 40.567-40.567c0-1.122-.048-2.232-.137-3.33h-80.86c-.09 1.099-.137 2.209-.137 3.33z" fill="url(#SVGID_00000044158327600235519960000001128398300427551921_)"/><path d="m400.921 157.658c-2.613 0-5.168.25-7.644.722v79.689c2.476.472 5.03.722 7.644.722 22.404 0 40.567-18.162 40.567-40.567-.001-22.404-18.163-40.566-40.567-40.566z" fill="url(#SVGID_00000067194479055997952110000006611104385559939248_)"/></g><g><circle cx="400.921" cy="313.776" fill="url(#SVGID_00000065059020790555620130000002404789155717655435_)" r="40.567"/><path d="m400.928 273.21c3.06 0 6.04.34 8.9.98v79.17c-2.86.64-5.84.98-8.9.98s-6.04-.34-8.91-.98v-79.17c2.87-.639 5.85-.98 8.91-.98z" fill="url(#SVGID_00000078008403936400890380000013222598425928382891_)"/><path d="m360.354 313.776c0 22.404 18.162 40.567 40.567 40.567s40.567-18.162 40.567-40.567c0-1.122-.048-2.232-.137-3.331h-80.86c-.089 1.099-.137 2.209-.137 3.331z" fill="url(#SVGID_00000021088315463967334620000014813458686603968169_)"/><path d="m400.921 273.209c-2.613 0-5.168.25-7.644.722v79.689c2.476.472 5.03.722 7.644.722 22.404 0 40.567-18.162 40.567-40.567 0-22.404-18.163-40.566-40.567-40.566z" fill="url(#SVGID_00000147221677709709737210000007313590324445067956_)"/></g></g><path d="m156.042 378.501v113.169c0 11.228 9.102 20.329 20.329 20.329h304.342c11.228 0 20.329-9.102 20.329-20.329v-113.169z" fill="url(#SVGID_00000049928573717377368130000015620772911403424653_)"/><g opacity=".55"><g><path d="m256.163 131.24c-26.779 0-48.566-21.787-48.566-48.567s21.787-48.567 48.566-48.567c26.78 0 48.567 21.787 48.567 48.567s-21.787 48.567-48.567 48.567z" fill="url(#SVGID_00000136406475904558234420000012091919839915767177_)"/><path d="m400.921 131.24c-26.78 0-48.567-21.787-48.567-48.567s21.787-48.567 48.567-48.567c26.779 0 48.566 21.787 48.566 48.567s-21.787 48.567-48.566 48.567z" fill="url(#SVGID_00000008133626094232776620000008966246314055027893_)"/><path d="m256.163 246.792c-26.779 0-48.566-21.787-48.566-48.567s21.787-48.567 48.566-48.567c26.78 0 48.567 21.787 48.567 48.567s-21.787 48.567-48.567 48.567z" fill="url(#SVGID_00000142151106114557904890000013938137330867381120_)"/><path d="m400.921 246.792c-26.78 0-48.567-21.787-48.567-48.567s21.787-48.567 48.567-48.567c26.779 0 48.566 21.787 48.566 48.567s-21.787 48.567-48.566 48.567z" fill="url(#SVGID_00000095318537885606952940000018310568626275354776_)"/><path d="m256.163 362.342c-26.779 0-48.566-21.787-48.566-48.567s21.787-48.567 48.566-48.567c26.78 0 48.567 21.787 48.567 48.567s-21.787 48.567-48.567 48.567z" fill="url(#SVGID_00000003807032628936675660000003705137766746306207_)"/><path d="m400.921 362.342c-26.78 0-48.567-21.787-48.567-48.567s21.787-48.567 48.567-48.567c26.779 0 48.566 21.787 48.566 48.567s-21.787 48.567-48.566 48.567z" fill="url(#SVGID_00000078744320489035226130000013863834826899572662_)"/><path d="m256.163 477.894c-26.779 0-48.566-21.787-48.566-48.567s21.787-48.567 48.566-48.567c26.78 0 48.567 21.787 48.567 48.567s-21.787 48.567-48.567 48.567z" fill="url(#SVGID_00000122697193535108530430000011126297208655239075_)"/><path d="m400.921 477.894c-26.78 0-48.567-21.787-48.567-48.567s21.787-48.567 48.567-48.567c26.779 0 48.566 21.787 48.566 48.567s-21.787 48.567-48.566 48.567z" fill="url(#SVGID_00000001648049123873469600000010915605553998624916_)"/></g><g opacity=".55"><path d="m400.921 380.76c26.779 0 48.566 21.787 48.566 48.567s-21.787 48.567-48.566 48.567c-26.78 0-48.567-21.787-48.567-48.567s21.787-48.567 48.567-48.567z" fill="url(#SVGID_00000034788104827859795920000009434743596713730191_)"/><path d="m256.163 380.76c26.78 0 48.567 21.787 48.567 48.567s-21.787 48.567-48.567 48.567c-26.779 0-48.566-21.787-48.566-48.567s21.787-48.567 48.566-48.567z" fill="url(#SVGID_00000084499560203348085880000013807807335985606335_)"/><path d="m400.921 265.208c26.779 0 48.566 21.787 48.566 48.567s-21.787 48.567-48.566 48.567c-26.78 0-48.567-21.787-48.567-48.567s21.787-48.567 48.567-48.567z" fill="url(#SVGID_00000119098187108278881330000016378825923458978734_)"/><path d="m256.163 265.208c26.78 0 48.567 21.787 48.567 48.567s-21.787 48.567-48.567 48.567c-26.779 0-48.566-21.787-48.566-48.567s21.787-48.567 48.566-48.567z" fill="url(#SVGID_00000142142211185610362760000003795009291445490352_)"/><path d="m400.921 149.658c26.779 0 48.566 21.787 48.566 48.567s-21.787 48.567-48.566 48.567c-26.78 0-48.567-21.787-48.567-48.567s21.787-48.567 48.567-48.567z" fill="url(#SVGID_00000100351655094575138430000010163238665941044113_)"/><path d="m256.163 149.658c26.78 0 48.567 21.787 48.567 48.567s-21.787 48.567-48.567 48.567c-26.779 0-48.566-21.787-48.566-48.567s21.787-48.567 48.566-48.567z" fill="url(#SVGID_00000037672659404734095110000016654133043943199899_)"/><path d="m400.921 34.106c26.779 0 48.566 21.787 48.566 48.567s-21.787 48.567-48.566 48.567c-26.78 0-48.567-21.787-48.567-48.567s21.787-48.567 48.567-48.567z" fill="url(#SVGID_00000081640434611851420010000004314356220775812793_)"/><path d="m256.163 34.106c26.78 0 48.567 21.787 48.567 48.567s-21.787 48.567-48.567 48.567c-26.779 0-48.566-21.787-48.566-48.567s21.787-48.567 48.566-48.567z" fill="url(#SVGID_00000089532844831300782010000011032691411802328472_)"/></g></g></g><path d="m159.212 283.475-3.17 3.17v205.026c0 11.228 9.102 20.329 20.329 20.329h211.366z" fill="url(#SVGID_00000155122848438329530070000005735541490358736788_)"/><g><g><circle cx="51.525" cy="402.215" fill="url(#SVGID_00000183234987198595128570000014609481643776206223_)" r="40.567"/><path d="m51.532 361.65c3.06 0 6.04.34 8.9.98v79.17c-2.86.64-5.84.98-8.9.98s-6.04-.34-8.91-.98v-79.17c2.87-.64 5.85-.98 8.91-.98z" fill="url(#SVGID_00000068659895858050162510000017115600282648387741_)"/><path d="m10.958 402.215c0 22.404 18.162 40.567 40.567 40.567s40.567-18.162 40.567-40.567c0-1.122-.048-2.232-.137-3.331h-80.86c-.09 1.099-.137 2.209-.137 3.331z" fill="url(#SVGID_00000067194624783189341310000003193849466106552448_)"/><path d="m51.525 361.648c-2.613 0-5.168.25-7.644.722v79.689c2.476.472 5.03.722 7.644.722 22.404 0 40.567-18.162 40.567-40.567 0-22.404-18.163-40.566-40.567-40.566z" fill="url(#SVGID_00000114068028335450152010000010758087073120655258_)"/><path d="m80.039 373.363-57.366 57.366c7.354 7.441 17.564 12.053 28.852 12.053 22.404 0 40.567-18.162 40.567-40.567 0-11.289-4.612-21.498-12.053-28.852z" fill="url(#SVGID_00000180355589988070243770000017014938691877218719_)"/></g><g><circle cx="150.614" cy="372.208" fill="url(#SVGID_00000159456527161441825370000017684372968157988540_)" r="40.567"/><path d="m191.181 372.213c0 3.06-.34 6.04-.98 8.9h-79.17c-.64-2.86-.98-5.84-.98-8.9s.34-6.04.98-8.91h79.17c.64 2.87.98 5.85.98 8.91z" fill="url(#SVGID_00000163042231022918960490000002674989552076251314_)"/><path d="m110.047 372.208c0 22.404 18.162 40.567 40.567 40.567s40.567-18.162 40.567-40.567c0-1.122-.048-2.232-.137-3.331h-80.86c-.089 1.099-.137 2.209-.137 3.331z" fill="url(#SVGID_00000035503299311981480000000000496875644249012153_)"/><path d="m150.614 331.641c-2.613 0-5.168.25-7.644.722v79.689c2.476.472 5.03.722 7.644.722 22.404 0 40.567-18.162 40.567-40.567 0-22.403-18.163-40.566-40.567-40.566z" fill="url(#SVGID_00000006688602061671299420000013736272503623671690_)"/><path d="m179.128 343.356-57.366 57.366c7.354 7.441 17.564 12.053 28.852 12.053 22.404 0 40.567-18.162 40.567-40.567 0-11.288-4.612-21.498-12.053-28.852z" fill="url(#SVGID_00000047050305416401392260000006355862014200420004_)"/></g><g><circle cx="130.698" cy="312.327" fill="url(#SVGID_00000103976491582112535100000017436033590632905869_)" r="40.567"/><path d="m164.984 290.637-55.98 55.98c-5.07-3.22-9.38-7.53-12.58-12.6l55.97-55.98c5.069 3.22 9.379 7.53 12.59 12.6z" fill="url(#SVGID_00000083081450493035821630000003231017307321024682_)"/><path d="m90.131 312.327c0 22.404 18.162 40.567 40.567 40.567s40.567-18.162 40.567-40.567c0-1.122-.048-2.232-.137-3.331h-80.86c-.089 1.099-.137 2.209-.137 3.331z" fill="url(#SVGID_00000109011554297362390830000011120659336849749913_)"/><path d="m130.698 271.76c-2.613 0-5.168.25-7.644.722v79.689c2.476.472 5.03.722 7.644.722 22.404 0 40.567-18.162 40.567-40.567 0-22.404-18.163-40.566-40.567-40.566z" fill="url(#SVGID_00000005268431215835682080000002275484828468899763_)"/><path d="m159.212 283.475-57.366 57.366c7.354 7.441 17.564 12.053 28.852 12.053 22.404 0 40.567-18.162 40.567-40.567 0-11.288-4.612-21.498-12.053-28.852z" fill="url(#SVGID_00000162337561881699717440000017959736928685785740_)"/></g></g></g></svg>