<svg id="_10_Band_Aid" enable-background="new 0 0 512 512" viewBox="0 0 512 512" xmlns="http://www.w3.org/2000/svg" xmlns:xlink="http://www.w3.org/1999/xlink"><linearGradient id="lg1"><stop offset="0" stop-color="#ffdfcf"/><stop offset="1" stop-color="#ffa78f"/></linearGradient><linearGradient id="SVGID_1_" gradientTransform="matrix(.707 .707 .707 -.707 -220.093 251.35)" gradientUnits="userSpaceOnUse" x1="339.936" x2="339.936" xlink:href="#lg1" y1="420.422" y2="209.045"/><linearGradient id="lg2"><stop offset="0" stop-color="#f89580" stop-opacity="0"/><stop offset=".1028" stop-color="#f5937e" stop-opacity=".049"/><stop offset=".2747" stop-color="#ee8e79" stop-opacity=".18"/><stop offset=".4946" stop-color="#e38671" stop-opacity=".393"/><stop offset=".7511" stop-color="#d57c65" stop-opacity=".686"/><stop offset=".9972" stop-color="#c5715a"/></linearGradient><linearGradient id="SVGID_00000145764753103941376900000012410379597258737598_" gradientTransform="matrix(.707 .707 .707 -.707 -220.093 251.35)" gradientUnits="userSpaceOnUse" x1="50.759" x2="152.042" xlink:href="#lg2" y1="435.755" y2="334.472"/><linearGradient id="SVGID_00000065064230626011599340000009119879324750448259_" gradientTransform="matrix(.707 .707 .707 -.707 -220.093 251.35)" gradientUnits="userSpaceOnUse" x1="50.759" x2="152.042" xlink:href="#lg2" y1="389.026" y2="287.743"/><linearGradient id="SVGID_00000178170423494593518790000007770583586326063772_" gradientTransform="matrix(.707 .707 .707 -.707 -220.093 251.35)" gradientUnits="userSpaceOnUse" x1="50.759" x2="152.042" xlink:href="#lg2" y1="342.296" y2="241.013"/><linearGradient id="SVGID_00000103963664421155814420000017154656217742191011_" gradientTransform="matrix(.707 .707 .707 -.707 -220.093 251.35)" gradientUnits="userSpaceOnUse" x1="90.962" x2="192.245" xlink:href="#lg2" y1="412.391" y2="311.108"/><linearGradient id="SVGID_00000158747033348023695400000008053380295378257548_" gradientTransform="matrix(.707 .707 .707 -.707 -220.093 251.35)" gradientUnits="userSpaceOnUse" x1="90.962" x2="192.245" xlink:href="#lg2" y1="365.661" y2="264.378"/><linearGradient id="SVGID_00000100358524334325829700000007957960880724166787_" gradientTransform="matrix(.707 .707 .707 -.707 -220.093 251.35)" gradientUnits="userSpaceOnUse" x1="131.165" x2="232.448" xlink:href="#lg2" y1="435.755" y2="334.472"/><linearGradient id="SVGID_00000122698980457818323360000015892177537833511074_" gradientTransform="matrix(.707 .707 .707 -.707 -220.093 251.35)" gradientUnits="userSpaceOnUse" x1="131.165" x2="232.448" xlink:href="#lg2" y1="389.026" y2="287.743"/><linearGradient id="SVGID_00000137092496266416237280000004834017425438224514_" gradientTransform="matrix(.707 .707 .707 -.707 -220.093 251.35)" gradientUnits="userSpaceOnUse" x1="131.165" x2="232.448" xlink:href="#lg2" y1="342.296" y2="241.013"/><linearGradient id="SVGID_00000061470859195281344620000000050615443899014840_" gradientTransform="matrix(.707 .707 .707 -.707 -220.093 251.35)" gradientUnits="userSpaceOnUse" x1="437.377" x2="538.66" xlink:href="#lg2" y1="435.755" y2="334.472"/><linearGradient id="SVGID_00000024698714979282173130000003224345051841387705_" gradientTransform="matrix(.707 .707 .707 -.707 -220.093 251.35)" gradientUnits="userSpaceOnUse" x1="437.377" x2="538.66" xlink:href="#lg2" y1="389.026" y2="287.743"/><linearGradient id="SVGID_00000053546603967506464760000005910742241596394167_" gradientTransform="matrix(.707 .707 .707 -.707 -220.093 251.35)" gradientUnits="userSpaceOnUse" x1="437.377" x2="538.66" xlink:href="#lg2" y1="342.296" y2="241.013"/><linearGradient id="SVGID_00000079469976821034974640000014725753102353066429_" gradientTransform="matrix(.707 .707 .707 -.707 -220.093 251.35)" gradientUnits="userSpaceOnUse" x1="477.579" x2="578.863" xlink:href="#lg2" y1="412.391" y2="311.108"/><linearGradient id="SVGID_00000045616449291682971900000014421887618902114720_" gradientTransform="matrix(.707 .707 .707 -.707 -220.093 251.35)" gradientUnits="userSpaceOnUse" x1="477.579" x2="578.863" xlink:href="#lg2" y1="365.661" y2="264.378"/><linearGradient id="SVGID_00000145020696158125000090000018175606550367086226_" gradientTransform="matrix(.707 .707 .707 -.707 -220.093 251.35)" gradientUnits="userSpaceOnUse" x1="517.782" x2="619.065" xlink:href="#lg2" y1="435.755" y2="334.472"/><linearGradient id="SVGID_00000114778644995255789640000001843912137375896254_" gradientTransform="matrix(.707 .707 .707 -.707 -220.093 251.35)" gradientUnits="userSpaceOnUse" x1="517.782" x2="619.065" xlink:href="#lg2" y1="389.026" y2="287.743"/><linearGradient id="SVGID_00000172442110899810864070000007420263212203855260_" gradientTransform="matrix(.707 .707 .707 -.707 -220.093 251.35)" gradientUnits="userSpaceOnUse" x1="517.782" x2="619.065" xlink:href="#lg2" y1="342.296" y2="241.013"/><linearGradient id="SVGID_00000040544915935243340960000007589512889237375116_" gradientTransform="matrix(.707 .707 .707 -.707 -220.093 251.35)" gradientUnits="userSpaceOnUse" x1="339.936" x2="339.936" xlink:href="#lg2" y1="279.767" y2="225.249"/><linearGradient id="SVGID_00000154398788915314084700000013015690797371547782_" gradientTransform="matrix(.707 .707 .707 -.707 -220.093 251.35)" gradientUnits="userSpaceOnUse" x1="570.555" x2="616.506" xlink:href="#lg2" y1="333.36" y2="333.36"/><linearGradient id="SVGID_00000077317469361266961960000001430516787120526498_" gradientTransform="matrix(1 0 0 -1 0 514)" gradientUnits="userSpaceOnUse" x1="371.626" x2="332.075" xlink:href="#lg2" y1="142.374" y2="181.925"/><linearGradient id="SVGID_00000007390229271032633160000014571997303516417931_" gradientTransform="matrix(.707 -.707 -.707 -.707 341.35 544.093)" gradientUnits="userSpaceOnUse" x1="143.36" x2="143.36" xlink:href="#lg1" y1="351.126" y2="139.748"/><linearGradient id="SVGID_00000147222292735228743070000012092466218616076197_" gradientTransform="matrix(.707 -.707 -.707 -.707 341.35 544.093)" gradientUnits="userSpaceOnUse" x1="-145.817" x2="-44.534" xlink:href="#lg2" y1="366.459" y2="265.176"/><linearGradient id="SVGID_00000124154776249879389350000009679951218376194204_" gradientTransform="matrix(.707 -.707 -.707 -.707 341.35 544.093)" gradientUnits="userSpaceOnUse" x1="-145.817" x2="-44.534" xlink:href="#lg2" y1="319.729" y2="218.446"/><linearGradient id="SVGID_00000148638006329908514950000012110022170805425583_" gradientTransform="matrix(.707 -.707 -.707 -.707 341.35 544.093)" gradientUnits="userSpaceOnUse" x1="-145.817" x2="-44.534" xlink:href="#lg2" y1="273" y2="171.717"/><linearGradient id="SVGID_00000032608398609658489250000017507338740136198588_" gradientTransform="matrix(.707 -.707 -.707 -.707 341.35 544.093)" gradientUnits="userSpaceOnUse" x1="-105.614" x2="-4.331" xlink:href="#lg2" y1="343.094" y2="241.811"/><linearGradient id="SVGID_00000102521829276472380030000012138156460545413042_" gradientTransform="matrix(.707 -.707 -.707 -.707 341.35 544.093)" gradientUnits="userSpaceOnUse" x1="-105.614" x2="-4.331" xlink:href="#lg2" y1="296.364" y2="195.081"/><linearGradient id="SVGID_00000158734666245362345020000000389359782505775234_" gradientTransform="matrix(.707 -.707 -.707 -.707 341.35 544.093)" gradientUnits="userSpaceOnUse" x1="-65.411" x2="35.872" xlink:href="#lg2" y1="366.459" y2="265.176"/><linearGradient id="SVGID_00000018225772103071796260000007026515893014874804_" gradientTransform="matrix(.707 -.707 -.707 -.707 341.35 544.093)" gradientUnits="userSpaceOnUse" x1="-65.411" x2="35.872" xlink:href="#lg2" y1="319.729" y2="218.446"/><linearGradient id="SVGID_00000023976025418332043360000006058155451593514917_" gradientTransform="matrix(.707 -.707 -.707 -.707 341.35 544.093)" gradientUnits="userSpaceOnUse" x1="-65.411" x2="35.872" xlink:href="#lg2" y1="273" y2="171.717"/><linearGradient id="SVGID_00000080908895186489177260000000038220171061377934_" gradientTransform="matrix(.707 -.707 -.707 -.707 341.35 544.093)" gradientUnits="userSpaceOnUse" x1="240.801" x2="342.084" xlink:href="#lg2" y1="366.459" y2="265.176"/><linearGradient id="SVGID_00000108999732929539841670000003560234268500681654_" gradientTransform="matrix(.707 -.707 -.707 -.707 341.35 544.093)" gradientUnits="userSpaceOnUse" x1="240.801" x2="342.084" xlink:href="#lg2" y1="319.729" y2="218.446"/><linearGradient id="SVGID_00000132794189334317344610000009528766481188301702_" gradientTransform="matrix(.707 -.707 -.707 -.707 341.35 544.093)" gradientUnits="userSpaceOnUse" x1="240.801" x2="342.084" xlink:href="#lg2" y1="273" y2="171.717"/><linearGradient id="SVGID_00000006668696503114832150000003966292797042512300_" gradientTransform="matrix(.707 -.707 -.707 -.707 341.35 544.093)" gradientUnits="userSpaceOnUse" x1="281.004" x2="382.287" xlink:href="#lg2" y1="343.094" y2="241.811"/><linearGradient id="SVGID_00000032639911964715012670000010831417809544418977_" gradientTransform="matrix(.707 -.707 -.707 -.707 341.35 544.093)" gradientUnits="userSpaceOnUse" x1="281.004" x2="382.287" xlink:href="#lg2" y1="296.365" y2="195.081"/><linearGradient id="SVGID_00000170236740661280386520000013050006949013834370_" gradientTransform="matrix(.707 -.707 -.707 -.707 341.35 544.093)" gradientUnits="userSpaceOnUse" x1="321.206" x2="422.49" xlink:href="#lg2" y1="366.459" y2="265.176"/><linearGradient id="SVGID_00000116915585766204038190000014299787701697471166_" gradientTransform="matrix(.707 -.707 -.707 -.707 341.35 544.093)" gradientUnits="userSpaceOnUse" x1="321.206" x2="422.49" xlink:href="#lg2" y1="319.729" y2="218.446"/><linearGradient id="SVGID_00000082353112206806729710000018295084916953079727_" gradientTransform="matrix(.707 -.707 -.707 -.707 341.35 544.093)" gradientUnits="userSpaceOnUse" x1="321.206" x2="422.49" xlink:href="#lg2" y1="273" y2="171.717"/><linearGradient id="SVGID_00000034050280760181125610000003532605107555182740_" gradientTransform="matrix(.707 -.707 -.707 -.707 341.35 544.093)" gradientUnits="userSpaceOnUse" x1="143.36" x2="143.36" xlink:href="#lg2" y1="210.471" y2="155.953"/><linearGradient id="SVGID_00000066495492113136107440000016183994573948127125_" gradientTransform="matrix(0 1 -1 0 794.963 -280.962)" gradientUnits="userSpaceOnUse" x1="709.467" x2="740.551" xlink:href="#lg2" y1="711.468" y2="742.551"/><linearGradient id="SVGID_00000160871875904043748080000011990673760542691457_" gradientTransform="matrix(1 0 0 -1 0 514)" gradientUnits="userSpaceOnUse" x1="330.908" x2="292.404" xlink:href="#lg2" y1="183.092" y2="221.596"/><linearGradient id="SVGID_00000052800250159321719390000011247414618901015948_" gradientTransform="matrix(.707 -.707 -.707 -.707 341.35 544.093)" gradientUnits="userSpaceOnUse" x1="81.724" x2="201.838" y1="336.179" y2="195.645"><stop offset="0" stop-color="#f3faff"/><stop offset="1" stop-color="#d5daf3"/></linearGradient><linearGradient id="lg3"><stop offset="0" stop-color="#dbd5ef" stop-opacity="0"/><stop offset=".2667" stop-color="#d8d2ec" stop-opacity=".023"/><stop offset=".4431" stop-color="#d1c9e2" stop-opacity=".098"/><stop offset=".5933" stop-color="#c4b9d1" stop-opacity=".225"/><stop offset=".7288" stop-color="#b2a4ba" stop-opacity=".405"/><stop offset=".8545" stop-color="#9a889c" stop-opacity=".638"/><stop offset=".9713" stop-color="#7e6678" stop-opacity=".92"/><stop offset="1" stop-color="#765d6e"/></linearGradient><linearGradient id="SVGID_00000175312948913223686890000004060058820315903365_" gradientTransform="matrix(.707 -.707 -.707 -.707 341.35 544.093)" gradientUnits="userSpaceOnUse" x1="143.36" x2="143.36" xlink:href="#lg3" y1="249.901" y2="200.02"/><linearGradient id="SVGID_00000008130434639063189820000015011468187773965734_" gradientTransform="matrix(.707 -.707 -.707 -.707 341.35 544.093)" gradientUnits="userSpaceOnUse" x1="198.865" x2="250.585" xlink:href="#lg3" y1="264.064" y2="264.064"/><linearGradient id="SVGID_00000181075924476743415350000003904821010641047434_" gradientTransform="matrix(.707 -.707 -.707 -.707 341.35 544.093)" gradientUnits="userSpaceOnUse" x1="189.517" x2="223.534" y1="242.451" y2="185.24"><stop offset="0" stop-color="#d5daf3" stop-opacity="0"/><stop offset=".1385" stop-color="#d8ddf4" stop-opacity=".114"/><stop offset=".4399" stop-color="#e1e6f7" stop-opacity=".406"/><stop offset=".8782" stop-color="#eff5fd" stop-opacity=".867"/><stop offset="1" stop-color="#f3faff"/></linearGradient><g><g><path d="m171.294 13.566 327.14 327.14c18.088 18.088 18.088 47.414 0 65.503l-92.226 92.226c-18.088 18.088-47.414 18.088-65.503 0l-327.14-327.14c-18.088-18.088-18.088-47.414 0-65.503l92.226-92.226c18.089-18.088 47.415-18.088 65.503 0z" fill="url(#SVGID_1_)"/><g><g><g><circle cx="123.925" cy="57.84" fill="url(#SVGID_00000145764753103941376900000012410379597258737598_)" r="10.772"/><circle cx="90.882" cy="90.882" fill="url(#SVGID_00000065064230626011599340000009119879324750448259_)" r="10.772"/><circle cx="57.839" cy="123.925" fill="url(#SVGID_00000178170423494593518790000007770583586326063772_)" r="10.772"/></g><g><circle cx="135.831" cy="102.789" fill="url(#SVGID_00000103963664421155814420000017154656217742191011_)" r="10.772"/><circle cx="102.789" cy="135.831" fill="url(#SVGID_00000158747033348023695400000008053380295378257548_)" r="10.772"/></g><g><circle cx="180.78" cy="114.695" fill="url(#SVGID_00000100358524334325829700000007957960880724166787_)" r="10.772"/><circle cx="147.738" cy="147.738" fill="url(#SVGID_00000122698980457818323360000015892177537833511074_)" r="10.772"/><circle cx="114.695" cy="180.781" fill="url(#SVGID_00000137092496266416237280000004834017425438224514_)" r="10.772"/></g></g><g><g><circle cx="397.305" cy="331.219" fill="url(#SVGID_00000061470859195281344620000000050615443899014840_)" r="10.772"/><circle cx="364.262" cy="364.262" fill="url(#SVGID_00000024698714979282173130000003224345051841387705_)" r="10.772"/><circle cx="331.219" cy="397.305" fill="url(#SVGID_00000053546603967506464760000005910742241596394167_)" r="10.772"/></g><g><circle cx="409.211" cy="376.169" fill="url(#SVGID_00000079469976821034974640000014725753102353066429_)" r="10.772"/><circle cx="376.169" cy="409.211" fill="url(#SVGID_00000045616449291682971900000014421887618902114720_)" r="10.772"/></g><g><circle cx="454.16" cy="388.075" fill="url(#SVGID_00000145020696158125000090000018175606550367086226_)" r="10.772"/><circle cx="421.118" cy="421.118" fill="url(#SVGID_00000114778644995255789640000001843912137375896254_)" r="10.772"/><circle cx="388.075" cy="454.16" fill="url(#SVGID_00000172442110899810864070000007420263212203855260_)" r="10.772"/></g></g></g><path d="m81.645 37.713-68.079 68.079c-18.088 18.088-18.088 47.415 0 65.503l327.14 327.14c18.088 18.088 47.415 18.088 65.503 0l68.079-68.079z" fill="url(#SVGID_00000040544915935243340960000007589512889237375116_)"/><path d="m498.434 340.706-149.743-149.743-157.728 157.728 149.743 149.743c18.088 18.088 47.415 18.088 65.503 0l92.225-92.225c18.088-18.089 18.088-47.415 0-65.503z" fill="url(#SVGID_00000154398788915314084700000013015690797371547782_)"/></g><path d="m498.434 406.208c18.088-18.088 18.088-47.415 0-65.503l-96.485-96.485-157.728 157.729 96.485 96.485c18.088 18.088 47.415 18.088 65.503 0z" fill="url(#SVGID_00000077317469361266961960000001430516787120526498_)"/><g><g><path d="m13.566 340.706 327.14-327.14c18.088-18.088 47.414-18.088 65.503 0l92.226 92.226c18.088 18.088 18.088 47.414 0 65.503l-327.14 327.14c-18.088 18.088-47.414 18.088-65.503 0l-92.226-92.226c-18.088-18.089-18.088-47.415 0-65.503z" fill="url(#SVGID_00000007390229271032633160000014571997303516417931_)"/><g><g><g><circle cx="57.839" cy="388.075" fill="url(#SVGID_00000147222292735228743070000012092466218616076197_)" r="10.772"/><circle cx="90.882" cy="421.118" fill="url(#SVGID_00000124154776249879389350000009679951218376194204_)" r="10.772"/><circle cx="123.925" cy="454.16" fill="url(#SVGID_00000148638006329908514950000012110022170805425583_)" r="10.772"/></g><g><circle cx="102.789" cy="376.169" fill="url(#SVGID_00000032608398609658489250000017507338740136198588_)" r="10.772"/><circle cx="135.831" cy="409.211" fill="url(#SVGID_00000102521829276472380030000012138156460545413042_)" r="10.772"/></g><g><circle cx="114.695" cy="331.219" fill="url(#SVGID_00000158734666245362345020000000389359782505775234_)" r="10.772"/><circle cx="147.738" cy="364.262" fill="url(#SVGID_00000018225772103071796260000007026515893014874804_)" r="10.772"/><circle cx="180.78" cy="397.305" fill="url(#SVGID_00000023976025418332043360000006058155451593514917_)" r="10.772"/></g></g><g><g><circle cx="331.219" cy="114.695" fill="url(#SVGID_00000080908895186489177260000000038220171061377934_)" r="10.772"/><circle cx="364.262" cy="147.738" fill="url(#SVGID_00000108999732929539841670000003560234268500681654_)" r="10.772"/><circle cx="397.305" cy="180.781" fill="url(#SVGID_00000132794189334317344610000009528766481188301702_)" r="10.772"/></g><g><circle cx="376.168" cy="102.789" fill="url(#SVGID_00000006668696503114832150000003966292797042512300_)" r="10.772"/><circle cx="409.211" cy="135.831" fill="url(#SVGID_00000032639911964715012670000010831417809544418977_)" r="10.772"/></g><g><circle cx="388.075" cy="57.84" fill="url(#SVGID_00000170236740661280386520000013050006949013834370_)" r="10.772"/><circle cx="421.118" cy="90.882" fill="url(#SVGID_00000116915585766204038190000014299787701697471166_)" r="10.772"/><circle cx="454.16" cy="123.925" fill="url(#SVGID_00000082353112206806729710000018295084916953079727_)" r="10.772"/></g></g></g><path d="m37.713 430.355 68.079 68.079c18.088 18.088 47.415 18.088 65.503 0l327.14-327.14c18.088-18.088 18.088-47.415 0-65.503l-68.079-68.079z" fill="url(#SVGID_00000034050280760181125610000003532605107555182740_)"/><path d="m13.566 340.706 149.743-149.743 157.728 157.728-149.743 149.743c-18.088 18.088-47.415 18.088-65.503 0l-92.225-92.225c-18.088-18.089-18.088-47.415 0-65.503z" fill="url(#SVGID_00000066495492113136107440000016183994573948127125_)"/><path d="m217.536 366.17 148.634-148.634 43.011 43.011-148.634 148.634z" fill="url(#SVGID_00000160871875904043748080000011990673760542691457_)"/></g><g><path d="m145.83 281.236 135.406-135.406c3.653-3.653 9.575-3.653 13.228 0l71.706 71.706c3.653 3.653 3.653 9.575 0 13.228l-135.406 135.406c-3.653 3.653-9.575 3.653-13.228 0l-71.706-71.706c-3.653-3.653-3.653-9.575 0-13.228z" fill="url(#SVGID_00000052800250159321719390000011247414618901015948_)"/><path d="m159.717 308.351 57.819 57.819c3.653 3.653 9.575 3.653 13.228 0l135.406-135.406c3.653-3.653 3.653-9.575 0-13.228l-57.819-57.819z" fill="url(#SVGID_00000175312948913223686890000004060058820315903365_)"/><path d="m281.236 145.83-53.877 53.877 84.934 84.934 53.877-53.877c3.653-3.653 3.653-9.575 0-13.228l-71.706-71.706c-3.653-3.653-9.575-3.653-13.228 0z" fill="url(#SVGID_00000008130434639063189820000015011468187773965734_)"/><path d="m366.17 230.764c3.653-3.653 3.653-9.575 0-13.228l-71.706-71.706c-3.653-3.653-9.575-3.653-13.228 0l-7.135 7.135v169.868z" fill="url(#SVGID_00000181075924476743415350000003904821010641047434_)"/></g></g></g></svg>