<svg id="_11_Pear_Enema" enable-background="new 0 0 512 512" viewBox="0 0 512 512" xmlns="http://www.w3.org/2000/svg" xmlns:xlink="http://www.w3.org/1999/xlink"><linearGradient id="lg1"><stop offset="0" stop-color="#f3faff"/><stop offset="1" stop-color="#d5daf3"/></linearGradient><linearGradient id="SVGID_1_" gradientTransform="matrix(1 0 0 -1 0 514)" gradientUnits="userSpaceOnUse" x1="240.604" x2="268.733" xlink:href="#lg1" y1="420.436" y2="420.436"/><linearGradient id="lg2"><stop offset="0" stop-color="#dbd5ef" stop-opacity="0"/><stop offset=".2667" stop-color="#d8d2ec" stop-opacity=".023"/><stop offset=".4431" stop-color="#d1c9e2" stop-opacity=".098"/><stop offset=".5933" stop-color="#c4b9d1" stop-opacity=".225"/><stop offset=".7288" stop-color="#b2a4ba" stop-opacity=".405"/><stop offset=".8545" stop-color="#9a889c" stop-opacity=".638"/><stop offset=".9713" stop-color="#7e6678" stop-opacity=".92"/><stop offset="1" stop-color="#765d6e"/></linearGradient><linearGradient id="SVGID_00000145028563313256461200000012954123821712180401_" gradientTransform="matrix(1 0 0 -1 0 514)" gradientUnits="userSpaceOnUse" x1="251.535" x2="278.624" xlink:href="#lg2" y1="420.436" y2="420.436"/><linearGradient id="SVGID_00000171712160590938522780000012228278293897797546_" gradientTransform="matrix(1 0 0 -1 0 514)" gradientUnits="userSpaceOnUse" x1="256" x2="256" xlink:href="#lg2" y1="400.188" y2="363.769"/><linearGradient id="SVGID_00000156587398740564106940000002077063772429899444_" gradientTransform="matrix(1 0 0 -1 0 514)" gradientUnits="userSpaceOnUse" x1="237.04" x2="272.059" xlink:href="#lg1" y1="357.238" y2="357.238"/><linearGradient id="SVGID_00000168815398945511295490000002982084841753025214_" gradientTransform="matrix(1 0 0 -1 0 514)" gradientUnits="userSpaceOnUse" x1="256" x2="256" xlink:href="#lg2" y1="378.089" y2="353.139"/><linearGradient id="SVGID_00000164502067094865925490000002237763077041924256_" gradientTransform="matrix(1 0 0 -1 0 514)" gradientUnits="userSpaceOnUse" x1="264.842" x2="289.746" xlink:href="#lg2" y1="357.238" y2="357.238"/><linearGradient id="SVGID_00000114049019692828069680000004517881556034637229_" gradientTransform="matrix(1 0 0 -1 0 514)" gradientUnits="userSpaceOnUse" x1="170.607" x2="347.432" y1="249.573" y2="72.748"><stop offset="0" stop-color="#fe646f"/><stop offset=".235" stop-color="#fa5964"/><stop offset=".6415" stop-color="#ef3d49"/><stop offset="1" stop-color="#e41f2d"/></linearGradient><linearGradient id="lg3"><stop offset="0" stop-color="#a72b2b" stop-opacity="0"/><stop offset=".1561" stop-color="#a32b2a" stop-opacity=".066"/><stop offset=".386" stop-color="#982c29" stop-opacity=".248"/><stop offset=".6615" stop-color="#872f28" stop-opacity=".545"/><stop offset=".97" stop-color="#6f3226" stop-opacity=".956"/><stop offset="1" stop-color="#6d3326"/></linearGradient><linearGradient id="SVGID_00000152964209467426131860000006279574466637228215_" gradientTransform="matrix(1 0 0 -1 0 514)" gradientUnits="userSpaceOnUse" x1="278.983" x2="402.749" xlink:href="#lg3" y1="179.855" y2="179.855"/><linearGradient id="SVGID_00000174581640545743045610000007803934676845471409_" gradientTransform="matrix(1 0 0 -1 0 514)" gradientUnits="userSpaceOnUse" x1="256" x2="256" xlink:href="#lg3" y1="124.335" y2=".739"/><linearGradient id="SVGID_00000112603528302441540340000005864480347162359191_" gradientTransform="matrix(1 0 0 -1 0 514)" gradientUnits="userSpaceOnUse" x1="306.397" x2="378.403" y1="97.442" y2="25.436"><stop offset="0" stop-color="#e41f2d" stop-opacity="0"/><stop offset=".0725" stop-color="#e62533" stop-opacity=".093"/><stop offset=".3356" stop-color="#ee3b48" stop-opacity=".411"/><stop offset=".5691" stop-color="#f54c58" stop-opacity=".664"/><stop offset=".7644" stop-color="#f95964" stop-opacity=".846"/><stop offset=".914" stop-color="#fc616c" stop-opacity=".958"/><stop offset="1" stop-color="#fe646f"/></linearGradient><linearGradient id="SVGID_00000148636361008141268750000017826292634924426914_" gradientTransform="matrix(1 0 0 -1 0 514)" gradientUnits="userSpaceOnUse" x1="237.357" x2="283.931" xlink:href="#lg3" y1="333.026" y2="361.065"/><g><path d="m283.206 187.129h-54.412l8.354-179.739c.192-4.136 3.602-7.39 7.742-7.39h22.22c4.14 0 7.55 3.254 7.742 7.39z" fill="url(#SVGID_1_)"/><path d="m267.11 0h-21.278v187.129h37.374l-8.354-179.739c-.192-4.136-3.602-7.39-7.742-7.39z" fill="url(#SVGID_00000145028563313256461200000012954123821712180401_)"/><path d="m228.794 187.129h54.412l-4.349-93.565h-45.714z" fill="url(#SVGID_00000171712160590938522780000012228278293897797546_)"/><path d="m227.896 143.396h56.208c3.278 0 5.936 2.657 5.936 5.936v14.861c0 3.278-2.657 5.936-5.936 5.936h-56.208c-3.278 0-5.936-2.657-5.936-5.936v-14.861c0-3.279 2.658-5.936 5.936-5.936z" fill="url(#SVGID_00000156587398740564106940000002077063772429899444_)"/><path d="m227.896 143.396h56.208c3.278 0 5.936 2.657 5.936 5.936v14.861c0 3.278-2.657 5.936-5.936 5.936h-56.208c-3.278 0-5.936-2.657-5.936-5.936v-14.861c0-3.279 2.658-5.936 5.936-5.936z" fill="url(#SVGID_00000168815398945511295490000002982084841753025214_)"/><path d="m284.104 143.396h-28.104v26.733h28.104c3.278 0 5.936-2.657 5.936-5.936v-14.861c0-3.279-2.658-5.936-5.936-5.936z" fill="url(#SVGID_00000164502067094865925490000002237763077041924256_)"/><g><path d="m295.61 173.799c0-9.615-7.795-17.41-17.41-17.41h-44.877c-9.352 0-16.933 7.581-16.933 16.933 0 28.015-14.104 54.343-37.83 69.239-41.441 26.018-68.87 72.298-68.393 124.951.735 81.141 66.713 145.573 147.85 144.473 79.615-1.079 143.822-65.954 143.822-145.825 0-52.199-27.425-97.991-68.652-123.757-23.559-14.723-37.577-40.822-37.577-68.604z" fill="url(#SVGID_00000114049019692828069680000004517881556034637229_)"/><path d="m333.187 242.404c-23.559-14.724-37.577-40.822-37.577-68.604 0-9.615-7.794-17.41-17.409-17.41h-44.877c-1.67 0-3.279.251-4.803.702v351.528c10.653 1.859 21.593 2.971 32.755 3.281 78.101-2.777 140.564-66.962 140.564-145.74-.001-52.199-27.426-97.991-68.653-123.757z" fill="url(#SVGID_00000152964209467426131860000006279574466637228215_)"/><path d="m110.161 366.161c0 80.545 65.294 145.839 145.839 145.839s145.839-65.294 145.839-145.839c0-4.032-.171-8.024-.492-11.973h-290.694c-.321 3.949-.492 7.941-.492 11.973z" fill="url(#SVGID_00000174581640545743045610000007803934676845471409_)"/><path d="m358.509 262.437-206.233 206.233c26.438 26.75 63.143 43.33 103.724 43.33 80.545 0 145.839-65.294 145.839-145.839 0-40.581-16.58-77.286-43.33-103.724z" fill="url(#SVGID_00000112603528302441540340000005864480347162359191_)"/></g><path d="m274.852 179.738 1.085-23.348h-39.874l1.085 23.348c.192 4.136 3.602 7.391 7.742 7.391h22.22c4.14 0 7.55-3.255 7.742-7.391z" fill="url(#SVGID_00000148636361008141268750000017826292634924426914_)"/></g></svg>