<svg id="_12_Thermometer" enable-background="new 0 0 512 512" viewBox="0 0 512 512" xmlns="http://www.w3.org/2000/svg" xmlns:xlink="http://www.w3.org/1999/xlink"><linearGradient id="lg1"><stop offset="0" stop-color="#99e6fc"/><stop offset=".1325" stop-color="#8ee1fb"/><stop offset=".3627" stop-color="#71d5f9"/><stop offset=".6631" stop-color="#43c2f5"/><stop offset="1" stop-color="#08a9f1"/></linearGradient><linearGradient id="SVGID_1_" gradientTransform="matrix(1 0 0 -1 0 514)" gradientUnits="userSpaceOnUse" x1="216.908" x2="262.646" xlink:href="#lg1" y1="285.442" y2="239.705"/><linearGradient id="SVGID_00000164510416540006585130000002304508590051391111_" gradientTransform="matrix(.707 -.707 -.707 -.707 341.35 544.093)" gradientUnits="userSpaceOnUse" x1="172.865" x2="108.671" xlink:href="#lg1" y1="230.557" y2="294.751"/><linearGradient id="lg2"><stop offset="0" stop-color="#2740b0" stop-opacity="0"/><stop offset=".2505" stop-color="#263fae" stop-opacity=".023"/><stop offset=".4239" stop-color="#253dab" stop-opacity=".095"/><stop offset=".5741" stop-color="#233ba4" stop-opacity=".218"/><stop offset=".711" stop-color="#21379b" stop-opacity=".393"/><stop offset=".8389" stop-color="#1e3290" stop-opacity=".618"/><stop offset=".9585" stop-color="#1a2c82" stop-opacity=".89"/><stop offset="1" stop-color="#192a7d"/></linearGradient><linearGradient id="SVGID_00000050658493570041339120000012764988371955462041_" gradientTransform="matrix(1 0 0 -1 0 514)" gradientUnits="userSpaceOnUse" x1="291.724" x2="251.249" xlink:href="#lg2" y1="216.615" y2="257.09"/><linearGradient id="SVGID_00000093891874297734367840000002527291112795028632_" gradientTransform="matrix(.707 -.707 -.707 -.707 341.35 544.093)" gradientUnits="userSpaceOnUse" x1="119.851" x2="160.307" y1="283.571" y2="243.115"><stop offset="0" stop-color="#fe646f"/><stop offset=".235" stop-color="#fa5964"/><stop offset=".6415" stop-color="#ef3d49"/><stop offset="1" stop-color="#e41f2d"/></linearGradient><linearGradient id="lg3"><stop offset="0" stop-color="#a72b2b" stop-opacity="0"/><stop offset=".1561" stop-color="#a32b2a" stop-opacity=".066"/><stop offset=".386" stop-color="#982c29" stop-opacity=".248"/><stop offset=".6615" stop-color="#872f28" stop-opacity=".545"/><stop offset=".97" stop-color="#6f3226" stop-opacity=".956"/><stop offset="1" stop-color="#6d3326"/></linearGradient><linearGradient id="SVGID_00000099648199845396306570000004187733896553544110_" gradientTransform="matrix(.707 -.707 -.707 -.707 341.35 544.093)" gradientUnits="userSpaceOnUse" x1="139.358" x2="139.358" xlink:href="#lg3" y1="258.253" y2="227.699"/><linearGradient id="SVGID_00000057127783281635290720000016802952608887504042_" gradientTransform="matrix(.707 -.707 -.707 -.707 341.35 544.093)" gradientUnits="userSpaceOnUse" x1="145.039" x2="175.636" xlink:href="#lg3" y1="264.064" y2="264.064"/><linearGradient id="SVGID_00000091723683723980519180000016516291713710379186_" gradientTransform="matrix(.707 -.707 -.707 -.707 341.35 544.093)" gradientUnits="userSpaceOnUse" x1="151.816" x2="169.617" y1="251.605" y2="233.804"><stop offset="0" stop-color="#e41f2d" stop-opacity="0"/><stop offset=".0725" stop-color="#e62533" stop-opacity=".093"/><stop offset=".3356" stop-color="#ee3b48" stop-opacity=".411"/><stop offset=".5691" stop-color="#f54c58" stop-opacity=".664"/><stop offset=".7644" stop-color="#f95964" stop-opacity=".846"/><stop offset=".914" stop-color="#fc616c" stop-opacity=".958"/><stop offset="1" stop-color="#fe646f"/></linearGradient><linearGradient id="SVGID_00000008143046458254094100000015932978947833129367_" gradientTransform="matrix(.707 -.707 -.707 -.707 341.35 544.093)" gradientUnits="userSpaceOnUse" x1="410.35" x2="455.273" xlink:href="#lg2" y1="264.064" y2="264.064"/><linearGradient id="SVGID_00000175281267770069495190000012372614762000740499_" gradientTransform="matrix(1 0 0 -1 0 514)" gradientUnits="userSpaceOnUse" x1="263.244" x2="303.599" xlink:href="#lg2" y1="239.106" y2="198.751"/><linearGradient id="SVGID_00000000907603932503951310000002005980527558692796_" gradientTransform="matrix(1 0 0 -1 0 514)" gradientUnits="userSpaceOnUse" x1="102.744" x2="124.605" xlink:href="#lg2" y1="96.459" y2="64.142"/><linearGradient id="SVGID_00000144323885176819355340000001103067208204460220_" gradientTransform="matrix(1 0 0 -1 0 514)" gradientUnits="userSpaceOnUse" x1="64.627" x2="2.607" xlink:href="#lg2" y1="67.16" y2="12.269"/><linearGradient id="SVGID_00000042728128207350316900000014189085181197748130_" gradientTransform="matrix(.707 -.707 -.707 -.707 341.35 544.093)" gradientUnits="userSpaceOnUse" x1="298.156" x2="325.958" y1="301.321" y2="200.806"><stop offset="0" stop-color="#fef0ae"/><stop offset="1" stop-color="#fac600"/></linearGradient><linearGradient id="lg4"><stop offset="0" stop-color="#fe9738" stop-opacity="0"/><stop offset=".1648" stop-color="#fe9637" stop-opacity=".012"/><stop offset=".2957" stop-color="#fe9535" stop-opacity=".052"/><stop offset=".415" stop-color="#fe9331" stop-opacity=".118"/><stop offset=".5274" stop-color="#fe902c" stop-opacity=".211"/><stop offset=".635" stop-color="#fe8c25" stop-opacity=".331"/><stop offset=".739" stop-color="#fe871d" stop-opacity=".479"/><stop offset=".8401" stop-color="#fe8213" stop-opacity=".655"/><stop offset=".9364" stop-color="#fe7b09" stop-opacity=".852"/><stop offset="1" stop-color="#fe7701"/></linearGradient><linearGradient id="SVGID_00000167398224201448673620000000045568710998889150_" gradientTransform="matrix(.707 -.707 -.707 -.707 341.35 544.093)" gradientUnits="userSpaceOnUse" x1="308.461" x2="308.461" xlink:href="#lg4" y1="281.975" y2="310.498"/><linearGradient id="SVGID_00000143600405124141479290000017852778054124639888_" gradientTransform="matrix(.707 -.707 -.707 -.707 341.35 544.093)" gradientUnits="userSpaceOnUse" x1="242.936" x2="202.787" xlink:href="#lg4" y1="264.064" y2="264.064"/><linearGradient id="SVGID_00000139295890251570543310000009454697210456468661_" gradientTransform="matrix(.707 -.707 -.707 -.707 341.35 544.093)" gradientUnits="userSpaceOnUse" x1="228.595" x2="350.496" xlink:href="#lg4" y1="407.886" y2="204.718"/><linearGradient id="SVGID_00000142151911631123987700000017907376994767680431_" gradientTransform="matrix(.707 -.707 -.707 -.707 341.35 544.093)" gradientUnits="userSpaceOnUse" x1="256.841" x2="378.742" xlink:href="#lg4" y1="424.834" y2="221.666"/><linearGradient id="SVGID_00000062904675960638369490000014427976946308138934_" gradientTransform="matrix(.707 -.707 -.707 -.707 341.35 544.093)" gradientUnits="userSpaceOnUse" x1="280.355" x2="402.256" xlink:href="#lg4" y1="438.942" y2="235.774"/><linearGradient id="SVGID_00000007388497737020139910000002872964674325816754_" gradientTransform="matrix(1 0 0 -1 0 514)" gradientUnits="userSpaceOnUse" x1="9.196" x2="46.511" y1="49.215" y2="11.9"><stop offset="0" stop-color="#f3faff"/><stop offset="1" stop-color="#d5daf3"/></linearGradient><linearGradient id="lg5"><stop offset="0" stop-color="#dbd5ef" stop-opacity="0"/><stop offset=".2667" stop-color="#d8d2ec" stop-opacity=".023"/><stop offset=".4431" stop-color="#d1c9e2" stop-opacity=".098"/><stop offset=".5933" stop-color="#c4b9d1" stop-opacity=".225"/><stop offset=".7288" stop-color="#b2a4ba" stop-opacity=".405"/><stop offset=".8545" stop-color="#9a889c" stop-opacity=".638"/><stop offset=".9713" stop-color="#7e6678" stop-opacity=".92"/><stop offset="1" stop-color="#765d6e"/></linearGradient><linearGradient id="SVGID_00000065067577149018514400000011927262925114991294_" gradientTransform="matrix(1 0 0 -1 0 514)" gradientUnits="userSpaceOnUse" x1="12.582" x2="51.446" xlink:href="#lg5" y1="45.829" y2="6.965"/><linearGradient id="SVGID_00000024003920808160716930000005053678738416390277_" gradientTransform="matrix(1 0 0 -1 0 514)" gradientUnits="userSpaceOnUse" x1="42.476" x2="27.506" xlink:href="#lg5" y1="62.807" y2="1.5"/><g><g><path d="m506.29 109.19-221.72 221.72c-7.85 7.85-16.84 14.34-26.62 19.3-9.77 4.96-20.33 8.38-31.3 10.08-21.93 3.39-42.22 13.68-57.92 29.37l-98.73 98.74-38.82-9.24-7.58-37.16 98.74-98.73c7.84-7.85 14.34-16.85 19.3-26.62 4.96-9.78 8.38-20.33 10.07-31.3 3.4-21.94 13.69-42.23 29.38-57.92l221.72-221.72c7.61-7.61 19.97-7.61 27.58 0l75.9 75.9c7.61 7.61 7.61 19.97 0 27.58z" fill="url(#SVGID_1_)"/><circle cx="253.17" cy="258.83" fill="url(#SVGID_00000164510416540006585130000002304508590051391111_)" r="45.594"/><path d="m276.484 231.33-50.815 50.815 53.647 53.648c1.799-1.567 3.558-3.187 5.254-4.883l45.747-45.747z" fill="url(#SVGID_00000050658493570041339120000012764988371955462041_)"/><g><circle cx="253.17" cy="258.83" fill="url(#SVGID_00000093891874297734367840000002527291112795028632_)" r="36.053"/><g fill="#fff"><path d="m245.451 235.707c-1.385.46-2.041 2.046-1.428 3.37v.001c.528 1.141 1.826 1.696 3.02 1.302 6.9-2.28 14.651-.508 19.87 4.71 7.642 7.642 7.573 20.121-.205 27.681-6.765 6.575-17.491 7.299-25.079 1.694-6.887-5.087-9.48-13.959-6.913-21.748.395-1.199-.152-2.503-1.298-3.033-1.324-.612-2.91.044-3.37 1.428-2.878 8.661-.661 18.399 5.892 24.952 9.5 9.5 24.959 9.5 34.459 0 9.503-9.503 9.505-24.963.004-34.463-6.553-6.554-16.291-8.771-24.952-5.894z"/><path d="m252.037 257.698c.964-.964.964-2.527 0-3.49l-15.44-15.44c-.964-.964-2.527-.964-3.49 0s-.964 2.527 0 3.49l15.44 15.44c.964.964 2.526.964 3.49 0z"/></g><path d="m227.676 284.324c14.08 14.08 36.908 14.08 50.987 0 14.08-14.08 14.08-36.908 0-50.987-.705-.705-1.433-1.373-2.179-2.007l-50.815 50.815c.634.746 1.302 1.474 2.007 2.179z" fill="url(#SVGID_00000099648199845396306570000004187733896553544110_)"/><path d="m227.676 233.337c-1.642 1.642-3.091 3.405-4.35 5.258l50.079 50.079c1.853-1.259 3.615-2.707 5.258-4.35 14.08-14.08 14.08-36.908 0-50.987-14.08-14.08-36.907-14.08-50.987 0z" fill="url(#SVGID_00000057127783281635290720000016802952608887504042_)"/><path d="m252.957 222.779v72.102c9.298.054 18.612-3.463 25.706-10.557 14.08-14.08 14.08-36.908 0-50.987-7.094-7.094-16.408-10.612-25.706-10.558z" fill="url(#SVGID_00000091723683723980519180000016516291713710379186_)"/></g><path d="m402.807 5.713-84.104 84.104 103.48 103.48 84.104-84.104c7.618-7.618 7.618-19.969 0-27.586l-75.894-75.894c-7.618-7.617-19.969-7.617-27.586 0z" fill="url(#SVGID_00000008143046458254094100000015932978947833129367_)"/><path d="m506.29 109.19-221.72 221.72c-7.85 7.85-16.84 14.34-26.62 19.3-9.77 4.96-20.33 8.38-31.3 10.08-21.93 3.39-42.22 13.68-57.92 29.37l-98.73 98.74-38.82-9.24-2.98-14.6 430.52-430.52 47.57 47.57c7.61 7.61 7.61 19.97 0 27.58z" fill="url(#SVGID_00000175281267770069495190000012372614762000740499_)"/><path d="m187.203 374.985-50.187-50.187c-4.163 6.65-9.069 12.859-14.675 18.473l-98.741 98.729 7.58 37.16 38.82 9.24 98.73-98.74c5.613-5.609 11.821-10.515 18.473-14.675z" fill="url(#SVGID_00000000907603932503951310000002005980527558692796_)"/><path d="m68.575 397.03-44.975 44.97 7.58 37.16 38.82 9.24 44.97-44.975z" fill="url(#SVGID_00000144323885176819355340000001103067208204460220_)"/><g><path d="m282.95 172.785 123.322-123.322c4.573-4.573 11.987-4.573 16.56 0l39.705 39.705c4.573 4.573 4.573 11.987 0 16.56l-123.322 123.321c-4.573 4.573-11.987 4.573-16.56 0l-39.705-39.705c-4.572-4.573-4.572-11.987 0-16.559z" fill="url(#SVGID_00000042728128207350316900000014189085181197748130_)"/><path d="m406.272 49.463-123.322 123.322c-4.573 4.573-4.573 11.987 0 16.56l29.404 29.404 139.881-139.882-29.404-29.404c-4.572-4.573-11.986-4.573-16.559 0z" fill="url(#SVGID_00000167398224201448673620000000045568710998889150_)"/><path d="m340.284 115.451-57.334 57.334c-4.573 4.573-4.573 11.987 0 16.56l39.705 39.705c4.573 4.573 11.987 4.573 16.56 0l57.334-57.334z" fill="url(#SVGID_00000143600405124141479290000017852778054124639888_)"/></g><g><path d="m389.352 145.581c1.581-1.581 2.371-3.007 2.372-4.278 0-1.27-.76-2.665-2.279-4.185l-.884-.884c-.774-.774-1.518-1.286-2.232-1.535-.712-.248-1.403-.317-2.069-.209-.667.108-1.318.388-1.953.837-.636.45-1.279 1-1.93 1.651-.807.807-1.642 1.07-2.51.79-.868-.279-1.658-.774-2.372-1.488-.713-.713-1.209-1.503-1.488-2.372-.279-.868-.017-1.704.79-2.511.434-.434.838-.898 1.209-1.395.372-.495.596-1.046.674-1.651.078-.603-.047-1.285-.372-2.046-.326-.758-.954-1.604-1.884-2.534-1.333-1.333-2.558-1.891-3.674-1.674-1.116.218-2.155.806-3.115 1.767-1.148 1.148-1.838 2.179-2.07 3.093-.232.915.101 1.822 1 2.721.807.807 1.224 1.675 1.256 2.604.031.93-.636 2.078-2 3.442-.837.837-1.551 1.457-2.139 1.86-.59.403-1.132.62-1.628.651s-.969-.1-1.418-.395c-.45-.294-.953-.721-1.511-1.279-.899-.899-1.66-2.015-2.279-3.348-.62-1.333-.93-2.821-.93-4.464 0-1.642.411-3.402 1.232-5.278.822-1.875 2.24-3.82 4.255-5.836 1.488-1.488 3.007-2.712 4.557-3.674 1.551-.96 3.115-1.58 4.696-1.86 1.581-.279 3.17-.146 4.766.395 1.597.543 3.186 1.604 4.767 3.185.837.837 1.581 1.736 2.232 2.697.65.963 1.163 1.939 1.534 2.93.372.992.589 1.954.651 2.883.062.931-.062 1.83-.372 2.697 1.922-.867 3.86-1.209 5.813-1.023 1.952.186 3.875 1.225 5.766 3.116l.884.884c1.923 1.923 3.24 3.861 3.953 5.813.713 1.954.961 3.876.744 5.767s-.86 3.743-1.93 5.557c-1.069 1.813-2.411 3.527-4.022 5.138-2.016 2.016-3.992 3.448-5.929 4.302-1.937.853-3.782 1.287-5.533 1.302-1.752.016-3.341-.286-4.767-.907-1.426-.62-2.635-1.425-3.627-2.418-1.054-1.054-1.511-2.007-1.372-2.861.14-.852.86-1.93 2.162-3.232 1.488-1.488 2.659-2.301 3.511-2.441.852-.138 1.728.241 2.627 1.14.558.558 1.125.891 1.697 1 .574.109 1.155.07 1.744-.116.589-.185 1.171-.488 1.744-.907.576-.42 1.126-.893 1.653-1.421z" fill="url(#SVGID_00000139295890251570543310000009454697210456468661_)"/><path d="m405.628 89.499c.621.621 1.178 1.489 1.675 2.604.496 1.117.915 2.217 1.255 3.302l9.952 31.715c.31.992-.046 1.999-1.07 3.022-.558.558-1.209 1.023-1.953 1.395s-1.496.613-2.255.721c-.76.109-1.496.07-2.209-.116-.713-.185-1.333-.542-1.861-1.069-.403-.403-.697-.914-.883-1.535l-8.371-31.249-3.255-3.255-8.324 8.324 3.116 3.116c.62.62.775 1.52.464 2.698-.309 1.178-.945 2.248-1.906 3.208-.993.993-2.054 1.621-3.186 1.884-1.131.264-2.007.086-2.627-.535l-7.208-7.208c-.558-.558-.744-1.396-.558-2.511.186-1.116.682-2.076 1.488-2.883l16.509-16.509c.341-.341.76-.635 1.256-.884.496-.248 1.007-.418 1.535-.512.527-.092 1.023-.107 1.488-.046.465.063.837.233 1.116.512z" fill="url(#SVGID_00000142151911631123987700000017907376994767680431_)"/><path d="m424.561 91.818c-.94.94-1.925 1.699-2.955 2.278s-2.101.908-3.212.989c-1.112.081-2.241-.108-3.389-.569-1.148-.46-2.309-1.279-3.484-2.453l-7.184-7.184c-1.157-1.157-1.97-2.313-2.44-3.47s-.664-2.291-.582-3.403c.081-1.111.411-2.182.989-3.212.579-1.03 1.338-2.015 2.278-2.955s1.929-1.703 2.968-2.291c1.04-.587 2.115-.922 3.227-1.003 1.111-.081 2.245.113 3.402.583s2.314 1.283 3.47 2.44l7.184 7.184c1.175 1.175 1.993 2.336 2.453 3.484.461 1.148.65 2.277.57 3.388-.081 1.112-.416 2.188-1.003 3.227s-1.352 2.027-2.292 2.967zm-11.142-16.023c-.94-.94-1.844-1.41-2.711-1.41s-1.681.38-2.44 1.139-1.135 1.568-1.126 2.427.484 1.757 1.424 2.697l7.184 7.184c.94.94 1.839 1.415 2.697 1.424s1.668-.367 2.427-1.126 1.139-1.572 1.139-2.44-.47-1.771-1.41-2.711z" fill="url(#SVGID_00000062904675960638369490000014427976946308138934_)"/></g></g><path d="m23.604 442-13.995 13.995c-12.812 12.812-12.812 33.584 0 46.396 12.812 12.812 33.584 12.812 46.396 0l13.995-13.995s-46.396-46.396-46.396-46.396z" fill="url(#SVGID_00000007388497737020139910000002872964674325816754_)"/><path d="m23.604 442-13.995 13.995c-12.812 12.812-12.812 33.584 0 46.396 12.812 12.812 33.584 12.812 46.396 0l13.995-13.995s-46.396-46.396-46.396-46.396z" fill="url(#SVGID_00000065067577149018514400000011927262925114991294_)"/><path d="m23.604 442-13.995 13.995c-12.812 12.812-12.812 33.584 0 46.396 12.812 12.812 33.584 12.812 46.396 0l13.995-13.995s-46.396-46.396-46.396-46.396z" fill="url(#SVGID_00000024003920808160716930000005053678738416390277_)"/></g></svg>