<svg id="_13_Hygieia" enable-background="new 0 0 512 512" viewBox="0 0 512 512" xmlns="http://www.w3.org/2000/svg" xmlns:xlink="http://www.w3.org/1999/xlink"><linearGradient id="lg1"><stop offset="0" stop-color="#f3faff"/><stop offset="1" stop-color="#d5daf3"/></linearGradient><linearGradient id="SVGID_1_" gradientTransform="matrix(1 0 0 -1 0 514)" gradientUnits="userSpaceOnUse" x1="204.106" x2="263.188" xlink:href="#lg1" y1="110.933" y2="110.933"/><linearGradient id="lg2"><stop offset="0" stop-color="#dbd5ef" stop-opacity="0"/><stop offset=".2667" stop-color="#d8d2ec" stop-opacity=".023"/><stop offset=".4431" stop-color="#d1c9e2" stop-opacity=".098"/><stop offset=".5933" stop-color="#c4b9d1" stop-opacity=".225"/><stop offset=".7288" stop-color="#b2a4ba" stop-opacity=".405"/><stop offset=".8545" stop-color="#9a889c" stop-opacity=".638"/><stop offset=".9713" stop-color="#7e6678" stop-opacity=".92"/><stop offset="1" stop-color="#765d6e"/></linearGradient><linearGradient id="SVGID_00000148654933538475280250000017169612525282702230_" gradientTransform="matrix(1 0 0 -1 0 514)" gradientUnits="userSpaceOnUse" x1="210.246" x2="243.801" xlink:href="#lg2" y1="140.394" y2="140.394"/><linearGradient id="SVGID_00000021117683031617907870000012497346574127930806_" gradientTransform="matrix(1 0 0 -1 0 514)" gradientUnits="userSpaceOnUse" x1="227.512" x2="227.512" xlink:href="#lg2" y1="156.352" y2="211.229"/><linearGradient id="SVGID_00000153683393002250065390000005387292151612375192_" gradientTransform="matrix(1 0 0 -1 0 514)" gradientUnits="userSpaceOnUse" x1="227.511" x2="227.511" xlink:href="#lg2" y1="25.765" y2=".847"/><linearGradient id="SVGID_00000124848498150002407470000004687256379300907169_" gradientTransform="matrix(1 0 0 -1 0 514)" gradientUnits="userSpaceOnUse" x1="253.602" x2="228.069" xlink:href="#lg2" y1="18.821" y2="63.789"/><linearGradient id="SVGID_00000079466956199162703290000015677666278326039186_" gradientTransform="matrix(1 0 0 -1 0 514)" gradientUnits="userSpaceOnUse" x1="254.524" x2="249.189" xlink:href="#lg2" y1="17.813" y2="60.113"/><linearGradient id="SVGID_00000128449568530033285250000009657737071841818249_" gradientTransform="matrix(1 0 0 -1 0 514)" gradientUnits="userSpaceOnUse" x1="264.873" x2="345.664" xlink:href="#lg2" y1="28.645" y2="32.71"/><linearGradient id="SVGID_00000170985625604977191810000003573544793943460773_" gradientTransform="matrix(1 0 0 -1 0 514)" gradientUnits="userSpaceOnUse" x1="153.664" x2="290.16" xlink:href="#lg1" y1="396.409" y2="311.507"/><linearGradient id="SVGID_00000016791822529633730870000013877510851055316413_" gradientTransform="matrix(1 0 0 -1 0 514)" gradientUnits="userSpaceOnUse" x1="227.512" x2="227.512" xlink:href="#lg2" y1="314.356" y2="203.439"/><linearGradient id="SVGID_00000155868793892095713430000017909642678793138836_" gradientTransform="matrix(1 0 0 -1 0 514)" gradientUnits="userSpaceOnUse" x1="229.331" x2="388.033" xlink:href="#lg2" y1="338.167" y2="285.92"/><linearGradient id="SVGID_00000041984426652748374260000015153346041886165923_" gradientTransform="matrix(1 0 0 -1 0 514)" gradientUnits="userSpaceOnUse" x1="280.185" x2="315.785" y1="287.501" y2="225.669"><stop offset="0" stop-color="#fff" stop-opacity="0"/><stop offset=".0925" stop-color="#fff" stop-opacity=".024"/><stop offset=".2178" stop-color="#fff" stop-opacity=".092"/><stop offset=".3619" stop-color="#fff" stop-opacity=".203"/><stop offset=".52" stop-color="#fff" stop-opacity=".359"/><stop offset=".6897" stop-color="#fff" stop-opacity=".559"/><stop offset=".8661" stop-color="#fff" stop-opacity=".798"/><stop offset="1" stop-color="#fff"/></linearGradient><linearGradient id="SVGID_00000142855682006394932830000002975051041405627039_" gradientTransform="matrix(1 0 0 -1 0 514)" gradientUnits="userSpaceOnUse" x1="227.512" x2="227.512" xlink:href="#lg2" y1="325.196" y2="197.13"/><linearGradient id="SVGID_00000014608074628360634870000000895112572810074032_" gradientTransform="matrix(1 0 0 -1 0 514)" gradientUnits="userSpaceOnUse" x1="312.438" x2="287.54" xlink:href="#lg2" y1="209.354" y2="281.507"/><linearGradient id="lg3"><stop offset="0" stop-color="#c1e9af"/><stop offset=".1072" stop-color="#b6e4aa"/><stop offset=".2935" stop-color="#99d69e"/><stop offset=".5365" stop-color="#6bc18a"/><stop offset=".8238" stop-color="#2ca36f"/><stop offset="1" stop-color="#02905d"/></linearGradient><linearGradient id="SVGID_00000168802917722250479370000011289422917919569572_" gradientTransform="matrix(1 0 0 -1 0 514)" gradientUnits="userSpaceOnUse" x1="211.318" x2="380.521" xlink:href="#lg3" y1="426.498" y2="231.38"/><linearGradient id="lg4"><stop offset="0" stop-color="#026841" stop-opacity="0"/><stop offset=".2182" stop-color="#026841" stop-opacity=".033"/><stop offset=".4099" stop-color="#026841" stop-opacity=".137"/><stop offset=".5916" stop-color="#026841" stop-opacity=".31"/><stop offset=".7671" stop-color="#026841" stop-opacity=".553"/><stop offset=".9367" stop-color="#026841" stop-opacity=".864"/><stop offset="1" stop-color="#026841"/></linearGradient><linearGradient id="SVGID_00000126323517811572872520000011776656698620248501_" gradientTransform="matrix(1 0 0 -1 0 514)" gradientUnits="userSpaceOnUse" x1="406.852" x2="440.896" xlink:href="#lg4" y1="365.125" y2="336.67"/><linearGradient id="SVGID_00000124870202447882990560000013086603757386587293_" gradientTransform="matrix(1 0 0 -1 0 514)" gradientUnits="userSpaceOnUse" x1="429.096" x2="470.254" xlink:href="#lg4" y1="411.628" y2="416.201"/><linearGradient id="SVGID_00000165950255109382589980000001701189519963814820_" gradientTransform="matrix(1 0 0 -1 0 514)" gradientUnits="userSpaceOnUse" x1="200.617" x2="224.245" xlink:href="#lg4" y1="180.138" y2="173.278"/><linearGradient id="SVGID_00000028292550908551764830000000251581099033946253_" gradientTransform="matrix(1 0 0 -1 0 514)" gradientUnits="userSpaceOnUse" x1="185.128" x2="175.029" xlink:href="#lg4" y1="166.368" y2="143.884"/><linearGradient id="SVGID_00000094602955093658024660000007688483347561092254_" gradientTransform="matrix(1 0 0 -1 0 514)" gradientUnits="userSpaceOnUse" x1="191.652" x2="253.77" xlink:href="#lg3" y1="104.559" y2="40.917"/><linearGradient id="SVGID_00000015327698279285501290000008035357211745348768_" gradientTransform="matrix(1 0 0 -1 0 514)" gradientUnits="userSpaceOnUse" x1="224.65" x2="229.731" xlink:href="#lg4" y1="63.02" y2="49.555"/><linearGradient id="SVGID_00000039842378074178180080000017293295607925647502_" gradientTransform="matrix(1 0 0 -1 0 514)" gradientUnits="userSpaceOnUse" x1="223.426" x2="231.209" y1="65.062" y2="47.817"><stop offset="0" stop-color="#c1e9af" stop-opacity="0"/><stop offset=".1414" stop-color="#c1e9af" stop-opacity=".016"/><stop offset=".2738" stop-color="#c1e9af" stop-opacity=".065"/><stop offset=".4027" stop-color="#c1e9af" stop-opacity=".146"/><stop offset=".5294" stop-color="#c1e9af" stop-opacity=".26"/><stop offset=".6545" stop-color="#c1e9af" stop-opacity=".408"/><stop offset=".7785" stop-color="#c1e9af" stop-opacity=".589"/><stop offset=".8992" stop-color="#c1e9af" stop-opacity=".799"/><stop offset="1" stop-color="#c1e9af"/></linearGradient><linearGradient id="SVGID_00000044176575276354444780000001273574951942830512_" gradientTransform="matrix(1 0 0 -1 0 514)" gradientUnits="userSpaceOnUse" x1="246.014" x2="222.64" xlink:href="#lg4" y1="102.985" y2="124.58"/><linearGradient id="SVGID_00000074409444205968558820000008786877776043131038_" gradientTransform="matrix(1 0 0 -1 0 514)" gradientUnits="userSpaceOnUse" x1="273" x2="304.304" xlink:href="#lg4" y1="101.068" y2="101.068"/><linearGradient id="SVGID_00000104696012435886971920000000581576831737521327_" gradientTransform="matrix(1 0 0 -1 0 514)" gradientUnits="userSpaceOnUse" x1="308.347" x2="312.92" xlink:href="#lg4" y1="468.198" y2="440.505"/><linearGradient id="SVGID_00000053536724838926037610000010508537843285788560_" gradientTransform="matrix(1 0 0 -1 0 514)" gradientUnits="userSpaceOnUse" x1="275.984" x2="283.956" y1="475.969" y2="467.997"><stop offset="0" stop-color="#7a6d79"/><stop offset="1" stop-color="#593636"/></linearGradient><g><g><path d="m309.72 488.468c-37.537-6.567-54.351-12.747-63.151-33.527-3.021-7.134-4.42-14.85-4.42-22.597v-138.21h-29.274v138.21c0 7.747-1.399 15.463-4.42 22.597-8.8 20.78-25.615 26.96-63.151 33.527-24.62 4.305-43.35 13.486-30.383 20.936 3.086 1.773 6.627 2.596 10.186 2.596h204.811c3.559 0 7.1-.823 10.186-2.596 12.965-7.45-5.765-16.631-30.384-20.936z" fill="url(#SVGID_1_)"/><path d="m245.84 453.079c-2.507-6.607-3.692-13.656-3.692-20.736v-138.21h-29.274v138.21c0 7.08-1.184 14.128-3.692 20.736z" fill="url(#SVGID_00000148654933538475280250000017169612525282702230_)"/><path d="m212.875 294.133h29.274v80.791h-29.274z" fill="url(#SVGID_00000021117683031617907870000012497346574127930806_)"/><path d="m145.303 488.468c-24.619 4.305-43.349 13.486-30.384 20.936 3.086 1.773 6.627 2.596 10.187 2.596h204.811c3.559 0 7.1-.823 10.186-2.596 12.966-7.451-5.764-16.631-30.384-20.936-30.379-5.315-47.175-10.388-57.144-23.141h-50.128c-9.969 12.753-26.765 17.826-57.144 23.141z" fill="url(#SVGID_00000153683393002250065390000005387292151612375192_)"/><path d="m340.103 509.404c12.966-7.45-5.764-16.631-30.383-20.937-37.537-6.567-54.351-12.747-63.151-33.527-.26-.615-.492-1.239-.729-1.862h-36.657c-.236.623-.468 1.247-.729 1.862-6.154 14.531-16.239 21.92-34.577 27.298l-8.832 8.832 20.93 20.93h143.941c3.56 0 7.101-.823 10.187-2.596z" fill="url(#SVGID_00000124848498150002407470000004687256379300907169_)"/><path d="m340.103 509.404c12.966-7.45-5.764-16.631-30.383-20.937-37.537-6.567-54.351-12.747-63.151-33.527-.26-.615-.492-1.239-.729-1.862h-36.657c-.236.623-.468 1.247-.729 1.862-6.154 14.531-16.239 21.92-34.577 27.298l-8.832 8.832 20.93 20.93h143.941c3.56 0 7.101-.823 10.187-2.596z" fill="url(#SVGID_00000079466956199162703290000015677666278326039186_)"/><path d="m309.72 488.468c-36.703-6.421-53.591-12.476-62.551-32.168v55.7h82.748c3.559 0 7.1-.823 10.186-2.596 12.966-7.45-5.764-16.631-30.383-20.936z" fill="url(#SVGID_00000128449568530033285250000009657737071841818249_)"/></g><g><path d="m134.491 280.245c57.484 33.52 128.557 33.52 186.041 0 58.651-34.201 92.622-96.871 91.636-162.29-.217-14.398-11.97-25.953-26.37-25.953h-316.574c-14.4 0-26.153 11.555-26.37 25.953-.985 65.419 32.986 128.089 91.637 162.29z" fill="url(#SVGID_00000170985625604977191810000003573544793943460773_)"/><path d="m49.949 171.41c12.761 44.658 42.223 84.158 84.542 108.834 57.484 33.52 128.557 33.52 186.041 0 42.318-24.677 71.78-64.177 84.542-108.834z" fill="url(#SVGID_00000016791822529633730870000013877510851055316413_)"/><path d="m385.799 92.002h-183.691v211.612c40.329 5.596 82.09-2.182 118.424-23.369 58.651-34.201 92.622-96.871 91.636-162.29-.216-14.398-11.97-25.953-26.369-25.953z" fill="url(#SVGID_00000155868793892095713430000017909642678793138836_)"/><path d="m320.532 280.245c58.651-34.201 92.622-96.871 91.636-162.29-.217-14.398-11.97-25.953-26.37-25.953h-133.277l-157.437 157.437c11.466 11.796 24.654 22.203 39.407 30.806 57.484 33.52 128.557 33.52 186.041 0z" fill="url(#SVGID_00000041984426652748374260000015153346041886165923_)"/><path d="m49.949 171.41c12.761 44.658 42.223 84.158 84.542 108.834 57.484 33.52 128.557 33.52 186.041 0 42.318-24.677 71.78-64.177 84.542-108.834z" fill="url(#SVGID_00000142855682006394932830000002975051041405627039_)"/></g><path d="m193.859 278.89c-6.856 7.284-11.221 14.058-13.605 20.342 46.788 12.383 97.326 6.059 140.278-18.987 38.357-22.367 66.152-56.912 80.523-96.437-55.261 15.465-165.328 50.598-207.196 95.082z" fill="url(#SVGID_00000014608074628360634870000000895112572810074032_)"/><path d="m464.984 129.912c-9.259 31.615-32.364 56.067-63.402 67.09-12.702 4.512-25.778 8.917-39.613 13.589-42.531 14.337-86.517 29.178-120.762 47.471-35.892 19.17-54.389 38.65-56.559 59.553-2.395 22.976 8.553 32.866 28.226 41.056v28.654c-12.06-4.298-24.505-9.58-34.481-17.855-15.888-13.172-22.73-31.551-20.336-54.613 3.165-30.418 26.237-56.709 70.554-80.369 36.202-19.341 81.246-34.534 124.815-49.224 13.739-4.64 26.708-9.013 39.206-13.45 22.859-8.115 39.88-26.13 46.701-49.406 6.821-23.297 2.192-47.653-12.691-66.823-12.231-15.77-29.883-25.831-49.684-28.333-19.396-2.447-38.566 2.646-54.155 14.337-.558.419-1.021.955-1.366 1.562l-4.128 7.259-2.288 3.657c-3.592 5.763-9.045 10.125-15.449 12.37l-33.742 11.791c-1.721.599-3.496.887-5.271.887-3.571 0-7.089-1.187-9.965-3.475-5.88-4.694-7.698-12.851-4.362-19.587l15.193-30.685c3.838-7.762 12.702-11.654 20.998-9.173 7.73 2.299 16.048 1.454 23.158-2.352 8.714-4.662 39.441-16.957 74.713-13.108 26.943 2.94 50.85 17.043 67.464 38.458 20.209 26.034 26.485 59.093 17.226 90.719z" fill="url(#SVGID_00000168802917722250479370000011289422917919569572_)"/><path d="m380.295.735c-23.294-2.542-44.6 1.957-58.898 6.649v35.838l.042-.073c.345-.607.808-1.143 1.366-1.562 15.589-11.691 34.758-16.784 54.155-14.337 19.801 2.502 37.453 12.563 49.684 28.333 14.883 19.17 19.512 43.526 12.691 66.823-6.821 23.276-23.842 41.291-46.701 49.406-12.499 4.437-25.467 8.81-39.206 13.45-10.639 3.587-21.365 7.206-32.03 10.906v28.32c13.433-4.746 27.075-9.348 40.573-13.898 13.835-4.672 26.911-9.077 39.613-13.589 31.038-11.023 54.143-35.475 63.402-67.09 9.259-31.626 2.983-64.685-17.224-90.719-16.617-21.414-40.524-35.517-67.467-38.457z" fill="url(#SVGID_00000126323517811572872520000011776656698620248501_)"/><path d="m380.295.735c-23.294-2.542-44.6 1.957-58.898 6.649v35.838l.042-.073c.345-.607.808-1.143 1.366-1.562 15.589-11.691 34.758-16.784 54.155-14.337 19.801 2.502 37.453 12.563 49.684 28.333 14.883 19.17 19.512 43.526 12.691 66.823-6.821 23.276-23.842 41.291-46.701 49.406-12.499 4.437-25.467 8.81-39.206 13.45-10.639 3.587-21.365 7.206-32.03 10.906v28.32c13.433-4.746 27.075-9.348 40.573-13.898 13.835-4.672 26.911-9.077 39.613-13.589 31.038-11.023 54.143-35.475 63.402-67.09 9.259-31.626 2.983-64.685-17.224-90.719-16.617-21.414-40.524-35.517-67.467-38.457z" fill="url(#SVGID_00000124870202447882990560000013086603757386587293_)"/><path d="m202.849 284.606h-34.234c-5.954 9.628-9.458 19.69-10.556 30.25-2.395 23.062 4.448 41.441 20.336 54.613 9.975 8.275 22.42 13.557 34.481 17.855v-28.654c-19.673-8.19-30.621-18.08-28.226-41.056 1.178-11.363 7.196-22.306 18.199-33.008z" fill="url(#SVGID_00000165950255109382589980000001701189519963814820_)"/><path d="m202.849 284.606h-34.234c-5.954 9.628-9.458 19.69-10.556 30.25-2.395 23.062 4.448 41.441 20.336 54.613 9.975 8.275 22.42 13.557 34.481 17.855v-28.654c-19.673-8.19-30.621-18.08-28.226-41.056 1.178-11.363 7.196-22.306 18.199-33.008z" fill="url(#SVGID_00000028292550908551764830000000251581099033946253_)"/><g><path d="m288.368 410.878c2.823 22.495-19.01 36.149-41.911 43.793-4.897 1.625-9.847 2.983-14.615 4.095-14.808 3.443-27.007 9.468-36.811 14.792-3.047 1.647-5.87 3.336-8.468 5.004-7.559 4.875-13.215 8.687-17.149 12.482-2.374 2.299-6.255-.139-5.185-3.261.385-1.133.834-2.256 1.347-3.357 7.623-16.711 27.702-29.274 45.6-37.731 3.603-1.711 7.121-3.25 10.424-4.619 8.265-3.421 15.107-6.404 20.56-9.248 11.568-6.041 16.882-11.504 16.134-19.448-.62-6.672-5.795-11.023-16.144-15.503v-28.782c21.146 7.431 43.182 17.62 46.218 41.783z" fill="url(#SVGID_00000094602955093658024660000007688483347561092254_)"/><path d="m288.112 420.148c-3.304 17.064-22.089 27.991-41.655 34.523-4.897 1.625-9.847 2.983-14.615 4.095-14.808 3.443-27.007 9.468-36.811 14.792-3.047 1.647-5.87 3.336-8.468 5.004-7.559 4.875-13.215 8.687-17.149 12.482-2.374 2.299-6.255-.139-5.185-3.261.385-1.133.834-2.256 1.347-3.357 7.623-16.711 27.702-29.274 45.6-37.731 3.603-1.711 7.121-3.25 10.424-4.619 8.265-3.421 15.107-6.404 20.56-9.248 7.976-4.17 12.98-8.062 15.065-12.68z" fill="url(#SVGID_00000015327698279285501290000008035357211745348768_)"/><path d="m288.112 420.148c-3.304 17.064-22.089 27.991-41.655 34.523-4.897 1.625-9.847 2.983-14.615 4.095-14.808 3.443-27.007 9.468-36.811 14.792-3.047 1.647-5.87 3.336-8.468 5.004-7.559 4.875-13.215 8.687-17.149 12.482-2.374 2.299-6.255-.139-5.185-3.261.385-1.133.834-2.256 1.347-3.357 7.623-16.711 27.702-29.274 45.6-37.731 3.603-1.711 7.121-3.25 10.424-4.619 8.265-3.421 15.107-6.404 20.56-9.248 7.976-4.17 12.98-8.062 15.065-12.68z" fill="url(#SVGID_00000039842378074178180080000017293295607925647502_)"/><path d="m242.148 369.095v28.782c10.35 4.48 15.524 8.831 16.144 15.503.748 7.944-4.565 13.407-16.134 19.448-.821.428-1.685.861-2.569 1.297v22.644c2.285-.644 4.581-1.339 6.867-2.098 22.902-7.645 44.734-21.298 41.911-43.793-3.035-24.163-25.071-34.352-46.219-41.783z" fill="url(#SVGID_00000044176575276354444780000001273574951942830512_)"/><path d="m242.148 369.095v28.782c10.35 4.48 15.524 8.831 16.144 15.503.748 7.944-4.565 13.407-16.134 19.448-.821.428-1.685.861-2.569 1.297v22.644c2.285-.644 4.581-1.339 6.867-2.098 22.902-7.645 44.734-21.298 41.911-43.793-3.035-24.163-25.071-34.352-46.219-41.783z" fill="url(#SVGID_00000074409444205968558820000008786877776043131038_)"/></g><path d="m250.595 75.641c2.876 2.288 6.394 3.475 9.965 3.475 1.775 0 3.55-.289 5.271-.887l33.743-11.793c6.404-2.245 11.857-6.607 15.449-12.37l2.288-3.657 4.128-7.259c.345-.607.809-1.143 1.367-1.562 13.082-9.81 28.687-14.953 44.83-14.914v-26.666c-29.773-.235-54.402 9.742-62.054 13.835-7.11 3.806-15.428 4.651-23.158 2.352-8.297-2.48-17.16 1.411-20.998 9.173l-15.193 30.685c-3.336 6.736-1.519 14.894 4.362 19.588z" fill="url(#SVGID_00000104696012435886971920000000581576831737521327_)"/><circle cx="279.795" cy="41.842" fill="url(#SVGID_00000053536724838926037610000010508537843285788560_)" r="8.945"/></g></svg>