<svg id="_14_Pregnancy_Test" enable-background="new 0 0 512 512" viewBox="0 0 512 512" xmlns="http://www.w3.org/2000/svg" xmlns:xlink="http://www.w3.org/1999/xlink"><linearGradient id="lg1"><stop offset="0" stop-color="#f3faff"/><stop offset="1" stop-color="#d5daf3"/></linearGradient><linearGradient id="SVGID_1_" gradientTransform="matrix(.707 .707 .707 -.707 -223.167 250.077)" gradientUnits="userSpaceOnUse" x1="316.751" x2="362.12" xlink:href="#lg1" y1="111.002" y2="111.002"/><linearGradient id="lg2"><stop offset="0" stop-color="#dbd5ef" stop-opacity="0"/><stop offset=".2667" stop-color="#d8d2ec" stop-opacity=".023"/><stop offset=".4431" stop-color="#d1c9e2" stop-opacity=".098"/><stop offset=".5933" stop-color="#c4b9d1" stop-opacity=".225"/><stop offset=".7288" stop-color="#b2a4ba" stop-opacity=".405"/><stop offset=".8545" stop-color="#9a889c" stop-opacity=".638"/><stop offset=".9713" stop-color="#7e6678" stop-opacity=".92"/><stop offset="1" stop-color="#765d6e"/></linearGradient><linearGradient id="SVGID_00000016790053893013063860000015842386425173231754_" gradientTransform="matrix(1 0 0 -1 0 514)" gradientUnits="userSpaceOnUse" x1="95.413" x2="135.645" xlink:href="#lg2" y1="102.324" y2="62.092"/><linearGradient id="SVGID_00000025430732239358395330000017751946052563302843_" gradientTransform="matrix(1 0 0 -1 0 514)" gradientUnits="userSpaceOnUse" x1="95.791" x2="152.098" xlink:href="#lg2" y1="97.793" y2="154.1"/><linearGradient id="lg3"><stop offset="0" stop-color="#feca9c"/><stop offset=".1252" stop-color="#fdc391"/><stop offset=".3429" stop-color="#fbb174"/><stop offset=".6269" stop-color="#f89346"/><stop offset=".9631" stop-color="#f46b07"/><stop offset="1" stop-color="#f46700"/></linearGradient><linearGradient id="SVGID_00000174571268900975418740000000207138130732578482_" gradientTransform="matrix(.707 .707 .707 -.707 -223.167 250.077)" gradientUnits="userSpaceOnUse" x1="295.065" x2="377.903" xlink:href="#lg3" y1="404.886" y2="404.886"/><linearGradient id="SVGID_00000003812027615802372840000005257524321505254568_" gradientTransform="matrix(.707 .707 .707 -.707 -223.167 250.077)" gradientUnits="userSpaceOnUse" x1="343.01" x2="343.01" xlink:href="#lg2" y1="42.587" y2="12.109"/><linearGradient id="lg4"><stop offset="0" stop-color="#ff7920" stop-opacity="0"/><stop offset=".088" stop-color="#fe7720" stop-opacity=".028"/><stop offset=".2178" stop-color="#fe7221" stop-opacity=".107"/><stop offset=".3734" stop-color="#fe6b22" stop-opacity=".236"/><stop offset=".549" stop-color="#fe6024" stop-opacity=".415"/><stop offset=".7413" stop-color="#fd5227" stop-opacity=".645"/><stop offset=".9447" stop-color="#fd422a" stop-opacity=".92"/><stop offset="1" stop-color="#fd3e2b"/></linearGradient><linearGradient id="SVGID_00000024700728433746563660000010031123600382738835_" gradientTransform="matrix(.707 .707 .707 -.707 -223.167 250.077)" gradientUnits="userSpaceOnUse" x1="343.016" x2="343.016" xlink:href="#lg4" y1="213.054" y2="175.861"/><linearGradient id="SVGID_00000115486206854619325800000001550752104730492325_" gradientTransform="matrix(.707 .707 .707 -.707 -223.167 250.077)" gradientUnits="userSpaceOnUse" x1="361.242" x2="423.371" xlink:href="#lg4" y1="404.886" y2="404.886"/><linearGradient id="SVGID_00000170969670264603682200000003998557505947277715_" gradientTransform="matrix(.707 .707 .707 -.707 -223.167 250.077)" gradientUnits="userSpaceOnUse" x1="344.812" x2="288.13" xlink:href="#lg3" y1="303.247" y2="346.46"/><linearGradient id="SVGID_00000112591120933645497450000016443562297755422131_" gradientTransform="matrix(1 0 0 -1 0 514)" gradientUnits="userSpaceOnUse" x1="169.589" x2="141.431" xlink:href="#lg4" y1="219.034" y2="262.162"/><linearGradient id="SVGID_00000011731570988950512510000007804700621459124361_" gradientTransform="matrix(.707 .707 .707 -.707 -223.167 250.077)" gradientUnits="userSpaceOnUse" x1="318.641" x2="366.228" xlink:href="#lg1" y1="304.621" y2="304.621"/><linearGradient id="SVGID_00000122700203911693651730000000181232794761218696_" gradientTransform="matrix(.707 .707 .707 -.707 -223.167 250.077)" gradientUnits="userSpaceOnUse" x1="351.136" x2="301.213" xlink:href="#lg2" y1="305.12" y2="302.055"/><linearGradient id="SVGID_00000170277512473307152440000016383541232323423399_" gradientTransform="matrix(.707 .707 .707 -.707 -223.167 250.077)" gradientUnits="userSpaceOnUse" x1="344.416" x2="300.186" xlink:href="#lg2" y1="303.549" y2="337.268"/><linearGradient id="lg5"><stop offset="0" stop-color="#fe646f"/><stop offset=".235" stop-color="#fa5964"/><stop offset=".6415" stop-color="#ef3d49"/><stop offset="1" stop-color="#e41f2d"/></linearGradient><linearGradient id="SVGID_00000071528898123380297760000004751660697171721890_" gradientTransform="matrix(.707 .707 .707 -.707 -223.167 250.077)" gradientUnits="userSpaceOnUse" x1="343.01" x2="343.01" xlink:href="#lg5" y1="331.998" y2="319.041"/><linearGradient id="SVGID_00000175317996308753165170000006628503076739191226_" gradientTransform="matrix(.707 .707 .707 -.707 -223.167 250.077)" gradientUnits="userSpaceOnUse" x1="343.01" x2="343.01" xlink:href="#lg5" y1="290.864" y2="277.907"/><linearGradient id="lg6"><stop offset="0" stop-color="#a72b2b" stop-opacity="0"/><stop offset=".1561" stop-color="#a32b2a" stop-opacity=".066"/><stop offset=".386" stop-color="#982c29" stop-opacity=".248"/><stop offset=".6615" stop-color="#872f28" stop-opacity=".545"/><stop offset=".97" stop-color="#6f3226" stop-opacity=".956"/><stop offset="1" stop-color="#6d3326"/></linearGradient><linearGradient id="SVGID_00000142862603902120858180000008272476698055952520_" gradientTransform="matrix(.707 .707 .707 -.707 -223.167 250.077)" gradientUnits="userSpaceOnUse" x1="325.317" x2="307.143" xlink:href="#lg6" y1="325.188" y2="325.188"/><linearGradient id="SVGID_00000011721533812181922330000012402392671106403986_" gradientTransform="matrix(.707 .707 .707 -.707 -223.167 250.077)" gradientUnits="userSpaceOnUse" x1="325.317" x2="307.143" xlink:href="#lg6" y1="284.054" y2="284.054"/><linearGradient id="SVGID_00000035508790987222712190000016765090531916477622_" gradientTransform="matrix(1 0 0 -1 0 514)" gradientUnits="userSpaceOnUse" x1="99.084" x2="164.65" xlink:href="#lg5" y1="326.866" y2="261.3"/><linearGradient id="SVGID_00000110464709696824214530000017020893519281769148_" gradientTransform="matrix(1 0 0 -1 0 514)" gradientUnits="userSpaceOnUse" x1="130.698" x2="130.698" xlink:href="#lg6" y1="285.835" y2="236.316"/><linearGradient id="SVGID_00000039822100046586913910000007453979723930415771_" gradientTransform="matrix(1 0 0 -1 0 514)" gradientUnits="userSpaceOnUse" x1="139.906" x2="189.494" xlink:href="#lg6" y1="295.252" y2="295.252"/><linearGradient id="SVGID_00000060738158341512878530000010693220251614153346_" gradientTransform="matrix(1 0 0 -1 0 514)" gradientUnits="userSpaceOnUse" x1="150.89" x2="179.739" y1="275.06" y2="246.21"><stop offset="0" stop-color="#e41f2d" stop-opacity="0"/><stop offset=".0725" stop-color="#e62533" stop-opacity=".093"/><stop offset=".3356" stop-color="#ee3b48" stop-opacity=".411"/><stop offset=".5691" stop-color="#f54c58" stop-opacity=".664"/><stop offset=".7644" stop-color="#f95964" stop-opacity=".846"/><stop offset=".914" stop-color="#fc616c" stop-opacity=".958"/><stop offset="1" stop-color="#fe646f"/></linearGradient><linearGradient id="SVGID_00000046333933879172451480000003253250067912383656_" gradientTransform="matrix(1 0 0 -1 0 514)" gradientUnits="userSpaceOnUse" x1="347.267" x2="412.833" y1="269.987" y2="204.42"><stop offset="0" stop-color="#99e6fc"/><stop offset=".1325" stop-color="#8ee1fb"/><stop offset=".3627" stop-color="#71d5f9"/><stop offset=".6631" stop-color="#43c2f5"/><stop offset="1" stop-color="#08a9f1"/></linearGradient><linearGradient id="lg7"><stop offset="0" stop-color="#2740b0" stop-opacity="0"/><stop offset=".2505" stop-color="#263fae" stop-opacity=".023"/><stop offset=".4239" stop-color="#253dab" stop-opacity=".095"/><stop offset=".5741" stop-color="#233ba4" stop-opacity=".218"/><stop offset=".711" stop-color="#21379b" stop-opacity=".393"/><stop offset=".8389" stop-color="#1e3290" stop-opacity=".618"/><stop offset=".9585" stop-color="#1a2c82" stop-opacity=".89"/><stop offset="1" stop-color="#192a7d"/></linearGradient><linearGradient id="SVGID_00000011722391366049622540000000420006591495513015_" gradientTransform="matrix(1 0 0 -1 0 514)" gradientUnits="userSpaceOnUse" x1="378.881" x2="378.881" xlink:href="#lg7" y1="228.956" y2="179.436"/><linearGradient id="SVGID_00000171693329868939263880000008902525552205293471_" gradientTransform="matrix(1 0 0 -1 0 514)" gradientUnits="userSpaceOnUse" x1="388.089" x2="437.676" xlink:href="#lg7" y1="238.373" y2="238.373"/><linearGradient id="SVGID_00000168815552632324117360000013125461290606166433_" gradientTransform="matrix(1 0 0 -1 0 514)" gradientUnits="userSpaceOnUse" x1="399.072" x2="427.922" y1="218.181" y2="189.331"><stop offset="0" stop-color="#08a9f1" stop-opacity="0"/><stop offset=".0927" stop-color="#0baaf1" stop-opacity=".025"/><stop offset=".2192" stop-color="#15aef2" stop-opacity=".094"/><stop offset=".3651" stop-color="#26b5f3" stop-opacity=".208"/><stop offset=".5256" stop-color="#3dbff5" stop-opacity=".367"/><stop offset=".698" stop-color="#5acbf7" stop-opacity=".571"/><stop offset=".8776" stop-color="#7edaf9" stop-opacity=".816"/><stop offset="1" stop-color="#99e6fc"/></linearGradient><g><g><g><path d="m130.415 309.356 72.227 72.227-125.531 125.531c-6.508 6.508-17.074 6.508-23.582 0l-48.645-48.645c-6.508-6.508-6.507-17.074 0-23.582z" fill="url(#SVGID_1_)"/><path d="m130.415 309.356 72.227 72.227-125.531 125.531c-6.508 6.508-17.074 6.508-23.582 0l-48.645-48.645c-6.508-6.508-6.507-17.074 0-23.582z" fill="url(#SVGID_00000016790053893013063860000015842386425173231754_)"/><path d="m46.229 393.544 84.189-84.189 72.225 72.225-84.189 84.189z" fill="url(#SVGID_00000025430732239358395330000017751946052563302843_)"/><path d="m351.064 35.815c-24.47 62.448-65.334 117.151-118.288 158.337l-48.699 37.877-92.953 72.274c-4.466 3.46-4.878 10.068-.885 14.06l103.396 103.397c3.993 3.993 10.601 3.58 14.071-.875l72.274-92.953 37.867-48.709c41.186-52.954 95.889-93.818 158.337-118.288 7.604-2.977 14.081-7.322 19.361-12.602 20.99-20.99 22.891-56.725-.061-79.677l-52.142-52.142c-28.714-28.714-77.463-18.526-92.278 19.301z" fill="url(#SVGID_00000174571268900975418740000000207138130732578482_)"/><path d="m46.225 393.547-41.341 41.341c-6.512 6.512-6.512 17.07 0 23.582l48.645 48.645c6.512 6.512 17.07 6.512 23.582 0l41.341-41.341z" fill="url(#SVGID_00000003812027615802372840000005257524321505254568_)"/><path d="m184.077 232.03-92.953 72.274c-4.466 3.46-4.878 10.068-.885 14.06l103.396 103.396c3.993 3.993 10.601 3.581 14.071-.875l72.274-92.953 5.376-6.914-94.365-94.365z" fill="url(#SVGID_00000024700728433746563660000010031123600382738835_)"/><path d="m495.484 68.656-51.731-51.731-327.477 327.477 77.358 77.358c3.993 3.993 10.601 3.581 14.071-.875l72.274-92.953 37.867-48.709c41.186-52.954 95.889-93.818 158.337-118.288 7.604-2.977 14.081-7.322 19.361-12.602 20.991-20.99 22.892-56.725-.06-79.677z" fill="url(#SVGID_00000115486206854619325800000001550752104730492325_)"/></g><path d="m198.664 241.109c32.573-32.573 75.146-42.81 95.09-22.866s9.707 62.518-22.866 95.09-75.146 42.81-95.09 22.866-9.706-62.517 22.866-95.09z" fill="url(#SVGID_00000170969670264603682200000003998557505947277715_)"/><path d="m283.241 323.736-94.969-94.969-4.195 3.263-92.953 72.274c-4.466 3.46-4.878 10.068-.885 14.06l103.396 103.396c3.993 3.993 10.601 3.58 14.071-.875l72.274-92.953z" fill="url(#SVGID_00000112591120933645497450000016443562297755422131_)"/><g><path d="m208.336 250.781c26.378-26.378 59.599-35.924 74.202-21.321s5.057 47.824-21.321 74.202-59.599 35.924-74.202 21.321c-14.602-14.603-5.057-47.824 21.321-74.202z" fill="url(#SVGID_00000011731570988950512510000007804700621459124361_)"/><path d="m208.336 250.781c26.378-26.378 59.599-35.924 74.202-21.321s5.057 47.824-21.321 74.202-59.599 35.924-74.202 21.321c-14.602-14.603-5.057-47.824 21.321-74.202z" fill="url(#SVGID_00000122700203911693651730000000181232794761218696_)"/><path d="m208.336 250.781c26.378-26.378 59.599-35.924 74.202-21.321s5.057 47.824-21.321 74.202-59.599 35.924-74.202 21.321c-14.602-14.603-5.057-47.824 21.321-74.202z" fill="url(#SVGID_00000170277512473307152440000016383541232323423399_)"/></g><g><path d="m268.311 295.94-52.252-52.252c5.509-4.62 11.185-8.552 16.836-11.705l47.121 47.121c-3.153 5.651-7.085 11.327-11.705 16.836z" fill="url(#SVGID_00000071528898123380297760000004751660697171721890_)"/><path d="m253.495 310.756c-5.509 4.62-11.185 8.552-16.836 11.705l-47.121-47.121c3.152-5.651 7.085-11.328 11.705-16.836z" fill="url(#SVGID_00000175317996308753165170000006628503076739191226_)"/></g><g><path d="m268.311 295.94-52.252-52.252c5.509-4.62 11.185-8.552 16.836-11.705l47.121 47.121c-3.153 5.651-7.085 11.327-11.705 16.836z" fill="url(#SVGID_00000142862603902120858180000008272476698055952520_)"/><path d="m253.495 310.756c-5.509 4.62-11.185 8.552-16.836 11.705l-47.121-47.121c3.152-5.651 7.085-11.328 11.705-16.836z" fill="url(#SVGID_00000011721533812181922330000012402392671106403986_)"/></g></g><g><circle cx="130.698" cy="218.748" fill="url(#SVGID_00000035508790987222712190000016765090531916477622_)" r="58.431"/><path d="m160.934 208.427h-19.915v-19.915c0-2.913-2.361-5.274-5.274-5.274h-10.094c-2.913 0-5.274 2.361-5.274 5.274v19.915h-19.915c-2.913 0-5.274 2.362-5.274 5.274v10.094c0 2.913 2.361 5.274 5.274 5.274h19.915v19.915c0 2.913 2.361 5.274 5.274 5.274h10.094c2.913 0 5.274-2.361 5.274-5.274v-19.914h19.915c2.913 0 5.274-2.361 5.274-5.274v-10.094c.001-2.914-2.361-5.275-5.274-5.275z" fill="#fff"/><path d="m72.267 218.748c0 32.271 26.16 58.431 58.431 58.431s58.431-26.161 58.431-58.431c0-1.615-.069-3.215-.197-4.797h-116.468c-.129 1.582-.197 3.182-.197 4.797z" fill="url(#SVGID_00000110464709696824214530000017020893519281769148_)"/><path d="m130.698 160.317c-3.764 0-7.444.36-11.01 1.04v114.782c3.566.68 7.246 1.04 11.01 1.04 32.271 0 58.431-26.161 58.431-58.431 0-32.271-26.16-58.431-58.431-58.431z" fill="url(#SVGID_00000039822100046586913910000007453979723930415771_)"/><path d="m171.769 177.191-82.629 82.628c10.593 10.717 25.298 17.36 41.557 17.36 32.271 0 58.431-26.161 58.431-58.431.001-16.259-6.642-30.965-17.359-41.557z" fill="url(#SVGID_00000060738158341512878530000010693220251614153346_)"/></g><g><circle cx="378.881" cy="275.627" fill="url(#SVGID_00000046333933879172451480000003253250067912383656_)" r="58.431"/><path d="m348.644 265.306h60.473c2.913 0 5.274 2.361 5.274 5.274v10.094c0 2.913-2.361 5.274-5.274 5.274h-60.473c-2.913 0-5.274-2.361-5.274-5.274v-10.094c0-2.913 2.361-5.274 5.274-5.274z" fill="#fff"/><path d="m320.45 275.627c0 32.271 26.16 58.431 58.431 58.431s58.431-26.161 58.431-58.431c0-1.616-.069-3.215-.197-4.797h-116.468c-.129 1.583-.197 3.182-.197 4.797z" fill="url(#SVGID_00000011722391366049622540000000420006591495513015_)"/><path d="m378.881 217.196c-3.764 0-7.444.36-11.01 1.04v114.781c3.566.68 7.246 1.04 11.01 1.04 32.271 0 58.431-26.161 58.431-58.431s-26.161-58.43-58.431-58.43z" fill="url(#SVGID_00000171693329868939263880000008902525552205293471_)"/><path d="m419.952 234.07-82.628 82.628c10.593 10.717 25.298 17.36 41.557 17.36 32.271 0 58.431-26.161 58.431-58.431 0-16.259-6.643-30.965-17.36-41.557z" fill="url(#SVGID_00000168815552632324117360000013125461290606166433_)"/></g></g></svg>