<svg id="_15_Tube" enable-background="new 0 0 512 512" viewBox="0 0 512 512" xmlns="http://www.w3.org/2000/svg" xmlns:xlink="http://www.w3.org/1999/xlink"><linearGradient id="lg1"><stop offset="0" stop-color="#f3faff"/><stop offset="1" stop-color="#d5daf3"/></linearGradient><linearGradient id="SVGID_1_" gradientTransform="matrix(1 0 0 -1 0 514)" gradientUnits="userSpaceOnUse" x1="117.544" x2="195.222" xlink:href="#lg1" y1="248.922" y2="248.922"/><linearGradient id="SVGID_00000013165577490994484910000017836687348942856101_" gradientTransform="matrix(1 0 0 -1 0 514)" gradientUnits="userSpaceOnUse" x1="133.293" x2="216.87" y1="166.232" y2="166.232"><stop offset="0" stop-color="#99e6fc"/><stop offset=".1325" stop-color="#8ee1fb"/><stop offset=".3627" stop-color="#71d5f9"/><stop offset=".6631" stop-color="#43c2f5"/><stop offset="1" stop-color="#08a9f1"/></linearGradient><linearGradient id="lg2"><stop offset="0" stop-color="#2740b0" stop-opacity="0"/><stop offset=".2505" stop-color="#263fae" stop-opacity=".023"/><stop offset=".4239" stop-color="#253dab" stop-opacity=".095"/><stop offset=".5741" stop-color="#233ba4" stop-opacity=".218"/><stop offset=".711" stop-color="#21379b" stop-opacity=".393"/><stop offset=".8389" stop-color="#1e3290" stop-opacity=".618"/><stop offset=".9585" stop-color="#1a2c82" stop-opacity=".89"/><stop offset="1" stop-color="#192a7d"/></linearGradient><linearGradient id="SVGID_00000132794727738987711330000010650425869693217203_" gradientTransform="matrix(1 0 0 -1 0 514)" gradientUnits="userSpaceOnUse" x1="180.335" x2="180.335" xlink:href="#lg2" y1="199.88" y2="19.848"/><linearGradient id="SVGID_00000121270494384018945870000003252166938071655599_" gradientTransform="matrix(1 0 0 -1 0 514)" gradientUnits="userSpaceOnUse" x1="150.703" x2="258.686" xlink:href="#lg2" y1="166.232" y2="166.232"/><linearGradient id="SVGID_00000009557215951799491850000015129118013693749431_" gradientTransform="matrix(1 0 0 -1 0 514)" gradientUnits="userSpaceOnUse" x1="243.11" x2="280.42" y1="118.391" y2="85.47"><stop offset="0" stop-color="#08a9f1" stop-opacity="0"/><stop offset=".0927" stop-color="#0baaf1" stop-opacity=".025"/><stop offset=".2192" stop-color="#15aef2" stop-opacity=".094"/><stop offset=".3651" stop-color="#26b5f3" stop-opacity=".208"/><stop offset=".5256" stop-color="#3dbff5" stop-opacity=".367"/><stop offset=".698" stop-color="#5acbf7" stop-opacity=".571"/><stop offset=".8776" stop-color="#7edaf9" stop-opacity=".816"/><stop offset="1" stop-color="#99e6fc"/></linearGradient><linearGradient id="lg3"><stop offset="0" stop-color="#dbd5ef" stop-opacity="0"/><stop offset=".2667" stop-color="#d8d2ec" stop-opacity=".023"/><stop offset=".4431" stop-color="#d1c9e2" stop-opacity=".098"/><stop offset=".5933" stop-color="#c4b9d1" stop-opacity=".225"/><stop offset=".7288" stop-color="#b2a4ba" stop-opacity=".405"/><stop offset=".8545" stop-color="#9a889c" stop-opacity=".638"/><stop offset=".9713" stop-color="#7e6678" stop-opacity=".92"/><stop offset="1" stop-color="#765d6e"/></linearGradient><linearGradient id="SVGID_00000183217356055765519520000001903826785196495794_" gradientTransform="matrix(1 0 0 -1 0 514)" gradientUnits="userSpaceOnUse" x1="180.335" x2="180.335" xlink:href="#lg3" y1="119.107" y2="-7.33"/><linearGradient id="SVGID_00000165236335816798478440000009941476301186915213_" gradientTransform="matrix(1 0 0 -1 0 514)" gradientUnits="userSpaceOnUse" x1="184.694" x2="278.25" xlink:href="#lg3" y1="248.922" y2="248.922"/><linearGradient id="SVGID_00000049938814507233555550000014994693640618530999_" gradientTransform="matrix(1 0 0 -1 0 514)" gradientUnits="userSpaceOnUse" x1="180.335" x2="180.335" xlink:href="#lg3" y1="427.835" y2="488"/><linearGradient id="SVGID_00000142161123941636835260000004706818420111679104_" gradientTransform="matrix(1 0 0 -1 0 514)" gradientUnits="userSpaceOnUse" x1="180.335" x2="180.335" xlink:href="#lg1" y1="504.891" y2="479.126"/><linearGradient id="lg4"><stop offset="0" stop-color="#c1e9af"/><stop offset=".1072" stop-color="#b6e4aa"/><stop offset=".2935" stop-color="#99d69e"/><stop offset=".5365" stop-color="#6bc18a"/><stop offset=".8238" stop-color="#2ca36f"/><stop offset="1" stop-color="#02905d"/></linearGradient><linearGradient id="SVGID_00000108278590724104719360000016827219794529700535_" gradientTransform="matrix(.707 .707 .707 -.707 -1353.913 1116.1)" gradientUnits="userSpaceOnUse" x1="674.555" x2="742.502" xlink:href="#lg4" y1="1721.132" y2="1721.132"/><linearGradient id="lg5"><stop offset="0" stop-color="#026841" stop-opacity="0"/><stop offset=".2182" stop-color="#026841" stop-opacity=".033"/><stop offset=".4099" stop-color="#026841" stop-opacity=".137"/><stop offset=".5916" stop-color="#026841" stop-opacity=".31"/><stop offset=".7671" stop-color="#026841" stop-opacity=".553"/><stop offset=".9367" stop-color="#026841" stop-opacity=".864"/><stop offset="1" stop-color="#026841"/></linearGradient><linearGradient id="SVGID_00000085945867923283548970000016739036055532167305_" gradientTransform="matrix(.707 .707 .707 -.707 -4054.555 1116.103)" gradientUnits="userSpaceOnUse" x1="2588.895" x2="2619.204" xlink:href="#lg5" y1="3632.612" y2="3629.938"/><linearGradient id="SVGID_00000163046590354488713770000007751597296501107617_" gradientTransform="matrix(.707 .707 .707 -.707 -4054.555 1116.103)" gradientUnits="userSpaceOnUse" x1="2622.13" x2="2657.193" xlink:href="#lg5" y1="3629.655" y2="3626.386"/><linearGradient id="SVGID_00000071531291264606839360000011849374277097544867_" gradientTransform="matrix(.707 .707 .707 -.707 -4054.555 1116.103)" gradientUnits="userSpaceOnUse" x1="2639.107" x2="2663.77" xlink:href="#lg5" y1="3613.933" y2="3599.076"/><linearGradient id="SVGID_00000170236870243620665320000009538687519320565155_" gradientTransform="matrix(.707 .707 .707 -.707 -4054.555 1116.103)" gradientUnits="userSpaceOnUse" x1="2609.889" x2="2609.889" xlink:href="#lg5" y1="3574.126" y2="3513.675"/><linearGradient id="SVGID_00000074434607312486074470000005096078202465655994_" gradientTransform="matrix(.707 .707 .707 -.707 -4054.555 1116.103)" gradientUnits="userSpaceOnUse" x1="2607.588" x2="2590.65" xlink:href="#lg5" y1="3624.219" y2="3628.379"/><linearGradient id="SVGID_00000027597717217149950180000007132146778031990711_" gradientTransform="matrix(.707 .707 .707 -.707 -4054.555 1116.103)" gradientUnits="userSpaceOnUse" x1="2622.869" x2="2597.314" xlink:href="#lg5" y1="3604.116" y2="3612.436"/><linearGradient id="SVGID_00000048500157018816301770000010142132457427581865_" gradientTransform="matrix(.707 .707 .707 -.707 -4054.555 1116.103)" gradientUnits="userSpaceOnUse" x1="2634.777" x2="2607.588" xlink:href="#lg5" y1="3576.643" y2="3586.449"/><linearGradient id="SVGID_00000177484394844741225930000005938927726148331138_" gradientTransform="matrix(.707 .707 .707 -.707 -4054.555 1116.103)" gradientUnits="userSpaceOnUse" x1="2620.693" x2="2656.945" xlink:href="#lg5" y1="3630.091" y2="3645.246"/><linearGradient id="SVGID_00000180359701113308867270000007562592994736699032_" gradientTransform="matrix(.707 .707 .707 -.707 -4054.555 1116.103)" gradientUnits="userSpaceOnUse" x1="2603.965" x2="2628.926" xlink:href="#lg5" y1="3607.763" y2="3618.163"/><linearGradient id="SVGID_00000011032131764576643880000011403999541586666646_" gradientTransform="matrix(.707 .707 .707 -.707 -4054.555 1116.103)" gradientUnits="userSpaceOnUse" x1="2588.922" x2="2615.963" xlink:href="#lg5" y1="3578.652" y2="3592.618"/><linearGradient id="SVGID_00000005259824767712288990000011413008803362297787_" gradientTransform="matrix(1 0 0 -1 0 514)" gradientUnits="userSpaceOnUse" x1="233.786" x2="349.271" xlink:href="#lg4" y1="199.806" y2="170.222"/><linearGradient id="SVGID_00000031171609075440082340000016647785761995677605_" gradientTransform="matrix(1 0 0 -1 -1909.641 2423.645)" gradientUnits="userSpaceOnUse" x1="2166.909" x2="2207.907" xlink:href="#lg5" y1="2100.263" y2="2096.645"/><linearGradient id="SVGID_00000117670610531640796840000013277969632330661005_" gradientTransform="matrix(1 0 0 -1 -1909.641 2423.645)" gradientUnits="userSpaceOnUse" x1="2202.221" x2="2249.65" xlink:href="#lg5" y1="2097.113" y2="2092.691"/><linearGradient id="SVGID_00000048464669210968889930000014116848191884559765_" gradientTransform="matrix(1 0 0 -1 -1909.641 2423.645)" gradientUnits="userSpaceOnUse" x1="2225.184" x2="2258.546" xlink:href="#lg5" y1="2075.847" y2="2055.75"/><linearGradient id="SVGID_00000157307433088036723240000008209412441355813774_" gradientTransform="matrix(1 0 0 -1 -1909.641 2423.645)" gradientUnits="userSpaceOnUse" x1="2185.664" x2="2185.664" xlink:href="#lg5" y1="2022.002" y2="1940.232"/><linearGradient id="SVGID_00000076582851149777212880000012089876067787198639_" gradientTransform="matrix(1 0 0 -1 -1909.641 2423.645)" gradientUnits="userSpaceOnUse" x1="2182.55" x2="2159.64" xlink:href="#lg5" y1="2089.76" y2="2095.387"/><linearGradient id="SVGID_00000170249060293290414090000017444882396685083070_" gradientTransform="matrix(1 0 0 -1 -1909.641 2423.645)" gradientUnits="userSpaceOnUse" x1="2203.221" x2="2168.654" xlink:href="#lg5" y1="2062.567" y2="2073.822"/><linearGradient id="SVGID_00000057862182011690401490000004063331428681543569_" gradientTransform="matrix(1 0 0 -1 -1909.641 2423.645)" gradientUnits="userSpaceOnUse" x1="2219.328" x2="2182.551" xlink:href="#lg5" y1="2025.406" y2="2038.671"/><linearGradient id="SVGID_00000104691974581388218000000012361798307266747319_" gradientTransform="matrix(1 0 0 -1 -1909.641 2423.645)" gradientUnits="userSpaceOnUse" x1="2200.277" x2="2249.314" xlink:href="#lg5" y1="2097.703" y2="2118.202"/><linearGradient id="SVGID_00000169547042023423525040000016558292015037313193_" gradientTransform="matrix(1 0 0 -1 -1909.641 2423.645)" gradientUnits="userSpaceOnUse" x1="2177.65" x2="2211.413" xlink:href="#lg5" y1="2067.501" y2="2081.57"/><linearGradient id="SVGID_00000132086496777009036140000012778721442679677595_" gradientTransform="matrix(1 0 0 -1 -1909.641 2423.645)" gradientUnits="userSpaceOnUse" x1="2157.303" x2="2193.879" xlink:href="#lg5" y1="2028.123" y2="2047.014"/><linearGradient id="SVGID_00000005240171318545900350000017785417651146719646_" gradientTransform="matrix(1 0 0 -1 0 514)" gradientUnits="userSpaceOnUse" x1="304.96" x2="328.271" y1="88.591" y2="67.8"><stop offset="0" stop-color="#c1e9af" stop-opacity="0"/><stop offset=".1414" stop-color="#c1e9af" stop-opacity=".016"/><stop offset=".2738" stop-color="#c1e9af" stop-opacity=".065"/><stop offset=".4027" stop-color="#c1e9af" stop-opacity=".146"/><stop offset=".5294" stop-color="#c1e9af" stop-opacity=".26"/><stop offset=".6545" stop-color="#c1e9af" stop-opacity=".408"/><stop offset=".7785" stop-color="#c1e9af" stop-opacity=".589"/><stop offset=".8992" stop-color="#c1e9af" stop-opacity=".799"/><stop offset="1" stop-color="#c1e9af"/></linearGradient><g><g><path d="m84.627 18.155h191.416v398.137c0 52.823-42.885 95.708-95.708 95.708-52.823 0-95.708-42.885-95.708-95.708z" fill="url(#SVGID_1_)"/><path d="m248.377 234.832v182.869c0 37.391-29.739 68.56-67.126 69.052-37.993.5-68.958-30.158-68.958-68.036v-177.315c0-9.473 5.453-18.1 14.011-22.165 33.622-15.968 73.092-13.529 104.491 6.459 2.031 1.293 4.518 1.658 6.835 1.004 5.392-1.523 10.747 2.528 10.747 8.132z" fill="url(#SVGID_00000013165577490994484910000017836687348942856101_)"/><path d="m248.377 234.832v182.869c0 37.391-29.739 68.56-67.126 69.052-37.993.5-68.958-30.158-68.958-68.036v-177.315c0-9.473 5.453-18.1 14.011-22.165 33.622-15.968 73.092-13.529 104.491 6.459 2.031 1.293 4.518 1.658 6.835 1.004 5.392-1.523 10.747 2.528 10.747 8.132z" fill="url(#SVGID_00000132794727738987711330000010650425869693217203_)"/><path d="m248.377 234.832v182.869c0 37.391-29.739 68.56-67.126 69.052-37.993.5-68.958-30.158-68.958-68.036v-177.315c0-9.473 5.453-18.1 14.011-22.165 33.622-15.968 73.092-13.529 104.491 6.459 2.031 1.293 4.518 1.658 6.835 1.004 5.392-1.523 10.747 2.528 10.747 8.132z" fill="url(#SVGID_00000121270494384018945870000003252166938071655599_)"/><path d="m248.377 234.832v182.869c0 37.391-29.739 68.56-67.126 69.052-37.993.5-68.958-30.158-68.958-68.036v-177.315c0-9.473 5.453-18.1 14.011-22.165 33.622-15.968 73.092-13.529 104.491 6.459 2.031 1.293 4.518 1.658 6.835 1.004 5.392-1.523 10.747 2.528 10.747 8.132z" fill="url(#SVGID_00000009557215951799491850000015129118013693749431_)"/><path d="m84.627 342.136v74.156c0 52.858 42.85 95.708 95.708 95.708 52.858 0 95.708-42.85 95.708-95.708v-74.156z" fill="url(#SVGID_00000183217356055765519520000001903826785196495794_)"/><path d="m167.899 511.197c4.071.528 8.221.803 12.436.803 52.858 0 95.708-42.85 95.708-95.708v-398.137h-108.144z" fill="url(#SVGID_00000165236335816798478440000009941476301186915213_)"/><path d="m84.627 18.155h191.415v138.657h-191.415z" fill="url(#SVGID_00000049938814507233555550000014994693640618530999_)"/><path d="m94.31 0h172.05c12.597 0 22.809 10.212 22.809 22.809 0 12.597-10.212 22.809-22.809 22.809h-172.05c-12.597 0-22.809-10.212-22.809-22.809 0-12.597 10.212-22.809 22.809-22.809z" fill="url(#SVGID_00000142161123941636835260000004706818420111679104_)"/></g><g><g><path d="m440.142 321.139c-.451-4.95-3.842-8.341-8.792-8.792-33.573-3.056-74.919 13.558-108.164 46.803s-49.859 74.592-46.803 108.164c.451 4.95 3.842 8.341 8.792 8.792 33.573 3.056 74.919-13.558 108.164-46.803s49.859-74.591 46.803-108.164z" fill="url(#SVGID_00000108278590724104719360000016827219794529700535_)"/><path d="m437.433 315.056c-1.523-1.523-3.608-2.484-6.083-2.709-33.573-3.056-74.919 13.558-108.164 46.803s-49.859 74.591-46.803 108.164c.225 2.475 1.186 4.56 2.709 6.083z" fill="url(#SVGID_00000085945867923283548970000016739036055532167305_)"/><path d="m393.34 429.305c-33.243 33.243-74.59 49.858-108.165 46.798-2.476-.221-4.563-1.185-6.084-2.706l158.341-158.341c1.521 1.521 2.485 3.608 2.706 6.084 3.06 33.574-13.555 74.922-46.798 108.165z" fill="url(#SVGID_00000163046590354488713770000007751597296501107617_)"/><path d="m393.34 429.305c-33.243 33.243-74.59 49.858-108.165 46.798-2.476-.221-4.563-1.185-6.084-2.706l158.341-158.341c1.521 1.521 2.485 3.608 2.706 6.084 3.06 33.574-13.555 74.922-46.798 108.165z" fill="url(#SVGID_00000071531291264606839360000011849374277097544867_)"/><path d="m303.301 382.661c-19.837 27.963-29.287 58.641-26.919 84.654.451 4.95 3.842 8.341 8.792 8.792 26.013 2.368 56.691-7.082 84.654-26.919z" fill="url(#SVGID_00000170236870243620665320000009538687519320565155_)"/><g><path d="m393.338 429.303c25.777-25.777 41.547-56.422 45.911-84.54h-8.19c-14.94 0-29.269 5.935-39.833 16.5l-112.135 112.135c1.523 1.523 3.608 2.484 6.083 2.709 33.573 3.056 74.919-13.559 108.164-46.804z" fill="url(#SVGID_00000074434607312486074470000005096078202465655994_)"/><path d="m393.338 429.303c13.552-13.552 24.339-28.451 32.158-43.62h-35.357c-14.94 0-29.269 5.935-39.833 16.499l-71.215 71.215c1.523 1.523 3.608 2.484 6.083 2.709 33.573 3.057 74.919-13.558 108.164-46.803z" fill="url(#SVGID_00000027597717217149950180000007132146778031990711_)"/><path d="m279.091 473.398c1.523 1.523 3.608 2.484 6.083 2.709 33.573 3.056 74.919-13.558 108.164-46.803.893-.893 1.769-1.795 2.638-2.7h-46.757c-14.94 0-29.269 5.935-39.833 16.499z" fill="url(#SVGID_00000048500157018816301770000010142132457427581865_)"/></g><g><path d="m323.185 359.15c25.777-25.777 56.422-41.547 84.54-45.911v8.19c0 14.94-5.935 29.269-16.5 39.833l-112.134 112.136c-1.523-1.523-2.484-3.608-2.709-6.083-3.056-33.573 13.558-74.919 46.803-108.165z" fill="url(#SVGID_00000177484394844741225930000005938927726148331138_)"/><path d="m323.185 359.15c13.552-13.552 28.451-24.339 43.62-32.158v35.357c0 14.94-5.935 29.269-16.499 39.833l-71.215 71.215c-1.523-1.523-2.484-3.608-2.709-6.083-3.056-33.572 13.558-74.918 46.803-108.164z" fill="url(#SVGID_00000180359701113308867270000007562592994736699032_)"/><path d="m279.091 473.398c-1.523-1.523-2.484-3.608-2.709-6.083-3.056-33.573 13.558-74.919 46.803-108.164.893-.893 1.795-1.769 2.7-2.638v46.757c0 14.94-5.935 29.269-16.499 39.833z" fill="url(#SVGID_00000011032131764576643880000011403999541586666646_)"/></g></g><g><path d="m284.432 176.792c-5.165-4.303-11.654-4.303-16.819 0-35.034 29.188-58.69 84.626-58.69 148.222s23.656 119.034 58.69 148.222c5.165 4.303 11.654 4.303 16.819 0 35.034-29.188 58.69-84.626 58.69-148.222s-23.655-119.034-58.69-148.222z" fill="url(#SVGID_00000005259824767712288990000011413008803362297787_)"/><path d="m276.023 173.565c-2.913 0-5.827 1.076-8.409 3.227-35.035 29.188-58.69 84.626-58.69 148.222s23.656 119.034 58.69 148.222c2.583 2.152 5.496 3.227 8.409 3.227z" fill="url(#SVGID_00000031171609075440082340000016647785761995677605_)"/><path d="m343.125 325.014c0 63.592-23.656 119.032-58.696 148.219-2.579 2.157-5.497 3.231-8.407 3.231v-302.899c2.909 0 5.827 1.074 8.407 3.231 35.041 29.187 58.696 84.626 58.696 148.218z" fill="url(#SVGID_00000117670610531640796840000013277969632330661005_)"/><path d="m343.125 325.014c0 63.592-23.656 119.032-58.696 148.219-2.579 2.157-5.497 3.231-8.407 3.231v-302.899c2.909 0 5.827 1.074 8.407 3.231 35.041 29.187 58.696 84.626 58.696 148.218z" fill="url(#SVGID_00000048464669210968889930000014116848191884559765_)"/><path d="m212.392 366.521c7.772 45.719 28.076 84.1 55.222 106.716 5.165 4.303 11.654 4.303 16.819 0 27.146-22.616 47.45-60.997 55.222-106.716z" fill="url(#SVGID_00000157307433088036723240000008209412441355813774_)"/><g><path d="m343.122 325.014c0-49.31-14.228-93.705-36.948-124.773l-7.833 7.833c-14.29 14.29-22.318 33.672-22.318 53.881v214.509c2.913 0 5.827-1.076 8.409-3.227 35.035-29.189 58.69-84.626 58.69-148.223z" fill="url(#SVGID_00000076582851149777212880000012089876067787198639_)"/><path d="m343.122 325.014c0-25.925-3.933-50.492-10.964-72.479l-33.818 33.818c-14.29 14.29-22.318 33.672-22.318 53.881v136.231c2.913 0 5.827-1.076 8.409-3.227 35.036-29.19 58.691-84.627 58.691-148.224z" fill="url(#SVGID_00000170249060293290414090000017444882396685083070_)"/><path d="m276.023 476.464c2.913 0 5.827-1.076 8.409-3.227 35.035-29.188 58.69-84.626 58.69-148.222 0-1.709-.025-3.409-.059-5.106l-44.722 44.722c-14.29 14.29-22.318 33.672-22.318 53.881z" fill="url(#SVGID_00000057862182011690401490000004063331428681543569_)"/></g><g><path d="m208.924 325.014c0-49.31 14.228-93.705 36.948-124.773l7.833 7.833c14.29 14.29 22.318 33.672 22.318 53.881v214.509c-2.913 0-5.827-1.076-8.409-3.227-35.035-29.189-58.69-84.626-58.69-148.223z" fill="url(#SVGID_00000104691974581388218000000012361798307266747319_)"/><path d="m208.924 325.014c0-25.925 3.933-50.492 10.964-72.479l33.818 33.818c14.29 14.29 22.318 33.672 22.318 53.881v136.231c-2.913 0-5.827-1.076-8.409-3.227-35.036-29.19-58.691-84.627-58.691-148.224z" fill="url(#SVGID_00000169547042023423525040000016558292015037313193_)"/><path d="m276.023 476.464c-2.913 0-5.827-1.076-8.409-3.227-35.035-29.188-58.69-84.626-58.69-148.222 0-1.709.025-3.409.059-5.106l44.722 44.722c14.29 14.29 22.318 33.672 22.318 53.881z" fill="url(#SVGID_00000132086496777009036140000012778721442679677595_)"/></g></g><path d="m213.765 373.912c8.62 42.459 28.183 77.934 53.853 99.324 5.158 4.304 11.643 4.304 16.813 0 25.67-21.39 45.233-56.865 53.853-99.324z" fill="url(#SVGID_00000005240171318545900350000017785417651146719646_)"/></g></g></svg>