<svg id="_16_Medical_File" enable-background="new 0 0 512 512" viewBox="0 0 512 512" xmlns="http://www.w3.org/2000/svg" xmlns:xlink="http://www.w3.org/1999/xlink"><linearGradient id="lg1"><stop offset="0" stop-color="#e5caf3"/><stop offset=".1585" stop-color="#ddbfee"/><stop offset=".4338" stop-color="#caa2e0"/><stop offset=".7905" stop-color="#ac75cb"/><stop offset="1" stop-color="#9857bd"/></linearGradient><linearGradient id="SVGID_1_" gradientTransform="matrix(1 0 0 -1 0 514)" gradientUnits="userSpaceOnUse" x1="256" x2="256" xlink:href="#lg1" y1="447" y2="264"/><linearGradient id="lg2"><stop offset="0" stop-color="#814aa0" stop-opacity="0"/><stop offset=".1758" stop-color="#7f499e" stop-opacity=".038"/><stop offset=".3644" stop-color="#7b4699" stop-opacity=".149"/><stop offset=".559" stop-color="#744291" stop-opacity=".333"/><stop offset=".7577" stop-color="#6a3c85" stop-opacity=".592"/><stop offset=".9577" stop-color="#5d3477" stop-opacity=".922"/><stop offset="1" stop-color="#5b3374"/></linearGradient><linearGradient id="SVGID_00000075849905087570911110000005063393339544496813_" gradientTransform="matrix(1 0 0 -1 0 514)" gradientUnits="userSpaceOnUse" x1="93.012" x2="93.012" xlink:href="#lg2" y1="394" y2="322.937"/><linearGradient id="SVGID_00000031174187216203972790000014833256937277970361_" gradientTransform="matrix(1 0 0 -1 0 514)" gradientUnits="userSpaceOnUse" x1="434" x2="384.959" xlink:href="#lg2" y1="365.481" y2="365.481"/><linearGradient id="SVGID_00000088097027462739671250000011745268775249433238_" gradientTransform="matrix(1 0 0 -1 0 514)" gradientUnits="userSpaceOnUse" x1="439" x2="478.028" xlink:href="#lg2" y1="365.481" y2="365.481"/><linearGradient id="SVGID_00000082335404149927215390000002594104266640863906_" gradientTransform="matrix(1 0 0 -1 0 514)" gradientUnits="userSpaceOnUse" x1="415.406" x2="415.406" xlink:href="#lg2" y1="339" y2="292.996"/><linearGradient id="lg3"><stop offset="0" stop-color="#f3faff"/><stop offset="1" stop-color="#d5daf3"/></linearGradient><linearGradient id="SVGID_00000095309755647812093210000009234929901892932011_" gradientTransform="matrix(1 0 0 -1 0 514)" gradientUnits="userSpaceOnUse" x1="118.092" x2="445.765" xlink:href="#lg3" y1="418.088" y2="90.414"/><linearGradient id="lg4"><stop offset="0" stop-color="#dbd5ef" stop-opacity="0"/><stop offset=".2667" stop-color="#d8d2ec" stop-opacity=".023"/><stop offset=".4431" stop-color="#d1c9e2" stop-opacity=".098"/><stop offset=".5933" stop-color="#c4b9d1" stop-opacity=".225"/><stop offset=".7288" stop-color="#b2a4ba" stop-opacity=".405"/><stop offset=".8545" stop-color="#9a889c" stop-opacity=".638"/><stop offset=".9713" stop-color="#7e6678" stop-opacity=".92"/><stop offset="1" stop-color="#765d6e"/></linearGradient><linearGradient id="SVGID_00000178912433349919846410000005902524389302471609_" gradientTransform="matrix(1 0 0 -1 0 514)" gradientUnits="userSpaceOnUse" x1="226.193" x2="141.063" xlink:href="#lg4" y1="390.606" y2="475.737"/><linearGradient id="SVGID_00000031911020696624886870000009437115253223427992_" gradientTransform="matrix(1 0 0 -1 0 514)" gradientUnits="userSpaceOnUse" x1="254.837" x2="256.305" xlink:href="#lg4" y1="577.63" y2="361.066"/><linearGradient id="SVGID_00000140004686411376784860000005303668999645993380_" gradientTransform="matrix(1 0 0 -1 0 514)" gradientUnits="userSpaceOnUse" x1="254.837" x2="256.305" xlink:href="#lg4" y1="533.518" y2="316.953"/><linearGradient id="SVGID_00000064329630819795489960000003912435995598551988_" gradientTransform="matrix(1 0 0 -1 0 514)" gradientUnits="userSpaceOnUse" x1="254.837" x2="256.305" xlink:href="#lg4" y1="489.405" y2="272.84"/><linearGradient id="SVGID_00000088106197912740569800000003410982208969821626_" gradientTransform="matrix(1 0 0 -1 0 514)" gradientUnits="userSpaceOnUse" x1="134.962" x2="196.858" xlink:href="#lg3" y1="481.838" y2="419.941"/><linearGradient id="SVGID_00000011009263029593812390000003041905821826702728_" gradientTransform="matrix(1 0 0 -1 0 514)" gradientUnits="userSpaceOnUse" x1="256" x2="256" xlink:href="#lg4" y1="77.296" y2="44.089"/><linearGradient id="SVGID_00000011734092771374470370000008637085236343391420_" gradientTransform="matrix(1 0 0 -1 0 514)" gradientUnits="userSpaceOnUse" x1="362.321" x2="415.618" xlink:href="#lg4" y1="280.18" y2="280.18"/><linearGradient id="SVGID_00000129904128864799989710000018171274391429155236_" gradientTransform="matrix(1 0 0 -1 0 514)" gradientUnits="userSpaceOnUse" x1="256" x2="256" xlink:href="#lg4" y1="366.333" y2="303"/><linearGradient id="SVGID_00000170241951974388545030000011865832125033556131_" gradientTransform="matrix(1 0 0 -1 0 514)" gradientUnits="userSpaceOnUse" x1="226.163" x2="153.45" xlink:href="#lg4" y1="338.942" y2="305.793"/><linearGradient id="SVGID_00000011754392474729006220000011574841697193322128_" gradientTransform="matrix(1 0 0 -1 0 514)" gradientUnits="userSpaceOnUse" x1="188.663" x2="346.873" xlink:href="#lg1" y1="371.798" y2="6.123"/><linearGradient id="SVGID_00000059293755642177640850000016968624048172150970_" gradientTransform="matrix(1 0 0 -1 0 514)" gradientUnits="userSpaceOnUse" x1="455.378" x2="500.378" xlink:href="#lg2" y1="144.332" y2="138.332"/><linearGradient id="SVGID_00000069366848055278329680000015438047507858244005_" gradientTransform="matrix(1 0 0 -1 0 514)" gradientUnits="userSpaceOnUse" x1="260.003" x2="260.003" xlink:href="#lg2" y1="42" y2="1.801"/><linearGradient id="SVGID_00000094607923810848508050000011989050669055283873_" gradientTransform="matrix(1 0 0 -1 0 514)" gradientUnits="userSpaceOnUse" x1="374.102" x2="215.051" xlink:href="#lg2" y1="48.102" y2="207.152"/><linearGradient id="SVGID_00000111871628372098605080000007810905575882286478_" gradientTransform="matrix(1 0 0 -1 0 514)" gradientUnits="userSpaceOnUse" x1="211.285" x2="321.331" xlink:href="#lg3" y1="210.918" y2="100.872"/><linearGradient id="SVGID_00000157994313004953322350000011459587558597545871_" gradientTransform="matrix(1 0 0 -1 0 514)" gradientUnits="userSpaceOnUse" x1="241.821" x2="287.7" y1="179.532" y2="135.384"><stop offset="0" stop-color="#fe646f"/><stop offset=".235" stop-color="#fa5964"/><stop offset=".6415" stop-color="#ef3d49"/><stop offset="1" stop-color="#e41f2d"/></linearGradient><linearGradient id="SVGID_00000083771242482228940790000016930196276275635344_" gradientTransform="matrix(1 0 0 -1 0 514)" gradientUnits="userSpaceOnUse" x1="266.044" x2="277.73" xlink:href="#lg4" y1="144.846" y2="59.146"/><linearGradient id="SVGID_00000109007074733790276590000011630605140665405312_" gradientTransform="matrix(1 0 0 -1 0 514)" gradientUnits="userSpaceOnUse" x1="266.461" x2="360.925" xlink:href="#lg4" y1="157.534" y2="142.926"/><linearGradient id="SVGID_00000158732989508981324440000015022821136404593543_" gradientTransform="matrix(1 0 0 -1 0 514)" gradientUnits="userSpaceOnUse" x1="298.235" x2="346.656" y1="123.968" y2="75.547"><stop offset="0" stop-color="#d5daf3" stop-opacity="0"/><stop offset=".1385" stop-color="#d8ddf4" stop-opacity=".114"/><stop offset=".4399" stop-color="#e1e6f7" stop-opacity=".406"/><stop offset=".8782" stop-color="#eff5fd" stop-opacity=".867"/><stop offset="1" stop-color="#f3faff"/></linearGradient><g><path d="m71.748 65.134h368.505c11.451 0 20.748 9.297 20.748 20.748v146.022h-410.001v-146.023c0-11.451 9.297-20.747 20.748-20.747z" fill="url(#SVGID_1_)"/><path d="m135.024 65.134h-63.276c-11.459 0-20.748 9.289-20.748 20.747v146.022h84.024z" fill="url(#SVGID_00000075849905087570911110000005063393339544496813_)"/><path d="m440.252 65.134h-70.44v166.77h91.188v-146.023c0-11.458-9.289-20.747-20.748-20.747z" fill="url(#SVGID_00000031174187216203972790000014833256937277970361_)"/><path d="m440.252 65.134h-70.44v166.77h91.188v-146.023c0-11.458-9.289-20.747-20.748-20.747z" fill="url(#SVGID_00000088097027462739671250000011745268775249433238_)"/><path d="m369.813 135.637h91.187v96.267h-91.187z" fill="url(#SVGID_00000082335404149927215390000002594104266640863906_)"/><g><path d="m400.343 467.641h-288.686c-4.892 0-8.858-3.966-8.858-8.858v-369.907l88.877-88.876h208.667c4.892 0 8.858 3.966 8.858 8.858v449.925c0 4.892-3.966 8.858-8.858 8.858z" fill="url(#SVGID_00000095309755647812093210000009234929901892932011_)"/><path d="m102.8 289.933 289.933-289.933h-189.733c-7.251 0-14.204 2.88-19.331 8.007l-72.862 72.862c-5.127 5.127-8.007 12.081-8.007 19.331z" fill="url(#SVGID_00000178912433349919846410000005902524389302471609_)"/><g><path d="m143.34 101.495h225.32c3.543 0 6.416 2.872 6.416 6.416 0 3.543-2.872 6.416-6.416 6.416h-225.32c-3.543 0-6.416-2.872-6.416-6.416.001-3.543 2.873-6.416 6.416-6.416z" fill="url(#SVGID_00000031911020696624886870000009437115253223427992_)"/><path d="m143.34 145.608h225.32c3.543 0 6.416 2.872 6.416 6.416 0 3.543-2.872 6.416-6.416 6.416h-225.32c-3.543 0-6.416-2.872-6.416-6.416.001-3.544 2.873-6.416 6.416-6.416z" fill="url(#SVGID_00000140004686411376784860000005303668999645993380_)"/><path d="m143.34 189.721h225.32c3.543 0 6.416 2.872 6.416 6.416 0 3.543-2.872 6.416-6.416 6.416h-225.32c-3.543 0-6.416-2.872-6.416-6.416.001-3.544 2.873-6.416 6.416-6.416z" fill="url(#SVGID_00000064329630819795489960000003912435995598551988_)"/></g><path d="m188.092.879c-41.661 10.222-74.189 42.749-84.412 84.409l-.88 3.588v12.073c0-6.667 5.405-12.073 12.073-12.073h67.946c4.892 0 8.858-3.966 8.858-8.858v-67.945c-.001-6.668 5.404-12.073 12.071-12.073h-12.073z" fill="url(#SVGID_00000088106197912740569800000003410982208969821626_)"/><path d="m102.799 365.862v92.921c0 4.892 3.966 8.858 8.858 8.858h288.685c4.892 0 8.858-3.966 8.858-8.858v-92.921z" fill="url(#SVGID_00000011009263029593812390000003041905821826702728_)"/><path d="m400.343 0h-97.599v467.641h97.599c4.892 0 8.858-3.966 8.858-8.858v-449.925c0-4.892-3.966-8.858-8.858-8.858z" fill="url(#SVGID_00000011734092771374470370000008637085236343391420_)"/></g><path d="m409.201 458.783v-344.456h-306.402v344.456c0 4.892 3.966 8.858 8.858 8.858h288.685c4.893 0 8.859-3.966 8.859-8.858z" fill="url(#SVGID_00000129904128864799989710000018171274391429155236_)"/><g><path d="m219.995 226.912h-67.37v-67.37z" fill="url(#SVGID_00000170241951974388545030000011865832125033556131_)"/><g><path d="m158.866 183.004-.666-10.521c-.693-10.945-9.661-19.464-20.491-19.464h-117.171c-12.666 0-22.312 11.5-20.263 24.158l51.39 317.394c1.627 10.051 10.205 17.429 20.263 17.429h376.151c10.058 0 18.635-7.378 20.263-17.429l43.383-267.945c2.049-12.658-7.596-24.158-20.263-24.158h-312.105c-10.83 0-19.799-8.518-20.491-19.464z" fill="url(#SVGID_00000011754392474729006220000011574841697193322128_)"/><path d="m491.462 202.468h-260.049v309.532h216.665c10.058 0 18.635-7.378 20.263-17.429l43.383-267.945c2.05-12.658-7.596-24.158-20.262-24.158z" fill="url(#SVGID_00000059293755642177640850000016968624048172150970_)"/><path d="m28.147 349.315 23.518 145.256c1.627 10.051 10.205 17.429 20.263 17.429h376.151c10.058 0 18.635-7.378 20.263-17.429l23.518-145.256z" fill="url(#SVGID_00000069366848055278329680000015438047507858244005_)"/><path d="m478.53 431.645-145.252-145.251-138.681 138.681 86.924 86.925h166.557c10.058 0 18.635-7.378 20.263-17.429z" fill="url(#SVGID_00000094607923810848508050000011989050669055283873_)"/><g><circle cx="264.346" cy="356.143" fill="url(#SVGID_00000111871628372098605080000007810905575882286478_)" r="98.07"/><path d="m315.094 338.819h-33.425v-33.425c0-4.889-3.963-8.852-8.852-8.852h-16.942c-4.889 0-8.852 3.963-8.852 8.852v33.425h-33.425c-4.889 0-8.852 3.964-8.852 8.852v16.942c0 4.889 3.963 8.852 8.852 8.852h33.425v33.425c0 4.889 3.963 8.852 8.852 8.852h16.942c4.889 0 8.852-3.963 8.852-8.852v-33.425h33.425c4.889 0 8.852-3.963 8.852-8.852v-16.942c.001-4.888-3.963-8.852-8.852-8.852z" fill="url(#SVGID_00000157994313004953322350000011459587558597545871_)"/><path d="m166.276 356.143c0 54.162 43.907 98.07 98.07 98.07s98.07-43.907 98.07-98.07c0-2.711-.115-5.396-.331-8.051h-195.478c-.216 2.655-.331 5.339-.331 8.051z" fill="url(#SVGID_00000083771242482228940790000016930196276275635344_)"/><path d="m264.346 258.073c-6.318 0-12.494.605-18.479 1.746v192.647c5.985 1.141 12.161 1.746 18.479 1.746 54.162 0 98.07-43.907 98.07-98.07 0-54.162-43.908-98.069-98.07-98.069z" fill="url(#SVGID_00000109007074733790276590000011630605140665405312_)"/><path d="m333.278 286.394-138.681 138.681c17.778 17.988 42.46 29.137 69.749 29.137 54.162 0 98.07-43.907 98.07-98.07 0-27.288-11.15-51.97-29.138-69.748z" fill="url(#SVGID_00000158732989508981324440000015022821136404593543_)"/></g></g></g></g></svg>