<svg id="_17_Mortar" enable-background="new 0 0 512 512" viewBox="0 0 512 512" xmlns="http://www.w3.org/2000/svg" xmlns:xlink="http://www.w3.org/1999/xlink"><linearGradient id="lg1"><stop offset="0" stop-color="#f3faff"/><stop offset="1" stop-color="#d5daf3"/></linearGradient><linearGradient id="SVGID_1_" gradientTransform="matrix(1 0 0 -1 0 514)" gradientUnits="userSpaceOnUse" x1="328.889" x2="353.558" xlink:href="#lg1" y1="326.572" y2="301.903"/><linearGradient id="lg2"><stop offset="0" stop-color="#dbd5ef" stop-opacity="0"/><stop offset=".2667" stop-color="#d8d2ec" stop-opacity=".023"/><stop offset=".4431" stop-color="#d1c9e2" stop-opacity=".098"/><stop offset=".5933" stop-color="#c4b9d1" stop-opacity=".225"/><stop offset=".7288" stop-color="#b2a4ba" stop-opacity=".405"/><stop offset=".8545" stop-color="#9a889c" stop-opacity=".638"/><stop offset=".9713" stop-color="#7e6678" stop-opacity=".92"/><stop offset="1" stop-color="#765d6e"/></linearGradient><linearGradient id="SVGID_00000026869533814855690870000006293937396983340730_" gradientTransform="matrix(1 0 0 -1 0 514)" gradientUnits="userSpaceOnUse" x1="331.708" x2="366.877" xlink:href="#lg2" y1="332.683" y2="279.456"/><linearGradient id="SVGID_00000075156197560154640740000004689476390509912475_" gradientTransform="matrix(1 0 0 -1 0 514)" gradientUnits="userSpaceOnUse" x1="344.613" x2="344.613" xlink:href="#lg2" y1="329.614" y2="275.225"/><linearGradient id="lg3"><stop offset="0" stop-color="#fe646f"/><stop offset=".235" stop-color="#fa5964"/><stop offset=".6415" stop-color="#ef3d49"/><stop offset="1" stop-color="#e41f2d"/></linearGradient><linearGradient id="SVGID_00000042737292314618953950000006488030761667970213_" gradientTransform="matrix(1 0 0 -1 0 514)" gradientUnits="userSpaceOnUse" x1="167.08" x2="203.486" xlink:href="#lg3" y1="303.427" y2="267.022"/><linearGradient id="lg4"><stop offset="0" stop-color="#a72b2b" stop-opacity="0"/><stop offset=".1561" stop-color="#a32b2a" stop-opacity=".066"/><stop offset=".386" stop-color="#982c29" stop-opacity=".248"/><stop offset=".6615" stop-color="#872f28" stop-opacity=".545"/><stop offset=".97" stop-color="#6f3226" stop-opacity=".956"/><stop offset="1" stop-color="#6d3326"/></linearGradient><linearGradient id="SVGID_00000078021611010523551350000015118024112237633720_" gradientTransform="matrix(1 0 0 -1 0 514)" gradientUnits="userSpaceOnUse" x1="184.634" x2="184.634" xlink:href="#lg4" y1="280.645" y2="253.149"/><linearGradient id="SVGID_00000080164966634183849800000017280602706206216877_" gradientTransform="matrix(1 0 0 -1 0 514)" gradientUnits="userSpaceOnUse" x1="189.747" x2="217.28" xlink:href="#lg4" y1="285.873" y2="285.873"/><linearGradient id="lg5"><stop offset="0" stop-color="#e41f2d" stop-opacity="0"/><stop offset=".0725" stop-color="#e62533" stop-opacity=".093"/><stop offset=".3356" stop-color="#ee3b48" stop-opacity=".411"/><stop offset=".5691" stop-color="#f54c58" stop-opacity=".664"/><stop offset=".7644" stop-color="#f95964" stop-opacity=".846"/><stop offset=".914" stop-color="#fc616c" stop-opacity=".958"/><stop offset="1" stop-color="#fe646f"/></linearGradient><linearGradient id="SVGID_00000127031184144377026650000017353535195324794284_" gradientTransform="matrix(1 0 0 -1 0 514)" gradientUnits="userSpaceOnUse" x1="195.845" x2="211.864" xlink:href="#lg5" y1="274.662" y2="258.643"/><linearGradient id="SVGID_00000057870180274738279490000005191099680922763658_" gradientTransform="matrix(1 0 0 -1 0 514)" gradientUnits="userSpaceOnUse" x1="231.205" x2="289.26" xlink:href="#lg1" y1="29.156" y2="29.156"/><linearGradient id="SVGID_00000135662371782792062590000001487030450963605159_" gradientTransform="matrix(1 0 0 -1 0 514)" gradientUnits="userSpaceOnUse" x1="255.999" x2="255.999" xlink:href="#lg2" y1="29.559" y2=".866"/><linearGradient id="SVGID_00000021833924100295585400000003566356820744042150_" gradientTransform="matrix(1 0 0 -1 0 514)" gradientUnits="userSpaceOnUse" x1="255.571" x2="257.472" xlink:href="#lg2" y1="3.245" y2="47.443"/><linearGradient id="SVGID_00000057132868641375636450000005587092770216224417_" gradientTransform="matrix(1 0 0 -1 0 514)" gradientUnits="userSpaceOnUse" x1="293.956" x2="332.308" xlink:href="#lg2" y1="28.057" y2="37.132"/><linearGradient id="SVGID_00000056394534170601919980000005507984174667221141_" gradientTransform="matrix(1 0 0 -1 0 514)" gradientUnits="userSpaceOnUse" x1="173.844" x2="323.952" xlink:href="#lg1" y1="242.075" y2="148.707"/><linearGradient id="SVGID_00000026874249358989450110000010627508318496344758_" gradientTransform="matrix(1 0 0 -1 0 514)" gradientUnits="userSpaceOnUse" x1="255.999" x2="255.999" xlink:href="#lg2" y1="146.606" y2="27.395"/><linearGradient id="SVGID_00000095297514728950030770000015609220843834660759_" gradientTransform="matrix(1 0 0 -1 0 514)" gradientUnits="userSpaceOnUse" x1="309.164" x2="444.966" xlink:href="#lg2" y1="156.692" y2="121.405"/><linearGradient id="SVGID_00000074415980185688145960000008747970732526896818_" gradientTransform="matrix(1 0 0 -1 0 514)" gradientUnits="userSpaceOnUse" x1="255.999" x2="255.999" xlink:href="#lg2" y1="192.014" y2="251.44"/><linearGradient id="SVGID_00000033355917566982632570000016908056856051875212_" gradientTransform="matrix(1 0 0 -1 0 514)" gradientUnits="userSpaceOnUse" x1="255.999" x2="255.999" xlink:href="#lg2" y1="158.257" y2="20.614"/><linearGradient id="SVGID_00000090278275604844438030000013401551623046503304_" gradientTransform="matrix(1 0 0 -1 0 514)" gradientUnits="userSpaceOnUse" x1="336.533" x2="408.177" y1="123.222" y2="50.509"><stop offset="0" stop-color="#fff" stop-opacity="0"/><stop offset=".0925" stop-color="#fff" stop-opacity=".024"/><stop offset=".2178" stop-color="#fff" stop-opacity=".092"/><stop offset=".3619" stop-color="#fff" stop-opacity=".203"/><stop offset=".52" stop-color="#fff" stop-opacity=".359"/><stop offset=".6897" stop-color="#fff" stop-opacity=".559"/><stop offset=".8661" stop-color="#fff" stop-opacity=".798"/><stop offset="1" stop-color="#fff"/></linearGradient><linearGradient id="SVGID_00000113314075383159369350000009397369981287207070_" gradientTransform="matrix(1 0 0 -1 0 514)" gradientUnits="userSpaceOnUse" x1="255.999" x2="255.999" xlink:href="#lg1" y1="277.4" y2="245.534"/><linearGradient id="SVGID_00000073717326847928738740000010057335654590191802_" gradientTransform="matrix(1 0 0 -1 0 514)" gradientUnits="userSpaceOnUse" x1="255.999" x2="255.999" xlink:href="#lg2" y1="262.615" y2="241.705"/><linearGradient id="SVGID_00000028303677944368253790000016908034629878847618_" gradientTransform="matrix(1 0 0 -1 0 514)" gradientUnits="userSpaceOnUse" x1="405.957" x2="471.23" xlink:href="#lg2" y1="261.876" y2="261.876"/><linearGradient id="SVGID_00000122680781551410523910000008280822659874751141_" gradientTransform="matrix(1 0 0 -1 0 514)" gradientUnits="userSpaceOnUse" x1="200.874" x2="252.011" xlink:href="#lg3" y1="415.215" y2="364.077"/><linearGradient id="SVGID_00000099657179318069374220000017963383873319417493_" gradientTransform="matrix(1 0 0 -1 0 514)" gradientUnits="userSpaceOnUse" x1="204.209" x2="192.091" xlink:href="#lg4" y1="408.534" y2="418.752"/><linearGradient id="SVGID_00000066492526464632867290000000659834600672690338_" gradientTransform="matrix(1 0 0 -1 0 514)" gradientUnits="userSpaceOnUse" x1="225.531" x2="225.531" xlink:href="#lg4" y1="383.213" y2="344.591"/><linearGradient id="SVGID_00000101823112362329052000000008226115888623525801_" gradientTransform="matrix(1 0 0 -1 0 514)" gradientUnits="userSpaceOnUse" x1="232.713" x2="271.387" xlink:href="#lg4" y1="390.558" y2="390.558"/><linearGradient id="SVGID_00000135690403687696581340000011506997348696322715_" gradientTransform="matrix(1 0 0 -1 0 514)" gradientUnits="userSpaceOnUse" x1="241.279" x2="263.78" xlink:href="#lg5" y1="374.809" y2="352.309"/><linearGradient id="SVGID_00000176042894723204206520000018056326026131356070_" gradientTransform="matrix(1 0 0 -1 0 514)" gradientUnits="userSpaceOnUse" x1="120.295" x2="185.862" xlink:href="#lg3" y1="487.183" y2="421.617"/><linearGradient id="SVGID_00000093163564926988868380000016219094474228062113_" gradientTransform="matrix(1 0 0 -1 0 514)" gradientUnits="userSpaceOnUse" x1="151.91" x2="151.91" xlink:href="#lg4" y1="446.152" y2="396.632"/><linearGradient id="SVGID_00000152250119020651850680000010669042876164379787_" gradientTransform="matrix(1 0 0 -1 0 514)" gradientUnits="userSpaceOnUse" x1="161.118" x2="210.705" xlink:href="#lg4" y1="455.569" y2="455.569"/><linearGradient id="SVGID_00000021832674457374009760000006314389205971766928_" gradientTransform="matrix(1 0 0 -1 0 514)" gradientUnits="userSpaceOnUse" x1="172.101" x2="200.951" xlink:href="#lg5" y1="435.377" y2="406.527"/><linearGradient id="SVGID_00000099661792316687911210000000393896512293277358_" gradientTransform="matrix(1 0 0 -1 0 514)" gradientUnits="userSpaceOnUse" x1="64.953" x2="112.336" xlink:href="#lg3" y1="371.178" y2="323.795"/><linearGradient id="SVGID_00000109738918749938066100000010401626272153425565_" gradientTransform="matrix(1 0 0 -1 0 514)" gradientUnits="userSpaceOnUse" x1="87.8" x2="87.8" xlink:href="#lg4" y1="341.526" y2="305.739"/><linearGradient id="SVGID_00000067919886658505128260000013054222077387454140_" gradientTransform="matrix(1 0 0 -1 0 514)" gradientUnits="userSpaceOnUse" x1="94.454" x2="130.29" xlink:href="#lg4" y1="348.331" y2="348.331"/><linearGradient id="SVGID_00000170258506409560955620000009867508521281845412_" gradientTransform="matrix(1 0 0 -1 0 514)" gradientUnits="userSpaceOnUse" x1="102.392" x2="123.241" xlink:href="#lg5" y1="333.739" y2="312.89"/><g><g><path d="m374.107 108.802c-14.037 35.822-37.478 67.201-67.853 90.827l-27.935 21.727-53.32 41.458c-2.562 1.985-2.798 5.775-.508 8.065l59.311 59.311c2.29 2.29 6.081 2.054 8.071-.502l41.458-53.32 21.722-27.941c23.625-30.376 55.005-53.816 90.827-67.853 4.362-1.708 8.077-4.2 11.106-7.229 12.041-12.041 13.131-32.539-.035-45.705l-29.91-29.91c-16.471-16.471-44.435-10.627-52.934 11.072z" fill="url(#SVGID_1_)"/><path d="m456.989 173.35c-3.03 3.02-6.75 5.52-11.11 7.22-35.82 14.04-67.2 37.48-90.83 67.86l-21.72 27.94-41.46 53.32c-1.99 2.55-5.78 2.79-8.07.5l-44.92-44.92 187.84-187.84c.11.09.22.2.32.3l29.91 29.91c13.17 13.17 12.08 33.66.04 45.71z" fill="url(#SVGID_00000026869533814855690870000006293937396983340730_)"/><path d="m350.469 153.02c-12.254 17.595-27.139 33.327-44.215 46.609l-27.935 21.727-53.32 41.458c-2.562 1.985-2.798 5.775-.508 8.065l59.311 59.311c2.29 2.29 6.081 2.054 8.071-.502l41.458-53.32 21.722-27.941c23.625-30.376 55.005-53.816 90.827-67.853 4.362-1.708 8.077-4.2 11.106-7.229 5.509-5.509 8.717-12.788 9.325-20.326h-115.842z" fill="url(#SVGID_00000075156197560154640740000004689476390509912475_)"/></g><g><circle cx="184.634" cy="228.127" fill="url(#SVGID_00000042737292314618953950000006488030761667970213_)" r="32.444"/><path d="m201.423 222.396h-11.058v-11.058c0-1.617-1.311-2.929-2.929-2.929h-5.605c-1.617 0-2.929 1.311-2.929 2.929v11.058h-11.058c-1.617 0-2.929 1.311-2.929 2.929v5.605c0 1.617 1.311 2.929 2.929 2.929h11.058v11.058c0 1.617 1.311 2.929 2.929 2.929h5.605c1.617 0 2.929-1.311 2.929-2.929v-11.058h11.058c1.617 0 2.929-1.311 2.929-2.929v-5.605c-.001-1.618-1.312-2.929-2.929-2.929z" fill="#fff"/><path d="m152.19 228.127c0 17.918 14.526 32.444 32.444 32.444s32.444-14.526 32.444-32.444c0-.897-.038-1.785-.109-2.664h-64.669c-.072.879-.11 1.767-.11 2.664z" fill="url(#SVGID_00000078021611010523551350000015118024112237633720_)"/><path d="m184.634 195.683c-2.09 0-4.133.2-6.113.578v63.732c1.98.378 4.023.578 6.113.578 17.918 0 32.444-14.526 32.444-32.444s-14.526-32.444-32.444-32.444z" fill="url(#SVGID_00000080164966634183849800000017280602706206216877_)"/><path d="m207.438 205.052-45.879 45.879c5.882 5.951 14.047 9.639 23.075 9.639 17.918 0 32.444-14.526 32.444-32.444 0-9.027-3.689-17.193-9.64-23.074z" fill="url(#SVGID_00000127031184144377026650000017353535195324794284_)"/></g><g><g><path d="m330.914 482.649c-3.229-9.092-5.817-17.393-7.843-24.961h-134.144c-2.027 7.568-4.615 15.868-7.843 24.961l-5.113 14.398c-2.59 7.293 2.819 14.953 10.558 14.953h138.94c7.739 0 13.148-7.66 10.558-14.953z" fill="url(#SVGID_00000057870180274738279490000005191099680922763658_)"/><path d="m330.914 482.649c-3.229-9.092-5.817-17.393-7.843-24.961h-134.144c-2.027 7.568-4.615 15.868-7.843 24.961l-5.113 14.398c-2.59 7.293 2.819 14.953 10.558 14.953h138.94c7.739 0 13.148-7.66 10.558-14.953z" fill="url(#SVGID_00000135662371782792062590000001487030450963605159_)"/><path d="m330.914 482.649c-3.229-9.092-5.817-17.393-7.843-24.961h-134.144c-2.027 7.568-4.615 15.868-7.843 24.961l-5.113 14.398c-2.59 7.293 2.819 14.953 10.558 14.953h138.94c7.739 0 13.148-7.66 10.558-14.953z" fill="url(#SVGID_00000021833924100295585400000003566356820744042150_)"/><path d="m330.914 482.649c-3.229-9.092-5.817-17.393-7.843-24.961h-52.671v54.312h55.069c7.739 0 13.148-7.66 10.558-14.953z" fill="url(#SVGID_00000057132868641375636450000005587092770216224417_)"/></g><g><path d="m156.022 454.022c61.783 36.027 138.171 36.027 199.954 0 71.347-41.604 108.713-122.403 96.087-202.321h-392.128c-12.627 79.917 24.74 160.717 96.087 202.321z" fill="url(#SVGID_00000056394534170601919980000005507984174667221141_)"/><path d="m65.157 337.048c13.716 47.997 45.381 90.451 90.864 116.974 61.783 36.027 138.171 36.027 199.954 0 45.483-26.522 77.149-68.976 90.864-116.974z" fill="url(#SVGID_00000026874249358989450110000010627508318496344758_)"/><path d="m452.063 251.7h-223.367v227.438c43.345 6.015 88.229-2.345 127.28-25.117 71.347-41.603 108.713-122.403 96.087-202.321z" fill="url(#SVGID_00000095297514728950030770000015609220843834660759_)"/><path d="m59.935 251.7c-5.094 32.242-2.046 64.626 8.082 94.523h375.963c10.129-29.897 13.177-62.281 8.083-94.523z" fill="url(#SVGID_00000074415980185688145960000008747970732526896818_)"/><path d="m65.157 337.048c13.716 47.997 45.381 90.451 90.864 116.974 61.783 36.027 138.171 36.027 199.954 0 45.483-26.522 77.149-68.976 90.864-116.974z" fill="url(#SVGID_00000033355917566982632570000016908056856051875212_)"/><path d="m355.976 454.022c71.346-41.604 108.713-122.403 96.087-202.321h-169.184l-169.211 169.211c12.324 12.678 26.498 23.863 42.354 33.11 61.783 36.027 138.171 36.027 199.954 0z" fill="url(#SVGID_00000090278275604844438030000013401551623046503304_)"/></g><g><path d="m64.055 233.643h383.888c10.207 0 18.482 8.275 18.482 18.482 0 10.207-8.275 18.482-18.482 18.482h-383.888c-10.207 0-18.482-8.275-18.482-18.482 0-10.208 8.275-18.482 18.482-18.482z" fill="url(#SVGID_00000113314075383159369350000009397369981287207070_)"/><path d="m466.422 252.129c0 5.102-2.064 9.717-5.413 13.067-3.35 3.35-7.964 5.413-13.066 5.413h-383.887c-10.204 0-18.48-8.275-18.48-18.48 0-1.804.259-3.536.736-5.175h419.373c.477 1.639.737 3.371.737 5.175z" fill="url(#SVGID_00000073717326847928738740000010057335654590191802_)"/><path d="m447.943 233.643h-70.817v36.963h70.817c10.207 0 18.482-8.274 18.482-18.482 0-10.207-8.275-18.481-18.482-18.481z" fill="url(#SVGID_00000028303677944368253790000016908034629878847618_)"/></g></g><g><circle cx="225.531" cy="123.442" fill="url(#SVGID_00000122680781551410523910000008280822659874751141_)" r="45.572"/><circle cx="225.531" cy="123.442" fill="url(#SVGID_00000099657179318069374220000017963383873319417493_)" r="45.572"/><path d="m249.113 115.392h-15.532v-15.532c0-2.272-1.842-4.114-4.114-4.114h-7.873c-2.272 0-4.114 1.842-4.114 4.114v15.532h-15.532c-2.272 0-4.114 1.842-4.114 4.114v7.873c0 2.272 1.842 4.114 4.114 4.114h15.532v15.532c0 2.272 1.842 4.114 4.114 4.114h7.873c2.272 0 4.114-1.842 4.114-4.114v-15.532h15.532c2.272 0 4.114-1.842 4.114-4.114v-7.873c0-2.272-1.842-4.114-4.114-4.114z" fill="#fff"/><path d="m179.958 123.442c0 25.169 20.403 45.572 45.572 45.572s45.572-20.403 45.572-45.572c0-1.26-.053-2.507-.154-3.741h-90.837c-.099 1.234-.153 2.481-.153 3.741z" fill="url(#SVGID_00000066492526464632867290000000659834600672690338_)"/><path d="m225.531 77.87c-2.936 0-5.806.281-8.587.811v89.522c2.781.53 5.651.811 8.587.811 25.169 0 45.572-20.403 45.572-45.572s-20.404-45.572-45.572-45.572z" fill="url(#SVGID_00000101823112362329052000000008226115888623525801_)"/><path d="m257.563 91.03-64.445 64.445c8.262 8.359 19.731 13.54 32.412 13.54 25.169 0 45.572-20.403 45.572-45.572.001-12.682-5.18-24.151-13.539-32.413z" fill="url(#SVGID_00000135690403687696581340000011506997348696322715_)"/></g><g><circle cx="151.91" cy="58.431" fill="url(#SVGID_00000176042894723204206520000018056326026131356070_)" r="58.431"/><path d="m182.146 48.11h-19.915v-19.915c0-2.913-2.361-5.274-5.274-5.274h-10.094c-2.913 0-5.274 2.361-5.274 5.274v19.915h-19.915c-2.913 0-5.274 2.362-5.274 5.274v10.094c0 2.913 2.361 5.274 5.274 5.274h19.915v19.915c0 2.913 2.361 5.274 5.274 5.274h10.094c2.913 0 5.274-2.361 5.274-5.274v-19.914h19.915c2.913 0 5.274-2.361 5.274-5.274v-10.095c0-2.913-2.361-5.274-5.274-5.274z" fill="#fff"/><path d="m93.478 58.431c0 32.271 26.16 58.431 58.431 58.431s58.431-26.161 58.431-58.431c0-1.615-.069-3.215-.197-4.797h-116.467c-.129 1.582-.198 3.182-.198 4.797z" fill="url(#SVGID_00000093163564926988868380000016219094474228062113_)"/><path d="m151.91 0c-3.764 0-7.444.36-11.01 1.04v114.782c3.566.68 7.246 1.04 11.01 1.04 32.271 0 58.431-26.161 58.431-58.431 0-32.271-26.161-58.431-58.431-58.431z" fill="url(#SVGID_00000152250119020651850680000010669042876164379787_)"/><path d="m192.98 16.874-82.628 82.628c10.593 10.717 25.298 17.36 41.557 17.36 32.271 0 58.431-26.161 58.431-58.431.001-16.259-6.642-30.965-17.36-41.557z" fill="url(#SVGID_00000021832674457374009760000006314389205971766928_)"/></g><g><circle cx="87.8" cy="165.669" fill="url(#SVGID_00000099661792316687911210000000393896512293277358_)" r="42.227"/><path d="m109.651 158.21h-14.392v-14.392c0-2.105-1.706-3.812-3.812-3.812h-7.295c-2.105 0-3.812 1.707-3.812 3.812v14.392h-14.391c-2.105 0-3.812 1.707-3.812 3.812v7.295c0 2.105 1.706 3.812 3.812 3.812h14.392v14.392c0 2.105 1.707 3.812 3.812 3.812h7.295c2.105 0 3.812-1.706 3.812-3.812v-14.392h14.392c2.105 0 3.812-1.706 3.812-3.812v-7.295c-.001-2.105-1.708-3.812-3.813-3.812z" fill="#fff"/><path d="m45.573 165.669c0 23.321 18.905 42.227 42.227 42.227s42.227-18.906 42.227-42.227c0-1.167-.05-2.323-.142-3.467h-84.169c-.093 1.144-.143 2.3-.143 3.467z" fill="url(#SVGID_00000109738918749938066100000010401626272153425565_)"/><path d="m87.8 123.442c-2.72 0-5.379.26-7.957.752v82.949c2.577.491 5.236.752 7.957.752 23.321 0 42.227-18.906 42.227-42.227-.001-23.32-18.906-42.226-42.227-42.226z" fill="url(#SVGID_00000067919886658505128260000013054222077387454140_)"/><path d="m117.481 135.637-59.714 59.713c7.655 7.745 18.282 12.546 30.032 12.546 23.321 0 42.227-18.906 42.227-42.227 0-11.75-4.8-22.377-12.545-30.032z" fill="url(#SVGID_00000170258506409560955620000009867508521281845412_)"/></g></g></svg>