<svg id="_18_Cream" enable-background="new 0 0 512 512" viewBox="0 0 512 512" xmlns="http://www.w3.org/2000/svg" xmlns:xlink="http://www.w3.org/1999/xlink"><linearGradient id="SVGID_1_" gradientTransform="matrix(1 0 0 -1 0 514)" gradientUnits="userSpaceOnUse" x1="174.431" x2="205.798" y1="418.514" y2="331.544"><stop offset="0" stop-color="#f3faff"/><stop offset="1" stop-color="#d5daf3"/></linearGradient><linearGradient id="lg1"><stop offset="0" stop-color="#dbd5ef" stop-opacity="0"/><stop offset=".2667" stop-color="#d8d2ec" stop-opacity=".023"/><stop offset=".4431" stop-color="#d1c9e2" stop-opacity=".098"/><stop offset=".5933" stop-color="#c4b9d1" stop-opacity=".225"/><stop offset=".7288" stop-color="#b2a4ba" stop-opacity=".405"/><stop offset=".8545" stop-color="#9a889c" stop-opacity=".638"/><stop offset=".9713" stop-color="#7e6678" stop-opacity=".92"/><stop offset="1" stop-color="#765d6e"/></linearGradient><linearGradient id="SVGID_00000173153952428860311360000010070783404773390977_" gradientTransform="matrix(1 0 0 -1 0 514)" gradientUnits="userSpaceOnUse" x1="196.61" x2="196.61" xlink:href="#lg1" y1="370.708" y2="343.119"/><linearGradient id="SVGID_00000167386868235053642730000016447436054522628497_" gradientTransform="matrix(1 0 0 -1 0 514)" gradientUnits="userSpaceOnUse" x1="258.743" x2="307.739" xlink:href="#lg1" y1="381.764" y2="381.764"/><linearGradient id="SVGID_00000016036229488973238700000000581224347699433112_" gradientTransform="matrix(1 0 0 -1 0 514)" gradientUnits="userSpaceOnUse" x1="168.639" x2="187.649" xlink:href="#lg1" y1="383.011" y2="342.14"/><linearGradient id="lg2"><stop offset="0" stop-color="#fef0ae"/><stop offset="1" stop-color="#fac600"/></linearGradient><linearGradient id="SVGID_00000123408908775619991390000001740909377311569798_" gradientTransform="matrix(1 0 0 -1 0 514)" gradientUnits="userSpaceOnUse" x1="137.945" x2="232.38" xlink:href="#lg2" y1="326.057" y2="326.057"/><linearGradient id="lg3"><stop offset="0" stop-color="#fe9738" stop-opacity="0"/><stop offset=".1648" stop-color="#fe9637" stop-opacity=".012"/><stop offset=".2957" stop-color="#fe9535" stop-opacity=".052"/><stop offset=".415" stop-color="#fe9331" stop-opacity=".118"/><stop offset=".5274" stop-color="#fe902c" stop-opacity=".211"/><stop offset=".635" stop-color="#fe8c25" stop-opacity=".331"/><stop offset=".739" stop-color="#fe871d" stop-opacity=".479"/><stop offset=".8401" stop-color="#fe8213" stop-opacity=".655"/><stop offset=".9364" stop-color="#fe7b09" stop-opacity=".852"/><stop offset="1" stop-color="#fe7701"/></linearGradient><linearGradient id="SVGID_00000122694805910633636210000015248406548335076507_" gradientTransform="matrix(1 0 0 -1 0 514)" gradientUnits="userSpaceOnUse" x1="248.485" x2="332.497" xlink:href="#lg3" y1="326.057" y2="326.057"/><linearGradient id="SVGID_00000044163230709107192230000001202164448772143502_" gradientTransform="matrix(1 0 0 -1 0 514)" gradientUnits="userSpaceOnUse" x1="190.138" x2="190.138" xlink:href="#lg3" y1="354.074" y2="312.185"/><linearGradient id="SVGID_00000164498662819844571010000003780633640182676904_" gradientTransform="matrix(1 0 0 -1 0 514)" gradientUnits="userSpaceOnUse" x1="190.138" x2="190.138" xlink:href="#lg3" y1="312.253" y2="328.418"/><linearGradient id="SVGID_00000124143874807529394070000009104262300116320649_" gradientTransform="matrix(1 0 0 -1 0 514)" gradientUnits="userSpaceOnUse" x1="190.138" x2="190.138" xlink:href="#lg2" y1="335.065" y2="326.392"/><linearGradient id="SVGID_00000162328668770893058450000012623540890224988057_" gradientTransform="matrix(1 0 0 -1 0 514)" gradientUnits="userSpaceOnUse" x1="281.876" x2="306.114" xlink:href="#lg3" y1="346.64" y2="356.62"/><linearGradient id="SVGID_00000025426701407626823710000006903258783653285561_" gradientTransform="matrix(1 0 0 -1 0 514)" gradientUnits="userSpaceOnUse" x1="62.256" x2="222.361" xlink:href="#lg2" y1="192.396" y2="192.396"/><linearGradient id="SVGID_00000101819676659434360520000012823363956511635105_" gradientTransform="matrix(1 0 0 -1 0 514)" gradientUnits="userSpaceOnUse" x1="190.138" x2="190.138" xlink:href="#lg3" y1="115.783" y2="65.652"/><linearGradient id="SVGID_00000124162852027461940720000013013042239622104452_" gradientTransform="matrix(1 0 0 -1 0 514)" gradientUnits="userSpaceOnUse" x1="262.118" x2="381.735" xlink:href="#lg3" y1="192.396" y2="192.396"/><linearGradient id="SVGID_00000033339637888630153680000012661200317125211321_" gradientTransform="matrix(1 0 0 -1 0 514)" gradientUnits="userSpaceOnUse" x1="190.363" x2="191.076" y1="267.058" y2="319.81"><stop offset="0" stop-color="#fac600" stop-opacity="0"/><stop offset=".1175" stop-color="#fac602" stop-opacity=".017"/><stop offset=".2423" stop-color="#fac80b" stop-opacity=".067"/><stop offset=".3705" stop-color="#facc1a" stop-opacity=".151"/><stop offset=".5011" stop-color="#fbd12e" stop-opacity=".268"/><stop offset=".6336" stop-color="#fbd748" stop-opacity=".419"/><stop offset=".7676" stop-color="#fcdf69" stop-opacity=".604"/><stop offset=".9003" stop-color="#fde88e" stop-opacity=".819"/><stop offset="1" stop-color="#fef0ae"/></linearGradient><linearGradient id="SVGID_00000071519846183393771040000011008776913442219417_" gradientTransform="matrix(1 0 0 -1 0 514)" gradientUnits="userSpaceOnUse" x1="311.113" x2="354.836" xlink:href="#lg3" y1="229.103" y2="251.915"/><linearGradient id="lg4"><stop offset="0" stop-color="#e5caf3"/><stop offset=".1585" stop-color="#ddbfee"/><stop offset=".4338" stop-color="#caa2e0"/><stop offset=".7905" stop-color="#ac75cb"/><stop offset="1" stop-color="#9857bd"/></linearGradient><linearGradient id="SVGID_00000134946158671151427380000014900833172347543688_" gradientTransform="matrix(1 0 0 -1 543.026 1666.088)" gradientUnits="userSpaceOnUse" x1="-429.638" x2="-280.071" xlink:href="#lg4" y1="1428.549" y2="1253.556"/><linearGradient id="lg5"><stop offset="0" stop-color="#814aa0" stop-opacity="0"/><stop offset=".1758" stop-color="#7f499e" stop-opacity=".038"/><stop offset=".3644" stop-color="#7b4699" stop-opacity=".149"/><stop offset=".559" stop-color="#744291" stop-opacity=".333"/><stop offset=".7577" stop-color="#6a3c85" stop-opacity=".592"/><stop offset=".9577" stop-color="#5d3477" stop-opacity=".922"/><stop offset="1" stop-color="#5b3374"/></linearGradient><linearGradient id="SVGID_00000083055289517830333650000010259699414142033286_" gradientTransform="matrix(1 0 0 -1 0 514)" gradientUnits="userSpaceOnUse" x1="253.707" x2="192.875" xlink:href="#lg5" y1="122.944" y2="184.251"/><linearGradient id="SVGID_00000092456970636104469460000000856107439103127735_" gradientTransform="matrix(1 0 0 -1 0 514)" gradientUnits="userSpaceOnUse" x1="190.138" x2="190.138" xlink:href="#lg5" y1="146.51" y2="84.453"/><linearGradient id="SVGID_00000042695929914391907510000015874138776626415038_" gradientTransform="matrix(1 0 0 -1 0 514)" gradientUnits="userSpaceOnUse" x1="295.89" x2="342.069" xlink:href="#lg5" y1="186.664" y2="186.664"/><linearGradient id="SVGID_00000150072327736313146640000002673805185510221192_" gradientTransform="matrix(.463 .886 .886 -.463 -243.315 54.95)" gradientUnits="userSpaceOnUse" x1="485.789" x2="485.789" xlink:href="#lg4" y1="513.182" y2="433.269"/><linearGradient id="SVGID_00000076596082196773343250000008407658383860966805_" gradientTransform="matrix(.463 .886 .886 -.463 -243.315 54.95)" gradientUnits="userSpaceOnUse" x1="641.926" x2="224.724" xlink:href="#lg4" y1="474.029" y2="474.029"/><linearGradient id="SVGID_00000028314213399086726620000007292332826784323493_" gradientTransform="matrix(.463 .886 .886 -.463 -243.315 54.95)" gradientUnits="userSpaceOnUse" x1="485.789" x2="485.789" xlink:href="#lg4" y1="517.368" y2="440.469"/><linearGradient id="SVGID_00000049914978935599688380000004010610064513289367_" gradientTransform="matrix(.463 .886 .886 -.463 -243.315 54.95)" gradientUnits="userSpaceOnUse" x1="518.116" x2="438.413" xlink:href="#lg4" y1="474.029" y2="474.029"/><linearGradient id="lg6"><stop offset="0" stop-color="#2740b0" stop-opacity="0"/><stop offset=".1646" stop-color="#263fae" stop-opacity=".036"/><stop offset=".3472" stop-color="#243ca8" stop-opacity=".143"/><stop offset=".5386" stop-color="#22389f" stop-opacity=".321"/><stop offset=".7359" stop-color="#1f3392" stop-opacity=".569"/><stop offset=".9359" stop-color="#1a2c82" stop-opacity=".885"/><stop offset="1" stop-color="#192a7d"/></linearGradient><linearGradient id="SVGID_00000054245897718466742240000001322475943256903066_" gradientTransform="matrix(.463 .886 .886 -.463 -243.315 54.95)" gradientUnits="userSpaceOnUse" x1="485.789" x2="485.789" xlink:href="#lg6" y1="476.475" y2="431.466"/><linearGradient id="SVGID_00000081639596598021468920000000927588858803069338_" gradientTransform="matrix(.463 .886 .886 -.463 -243.315 54.95)" gradientUnits="userSpaceOnUse" x1="486.004" x2="486.492" xlink:href="#lg5" y1="453.361" y2="426.536"/><linearGradient id="SVGID_00000182495792523138106460000007471698955752066435_" gradientTransform="matrix(.463 .886 .886 -.463 -243.315 54.95)" gradientUnits="userSpaceOnUse" x1="632.688" x2="676.473" xlink:href="#lg6" y1="474.029" y2="474.029"/><linearGradient id="SVGID_00000165935317600273767810000017167478914948793525_" gradientTransform="matrix(1 0 0 -1 0 514)" gradientUnits="userSpaceOnUse" x1="157.891" x2="224.77" y1="218.911" y2="152.032"><stop offset="0" stop-color="#fe646f"/><stop offset=".235" stop-color="#fa5964"/><stop offset=".6415" stop-color="#ef3d49"/><stop offset="1" stop-color="#e41f2d"/></linearGradient><linearGradient id="lg7"><stop offset="0" stop-color="#a72b2b" stop-opacity="0"/><stop offset=".1561" stop-color="#a32b2a" stop-opacity=".066"/><stop offset=".386" stop-color="#982c29" stop-opacity=".248"/><stop offset=".6615" stop-color="#872f28" stop-opacity=".545"/><stop offset=".97" stop-color="#6f3226" stop-opacity=".956"/><stop offset="1" stop-color="#6d3326"/></linearGradient><linearGradient id="SVGID_00000130647097522968812920000017426225197663113404_" gradientTransform="matrix(1 0 0 -1 0 514)" gradientUnits="userSpaceOnUse" x1="191.17" x2="198.272" xlink:href="#lg7" y1="178.756" y2="126.674"/><linearGradient id="SVGID_00000114052984342660117680000004891795036886453913_" gradientTransform="matrix(1 0 0 -1 0 514)" gradientUnits="userSpaceOnUse" x1="191.423" x2="248.833" xlink:href="#lg7" y1="186.467" y2="177.59"/><linearGradient id="SVGID_00000139279481639516619770000010772600485880693154_" gradientTransform="matrix(1 0 0 -1 0 514)" gradientUnits="userSpaceOnUse" x1="210.734" x2="240.161" y1="166.068" y2="136.641"><stop offset="0" stop-color="#e41f2d" stop-opacity="0"/><stop offset=".0725" stop-color="#e62533" stop-opacity=".093"/><stop offset=".3356" stop-color="#ee3b48" stop-opacity=".411"/><stop offset=".5691" stop-color="#f54c58" stop-opacity=".664"/><stop offset=".7644" stop-color="#f95964" stop-opacity=".846"/><stop offset=".914" stop-color="#fc616c" stop-opacity=".958"/><stop offset="1" stop-color="#fe646f"/></linearGradient><g><g><path d="m56.762 177.742s-18.059-36.826 17.584-53.935 86.495 9.03 108.356-9.03c14.148-11.688 6.998-29.547.191-40.693-2.553-4.18.783-9.473 5.647-8.906 42.273 4.924 172.13 27.119 149.905 112.564z" fill="url(#SVGID_1_)"/><path d="m277.5 86.724c3.59 19.431-8.72 38.255-27.961 42.756l-32.853 7.686c-31.559 7.383-64.23 8.738-96.292 3.992l-40.861-6.048c-7.18-1.063-14.453 1.21-19.75 6.172-5.118 4.794-7.958 11.607-7.499 18.605.661 10.072 4.478 17.855 4.478 17.855h281.684c12.17-46.789-21.264-74.611-60.946-91.018z" fill="url(#SVGID_00000173153952428860311360000010070783404773390977_)"/><path d="m338.45 177.746h-77.33v-53.17c12.3-7.9 19.18-22.69 16.38-37.85 39.68 16.4 73.12 44.23 60.95 91.02z" fill="url(#SVGID_00000167386868235053642730000016447436054522628497_)"/><path d="m277.5 86.726c3.59 19.43-8.72 38.25-27.96 42.75l-32.85 7.69c-31.56 7.38-64.23 8.74-96.3 3.99l-40.86-6.05c-7.18-1.06-14.45 1.21-19.75 6.18-4.76 4.46-7.55 10.67-7.55 17.15 0 .2 0 .4.01.61-.56-11.7 3.3-26.21 22.11-35.24 35.64-17.11 86.49 9.03 108.35-9.03 14.15-11.69 7-29.55.19-40.69-2.55-4.18.79-9.48 5.65-8.91 19.12 2.23 56.17 8 88.96 21.55z" fill="url(#SVGID_00000016036229488973238700000000581224347699433112_)"/></g><g><g><path d="m57.748 166.36h264.781c5.727 0 10.377 4.65 10.377 10.377v32.79h-285.535v-32.79c0-5.727 4.65-10.377 10.377-10.377z" fill="url(#SVGID_00000123408908775619991390000001740909377311569798_)"/><path d="m322.528 166.36h-101.608v43.166h111.985v-32.79c0-5.73-4.646-10.376-10.377-10.376z" fill="url(#SVGID_00000122694805910633636210000015248406548335076507_)"/><path d="m47.371 181.597h285.534v27.929h-285.534z" fill="url(#SVGID_00000044163230709107192230000001202164448772143502_)"/><path d="m47.371 181.597h285.534v27.929h-285.534z" fill="url(#SVGID_00000164498662819844571010000003780633640182676904_)"/><path d="m47.596 176.411h285.084c3.185 0 5.766 2.582 5.766 5.766 0 3.185-2.582 5.766-5.766 5.766h-285.084c-3.185 0-5.766-2.582-5.766-5.766 0-3.185 2.582-5.766 5.766-5.766z" fill="url(#SVGID_00000124143874807529394070000009104262300116320649_)"/><path d="m332.889 176.421c-.168-5.583-4.736-10.061-10.361-10.061h-191.654l43.166 43.166h158.865v-21.595c3.079-.119 5.541-2.646 5.541-5.755 0-3.113-2.47-5.644-5.557-5.755z" fill="url(#SVGID_00000162328668770893058450000012623540890224988057_)"/><g><path d="m380.276 419.077c0 15.346-12.444 27.789-27.789 27.789h-324.698c-15.345 0-27.789-12.443-27.789-27.789v-158.883c0-35.262 28.589-63.852 63.852-63.852h252.572c35.262 0 63.852 28.59 63.852 63.852z" fill="url(#SVGID_00000025426701407626823710000006903258783653285561_)"/><path d="m380.276 419.077c0 15.346-12.444 27.789-27.789 27.789h-324.698c-15.345 0-27.789-12.443-27.789-27.789v-74.065h380.276z" fill="url(#SVGID_00000101819676659434360520000012823363956511635105_)"/><path d="m380.276 419.077c0 15.346-12.444 27.789-27.789 27.789h-113.626v-250.524h77.563c35.262 0 63.852 28.59 63.852 63.852z" fill="url(#SVGID_00000124162852027461940720000013013042239622104452_)"/></g><path d="m316.424 196.342h-252.572c-35.263 0-63.852 28.59-63.852 63.852v7.271h380.275l.001-7.271c0-35.262-28.59-63.852-63.852-63.852z" fill="url(#SVGID_00000033339637888630153680000012661200317125211321_)"/><path d="m316.424 196.342h-155.568l219.42 219.42v-155.568c0-35.262-28.589-63.852-63.852-63.852z" fill="url(#SVGID_00000071519846183393771040000011008776913442219417_)"/></g><g><path d="m70.914 252.552h238.449c6.432 0 11.647 5.214 11.647 11.647v126.273c0 6.432-5.214 11.647-11.647 11.647h-238.449c-6.432 0-11.647-5.214-11.647-11.647v-126.273c0-6.432 5.214-11.647 11.647-11.647z" fill="url(#SVGID_00000134946158671151427380000014900833172347543688_)"/><path d="m232.031 284.947-84.282 84.282 32.891 32.891h128.723c6.432 0 11.647-5.214 11.647-11.647v-16.548z" fill="url(#SVGID_00000083055289517830333650000010259699414142033286_)"/><path d="m59.267 288.654v101.819c0 6.432 5.215 11.647 11.647 11.647h238.449c6.432 0 11.647-5.214 11.647-11.647v-101.819z" fill="url(#SVGID_00000092456970636104469460000000856107439103127735_)"/><path d="m309.362 252.552h-94.876v149.567h94.876c6.432 0 11.647-5.214 11.647-11.647v-126.273c0-6.432-5.214-11.647-11.647-11.647z" fill="url(#SVGID_00000042695929914391907510000015874138776626415038_)"/></g></g><g><path d="m364.617 110.43 143.675 275.096c8.323 15.936 2.142 35.632-13.794 43.955l-30.923 16.15c-5.305 2.771-11.861.713-14.632-4.592l-163.796-313.621c-2.771-5.305-.713-11.861 4.592-14.632l30.923-16.15c15.937-8.323 35.632-2.142 43.955 13.794z" fill="url(#SVGID_00000150072327736313146640000002673805185510221192_)"/><path d="m371.714 124.018 129.482 247.921c2.772 5.309.717 11.859-4.592 14.632l-50.186 26.211c-5.309 2.772-11.859.717-14.632-4.592l-129.482-247.921c-2.772-5.309-.717-11.859 4.592-14.632l50.186-26.211c5.308-2.773 11.859-.717 14.632 4.592z" fill="url(#SVGID_00000076596082196773343250000008407658383860966805_)"/><path d="m397.243 172.898 78.424 150.16c2.772 5.309.717 11.859-4.592 14.632l-50.186 26.211c-5.309 2.772-11.859.717-14.632-4.592l-78.424-150.16c-2.773-5.309-.717-11.859 4.592-14.632l50.186-26.211c5.308-2.772 11.859-.716 14.632 4.592z" fill="url(#SVGID_00000028314213399086726620000007292332826784323493_)"/><path d="m425.105 226.247 22.7 43.463c2.772 5.309.717 11.859-4.592 14.632l-50.186 26.211c-5.309 2.772-11.859.717-14.632-4.592l-22.7-43.463c-2.772-5.309-.717-11.859 4.592-14.632l50.186-26.211c5.309-2.772 11.86-.717 14.632 4.592z" fill="url(#SVGID_00000049914978935599688380000004010610064513289367_)"/><path d="m289.739 112.786 34.523-18.03c5.309-2.772 11.859-.717 14.632 4.592l163.796 313.622c2.773 5.309.717 11.859-4.592 14.632l-34.523 18.03c-5.309 2.772-11.859.717-14.632-4.592l-163.796-313.622c-2.772-5.308-.716-11.859 4.592-14.632z" fill="url(#SVGID_00000054245897718466742240000001322475943256903066_)"/><path d="m289.739 112.786 34.523-18.03c5.309-2.772 11.859-.717 14.632 4.592l163.796 313.622c2.773 5.309.717 11.859-4.592 14.632l-34.523 18.03c-5.309 2.772-11.859.717-14.632-4.592l-163.796-313.622c-2.772-5.308-.716-11.859 4.592-14.632z" fill="url(#SVGID_00000081639596598021468920000000927588858803069338_)"/><path d="m508.292 385.527-66.817-127.937c-2.772-5.309-9.323-7.364-14.632-4.592l-50.186 26.211c-5.309 2.772-7.364 9.323-4.592 14.632l76.878 147.199c2.772 5.309 9.323 7.364 14.632 4.592l30.923-16.15c15.947-8.329 22.123-28.008 13.794-43.955z" fill="url(#SVGID_00000182495792523138106460000007471698955752066435_)"/></g><g><circle cx="190.138" cy="327.336" fill="url(#SVGID_00000165935317600273767810000017167478914948793525_)" r="59.601"/><path d="m220.98 316.808h-20.314v-20.314c0-2.971-2.409-5.38-5.38-5.38h-10.296c-2.971 0-5.38 2.409-5.38 5.38v20.314h-20.314c-2.971 0-5.38 2.409-5.38 5.38v10.297c0 2.971 2.409 5.38 5.38 5.38h20.314v20.314c0 2.971 2.409 5.38 5.38 5.38h10.297c2.971 0 5.38-2.409 5.38-5.38v-20.314h20.314c2.971 0 5.38-2.409 5.38-5.38v-10.297c-.001-2.971-2.41-5.38-5.381-5.38z" fill="#fff"/><path d="m130.537 327.336c0 32.917 26.684 59.601 59.601 59.601s59.601-26.684 59.601-59.601c0-1.648-.07-3.279-.201-4.893h-118.8c-.131 1.614-.201 3.245-.201 4.893z" fill="url(#SVGID_00000130647097522968812920000017426225197663113404_)"/><path d="m190.138 267.735c-3.84 0-7.593.368-11.23 1.061v117.079c3.638.694 7.391 1.061 11.23 1.061 32.917 0 59.601-26.684 59.601-59.601 0-32.916-26.684-59.6-59.601-59.6z" fill="url(#SVGID_00000114052984342660117680000004891795036886453913_)"/><path d="m232.031 284.947-84.282 84.282c10.805 10.932 25.805 17.708 42.389 17.708 32.917 0 59.601-26.684 59.601-59.601 0-16.585-6.776-31.585-17.708-42.389z" fill="url(#SVGID_00000139279481639516619770000010772600485880693154_)"/></g></g></svg>