<svg id="_19_Mortar" enable-background="new 0 0 512 512" viewBox="0 0 512 512" xmlns="http://www.w3.org/2000/svg" xmlns:xlink="http://www.w3.org/1999/xlink"><linearGradient id="lg1"><stop offset="0" stop-color="#c1e9af"/><stop offset=".1072" stop-color="#b6e4aa"/><stop offset=".2935" stop-color="#99d69e"/><stop offset=".5365" stop-color="#6bc18a"/><stop offset=".8238" stop-color="#2ca36f"/><stop offset="1" stop-color="#02905d"/></linearGradient><linearGradient id="SVGID_1_" gradientTransform="matrix(-.707 .707 -.707 -.707 2003.45 584.1)" gradientUnits="userSpaceOnUse" x1="1069.348" x2="1128.39" xlink:href="#lg1" y1="1576.121" y2="1576.121"/><linearGradient id="lg2"><stop offset="0" stop-color="#026841" stop-opacity="0"/><stop offset=".2182" stop-color="#026841" stop-opacity=".033"/><stop offset=".4099" stop-color="#026841" stop-opacity=".137"/><stop offset=".5916" stop-color="#026841" stop-opacity=".31"/><stop offset=".7671" stop-color="#026841" stop-opacity=".553"/><stop offset=".9367" stop-color="#026841" stop-opacity=".864"/><stop offset="1" stop-color="#026841"/></linearGradient><linearGradient id="SVGID_00000131362772219017533230000003253674872096825491_" gradientTransform="matrix(-.707 .707 -.707 -.707 4704.093 584.103)" gradientUnits="userSpaceOnUse" x1="2983.072" x2="3009.409" xlink:href="#lg2" y1="3487.361" y2="3485.037"/><linearGradient id="SVGID_00000163057270780348717750000011077568456391491972_" gradientTransform="matrix(-.707 .707 -.707 -.707 4704.093 584.103)" gradientUnits="userSpaceOnUse" x1="3011.951" x2="3042.42" xlink:href="#lg2" y1="3484.791" y2="3481.95"/><linearGradient id="SVGID_00000065784991042189408040000001571829443260856216_" gradientTransform="matrix(-.707 .707 -.707 -.707 4704.093 584.103)" gradientUnits="userSpaceOnUse" x1="3026.703" x2="3048.135" xlink:href="#lg2" y1="3471.129" y2="3458.219"/><linearGradient id="SVGID_00000160185549170232915300000016865334944933030281_" gradientTransform="matrix(-.707 .707 -.707 -.707 4704.093 584.103)" gradientUnits="userSpaceOnUse" x1="3001.315" x2="3001.315" xlink:href="#lg2" y1="3436.539" y2="3384.009"/><linearGradient id="SVGID_00000142886753614273333410000004031334343594001837_" gradientTransform="matrix(-.707 .707 -.707 -.707 4704.093 584.103)" gradientUnits="userSpaceOnUse" x1="2999.315" x2="2984.597" xlink:href="#lg2" y1="3480.067" y2="3483.682"/><linearGradient id="SVGID_00000167361468615973017660000005935902879338232486_" gradientTransform="matrix(-.707 .707 -.707 -.707 4704.093 584.103)" gradientUnits="userSpaceOnUse" x1="3012.594" x2="2990.387" xlink:href="#lg2" y1="3462.599" y2="3469.829"/><linearGradient id="SVGID_00000023974400013387539180000004902079551929106596_" gradientTransform="matrix(-.707 .707 -.707 -.707 4704.093 584.103)" gradientUnits="userSpaceOnUse" x1="3022.941" x2="2999.315" xlink:href="#lg2" y1="3438.726" y2="3447.247"/><linearGradient id="SVGID_00000066476770679655661170000015835039361929858696_" gradientTransform="matrix(-.707 .707 -.707 -.707 4704.093 584.103)" gradientUnits="userSpaceOnUse" x1="3010.702" x2="3042.204" xlink:href="#lg2" y1="3485.17" y2="3498.339"/><linearGradient id="SVGID_00000065039817891008640200000005824770352113121724_" gradientTransform="matrix(-.707 .707 -.707 -.707 4704.093 584.103)" gradientUnits="userSpaceOnUse" x1="2996.167" x2="3017.856" xlink:href="#lg2" y1="3465.768" y2="3474.806"/><linearGradient id="SVGID_00000029008990665601869320000003164311686229107887_" gradientTransform="matrix(-.707 .707 -.707 -.707 4704.093 584.103)" gradientUnits="userSpaceOnUse" x1="2983.095" x2="3006.593" xlink:href="#lg2" y1="3440.471" y2="3452.607"/><linearGradient id="SVGID_00000139287826332944880410000011139623543905445028_" gradientTransform="matrix(.707 .707 .707 -.707 -1574.274 584.1)" gradientUnits="userSpaceOnUse" x1="999.803" x2="1058.846" xlink:href="#lg1" y1="1577" y2="1577"/><linearGradient id="SVGID_00000147202876984104646620000003882576851620789901_" gradientTransform="matrix(.707 .707 .707 -.707 -4274.917 584.103)" gradientUnits="userSpaceOnUse" x1="2913.527" x2="2939.865" xlink:href="#lg2" y1="3488.24" y2="3485.916"/><linearGradient id="SVGID_00000116925393180897651050000000805653725325609348_" gradientTransform="matrix(.707 .707 .707 -.707 -4274.917 584.103)" gradientUnits="userSpaceOnUse" x1="2942.406" x2="2972.875" xlink:href="#lg2" y1="3485.67" y2="3482.83"/><linearGradient id="SVGID_00000007402314725057729390000000995827928297612424_" gradientTransform="matrix(.707 .707 .707 -.707 -4274.917 584.103)" gradientUnits="userSpaceOnUse" x1="2957.159" x2="2978.59" xlink:href="#lg2" y1="3472.009" y2="3459.099"/><linearGradient id="SVGID_00000159451198036208358940000003755688515767002017_" gradientTransform="matrix(.707 .707 .707 -.707 -4274.917 584.103)" gradientUnits="userSpaceOnUse" x1="2931.77" x2="2931.77" xlink:href="#lg2" y1="3437.418" y2="3384.888"/><linearGradient id="SVGID_00000121244300980214527020000009729154710999749520_" gradientTransform="matrix(.707 .707 .707 -.707 -4274.917 584.103)" gradientUnits="userSpaceOnUse" x1="2929.77" x2="2915.052" xlink:href="#lg2" y1="3480.947" y2="3484.562"/><linearGradient id="SVGID_00000130612966235760326670000017545297392177693116_" gradientTransform="matrix(.707 .707 .707 -.707 -4274.917 584.103)" gradientUnits="userSpaceOnUse" x1="2943.049" x2="2920.843" xlink:href="#lg2" y1="3463.478" y2="3470.708"/><linearGradient id="SVGID_00000003785865365785321290000017517211956147592852_" gradientTransform="matrix(.707 .707 .707 -.707 -4274.917 584.103)" gradientUnits="userSpaceOnUse" x1="2953.397" x2="2929.77" xlink:href="#lg2" y1="3439.605" y2="3448.126"/><linearGradient id="SVGID_00000083810681431387598710000004659058606874223798_" gradientTransform="matrix(.707 .707 .707 -.707 -4274.917 584.103)" gradientUnits="userSpaceOnUse" x1="2941.158" x2="2972.66" xlink:href="#lg2" y1="3486.05" y2="3499.219"/><linearGradient id="SVGID_00000152985401138968774160000005295775963657816199_" gradientTransform="matrix(.707 .707 .707 -.707 -4274.917 584.103)" gradientUnits="userSpaceOnUse" x1="2926.622" x2="2948.312" xlink:href="#lg2" y1="3466.648" y2="3475.685"/><linearGradient id="SVGID_00000003817350385166252320000005396424606277423793_" gradientTransform="matrix(.707 .707 .707 -.707 -4274.917 584.103)" gradientUnits="userSpaceOnUse" x1="2913.551" x2="2937.048" xlink:href="#lg2" y1="3441.351" y2="3453.487"/><linearGradient id="SVGID_00000179646029557690221240000005608939157850519476_" gradientTransform="matrix(1 0 0 -1 0 514)" gradientUnits="userSpaceOnUse" x1="161.925" x2="241.79" xlink:href="#lg1" y1="382.396" y2="382.396"/><linearGradient id="SVGID_00000106119361764689125490000007621813379099133065_" gradientTransform="matrix(1 0 0 -1 -1909.641 2423.645)" gradientUnits="userSpaceOnUse" x1="2077.09" x2="2112.715" xlink:href="#lg2" y1="2294.198" y2="2291.055"/><linearGradient id="SVGID_00000054963591976992642160000009067234288413111462_" gradientTransform="matrix(1 0 0 -1 -1909.641 2423.645)" gradientUnits="userSpaceOnUse" x1="2116.154" x2="2157.368" xlink:href="#lg2" y1="2290.722" y2="2286.88"/><linearGradient id="SVGID_00000144336214334113070400000002139440305458349747_" gradientTransform="matrix(1 0 0 -1 -1909.641 2423.645)" gradientUnits="userSpaceOnUse" x1="2136.108" x2="2165.098" xlink:href="#lg2" y1="2272.243" y2="2254.779"/><linearGradient id="SVGID_00000171710620974905361850000014304768154165011898_" gradientTransform="matrix(1 0 0 -1 -1909.641 2423.645)" gradientUnits="userSpaceOnUse" x1="2101.766" x2="2101.766" xlink:href="#lg2" y1="2225.453" y2="2154.398"/><linearGradient id="SVGID_00000133522709073759691670000002222373706986014395_" gradientTransform="matrix(1 0 0 -1 -1909.641 2423.645)" gradientUnits="userSpaceOnUse" x1="2099.061" x2="2079.152" xlink:href="#lg2" y1="2284.332" y2="2289.222"/><linearGradient id="SVGID_00000025406958750229233050000009643738769718079155_" gradientTransform="matrix(1 0 0 -1 -1909.641 2423.645)" gradientUnits="userSpaceOnUse" x1="2117.023" x2="2086.985" xlink:href="#lg2" y1="2260.703" y2="2270.483"/><linearGradient id="SVGID_00000013891543280186489790000015816943408024380815_" gradientTransform="matrix(1 0 0 -1 -1909.641 2423.645)" gradientUnits="userSpaceOnUse" x1="2131.02" x2="2099.061" xlink:href="#lg2" y1="2228.412" y2="2239.938"/><linearGradient id="SVGID_00000078038622371996754950000001373737730498029973_" gradientTransform="matrix(1 0 0 -1 -1909.641 2423.645)" gradientUnits="userSpaceOnUse" x1="2114.465" x2="2157.076" xlink:href="#lg2" y1="2291.235" y2="2309.048"/><linearGradient id="SVGID_00000058570747080916699910000011858552251888941210_" gradientTransform="matrix(1 0 0 -1 -1909.641 2423.645)" gradientUnits="userSpaceOnUse" x1="2094.803" x2="2124.142" xlink:href="#lg2" y1="2264.991" y2="2277.215"/><linearGradient id="SVGID_00000067928954893502005090000016276670690546734481_" gradientTransform="matrix(1 0 0 -1 -1909.641 2423.645)" gradientUnits="userSpaceOnUse" x1="2077.122" x2="2108.905" xlink:href="#lg2" y1="2230.773" y2="2247.188"/><linearGradient id="SVGID_00000071533824433316458860000015870984244890019469_" gradientTransform="matrix(1 0 0 -1 0 514)" gradientUnits="userSpaceOnUse" x1="210.461" x2="233.475" y1="301.551" y2="275.11"><stop offset="0" stop-color="#c1e9af" stop-opacity="0"/><stop offset=".1414" stop-color="#c1e9af" stop-opacity=".016"/><stop offset=".2738" stop-color="#c1e9af" stop-opacity=".065"/><stop offset=".4027" stop-color="#c1e9af" stop-opacity=".146"/><stop offset=".5294" stop-color="#c1e9af" stop-opacity=".26"/><stop offset=".6545" stop-color="#c1e9af" stop-opacity=".408"/><stop offset=".7785" stop-color="#c1e9af" stop-opacity=".589"/><stop offset=".8992" stop-color="#c1e9af" stop-opacity=".799"/><stop offset="1" stop-color="#c1e9af"/></linearGradient><linearGradient id="lg3"><stop offset="0" stop-color="#f3faff"/><stop offset="1" stop-color="#d5daf3"/></linearGradient><linearGradient id="SVGID_00000114041853650574500350000016656477389868847512_" gradientTransform="matrix(1 0 0 -1 0 514)" gradientUnits="userSpaceOnUse" x1="328.889" x2="353.558" xlink:href="#lg3" y1="326.572" y2="301.903"/><linearGradient id="lg4"><stop offset="0" stop-color="#dbd5ef" stop-opacity="0"/><stop offset=".2667" stop-color="#d8d2ec" stop-opacity=".023"/><stop offset=".4431" stop-color="#d1c9e2" stop-opacity=".098"/><stop offset=".5933" stop-color="#c4b9d1" stop-opacity=".225"/><stop offset=".7288" stop-color="#b2a4ba" stop-opacity=".405"/><stop offset=".8545" stop-color="#9a889c" stop-opacity=".638"/><stop offset=".9713" stop-color="#7e6678" stop-opacity=".92"/><stop offset="1" stop-color="#765d6e"/></linearGradient><linearGradient id="SVGID_00000119107684706637229880000016743744165196860046_" gradientTransform="matrix(1 0 0 -1 0 514)" gradientUnits="userSpaceOnUse" x1="331.708" x2="366.877" xlink:href="#lg4" y1="332.683" y2="279.456"/><linearGradient id="SVGID_00000121260256474485456530000003857769434247897763_" gradientTransform="matrix(1 0 0 -1 0 514)" gradientUnits="userSpaceOnUse" x1="344.613" x2="344.613" xlink:href="#lg4" y1="329.614" y2="264.997"/><linearGradient id="SVGID_00000132793702058420390730000004245627224091051676_" gradientTransform="matrix(1 0 0 -1 0 514)" gradientUnits="userSpaceOnUse" x1="231.205" x2="289.26" xlink:href="#lg3" y1="29.156" y2="29.156"/><linearGradient id="SVGID_00000064336022787027272270000017262886438665634491_" gradientTransform="matrix(1 0 0 -1 0 514)" gradientUnits="userSpaceOnUse" x1="255.999" x2="255.999" xlink:href="#lg4" y1="29.559" y2=".866"/><linearGradient id="SVGID_00000023994047389323611220000018184138401348051110_" gradientTransform="matrix(1 0 0 -1 0 514)" gradientUnits="userSpaceOnUse" x1="255.571" x2="257.472" xlink:href="#lg4" y1="3.245" y2="47.443"/><linearGradient id="SVGID_00000142159033355926309970000012988229528598441387_" gradientTransform="matrix(1 0 0 -1 0 514)" gradientUnits="userSpaceOnUse" x1="293.956" x2="332.308" xlink:href="#lg4" y1="28.057" y2="37.132"/><linearGradient id="SVGID_00000103233641893085953290000009879736544148782500_" gradientTransform="matrix(1 0 0 -1 0 514)" gradientUnits="userSpaceOnUse" x1="173.844" x2="323.952" xlink:href="#lg3" y1="242.075" y2="148.707"/><linearGradient id="SVGID_00000059280556058499329070000000982611234727441590_" gradientTransform="matrix(1 0 0 -1 0 514)" gradientUnits="userSpaceOnUse" x1="255.999" x2="255.999" xlink:href="#lg4" y1="146.606" y2="27.395"/><linearGradient id="SVGID_00000152226210662669219560000006610824497892110977_" gradientTransform="matrix(1 0 0 -1 0 514)" gradientUnits="userSpaceOnUse" x1="309.164" x2="444.966" xlink:href="#lg4" y1="156.692" y2="121.405"/><linearGradient id="SVGID_00000152944549553554451420000001988078346805352379_" gradientTransform="matrix(1 0 0 -1 0 514)" gradientUnits="userSpaceOnUse" x1="255.999" x2="255.999" xlink:href="#lg4" y1="192.014" y2="251.44"/><linearGradient id="SVGID_00000021814119556673513320000006530482365095812799_" gradientTransform="matrix(1 0 0 -1 0 514)" gradientUnits="userSpaceOnUse" x1="255.999" x2="255.999" xlink:href="#lg4" y1="158.257" y2="20.614"/><linearGradient id="SVGID_00000119798897403499487370000015313391327105102263_" gradientTransform="matrix(1 0 0 -1 0 514)" gradientUnits="userSpaceOnUse" x1="336.533" x2="408.177" y1="123.222" y2="50.509"><stop offset="0" stop-color="#fff" stop-opacity="0"/><stop offset=".0925" stop-color="#fff" stop-opacity=".024"/><stop offset=".2178" stop-color="#fff" stop-opacity=".092"/><stop offset=".3619" stop-color="#fff" stop-opacity=".203"/><stop offset=".52" stop-color="#fff" stop-opacity=".359"/><stop offset=".6897" stop-color="#fff" stop-opacity=".559"/><stop offset=".8661" stop-color="#fff" stop-opacity=".798"/><stop offset="1" stop-color="#fff"/></linearGradient><linearGradient id="SVGID_00000075161446400788032880000009362733126478036378_" gradientTransform="matrix(1 0 0 -1 0 514)" gradientUnits="userSpaceOnUse" x1="255.999" x2="255.999" xlink:href="#lg3" y1="277.4" y2="245.534"/><linearGradient id="SVGID_00000151535060119037961980000006043414580820903858_" gradientTransform="matrix(1 0 0 -1 0 514)" gradientUnits="userSpaceOnUse" x1="255.999" x2="255.999" xlink:href="#lg4" y1="262.615" y2="241.705"/><linearGradient id="SVGID_00000061471106476816260650000011759665199056400316_" gradientTransform="matrix(1 0 0 -1 0 514)" gradientUnits="userSpaceOnUse" x1="405.957" x2="471.23" xlink:href="#lg4" y1="261.876" y2="261.876"/><g><g><path d="m45.884 178.034c.392-4.301 3.339-7.248 7.64-7.64 29.173-2.656 65.102 11.781 93.991 40.67s43.326 64.817 40.67 93.991c-.392 4.301-3.339 7.248-7.64 7.64-29.173 2.656-65.102-11.782-93.991-40.67s-43.326-64.818-40.67-93.991z" fill="url(#SVGID_1_)"/><path d="m48.238 172.748c1.323-1.323 3.135-2.158 5.286-2.354 29.173-2.656 65.102 11.781 93.991 40.67s43.326 64.817 40.67 93.991c-.196 2.151-1.03 3.963-2.354 5.286z" fill="url(#SVGID_00000131362772219017533230000003253674872096825491_)"/><path d="m86.553 272.026c28.887 28.887 64.816 43.325 93.991 40.666 2.151-.192 3.965-1.03 5.286-2.351l-137.592-137.593c-1.322 1.322-2.159 3.135-2.351 5.286-2.659 29.176 11.779 65.105 40.666 93.992z" fill="url(#SVGID_00000163057270780348717750000011077568456391491972_)"/><path d="m86.553 272.026c28.887 28.887 64.816 43.325 93.991 40.666 2.151-.192 3.965-1.03 5.286-2.351l-137.592-137.593c-1.322 1.322-2.159 3.135-2.351 5.286-2.659 29.176 11.779 65.105 40.666 93.992z" fill="url(#SVGID_00000065784991042189408040000001571829443260856216_)"/><path d="m164.793 231.494c17.237 24.298 25.449 50.957 23.391 73.561-.392 4.301-3.339 7.248-7.64 7.64-22.604 2.058-49.263-6.154-73.561-23.391z" fill="url(#SVGID_00000160185549170232915300000016865334944933030281_)"/><g><path d="m86.554 272.025c-22.399-22.399-36.103-49.029-39.895-73.462h7.117c12.983 0 25.433 5.157 34.614 14.337l97.441 97.441c-1.323 1.323-3.135 2.158-5.286 2.354-29.174 2.656-65.102-11.782-93.991-40.67z" fill="url(#SVGID_00000142886753614273333410000004031334343594001837_)"/><path d="m86.554 272.025c-11.776-11.776-21.149-24.723-27.944-37.904h30.723c12.983 0 25.434 5.157 34.614 14.337l61.883 61.883c-1.323 1.323-3.135 2.158-5.286 2.354-29.173 2.656-65.101-11.782-93.99-40.67z" fill="url(#SVGID_00000167361468615973017660000005935902879338232486_)"/><path d="m185.831 310.341c-1.323 1.323-3.135 2.158-5.286 2.354-29.173 2.656-65.102-11.782-93.991-40.67-.776-.776-1.537-1.56-2.292-2.346h40.63c12.983 0 25.434 5.157 34.614 14.337z" fill="url(#SVGID_00000023974400013387539180000004902079551929106596_)"/></g><g><path d="m147.514 211.064c-22.399-22.399-49.029-36.103-73.462-39.895v7.117c0 12.983 5.157 25.433 14.337 34.614l97.441 97.441c1.323-1.323 2.158-3.135 2.354-5.286 2.656-29.173-11.781-65.102-40.67-93.991z" fill="url(#SVGID_00000066476770679655661170000015835039361929858696_)"/><path d="m147.514 211.064c-11.776-11.776-24.723-21.149-37.904-27.944v30.723c0 12.983 5.157 25.434 14.337 34.614l61.883 61.883c1.323-1.323 2.158-3.135 2.354-5.286 2.656-29.172-11.781-65.101-40.67-93.99z" fill="url(#SVGID_00000065039817891008640200000005824770352113121724_)"/><path d="m185.831 310.341c1.323-1.323 2.158-3.135 2.354-5.286 2.656-29.173-11.782-65.102-40.67-93.991-.776-.776-1.56-1.537-2.346-2.292v40.63c0 12.983 5.157 25.434 14.337 34.614z" fill="url(#SVGID_00000029008990665601869320000003164311686229107887_)"/></g></g><g><g><path d="m334.738 128.237c-.392-4.301-3.339-7.248-7.64-7.64-29.173-2.656-65.102 11.781-93.991 40.67s-43.326 64.817-40.67 93.991c.392 4.301 3.339 7.248 7.64 7.64 29.173 2.656 65.102-11.782 93.991-40.67 28.889-28.89 43.326-64.818 40.67-93.991z" fill="url(#SVGID_00000139287826332944880410000011139623543905445028_)"/><path d="m332.384 122.951c-1.323-1.323-3.135-2.158-5.286-2.354-29.173-2.656-65.102 11.781-93.991 40.67s-43.326 64.817-40.67 93.991c.196 2.151 1.03 3.963 2.354 5.286z" fill="url(#SVGID_00000147202876984104646620000003882576851620789901_)"/><path d="m294.069 222.228c-28.887 28.887-64.816 43.325-93.991 40.666-2.151-.192-3.965-1.03-5.286-2.351l137.593-137.593c1.322 1.322 2.159 3.135 2.351 5.286 2.658 29.176-11.78 65.106-40.667 93.992z" fill="url(#SVGID_00000116925393180897651050000000805653725325609348_)"/><path d="m294.069 222.228c-28.887 28.887-64.816 43.325-93.991 40.666-2.151-.192-3.965-1.03-5.286-2.351l137.593-137.593c1.322 1.322 2.159 3.135 2.351 5.286 2.658 29.176-11.78 65.106-40.667 93.992z" fill="url(#SVGID_00000007402314725057729390000000995827928297612424_)"/><path d="m215.829 181.697c-17.237 24.298-25.449 50.957-23.391 73.561.392 4.301 3.339 7.248 7.64 7.64 22.604 2.058 49.263-6.154 73.561-23.391z" fill="url(#SVGID_00000159451198036208358940000003755688515767002017_)"/><g><path d="m294.068 222.227c22.399-22.399 36.103-49.029 39.895-73.462h-7.117c-12.983 0-25.433 5.157-34.614 14.337l-97.441 97.441c1.323 1.323 3.135 2.158 5.286 2.354 29.174 2.656 65.102-11.781 93.991-40.67z" fill="url(#SVGID_00000121244300980214527020000009729154710999749520_)"/><path d="m294.068 222.227c11.776-11.776 21.149-24.723 27.944-37.904h-30.724c-12.983 0-25.434 5.157-34.614 14.337l-61.883 61.883c1.323 1.323 3.135 2.158 5.286 2.354 29.174 2.656 65.102-11.781 93.991-40.67z" fill="url(#SVGID_00000130612966235760326670000017545297392177693116_)"/><path d="m194.791 260.544c1.323 1.323 3.135 2.158 5.286 2.354 29.173 2.656 65.102-11.782 93.991-40.67.776-.776 1.537-1.56 2.292-2.346h-40.63c-12.983 0-25.434 5.157-34.614 14.337z" fill="url(#SVGID_00000003785865365785321290000017517211956147592852_)"/></g><g><path d="m233.108 161.267c22.399-22.399 49.029-36.103 73.462-39.895v7.117c0 12.983-5.157 25.433-14.337 34.614l-97.441 97.441c-1.323-1.323-2.158-3.135-2.354-5.286-2.656-29.174 11.781-65.102 40.67-93.991z" fill="url(#SVGID_00000083810681431387598710000004659058606874223798_)"/><path d="m233.108 161.267c11.776-11.776 24.723-21.149 37.904-27.944v30.723c0 12.983-5.157 25.434-14.337 34.614l-61.883 61.883c-1.323-1.323-2.158-3.135-2.354-5.286-2.656-29.173 11.781-65.101 40.67-93.99z" fill="url(#SVGID_00000152985401138968774160000005295775963657816199_)"/><path d="m194.791 260.544c-1.323-1.323-2.158-3.135-2.354-5.286-2.656-29.173 11.782-65.102 40.67-93.991.776-.776 1.56-1.537 2.346-2.292v40.63c0 12.983-5.157 25.434-14.337 34.614z" fill="url(#SVGID_00000003817350385166252320000005396424606277423793_)"/></g></g><g><path d="m199.433 2.805c-4.488-3.739-10.126-3.739-14.615 0-30.444 25.364-50.999 73.537-50.999 128.799s20.556 103.436 50.999 128.8c4.488 3.739 10.126 3.739 14.615 0 30.444-25.364 50.999-73.537 50.999-128.8s-20.555-103.436-50.999-128.799z" fill="url(#SVGID_00000179646029557690221240000005608939157850519476_)"/><path d="m192.126 0c-2.532 0-5.063.935-7.307 2.805-30.444 25.364-50.999 73.537-50.999 128.8s20.556 103.436 50.999 128.8c2.244 1.87 4.776 2.805 7.307 2.805z" fill="url(#SVGID_00000106119361764689125490000007621813379099133065_)"/><path d="m250.435 131.604c0 55.259-20.556 103.434-51.004 128.796-2.241 1.874-4.777 2.807-7.305 2.807v-263.207c2.528 0 5.064.933 7.305 2.807 30.448 25.363 51.004 73.538 51.004 128.797z" fill="url(#SVGID_00000054963591976992642160000009067234288413111462_)"/><path d="m250.435 131.604c0 55.259-20.556 103.434-51.004 128.796-2.241 1.874-4.777 2.807-7.305 2.807v-263.207c2.528 0 5.064.933 7.305 2.807 30.448 25.363 51.004 73.538 51.004 128.797z" fill="url(#SVGID_00000144336214334113070400000002139440305458349747_)"/><path d="m136.832 167.671c6.754 39.728 24.397 73.08 47.986 92.732 4.488 3.739 10.126 3.739 14.615 0 23.589-19.652 41.232-53.004 47.986-92.732z" fill="url(#SVGID_00000171710620974905361850000014304768154165011898_)"/><g><path d="m250.432 131.604c0-42.849-12.363-81.426-32.106-108.423l-6.807 6.807c-12.418 12.418-19.394 29.259-19.394 46.82v186.4c2.532 0 5.063-.935 7.307-2.805 30.445-25.363 51-73.536 51-128.799z" fill="url(#SVGID_00000133522709073759691670000002222373706986014395_)"/><path d="m250.432 131.604c0-22.528-3.418-43.875-9.527-62.982l-29.386 29.386c-12.418 12.418-19.394 29.259-19.394 46.82v118.379c2.532 0 5.063-.935 7.307-2.805 30.445-25.362 51-73.535 51-128.798z" fill="url(#SVGID_00000025406958750229233050000009643738769718079155_)"/><path d="m192.126 263.208c2.532 0 5.063-.935 7.307-2.805 30.444-25.364 50.999-73.537 50.999-128.8 0-1.485-.022-2.962-.051-4.437l-38.862 38.862c-12.418 12.418-19.394 29.259-19.394 46.82z" fill="url(#SVGID_00000013891543280186489790000015816943408024380815_)"/></g><g><path d="m133.819 131.604c0-42.849 12.363-81.426 32.106-108.423l6.807 6.807c12.418 12.418 19.394 29.259 19.394 46.82v186.4c-2.532 0-5.063-.935-7.307-2.805-30.444-25.363-51-73.536-51-128.799z" fill="url(#SVGID_00000078038622371996754950000001373737730498029973_)"/><path d="m133.819 131.604c0-22.528 3.418-43.875 9.527-62.982l29.386 29.386c12.418 12.418 19.394 29.259 19.394 46.82v118.379c-2.532 0-5.063-.935-7.307-2.805-30.444-25.362-51-73.535-51-128.798z" fill="url(#SVGID_00000058570747080916699910000011858552251888941210_)"/><path d="m192.126 263.208c-2.532 0-5.063-.935-7.307-2.805-30.444-25.364-50.999-73.537-50.999-128.8 0-1.485.022-2.962.051-4.437l38.862 38.862c12.418 12.418 19.394 29.259 19.394 46.82z" fill="url(#SVGID_00000067928954893502005090000016276670690546734481_)"/></g></g><path d="m246.228 174.094c-7.49 36.895-24.49 67.722-46.797 86.309-4.492 3.74-10.128 3.74-14.61 0-22.306-18.587-39.306-49.413-46.797-86.309z" fill="url(#SVGID_00000071533824433316458860000015870984244890019469_)"/></g><g><path d="m374.107 108.802c-14.037 35.822-37.478 67.201-67.853 90.827l-27.935 21.727-53.32 41.458c-2.562 1.985-2.798 5.775-.508 8.065l59.311 59.311c2.29 2.29 6.081 2.054 8.071-.502l41.458-53.32 21.722-27.941c23.625-30.376 55.005-53.816 90.827-67.853 4.362-1.708 8.077-4.2 11.106-7.229 12.041-12.041 13.131-32.539-.035-45.705l-29.91-29.91c-16.471-16.471-44.435-10.627-52.934 11.072z" fill="url(#SVGID_00000114041853650574500350000016656477389868847512_)"/><path d="m456.989 173.35c-3.03 3.02-6.75 5.52-11.11 7.22-35.82 14.04-67.2 37.48-90.83 67.86l-21.72 27.94-41.46 53.32c-1.99 2.55-5.78 2.79-8.07.5l-44.92-44.92 187.84-187.84c.11.09.22.2.32.3l29.91 29.91c13.17 13.17 12.08 33.66.04 45.71z" fill="url(#SVGID_00000119107684706637229880000016743744165196860046_)"/><path d="m350.469 153.02c-12.254 17.595-27.139 33.327-44.215 46.609l-27.935 21.727-53.32 41.458c-2.562 1.985-2.798 5.775-.508 8.065l59.311 59.311c2.29 2.29 6.081 2.054 8.071-.502l41.458-53.32 21.722-27.941c23.625-30.376 55.005-53.816 90.827-67.853 4.362-1.708 8.077-4.2 11.106-7.229 5.509-5.509 8.717-12.788 9.325-20.326h-115.842z" fill="url(#SVGID_00000121260256474485456530000003857769434247897763_)"/></g><g><g><path d="m330.914 482.649c-3.229-9.092-5.817-17.393-7.843-24.961h-134.144c-2.027 7.568-4.615 15.868-7.843 24.961l-5.113 14.398c-2.59 7.293 2.819 14.953 10.558 14.953h138.94c7.739 0 13.148-7.66 10.558-14.953z" fill="url(#SVGID_00000132793702058420390730000004245627224091051676_)"/><path d="m330.914 482.649c-3.229-9.092-5.817-17.393-7.843-24.961h-134.144c-2.027 7.568-4.615 15.868-7.843 24.961l-5.113 14.398c-2.59 7.293 2.819 14.953 10.558 14.953h138.94c7.739 0 13.148-7.66 10.558-14.953z" fill="url(#SVGID_00000064336022787027272270000017262886438665634491_)"/><path d="m330.914 482.649c-3.229-9.092-5.817-17.393-7.843-24.961h-134.144c-2.027 7.568-4.615 15.868-7.843 24.961l-5.113 14.398c-2.59 7.293 2.819 14.953 10.558 14.953h138.94c7.739 0 13.148-7.66 10.558-14.953z" fill="url(#SVGID_00000023994047389323611220000018184138401348051110_)"/><path d="m330.914 482.649c-3.229-9.092-5.817-17.393-7.843-24.961h-52.671v54.312h55.069c7.739 0 13.148-7.66 10.558-14.953z" fill="url(#SVGID_00000142159033355926309970000012988229528598441387_)"/></g><g><path d="m156.022 454.022c61.783 36.027 138.171 36.027 199.954 0 71.347-41.604 108.713-122.403 96.087-202.321h-392.128c-12.627 79.917 24.74 160.717 96.087 202.321z" fill="url(#SVGID_00000103233641893085953290000009879736544148782500_)"/><path d="m65.157 337.048c13.716 47.997 45.381 90.451 90.864 116.974 61.783 36.027 138.171 36.027 199.954 0 45.483-26.522 77.149-68.976 90.864-116.974z" fill="url(#SVGID_00000059280556058499329070000000982611234727441590_)"/><path d="m452.063 251.7h-223.367v227.438c43.345 6.015 88.229-2.345 127.28-25.117 71.347-41.603 108.713-122.403 96.087-202.321z" fill="url(#SVGID_00000152226210662669219560000006610824497892110977_)"/><path d="m59.935 251.7c-5.094 32.242-2.046 64.626 8.082 94.523h375.963c10.129-29.897 13.177-62.281 8.083-94.523z" fill="url(#SVGID_00000152944549553554451420000001988078346805352379_)"/><path d="m65.157 337.048c13.716 47.997 45.381 90.451 90.864 116.974 61.783 36.027 138.171 36.027 199.954 0 45.483-26.522 77.149-68.976 90.864-116.974z" fill="url(#SVGID_00000021814119556673513320000006530482365095812799_)"/><path d="m355.976 454.022c71.346-41.604 108.713-122.403 96.087-202.321h-169.184l-169.211 169.211c12.324 12.678 26.498 23.863 42.354 33.11 61.783 36.027 138.171 36.027 199.954 0z" fill="url(#SVGID_00000119798897403499487370000015313391327105102263_)"/></g><g><path d="m64.055 233.643h383.888c10.207 0 18.482 8.275 18.482 18.482 0 10.207-8.275 18.482-18.482 18.482h-383.888c-10.207 0-18.482-8.275-18.482-18.482 0-10.208 8.275-18.482 18.482-18.482z" fill="url(#SVGID_00000075161446400788032880000009362733126478036378_)"/><path d="m466.422 252.129c0 5.102-2.064 9.717-5.413 13.067-3.35 3.35-7.964 5.413-13.066 5.413h-383.887c-10.204 0-18.48-8.275-18.48-18.48 0-1.804.259-3.536.736-5.175h419.373c.477 1.639.737 3.371.737 5.175z" fill="url(#SVGID_00000151535060119037961980000006043414580820903858_)"/><path d="m447.943 233.643h-70.817v36.963h70.817c10.207 0 18.482-8.274 18.482-18.482 0-10.207-8.275-18.481-18.482-18.481z" fill="url(#SVGID_00000061471106476816260650000011759665199056400316_)"/></g></g></g></svg>