<svg id="_20_Research" enable-background="new 0 0 512 512" viewBox="0 0 512 512" xmlns="http://www.w3.org/2000/svg" xmlns:xlink="http://www.w3.org/1999/xlink"><linearGradient id="SVGID_1_" gradientTransform="matrix(0 1 -1 0 178.794 335.206)" gradientUnits="userSpaceOnUse" x1="39.259" x2="63.928" y1="79.625" y2="54.955"><stop offset="0" stop-color="#feca9c"/><stop offset=".1252" stop-color="#fdc391"/><stop offset=".3429" stop-color="#fbb174"/><stop offset=".6269" stop-color="#f89346"/><stop offset=".9631" stop-color="#f46b07"/><stop offset="1" stop-color="#f46700"/></linearGradient><linearGradient id="lg1"><stop offset="0" stop-color="#ff7920" stop-opacity="0"/><stop offset=".088" stop-color="#fe7720" stop-opacity=".028"/><stop offset=".2178" stop-color="#fe7221" stop-opacity=".107"/><stop offset=".3734" stop-color="#fe6b22" stop-opacity=".236"/><stop offset=".549" stop-color="#fe6024" stop-opacity=".415"/><stop offset=".7413" stop-color="#fd5227" stop-opacity=".645"/><stop offset=".9447" stop-color="#fd422a" stop-opacity=".92"/><stop offset="1" stop-color="#fd3e2b"/></linearGradient><linearGradient id="SVGID_00000165196180396516474560000009412263557602022830_" gradientTransform="matrix(1 0 0 -1 0 514)" gradientUnits="userSpaceOnUse" x1="39.534" x2="26.623" xlink:href="#lg1" y1="41.535" y2="28.625"/><linearGradient id="SVGID_00000029039724312323249350000016820088003861362875_" gradientTransform="matrix(1 0 0 -1 0 514)" gradientUnits="userSpaceOnUse" x1="139.813" x2="171.337" xlink:href="#lg1" y1="141.81" y2="173.334"/><linearGradient id="lg2"><stop offset="0" stop-color="#f3faff"/><stop offset="1" stop-color="#d5daf3"/></linearGradient><linearGradient id="SVGID_00000127017965167529520110000008712097077964270980_" gradientTransform="matrix(.707 .707 .707 -.707 -175.229 348.011)" gradientUnits="userSpaceOnUse" x1="239.864" x2="239.864" xlink:href="#lg2" y1="264.951" y2="242.975"/><linearGradient id="lg3"><stop offset="0" stop-color="#dbd5ef" stop-opacity="0"/><stop offset=".2667" stop-color="#d8d2ec" stop-opacity=".023"/><stop offset=".4431" stop-color="#d1c9e2" stop-opacity=".098"/><stop offset=".5933" stop-color="#c4b9d1" stop-opacity=".225"/><stop offset=".7288" stop-color="#b2a4ba" stop-opacity=".405"/><stop offset=".8545" stop-color="#9a889c" stop-opacity=".638"/><stop offset=".9713" stop-color="#7e6678" stop-opacity=".92"/><stop offset="1" stop-color="#765d6e"/></linearGradient><linearGradient id="SVGID_00000045621404787629285820000016547918227249967021_" gradientTransform="matrix(.707 .707 .707 -.707 -175.229 348.011)" gradientUnits="userSpaceOnUse" x1="239.864" x2="239.864" xlink:href="#lg3" y1="257.394" y2="238.902"/><linearGradient id="SVGID_00000047021114920427123040000010593963104136305036_" gradientTransform="matrix(.707 .707 .707 -.707 -175.229 348.011)" gradientUnits="userSpaceOnUse" x1="239.864" x2="239.864" xlink:href="#lg3" y1="247.948" y2="264.489"/><linearGradient id="SVGID_00000061464121100681023200000015881816025009233311_" gradientTransform="matrix(.707 .707 .707 -.707 -175.229 348.011)" gradientUnits="userSpaceOnUse" x1="254.01" x2="296.369" xlink:href="#lg3" y1="255.072" y2="255.072"/><linearGradient id="SVGID_00000075151258863557780440000010597909045664510897_" gradientTransform="matrix(.707 .707 .707 -.707 -175.229 348.011)" gradientUnits="userSpaceOnUse" x1="239.864" x2="239.864" xlink:href="#lg2" y1="291.418" y2="264.805"/><linearGradient id="SVGID_00000175304570996732866150000017102231729288747698_" gradientTransform="matrix(.707 .707 .707 -.707 -175.229 348.011)" gradientUnits="userSpaceOnUse" x1="239.864" x2="239.864" xlink:href="#lg3" y1="282.266" y2="259.873"/><linearGradient id="SVGID_00000091726610102323543270000011005451134921255607_" gradientTransform="matrix(.707 .707 .707 -.707 -175.229 348.011)" gradientUnits="userSpaceOnUse" x1="256.995" x2="308.293" xlink:href="#lg3" y1="279.455" y2="279.455"/><linearGradient id="lg4"><stop offset="0" stop-color="#fef0ae"/><stop offset="1" stop-color="#fac600"/></linearGradient><linearGradient id="SVGID_00000155124183136777186700000011788770931221270673_" gradientTransform="matrix(.707 -.707 -.707 -.707 877.569 -502.054)" gradientUnits="userSpaceOnUse" x1="-834.357" x2="-834.357" xlink:href="#lg4" y1="-142.408" y2="-179.754"/><linearGradient id="lg5"><stop offset="0" stop-color="#fe9738" stop-opacity="0"/><stop offset=".1648" stop-color="#fe9637" stop-opacity=".012"/><stop offset=".2957" stop-color="#fe9535" stop-opacity=".052"/><stop offset=".415" stop-color="#fe9331" stop-opacity=".118"/><stop offset=".5274" stop-color="#fe902c" stop-opacity=".211"/><stop offset=".635" stop-color="#fe8c25" stop-opacity=".331"/><stop offset=".739" stop-color="#fe871d" stop-opacity=".479"/><stop offset=".8401" stop-color="#fe8213" stop-opacity=".655"/><stop offset=".9364" stop-color="#fe7b09" stop-opacity=".852"/><stop offset="1" stop-color="#fe7701"/></linearGradient><linearGradient id="SVGID_00000181056674119033139600000017966094848795043512_" gradientTransform="matrix(.707 -.707 -.707 -.707 877.569 -502.054)" gradientUnits="userSpaceOnUse" x1="-834.357" x2="-834.357" xlink:href="#lg5" y1="-147.843" y2="-200.704"/><linearGradient id="SVGID_00000149347582210989787510000000943127572662726825_" gradientTransform="matrix(1 0 0 -1 0 514)" gradientUnits="userSpaceOnUse" x1="398.686" x2="368.032" xlink:href="#lg5" y1="299.749" y2="300.937"/><linearGradient id="lg6"><stop offset="0" stop-color="#fe646f"/><stop offset=".235" stop-color="#fa5964"/><stop offset=".6415" stop-color="#ef3d49"/><stop offset="1" stop-color="#e41f2d"/></linearGradient><linearGradient id="SVGID_00000147938150748608255800000011933560498778238877_" gradientTransform="matrix(.707 -.707 -.707 -.707 877.569 -502.054)" gradientUnits="userSpaceOnUse" x1="-915.78" x2="-915.78" xlink:href="#lg6" y1="-142.408" y2="-179.754"/><linearGradient id="lg7"><stop offset="0" stop-color="#a72b2b" stop-opacity="0"/><stop offset=".1561" stop-color="#a32b2a" stop-opacity=".066"/><stop offset=".386" stop-color="#982c29" stop-opacity=".248"/><stop offset=".6615" stop-color="#872f28" stop-opacity=".545"/><stop offset=".97" stop-color="#6f3226" stop-opacity=".956"/><stop offset="1" stop-color="#6d3326"/></linearGradient><linearGradient id="SVGID_00000083782311897019474730000017418924211060737189_" gradientTransform="matrix(1 0 0 -1 0 514)" gradientUnits="userSpaceOnUse" x1="349.6" x2="347.937" xlink:href="#lg7" y1="256.205" y2="288.76"/><linearGradient id="SVGID_00000127045077853865273770000012929591654335440522_" gradientTransform="matrix(.707 -.707 -.707 -.707 877.569 -502.054)" gradientUnits="userSpaceOnUse" x1="-893.258" x2="-864.425" xlink:href="#lg7" y1="-157.129" y2="-162.016"/><linearGradient id="SVGID_00000009560179012330764660000012436529070978633874_" gradientTransform="matrix(.707 -.707 -.707 -.707 877.569 -502.054)" gradientUnits="userSpaceOnUse" x1="-915.78" x2="-915.78" xlink:href="#lg7" y1="-157.558" y2="-194.958"/><linearGradient id="SVGID_00000158018050512152036850000012982901369777988261_" gradientTransform="matrix(.707 -.707 -.707 -.707 877.569 -502.054)" gradientUnits="userSpaceOnUse" x1="-825.72" x2="-805.52" xlink:href="#lg5" y1="-165.397" y2="-193.741"/><linearGradient id="SVGID_00000011024228096810493320000017289897126580989336_" gradientTransform="matrix(.707 -.707 -.707 -.707 877.569 -502.054)" gradientUnits="userSpaceOnUse" x1="-835.882" x2="-784.08" xlink:href="#lg5" y1="-157.86" y2="-174.965"/><linearGradient id="lg8"><stop offset="0" stop-color="#fac600" stop-opacity="0"/><stop offset=".1175" stop-color="#fac602" stop-opacity=".017"/><stop offset=".2423" stop-color="#fac80b" stop-opacity=".067"/><stop offset=".3705" stop-color="#facc1a" stop-opacity=".151"/><stop offset=".5011" stop-color="#fbd12e" stop-opacity=".268"/><stop offset=".6336" stop-color="#fbd748" stop-opacity=".419"/><stop offset=".7676" stop-color="#fcdf69" stop-opacity=".604"/><stop offset=".9003" stop-color="#fde88e" stop-opacity=".819"/><stop offset="1" stop-color="#fef0ae"/></linearGradient><linearGradient id="SVGID_00000087395720476205414060000003454825924499765936_" gradientTransform="matrix(.707 -.707 -.707 -.707 877.569 -502.054)" gradientUnits="userSpaceOnUse" x1="-823.517" x2="-814.612" xlink:href="#lg8" y1="-181.913" y2="-198.637"/><linearGradient id="SVGID_00000030454002230481878540000003156245616355358888_" gradientTransform="matrix(.707 .707 .707 -.707 -1906.99 1597.673)" gradientUnits="userSpaceOnUse" x1="589.007" x2="589.007" xlink:href="#lg4" y1="2586.963" y2="2549.617"/><linearGradient id="SVGID_00000073715372785833509930000016264325121096663481_" gradientTransform="matrix(.707 .707 .707 -.707 -1906.99 1597.673)" gradientUnits="userSpaceOnUse" x1="589.007" x2="589.007" xlink:href="#lg5" y1="2581.528" y2="2528.667"/><linearGradient id="SVGID_00000039814191133871431130000005870345620040418708_" gradientTransform="matrix(.707 .707 .707 -.707 -1906.99 1597.673)" gradientUnits="userSpaceOnUse" x1="507.584" x2="507.584" xlink:href="#lg6" y1="2586.963" y2="2549.617"/><linearGradient id="SVGID_00000131339202948920240400000009783044312462924986_" gradientTransform="matrix(.707 .707 .707 -.707 -1906.99 1597.673)" gradientUnits="userSpaceOnUse" x1="530.106" x2="558.939" xlink:href="#lg7" y1="2572.242" y2="2567.355"/><linearGradient id="SVGID_00000011725301891416494440000017622227311429926316_" gradientTransform="matrix(.707 .707 .707 -.707 -1906.99 1597.673)" gradientUnits="userSpaceOnUse" x1="507.584" x2="507.584" xlink:href="#lg7" y1="2571.813" y2="2534.413"/><linearGradient id="SVGID_00000114768651427225209570000000318108961353006760_" gradientTransform="matrix(.707 .707 .707 -.707 -1906.99 1597.673)" gradientUnits="userSpaceOnUse" x1="597.644" x2="617.844" xlink:href="#lg5" y1="2563.974" y2="2535.63"/><linearGradient id="SVGID_00000183952932706961282450000016024829232594085053_" gradientTransform="matrix(.707 .707 .707 -.707 -1906.99 1597.673)" gradientUnits="userSpaceOnUse" x1="587.482" x2="639.284" xlink:href="#lg5" y1="2571.511" y2="2554.406"/><linearGradient id="SVGID_00000016769929653154051230000014018228109943962766_" gradientTransform="matrix(1 0 0 -1 0 514)" gradientUnits="userSpaceOnUse" x1="323.342" x2="310.842" xlink:href="#lg8" y1="309.511" y2="267.511"/><linearGradient id="SVGID_00000024714918466486702430000009247316676483831714_" gradientTransform="matrix(1 0 0 -1 0 514)" gradientUnits="userSpaceOnUse" x1="398.226" x2="243.177" y1="255.83" y2="410.879"><stop offset="0" stop-color="#fff" stop-opacity="0"/><stop offset=".0925" stop-color="#fff" stop-opacity=".024"/><stop offset=".2178" stop-color="#fff" stop-opacity=".092"/><stop offset=".3619" stop-color="#fff" stop-opacity=".203"/><stop offset=".52" stop-color="#fff" stop-opacity=".359"/><stop offset=".6897" stop-color="#fff" stop-opacity=".559"/><stop offset=".8661" stop-color="#fff" stop-opacity=".798"/><stop offset="1" stop-color="#fff"/></linearGradient><linearGradient id="lg9"><stop offset="0" stop-color="#e5caf3"/><stop offset=".1585" stop-color="#ddbfee"/><stop offset=".4338" stop-color="#caa2e0"/><stop offset=".7905" stop-color="#ac75cb"/><stop offset="1" stop-color="#9857bd"/></linearGradient><linearGradient id="SVGID_00000173129685925959306310000014136919763516156090_" gradientTransform="matrix(1 0 0 -1 0 514)" gradientUnits="userSpaceOnUse" x1="212.274" x2="417.48" xlink:href="#lg9" y1="441.783" y2="236.577"/><linearGradient id="SVGID_00000144303574816038869180000010463034575941331088_" gradientTransform="matrix(1 0 0 -1 0 514)" gradientUnits="userSpaceOnUse" x1="430.957" x2="205.125" xlink:href="#lg9" y1="223.1" y2="448.932"/><linearGradient id="lg10"><stop offset="0" stop-color="#814aa0" stop-opacity="0"/><stop offset=".1758" stop-color="#7f499e" stop-opacity=".038"/><stop offset=".3644" stop-color="#7b4699" stop-opacity=".149"/><stop offset=".559" stop-color="#744291" stop-opacity=".333"/><stop offset=".7577" stop-color="#6a3c85" stop-opacity=".592"/><stop offset=".9577" stop-color="#5d3477" stop-opacity=".922"/><stop offset="1" stop-color="#5b3374"/></linearGradient><linearGradient id="SVGID_00000072282020151515492610000014084300678116350618_" gradientTransform="matrix(1 0 0 -1 0 514)" gradientUnits="userSpaceOnUse" x1="326.029" x2="326.029" xlink:href="#lg10" y1="288.82" y2="126.16"/><linearGradient id="SVGID_00000043453158380212412620000005169410961054107023_" gradientTransform="matrix(1 0 0 -1 0 514)" gradientUnits="userSpaceOnUse" x1="351.177" x2="461.073" xlink:href="#lg10" y1="302.88" y2="192.984"/><g><path d="m20.544 419.683c35.822-14.037 67.201-37.477 90.826-67.853l21.727-27.935 41.458-53.32c1.985-2.562 5.775-2.798 8.065-.508l59.31 59.31c2.29 2.29 2.054 6.081-.502 8.071l-53.32 41.458-27.941 21.721c-30.375 23.625-53.816 55.005-67.853 90.826-1.708 4.362-4.2 8.077-7.229 11.106-12.041 12.041-32.539 13.131-45.705-.035l-29.91-29.91c-16.469-16.469-10.625-44.433 11.074-52.931z" fill="url(#SVGID_1_)"/><path d="m38.12 411.837c-5.728 2.863-11.584 5.498-17.577 7.846-21.698 8.498-27.543 36.462-11.071 52.933l29.91 29.91c13.166 13.166 33.664 12.075 45.704.035 3.029-3.029 5.521-6.744 7.229-11.106 2.348-5.993 4.983-11.848 7.846-17.577z" fill="url(#SVGID_00000165196180396516474560000009412263557602022830_)"/><path d="m241.429 337.449c2.556-1.99 2.792-5.781.502-8.071l-59.31-59.31c-2.29-2.29-6.081-2.054-8.065.508l-41.458 53.32-21.728 27.934c-6.297 8.096-13.161 15.683-20.497 22.747l46.549 46.549c7.064-7.336 14.65-14.2 22.747-20.497l27.941-21.722z" fill="url(#SVGID_00000029039724312323249350000016820088003861362875_)"/><g><g><path d="m159.343 300.76 51.897 51.897c5.825 5.825 5.825 15.27 0 21.095-5.825 5.825-15.27 5.825-21.095 0l-51.897-51.897c-5.825-5.825-5.825-15.27 0-21.095 5.825-5.825 15.269-5.825 21.095 0z" fill="url(#SVGID_00000127017965167529520110000008712097077964270980_)"/><path d="m159.343 300.76 51.897 51.897c5.825 5.825 5.825 15.27 0 21.095-5.825 5.825-15.27 5.825-21.095 0l-51.897-51.897c-5.825-5.825-5.825-15.27 0-21.095 5.825-5.825 15.269-5.825 21.095 0z" fill="url(#SVGID_00000045621404787629285820000016547918227249967021_)"/><path d="m159.343 300.76 51.897 51.897c5.825 5.825 5.825 15.27 0 21.095-5.825 5.825-15.27 5.825-21.095 0l-51.897-51.897c-5.825-5.825-5.825-15.27 0-21.095 5.825-5.825 15.269-5.825 21.095 0z" fill="url(#SVGID_00000047021114920427123040000010593963104136305036_)"/><path d="m211.24 352.657-29.089-29.089-21.095 21.095 29.089 29.089c5.825 5.825 15.27 5.825 21.095 0s5.825-15.269 0-21.095z" fill="url(#SVGID_00000061464121100681023200000015881816025009233311_)"/></g><g><path d="m173.334 275.818 62.849 62.849c7.055 7.055 7.055 18.492 0 25.547-7.055 7.055-18.492 7.055-25.547 0l-62.849-62.849c-7.055-7.055-7.055-18.492 0-25.547 7.054-7.055 18.492-7.055 25.547 0z" fill="url(#SVGID_00000075151258863557780440000010597909045664510897_)"/><path d="m173.334 275.818 62.849 62.849c7.055 7.055 7.055 18.492 0 25.547-7.055 7.055-18.492 7.055-25.547 0l-62.849-62.849c-7.055-7.055-7.055-18.492 0-25.547 7.054-7.055 18.492-7.055 25.547 0z" fill="url(#SVGID_00000175304570996732866150000017102231729288747698_)"/><path d="m236.182 338.666-35.228-35.228-25.547 25.547 35.228 35.228c7.055 7.055 18.492 7.055 25.547 0 7.055-7.054 7.055-18.492 0-25.547z" fill="url(#SVGID_00000091726610102323543270000011005451134921255607_)"/></g></g><g><g><path d="m433.782 163.357c8.228 8.228 12.342 19.012 12.342 29.792 0 10.781-4.114 21.565-12.342 29.792l-32.177 32.177-38.583-21.002-21.002-38.583 32.177-32.177c16.455-16.454 43.129-16.454 59.585.001z" fill="url(#SVGID_00000155124183136777186700000011788770931221270673_)"/><path d="m433.782 163.357c8.228 8.228 12.342 19.012 12.342 29.792 0 10.781-4.114 21.565-12.342 29.792l-32.177 32.177-38.583-21.002-6.399-11.757 66.672-66.672c3.778 1.951 7.32 4.503 10.487 7.67z" fill="url(#SVGID_00000181056674119033139600000017966094848795043512_)"/><path d="m424.933 231.797-23.33 23.319-38.58-21-20.999-38.579 23.319-23.33z" fill="url(#SVGID_00000149347582210989787510000000943127572662726825_)"/><path d="m342.019 195.535 59.585 59.585-32.177 32.177c-16.456 16.456-43.13 16.456-59.585 0-8.228-8.228-12.342-19.012-12.342-29.792 0-10.781 4.114-21.565 12.342-29.793z" fill="url(#SVGID_00000147938150748608255800000011933560498778238877_)"/><path d="m342.019 195.535 59.585 59.585-32.177 32.177c-16.456 16.456-43.13 16.456-59.585 0-8.228-8.228-12.342-19.012-12.342-29.792 0-10.781 4.114-21.565 12.342-29.793z" fill="url(#SVGID_00000083782311897019474730000017418924211060737189_)"/><path d="m308.17 229.486 59.483 59.483c.603-.538 1.195-1.094 1.774-1.672l32.177-32.177-59.585-59.585-32.177 32.177c-.579.579-1.135 1.171-1.672 1.774z" fill="url(#SVGID_00000127045077853865273770000012929591654335440522_)"/><path d="m362.734 216.25 38.87 38.87-32.177 32.177c-16.456 16.456-43.13 16.456-59.585 0-3.167-3.167-5.723-6.712-7.669-10.487z" fill="url(#SVGID_00000009560179012330764660000012436529070978633874_)"/><path d="m374.197 163.357-23.07 23.07 59.585 59.585 23.07-23.07c8.228-8.228 12.342-19.012 12.342-29.792 0-10.781-4.114-21.565-12.342-29.792-16.456-16.456-43.13-16.456-59.585-.001z" fill="url(#SVGID_00000158018050512152036850000012982901369777988261_)"/><path d="m374.197 163.357-23.07 23.07 59.585 59.585 23.07-23.07c8.228-8.228 12.342-19.012 12.342-29.792 0-10.781-4.114-21.565-12.342-29.792-16.456-16.456-43.13-16.456-59.585-.001z" fill="url(#SVGID_00000011024228096810493320000017289897126580989336_)"/><path d="m433.78 163.356c8.228 8.228 12.342 19.012 12.342 29.793s-4.114 21.565-12.342 29.793l-32.177 32.177-38.87-38.87 60.561-60.561c3.777 1.948 7.319 4.501 10.486 7.668z" fill="url(#SVGID_00000087395720476205414060000003454825924499765936_)"/></g><g><path d="m364.026 230.399c-8.228 8.228-19.012 12.342-29.792 12.342-10.781 0-21.565-4.114-29.792-12.342l-32.177-32.177 21.002-38.583 38.583-21.002 32.177 32.177c16.454 16.456 16.454 43.13-.001 59.585z" fill="url(#SVGID_00000030454002230481878540000003156245616355358888_)"/><path d="m364.026 230.399c-8.228 8.228-19.012 12.342-29.792 12.342-10.781 0-21.565-4.114-29.792-12.342l-32.177-32.177 21.002-38.583 11.757-6.399 66.672 66.672c-1.95 3.778-4.503 7.32-7.67 10.487z" fill="url(#SVGID_00000073715372785833509930000016264325121096663481_)"/><path d="m331.848 138.637-59.585 59.585-32.177-32.177c-16.456-16.456-16.456-43.13 0-59.585 8.228-8.228 19.012-12.342 29.792-12.342 10.781 0 21.565 4.114 29.793 12.342z" fill="url(#SVGID_00000039814191133871431130000005870345620040418708_)"/><path d="m297.897 104.787-59.483 59.483c.538.603 1.094 1.195 1.672 1.774l32.177 32.177 59.585-59.585-32.177-32.177c-.579-.578-1.171-1.134-1.774-1.672z" fill="url(#SVGID_00000131339202948920240400000009783044312462924986_)"/><path d="m311.133 159.352-38.87 38.87-32.177-32.177c-16.456-16.456-16.456-43.13 0-59.585 3.167-3.167 6.712-5.723 10.487-7.669z" fill="url(#SVGID_00000011725301891416494440000017622227311429926316_)"/><path d="m364.026 170.814-23.07-23.07-59.585 59.585 23.07 23.07c8.228 8.228 19.012 12.342 29.792 12.342 10.781 0 21.565-4.114 29.792-12.342 16.456-16.455 16.456-43.129.001-59.585z" fill="url(#SVGID_00000114768651427225209570000000318108961353006760_)"/><path d="m364.026 170.814-23.07-23.07-59.585 59.585 23.07 23.07c8.228 8.228 19.012 12.342 29.792 12.342 10.781 0 21.565-4.114 29.792-12.342 16.456-16.455 16.456-43.129.001-59.585z" fill="url(#SVGID_00000183952932706961282450000016024829232594085053_)"/><path d="m364.027 230.398c-8.228 8.228-19.012 12.342-29.793 12.342s-21.565-4.114-29.793-12.342l-32.177-32.177 38.87-38.87 60.561 60.561c-1.948 3.777-4.501 7.319-7.668 10.486z" fill="url(#SVGID_00000016769929653154051230000014018228109943962766_)"/></g></g><g><circle cx="326.028" cy="185.972" fill="url(#SVGID_00000024714918466486702430000009247316676483831714_)" r="151.029"/><g><path d="m457.528 54.472c-72.63-72.63-190.379-72.63-262.999 0-72.63 72.63-72.63 190.379 0 262.999 72.62 72.63 190.369 72.63 262.999 0 72.629-72.62 72.629-190.369 0-262.999zm-41.88 221.119c-49.5 49.49-129.739 49.49-179.239 0-49.49-49.5-49.49-129.739 0-179.239 49.5-49.49 129.739-49.49 179.239 0 49.49 49.5 49.49 129.739 0 179.239z" fill="url(#SVGID_00000173129685925959306310000014136919763516156090_)"/><path d="m432.038 79.962c-58.55-58.55-153.469-58.55-212.019 0s-58.55 153.469 0 212.019 153.469 58.55 212.019 0 58.55-153.469 0-212.019zm-16.39 195.629c-49.5 49.49-129.739 49.49-179.239 0-49.49-49.5-49.49-129.739 0-179.239 49.5-49.49 129.739-49.49 179.239 0 49.49 49.5 49.49 129.739 0 179.239z" fill="url(#SVGID_00000144303574816038869180000010463034575941331088_)"/><path d="m511.998 185.972c0 102.71-83.26 185.969-185.969 185.969s-185.969-83.26-185.969-185.969c0-22.24 3.92-43.57 11.08-63.34h65.08c-28 48.46-21.27 111.499 20.19 152.959 49.5 49.49 129.739 49.49 179.239 0 41.46-41.46 48.19-104.5 20.19-152.959h65.08c7.159 19.77 11.079 41.1 11.079 63.34z" fill="url(#SVGID_00000072282020151515492610000014084300678116350618_)"/><path d="m457.528 317.471c-72.63 72.63-190.379 72.63-262.999 0-15.73-15.73-28.04-33.58-36.96-52.62l46.04-46.03c5.55 20.8 16.48 40.45 32.8 56.77 49.5 49.49 129.739 49.49 179.239 0 49.49-49.5 49.49-129.739 0-179.239-16.32-16.32-35.97-27.25-56.77-32.8l46.03-46.03c19.04 8.91 36.89 21.22 52.62 36.95 72.629 72.63 72.629 190.379 0 262.999z" fill="url(#SVGID_00000043453158380212412620000005169410961054107023_)"/></g></g></g></svg>