<svg id="_21_Pharmacist" enable-background="new 0 0 512 512" viewBox="0 0 512 512" xmlns="http://www.w3.org/2000/svg" xmlns:xlink="http://www.w3.org/1999/xlink"><linearGradient id="lg1"><stop offset="0" stop-color="#99e6fc"/><stop offset=".1325" stop-color="#8ee1fb"/><stop offset=".3627" stop-color="#71d5f9"/><stop offset=".6631" stop-color="#43c2f5"/><stop offset="1" stop-color="#08a9f1"/></linearGradient><linearGradient id="SVGID_1_" gradientTransform="matrix(1 0 0 -1 0 514)" gradientUnits="userSpaceOnUse" x1="206.434" x2="253.484" xlink:href="#lg1" y1="105.191" y2="54.815"/><linearGradient id="lg2"><stop offset="0" stop-color="#314dc9" stop-opacity="0"/><stop offset=".1245" stop-color="#304cc8" stop-opacity=".03"/><stop offset=".2787" stop-color="#2f4bc6" stop-opacity=".117"/><stop offset=".4488" stop-color="#2e49c2" stop-opacity=".26"/><stop offset=".6301" stop-color="#2c47bd" stop-opacity=".46"/><stop offset=".8182" stop-color="#2943b7" stop-opacity=".714"/><stop offset="1" stop-color="#2740b0"/></linearGradient><linearGradient id="SVGID_00000070818510355800281130000015254052425506996368_" gradientTransform="matrix(1 0 0 -1 0 514)" gradientUnits="userSpaceOnUse" x1="257.195" x2="240.086" xlink:href="#lg2" y1="70.622" y2="63.018"/><linearGradient id="SVGID_00000005259235286211701040000016676677991113546425_" gradientTransform="matrix(1 0 0 -1 0 514)" gradientUnits="userSpaceOnUse" x1="292.213" x2="266.074" xlink:href="#lg2" y1="93.118" y2="100.722"/><linearGradient id="lg3"><stop offset="0" stop-color="#e5caf3"/><stop offset=".1585" stop-color="#ddbfee"/><stop offset=".4338" stop-color="#caa2e0"/><stop offset=".7905" stop-color="#ac75cb"/><stop offset="1" stop-color="#9857bd"/></linearGradient><linearGradient id="SVGID_00000130616388478579345640000009615146160568946852_" gradientTransform="matrix(1 0 0 -1 0 514)" gradientUnits="userSpaceOnUse" x1="243.099" x2="276.833" xlink:href="#lg3" y1="60.095" y2="60.095"/><linearGradient id="lg4"><stop offset="0" stop-color="#814aa0" stop-opacity="0"/><stop offset=".1758" stop-color="#7f499e" stop-opacity=".038"/><stop offset=".3644" stop-color="#7b4699" stop-opacity=".149"/><stop offset=".559" stop-color="#744291" stop-opacity=".333"/><stop offset=".7577" stop-color="#6a3c85" stop-opacity=".592"/><stop offset=".9577" stop-color="#5d3477" stop-opacity=".922"/><stop offset="1" stop-color="#5b3374"/></linearGradient><linearGradient id="SVGID_00000034806336014973628830000009233903686565823895_" gradientTransform="matrix(1 0 0 -1 0 514)" gradientUnits="userSpaceOnUse" x1="256" x2="256" xlink:href="#lg4" y1="78.01" y2="108.56"/><linearGradient id="SVGID_00000025444864357422390940000016558547385535987879_" gradientTransform="matrix(1 0 0 -1 0 514)" gradientUnits="userSpaceOnUse" x1="243.218" x2="269.598" xlink:href="#lg3" y1="121.663" y2="121.663"/><linearGradient id="SVGID_00000164509245639656829670000005048127195196689794_" gradientTransform="matrix(1 0 0 -1 0 514)" gradientUnits="userSpaceOnUse" x1="256" x2="256" xlink:href="#lg4" y1="124.347" y2="135.224"/><linearGradient id="SVGID_00000123439815081008201830000007987691472567842700_" gradientTransform="matrix(1 0 0 -1 0 514)" gradientUnits="userSpaceOnUse" x1="256" x2="256" xlink:href="#lg4" y1="114.01" y2="103.115"/><linearGradient id="lg5"><stop offset="0" stop-color="#ffdfcf"/><stop offset="1" stop-color="#ffa78f"/></linearGradient><linearGradient id="SVGID_00000174599629337625353540000002304560077336881549_" gradientTransform="matrix(1 0 0 -1 0 514)" gradientUnits="userSpaceOnUse" x1="233.663" x2="292.119" xlink:href="#lg5" y1="202.002" y2="176.339"/><linearGradient id="lg6"><stop offset="0" stop-color="#f89580" stop-opacity="0"/><stop offset=".1028" stop-color="#f5937e" stop-opacity=".049"/><stop offset=".2747" stop-color="#ee8e79" stop-opacity=".18"/><stop offset=".4946" stop-color="#e38671" stop-opacity=".393"/><stop offset=".7511" stop-color="#d57c65" stop-opacity=".686"/><stop offset=".9972" stop-color="#c5715a"/></linearGradient><linearGradient id="SVGID_00000173156607045179587840000014866527454656128958_" gradientTransform="matrix(1 0 0 -1 0 514)" gradientUnits="userSpaceOnUse" x1="253.823" x2="255.249" xlink:href="#lg6" y1="141.036" y2="174.541"/><linearGradient id="lg7"><stop offset="0" stop-color="#f3faff"/><stop offset="1" stop-color="#d5daf3"/></linearGradient><linearGradient id="SVGID_00000008129393556866617250000014167628525018479271_" gradientTransform="matrix(1 0 0 -1 0 514)" gradientUnits="userSpaceOnUse" x1="300.228" x2="379.357" xlink:href="#lg7" y1="103.354" y2="18.522"/><linearGradient id="lg8"><stop offset="0" stop-color="#dbd5ef" stop-opacity="0"/><stop offset=".2667" stop-color="#d8d2ec" stop-opacity=".023"/><stop offset=".4431" stop-color="#d1c9e2" stop-opacity=".098"/><stop offset=".5933" stop-color="#c4b9d1" stop-opacity=".225"/><stop offset=".7288" stop-color="#b2a4ba" stop-opacity=".405"/><stop offset=".8545" stop-color="#9a889c" stop-opacity=".638"/><stop offset=".9713" stop-color="#7e6678" stop-opacity=".92"/><stop offset="1" stop-color="#765d6e"/></linearGradient><linearGradient id="SVGID_00000008122751685448256960000006683496159563960242_" gradientTransform="matrix(1 0 0 -1 0 514)" gradientUnits="userSpaceOnUse" x1="391.02" x2="458.926" xlink:href="#lg8" y1="87.824" y2="87.824"/><linearGradient id="SVGID_00000071537371481096151370000008458783779240959397_" gradientTransform="matrix(-1 0 0 -1 681.247 514)" gradientUnits="userSpaceOnUse" x1="342.071" x2="386.982" xlink:href="#lg8" y1="77.78" y2="91.325"/><linearGradient id="SVGID_00000153669666073057328210000008321404746941421226_" gradientTransform="matrix(-1 0 0 -1 681.247 514)" gradientUnits="userSpaceOnUse" x1="331.15" x2="331.15" xlink:href="#lg8" y1="35.594" y2="-1.874"/><linearGradient id="SVGID_00000137845393960600747300000014617743094157065392_" gradientTransform="matrix(1 0 0 -1 0 514)" gradientUnits="userSpaceOnUse" x1="285.762" x2="317.129" xlink:href="#lg7" y1="91.882" y2="79.05"/><linearGradient id="SVGID_00000058582718709055185480000013529007569085264268_" gradientTransform="matrix(1 0 0 -1 0 514)" gradientUnits="userSpaceOnUse" x1="348.91" x2="314.336" xlink:href="#lg8" y1="128.489" y2="141.32"/><linearGradient id="SVGID_00000112599133572666735930000003203508874166543504_" gradientTransform="matrix(1 0 0 -1 0 514)" gradientUnits="userSpaceOnUse" x1="281.767" x2="255.034" xlink:href="#lg8" y1="46.998" y2="30.245"/><linearGradient id="SVGID_00000134947101137911269320000010470919656206910343_" gradientTransform="matrix(1 0 0 -1 0 514)" gradientUnits="userSpaceOnUse" x1="115.322" x2="252.193" xlink:href="#lg7" y1="105.571" y2="14.799"/><linearGradient id="SVGID_00000170980625570258142440000008345037028244571523_" gradientTransform="matrix(1 0 0 -1 0 514)" gradientUnits="userSpaceOnUse" x1="172.824" x2="217.735" xlink:href="#lg8" y1="77.78" y2="91.325"/><linearGradient id="SVGID_00000149343843144215103680000013658674610235764909_" gradientTransform="matrix(1 0 0 -1 0 514)" gradientUnits="userSpaceOnUse" x1="161.904" x2="161.904" xlink:href="#lg8" y1="35.594" y2="-1.874"/><linearGradient id="SVGID_00000178903147641191552610000014872379954723465656_" gradientTransform="matrix(1 0 0 -1 0 514)" gradientUnits="userSpaceOnUse" x1="197.647" x2="229.488" xlink:href="#lg7" y1="82.139" y2="93.069"/><linearGradient id="SVGID_00000092442689871491535500000017537171648190051997_" gradientTransform="matrix(1 0 0 -1 0 514)" gradientUnits="userSpaceOnUse" x1="224.95" x2="208.911" xlink:href="#lg8" y1="102.607" y2="120.428"/><linearGradient id="SVGID_00000165913353656392140280000018372980767601632154_" gradientTransform="matrix(1 0 0 -1 0 514)" gradientUnits="userSpaceOnUse" x1="237.598" x2="237.598" xlink:href="#lg8" y1="25.257" y2=".102"/><linearGradient id="SVGID_00000062170539514411621350000010932280462289062800_" gradientTransform="matrix(1 0 0 -1 0 514)" gradientUnits="userSpaceOnUse" x1="224.441" x2="195.926" xlink:href="#lg1" y1="165.958" y2="121.403"/><linearGradient id="SVGID_00000160904220256345581600000008778758263102032819_" gradientTransform="matrix(1 0 0 -1 0 514)" gradientUnits="userSpaceOnUse" x1="220.371" x2="233.559" xlink:href="#lg2" y1="159.824" y2="168.735"/><linearGradient id="SVGID_00000147913316102047609700000010844644759205584011_" gradientTransform="matrix(-1 0 0 -1 534.976 514)" gradientUnits="userSpaceOnUse" x1="247.417" x2="218.902" xlink:href="#lg1" y1="165.958" y2="121.403"/><linearGradient id="SVGID_00000044154678965909078880000010810025970860070061_" gradientTransform="matrix(1 0 0 -1 0 514)" gradientUnits="userSpaceOnUse" x1="293.974" x2="285.42" xlink:href="#lg2" y1="153.806" y2="176.618"/><linearGradient id="SVGID_00000170966890040924243460000001766337454318367644_" gradientTransform="matrix(1 0 0 -1 0 514)" gradientUnits="userSpaceOnUse" x1="300.356" x2="326.495" xlink:href="#lg2" y1="155.359" y2="148.706"/><linearGradient id="lg9"><stop offset="0" stop-color="#7a6d79"/><stop offset="1" stop-color="#593636"/></linearGradient><linearGradient id="SVGID_00000145050764209659107250000015911186711580378276_" gradientTransform="matrix(1 0 0 -1 0 514)" gradientUnits="userSpaceOnUse" x1="360.113" x2="403.242" xlink:href="#lg9" y1="379.314" y2="347.591"/><linearGradient id="lg10"><stop offset="0" stop-color="#593636" stop-opacity="0"/><stop offset="1"/></linearGradient><linearGradient id="SVGID_00000096749340972411708710000013675844722661114775_" gradientTransform="matrix(1 0 0 -1 0 514)" gradientUnits="userSpaceOnUse" x1="423.176" x2="378.028" xlink:href="#lg10" y1="350.401" y2="368.46"/><linearGradient id="SVGID_00000163038853670204514710000016206968562953347737_" gradientTransform="matrix(1 0 0 -1 0 514)" gradientUnits="userSpaceOnUse" x1="115.355" x2="151.843" xlink:href="#lg5" y1="322.313" y2="285.825"/><linearGradient id="SVGID_00000088816442149159807930000004575261397656376482_" gradientTransform="matrix(1 0 0 -1 0 514)" gradientUnits="userSpaceOnUse" x1="350.487" x2="401.546" xlink:href="#lg5" y1="329.244" y2="278.185"/><linearGradient id="SVGID_00000101825557580217975930000006845867085298627721_" gradientTransform="matrix(1 0 0 -1 0 514)" gradientUnits="userSpaceOnUse" x1="247.385" x2="360.467" xlink:href="#lg5" y1="326.276" y2="213.195"/><linearGradient id="SVGID_00000150793949580592581400000004236844540957143736_" gradientTransform="matrix(1 0 0 -1 0 514)" gradientUnits="userSpaceOnUse" x1="310.394" x2="382.429" xlink:href="#lg6" y1="317.661" y2="317.661"/><linearGradient id="SVGID_00000041290982407309027280000014996925138121235091_" gradientTransform="matrix(1 0 0 -1 0 514)" gradientUnits="userSpaceOnUse" x1="256" x2="256" xlink:href="#lg6" y1="213.296" y2="149.733"/><linearGradient id="lg11"><stop offset="0" stop-color="#c4573a" stop-opacity="0"/><stop offset=".1393" stop-color="#c15539" stop-opacity=".044"/><stop offset=".3244" stop-color="#b95237" stop-opacity=".167"/><stop offset=".5354" stop-color="#ad4e35" stop-opacity=".37"/><stop offset=".7654" stop-color="#9c4732" stop-opacity=".654"/><stop offset="1" stop-color="#883f2e"/></linearGradient><linearGradient id="SVGID_00000098207574665201848740000006578746316467209354_" gradientTransform="matrix(1 0 0 -1 0 514)" gradientUnits="userSpaceOnUse" x1="256" x2="256" xlink:href="#lg11" y1="282.341" y2="240.297"/><linearGradient id="SVGID_00000143603708946750122890000016416228553871489971_" gradientTransform="matrix(1 0 0 -1 0 514)" gradientUnits="userSpaceOnUse" x1="263.256" x2="288.063" xlink:href="#lg11" y1="277.317" y2="271.283"/><linearGradient id="SVGID_00000053516762732620937460000016320407324834870972_" gradientTransform="matrix(-1 0 0 -1 414 514)" gradientUnits="userSpaceOnUse" x1="165.256" x2="190.063" y1="277.317" y2="271.283"><stop offset="0" stop-color="#ffddcd" stop-opacity="0"/><stop offset=".0886" stop-color="#ffddcd" stop-opacity=".027"/><stop offset=".2159" stop-color="#ffddcd" stop-opacity=".101"/><stop offset=".3664" stop-color="#ffddcd" stop-opacity=".223"/><stop offset=".5348" stop-color="#ffddcd" stop-opacity=".393"/><stop offset=".718" stop-color="#ffddcd" stop-opacity=".612"/><stop offset=".9108" stop-color="#ffddcd" stop-opacity=".873"/><stop offset=".9972" stop-color="#ffddcd"/></linearGradient><linearGradient id="SVGID_00000085216308365659382050000015582019603147660721_" gradientTransform="matrix(1 0 0 -1 0 514)" gradientUnits="userSpaceOnUse" x1="164.522" x2="202.271" xlink:href="#lg9" y1="339.443" y2="301.695"/><linearGradient id="SVGID_00000176014519643018607700000018343461709095470979_" gradientTransform="matrix(1 0 0 -1 0 514)" gradientUnits="userSpaceOnUse" x1="287.821" x2="314.84" xlink:href="#lg9" y1="330.148" y2="303.129"/><linearGradient id="SVGID_00000132771375319375407320000014262951688500046256_" gradientTransform="matrix(1 0 0 -1 0 514)" gradientUnits="userSpaceOnUse" x1="234.218" x2="279.842" xlink:href="#lg9" y1="499.318" y2="369.576"/><linearGradient id="SVGID_00000165200339140450181580000007682596624407021985_" gradientTransform="matrix(1 0 0 -1 0 514)" gradientUnits="userSpaceOnUse" x1="287.298" x2="287.298" xlink:href="#lg10" y1="435.99" y2="339.961"/><linearGradient id="SVGID_00000137847090387436363880000000984718871834191248_" gradientTransform="matrix(1 0 0 -1 0 514)" gradientUnits="userSpaceOnUse" x1="339.816" x2="401.122" xlink:href="#lg10" y1="442.116" y2="385.086"/><linearGradient id="SVGID_00000041281993200554763150000012731953768910845876_" gradientTransform="matrix(1 0 0 -1 0 514)" gradientUnits="userSpaceOnUse" x1="147.702" x2="171.464" xlink:href="#lg10" y1="419.077" y2="458.522"/><linearGradient id="SVGID_00000065072037961383979720000015758804499780858046_" gradientTransform="matrix(1 0 0 -1 0 514)" gradientUnits="userSpaceOnUse" x1="137.256" x2="171.949" xlink:href="#lg10" y1="385.385" y2="337.385"/><g><path d="m452.512 490.642c0 4.501-1.743 8.58-4.565 11.531s-6.722 4.774-11.026 4.774h-361.843c-8.607 0-15.591-7.293-15.591-16.306 0-43.505 16.865-82.874 44.114-111.384 27.259-28.51 64.912-46.137 106.498-46.137h91.801c83.183.001 150.612 70.523 150.612 157.522z" fill="url(#SVGID_1_)"/><path d="m452.512 490.642c0 4.501-1.743 8.58-4.565 11.531s-6.722 4.774-11.026 4.774h-361.843c-8.607 0-15.591-7.293-15.591-16.306 0-43.505 16.865-82.874 44.114-111.384 27.259-28.51 64.912-46.137 106.498-46.137h91.801c83.183.001 150.612 70.523 150.612 157.522z" fill="url(#SVGID_00000070818510355800281130000015254052425506996368_)"/><path d="m452.51 490.64c0 4.5-1.74 8.58-4.56 11.53s-6.72 4.78-11.03 4.78h-180.92v-173.83h45.9c83.18 0 150.61 70.52 150.61 157.52z" fill="url(#SVGID_00000005259235286211701040000016676677991113546425_)"/><path d="m268.188 400.863h-24.376l-19.248 106.085h31.436 31.436z" fill="url(#SVGID_00000130616388478579345640000009615146160568946852_)"/><path d="m276.825 448.465-8.637-47.602h-24.376l-8.637 47.602z" fill="url(#SVGID_00000034806336014973628830000009233903686565823895_)"/><g><path d="m256 381.925-31.436-6.885 11.678 23.834c2.548 5.199 7.363 8.923 13.036 10.081 4.436.905 9.008.905 13.444 0 5.673-1.158 10.488-4.882 13.036-10.081l11.678-23.834z" fill="url(#SVGID_00000025444864357422390940000016558547385535987879_)"/><path d="m256 381.925-31.436-6.885 11.678 23.834c2.548 5.199 7.363 8.923 13.036 10.081 4.436.905 9.008.905 13.444 0 5.673-1.158 10.488-4.882 13.036-10.081l11.678-23.834z" fill="url(#SVGID_00000164509245639656829670000005048127195196689794_)"/><path d="m256 381.925-31.436-6.885 11.678 23.834c2.548 5.199 7.363 8.923 13.036 10.081 4.436.905 9.008.905 13.444 0 5.673-1.158 10.488-4.882 13.036-10.081l11.678-23.834z" fill="url(#SVGID_00000123439815081008201830000007987691472567842700_)"/></g><g><path d="m256 261.683c26.428 0 47.852 21.424 47.852 47.851v24.539c0 26.428-21.424 47.851-47.851 47.851-26.428 0-47.851-21.424-47.851-47.851v-24.539c-.001-26.427 21.422-47.851 47.85-47.851z" fill="url(#SVGID_00000174599629337625353540000002304560077336881549_)"/><path d="m256 261.683c26.428 0 47.852 21.424 47.852 47.851v24.539c0 26.428-21.424 47.851-47.851 47.851-26.428 0-47.851-21.424-47.851-47.851v-24.539c-.001-26.427 21.422-47.851 47.85-47.851z" fill="url(#SVGID_00000173156607045179587840000014866527454656128958_)"/></g><g><g><path d="m286.904 414.722-34.229 69.501c-3.116 6.328-5.679 12.913-7.661 19.682-1.184 4.046 1.849 8.094 6.065 8.094h190.769c7.505 0 13.589-6.084 13.589-13.589v-20.362c0-81.301-65.907-147.208-147.208-147.208-1.175 29.144-8.439 57.717-21.325 83.882z" fill="url(#SVGID_00000008129393556866617250000014167628525018479271_)"/><path d="m360.366 340.353v171.647h81.482c7.505 0 13.589-6.084 13.589-13.589v-20.362c0-62.941-39.506-116.646-95.071-137.696z" fill="url(#SVGID_00000008122751685448256960000006683496159563960242_)"/><path d="m245.014 503.906c1.981-6.769 4.544-13.355 7.661-19.682l34.229-69.501c12.886-26.165 20.15-54.738 21.326-83.88 31.745 0 61.144 10.049 85.188 27.139v154.018h-142.339c-4.215 0-7.249-4.049-6.065-8.094z" fill="url(#SVGID_00000071537371481096151370000008458783779240959397_)"/><path d="m455.437 478.049v20.362c0 7.505-6.084 13.589-13.589 13.589h-190.769c-4.215 0-7.249-4.049-6.065-8.094 1.981-6.769 4.544-13.355 7.661-19.682l21.824-44.313h175.939c3.254 12.165 4.999 24.947 4.999 38.138z" fill="url(#SVGID_00000153669666073057328210000008321404746941421226_)"/><path d="m243.014 505.935v-2.03c1.981-6.769 4.544-13.355 7.661-19.682l34.229-69.501c12.886-26.165 20.15-54.738 21.326-83.88 5.467 0 10.862.308 16.175.888l22.605 78.915c1.547 5.399-2.507 10.776-8.123 10.776h-12.264c-2.941 0-5.324 2.384-5.324 5.324v15.254c0 6.052-2.179 11.903-6.138 16.48l-41.993 48.55c-2.73 3.157-6.698 4.971-10.872 4.971h-11.217c-3.35 0-6.065-2.715-6.065-6.065z" fill="url(#SVGID_00000137845393960600747300000014617743094157065392_)"/><path d="m345.01 410.645-22.605-78.915c-5.313-.581-10.708-.888-16.175-.888-.174 4.321-.499 8.627-.939 12.917v55.692l21.971 21.971h9.626c5.615-.001 9.668-5.378 8.122-10.777z" fill="url(#SVGID_00000058582718709055185480000013529007569085264268_)"/><path d="m273.376 438.129-22.701 46.095c-3.116 6.328-5.679 12.913-7.661 19.682v2.03c0 3.349 2.715 6.065 6.065 6.065h11.217c4.174 0 8.141-1.814 10.872-4.971l41.993-48.55c3.959-4.578 6.138-10.428 6.138-16.48v-3.87z" fill="url(#SVGID_00000112599133572666735930000003203508874166543504_)"/></g><g><path d="m225.096 414.722 34.229 69.501c3.116 6.328 5.679 12.913 7.661 19.682 1.184 4.046-1.849 8.094-6.065 8.094h-190.769c-7.505 0-13.589-6.084-13.589-13.589v-20.362c0-81.301 65.907-147.208 147.208-147.208 1.175 29.144 8.439 57.717 21.325 83.882z" fill="url(#SVGID_00000134947101137911269320000010470919656206910343_)"/><path d="m266.986 503.906c-1.981-6.769-4.544-13.355-7.661-19.682l-34.229-69.501c-12.886-26.165-20.15-54.738-21.326-83.88-31.745 0-61.144 10.049-85.188 27.139v154.018h142.339c4.215 0 7.249-4.049 6.065-8.094z" fill="url(#SVGID_00000170980625570258142440000008345037028244571523_)"/><path d="m56.563 478.049v20.362c0 7.505 6.084 13.589 13.589 13.589h190.769c4.215 0 7.249-4.049 6.065-8.094-1.981-6.769-4.544-13.355-7.661-19.682l-21.824-44.313h-175.939c-3.254 12.165-4.999 24.947-4.999 38.138z" fill="url(#SVGID_00000149343843144215103680000013658674610235764909_)"/><path d="m268.986 505.935v-2.03c-1.981-6.769-4.544-13.355-7.661-19.682l-34.229-69.501c-12.886-26.165-20.15-54.738-21.326-83.88-5.467 0-10.862.308-16.175.888l-22.605 78.915c-1.546 5.399 2.507 10.776 8.123 10.776h12.264c2.941 0 5.324 2.384 5.324 5.324v15.254c0 6.052 2.179 11.903 6.138 16.48l41.993 48.55c2.73 3.157 6.698 4.971 10.872 4.971h11.217c3.35 0 6.065-2.715 6.065-6.065z" fill="url(#SVGID_00000178903147641191552610000014872379954723465656_)"/><path d="m237.893 436.646-10.797-21.924c-4.58-9.299-8.435-18.906-11.573-28.731l-14.142 14.142z" fill="url(#SVGID_00000092442689871491535500000017537171648190051997_)"/><path d="m240.833 507.029c2.73 3.157 6.698 4.971 10.872 4.971h11.217c3.349 0 6.065-2.715 6.065-6.065v-2.03c-1.981-6.769-4.544-13.355-7.661-19.682l-8.483-17.223h-46.633z" fill="url(#SVGID_00000165913353656392140280000018372980767601632154_)"/></g></g><g><path d="m256 381.925-51.396-60.121-14.673 2.087c-4.683.666-7.748 5.253-6.571 9.834l16.478 64.158c.802 3.122 4.796 4.033 6.872 1.567 9.357-11.111 23.142-17.525 37.669-17.525z" fill="url(#SVGID_00000062170539514411621350000010932280462289062800_)"/><path d="m256 381.925-51.396-60.121-14.673 2.087c-4.683.666-7.748 5.253-6.571 9.834l16.478 64.158c.802 3.122 4.796 4.033 6.872 1.567 9.357-11.111 23.142-17.525 37.669-17.525z" fill="url(#SVGID_00000160904220256345581600000008778758263102032819_)"/><path d="m256 381.925 51.396-60.121 14.673 2.087c4.683.666 7.748 5.253 6.571 9.834l-16.478 64.158c-.802 3.122-4.796 4.033-6.872 1.567-9.357-11.111-23.142-17.525-37.669-17.525z" fill="url(#SVGID_00000147913316102047609700000010844644759205584011_)"/><path d="m256 381.925 51.396-60.121 14.673 2.087c4.683.666 7.748 5.253 6.571 9.834l-16.478 64.158c-.802 3.122-4.796 4.033-6.872 1.567-9.357-11.111-23.142-17.525-37.669-17.525z" fill="url(#SVGID_00000044154678965909078880000010810025970860070061_)"/><path d="m256 381.925 51.396-60.121 14.673 2.087c4.683.666 7.748 5.253 6.571 9.834l-16.478 64.158c-.802 3.122-4.796 4.033-6.872 1.567-9.357-11.111-23.142-17.525-37.669-17.525z" fill="url(#SVGID_00000170966890040924243460000001766337454318367644_)"/></g><path d="m336.138 157.678c-3.334 5.706-5.17 12.395-4.942 19.533.612 19.117 16.312 34.723 35.433 35.22 20.559.535 37.394-15.972 37.394-36.41 0-1.944-.152-3.852-.446-5.713-1.171-7.427.503-15.098 4.858-21.228 6.179-8.698 9.595-19.496 8.968-31.114-1.354-25.1-21.89-45.327-47.006-46.328-28.026-1.118-51.097 21.271-51.097 49.049-.001 14.762 6.524 27.992 16.838 36.991z" fill="url(#SVGID_00000145050764209659107250000015911186711580378276_)"/><path d="m336.138 157.678c-3.334 5.706-5.17 12.395-4.942 19.533.612 19.117 16.312 34.723 35.433 35.22 20.559.535 37.394-15.972 37.394-36.41 0-1.944-.152-3.852-.446-5.713-1.171-7.427.503-15.098 4.858-21.228 6.179-8.698 9.595-19.496 8.968-31.114-1.354-25.1-21.89-45.327-47.006-46.328-28.026-1.118-51.097 21.271-51.097 49.049-.001 14.762 6.524 27.992 16.838 36.991z" fill="url(#SVGID_00000096749340972411708710000013675844722661114775_)"/><g><path d="m102.006 211.301c0-21.454 14.892-39.429 34.903-44.153 5.349-1.263 10.462 2.874 10.462 8.37v71.566c0 5.496-5.113 9.632-10.462 8.37-20.011-4.724-34.903-22.7-34.903-44.153z" fill="url(#SVGID_00000163038853670204514710000016206968562953347737_)"/><path d="m409.994 211.301c0-21.454-14.892-39.429-34.903-44.153-5.349-1.263-10.462 2.874-10.462 8.37v71.566c0 5.496 5.113 9.632 10.462 8.37 20.011-4.724 34.903-22.7 34.903-44.153z" fill="url(#SVGID_00000088816442149159807930000004575261397656376482_)"/></g><g><path d="m256 44.343c66.813 0 120.976 54.163 120.976 120.976v62.039c0 66.813-54.163 120.976-120.976 120.976-66.813 0-120.976-54.163-120.976-120.976v-62.039c0-66.813 54.163-120.976 120.976-120.976z" fill="url(#SVGID_00000101825557580217975930000006845867085298627721_)"/><path d="m256 44.343v303.991c66.813 0 120.976-54.163 120.976-120.976v-62.039c0-66.813-54.163-120.976-120.976-120.976z" fill="url(#SVGID_00000150793949580592581400000004236844540957143736_)"/><path d="m137.401 251.318c11.118 55.336 59.989 97.016 118.599 97.016 58.61 0 107.481-41.681 118.599-97.016z" fill="url(#SVGID_00000041290982407309027280000014996925138121235091_)"/><g><path d="m262.683 267.096h-13.366c-11.139 0-19.573-10.066-17.622-21.033l6.28-35.302c.8-4.496 4.709-7.771 9.276-7.771h17.5c4.567 0 8.476 3.275 9.276 7.771l6.28 35.302c1.949 10.967-6.484 21.033-17.624 21.033z" fill="url(#SVGID_00000098207574665201848740000006578746316467209354_)"/><path d="m262.683 267.096h-13.366c-11.139 0-19.573-10.066-17.622-21.033l6.28-35.302c.8-4.496 4.709-7.771 9.276-7.771h17.5c4.567 0 8.476 3.275 9.276 7.771l6.28 35.302c1.949 10.967-6.484 21.033-17.624 21.033z" fill="url(#SVGID_00000143603708946750122890000016416228553871489971_)"/><path d="m249.317 267.096h13.366c11.139 0 19.573-10.066 17.622-21.033l-6.28-35.302c-.8-4.496-4.709-7.771-9.276-7.771h-17.5c-4.567 0-8.476 3.275-9.276 7.771l-6.28 35.302c-1.949 10.967 6.484 21.033 17.624 21.033z" fill="url(#SVGID_00000053516762732620937460000016320407324834870972_)"/></g></g><g><path d="m198.998 231.452c-9.855 0-17.844-7.989-17.844-17.844v-9.151c0-9.855 7.989-17.844 17.844-17.844 9.855 0 17.844 7.989 17.844 17.844v9.151c0 9.855-7.989 17.844-17.844 17.844z" fill="url(#SVGID_00000085216308365659382050000015582019603147660721_)"/><path d="m313.002 231.452c-9.855 0-17.844-7.989-17.844-17.844v-9.151c0-9.855 7.989-17.844 17.844-17.844 9.855 0 17.844 7.989 17.844 17.844v9.151c0 9.855-7.989 17.844-17.844 17.844z" fill="url(#SVGID_00000176014519643018607700000018343461709095470979_)"/></g><path d="m370.644.015c-13.882-.292-26.799 3.748-37.504 10.858-8.796 5.842-20.181 5.994-28.937.093-7.82-5.27-17.238-8.347-27.379-8.347-11.917 0-22.839 4.247-31.339 11.31-9.662 8.028-23.14 10.058-34.701 5.145-6.151-2.614-12.992-3.92-20.176-3.568-21.102 1.036-38.74 16.658-42.64 37.077-4.738-1.292-9.76-1.896-14.953-1.689-25.116 1.002-45.652 21.229-47.006 46.328-.627 11.618 2.789 22.416 8.968 31.114 4.354 6.13 6.029 13.8 4.858 21.228-.293 1.861-.446 3.769-.446 5.713 0 20.438 16.834 36.945 37.394 36.41 19.12-.497 34.821-16.103 35.433-35.22.081-2.545-.111-5.029-.528-7.436 5.396 2.015 11.247 3.124 17.377 3.124 17.709 0 33.22-9.381 41.851-23.443 3.318-5.405 10.18-7.329 15.849-4.484 6.161 3.093 13.117 4.835 20.482 4.835 4.929 0 9.676-.78 14.124-2.223 5.966-1.935 12.484.882 14.917 6.663 7.432 17.658 24.889 30.058 45.25 30.058 22.491 0 41.435-15.131 47.243-35.765 26.572-8.311 45.853-33.12 45.844-62.434-.014-35.352-28.635-64.603-63.981-65.347z" fill="url(#SVGID_00000132771375319375407320000014262951688500046256_)"/><path d="m434.622 65.364c-.011-35.354-28.632-64.606-63.978-65.349-13.882-.292-26.799 3.748-37.504 10.858-8.796 5.842-20.181 5.994-28.937.093-7.82-5.27-17.238-8.347-27.379-8.347-11.917 0-22.839 4.247-31.339 11.31-9.662 8.028-23.14 10.058-34.701 5.144-6.151-2.614-12.992-3.92-20.176-3.568-22.57 1.108-41.18 18.9-43.254 41.402-.155 1.684-.218 3.35-.193 4.995.119 7.934-.914 15.882-3.814 23.268-2.316 5.899-3.523 12.355-3.358 19.114.652 26.824 22.242 47.87 49.074 47.87 17.709 0 33.22-9.381 41.851-23.443 3.318-5.405 10.18-7.329 15.849-4.484 6.161 3.093 13.117 4.835 20.482 4.835 4.929 0 9.676-.78 14.124-2.223 5.966-1.935 12.484.882 14.917 6.663 7.432 17.658 24.889 30.058 45.25 30.058 22.491 0 41.435-15.131 47.243-35.765 26.571-8.309 45.852-33.118 45.843-62.431z" fill="url(#SVGID_00000165200339140450181580000007682596624407021985_)"/><path d="m370.644.015c-13.882-.292-26.799 3.748-37.504 10.858-8.796 5.842-20.181 5.994-28.937.093-7.82-5.27-17.238-8.347-27.379-8.347-2.669 0-5.285.224-7.839.635v125.776c4.306-.161 8.461-.916 12.383-2.188 5.966-1.935 12.484.882 14.917 6.663 7.432 17.658 24.889 30.058 45.25 30.058 22.491 0 41.435-15.131 47.243-35.765 26.572-8.311 45.853-33.12 45.844-62.434-.011-35.354-28.632-64.606-63.978-65.349z" fill="url(#SVGID_00000137847090387436363880000000984718871834191248_)"/><path d="m172.21 156.47c-.61 19.11-16.31 34.72-35.43 35.22-20.56.53-37.39-15.97-37.39-36.41 0-1.95.15-3.85.44-5.71 1.18-7.43-.5-15.1-4.85-21.23-6.18-8.7-9.6-19.5-8.97-31.12 1.35-25.1 21.89-45.32 47.01-46.33 5.19-.21 10.21.4 14.94 1.69-.27 1.42-.47 2.87-.61 4.33-.15 1.68-.21 3.35-.19 4.99.12 7.94-.91 15.89-3.81 23.27-2.32 5.9-3.53 12.36-3.36 19.12.5 20.7 13.47 37.96 31.7 44.76.42 2.4.6 4.88.52 7.42z" fill="url(#SVGID_00000041281993200554763150000012731953768910845876_)"/><path d="m172.21 156.47c-.61 19.11-16.31 34.72-35.43 35.22-20.56.53-37.39-15.97-37.39-36.41 0-1.95.15-3.85.44-5.71 1.18-7.43-.5-15.1-4.85-21.23-6.18-8.7-9.6-19.5-8.97-31.12 1.35-25.1 21.89-45.32 47.01-46.33 5.19-.21 10.21.4 14.94 1.69-.27 1.42-.47 2.87-.61 4.33-.15 1.68-.21 3.35-.19 4.99.12 7.94-.91 15.89-3.81 23.27-2.32 5.9-3.53 12.36-3.36 19.12.5 20.7 13.47 37.96 31.7 44.76.42 2.4.6 4.88.52 7.42z" fill="url(#SVGID_00000065072037961383979720000015758804499780858046_)"/></g></svg>