<svg id="_22_Inhalator" enable-background="new 0 0 512 512" viewBox="0 0 512 512" xmlns="http://www.w3.org/2000/svg" xmlns:xlink="http://www.w3.org/1999/xlink"><linearGradient id="SVGID_1_" gradientTransform="matrix(.906 -.423 -.423 -.906 201.668 561.073)" gradientUnits="userSpaceOnUse" x1="66.618" x2="130.83" y1="438.459" y2="438.459"><stop offset="0" stop-color="#fef0ae"/><stop offset="1" stop-color="#fac600"/></linearGradient><linearGradient id="lg1"><stop offset="0" stop-color="#fe9738" stop-opacity="0"/><stop offset=".1648" stop-color="#fe9637" stop-opacity=".012"/><stop offset=".2957" stop-color="#fe9535" stop-opacity=".052"/><stop offset=".415" stop-color="#fe9331" stop-opacity=".118"/><stop offset=".5274" stop-color="#fe902c" stop-opacity=".211"/><stop offset=".635" stop-color="#fe8c25" stop-opacity=".331"/><stop offset=".739" stop-color="#fe871d" stop-opacity=".479"/><stop offset=".8401" stop-color="#fe8213" stop-opacity=".655"/><stop offset=".9364" stop-color="#fe7b09" stop-opacity=".852"/><stop offset="1" stop-color="#fe7701"/></linearGradient><linearGradient id="SVGID_00000147189153804784143700000013774724383562633607_" gradientTransform="matrix(.906 -.423 -.423 -.906 201.668 561.073)" gradientUnits="userSpaceOnUse" x1="105.629" x2="105.629" xlink:href="#lg1" y1="463.073" y2="503.579"/><linearGradient id="SVGID_00000125593859672526228610000017691299602399269552_" gradientTransform="matrix(.906 -.423 -.423 -.906 201.668 561.073)" gradientUnits="userSpaceOnUse" x1="92.646" x2="102.687" xlink:href="#lg1" y1="476.042" y2="446.974"/><linearGradient id="SVGID_00000162324426326116075780000015910999367505362566_" gradientTransform="matrix(.906 -.423 -.423 -.906 201.668 561.073)" gradientUnits="userSpaceOnUse" x1="105.629" x2="105.629" y1="523.572" y2="483.471"><stop offset="0" stop-color="#f3faff"/><stop offset="1" stop-color="#d5daf3"/></linearGradient><linearGradient id="SVGID_00000077302379286811027980000017552139638059625662_" gradientTransform="matrix(.906 -.423 -.423 -.906 201.668 561.073)" gradientUnits="userSpaceOnUse" x1="155.56" x2="194.505" y1="506.17" y2="506.17"><stop offset="0" stop-color="#dbd5ef" stop-opacity="0"/><stop offset=".2667" stop-color="#d8d2ec" stop-opacity=".023"/><stop offset=".4431" stop-color="#d1c9e2" stop-opacity=".098"/><stop offset=".5933" stop-color="#c4b9d1" stop-opacity=".225"/><stop offset=".7288" stop-color="#b2a4ba" stop-opacity=".405"/><stop offset=".8545" stop-color="#9a889c" stop-opacity=".638"/><stop offset=".9713" stop-color="#7e6678" stop-opacity=".92"/><stop offset="1" stop-color="#765d6e"/></linearGradient><linearGradient id="lg2"><stop offset="0" stop-color="#c1e9af"/><stop offset=".1072" stop-color="#b6e4aa"/><stop offset=".2935" stop-color="#99d69e"/><stop offset=".5365" stop-color="#6bc18a"/><stop offset=".8238" stop-color="#2ca36f"/><stop offset="1" stop-color="#02905d"/></linearGradient><linearGradient id="SVGID_00000147932748988966910200000012452825923630941588_" gradientTransform="matrix(.906 -.423 -.423 -.906 201.668 561.073)" gradientUnits="userSpaceOnUse" x1="42.307" x2="186.904" xlink:href="#lg2" y1="255.904" y2="255.904"/><linearGradient id="SVGID_00000071554799715970484650000015981723128864596625_" gradientTransform="matrix(.906 -.423 -.423 -.906 201.668 561.073)" gradientUnits="userSpaceOnUse" x1="194.122" x2="77.094" xlink:href="#lg2" y1="264.786" y2="264.786"/><linearGradient id="lg3"><stop offset="0" stop-color="#026841" stop-opacity="0"/><stop offset=".2182" stop-color="#026841" stop-opacity=".033"/><stop offset=".4099" stop-color="#026841" stop-opacity=".137"/><stop offset=".5916" stop-color="#026841" stop-opacity=".31"/><stop offset=".7671" stop-color="#026841" stop-opacity=".553"/><stop offset=".9367" stop-color="#026841" stop-opacity=".864"/><stop offset="1" stop-color="#026841"/></linearGradient><linearGradient id="SVGID_00000115481797915767558020000015439991652361220791_" gradientTransform="matrix(.906 -.423 -.423 -.906 201.668 561.073)" gradientUnits="userSpaceOnUse" x1="141.799" x2="201.683" xlink:href="#lg3" y1="255.904" y2="255.904"/><linearGradient id="SVGID_00000125603168096497293300000001463435791460866222_" gradientTransform="matrix(1 0 0 -1 0 514)" gradientUnits="userSpaceOnUse" x1="194.977" x2="287.65" xlink:href="#lg3" y1="207.446" y2="50.614"/><linearGradient id="SVGID_00000067230510938165193230000005885273688394862779_" gradientTransform="matrix(1 0 0 -1 0 514)" gradientUnits="userSpaceOnUse" x1="339.072" x2="339.072" xlink:href="#lg2" y1="157.967" y2="10.3"/><linearGradient id="SVGID_00000013180620384423802260000009836115809211605659_" gradientTransform="matrix(1 0 0 -1 0 514)" gradientUnits="userSpaceOnUse" x1="325.951" x2="411.507" xlink:href="#lg3" y1="89.046" y2="89.046"/><linearGradient id="SVGID_00000160182833849561221290000012867633133531915434_" gradientTransform="matrix(1 0 0 -1 0 514)" gradientUnits="userSpaceOnUse" x1="339.072" x2="339.072" xlink:href="#lg3" y1="60.545" y2="10.644"/><linearGradient id="SVGID_00000033358154635047059750000017768949491477270207_" gradientTransform="matrix(1 0 0 -1 0 514)" gradientUnits="userSpaceOnUse" x1="443.513" x2="443.513" y1="154.796" y2="9.354"><stop offset="0" stop-color="#7a6d79"/><stop offset="1" stop-color="#593636"/></linearGradient><linearGradient id="lg4"><stop offset="0" stop-color="#593636" stop-opacity="0"/><stop offset="1"/></linearGradient><linearGradient id="SVGID_00000116934532847115234180000018301652122920564111_" gradientTransform="matrix(1 0 0 -1 0 514)" gradientUnits="userSpaceOnUse" x1="443.513" x2="443.513" xlink:href="#lg4" y1="50.944" y2="11.305"/><linearGradient id="SVGID_00000129910738117060185100000014324449208293341855_" gradientTransform="matrix(1 0 0 -1 0 514)" gradientUnits="userSpaceOnUse" x1="485.833" x2="513.985" xlink:href="#lg4" y1="85.982" y2="85.982"/><g><g><path d="m9.479 92.195 148.009-69.018 57.232 122.735-148.009 69.018z" fill="url(#SVGID_1_)"/><path d="m9.479 92.195 148.009-69.018 57.232 122.735-148.009 69.018z" fill="url(#SVGID_00000147189153804784143700000013774724383562633607_)"/><path d="m9.479 92.195 148.009-69.018 57.232 122.735-148.009 69.018z" fill="url(#SVGID_00000125593859672526228610000017691299602399269552_)"/><g><path d="m4.91 73.773 141.403-65.938c4.255-1.984 9.312-.143 11.296 4.111l8.56 18.357c1.984 4.255.143 9.312-4.111 11.296l-141.404 65.938c-4.255 1.984-9.312.143-11.296-4.111l-8.56-18.357c-1.984-4.255-.143-9.312 4.112-11.296z" fill="url(#SVGID_00000162324426326116075780000015910999367505362566_)"/><path d="m146.313 7.835-55.747 25.996 15.744 33.764 55.747-25.995c4.255-1.984 6.095-7.041 4.111-11.296l-8.56-18.357c-1.983-4.255-7.04-6.096-11.295-4.112z" fill="url(#SVGID_00000077302379286811027980000017552139638059625662_)"/></g><path d="m364.011 441.819-107.711 50.227c-32.515 15.162-71.164 1.095-86.326-31.42l-127.069-272.501c-5.921-12.697-2.628-27.786 8.045-36.862l104.58-88.935c11.357-9.658 28.792-5.853 35.093 7.659z" fill="url(#SVGID_00000147932748988966910200000012452825923630941588_)"/><path d="m148.461 157.485 68.146-31.777 104.365 223.812-68.146 31.777c-8.36 3.898-18.312.276-22.211-8.084l-90.239-193.517c-3.898-8.36-.276-18.312 8.085-22.211z" fill="url(#SVGID_00000071554799715970484650000015981723128864596625_)"/><path d="m155.53 62.328-79.108 67.274 165.676 355.292c2.914 6.249 10.342 8.952 16.591 6.038l105.323-49.113-173.389-371.832c-6.301-13.512-23.736-17.317-35.093-7.659z" fill="url(#SVGID_00000115481797915767558020000015439991652361220791_)"/><path d="m95.063 299.978 74.911 160.648c15.162 32.515 53.811 46.582 86.326 31.42l107.711-50.226-102.178-219.121z" fill="url(#SVGID_00000125603168096497293300000001463435791460866222_)"/></g><path d="m476.196 500.564c-91.416 0-182.832 0-274.248 0-14.517 0-26.285-11.768-26.285-26.285 0-25.67 0-51.34 0-77.01 0-13.11 8.7-24.66 21.322-28.203 93.692-26.298 190.476-26.299 284.173 0 12.623 3.543 21.322 15.093 21.322 28.203v77.01c.001 14.517-11.767 26.285-26.284 26.285z" fill="url(#SVGID_00000067230510938165193230000005885273688394862779_)"/><path d="m481.159 369.065c-64.507-18.106-130.478-23.744-195.896-16.919v148.417h190.933c14.517 0 26.285-11.768 26.285-26.285v-77.01c0-13.11-8.699-24.66-21.322-28.203z" fill="url(#SVGID_00000013180620384423802260000009836115809211605659_)"/><path d="m175.663 407.6v66.679c0 14.517 11.768 26.285 26.285 26.285h274.248c14.517 0 26.285-11.768 26.285-26.285v-66.679z" fill="url(#SVGID_00000160182833849561221290000012867633133531915434_)"/><g><path d="m512 395.657v81.493c0 15.358-12.455 27.813-27.824 27.813h-100.655c-4.692 0-8.496-3.804-8.496-8.496v-141.185c0-4.97 4.247-8.884 9.2-8.476 35.281 2.909 70.443 9.252 105.21 19.003 13.357 3.748 22.565 15.969 22.565 29.848z" fill="url(#SVGID_00000033358154635047059750000017768949491477270207_)"/><path d="m375.026 408.565v87.903c0 4.692 3.804 8.496 8.496 8.496h100.655c15.369 0 27.824-12.455 27.824-27.813v-68.585z" fill="url(#SVGID_00000116934532847115234180000018301652122920564111_)"/><path d="m489.436 365.809c-22.727-6.374-45.623-11.282-68.61-14.736v153.89h63.35c15.369 0 27.824-12.455 27.824-27.813v-81.493c0-13.878-9.208-26.1-22.564-29.848z" fill="url(#SVGID_00000129910738117060185100000014324449208293341855_)"/></g></g></svg>