<svg id="_23_Medication" enable-background="new 0 0 512 512" viewBox="0 0 512 512" xmlns="http://www.w3.org/2000/svg" xmlns:xlink="http://www.w3.org/1999/xlink"><linearGradient id="lg1"><stop offset="0" stop-color="#f3faff"/><stop offset="1" stop-color="#d5daf3"/></linearGradient><linearGradient id="SVGID_1_" gradientTransform="matrix(1 0 0 -1 0 514)" gradientUnits="userSpaceOnUse" x1="221.673" x2="351.486" xlink:href="#lg1" y1="258" y2="258"/><linearGradient id="lg2"><stop offset="0" stop-color="#dbd5ef" stop-opacity="0"/><stop offset=".2667" stop-color="#d8d2ec" stop-opacity=".023"/><stop offset=".4431" stop-color="#d1c9e2" stop-opacity=".098"/><stop offset=".5933" stop-color="#c4b9d1" stop-opacity=".225"/><stop offset=".7288" stop-color="#b2a4ba" stop-opacity=".405"/><stop offset=".8545" stop-color="#9a889c" stop-opacity=".638"/><stop offset=".9713" stop-color="#7e6678" stop-opacity=".92"/><stop offset="1" stop-color="#765d6e"/></linearGradient><linearGradient id="SVGID_00000037660967719786509890000006125596757204276375_" gradientTransform="matrix(1 0 0 -1 0 514)" gradientUnits="userSpaceOnUse" x1="220.859" x2="141.669" xlink:href="#lg2" y1="199.449" y2="200.605"/><linearGradient id="SVGID_00000093142155540254688940000012756647036905008543_" gradientTransform="matrix(1 0 0 -1 0 514)" gradientUnits="userSpaceOnUse" x1="162.988" x2="104.029" xlink:href="#lg2" y1="271.967" y2="362.719"/><linearGradient id="SVGID_00000063608716520165783800000004305090699872225450_" gradientTransform="matrix(1 0 0 -1 0 514)" gradientUnits="userSpaceOnUse" x1="191.883" x2="433.328" y1="195.019" y2="195.019"><stop offset="0" stop-color="#99e6fc"/><stop offset=".1325" stop-color="#8ee1fb"/><stop offset=".3627" stop-color="#71d5f9"/><stop offset=".6631" stop-color="#43c2f5"/><stop offset="1" stop-color="#08a9f1"/></linearGradient><linearGradient id="lg3"><stop offset="0" stop-color="#2740b0" stop-opacity="0"/><stop offset=".2505" stop-color="#263fae" stop-opacity=".023"/><stop offset=".4239" stop-color="#253dab" stop-opacity=".095"/><stop offset=".5741" stop-color="#233ba4" stop-opacity=".218"/><stop offset=".711" stop-color="#21379b" stop-opacity=".393"/><stop offset=".8389" stop-color="#1e3290" stop-opacity=".618"/><stop offset=".9585" stop-color="#1a2c82" stop-opacity=".89"/><stop offset="1" stop-color="#192a7d"/></linearGradient><linearGradient id="SVGID_00000168088932069859626980000007397464282844813216_" gradientTransform="matrix(1 0 0 -1 0 514)" gradientUnits="userSpaceOnUse" x1="196.805" x2="130.508" xlink:href="#lg3" y1="180.769" y2="171.145"/><linearGradient id="SVGID_00000160869783743530038810000004404486373261804941_" gradientTransform="matrix(1 0 0 -1 0 514)" gradientUnits="userSpaceOnUse" x1="191.25" x2="132.082" xlink:href="#lg3" y1="290.544" y2="400.326"/><linearGradient id="lg4"><stop offset="0" stop-color="#fe9738" stop-opacity="0"/><stop offset=".1648" stop-color="#fe9637" stop-opacity=".012"/><stop offset=".2957" stop-color="#fe9535" stop-opacity=".052"/><stop offset=".415" stop-color="#fe9331" stop-opacity=".118"/><stop offset=".5274" stop-color="#fe902c" stop-opacity=".211"/><stop offset=".635" stop-color="#fe8c25" stop-opacity=".331"/><stop offset=".739" stop-color="#fe871d" stop-opacity=".479"/><stop offset=".8401" stop-color="#fe8213" stop-opacity=".655"/><stop offset=".9364" stop-color="#fe7b09" stop-opacity=".852"/><stop offset="1" stop-color="#fe7701"/></linearGradient><linearGradient id="SVGID_00000137832390939397739630000017366305007509126306_" gradientTransform="matrix(1 0 0 -1 0 514)" gradientUnits="userSpaceOnUse" x1="334.763" x2="354.788" xlink:href="#lg4" y1="229.291" y2="209.267"/><linearGradient id="SVGID_00000114791517938085560820000011175729998062437777_" gradientTransform="matrix(1 0 0 -1 0 514)" gradientUnits="userSpaceOnUse" x1="276.912" x2="296.936" xlink:href="#lg4" y1="242.974" y2="222.949"/><linearGradient id="SVGID_00000098211161995654199640000006626165967196622500_" gradientTransform="matrix(1 0 0 -1 0 514)" gradientUnits="userSpaceOnUse" x1="313.098" x2="328.748" xlink:href="#lg4" y1="292.203" y2="276.553"/><linearGradient id="SVGID_00000129169525261337442710000013111036717703551921_" gradientTransform="matrix(1 0 0 -1 0 514)" gradientUnits="userSpaceOnUse" x1="345.688" x2="370.289" xlink:href="#lg4" y1="219.398" y2="194.796"/><linearGradient id="lg5"><stop offset="0" stop-color="#fef0ae"/><stop offset="1" stop-color="#fac600" stop-opacity="0"/></linearGradient><linearGradient id="SVGID_00000034786963120589264270000000200177842018399116_" gradientTransform="matrix(1 0 0 -1 0 514)" gradientUnits="userSpaceOnUse" x1="212.896" x2="247.285" xlink:href="#lg5" y1="228.45" y2="194.061"/><linearGradient id="SVGID_00000091016500116812551050000003808793291774611078_" gradientTransform="matrix(1 0 0 -1 0 514)" gradientUnits="userSpaceOnUse" x1="243.706" x2="263.731" xlink:href="#lg5" y1="257.268" y2="237.244"/><linearGradient id="SVGID_00000019643631741137488030000013357023981917816715_" gradientTransform="matrix(1 0 0 -1 0 514)" gradientUnits="userSpaceOnUse" x1="216.037" x2="236.061" xlink:href="#lg5" y1="290.503" y2="270.479"/><linearGradient id="SVGID_00000054255328000685803840000003772887654487255937_" gradientTransform="matrix(1 0 0 -1 0 514)" gradientUnits="userSpaceOnUse" x1="252.223" x2="267.873" xlink:href="#lg5" y1="318.107" y2="302.457"/><linearGradient id="SVGID_00000116926778415589417320000015278308807878066867_" gradientTransform="matrix(1 0 0 -1 0 514)" gradientUnits="userSpaceOnUse" x1="284.813" x2="309.414" xlink:href="#lg5" y1="266.927" y2="242.326"/><linearGradient id="SVGID_00000171692027355258256710000007828286732650552757_" gradientTransform="matrix(1 0 0 -1 0 514)" gradientUnits="userSpaceOnUse" x1="287.575" x2="352.83" xlink:href="#lg5" y1="168.331" y2="86.763"/><linearGradient id="SVGID_00000083785531243290454360000004936734524825352871_" gradientTransform="matrix(1 0 0 -1 0 514)" gradientUnits="userSpaceOnUse" x1="322.439" x2="290.932" y1="129.516" y2="161.023"><stop offset="0" stop-color="#fef0ae" stop-opacity="0"/><stop offset="1" stop-color="#fac600"/></linearGradient><linearGradient id="lg6"><stop offset="0" stop-color="#fff" stop-opacity="0"/><stop offset=".0925" stop-color="#fff" stop-opacity=".024"/><stop offset=".2178" stop-color="#fff" stop-opacity=".092"/><stop offset=".3619" stop-color="#fff" stop-opacity=".203"/><stop offset=".52" stop-color="#fff" stop-opacity=".359"/><stop offset=".6897" stop-color="#fff" stop-opacity=".559"/><stop offset=".8661" stop-color="#fff" stop-opacity=".798"/><stop offset="1" stop-color="#fff"/></linearGradient><linearGradient id="SVGID_00000162325127511504153100000010222707684187517329_" gradientTransform="matrix(1 0 0 -1 0 514)" gradientUnits="userSpaceOnUse" x1="292.786" x2="327.175" xlink:href="#lg6" y1="151.066" y2="116.678"/><linearGradient id="SVGID_00000056423027138494422030000010242324278896521383_" gradientTransform="matrix(1 0 0 -1 0 514)" gradientUnits="userSpaceOnUse" x1="298.972" x2="318.996" xlink:href="#lg6" y1="194.895" y2="174.871"/><linearGradient id="SVGID_00000065072344032519764170000008404324251934423962_" gradientTransform="matrix(1 0 0 -1 0 514)" gradientUnits="userSpaceOnUse" x1="258.565" x2="278.589" xlink:href="#lg6" y1="221.999" y2="201.975"/><linearGradient id="SVGID_00000056415656440726902820000000131127088097770131_" gradientTransform="matrix(1 0 0 -1 0 514)" gradientUnits="userSpaceOnUse" x1="298.933" x2="314.583" xlink:href="#lg6" y1="240.451" y2="224.801"/><linearGradient id="SVGID_00000053509530710362834730000016304975157352664465_" gradientTransform="matrix(1 0 0 -1 0 514)" gradientUnits="userSpaceOnUse" x1="256.932" x2="281.533" xlink:href="#lg6" y1="171.854" y2="147.252"/><linearGradient id="SVGID_00000049926487010233951780000006838763793304387994_" gradientTransform="matrix(1 0 0 -1 0 514)" gradientUnits="userSpaceOnUse" x1="302.501" x2="302.501" xlink:href="#lg3" y1="96.332" y2="28.043"/><linearGradient id="SVGID_00000101821050165774664890000002026319899461052862_" gradientTransform="matrix(1 0 0 -1 0 514)" gradientUnits="userSpaceOnUse" x1="367.529" x2="455.941" xlink:href="#lg3" y1="195.019" y2="195.019"/><linearGradient id="SVGID_00000118390335730065691490000009266293175612246923_" gradientTransform="matrix(1 0 0 -1 0 514)" gradientUnits="userSpaceOnUse" x1="302.501" x2="302.501" xlink:href="#lg2" y1="71.988" y2="-3.327"/><linearGradient id="SVGID_00000114763901917564215100000001283028254514608037_" gradientTransform="matrix(1 0 0 -1 0 514)" gradientUnits="userSpaceOnUse" x1="310.799" x2="494.719" xlink:href="#lg2" y1="255.876" y2="264.431"/><linearGradient id="SVGID_00000104664745719694325250000000415807063742984863_" gradientTransform="matrix(1 0 0 -1 0 514)" gradientUnits="userSpaceOnUse" x1="56.364" x2="128.293" y1="190.885" y2="190.885"><stop offset="0" stop-color="#fef0ae"/><stop offset="1" stop-color="#fac600"/></linearGradient><linearGradient id="SVGID_00000176732345378343404650000014458290066035894689_" gradientTransform="matrix(1 0 0 -1 0 514)" gradientUnits="userSpaceOnUse" x1="93.255" x2="93.255" xlink:href="#lg4" y1="330.893" y2="398.004"/><linearGradient id="SVGID_00000153674725943846487870000010425477538174032014_" gradientTransform="matrix(1 0 0 -1 0 514)" gradientUnits="userSpaceOnUse" x1="98.421" x2="154.9" xlink:href="#lg4" y1="190.885" y2="190.885"/><linearGradient id="SVGID_00000131369341215424008460000009373088238911696290_" gradientTransform="matrix(1 0 0 -1 0 514)" gradientUnits="userSpaceOnUse" x1="130.515" x2="156.178" y1="190.595" y2="190.119"><stop offset="0" stop-color="#fac600" stop-opacity="0"/><stop offset=".1175" stop-color="#fac602" stop-opacity=".017"/><stop offset=".2423" stop-color="#fac80b" stop-opacity=".067"/><stop offset=".3705" stop-color="#facc1a" stop-opacity=".151"/><stop offset=".5011" stop-color="#fbd12e" stop-opacity=".268"/><stop offset=".6336" stop-color="#fbd748" stop-opacity=".419"/><stop offset=".7676" stop-color="#fcdf69" stop-opacity=".604"/><stop offset=".9003" stop-color="#fde88e" stop-opacity=".819"/><stop offset="1" stop-color="#fef0ae"/></linearGradient><linearGradient id="SVGID_00000149342898375904428620000016141736333113986999_" gradientTransform="matrix(1 0 0 -1 -1585.717 644.529)" gradientUnits="userSpaceOnUse" x1="1679.448" x2="1678.327" xlink:href="#lg1" y1="548.015" y2="528.211"/><linearGradient id="SVGID_00000140733040814210601410000000157087952213706152_" gradientTransform="matrix(1 0 0 -1 -1585.717 644.529)" gradientUnits="userSpaceOnUse" x1="1678.969" x2="1678.969" xlink:href="#lg2" y1="542.041" y2="523.969"/><linearGradient id="SVGID_00000039112494538054736470000003956300634033474458_" gradientTransform="matrix(1 0 0 -1 -1585.717 644.529)" gradientUnits="userSpaceOnUse" x1="1704.757" x2="1728.801" xlink:href="#lg2" y1="540.111" y2="518.814"/><linearGradient id="SVGID_00000095310200719957846640000012373184789357501313_" gradientTransform="matrix(1 0 0 -1 -1650.884 653.658)" gradientUnits="userSpaceOnUse" x1="1744.136" x2="1744.136" xlink:href="#lg1" y1="537.702" y2="515.737"/><linearGradient id="SVGID_00000134960679396384968310000007379874319932294040_" gradientTransform="matrix(1 0 0 -1 -1650.884 653.658)" gradientUnits="userSpaceOnUse" x1="1744.136" x2="1744.136" xlink:href="#lg2" y1="539.337" y2="509.323"/><linearGradient id="SVGID_00000054966476568123153200000014319497009693640853_" gradientTransform="matrix(1 0 0 -1 -1650.884 653.658)" gradientUnits="userSpaceOnUse" x1="1777.076" x2="1826.148" xlink:href="#lg2" y1="527.385" y2="527.385"/><linearGradient id="SVGID_00000180344146023272407830000013669849260446874015_" gradientTransform="matrix(1 0 0 -1 0 514)" gradientUnits="userSpaceOnUse" x1="93.253" x2="93.253" xlink:href="#lg4" y1="32.243" y2="1.889"/><linearGradient id="SVGID_00000056409299732544128730000010216001958398861238_" gradientTransform="matrix(1 0 0 -1 0 514)" gradientUnits="userSpaceOnUse" x1="40.441" x2="144.098" y1="204.5" y2="204.5"><stop offset="0" stop-color="#c1e9af"/><stop offset=".1072" stop-color="#b6e4aa"/><stop offset=".2935" stop-color="#99d69e"/><stop offset=".5365" stop-color="#6bc18a"/><stop offset=".8238" stop-color="#2ca36f"/><stop offset="1" stop-color="#02905d"/></linearGradient><g><g><path d="m493.245 424.774c-29.688-67.947-40.507-142.656-31.308-216.248l8.46-67.68 16.165-129.164c.786-6.194-4.057-11.682-10.3-11.682h-347.523c-6.243 0-11.086 5.488-10.315 11.684l16.165 129.164 8.475 67.68c9.199 73.592-1.62 148.301-31.308 216.248-3.617 8.271-5.284 16.731-5.284 24.987 0 32.818 26.449 62.239 62.333 62.239h267.389c44.896-.002 75.04-46.076 57.051-87.228z" fill="url(#SVGID_1_)"/><path d="m498.351 445.188-329.614-329.614-33.16 33.16 7.488 59.792c9.199 73.592-1.62 148.301-31.308 216.248-3.617 8.271-5.284 16.731-5.284 24.987 0 32.818 26.449 62.239 62.333 62.239h267.389c37.534 0 64.75-32.204 62.156-66.812z" fill="url(#SVGID_00000037660967719786509890000006125596757204276375_)"/><path d="m498.351 445.188-329.614-329.614-33.16 33.16 7.488 59.792c9.199 73.592-1.62 148.301-31.308 216.248-3.617 8.271-5.284 16.731-5.284 24.987 0 32.818 26.449 62.239 62.333 62.239h267.389c37.534 0 64.75-32.204 62.156-66.812z" fill="url(#SVGID_00000093142155540254688940000012756647036905008543_)"/><g><path d="m411.028 484.945h-217.055c-32.092 0-55.746-26.312-55.746-55.661 0-7.383 1.491-14.949 4.725-22.346 26.551-60.766 36.226-127.579 27.999-193.394l-6.067-48.446c-.803-6.414 4.198-12.081 10.662-12.081h253.895c6.463 0 11.464 5.665 10.662 12.078l-6.056 48.449c-8.227 65.815 1.449 132.628 27.999 193.394 16.091 36.802-10.868 78.007-51.018 78.007z" fill="url(#SVGID_00000063608716520165783800000004305090699872225450_)"/><path d="m411.028 484.945h-217.055c-32.092 0-55.746-26.312-55.746-55.661 0-7.383 1.491-14.949 4.725-22.346 26.551-60.766 36.226-127.579 27.999-193.394l-6.067-48.446c-.803-6.414 4.198-12.081 10.662-12.081h253.895c6.463 0 11.464 5.665 10.662 12.078l-6.056 48.449c-8.227 65.815 1.449 132.628 27.999 193.394 16.091 36.802-10.868 78.007-51.018 78.007z" fill="url(#SVGID_00000168088932069859626980000007397464282844813216_)"/><path d="m175.547 153.017c-6.464 0-11.465 5.666-10.662 12.081l6.067 48.446c8.227 65.815-1.448 132.628-27.999 193.394-3.235 7.397-4.725 14.963-4.725 22.346 0 29.349 23.654 55.661 55.746 55.661h217.055c38.971 0 65.511-38.821 52.323-74.756l-257.172-257.172z" fill="url(#SVGID_00000160869783743530038810000004404486373261804941_)"/><g><g><circle cx="348.418" cy="298.363" fill="url(#SVGID_00000137832390939397739630000017366305007509126306_)" r="13.835"/><circle cx="290.567" cy="284.681" fill="url(#SVGID_00000114791517938085560820000011175729998062437777_)" r="13.835"/><circle cx="323.77" cy="232.469" fill="url(#SVGID_00000098211161995654199640000006626165967196622500_)" r="10.813"/><circle cx="362.464" cy="311.378" fill="url(#SVGID_00000129169525261337442710000013111036717703551921_)" r="16.997"/></g><g><circle cx="236.346" cy="309" fill="url(#SVGID_00000034786963120589264270000000200177842018399116_)" r="23.759"/><circle cx="257.361" cy="270.386" fill="url(#SVGID_00000091016500116812551050000003808793291774611078_)" r="13.835"/><circle cx="229.691" cy="237.152" fill="url(#SVGID_00000019643631741137488030000013357023981917816715_)" r="13.835"/><circle cx="262.895" cy="206.565" fill="url(#SVGID_00000054255328000685803840000003772887654487255937_)" r="10.813"/><circle cx="301.589" cy="263.849" fill="url(#SVGID_00000116926778415589417320000015278308807878066867_)" r="16.997"/></g><g><circle cx="303.39" cy="365.437" fill="url(#SVGID_00000171692027355258256710000007828286732650552757_)" r="79.352"/><path d="m370.455 323.01-109.502 109.501c-9.917-6.299-18.348-14.729-24.607-24.646l109.481-109.501c9.918 6.298 18.349 14.729 24.628 24.646z" fill="url(#SVGID_00000083785531243290454360000004936734524825352871_)"/></g><g><circle cx="316.236" cy="386.384" fill="url(#SVGID_00000162325127511504153100000010222707684187517329_)" r="23.759"/><circle cx="312.627" cy="332.76" fill="url(#SVGID_00000056423027138494422030000010242324278896521383_)" r="13.835"/><circle cx="272.22" cy="305.655" fill="url(#SVGID_00000065072344032519764170000008404324251934423962_)" r="13.835"/><circle cx="309.605" cy="284.221" fill="url(#SVGID_00000056415656440726902820000000131127088097770131_)" r="10.813"/><circle cx="273.708" cy="358.922" fill="url(#SVGID_00000053509530710362834730000016304975157352664465_)" r="16.997"/></g></g><path d="m142.953 406.938c-3.235 7.397-4.725 14.963-4.725 22.346 0 29.349 23.654 55.661 55.746 55.661h217.055c40.15 0 67.109-41.204 51.02-78.007-15.194-34.774-24.85-71.53-28.799-108.944h-261.498c-3.949 37.414-13.605 74.169-28.799 108.944z" fill="url(#SVGID_00000049926487010233951780000006838763793304387994_)"/><path d="m434.049 213.544 6.056-48.449c.802-6.413-4.199-12.078-10.662-12.078h-161.153v331.928h142.738c40.15 0 67.109-41.204 51.02-78.007-26.55-60.766-36.226-127.579-27.999-193.394z" fill="url(#SVGID_00000101821050165774664890000002026319899461052862_)"/></g><path d="m111.756 424.774c-3.617 8.271-5.284 16.731-5.284 24.987 0 32.818 26.449 62.239 62.333 62.239h267.39c44.895 0 75.039-46.074 57.05-87.225-17.653-40.401-28.632-83.193-32.701-126.719h-316.087c-4.068 43.526-15.048 86.317-32.701 126.718z" fill="url(#SVGID_00000118390335730065691490000009266293175612246923_)"/><path d="m461.937 208.527 8.46-67.68 16.165-129.164c.786-6.195-4.057-11.683-10.3-11.683h-201.05v512h160.983c44.895 0 75.039-46.074 57.05-87.225-29.688-67.948-40.507-142.656-31.308-216.248z" fill="url(#SVGID_00000114763901917564215100000001283028254514608037_)"/></g><g><path d="m153.67 134.23v361.19c0 9.16-7.42 16.58-16.58 16.58h-87.68c-9.15 0-16.57-7.42-16.57-16.58v-93.47l16.16-85.82-16.16-99.08v-82.82z" fill="url(#SVGID_00000104664745719694325250000000415807063742984863_)"/><path d="m153.67 134.23v98.74h-118.23l-2.6-15.92v-82.82z" fill="url(#SVGID_00000176732345378343404650000014458290066035894689_)"/><path d="m75.971 511.997h61.123c9.154 0 16.574-7.421 16.574-16.574v-361.19h-77.697z" fill="url(#SVGID_00000153674725943846487870000010425477538174032014_)"/><path d="m75.971 511.997h61.123c9.154 0 16.574-7.421 16.574-16.574v-361.19h-77.697z" fill="url(#SVGID_00000131369341215424008460000009373088238911696290_)"/><g><path d="m137.006 89.8c-2.65 0-5.239.713-7.546 2.017-8.923 5.041-21.836 8.212-36.208 8.212s-27.285-3.171-36.208-8.212c-2.307-1.304-4.896-2.017-7.546-2.017h-3.302c-8.374 0-15.163 6.789-15.163 15.163 0 8.374 6.789 15.163 15.163 15.163h94.112c8.374 0 15.163-6.789 15.163-15.163 0-8.374-6.789-15.163-15.163-15.163z" fill="url(#SVGID_00000149342898375904428620000016141736333113986999_)"/><path d="m93.252 100.029c-8.458 0-16.403-1.105-23.334-3.036h-36.603c-1.438 2.318-2.282 5.043-2.282 7.971 0 8.374 6.789 15.163 15.163 15.163h94.112c8.374 0 15.163-6.789 15.163-15.163 0-2.928-.844-5.653-2.282-7.971h-36.603c-6.931 1.931-14.875 3.036-23.334 3.036z" fill="url(#SVGID_00000140733040814210601410000000157087952213706152_)"/><path d="m140.308 120.126c8.374 0 15.163-6.789 15.163-15.163s-6.788-15.163-15.163-15.163h-3.302c-2.65 0-5.239.713-7.546 2.017-8.923 5.041-21.836 8.212-36.208 8.212v20.097z" fill="url(#SVGID_00000039112494538054736470000003956300634033474458_)"/></g><g><path d="m28.95 110.792h128.604c8.549 0 15.48 6.931 15.48 15.48 0 8.549-6.931 15.48-15.48 15.48h-128.604c-8.549 0-15.48-6.931-15.48-15.48 0-8.549 6.931-15.48 15.48-15.48z" fill="url(#SVGID_00000095310200719957846640000012373184789357501313_)"/><path d="m28.95 110.792h128.604c8.549 0 15.48 6.931 15.48 15.48 0 8.549-6.931 15.48-15.48 15.48h-128.604c-8.549 0-15.48-6.931-15.48-15.48 0-8.549 6.931-15.48 15.48-15.48z" fill="url(#SVGID_00000134960679396384968310000007379874319932294040_)"/><path d="m157.555 110.792h-81.583v30.96h81.583c8.549 0 15.48-6.931 15.48-15.48 0-8.549-6.931-15.48-15.48-15.48z" fill="url(#SVGID_00000054966476568123153200000014319497009693640853_)"/></g><path d="m32.837 445.289v50.134c0 9.154 7.421 16.574 16.574 16.574h87.683c9.154 0 16.574-7.421 16.574-16.574v-50.134z" fill="url(#SVGID_00000180344146023272407830000013669849260446874015_)"/><path d="m32.837 401.952h58.229c3.176 0 5.751-2.575 5.751-5.751v-173.402c0-3.176-2.575-5.751-5.751-5.751h-58.229z" fill="url(#SVGID_00000056409299732544128730000010216001958398861238_)"/></g></g></svg>