<svg id="_24_Emergency_Call" enable-background="new 0 0 512 512" viewBox="0 0 512 512" xmlns="http://www.w3.org/2000/svg" xmlns:xlink="http://www.w3.org/1999/xlink"><linearGradient id="SVGID_1_" gradientTransform="matrix(.707 .707 .707 -.707 -215.225 253.367)" gradientUnits="userSpaceOnUse" x1="313.857" x2="368.768" y1="334.619" y2="106.618"><stop offset="0" stop-color="#c1e9af"/><stop offset=".1072" stop-color="#b6e4aa"/><stop offset=".2935" stop-color="#99d69e"/><stop offset=".5365" stop-color="#6bc18a"/><stop offset=".8238" stop-color="#2ca36f"/><stop offset="1" stop-color="#02905d"/></linearGradient><linearGradient id="lg1"><stop offset="0" stop-color="#026841" stop-opacity="0"/><stop offset=".2182" stop-color="#026841" stop-opacity=".033"/><stop offset=".4099" stop-color="#026841" stop-opacity=".137"/><stop offset=".5916" stop-color="#026841" stop-opacity=".31"/><stop offset=".7671" stop-color="#026841" stop-opacity=".553"/><stop offset=".9367" stop-color="#026841" stop-opacity=".864"/><stop offset="1" stop-color="#026841"/></linearGradient><linearGradient id="SVGID_00000111176009702577658420000004015468537213715869_" gradientTransform="matrix(.707 .707 .707 -.707 -215.225 253.367)" gradientUnits="userSpaceOnUse" x1="326.65" x2="326.65" xlink:href="#lg1" y1="160.086" y2="101.593"/><linearGradient id="SVGID_00000029040199023342335580000006892316595816194747_" gradientTransform="matrix(.707 .707 .707 -.707 -215.225 253.367)" gradientUnits="userSpaceOnUse" x1="472.979" x2="544.602" xlink:href="#lg1" y1="210.392" y2="187.711"/><linearGradient id="SVGID_00000127039580000799129890000013609796588141893277_" gradientTransform="matrix(.707 .707 .707 -.707 -215.225 253.367)" gradientUnits="userSpaceOnUse" x1="326.65" x2="326.65" xlink:href="#lg1" y1="223.301" y2="178.481"/><linearGradient id="SVGID_00000146472097151239651350000002712531653384478369_" gradientTransform="matrix(1 0 0 -1 0 514)" gradientUnits="userSpaceOnUse" x1="255.365" x2="409.341" y1="441.856" y2="210.893"><stop offset="0" stop-color="#f3faff"/><stop offset="1" stop-color="#d5daf3"/></linearGradient><linearGradient id="lg2"><stop offset="0" stop-color="#dbd5ef" stop-opacity="0"/><stop offset=".2667" stop-color="#d8d2ec" stop-opacity=".023"/><stop offset=".4431" stop-color="#d1c9e2" stop-opacity=".098"/><stop offset=".5933" stop-color="#c4b9d1" stop-opacity=".225"/><stop offset=".7288" stop-color="#b2a4ba" stop-opacity=".405"/><stop offset=".8545" stop-color="#9a889c" stop-opacity=".638"/><stop offset=".9713" stop-color="#7e6678" stop-opacity=".92"/><stop offset="1" stop-color="#765d6e"/></linearGradient><linearGradient id="SVGID_00000173858369050892877390000001910644877411219378_" gradientTransform="matrix(1 0 0 -1 0 514)" gradientUnits="userSpaceOnUse" x1="449.02" x2="365.571" xlink:href="#lg2" y1="253.98" y2="337.429"/><linearGradient id="SVGID_00000105406017100149279050000003459190458563892149_" gradientTransform="matrix(1 0 0 -1 0 514)" gradientUnits="userSpaceOnUse" x1="403.223" x2="364.22" xlink:href="#lg2" y1="404.907" y2="404.907"/><linearGradient id="SVGID_00000097474037143605382890000009769917799747062671_" gradientTransform="matrix(1 0 0 -1 0 514)" gradientUnits="userSpaceOnUse" x1="298.194" x2="298.194" xlink:href="#lg2" y1="287.367" y2="339.095"/><linearGradient id="SVGID_00000146470406468808994200000017478369080056025005_" gradientTransform="matrix(1 0 0 -1 0 514)" gradientUnits="userSpaceOnUse" x1="344.546" x2="344.546" xlink:href="#lg2" y1="342.844" y2="197.911"/><linearGradient id="SVGID_00000036232871098930929250000017300180932141786500_" gradientTransform="matrix(1 0 0 -1 0 514)" gradientUnits="userSpaceOnUse" x1="339.269" x2="462.646" xlink:href="#lg2" y1="379.956" y2="246.174"/><linearGradient id="SVGID_00000091726825138016508570000013972241203079260036_" gradientTransform="matrix(1 0 0 -1 0 514)" gradientUnits="userSpaceOnUse" x1="323.28" x2="368.13" y1="379.718" y2="334.868"><stop offset="0" stop-color="#fe646f"/><stop offset=".235" stop-color="#fa5964"/><stop offset=".6415" stop-color="#ef3d49"/><stop offset="1" stop-color="#e41f2d"/></linearGradient><linearGradient id="lg3"><stop offset="0" stop-color="#a72b2b" stop-opacity="0"/><stop offset=".1561" stop-color="#a32b2a" stop-opacity=".066"/><stop offset=".386" stop-color="#982c29" stop-opacity=".248"/><stop offset=".6615" stop-color="#872f28" stop-opacity=".545"/><stop offset=".97" stop-color="#6f3226" stop-opacity=".956"/><stop offset="1" stop-color="#6d3326"/></linearGradient><linearGradient id="SVGID_00000181057931257691711480000004386453500451291532_" gradientTransform="matrix(1 0 0 -1 0 514)" gradientUnits="userSpaceOnUse" x1="344.546" x2="344.546" xlink:href="#lg3" y1="298.906" y2="278.12"/><linearGradient id="SVGID_00000000223346708081624560000007600275248867269032_" gradientTransform="matrix(1 0 0 -1 0 514)" gradientUnits="userSpaceOnUse" x1="404.417" x2="424.772" xlink:href="#lg3" y1="358.452" y2="358.452"/><g><g><path d="m306.735 359.73c-6.233 6.233-10.482 14.171-12.211 22.814l-.641 3.202c-1.312 6.555-4.534 12.576-9.262 17.303-10.12 10.12-26.527 10.12-36.646 0l-150.93-150.93c-10.12-10.12-10.12-26.527 0-36.646 4.727-4.727 10.748-7.95 17.303-9.262l3.202-.641c8.643-1.73 16.581-5.978 22.814-12.211 11.664-11.664 11.664-30.575 0-42.239l-44.086-44.086c-11.664-11.664-30.575-11.664-42.239 0l-9.559 9.559.051.051c-60.451 63.988-59.358 164.874 3.289 227.521l108.107 108.107c62.647 62.647 163.533 63.74 227.521 3.289l.051.051 9.559-9.559c11.664-11.664 11.664-30.575 0-42.239l-44.086-44.086c-11.662-11.661-30.573-11.661-42.237.002z" fill="url(#SVGID_1_)"/><path d="m257.414 409.068c-3.444-1.254-6.676-3.257-9.439-6.019l-150.93-150.93c-2.762-2.762-4.765-5.995-6.019-9.439l-77.986-77.985c-25.326 59.49-13.742 130.948 34.781 179.471l108.107 108.107c48.523 48.523 119.981 60.107 179.471 34.781z" fill="url(#SVGID_00000111176009702577658420000004015468537213715869_)"/><path d="m393.06 403.817-44.086-44.086c-11.664-11.664-30.575-11.664-42.239 0-6.233 6.233-10.481 14.171-12.211 22.814l-.641 3.202c-1.312 6.555-4.534 12.576-9.262 17.303-10.12 10.12-26.527 10.12-36.646 0l-75.466-75.466-70.635 70.635 54.055 54.055c62.647 62.647 163.533 63.74 227.521 3.289l.051.051 9.559-9.559c11.664-11.664 11.664-30.574 0-42.238z" fill="url(#SVGID_00000029040199023342335580000006892316595816194747_)"/><path d="m276.227 411.444 8.395-8.395c-10.12 10.12-26.527 10.12-36.646 0l-150.93-150.93c-10.12-10.12-10.12-26.527 0-36.646l-8.395 8.395c-17.907 17.907-17.907 46.94 0 64.847l122.73 122.73c17.905 17.906 46.939 17.906 64.846-.001z" fill="url(#SVGID_00000127039580000799129890000013609796588141893277_)"/></g><g><path d="m344.546 11.906c-92.482 0-167.454 64.311-167.454 143.642 0 23.958 6.839 46.546 18.932 66.406 13.838 22.725 6.652 52.532-16.027 66.445-.162.099-.324.198-.486.296-3.876 2.343-2.9 8.248 1.542 9.119 4.572.897 9.293 1.376 14.135 1.376 21.94 0 41.622-9.654 55.041-24.943 26.862 15.736 59.334 24.943 94.317 24.943 92.482 0 167.454-64.31 167.454-143.642s-74.972-143.642-167.454-143.642z" fill="url(#SVGID_00000146472097151239651350000002712531653384478369_)"/><path d="m496.976 215.09c-20.25 38.079-59.323 67.249-107.024 78.747l-64.436-64.436v-92.88h92.891z" fill="url(#SVGID_00000173858369050892877390000001910644877411219378_)"/><g><path d="m418.408 136.522h-76.336v-33.379l21.478-21.479z" fill="url(#SVGID_00000105406017100149279050000003459190458563892149_)"/><path d="m325.516 157.364v72.038l-54.645-54.645z" fill="url(#SVGID_00000097474037143605382890000009769917799747062671_)"/></g><path d="m177.092 155.548c0 23.958 6.839 46.546 18.932 66.406 13.838 22.725 6.652 52.532-16.027 66.445-.162.099-.324.198-.486.296-3.876 2.343-2.9 8.248 1.542 9.119 4.572.897 9.293 1.376 14.135 1.376 21.94 0 41.622-9.654 55.041-24.943 26.862 15.736 59.334 24.943 94.317 24.943 92.482 0 167.454-64.31 167.454-143.642 0-2.898-.112-5.774-.309-8.63h-334.289c-.198 2.856-.31 5.732-.31 8.63z" fill="url(#SVGID_00000146470406468808994200000017478369080056025005_)"/><path d="m344.546 11.906c-21.534 0-42.117 3.49-61.026 9.841v267.596c18.91 6.354 39.491 9.848 61.026 9.848 92.482-.001 167.454-64.311 167.454-143.643s-74.972-143.642-167.454-143.642z" fill="url(#SVGID_00000036232871098930929250000017300180932141786500_)"/></g><g><path d="m410.26 133.116h-43.282v-43.282c0-6.331-5.132-11.463-11.463-11.463h-21.939c-6.331 0-11.463 5.132-11.463 11.463v43.282h-43.282c-6.331 0-11.463 5.132-11.463 11.463v21.939c0 6.331 5.132 11.463 11.463 11.463h43.282v43.282c0 6.331 5.132 11.463 11.463 11.463h21.939c6.331 0 11.463-5.132 11.463-11.463v-43.283h43.282c6.331 0 11.463-5.132 11.463-11.463v-21.939c0-6.33-5.132-11.462-11.463-11.462z" fill="url(#SVGID_00000091726825138016508570000013972241203079260036_)"/><path d="m322.114 221.262c0 6.331 5.132 11.463 11.463 11.463h21.939c6.331 0 11.463-5.132 11.463-11.463v-43.282h-44.865z" fill="url(#SVGID_00000181057931257691711480000004386453500451291532_)"/><path d="m421.723 166.517v-21.939c0-6.331-5.132-11.463-11.463-11.463h-43.282v44.865h43.282c6.331 0 11.463-5.132 11.463-11.463z" fill="url(#SVGID_00000000223346708081624560000007600275248867269032_)"/></g></g></svg>