<svg id="_25_Pharmacist" enable-background="new 0 0 512 512" viewBox="0 0 512 512" xmlns="http://www.w3.org/2000/svg" xmlns:xlink="http://www.w3.org/1999/xlink"><linearGradient id="lg1"><stop offset="0" stop-color="#7a6d79"/><stop offset="1" stop-color="#593636"/></linearGradient><linearGradient id="SVGID_1_" gradientTransform="matrix(1 0 0 -1 0 514)" gradientUnits="userSpaceOnUse" x1="125.729" x2="171.353" xlink:href="#lg1" y1="329.824" y2="236.438"/><linearGradient id="SVGID_00000109011540214853063800000001796737242100991396_" gradientTransform="matrix(1 0 0 -1 0 514)" gradientUnits="userSpaceOnUse" x1="325.705" x2="396.279" xlink:href="#lg1" y1="330.379" y2="233.428"/><linearGradient id="lg2"><stop offset="0" stop-color="#593636" stop-opacity="0"/><stop offset="1"/></linearGradient><linearGradient id="SVGID_00000134970589178581960920000016321740144114763658_" gradientTransform="matrix(1 0 0 -1 0 514)" gradientUnits="userSpaceOnUse" x1="95.152" x2="136.499" xlink:href="#lg2" y1="260.235" y2="275.443"/><linearGradient id="SVGID_00000070806327768276885220000000146996517685576111_" gradientTransform="matrix(1 0 0 -1 0 514)" gradientUnits="userSpaceOnUse" x1="135.681" x2="116.196" xlink:href="#lg2" y1="248.137" y2="203.939"/><linearGradient id="SVGID_00000163031969427960401210000005401690023407251617_" gradientTransform="matrix(1 0 0 -1 0 514)" gradientUnits="userSpaceOnUse" x1="409.281" x2="366.509" xlink:href="#lg2" y1="270.41" y2="279.44"/><linearGradient id="SVGID_00000111155135359227512110000003196763548771047334_" gradientTransform="matrix(1 0 0 -1 0 514)" gradientUnits="userSpaceOnUse" x1="370.245" x2="406.364" xlink:href="#lg2" y1="268.487" y2="215.734"/><linearGradient id="lg3"><stop offset="0" stop-color="#c1e9af"/><stop offset=".1072" stop-color="#b6e4aa"/><stop offset=".2935" stop-color="#99d69e"/><stop offset=".5365" stop-color="#6bc18a"/><stop offset=".8238" stop-color="#2ca36f"/><stop offset="1" stop-color="#02905d"/></linearGradient><linearGradient id="SVGID_00000009580233523703481450000013261123640897897623_" gradientTransform="matrix(1 0 0 -1 0 514)" gradientUnits="userSpaceOnUse" x1="206.434" x2="253.484" xlink:href="#lg3" y1="105.191" y2="54.815"/><linearGradient id="lg4"><stop offset="0" stop-color="#026841" stop-opacity="0"/><stop offset=".2182" stop-color="#026841" stop-opacity=".033"/><stop offset=".4099" stop-color="#026841" stop-opacity=".137"/><stop offset=".5916" stop-color="#026841" stop-opacity=".31"/><stop offset=".7671" stop-color="#026841" stop-opacity=".553"/><stop offset=".9367" stop-color="#026841" stop-opacity=".864"/><stop offset="1" stop-color="#026841"/></linearGradient><linearGradient id="SVGID_00000171713661715535447750000007958113577092203169_" gradientTransform="matrix(1 0 0 -1 0 514)" gradientUnits="userSpaceOnUse" x1="257.195" x2="240.086" xlink:href="#lg4" y1="70.622" y2="63.018"/><linearGradient id="SVGID_00000174599625817776800870000016737885646530822793_" gradientTransform="matrix(1 0 0 -1 0 514)" gradientUnits="userSpaceOnUse" x1="292.213" x2="266.074" xlink:href="#lg4" y1="93.118" y2="100.722"/><linearGradient id="lg5"><stop offset="0" stop-color="#fef0ae"/><stop offset="1" stop-color="#fac600"/></linearGradient><linearGradient id="SVGID_00000119810201012146710470000009202801909942740155_" gradientTransform="matrix(1 0 0 -1 0 514)" gradientUnits="userSpaceOnUse" x1="243.099" x2="276.833" xlink:href="#lg5" y1="60.095" y2="60.095"/><linearGradient id="lg6"><stop offset="0" stop-color="#fe9738" stop-opacity="0"/><stop offset=".1648" stop-color="#fe9637" stop-opacity=".012"/><stop offset=".2957" stop-color="#fe9535" stop-opacity=".052"/><stop offset=".415" stop-color="#fe9331" stop-opacity=".118"/><stop offset=".5274" stop-color="#fe902c" stop-opacity=".211"/><stop offset=".635" stop-color="#fe8c25" stop-opacity=".331"/><stop offset=".739" stop-color="#fe871d" stop-opacity=".479"/><stop offset=".8401" stop-color="#fe8213" stop-opacity=".655"/><stop offset=".9364" stop-color="#fe7b09" stop-opacity=".852"/><stop offset="1" stop-color="#fe7701"/></linearGradient><linearGradient id="SVGID_00000069365203198968493690000018044781849716801685_" gradientTransform="matrix(1 0 0 -1 0 514)" gradientUnits="userSpaceOnUse" x1="256" x2="256" xlink:href="#lg6" y1="78.01" y2="108.56"/><linearGradient id="SVGID_00000136387898941106100260000015712620450770615189_" gradientTransform="matrix(1 0 0 -1 0 514)" gradientUnits="userSpaceOnUse" x1="243.218" x2="269.598" xlink:href="#lg5" y1="121.663" y2="121.663"/><linearGradient id="SVGID_00000114057135961048201600000007610561421428525992_" gradientTransform="matrix(1 0 0 -1 0 514)" gradientUnits="userSpaceOnUse" x1="256" x2="256" xlink:href="#lg6" y1="124.347" y2="135.224"/><linearGradient id="SVGID_00000158018479565265860480000008839448555032171677_" gradientTransform="matrix(1 0 0 -1 0 514)" gradientUnits="userSpaceOnUse" x1="256" x2="256" xlink:href="#lg6" y1="114.01" y2="103.115"/><linearGradient id="lg7"><stop offset="0" stop-color="#ffdfcf"/><stop offset="1" stop-color="#ffa78f"/></linearGradient><linearGradient id="SVGID_00000121242996351361237210000003512494306374447240_" gradientTransform="matrix(1 0 0 -1 0 514)" gradientUnits="userSpaceOnUse" x1="233.663" x2="292.119" xlink:href="#lg7" y1="202.002" y2="176.339"/><linearGradient id="lg8"><stop offset="0" stop-color="#f89580" stop-opacity="0"/><stop offset=".1028" stop-color="#f5937e" stop-opacity=".049"/><stop offset=".2747" stop-color="#ee8e79" stop-opacity=".18"/><stop offset=".4946" stop-color="#e38671" stop-opacity=".393"/><stop offset=".7511" stop-color="#d57c65" stop-opacity=".686"/><stop offset=".9972" stop-color="#c5715a"/></linearGradient><linearGradient id="SVGID_00000145778042290495141930000015520474936515670207_" gradientTransform="matrix(1 0 0 -1 0 514)" gradientUnits="userSpaceOnUse" x1="253.823" x2="255.249" xlink:href="#lg8" y1="141.036" y2="174.541"/><linearGradient id="lg9"><stop offset="0" stop-color="#f3faff"/><stop offset="1" stop-color="#d5daf3"/></linearGradient><linearGradient id="SVGID_00000021802155174521034730000012406108937715071643_" gradientTransform="matrix(1 0 0 -1 0 514)" gradientUnits="userSpaceOnUse" x1="300.228" x2="379.357" xlink:href="#lg9" y1="103.354" y2="18.522"/><linearGradient id="lg10"><stop offset="0" stop-color="#dbd5ef" stop-opacity="0"/><stop offset=".2667" stop-color="#d8d2ec" stop-opacity=".023"/><stop offset=".4431" stop-color="#d1c9e2" stop-opacity=".098"/><stop offset=".5933" stop-color="#c4b9d1" stop-opacity=".225"/><stop offset=".7288" stop-color="#b2a4ba" stop-opacity=".405"/><stop offset=".8545" stop-color="#9a889c" stop-opacity=".638"/><stop offset=".9713" stop-color="#7e6678" stop-opacity=".92"/><stop offset="1" stop-color="#765d6e"/></linearGradient><linearGradient id="SVGID_00000078731516535820865390000008638785525588406926_" gradientTransform="matrix(1 0 0 -1 0 514)" gradientUnits="userSpaceOnUse" x1="391.02" x2="458.926" xlink:href="#lg10" y1="87.824" y2="87.824"/><linearGradient id="SVGID_00000099659798757872411140000015376682870450675342_" gradientTransform="matrix(-1 0 0 -1 -3574.753 514)" gradientUnits="userSpaceOnUse" x1="-3913.929" x2="-3869.018" xlink:href="#lg10" y1="77.78" y2="91.325"/><linearGradient id="SVGID_00000025437621273580673860000004631436182371949698_" gradientTransform="matrix(-1 0 0 -1 -3574.753 514)" gradientUnits="userSpaceOnUse" x1="-3924.85" x2="-3924.85" xlink:href="#lg10" y1="35.594" y2="-1.874"/><linearGradient id="SVGID_00000008828793358415557620000000532764935041255849_" gradientTransform="matrix(1 0 0 -1 0 514)" gradientUnits="userSpaceOnUse" x1="285.762" x2="317.129" xlink:href="#lg9" y1="91.882" y2="79.05"/><linearGradient id="SVGID_00000122693783782559104760000011059652157317513651_" gradientTransform="matrix(1 0 0 -1 0 514)" gradientUnits="userSpaceOnUse" x1="348.91" x2="314.336" xlink:href="#lg10" y1="128.489" y2="141.32"/><linearGradient id="SVGID_00000176758856478656220190000003598097834423532945_" gradientTransform="matrix(1 0 0 -1 0 514)" gradientUnits="userSpaceOnUse" x1="281.767" x2="255.034" xlink:href="#lg10" y1="46.998" y2="30.245"/><linearGradient id="SVGID_00000146479268073350449150000013035938815565540491_" gradientTransform="matrix(1 0 0 -1 0 514)" gradientUnits="userSpaceOnUse" x1="115.322" x2="252.193" xlink:href="#lg9" y1="105.571" y2="14.799"/><linearGradient id="SVGID_00000057844293951899563780000005717721570972738470_" gradientTransform="matrix(1 0 0 -1 0 514)" gradientUnits="userSpaceOnUse" x1="172.824" x2="217.735" xlink:href="#lg10" y1="77.78" y2="91.325"/><linearGradient id="SVGID_00000030478171423026163120000001235452145828922303_" gradientTransform="matrix(1 0 0 -1 0 514)" gradientUnits="userSpaceOnUse" x1="161.904" x2="161.904" xlink:href="#lg10" y1="35.594" y2="-1.874"/><linearGradient id="SVGID_00000062187918578856878820000005088839216639986109_" gradientTransform="matrix(1 0 0 -1 0 514)" gradientUnits="userSpaceOnUse" x1="197.647" x2="229.488" xlink:href="#lg9" y1="82.139" y2="93.069"/><linearGradient id="SVGID_00000024709045181425288580000001732137627707026307_" gradientTransform="matrix(1 0 0 -1 0 514)" gradientUnits="userSpaceOnUse" x1="224.95" x2="208.911" xlink:href="#lg10" y1="102.607" y2="120.428"/><linearGradient id="SVGID_00000019652652063402805330000006385890904275769521_" gradientTransform="matrix(1 0 0 -1 0 514)" gradientUnits="userSpaceOnUse" x1="237.598" x2="237.598" xlink:href="#lg10" y1="25.257" y2=".102"/><linearGradient id="SVGID_00000165223290036715837300000003162546649910086021_" gradientTransform="matrix(1 0 0 -1 0 514)" gradientUnits="userSpaceOnUse" x1="224.441" x2="195.926" xlink:href="#lg3" y1="165.958" y2="121.403"/><linearGradient id="SVGID_00000153689586387292410730000009831959079507015585_" gradientTransform="matrix(1 0 0 -1 0 514)" gradientUnits="userSpaceOnUse" x1="220.371" x2="233.559" xlink:href="#lg4" y1="159.824" y2="168.735"/><linearGradient id="SVGID_00000011000358161178178510000016271377211343437454_" gradientTransform="matrix(-1 0 0 -1 -3721.024 514)" gradientUnits="userSpaceOnUse" x1="-4008.584" x2="-4037.098" xlink:href="#lg3" y1="165.958" y2="121.403"/><linearGradient id="SVGID_00000175310328527103243810000010246393248051107758_" gradientTransform="matrix(1 0 0 -1 0 514)" gradientUnits="userSpaceOnUse" x1="293.974" x2="285.42" xlink:href="#lg4" y1="153.806" y2="176.618"/><linearGradient id="SVGID_00000163033240663230016310000012123823308528312724_" gradientTransform="matrix(1 0 0 -1 0 514)" gradientUnits="userSpaceOnUse" x1="300.356" x2="326.495" xlink:href="#lg4" y1="155.359" y2="148.706"/><linearGradient id="SVGID_00000084521656889037653930000007713830466078505660_" gradientTransform="matrix(1 0 0 -1 0 514)" gradientUnits="userSpaceOnUse" x1="115.355" x2="151.843" xlink:href="#lg7" y1="322.313" y2="285.825"/><linearGradient id="SVGID_00000141430445625557977320000004276759702087372447_" gradientTransform="matrix(1 0 0 -1 0 514)" gradientUnits="userSpaceOnUse" x1="350.487" x2="401.546" xlink:href="#lg7" y1="329.244" y2="278.185"/><linearGradient id="SVGID_00000163056901003281073430000010170692398726752669_" gradientTransform="matrix(1 0 0 -1 0 514)" gradientUnits="userSpaceOnUse" x1="247.385" x2="360.467" xlink:href="#lg7" y1="326.276" y2="213.195"/><linearGradient id="SVGID_00000158721703857910079730000006069367567894927497_" gradientTransform="matrix(1 0 0 -1 0 514)" gradientUnits="userSpaceOnUse" x1="310.394" x2="382.429" xlink:href="#lg8" y1="317.661" y2="317.661"/><linearGradient id="SVGID_00000074406923051903508520000009771475438705077393_" gradientTransform="matrix(1 0 0 -1 0 514)" gradientUnits="userSpaceOnUse" x1="256" x2="256" xlink:href="#lg8" y1="213.296" y2="149.733"/><linearGradient id="lg11"><stop offset="0" stop-color="#c4573a" stop-opacity="0"/><stop offset=".1393" stop-color="#c15539" stop-opacity=".044"/><stop offset=".3244" stop-color="#b95237" stop-opacity=".167"/><stop offset=".5354" stop-color="#ad4e35" stop-opacity=".37"/><stop offset=".7654" stop-color="#9c4732" stop-opacity=".654"/><stop offset="1" stop-color="#883f2e"/></linearGradient><linearGradient id="SVGID_00000023970513053554783590000015027388350738207361_" gradientTransform="matrix(1 0 0 -1 0 514)" gradientUnits="userSpaceOnUse" x1="256" x2="256" xlink:href="#lg11" y1="282.341" y2="240.297"/><linearGradient id="SVGID_00000057858191117293317810000005579280340820100528_" gradientTransform="matrix(1 0 0 -1 0 514)" gradientUnits="userSpaceOnUse" x1="263.256" x2="288.063" xlink:href="#lg11" y1="277.317" y2="271.283"/><linearGradient id="SVGID_00000134241761211577145330000009871363506245005185_" gradientTransform="matrix(-1 0 0 -1 -3842 514)" gradientUnits="userSpaceOnUse" x1="-4090.744" x2="-4065.937" y1="277.317" y2="271.283"><stop offset="0" stop-color="#ffddcd" stop-opacity="0"/><stop offset=".0886" stop-color="#ffddcd" stop-opacity=".027"/><stop offset=".2159" stop-color="#ffddcd" stop-opacity=".101"/><stop offset=".3664" stop-color="#ffddcd" stop-opacity=".223"/><stop offset=".5348" stop-color="#ffddcd" stop-opacity=".393"/><stop offset=".718" stop-color="#ffddcd" stop-opacity=".612"/><stop offset=".9108" stop-color="#ffddcd" stop-opacity=".873"/><stop offset=".9972" stop-color="#ffddcd"/></linearGradient><linearGradient id="SVGID_00000011724368222107240840000004277282782106279853_" gradientTransform="matrix(1 0 0 -1 0 514)" gradientUnits="userSpaceOnUse" x1="164.522" x2="202.271" xlink:href="#lg1" y1="339.443" y2="301.695"/><linearGradient id="SVGID_00000032622279069713316410000007445671277600989327_" gradientTransform="matrix(1 0 0 -1 0 514)" gradientUnits="userSpaceOnUse" x1="287.821" x2="314.84" xlink:href="#lg1" y1="330.148" y2="303.129"/><linearGradient id="lg12"><stop offset="0" stop-color="#fff" stop-opacity="0"/><stop offset=".0868" stop-color="#fff" stop-opacity=".029"/><stop offset=".217" stop-color="#fff" stop-opacity=".109"/><stop offset=".3743" stop-color="#fff" stop-opacity=".241"/><stop offset=".5527" stop-color="#fff" stop-opacity=".424"/><stop offset=".7491" stop-color="#fff" stop-opacity=".658"/><stop offset=".9573" stop-color="#fff" stop-opacity=".939"/><stop offset="1" stop-color="#fff"/></linearGradient><linearGradient id="SVGID_00000143605843257726699840000002667546712458133161_" gradientTransform="matrix(1 0 0 -1 0 514)" gradientUnits="userSpaceOnUse" x1="231.117" x2="186.527" xlink:href="#lg12" y1="215.834" y2="307.639"/><linearGradient id="SVGID_00000168798876491475533250000009542126335670066111_" gradientTransform="matrix(1 0 0 -1 0 514)" gradientUnits="userSpaceOnUse" x1="351.055" x2="306.464" xlink:href="#lg12" y1="215.834" y2="307.639"/><linearGradient id="SVGID_00000018217160470752262940000001329013119710380955_" gradientTransform="matrix(1 0 0 -1 0 514)" gradientUnits="userSpaceOnUse" x1="196.031" x2="196.031" xlink:href="#lg12" y1="278.683" y2="266.564"/><linearGradient id="SVGID_00000169552870980810497500000013759588982813296268_" gradientTransform="matrix(1 0 0 -1 0 514)" gradientUnits="userSpaceOnUse" x1="315.969" x2="315.969" xlink:href="#lg12" y1="278.683" y2="266.564"/><linearGradient id="SVGID_00000075163002725672237340000010689021844144707225_" gradientTransform="matrix(1 0 0 -1 0 514)" gradientUnits="userSpaceOnUse" x1="212.723" x2="230.545" xlink:href="#lg12" y1="288.07" y2="288.07"/><linearGradient id="SVGID_00000148631527404348820020000018429929951471375543_" gradientTransform="matrix(1 0 0 -1 0 514)" gradientUnits="userSpaceOnUse" x1="338.188" x2="350.669" xlink:href="#lg12" y1="288.07" y2="288.07"/><linearGradient id="SVGID_00000093142343201459784330000017524873755801401226_" gradientTransform="matrix(1 0 0 -1 0 514)" gradientUnits="userSpaceOnUse" x1="256" x2="256" y1="312.72" y2="296.93"><stop offset="0" stop-color="#e5caf3"/><stop offset=".1585" stop-color="#ddbfee"/><stop offset=".4338" stop-color="#caa2e0"/><stop offset=".7905" stop-color="#ac75cb"/><stop offset="1" stop-color="#9857bd"/></linearGradient><linearGradient id="SVGID_00000000930415422314439370000014072321798703164081_" gradientTransform="matrix(1 0 0 -1 0 514)" gradientUnits="userSpaceOnUse" x1="113.691" x2="147.97" xlink:href="#lg1" y1="401.196" y2="366.171"/><linearGradient id="SVGID_00000180349313276518124120000012255388162016650143_" gradientTransform="matrix(1 0 0 -1 0 514)" gradientUnits="userSpaceOnUse" x1="125.77" x2="159.305" xlink:href="#lg2" y1="387.569" y2="363.721"/><linearGradient id="SVGID_00000069373666915538674200000015922400310675254454_" gradientTransform="matrix(1 0 0 -1 0 514)" gradientUnits="userSpaceOnUse" x1="243.985" x2="293.173" xlink:href="#lg1" y1="487.415" y2="352.682"/><linearGradient id="SVGID_00000078756077625426404710000000203522765850028686_" gradientTransform="matrix(1 0 0 -1 0 514)" gradientUnits="userSpaceOnUse" x1="267.268" x2="267.268" xlink:href="#lg2" y1="396.545" y2="339.483"/><linearGradient id="SVGID_00000030457169561614975280000008554599659550729109_" gradientTransform="matrix(1 0 0 -1 0 514)" gradientUnits="userSpaceOnUse" x1="337.54" x2="400.748" xlink:href="#lg2" y1="420.167" y2="413.039"/><g><g><circle cx="149.89" cy="233.632" fill="url(#SVGID_1_)" r="85.188"/><circle cx="362.11" cy="233.632" fill="url(#SVGID_00000109011540214853063800000001796737242100991396_)" r="85.188"/></g><g><circle cx="149.89" cy="233.632" fill="url(#SVGID_00000134970589178581960920000016321740144114763658_)" r="85.188"/><circle cx="149.89" cy="233.632" fill="url(#SVGID_00000070806327768276885220000000146996517685576111_)" r="85.188"/><circle cx="362.11" cy="233.632" fill="url(#SVGID_00000163031969427960401210000005401690023407251617_)" r="85.188"/><circle cx="362.11" cy="233.632" fill="url(#SVGID_00000111155135359227512110000003196763548771047334_)" r="85.188"/></g><g><path d="m452.512 490.642c0 4.501-1.743 8.58-4.565 11.531s-6.722 4.774-11.026 4.774h-361.843c-8.607 0-15.591-7.293-15.591-16.306 0-43.505 16.865-82.874 44.114-111.384 27.259-28.51 64.912-46.137 106.498-46.137h91.801c83.183.001 150.612 70.523 150.612 157.522z" fill="url(#SVGID_00000009580233523703481450000013261123640897897623_)"/><path d="m452.512 490.642c0 4.501-1.743 8.58-4.565 11.531s-6.722 4.774-11.026 4.774h-361.843c-8.607 0-15.591-7.293-15.591-16.306 0-43.505 16.865-82.874 44.114-111.384 27.259-28.51 64.912-46.137 106.498-46.137h91.801c83.183.001 150.612 70.523 150.612 157.522z" fill="url(#SVGID_00000171713661715535447750000007958113577092203169_)"/><path d="m452.51 490.64c0 4.5-1.74 8.58-4.56 11.53s-6.72 4.78-11.03 4.78h-180.92v-173.83h45.9c83.18 0 150.61 70.52 150.61 157.52z" fill="url(#SVGID_00000174599625817776800870000016737885646530822793_)"/><path d="m268.188 400.863h-24.376l-19.248 106.085h31.436 31.436z" fill="url(#SVGID_00000119810201012146710470000009202801909942740155_)"/><path d="m276.825 448.465-8.637-47.602h-24.376l-8.637 47.602z" fill="url(#SVGID_00000069365203198968493690000018044781849716801685_)"/><g><path d="m256 381.925-31.436-6.885 11.678 23.834c2.548 5.199 7.363 8.923 13.036 10.081 4.436.905 9.008.905 13.444 0 5.673-1.158 10.488-4.882 13.036-10.081l11.678-23.834z" fill="url(#SVGID_00000136387898941106100260000015712620450770615189_)"/><path d="m256 381.925-31.436-6.885 11.678 23.834c2.548 5.199 7.363 8.923 13.036 10.081 4.436.905 9.008.905 13.444 0 5.673-1.158 10.488-4.882 13.036-10.081l11.678-23.834z" fill="url(#SVGID_00000114057135961048201600000007610561421428525992_)"/><path d="m256 381.925-31.436-6.885 11.678 23.834c2.548 5.199 7.363 8.923 13.036 10.081 4.436.905 9.008.905 13.444 0 5.673-1.158 10.488-4.882 13.036-10.081l11.678-23.834z" fill="url(#SVGID_00000158018479565265860480000008839448555032171677_)"/></g><g><path d="m256 261.683c26.428 0 47.852 21.424 47.852 47.851v24.539c0 26.428-21.424 47.851-47.851 47.851-26.428 0-47.851-21.424-47.851-47.851v-24.539c-.001-26.427 21.422-47.851 47.85-47.851z" fill="url(#SVGID_00000121242996351361237210000003512494306374447240_)"/><path d="m256 261.683c26.428 0 47.852 21.424 47.852 47.851v24.539c0 26.428-21.424 47.851-47.851 47.851-26.428 0-47.851-21.424-47.851-47.851v-24.539c-.001-26.427 21.422-47.851 47.85-47.851z" fill="url(#SVGID_00000145778042290495141930000015520474936515670207_)"/></g><g><g><path d="m286.904 414.722-34.229 69.501c-3.116 6.328-5.679 12.913-7.661 19.682-1.184 4.046 1.849 8.094 6.065 8.094h190.769c7.505 0 13.589-6.084 13.589-13.589v-20.362c0-81.301-65.907-147.208-147.208-147.208-1.175 29.144-8.439 57.717-21.325 83.882z" fill="url(#SVGID_00000021802155174521034730000012406108937715071643_)"/><path d="m360.366 340.353v171.647h81.482c7.505 0 13.589-6.084 13.589-13.589v-20.362c0-62.941-39.506-116.646-95.071-137.696z" fill="url(#SVGID_00000078731516535820865390000008638785525588406926_)"/><path d="m245.014 503.906c1.981-6.769 4.544-13.355 7.661-19.682l34.229-69.501c12.886-26.165 20.15-54.738 21.326-83.88 31.745 0 61.144 10.049 85.188 27.139v154.018h-142.339c-4.215 0-7.249-4.049-6.065-8.094z" fill="url(#SVGID_00000099659798757872411140000015376682870450675342_)"/><path d="m455.437 478.049v20.362c0 7.505-6.084 13.589-13.589 13.589h-190.769c-4.215 0-7.249-4.049-6.065-8.094 1.981-6.769 4.544-13.355 7.661-19.682l21.824-44.313h175.939c3.254 12.165 4.999 24.947 4.999 38.138z" fill="url(#SVGID_00000025437621273580673860000004631436182371949698_)"/><path d="m243.014 505.935v-2.03c1.981-6.769 4.544-13.355 7.661-19.682l34.229-69.501c12.886-26.165 20.15-54.738 21.326-83.88 5.467 0 10.862.308 16.175.888l22.605 78.915c1.547 5.399-2.507 10.776-8.123 10.776h-12.264c-2.941 0-5.324 2.384-5.324 5.324v15.254c0 6.052-2.179 11.903-6.138 16.48l-41.993 48.55c-2.73 3.157-6.698 4.971-10.872 4.971h-11.217c-3.35 0-6.065-2.715-6.065-6.065z" fill="url(#SVGID_00000008828793358415557620000000532764935041255849_)"/><path d="m345.01 410.645-22.605-78.915c-5.313-.581-10.708-.888-16.175-.888-.174 4.321-.499 8.627-.939 12.917v55.692l21.971 21.971h9.626c5.615-.001 9.668-5.378 8.122-10.777z" fill="url(#SVGID_00000122693783782559104760000011059652157317513651_)"/><path d="m273.376 438.129-22.701 46.095c-3.116 6.328-5.679 12.913-7.661 19.682v2.03c0 3.349 2.715 6.065 6.065 6.065h11.217c4.174 0 8.141-1.814 10.872-4.971l41.993-48.55c3.959-4.578 6.138-10.428 6.138-16.48v-3.87h-45.923z" fill="url(#SVGID_00000176758856478656220190000003598097834423532945_)"/></g><g><path d="m225.096 414.722 34.229 69.501c3.116 6.328 5.679 12.913 7.661 19.682 1.184 4.046-1.849 8.094-6.065 8.094h-190.769c-7.505 0-13.589-6.084-13.589-13.589v-20.362c0-81.301 65.907-147.208 147.208-147.208 1.175 29.144 8.439 57.717 21.325 83.882z" fill="url(#SVGID_00000146479268073350449150000013035938815565540491_)"/><path d="m266.986 503.906c-1.981-6.769-4.544-13.355-7.661-19.682l-34.229-69.501c-12.886-26.165-20.15-54.738-21.326-83.88-31.745 0-61.144 10.049-85.188 27.139v154.018h142.339c4.215 0 7.249-4.049 6.065-8.094z" fill="url(#SVGID_00000057844293951899563780000005717721570972738470_)"/><path d="m56.563 478.049v20.362c0 7.505 6.084 13.589 13.589 13.589h190.769c4.215 0 7.249-4.049 6.065-8.094-1.981-6.769-4.544-13.355-7.661-19.682l-21.824-44.313h-175.939c-3.254 12.165-4.999 24.947-4.999 38.138z" fill="url(#SVGID_00000030478171423026163120000001235452145828922303_)"/><path d="m268.986 505.935v-2.03c-1.981-6.769-4.544-13.355-7.661-19.682l-34.229-69.501c-12.886-26.165-20.15-54.738-21.326-83.88-5.467 0-10.862.308-16.175.888l-22.605 78.915c-1.546 5.399 2.507 10.776 8.123 10.776h12.264c2.941 0 5.324 2.384 5.324 5.324v15.254c0 6.052 2.179 11.903 6.138 16.48l41.993 48.55c2.73 3.157 6.698 4.971 10.872 4.971h11.217c3.35 0 6.065-2.715 6.065-6.065z" fill="url(#SVGID_00000062187918578856878820000005088839216639986109_)"/><path d="m237.893 436.646-10.797-21.924c-4.58-9.299-8.435-18.906-11.573-28.731l-14.142 14.142z" fill="url(#SVGID_00000024709045181425288580000001732137627707026307_)"/><path d="m240.833 507.029c2.73 3.157 6.698 4.971 10.872 4.971h11.217c3.349 0 6.065-2.715 6.065-6.065v-2.03c-1.981-6.769-4.544-13.355-7.661-19.682l-8.483-17.223h-46.633z" fill="url(#SVGID_00000019652652063402805330000006385890904275769521_)"/></g></g><g><path d="m256 381.925-51.396-60.121-14.673 2.087c-4.683.666-7.748 5.253-6.571 9.834l16.478 64.158c.802 3.122 4.796 4.033 6.872 1.567 9.357-11.111 23.142-17.525 37.669-17.525z" fill="url(#SVGID_00000165223290036715837300000003162546649910086021_)"/><path d="m256 381.925-51.396-60.121-14.673 2.087c-4.683.666-7.748 5.253-6.571 9.834l16.478 64.158c.802 3.122 4.796 4.033 6.872 1.567 9.357-11.111 23.142-17.525 37.669-17.525z" fill="url(#SVGID_00000153689586387292410730000009831959079507015585_)"/><path d="m256 381.925 51.396-60.121 14.673 2.087c4.683.666 7.748 5.253 6.571 9.834l-16.478 64.158c-.802 3.122-4.796 4.033-6.872 1.567-9.357-11.111-23.142-17.525-37.669-17.525z" fill="url(#SVGID_00000011000358161178178510000016271377211343437454_)"/><path d="m256 381.925 51.396-60.121 14.673 2.087c4.683.666 7.748 5.253 6.571 9.834l-16.478 64.158c-.802 3.122-4.796 4.033-6.872 1.567-9.357-11.111-23.142-17.525-37.669-17.525z" fill="url(#SVGID_00000175310328527103243810000010246393248051107758_)"/><path d="m256 381.925 51.396-60.121 14.673 2.087c4.683.666 7.748 5.253 6.571 9.834l-16.478 64.158c-.802 3.122-4.796 4.033-6.872 1.567-9.357-11.111-23.142-17.525-37.669-17.525z" fill="url(#SVGID_00000163033240663230016310000012123823308528312724_)"/></g><g><path d="m102.006 211.3c0-21.454 14.892-39.429 34.903-44.153 5.349-1.263 10.462 2.874 10.462 8.37v71.566c0 5.496-5.113 9.632-10.462 8.37-20.011-4.723-34.903-22.699-34.903-44.153z" fill="url(#SVGID_00000084521656889037653930000007713830466078505660_)"/><path d="m409.994 211.3c0-21.454-14.892-39.429-34.903-44.153-5.349-1.263-10.462 2.874-10.462 8.37v71.566c0 5.496 5.113 9.632 10.462 8.37 20.011-4.723 34.903-22.699 34.903-44.153z" fill="url(#SVGID_00000141430445625557977320000004276759702087372447_)"/></g><g><path d="m256 44.343c66.813 0 120.976 54.163 120.976 120.976v62.039c0 66.813-54.163 120.976-120.976 120.976-66.813 0-120.976-54.163-120.976-120.976v-62.039c0-66.813 54.163-120.976 120.976-120.976z" fill="url(#SVGID_00000163056901003281073430000010170692398726752669_)"/><path d="m256 44.343v303.991c66.813 0 120.976-54.163 120.976-120.976v-62.039c0-66.813-54.163-120.976-120.976-120.976z" fill="url(#SVGID_00000158721703857910079730000006069367567894927497_)"/><path d="m137.401 251.318c11.118 55.336 59.989 97.016 118.599 97.016 58.61 0 107.481-41.681 118.599-97.016z" fill="url(#SVGID_00000074406923051903508520000009771475438705077393_)"/><g><path d="m262.683 267.096h-13.366c-11.139 0-19.573-10.066-17.622-21.033l6.28-35.302c.8-4.496 4.709-7.771 9.276-7.771h17.5c4.567 0 8.476 3.275 9.276 7.771l6.28 35.302c1.949 10.967-6.484 21.033-17.624 21.033z" fill="url(#SVGID_00000023970513053554783590000015027388350738207361_)"/><path d="m262.683 267.096h-13.366c-11.139 0-19.573-10.066-17.622-21.033l6.28-35.302c.8-4.496 4.709-7.771 9.276-7.771h17.5c4.567 0 8.476 3.275 9.276 7.771l6.28 35.302c1.949 10.967-6.484 21.033-17.624 21.033z" fill="url(#SVGID_00000057858191117293317810000005579280340820100528_)"/><path d="m249.317 267.096h13.366c11.139 0 19.573-10.066 17.622-21.033l-6.28-35.302c-.8-4.496-4.709-7.771-9.276-7.771h-17.5c-4.567 0-8.476 3.275-9.276 7.771l-6.28 35.302c-1.949 10.967 6.484 21.033 17.624 21.033z" fill="url(#SVGID_00000134241761211577145330000009871363506245005185_)"/></g></g><g><path d="m198.998 231.452c-9.855 0-17.844-7.989-17.844-17.844v-9.151c0-9.855 7.989-17.844 17.844-17.844 9.855 0 17.844 7.989 17.844 17.844v9.151c0 9.855-7.989 17.844-17.844 17.844z" fill="url(#SVGID_00000011724368222107240840000004277282782106279853_)"/><path d="m313.002 231.452c-9.855 0-17.844-7.989-17.844-17.844v-9.151c0-9.855 7.989-17.844 17.844-17.844 9.855 0 17.844 7.989 17.844 17.844v9.151c0 9.855-7.989 17.844-17.844 17.844z" fill="url(#SVGID_00000032622279069713316410000007445671277600989327_)"/></g></g><g><g><path d="m174.483 203.216h43.097c7.927 0 14.354 6.426 14.354 14.354v16.722c0 7.927-6.426 14.354-14.354 14.354h-43.097c-7.927 0-14.354-6.426-14.354-14.354v-16.722c0-7.928 6.427-14.354 14.354-14.354z" fill="url(#SVGID_00000143605843257726699840000002667546712458133161_)"/><path d="m294.42 203.216h43.097c7.927 0 14.354 6.426 14.354 14.354v16.722c0 7.927-6.426 14.354-14.354 14.354h-43.097c-7.927 0-14.354-6.426-14.354-14.354v-16.722c0-7.928 6.427-14.354 14.354-14.354z" fill="url(#SVGID_00000168798876491475533250000009542126335670066111_)"/></g><g><path d="m174.483 203.216h43.097c7.927 0 14.354 6.426 14.354 14.354v16.722c0 7.927-6.426 14.354-14.354 14.354h-43.097c-7.927 0-14.354-6.426-14.354-14.354v-16.722c0-7.928 6.427-14.354 14.354-14.354z" fill="url(#SVGID_00000018217160470752262940000001329013119710380955_)"/><path d="m294.42 203.216h43.097c7.927 0 14.354 6.426 14.354 14.354v16.722c0 7.927-6.426 14.354-14.354 14.354h-43.097c-7.927 0-14.354-6.426-14.354-14.354v-16.722c0-7.928 6.427-14.354 14.354-14.354z" fill="url(#SVGID_00000169552870980810497500000013759588982813296268_)"/></g><g><path d="m174.483 203.216h43.097c7.927 0 14.354 6.426 14.354 14.354v16.722c0 7.927-6.426 14.354-14.354 14.354h-43.097c-7.927 0-14.354-6.426-14.354-14.354v-16.722c0-7.928 6.427-14.354 14.354-14.354z" fill="url(#SVGID_00000075163002725672237340000010689021844144707225_)"/><path d="m294.42 203.216h43.097c7.927 0 14.354 6.426 14.354 14.354v16.722c0 7.927-6.426 14.354-14.354 14.354h-43.097c-7.927 0-14.354-6.426-14.354-14.354v-16.722c0-7.928 6.427-14.354 14.354-14.354z" fill="url(#SVGID_00000148631527404348820020000018429929951471375543_)"/></g><path d="m229.134 222.776c1.524 0 2.996-.613 4.018-1.744 5.499-6.083 13.691-9.963 22.848-9.963s17.349 3.88 22.848 9.963c1.022 1.13 2.494 1.744 4.018 1.744 4.725 0 7.366-5.623 4.202-9.132-7.522-8.345-18.649-13.644-31.068-13.644s-23.546 5.299-31.068 13.643c-3.164 3.51-.523 9.133 4.202 9.133z" fill="url(#SVGID_00000093142343201459784330000017524873755801401226_)"/></g><g><path d="m164.251 104.92s-2.551 47.912-26.987 72.272c-7.291 7.268-19.21 7.227-26.162-.365-5.772-6.303-10.941-17.277-10.941-36.367 0-62.014 35.771-94.181 64.09-35.54z" fill="url(#SVGID_00000000930415422314439370000014072321798703164081_)"/><path d="m164.251 104.92s-2.551 47.912-26.987 72.272c-7.291 7.268-19.21 7.227-26.162-.365-5.772-6.303-10.941-17.277-10.941-36.367 0-62.014 35.771-94.181 64.09-35.54z" fill="url(#SVGID_00000180349313276518124120000012255388162016650143_)"/><path d="m389.715 164.21-1.839.973c-10.174 5.383-21.917 4.915-32.043-.579-4.696-2.548-9.889-3.899-15.179-3.899-3.12 0-6.28.466-9.39 1.443-74.04 23.191-128.94 3.208-164.25-20.76-35.73-24.268-38.68-81.207-5.3-109.294 20.971-17.651 51.601-32.094 95.691-32.094 39.16 0 68.52 7.804 90.18 18.007 33.76 15.92 53.13 55.641 47 95.872l-.13.822c-1.77 11.645-1.31 23.58 1.35 35.014 1.359 5.827-1.195 11.905-6.09 14.495z" fill="url(#SVGID_00000069373666915538674200000015922400310675254454_)"/><path d="m167.015 141.388c35.31 23.968 90.21 43.951 164.25 20.76 3.11-.977 6.27-1.443 9.39-1.443 5.29 0 10.482 1.352 15.179 3.899 10.126 5.494 21.869 5.962 32.043.579l1.839-.973c4.895-2.59 7.448-8.668 6.09-14.496-2.66-11.434-3.12-23.369-1.35-35.014l.13-.822c2.548-16.723.677-33.352-4.789-48.225h-249c-7.26 27.431 1.846 59.182 26.218 75.735z" fill="url(#SVGID_00000078756077625426404710000000203522765850028686_)"/><path d="m395.805 149.714c-2.66-11.434-3.12-23.369-1.35-35.014l.13-.822c6.13-40.232-13.24-79.953-47-95.872-19.805-9.328-46.054-16.648-80.341-17.834v172.263c19.447.013 40.792-3.011 64.021-10.287 3.11-.977 6.27-1.443 9.39-1.443 5.29 0 10.482 1.352 15.179 3.899 10.126 5.494 21.869 5.962 32.043.579l1.839-.973c4.894-2.59 7.448-8.668 6.089-14.496z" fill="url(#SVGID_00000030457169561614975280000008554599659550729109_)"/></g></g></svg>