<svg id="_26_Basket" enable-background="new 0 0 512 512" viewBox="0 0 512 512" xmlns="http://www.w3.org/2000/svg" xmlns:xlink="http://www.w3.org/1999/xlink"><linearGradient id="lg1"><stop offset="0" stop-color="#7a6d79"/><stop offset="1" stop-color="#593636"/></linearGradient><linearGradient id="SVGID_1_" gradientTransform="matrix(1 0 0 -1 0 514)" gradientUnits="userSpaceOnUse" x1="256" x2="256" xlink:href="#lg1" y1="480.42" y2="216.735"/><linearGradient id="lg2"><stop offset="0" stop-color="#593636" stop-opacity="0"/><stop offset="1"/></linearGradient><linearGradient id="SVGID_00000178196883856075267280000006889375234618854047_" gradientTransform="matrix(1 0 0 -1 0 514)" gradientUnits="userSpaceOnUse" x1="256" x2="256" xlink:href="#lg2" y1="308.109" y2="252.249"/><linearGradient id="SVGID_00000063621896068412779130000018405016325088719768_" gradientTransform="matrix(1 0 0 -1 0 514)" gradientUnits="userSpaceOnUse" x1="429.158" x2="468.023" xlink:href="#lg2" y1="346.733" y2="346.733"/><linearGradient id="SVGID_00000140005744035551073040000005868877868878231736_" gradientTransform="matrix(1 0 0 -1 0 514)" gradientUnits="userSpaceOnUse" x1="367.139" x2="323.888" xlink:href="#lg2" y1="346.733" y2="346.733"/><linearGradient id="SVGID_00000013165517177043542210000002239083118232527777_" gradientTransform="matrix(1 0 0 -1 0 514)" gradientUnits="userSpaceOnUse" x1="256" x2="256" xlink:href="#lg1" y1="497.201" y2="455.919"/><linearGradient id="SVGID_00000028300069457836783670000017713479270530971550_" gradientTransform="matrix(1 0 0 -1 0 514)" gradientUnits="userSpaceOnUse" x1="306.678" x2="340.09" xlink:href="#lg2" y1="482.812" y2="482.812"/><linearGradient id="SVGID_00000062170638848575212040000017650817582508522670_" gradientTransform="matrix(1 0 0 -1 0 514)" gradientUnits="userSpaceOnUse" x1="256" x2="256" xlink:href="#lg2" y1="477.906" y2="450.37"/><linearGradient id="lg3"><stop offset="0" stop-color="#99e6fc"/><stop offset=".1325" stop-color="#8ee1fb"/><stop offset=".3627" stop-color="#71d5f9"/><stop offset=".6631" stop-color="#43c2f5"/><stop offset="1" stop-color="#08a9f1"/></linearGradient><linearGradient id="SVGID_00000044168776984517695980000015553608806053420970_" gradientTransform="matrix(.707 -.707 -.707 -.707 449.298 538.742)" gradientUnits="userSpaceOnUse" x1="172.78" x2="172.78" xlink:href="#lg3" y1="358.709" y2="314.524"/><linearGradient id="lg4"><stop offset="0" stop-color="#2740b0" stop-opacity="0"/><stop offset=".1646" stop-color="#263fae" stop-opacity=".036"/><stop offset=".3472" stop-color="#243ca8" stop-opacity=".143"/><stop offset=".5386" stop-color="#22389f" stop-opacity=".321"/><stop offset=".7359" stop-color="#1f3392" stop-opacity=".569"/><stop offset=".9359" stop-color="#1a2c82" stop-opacity=".885"/><stop offset="1" stop-color="#192a7d"/></linearGradient><linearGradient id="SVGID_00000092418672599917189880000004065033450467681471_" gradientTransform="matrix(1 0 0 -1 0 514)" gradientUnits="userSpaceOnUse" x1="324.202" x2="373.702" xlink:href="#lg4" y1="344.702" y2="295.202"/><linearGradient id="SVGID_00000183944177226983056890000001694093665493584560_" gradientTransform="matrix(1 0 0 -1 0 514)" gradientUnits="userSpaceOnUse" x1="347" x2="406.62" xlink:href="#lg4" y1="339.376" y2="339.376"/><linearGradient id="SVGID_00000083058409745981735480000009219569390070572733_" gradientTransform="matrix(1 0 0 -1 0 514)" gradientUnits="userSpaceOnUse" x1="319.145" x2="292.145" xlink:href="#lg4" y1="319.539" y2="312.289"/><linearGradient id="lg5"><stop offset="0" stop-color="#f3faff"/><stop offset="1" stop-color="#d5daf3"/></linearGradient><linearGradient id="SVGID_00000003096450793713940600000007206130117906227637_" gradientTransform="matrix(.707 -.707 -.707 -.707 449.298 538.742)" gradientUnits="userSpaceOnUse" x1="76.448" x2="76.448" xlink:href="#lg5" y1="358.709" y2="314.524"/><linearGradient id="lg6"><stop offset="0" stop-color="#dbd5ef" stop-opacity="0"/><stop offset=".2667" stop-color="#d8d2ec" stop-opacity=".023"/><stop offset=".4431" stop-color="#d1c9e2" stop-opacity=".098"/><stop offset=".5933" stop-color="#c4b9d1" stop-opacity=".225"/><stop offset=".7288" stop-color="#b2a4ba" stop-opacity=".405"/><stop offset=".8545" stop-color="#9a889c" stop-opacity=".638"/><stop offset=".9713" stop-color="#7e6678" stop-opacity=".92"/><stop offset="1" stop-color="#765d6e"/></linearGradient><linearGradient id="SVGID_00000065058784588096932300000007481289276968460672_" gradientTransform="matrix(1 0 0 -1 0 514)" gradientUnits="userSpaceOnUse" x1="275.724" x2="265.39" xlink:href="#lg6" y1="247.118" y2="307.452"/><linearGradient id="SVGID_00000132768404358254155290000014003544624513494420_" gradientTransform="matrix(1 0 0 -1 0 514)" gradientUnits="userSpaceOnUse" x1="271.999" x2="271.999" xlink:href="#lg6" y1="304.667" y2="252.598"/><linearGradient id="SVGID_00000008845160875149877940000003638435720812663952_" gradientTransform="matrix(.707 -.707 -.707 -.707 449.298 538.742)" gradientUnits="userSpaceOnUse" x1="103.094" x2="137.207" xlink:href="#lg6" y1="341.293" y2="335.511"/><linearGradient id="SVGID_00000001649239865010490500000002792947489747666341_" gradientTransform="matrix(1 0 0 -1 0 514)" gradientUnits="userSpaceOnUse" x1="253.669" x2="297.574" xlink:href="#lg6" y1="279.002" y2="235.098"/><linearGradient id="SVGID_00000119107168154084549930000012310871335348942991_" gradientTransform="matrix(1 0 0 -1 0 514)" gradientUnits="userSpaceOnUse" x1="268.42" x2="206.214" xlink:href="#lg3" y1="356.571" y2="294.365"/><linearGradient id="SVGID_00000154425469928388958380000012680508510790689713_" gradientTransform="matrix(1 0 0 -1 0 514)" gradientUnits="userSpaceOnUse" x1="240.941" x2="204.941" xlink:href="#lg4" y1="328.221" y2="284.721"/><linearGradient id="SVGID_00000040559473534473253900000015784143763100549298_" gradientTransform="matrix(.707 .707 .707 -.707 -430.984 257.06)" gradientUnits="userSpaceOnUse" x1="327.772" x2="327.772" xlink:href="#lg5" y1="548.98" y2="504.796"/><linearGradient id="SVGID_00000083081723728727223650000018095012722938290324_" gradientTransform="matrix(1 0 0 -1 0 514)" gradientUnits="userSpaceOnUse" x1="195.169" x2="221.835" xlink:href="#lg6" y1="382.871" y2="348.871"/><linearGradient id="SVGID_00000066473646754897913900000001956295097744571012_" gradientTransform="matrix(1 0 0 -1 0 514)" gradientUnits="userSpaceOnUse" x1="180.821" x2="135.862" xlink:href="#lg6" y1="405.206" y2="360.247"/><linearGradient id="SVGID_00000145043437745217107160000003873114686472980624_" gradientTransform="matrix(1 0 0 -1 0 514)" gradientUnits="userSpaceOnUse" x1="245.389" x2="245.389" xlink:href="#lg4" y1="332.027" y2="258.5"/><linearGradient id="SVGID_00000120528482598654756050000008565696650829002896_" gradientTransform="matrix(1 0 0 -1 0 514)" gradientUnits="userSpaceOnUse" x1="252.064" x2="294.73" xlink:href="#lg4" y1="323.279" y2="270.613"/><linearGradient id="lg7"><stop offset="0" stop-color="#fef0ae"/><stop offset="1" stop-color="#fac600"/></linearGradient><linearGradient id="SVGID_00000182517187152242614480000005541747286637525932_" gradientTransform="matrix(1 0 0 -1 0 514)" gradientUnits="userSpaceOnUse" x1="108.432" x2="421.766" xlink:href="#lg7" y1="216.215" y2="46.215"/><linearGradient id="SVGID_00000041260044187621608600000013209878825932726700_" gradientTransform="matrix(1 0 0 -1 0 514)" gradientUnits="userSpaceOnUse" x1="103.455" x2="55.716" xlink:href="#lg7" y1="159.9" y2="207.639"/><linearGradient id="SVGID_00000059998497154971767160000016866031801095285142_" gradientTransform="matrix(1 0 0 -1 0 514)" gradientUnits="userSpaceOnUse" x1="171.189" x2="123.451" xlink:href="#lg7" y1="159.9" y2="207.639"/><linearGradient id="SVGID_00000162316744391229530500000017811142824890147752_" gradientTransform="matrix(1 0 0 -1 0 514)" gradientUnits="userSpaceOnUse" x1="238.924" x2="191.186" xlink:href="#lg7" y1="159.9" y2="207.639"/><linearGradient id="SVGID_00000032630275501075756180000010186606609130226084_" gradientTransform="matrix(1 0 0 -1 0 514)" gradientUnits="userSpaceOnUse" x1="306.659" x2="258.92" xlink:href="#lg7" y1="159.9" y2="207.639"/><linearGradient id="SVGID_00000101823316935276228930000006645891572963522994_" gradientTransform="matrix(1 0 0 -1 0 514)" gradientUnits="userSpaceOnUse" x1="374.393" x2="326.655" xlink:href="#lg7" y1="159.9" y2="207.639"/><linearGradient id="SVGID_00000160884016139709597920000010381945440777006212_" gradientTransform="matrix(1 0 0 -1 0 514)" gradientUnits="userSpaceOnUse" x1="442.128" x2="394.389" xlink:href="#lg7" y1="159.9" y2="207.639"/><linearGradient id="SVGID_00000114794469119442146300000008165300560462726847_" gradientTransform="matrix(1 0 0 -1 0 514)" gradientUnits="userSpaceOnUse" x1="103.455" x2="55.716" xlink:href="#lg7" y1="95.369" y2="143.108"/><linearGradient id="SVGID_00000127030419576177494980000002616045998669883819_" gradientTransform="matrix(1 0 0 -1 0 514)" gradientUnits="userSpaceOnUse" x1="171.189" x2="123.451" xlink:href="#lg7" y1="95.369" y2="143.108"/><linearGradient id="SVGID_00000122682091921961238200000015448603152605833143_" gradientTransform="matrix(1 0 0 -1 0 514)" gradientUnits="userSpaceOnUse" x1="238.924" x2="191.186" xlink:href="#lg7" y1="95.369" y2="143.108"/><linearGradient id="SVGID_00000017517439313706812400000007520391126288215226_" gradientTransform="matrix(1 0 0 -1 0 514)" gradientUnits="userSpaceOnUse" x1="306.659" x2="258.92" xlink:href="#lg7" y1="95.369" y2="143.108"/><linearGradient id="SVGID_00000107561079370850874540000014194142834745080459_" gradientTransform="matrix(1 0 0 -1 0 514)" gradientUnits="userSpaceOnUse" x1="374.393" x2="326.655" xlink:href="#lg7" y1="95.369" y2="143.108"/><linearGradient id="SVGID_00000031893364138043302250000012531283856734475392_" gradientTransform="matrix(1 0 0 -1 0 514)" gradientUnits="userSpaceOnUse" x1="442.128" x2="394.389" xlink:href="#lg7" y1="95.369" y2="143.108"/><linearGradient id="SVGID_00000021099016880122482930000015676443584866347153_" gradientTransform="matrix(1 0 0 -1 0 514)" gradientUnits="userSpaceOnUse" x1="108.459" x2="60.72" xlink:href="#lg7" y1="35.842" y2="83.581"/><linearGradient id="SVGID_00000158719219646749336870000001714219868438044833_" gradientTransform="matrix(1 0 0 -1 0 514)" gradientUnits="userSpaceOnUse" x1="171.189" x2="123.451" xlink:href="#lg7" y1="30.839" y2="78.577"/><linearGradient id="SVGID_00000001627803577931820560000012032617001598147716_" gradientTransform="matrix(1 0 0 -1 0 514)" gradientUnits="userSpaceOnUse" x1="238.924" x2="191.186" xlink:href="#lg7" y1="30.839" y2="78.577"/><linearGradient id="SVGID_00000064346777851713725440000017038799861026597808_" gradientTransform="matrix(1 0 0 -1 0 514)" gradientUnits="userSpaceOnUse" x1="306.659" x2="258.92" xlink:href="#lg7" y1="30.839" y2="78.577"/><linearGradient id="SVGID_00000089569592195357292110000002459543751298167984_" gradientTransform="matrix(1 0 0 -1 0 514)" gradientUnits="userSpaceOnUse" x1="374.393" x2="326.655" xlink:href="#lg7" y1="30.839" y2="78.577"/><linearGradient id="SVGID_00000156559371188307647430000012310269396732738946_" gradientTransform="matrix(1 0 0 -1 0 514)" gradientUnits="userSpaceOnUse" x1="433.147" x2="396.722" xlink:href="#lg7" y1="39.82" y2="76.244"/><linearGradient id="lg8"><stop offset="0" stop-color="#fe9738" stop-opacity="0"/><stop offset=".1648" stop-color="#fe9637" stop-opacity=".012"/><stop offset=".2957" stop-color="#fe9535" stop-opacity=".052"/><stop offset=".415" stop-color="#fe9331" stop-opacity=".118"/><stop offset=".5274" stop-color="#fe902c" stop-opacity=".211"/><stop offset=".635" stop-color="#fe8c25" stop-opacity=".331"/><stop offset=".739" stop-color="#fe871d" stop-opacity=".479"/><stop offset=".8401" stop-color="#fe8213" stop-opacity=".655"/><stop offset=".9364" stop-color="#fe7b09" stop-opacity=".852"/><stop offset="1" stop-color="#fe7701"/></linearGradient><linearGradient id="SVGID_00000111882302916474839820000012410961633784991383_" gradientTransform="matrix(1 0 0 -1 0 514)" gradientUnits="userSpaceOnUse" x1="256" x2="256" xlink:href="#lg8" y1="45.61" y2="4.148"/><linearGradient id="SVGID_00000152246479961034033060000001434757978600846209_" gradientTransform="matrix(1 0 0 -1 0 514)" gradientUnits="userSpaceOnUse" x1="414.622" x2="464.882" xlink:href="#lg8" y1="119.97" y2="119.97"/><linearGradient id="SVGID_00000068638040431877889720000009223635705846890126_" gradientTransform="matrix(1 0 0 -1 0 514)" gradientUnits="userSpaceOnUse" x1="401.866" x2="453.383" xlink:href="#lg8" y1="94.065" y2="34.281"/><linearGradient id="SVGID_00000011745772786637416260000010304679833232991935_" gradientTransform="matrix(1 0 0 -1 0 514)" gradientUnits="userSpaceOnUse" x1="256" x2="256" xlink:href="#lg8" y1="185" y2="231.97"/><linearGradient id="SVGID_00000084504581730359943280000017602050665616893857_" gradientTransform="matrix(1 0 0 -1 0 514)" gradientUnits="userSpaceOnUse" x1="256" x2="256" y1="254.79" y2="220.203"><stop offset="0" stop-color="#feca9c"/><stop offset=".1252" stop-color="#fdc391"/><stop offset=".3429" stop-color="#fbb174"/><stop offset=".6269" stop-color="#f89346"/><stop offset=".9631" stop-color="#f46b07"/><stop offset="1" stop-color="#f46700"/></linearGradient><linearGradient id="lg9"><stop offset="0" stop-color="#ff7920" stop-opacity="0"/><stop offset=".088" stop-color="#fe7720" stop-opacity=".028"/><stop offset=".2178" stop-color="#fe7221" stop-opacity=".107"/><stop offset=".3734" stop-color="#fe6b22" stop-opacity=".236"/><stop offset=".549" stop-color="#fe6024" stop-opacity=".415"/><stop offset=".7413" stop-color="#fd5227" stop-opacity=".645"/><stop offset=".9447" stop-color="#fd422a" stop-opacity=".92"/><stop offset="1" stop-color="#fd3e2b"/></linearGradient><linearGradient id="SVGID_00000162329185189698071490000017001760808166085563_" gradientTransform="matrix(1 0 0 -1 0 514)" gradientUnits="userSpaceOnUse" x1="256" x2="256" xlink:href="#lg9" y1="238.742" y2="216.047"/><linearGradient id="SVGID_00000147221607719217512220000008052824435367959946_" gradientTransform="matrix(1 0 0 -1 0 514)" gradientUnits="userSpaceOnUse" x1="418.765" x2="489.613" xlink:href="#lg9" y1="237.94" y2="237.94"/><g><path d="m462.81 306.076h-413.62v-203.231c0-41.017 33.37-74.387 74.387-74.387h264.847c41.017 0 74.387 33.37 74.387 74.387v203.231zm-388.62-25h363.62v-178.231c0-27.231-22.155-49.387-49.387-49.387h-264.846c-27.232 0-49.387 22.155-49.387 49.387z" fill="url(#SVGID_1_)"/><path d="m437.81 156.474v124.602h-363.62v-124.602h-25v149.602h413.62v-149.602z" fill="url(#SVGID_00000178196883856075267280000006889375234618854047_)"/><path d="m388.423 28.458h-80.849v25h80.849c27.232 0 49.387 22.155 49.387 49.387v178.231h-130.235v25h155.235v-203.231c0-41.017-33.37-74.387-74.387-74.387z" fill="url(#SVGID_00000063621896068412779130000018405016325088719768_)"/><path d="m388.423 28.458h-80.849v25h80.849c27.232 0 49.387 22.155 49.387 49.387v178.231h-130.235v25h155.235v-203.231c0-41.017-33.37-74.387-74.387-74.387z" fill="url(#SVGID_00000140005744035551073040000005868877868878231736_)"/><g><path d="m314.851 0c-3.564 0-7.047 1.467-10.15 4.149-12.002 10.369-29.37 16.89-48.701 16.89s-36.699-6.522-48.701-16.891c-3.103-2.681-6.586-4.148-10.15-4.148h-4.441c-11.264 0-20.395 13.964-20.395 31.188 0 17.225 9.131 31.188 20.395 31.188h126.585c11.264 0 20.395-13.964 20.395-31.188-.001-17.224-9.132-31.188-20.396-31.188z" fill="url(#SVGID_00000013165517177043542210000002239083118232527777_)"/><path d="m319.293 62.377c11.264 0 20.395-13.963 20.395-31.188s-9.132-31.189-20.395-31.189h-4.441c-3.564 0-7.047 1.467-10.15 4.148-12.003 10.37-29.371 16.891-48.702 16.891v41.338z" fill="url(#SVGID_00000028300069457836783670000017713479270530971550_)"/><path d="m256 21.039c-4.857 0-9.59-.413-14.145-1.194h-68.145c-.899 3.517-1.397 7.34-1.397 11.343 0 17.225 9.131 31.189 20.395 31.188h126.585c11.264 0 20.395-13.963 20.395-31.188 0-4.003-.499-7.827-1.397-11.343h-68.145c-4.556.781-9.289 1.194-14.146 1.194z" fill="url(#SVGID_00000062170638848575212040000017650817582508522670_)"/></g><g><g><path d="m371.651 133.03c9.734 9.734 14.601 22.493 14.601 35.247 0 12.755-4.867 25.513-14.601 35.247l-38.069 38.069-45.647-24.848-24.848-45.647 38.069-38.069c19.469-19.467 51.027-19.467 70.495.001z" fill="url(#SVGID_00000044168776984517695980000015553608806053420970_)"/><path d="m371.651 133.03c9.734 9.734 14.601 22.493 14.601 35.247 0 12.755-4.867 25.513-14.601 35.247l-38.069 38.069-45.647-24.848-7.57-13.909 78.88-78.88c4.469 2.307 8.659 5.327 12.406 9.074z" fill="url(#SVGID_00000092418672599917189880000004065033450467681471_)"/><path d="m301.156 133.03-27.294 27.294 70.495 70.495 27.294-27.294c9.734-9.734 14.601-22.493 14.601-35.247 0-12.755-4.867-25.513-14.601-35.247-19.468-19.469-51.026-19.469-70.495-.001z" fill="url(#SVGID_00000183944177226983056890000001694093665493584560_)"/><path d="m264.808 174.262 23.127 42.484 45.647 24.848 21.453-21.453-68.053-68.053z" fill="url(#SVGID_00000083058409745981735480000009219569390070572733_)"/><path d="m263.087 171.099 70.495 70.495-38.069 38.069c-19.469 19.469-51.026 19.469-70.495 0-9.734-9.734-14.601-22.493-14.601-35.247 0-12.755 4.867-25.513 14.601-35.247z" fill="url(#SVGID_00000003096450793713940600000007206130117906227637_)"/><path d="m263.087 171.099 70.495 70.495-38.069 38.069c-19.469 19.469-51.026 19.469-70.495 0-9.734-9.734-14.601-22.493-14.601-35.247 0-12.755 4.867-25.513 14.601-35.247z" fill="url(#SVGID_00000065058784588096932300000007481289276968460672_)"/><path d="m263.087 171.099 70.495 70.495-38.069 38.069c-19.469 19.469-51.026 19.469-70.495 0-9.734-9.734-14.601-22.493-14.601-35.247 0-12.755 4.867-25.513 14.601-35.247z" fill="url(#SVGID_00000132768404358254155290000014003544624513494420_)"/><path d="m223.04 211.267 70.375 70.375c.713-.636 1.414-1.294 2.098-1.978l38.069-38.069-70.495-70.495-38.069 38.069c-.684.684-1.342 1.385-1.978 2.098z" fill="url(#SVGID_00000008845160875149877940000003638435720812663952_)"/><path d="m287.595 195.607 45.987 45.987-38.069 38.069c-19.469 19.469-51.026 19.469-70.495 0-3.747-3.747-6.771-7.941-9.073-12.407z" fill="url(#SVGID_00000001649239865010490500000002792947489747666341_)"/></g><g><path d="m286.982 222.583c-9.734 9.734-22.493 14.601-35.247 14.601-12.755 0-25.513-4.867-35.247-14.601l-38.069-38.069 24.848-45.647 45.647-24.848 38.069 38.069c19.468 19.468 19.468 51.026-.001 70.495z" fill="url(#SVGID_00000119107168154084549930000012310871335348942991_)"/><path d="m286.982 222.583c-9.734 9.734-22.493 14.601-35.247 14.601-12.755 0-25.513-4.867-35.247-14.601l-38.069-38.069 24.848-45.647z" fill="url(#SVGID_00000154425469928388958380000012680508510790689713_)"/><path d="m248.913 114.019-70.495 70.495-38.069-38.069c-19.469-19.469-19.469-51.026 0-70.495 9.734-9.734 22.493-14.601 35.247-14.601 12.755 0 25.513 4.867 35.247 14.601z" fill="url(#SVGID_00000040559473534473253900000015784143763100549298_)"/><path d="m208.746 73.972-70.375 70.375c.636.713 1.294 1.414 1.978 2.098l38.069 38.069 70.495-70.495-38.069-38.069c-.684-.685-1.385-1.342-2.098-1.978z" fill="url(#SVGID_00000083081723728727223650000018095012722938290324_)"/><path d="m224.405 138.526-45.987 45.987-38.069-38.069c-19.469-19.469-19.469-51.026 0-70.495 3.747-3.747 7.941-6.771 12.407-9.073z" fill="url(#SVGID_00000066473646754897913900000001956295097744571012_)"/><path d="m286.982 152.088-27.294-27.294-70.495 70.495 27.294 27.294c9.734 9.734 22.493 14.601 35.247 14.601 12.755 0 25.513-4.867 35.247-14.601 19.47-19.469 19.47-51.027.001-70.495z" fill="url(#SVGID_00000145043437745217107160000003873114686472980624_)"/><path d="m286.982 152.088-27.294-27.294-70.495 70.495 27.294 27.294c9.734 9.734 22.493 14.601 35.247 14.601 12.755 0 25.513-4.867 35.247-14.601 19.47-19.469 19.47-51.027.001-70.495z" fill="url(#SVGID_00000120528482598654756050000008565696650829002896_)"/></g></g><g><path d="m42.779 276.06h426.442v155.989c0 44.126-35.825 79.951-79.951 79.951h-266.54c-44.126 0-79.951-35.825-79.951-79.951z" fill="url(#SVGID_00000182517187152242614480000005541747286637525932_)"/><g><path d="m69.587 314.537h34.152c3.145 0 5.695 2.55 5.695 5.695v34.152c0 3.145-2.55 5.695-5.695 5.695h-34.152c-3.145 0-5.695-2.55-5.695-5.695v-34.152c0-3.145 2.55-5.695 5.695-5.695z" fill="url(#SVGID_00000041260044187621608600000013209878825932726700_)"/><path d="m137.322 314.537h34.152c3.145 0 5.695 2.55 5.695 5.695v34.152c0 3.145-2.55 5.695-5.695 5.695h-34.152c-3.145 0-5.695-2.55-5.695-5.695v-34.152c0-3.145 2.55-5.695 5.695-5.695z" fill="url(#SVGID_00000059998497154971767160000016866031801095285142_)"/><path d="m205.057 314.537h34.152c3.145 0 5.695 2.55 5.695 5.695v34.152c0 3.145-2.55 5.695-5.695 5.695h-34.152c-3.145 0-5.695-2.55-5.695-5.695v-34.152c-.001-3.145 2.549-5.695 5.695-5.695z" fill="url(#SVGID_00000162316744391229530500000017811142824890147752_)"/><path d="m272.791 314.537h34.152c3.145 0 5.695 2.55 5.695 5.695v34.152c0 3.145-2.55 5.695-5.695 5.695h-34.152c-3.145 0-5.695-2.55-5.695-5.695v-34.152c0-3.145 2.55-5.695 5.695-5.695z" fill="url(#SVGID_00000032630275501075756180000010186606609130226084_)"/><path d="m340.526 314.537h34.152c3.145 0 5.695 2.55 5.695 5.695v34.152c0 3.145-2.55 5.695-5.695 5.695h-34.152c-3.145 0-5.695-2.55-5.695-5.695v-34.152c0-3.145 2.55-5.695 5.695-5.695z" fill="url(#SVGID_00000101823316935276228930000006645891572963522994_)"/><path d="m408.261 314.537h34.152c3.145 0 5.695 2.55 5.695 5.695v34.152c0 3.145-2.55 5.695-5.695 5.695h-34.152c-3.145 0-5.695-2.55-5.695-5.695v-34.152c-.001-3.145 2.549-5.695 5.695-5.695z" fill="url(#SVGID_00000160884016139709597920000010381945440777006212_)"/></g><g><path d="m69.587 379.068h34.152c3.145 0 5.695 2.55 5.695 5.695v34.152c0 3.145-2.55 5.695-5.695 5.695h-34.152c-3.145 0-5.695-2.55-5.695-5.695v-34.152c0-3.145 2.55-5.695 5.695-5.695z" fill="url(#SVGID_00000114794469119442146300000008165300560462726847_)"/><path d="m137.322 379.068h34.152c3.145 0 5.695 2.55 5.695 5.695v34.152c0 3.145-2.55 5.695-5.695 5.695h-34.152c-3.145 0-5.695-2.55-5.695-5.695v-34.152c0-3.145 2.55-5.695 5.695-5.695z" fill="url(#SVGID_00000127030419576177494980000002616045998669883819_)"/><path d="m205.057 379.068h34.152c3.145 0 5.695 2.55 5.695 5.695v34.152c0 3.145-2.55 5.695-5.695 5.695h-34.152c-3.145 0-5.695-2.55-5.695-5.695v-34.152c-.001-3.145 2.549-5.695 5.695-5.695z" fill="url(#SVGID_00000122682091921961238200000015448603152605833143_)"/><path d="m272.791 379.068h34.152c3.145 0 5.695 2.55 5.695 5.695v34.152c0 3.145-2.55 5.695-5.695 5.695h-34.152c-3.145 0-5.695-2.55-5.695-5.695v-34.152c0-3.145 2.55-5.695 5.695-5.695z" fill="url(#SVGID_00000017517439313706812400000007520391126288215226_)"/><path d="m340.526 379.068h34.152c3.145 0 5.695 2.55 5.695 5.695v34.152c0 3.145-2.55 5.695-5.695 5.695h-34.152c-3.145 0-5.695-2.55-5.695-5.695v-34.152c0-3.145 2.55-5.695 5.695-5.695z" fill="url(#SVGID_00000107561079370850874540000014194142834745080459_)"/><path d="m408.261 379.068h34.152c3.145 0 5.695 2.55 5.695 5.695v34.152c0 3.145-2.55 5.695-5.695 5.695h-34.152c-3.145 0-5.695-2.55-5.695-5.695v-34.152c-.001-3.145 2.549-5.695 5.695-5.695z" fill="url(#SVGID_00000031893364138043302250000012531283856734475392_)"/></g><g><path d="m69.587 443.599h34.152c3.143 0 5.695 2.552 5.695 5.695v34.152c0 3.143-2.552 5.695-5.695 5.695-21.992 0-39.847-17.855-39.847-39.847 0-3.143 2.552-5.695 5.695-5.695z" fill="url(#SVGID_00000021099016880122482930000015676443584866347153_)"/><path d="m137.322 443.599h34.152c3.145 0 5.695 2.55 5.695 5.695v34.152c0 3.145-2.55 5.695-5.695 5.695h-34.152c-3.145 0-5.695-2.55-5.695-5.695v-34.152c0-3.145 2.55-5.695 5.695-5.695z" fill="url(#SVGID_00000158719219646749336870000001714219868438044833_)"/><path d="m205.057 443.599h34.152c3.145 0 5.695 2.55 5.695 5.695v34.152c0 3.145-2.55 5.695-5.695 5.695h-34.152c-3.145 0-5.695-2.55-5.695-5.695v-34.152c-.001-3.145 2.549-5.695 5.695-5.695z" fill="url(#SVGID_00000001627803577931820560000012032617001598147716_)"/><path d="m272.791 443.599h34.152c3.145 0 5.695 2.55 5.695 5.695v34.152c0 3.145-2.55 5.695-5.695 5.695h-34.152c-3.145 0-5.695-2.55-5.695-5.695v-34.152c0-3.145 2.55-5.695 5.695-5.695z" fill="url(#SVGID_00000064346777851713725440000017038799861026597808_)"/><path d="m340.526 443.599h34.152c3.145 0 5.695 2.55 5.695 5.695v34.152c0 3.145-2.55 5.695-5.695 5.695h-34.152c-3.145 0-5.695-2.55-5.695-5.695v-34.152c0-3.145 2.55-5.695 5.695-5.695z" fill="url(#SVGID_00000089569592195357292110000002459543751298167984_)"/><path d="m408.261 443.599h34.152c3.143 0 5.695 2.552 5.695 5.695 0 21.992-17.855 39.847-39.847 39.847-3.143 0-5.695-2.552-5.695-5.695v-34.152c-.001-3.143 2.551-5.695 5.695-5.695z" fill="url(#SVGID_00000156559371188307647430000012310269396732738946_)"/></g><path d="m42.779 398.429v33.62c0 44.156 35.795 79.951 79.951 79.951h266.54c44.156 0 79.951-35.795 79.951-79.951v-33.62z" fill="url(#SVGID_00000111882302916474839820000012410961633784991383_)"/><path d="m289.867 512h99.403c44.156 0 79.951-35.795 79.951-79.951v-155.989h-179.354z" fill="url(#SVGID_00000152246479961034033060000001434757978600846209_)"/><path d="m289.867 512h99.403c44.156 0 79.951-35.795 79.951-79.951v-155.989h-179.354z" fill="url(#SVGID_00000068638040431877889720000009223635705846890126_)"/><path d="m42.779 276.06h426.442v103.008h-426.442z" fill="url(#SVGID_00000011745772786637416260000010304679833232991935_)"/><g><path d="m47.663 256h416.674c11.079 0 20.06 8.981 20.06 20.06 0 11.079-8.981 20.06-20.06 20.06h-416.674c-11.079 0-20.06-8.981-20.06-20.06 0-11.079 8.981-20.06 20.06-20.06z" fill="url(#SVGID_00000084504581730359943280000017602050665616893857_)"/><path d="m484.393 276.065c0 5.538-2.24 10.547-5.876 14.182-3.636 3.636-8.644 5.876-14.182 5.876h-416.671c-11.076 0-20.058-8.982-20.058-20.058 0-1.959.281-3.838.799-5.617h455.189c.518 1.779.799 3.658.799 5.617z" fill="url(#SVGID_00000162329185189698071490000017001760808166085563_)"/><path d="m464.337 256h-76.866v40.12h76.866c11.079 0 20.06-8.981 20.06-20.06 0-11.079-8.981-20.06-20.06-20.06z" fill="url(#SVGID_00000147221607719217512220000008052824435367959946_)"/></g></g></g></svg>