<svg id="_27_Mask" enable-background="new 0 0 512 512" viewBox="0 0 512 512" xmlns="http://www.w3.org/2000/svg" xmlns:xlink="http://www.w3.org/1999/xlink"><linearGradient id="lg1"><stop offset="0" stop-color="#f3faff"/><stop offset="1" stop-color="#d5daf3"/></linearGradient><linearGradient id="SVGID_1_" gradientTransform="matrix(1 0 0 -1 0 514)" gradientUnits="userSpaceOnUse" x1="0" x2="199.92" xlink:href="#lg1" y1="277.527" y2="277.527"/><linearGradient id="lg2"><stop offset="0" stop-color="#dbd5ef" stop-opacity="0"/><stop offset=".2667" stop-color="#d8d2ec" stop-opacity=".023"/><stop offset=".4431" stop-color="#d1c9e2" stop-opacity=".098"/><stop offset=".5933" stop-color="#c4b9d1" stop-opacity=".225"/><stop offset=".7288" stop-color="#b2a4ba" stop-opacity=".405"/><stop offset=".8545" stop-color="#9a889c" stop-opacity=".638"/><stop offset=".9713" stop-color="#7e6678" stop-opacity=".92"/><stop offset="1" stop-color="#765d6e"/></linearGradient><linearGradient id="SVGID_00000098911984372311267160000005762852182820045234_" gradientTransform="matrix(1 0 0 -1 0 514)" gradientUnits="userSpaceOnUse" x1="60.825" x2="105.246" xlink:href="#lg2" y1="161.884" y2="131.741"/><linearGradient id="SVGID_00000043457958726119779690000004560251743378678159_" gradientTransform="matrix(1 0 0 -1 0 514)" gradientUnits="userSpaceOnUse" x1="68.939" x2="56.247" xlink:href="#lg2" y1="157.34" y2="137.906"/><linearGradient id="SVGID_00000155139613814711041310000005212556493438843821_" gradientTransform="matrix(1 0 0 -1 0 514)" gradientUnits="userSpaceOnUse" x1="61.29" x2="85.089" xlink:href="#lg2" y1="286.289" y2="286.289"/><linearGradient id="SVGID_00000145753786669335862300000006469098792069904008_" gradientTransform="matrix(1 0 0 -1 0 514)" gradientUnits="userSpaceOnUse" x1="68.429" x2="48.199" xlink:href="#lg2" y1="286.289" y2="286.289"/><linearGradient id="SVGID_00000138555138922774774610000008000356496832071049_" gradientTransform="matrix(1 0 0 -1 0 514)" gradientUnits="userSpaceOnUse" x1="70.912" x2="74.878" xlink:href="#lg2" y1="297.113" y2="278.472"/><linearGradient id="SVGID_00000010297600837906069420000006706223620537487264_" gradientTransform="matrix(1 0 0 -1 0 514)" gradientUnits="userSpaceOnUse" x1="19.645" x2="40.649" xlink:href="#lg2" y1="292.82" y2="292.82"/><linearGradient id="SVGID_00000137836964899056700750000005880996526301194395_" gradientTransform="matrix(1 0 0 -1 0 514)" gradientUnits="userSpaceOnUse" x1="20.828" x2="14.581" xlink:href="#lg2" y1="299.282" y2="277.567"/><linearGradient id="SVGID_00000052089593523470224460000016866469268983384755_" gradientTransform="matrix(1 0 0 -1 0 514)" gradientUnits="userSpaceOnUse" x1="46.211" x2="42.245" xlink:href="#lg2" y1="326.722" y2="346.553"/><linearGradient id="SVGID_00000131352902779097364220000009898685885067283114_" gradientTransform="matrix(1 0 0 -1 0 514)" gradientUnits="userSpaceOnUse" x1="78.075" x2="79.463" xlink:href="#lg2" y1="376.614" y2="357.378"/><linearGradient id="SVGID_00000155862565177081908070000007970944099456791438_" gradientTransform="matrix(1 0 0 -1 0 514)" gradientUnits="userSpaceOnUse" x1="157.038" x2="200.666" xlink:href="#lg2" y1="396.447" y2="388.911"/><linearGradient id="SVGID_00000089543386025257002790000011567975418928680847_" gradientTransform="matrix(1 0 0 -1 0 514)" gradientUnits="userSpaceOnUse" x1="305.566" x2="485.566" xlink:href="#lg1" y1="327.746" y2="221.08"/><linearGradient id="SVGID_00000086689282155781294850000014660512364914332336_" gradientTransform="matrix(1 0 0 -1 0 514)" gradientUnits="userSpaceOnUse" x1="480.805" x2="513.138" xlink:href="#lg2" y1="313.134" y2="303.8"/><linearGradient id="SVGID_00000181051526407931541710000009453054646386794136_" gradientTransform="matrix(-1 0 0 -1 803.743 514)" gradientUnits="userSpaceOnUse" x1="352.567" x2="396.989" xlink:href="#lg2" y1="161.884" y2="131.741"/><linearGradient id="SVGID_00000025402812255200290490000002773951793786134179_" gradientTransform="matrix(-1 0 0 -1 803.743 514)" gradientUnits="userSpaceOnUse" x1="360.681" x2="347.99" xlink:href="#lg2" y1="157.34" y2="137.906"/><linearGradient id="SVGID_00000075884016549911692550000012455191116543614855_" gradientTransform="matrix(-1 0 0 -1 803.743 514)" gradientUnits="userSpaceOnUse" x1="353.033" x2="376.831" xlink:href="#lg2" y1="286.289" y2="286.289"/><linearGradient id="SVGID_00000145031848548821616640000003172584825605906570_" gradientTransform="matrix(-1 0 0 -1 803.743 514)" gradientUnits="userSpaceOnUse" x1="360.172" x2="339.942" xlink:href="#lg2" y1="286.289" y2="286.289"/><linearGradient id="SVGID_00000016051536622197113640000015978581806284849833_" gradientTransform="matrix(-1 0 0 -1 803.743 514)" gradientUnits="userSpaceOnUse" x1="362.654" x2="366.62" xlink:href="#lg2" y1="297.113" y2="278.472"/><linearGradient id="SVGID_00000005227786952962447420000006632737670595580299_" gradientTransform="matrix(-1 0 0 -1 803.743 514)" gradientUnits="userSpaceOnUse" x1="311.388" x2="332.392" xlink:href="#lg2" y1="292.82" y2="292.82"/><linearGradient id="SVGID_00000154425233846873647630000003382235923865660577_" gradientTransform="matrix(-1 0 0 -1 803.743 514)" gradientUnits="userSpaceOnUse" x1="312.571" x2="306.324" xlink:href="#lg2" y1="299.282" y2="277.567"/><linearGradient id="SVGID_00000003785490310129635430000002944621332907217294_" gradientTransform="matrix(-1 0 0 -1 803.743 514)" gradientUnits="userSpaceOnUse" x1="337.954" x2="333.987" xlink:href="#lg2" y1="326.722" y2="346.553"/><linearGradient id="SVGID_00000157306753318288689940000012390036788650702235_" gradientTransform="matrix(-1 0 0 -1 803.743 514)" gradientUnits="userSpaceOnUse" x1="369.817" x2="371.205" xlink:href="#lg2" y1="376.614" y2="357.378"/><linearGradient id="SVGID_00000039111293312834956230000003187496950238469513_" gradientTransform="matrix(1 0 0 -1 0 514)" gradientUnits="userSpaceOnUse" x1="156.132" x2="360.679" y1="194.582" y2="194.582"><stop offset="0" stop-color="#99e6fc"/><stop offset=".1325" stop-color="#8ee1fb"/><stop offset=".3627" stop-color="#71d5f9"/><stop offset=".6631" stop-color="#43c2f5"/><stop offset="1" stop-color="#08a9f1"/></linearGradient><linearGradient id="lg3"><stop offset="0" stop-color="#314dc9" stop-opacity="0"/><stop offset=".1245" stop-color="#304cc8" stop-opacity=".03"/><stop offset=".2787" stop-color="#2f4bc6" stop-opacity=".117"/><stop offset=".4488" stop-color="#2e49c2" stop-opacity=".26"/><stop offset=".6301" stop-color="#2c47bd" stop-opacity=".46"/><stop offset=".8182" stop-color="#2943b7" stop-opacity=".714"/><stop offset="1" stop-color="#2740b0"/></linearGradient><linearGradient id="SVGID_00000076576045488884027440000007900141148276071571_" gradientTransform="matrix(1 0 0 -1 0 514)" gradientUnits="userSpaceOnUse" x1="262.281" x2="272.473" xlink:href="#lg3" y1="238.028" y2="308.523"/><linearGradient id="SVGID_00000004509161374333540400000005322215800652077209_" gradientTransform="matrix(1 0 0 -1 0 514)" gradientUnits="userSpaceOnUse" x1="255.655" x2="264.148" xlink:href="#lg3" y1="191.576" y2="265.469"/><linearGradient id="lg4"><stop offset="0" stop-color="#08a9f1" stop-opacity="0"/><stop offset=".0927" stop-color="#0baaf1" stop-opacity=".025"/><stop offset=".2192" stop-color="#15aef2" stop-opacity=".094"/><stop offset=".3651" stop-color="#26b5f3" stop-opacity=".208"/><stop offset=".5256" stop-color="#3dbff5" stop-opacity=".367"/><stop offset=".698" stop-color="#5acbf7" stop-opacity=".571"/><stop offset=".8776" stop-color="#7edaf9" stop-opacity=".816"/><stop offset="1" stop-color="#99e6fc"/></linearGradient><linearGradient id="SVGID_00000100343334454891666360000009342386839715521954_" gradientTransform="matrix(1 0 0 -1 0 514)" gradientUnits="userSpaceOnUse" x1="256.521" x2="259.918" xlink:href="#lg4" y1="187.419" y2="140.705"/><linearGradient id="SVGID_00000140704861193591681320000010014898113180712372_" gradientTransform="matrix(1 0 0 -1 0 514)" gradientUnits="userSpaceOnUse" x1="252.394" x2="265.984" xlink:href="#lg3" y1="129.819" y2="216.452"/><linearGradient id="SVGID_00000102501979716055718590000009839425035379425966_" gradientTransform="matrix(1 0 0 -1 0 514)" gradientUnits="userSpaceOnUse" x1="251.419" x2="261.611" xlink:href="#lg3" y1="95.634" y2="164.43"/><linearGradient id="SVGID_00000179632088508825793440000010642005916270329483_" gradientTransform="matrix(1 0 0 -1 0 514)" gradientUnits="userSpaceOnUse" x1="256" x2="256" xlink:href="#lg3" y1="123.12" y2="66.961"/><linearGradient id="SVGID_00000147199463462968287220000015756887558234170541_" gradientTransform="matrix(1 0 0 -1 0 514)" gradientUnits="userSpaceOnUse" x1="255.825" x2="258.373" xlink:href="#lg4" y1="239.674" y2="191.262"/><linearGradient id="SVGID_00000102544135450679537670000006321785130219272377_" gradientTransform="matrix(1 0 0 -1 0 514)" gradientUnits="userSpaceOnUse" x1="384.604" x2="428.916" xlink:href="#lg3" y1="194.582" y2="194.582"/><linearGradient id="SVGID_00000176007205440832127370000010981736037133592213_" gradientTransform="matrix(1 0 0 -1 0 514)" gradientUnits="userSpaceOnUse" x1="256" x2="256" xlink:href="#lg1" y1="335.17" y2="284.009"/><linearGradient id="SVGID_00000095335599084527245310000008567471705924994434_" gradientTransform="matrix(1 0 0 -1 0 514)" gradientUnits="userSpaceOnUse" x1="256" x2="256" xlink:href="#lg2" y1="306.293" y2="274.504"/><linearGradient id="SVGID_00000070079241116022170150000008776016802599017363_" gradientTransform="matrix(1 0 0 -1 0 514)" gradientUnits="userSpaceOnUse" x1="395.362" x2="433.681" xlink:href="#lg2" y1="304.839" y2="304.839"/><g><g><g><path d="m94.927 400.545c-35.223-18.283-57.103-54.292-57.103-93.976v-66.516c-8.213-.577-16.121-3.648-22.702-8.97-9.61-7.771-15.122-19.316-15.122-31.674 0-18.992 13.465-35.725 32.017-39.789l14.356-3.145c9.463-22.081 26.36-40.639 48.554-52.158l53.826-27.938c10.951-5.684 23.783-5.253 34.327 1.154s16.84 17.598 16.84 29.936c0 16.332-11.58 30.723-27.534 34.218l-116.781 25.58c-3.435 9.794-5.262 20.257-5.262 31.025v27.913l45.729-9.79 2.62 12.241-48.349 10.35v67.562c0 34.992 19.294 66.745 50.352 82.866zm-53.386-230.197-6.846 1.5c-12.85 2.815-22.177 14.407-22.177 27.561 0 8.561 3.818 16.557 10.475 21.939 4.319 3.492 9.464 5.586 14.831 6.136v-29.192c0-9.596 1.279-18.976 3.717-27.944zm123.362-85.414c-3.543 0-7.094.848-10.383 2.555l-53.826 27.938c-16.699 8.667-29.996 21.852-38.723 37.631l107.736-23.599c10.253-2.246 17.695-11.494 17.695-21.99 0-7.929-4.046-15.121-10.822-19.239-3.61-2.193-7.638-3.296-11.677-3.296z" fill="url(#SVGID_1_)"/><path d="m94.927 400.545 5.767-11.11c-27.205-14.121-45.382-40.237-49.474-70.017h-12.609c4.167 34.486 24.941 64.841 56.316 81.127z" fill="url(#SVGID_00000098911984372311267160000005762852182820045234_)"/><path d="m94.927 400.545 5.767-11.11c-27.205-14.121-45.382-40.237-49.474-70.017h-12.609c4.167 34.486 24.941 64.841 56.316 81.127z" fill="url(#SVGID_00000043457958726119779690000004560251743378678159_)"/><path d="m50.342 226.205v12.802l48.349-10.351-2.62-12.241z" fill="url(#SVGID_00000155139613814711041310000005212556493438843821_)"/><path d="m50.342 226.205v12.802l48.349-10.351-2.62-12.241z" fill="url(#SVGID_00000145753786669335862300000006469098792069904008_)"/><path d="m50.342 226.205v12.802l48.349-10.351-2.62-12.241z" fill="url(#SVGID_00000138555138922774774610000008000356496832071049_)"/><path d="m37.824 227.484c-5.367-.55-10.513-2.644-14.831-6.136-5.899-4.769-9.562-11.592-10.321-19.04h-12.558c.791 11.251 6.154 21.616 15.008 28.775 6.581 5.322 14.488 8.393 22.702 8.97z" fill="url(#SVGID_00000010297600837906069420000006706223620537487264_)"/><path d="m37.824 227.484c-5.367-.55-10.513-2.644-14.831-6.136-5.899-4.769-9.562-11.592-10.321-19.04h-12.558c.791 11.251 6.154 21.616 15.008 28.775 6.581 5.322 14.488 8.393 22.702 8.97z" fill="url(#SVGID_00000137836964899056700750000005880996526301194395_)"/><path d="m37.824 198.292v14.03h12.518v-14.03c0-10.768 1.827-21.231 5.262-31.025l-14.063 3.081c-2.438 8.968-3.717 18.348-3.717 27.944z" fill="url(#SVGID_00000052089593523470224460000016866469268983384755_)"/><path d="m100.694 115.427 8.554-4.44h-25.438c-16.739 11.448-29.626 27.261-37.437 45.487l15.598-3.416c8.727-15.779 22.025-28.964 38.723-37.631z" fill="url(#SVGID_00000131352902779097364220000009898685885067283114_)"/><path d="m183.08 77.533c-10.544-6.407-23.377-6.838-34.327-1.154l-41.555 21.569v14.103l47.322-24.562c3.288-1.707 6.839-2.555 10.383-2.555 4.039 0 8.067 1.103 11.677 3.297 6.776 4.117 10.822 11.31 10.822 19.239 0 10.496-7.442 19.744-17.695 21.99l-62.509 13.692v12.815l65.188-14.279c15.954-3.495 27.534-17.886 27.534-34.218 0-12.339-6.295-23.531-16.84-29.937z" fill="url(#SVGID_00000155862565177081908070000007970944099456791438_)"/></g><g><path d="m479.983 159.619-14.356-3.145c-9.463-22.081-26.36-40.639-48.554-52.158l-53.826-27.938c-10.951-5.684-23.783-5.253-34.327 1.154s-16.84 17.598-16.84 29.936c0 16.332 11.58 30.723 27.534 34.218l116.781 25.58c3.435 9.794 5.262 20.257 5.262 31.025v27.913l-45.729-9.79-2.62 12.241 48.349 10.35v67.562c0 34.992-19.294 66.745-50.352 82.866l5.767 11.11c35.223-18.283 57.103-54.292 57.103-93.976v-66.516c8.213-.577 16.121-3.648 22.702-8.97 9.61-7.77 15.122-19.315 15.122-31.674.001-18.99-13.464-35.723-32.016-39.788zm-137.69-30.16c-10.253-2.246-17.695-11.494-17.695-21.99 0-7.929 4.046-15.121 10.822-19.239 3.61-2.193 7.638-3.297 11.677-3.297 3.543 0 7.094.848 10.383 2.555l53.826 27.938c16.699 8.667 29.996 21.852 38.723 37.631zm146.714 91.889c-4.319 3.492-9.464 5.586-14.831 6.136v-29.192c0-9.596-1.279-18.976-3.717-27.944l6.845 1.5c12.85 2.815 22.177 14.407 22.177 27.561.001 8.56-3.817 16.557-10.474 21.939z" fill="url(#SVGID_00000089543386025257002790000011567975418928680847_)"/><path d="m479.983 159.619-5.807-1.272v12.815l3.128.685c12.85 2.815 22.177 14.407 22.177 27.561 0 8.561-3.818 16.557-10.475 21.94-4.319 3.492-9.464 5.586-14.831 6.136v12.568c8.213-.577 16.121-3.648 22.702-8.97 9.61-7.77 15.122-19.315 15.122-31.674.001-18.991-13.464-35.724-32.016-39.789z" fill="url(#SVGID_00000086689282155781294850000014660512364914332336_)"/><path d="m417.073 400.545-5.767-11.11c27.205-14.121 45.382-40.237 49.474-70.017h12.609c-4.167 34.486-24.941 64.841-56.316 81.127z" fill="url(#SVGID_00000181051526407931541710000009453054646386794136_)"/><path d="m417.073 400.545-5.767-11.11c27.205-14.121 45.382-40.237 49.474-70.017h12.609c-4.167 34.486-24.941 64.841-56.316 81.127z" fill="url(#SVGID_00000025402812255200290490000002773951793786134179_)"/><path d="m461.658 226.205v12.802l-48.349-10.351 2.62-12.241z" fill="url(#SVGID_00000075884016549911692550000012455191116543614855_)"/><path d="m461.658 226.205v12.802l-48.349-10.351 2.62-12.241z" fill="url(#SVGID_00000145031848548821616640000003172584825605906570_)"/><path d="m461.658 226.205v12.802l-48.349-10.351 2.62-12.241z" fill="url(#SVGID_00000016051536622197113640000015978581806284849833_)"/><path d="m474.176 227.484c5.367-.55 10.513-2.644 14.831-6.136 5.899-4.769 9.562-11.592 10.321-19.04h12.558c-.791 11.251-6.154 21.616-15.008 28.775-6.581 5.322-14.488 8.393-22.702 8.97z" fill="url(#SVGID_00000005227786952962447420000006632737670595580299_)"/><path d="m474.176 227.484c5.367-.55 10.513-2.644 14.831-6.136 5.899-4.769 9.562-11.592 10.321-19.04h12.558c-.791 11.251-6.154 21.616-15.008 28.775-6.581 5.322-14.488 8.393-22.702 8.97z" fill="url(#SVGID_00000154425233846873647630000003382235923865660577_)"/><path d="m474.176 198.292v14.03h-12.518v-14.03c0-10.768-1.827-21.231-5.262-31.025l14.063 3.081c2.438 8.968 3.717 18.348 3.717 27.944z" fill="url(#SVGID_00000003785490310129635430000002944621332907217294_)"/><path d="m411.306 115.427-8.554-4.44h25.438c16.739 11.448 29.626 27.261 37.437 45.487l-15.598-3.416c-8.727-15.779-22.025-28.964-38.723-37.631z" fill="url(#SVGID_00000157306753318288689940000012390036788650702235_)"/></g></g><g><g><path d="m151.957 213.214-51.83 14.18c-7.807 2.136-13.221 9.23-13.221 17.324v149.401c0 8.094 5.414 15.189 13.221 17.324l51.83 14.18c68.111 18.634 139.976 18.634 208.087 0l51.83-14.18c7.807-2.136 13.221-9.23 13.221-17.324v-149.401c0-8.094-5.414-15.189-13.221-17.324l-51.83-14.18c-68.111-18.634-139.977-18.634-208.087 0z" fill="url(#SVGID_00000039111293312834956230000003187496950238469513_)"/><path d="m156.696 246.435-69.791 12.963v120.042l69.791 12.963c65.008 12.074 133.599 12.074 198.608 0l69.792-12.963v-120.043l-69.792-12.963c-65.008-12.074-133.6-12.074-198.608.001z" fill="url(#SVGID_00000076576045488884027440000007900141148276071571_)"/><path d="m156.696 290.811-69.791 5.081v47.052l69.791 5.081c65.008 4.733 133.599 4.733 198.608 0l69.792-5.081v-47.052l-69.792-5.081c-65.008-4.733-133.6-4.733-198.608 0z" fill="url(#SVGID_00000004509161374333540400000005322215800652077209_)"/><path d="m156.696 290.811-69.791 5.081v47.052l69.791 5.081c65.008 4.733 133.599 4.733 198.608 0l69.792-5.081v-47.052l-69.792-5.081c-65.008-4.733-133.6-4.733-198.608 0z" fill="url(#SVGID_00000100343334454891666360000009342386839715521954_)"/><path d="m425.095 342.945v36.497l-69.794 12.963c-65.004 12.073-133.599 12.073-198.603 0l-69.794-12.963v-36.497l69.794 5.083c65.004 4.726 133.599 4.726 198.603 0z" fill="url(#SVGID_00000140704861193591681320000010014898113180712372_)"/><path d="m425.095 379.442v14.678c0 8.094-5.417 15.187-13.225 17.323l-51.827 14.178c-68.11 18.634-139.977 18.634-208.087 0l-51.827-14.178c-7.808-2.137-13.225-9.23-13.225-17.323v-14.678l69.794 12.963c65.004 12.073 133.599 12.073 198.603 0z" fill="url(#SVGID_00000102501979716055718590000009839425035379425966_)"/><path d="m425.095 379.442v14.678c0 8.094-5.417 15.187-13.225 17.323l-51.827 14.178c-68.11 18.634-139.977 18.634-208.087 0l-51.827-14.178c-7.808-2.137-13.225-9.23-13.225-17.323v-14.678l69.794 12.963c65.004 12.073 133.599 12.073 198.603 0z" fill="url(#SVGID_00000179632088508825793440000010642005916270329483_)"/><path d="m425.095 259.394v36.497l-69.794-5.083c-65.004-4.726-133.599-4.726-198.603 0l-69.794 5.083v-36.497l69.794-12.963c65.004-12.073 133.599-12.073 198.603 0z" fill="url(#SVGID_00000147199463462968287220000015756887558234170541_)"/><path d="m360.043 425.623 51.83-14.18c7.807-2.136 13.221-9.23 13.221-17.324v-149.401c0-8.094-5.414-15.189-13.221-17.324l-51.83-14.18c-34.055-9.317-69.049-13.975-104.043-13.975v240.359c34.994 0 69.988-4.659 104.043-13.975z" fill="url(#SVGID_00000102544135450679537670000006321785130219272377_)"/></g><g><path d="m360.584 191.351c-68.553-18.06-140.614-18.06-209.167 0l-66.747 17.584c-2.517.663-4.27 2.939-4.27 5.541v20.306c0 3.758 3.556 6.498 7.19 5.541l63.827-16.815c68.553-18.06 140.614-18.06 209.167 0l63.827 16.815c3.634.957 7.19-1.783 7.19-5.541v-20.306c0-2.602-1.754-4.878-4.27-5.541z" fill="url(#SVGID_00000176007205440832127370000010981736037133592213_)"/><path d="m360.584 191.351c-68.553-18.06-140.614-18.06-209.167 0l-66.747 17.584c-2.517.663-4.27 2.939-4.27 5.541v20.306c0 3.758 3.556 6.498 7.19 5.541l63.827-16.815c68.553-18.06 140.614-18.06 209.167 0l63.827 16.815c3.634.957 7.19-1.783 7.19-5.541v-20.306c0-2.602-1.754-4.878-4.27-5.541z" fill="url(#SVGID_00000095335599084527245310000008567471705924994434_)"/><path d="m360.584 223.508 63.827 16.815c3.634.957 7.19-1.783 7.19-5.541v-20.306c0-2.602-1.754-4.878-4.27-5.541l-66.746-17.584c-34.276-9.03-69.43-13.545-104.584-13.545v32.157c35.153 0 70.306 4.515 104.583 13.545z" fill="url(#SVGID_00000070079241116022170150000008776016802599017363_)"/></g></g></g></svg>