<svg id="_28_Pharmacy_Store" enable-background="new 0 0 512 512" viewBox="0 0 512 512" xmlns="http://www.w3.org/2000/svg" xmlns:xlink="http://www.w3.org/1999/xlink"><linearGradient id="lg1"><stop offset="0" stop-color="#f3faff"/><stop offset="1" stop-color="#d5daf3"/></linearGradient><linearGradient id="SVGID_1_" gradientTransform="matrix(1 0 0 -1 0 514)" gradientUnits="userSpaceOnUse" x1="215.579" x2="301.123" xlink:href="#lg1" y1="302.49" y2="34.098"/><linearGradient id="lg2"><stop offset="0" stop-color="#dbd5ef" stop-opacity="0"/><stop offset=".2667" stop-color="#d8d2ec" stop-opacity=".023"/><stop offset=".4431" stop-color="#d1c9e2" stop-opacity=".098"/><stop offset=".5933" stop-color="#c4b9d1" stop-opacity=".225"/><stop offset=".7288" stop-color="#b2a4ba" stop-opacity=".405"/><stop offset=".8545" stop-color="#9a889c" stop-opacity=".638"/><stop offset=".9713" stop-color="#7e6678" stop-opacity=".92"/><stop offset="1" stop-color="#765d6e"/></linearGradient><linearGradient id="SVGID_00000028286268844168530700000016793300714354993295_" gradientTransform="matrix(1 0 0 -1 0 514)" gradientUnits="userSpaceOnUse" x1="256" x2="256" xlink:href="#lg2" y1="53.614" y2="17.195"/><linearGradient id="SVGID_00000005975552298880960570000008836376123619183764_" gradientTransform="matrix(1 0 0 -1 0 514)" gradientUnits="userSpaceOnUse" x1="428.045" x2="495.038" xlink:href="#lg2" y1="175.67" y2="175.67"/><linearGradient id="lg3"><stop offset="0" stop-color="#c1e9af"/><stop offset=".1072" stop-color="#b6e4aa"/><stop offset=".2935" stop-color="#99d69e"/><stop offset=".5365" stop-color="#6bc18a"/><stop offset=".8238" stop-color="#2ca36f"/><stop offset="1" stop-color="#02905d"/></linearGradient><linearGradient id="SVGID_00000152263538772028627140000002118765873085265585_" gradientTransform="matrix(1 0 0 -1 0 514)" gradientUnits="userSpaceOnUse" x1="39.154" x2="464.738" xlink:href="#lg3" y1="119.299" y2="39.457"/><linearGradient id="SVGID_00000101071544123075175010000001814396023784785072_" gradientTransform="matrix(1 0 0 -1 0 514)" gradientUnits="userSpaceOnUse" x1="256" x2="256" xlink:href="#lg2" y1="249.297" y2="308.119"/><linearGradient id="lg4"><stop offset="0" stop-color="#99e6fc"/><stop offset=".1325" stop-color="#8ee1fb"/><stop offset=".3627" stop-color="#71d5f9"/><stop offset=".6631" stop-color="#43c2f5"/><stop offset="1" stop-color="#08a9f1"/></linearGradient><linearGradient id="SVGID_00000132769896803154564540000004936766659919349668_" gradientTransform="matrix(1 0 0 -1 0 514)" gradientUnits="userSpaceOnUse" x1="205.803" x2="310.933" xlink:href="#lg4" y1="168.785" y2="63.655"/><linearGradient id="SVGID_00000079479358583653593750000012170463210745130883_" gradientTransform="matrix(1 0 0 -1 0 514)" gradientUnits="userSpaceOnUse" x1="256" x2="256" y1="186.208" y2="212.826"><stop offset=".2143" stop-color="#2740b0" stop-opacity="0"/><stop offset=".4111" stop-color="#263fae" stop-opacity=".023"/><stop offset=".5474" stop-color="#253dab" stop-opacity=".095"/><stop offset=".6653" stop-color="#233ba4" stop-opacity=".218"/><stop offset=".7729" stop-color="#21379b" stop-opacity=".393"/><stop offset=".8734" stop-color="#1e3290" stop-opacity=".618"/><stop offset=".9674" stop-color="#1a2c82" stop-opacity=".89"/><stop offset="1" stop-color="#192a7d"/></linearGradient><linearGradient id="lg5"><stop offset="0" stop-color="#2740b0" stop-opacity="0"/><stop offset=".2505" stop-color="#263fae" stop-opacity=".023"/><stop offset=".4239" stop-color="#253dab" stop-opacity=".095"/><stop offset=".5741" stop-color="#233ba4" stop-opacity=".218"/><stop offset=".711" stop-color="#21379b" stop-opacity=".393"/><stop offset=".8389" stop-color="#1e3290" stop-opacity=".618"/><stop offset=".9585" stop-color="#1a2c82" stop-opacity=".89"/><stop offset="1" stop-color="#192a7d"/></linearGradient><linearGradient id="SVGID_00000036241499762433612630000004587247813680557459_" gradientTransform="matrix(1 0 0 -1 0 514)" gradientUnits="userSpaceOnUse" x1="213.832" x2="154.646" xlink:href="#lg5" y1="118.588" y2="118.588"/><linearGradient id="SVGID_00000161593927789468702610000005655766224341554842_" gradientTransform="matrix(1 0 0 -1 0 514)" gradientUnits="userSpaceOnUse" x1="71.44" x2="137.882" xlink:href="#lg4" y1="224.378" y2="157.937"/><linearGradient id="SVGID_00000008862752924023175590000006832900521087686017_" gradientTransform="matrix(1 0 0 -1 0 514)" gradientUnits="userSpaceOnUse" x1="103.165" x2="103.165" xlink:href="#lg5" y1="224.414" y2="265.312"/><linearGradient id="SVGID_00000127749146438824217800000005877233355546240432_" gradientTransform="matrix(1 0 0 -1 0 514)" gradientUnits="userSpaceOnUse" x1="71.524" x2="22.313" xlink:href="#lg5" y1="192.654" y2="192.654"/><linearGradient id="SVGID_00000066496077416078605410000007771999852536363414_" gradientTransform="matrix(1 0 0 -1 0 514)" gradientUnits="userSpaceOnUse" x1="377.111" x2="443.553" xlink:href="#lg4" y1="224.378" y2="157.937"/><linearGradient id="SVGID_00000086651601156305864540000016431852210285728136_" gradientTransform="matrix(1 0 0 -1 0 514)" gradientUnits="userSpaceOnUse" x1="408.836" x2="408.836" xlink:href="#lg5" y1="219.899" y2="260.797"/><linearGradient id="SVGID_00000106837066985254024210000007525366191365276588_" gradientTransform="matrix(1 0 0 -1 0 514)" gradientUnits="userSpaceOnUse" x1="378.62" x2="329.41" xlink:href="#lg5" y1="192.654" y2="192.654"/><linearGradient id="lg6"><stop offset="0" stop-color="#7a6d79"/><stop offset="1" stop-color="#593636"/></linearGradient><linearGradient id="SVGID_00000023282829194677965860000007717511173303200405_" gradientTransform="matrix(1 0 0 -1 0 514)" gradientUnits="userSpaceOnUse" x1="256" x2="256" xlink:href="#lg6" y1="18.028" y2="4.732"/><linearGradient id="SVGID_00000023254740893742479830000008604325078550808751_" gradientTransform="matrix(1 0 0 -1 0 514)" gradientUnits="userSpaceOnUse" x1="255.402" x2="256.279" xlink:href="#lg1" y1="413.922" y2="320.081"/><linearGradient id="SVGID_00000008851358467257527550000008117209741247731898_" gradientTransform="matrix(1 0 0 -1 0 514)" gradientUnits="userSpaceOnUse" x1="256" x2="256" xlink:href="#lg2" y1="345.555" y2="303.397"/><linearGradient id="SVGID_00000026850233439158857470000010467578873888457385_" gradientTransform="matrix(1 0 0 -1 0 514)" gradientUnits="userSpaceOnUse" x1="466.288" x2="511.969" xlink:href="#lg2" y1="349.922" y2="349.922"/><linearGradient id="SVGID_00000132808345107392496180000011063386526401236358_" gradientTransform="matrix(1 0 0 -1 0 514)" gradientUnits="userSpaceOnUse" x1="339.021" x2="305.516" xlink:href="#lg2" y1="323.078" y2="387.236"/><linearGradient id="SVGID_00000029032466649845571330000008366382421485932470_" gradientTransform="matrix(1 0 0 -1 0 514)" gradientUnits="userSpaceOnUse" x1="204.434" x2="311.38" xlink:href="#lg3" y1="470.258" y2="363.312"/><linearGradient id="lg7"><stop offset="0" stop-color="#026841" stop-opacity="0"/><stop offset=".2182" stop-color="#026841" stop-opacity=".033"/><stop offset=".4099" stop-color="#026841" stop-opacity=".137"/><stop offset=".5916" stop-color="#026841" stop-opacity=".31"/><stop offset=".7671" stop-color="#026841" stop-opacity=".553"/><stop offset=".9367" stop-color="#026841" stop-opacity=".864"/><stop offset="1" stop-color="#026841"/></linearGradient><linearGradient id="SVGID_00000076598284491128829840000012881846781575214721_" gradientTransform="matrix(1 0 0 -1 0 514)" gradientUnits="userSpaceOnUse" x1="257.65" x2="269.008" xlink:href="#lg7" y1="406.047" y2="322.76"/><linearGradient id="SVGID_00000028322848872481681310000006225486703161268109_" gradientTransform="matrix(1 0 0 -1 0 514)" gradientUnits="userSpaceOnUse" x1="258.055" x2="349.859" xlink:href="#lg7" y1="418.377" y2="404.181"/><linearGradient id="SVGID_00000173857245033250126560000007745841246223632567_" gradientTransform="matrix(1 0 0 -1 0 514)" gradientUnits="userSpaceOnUse" x1="288.935" x2="335.993" y1="385.757" y2="338.699"><stop offset="0" stop-color="#c1e9af" stop-opacity="0"/><stop offset=".1414" stop-color="#c1e9af" stop-opacity=".016"/><stop offset=".2738" stop-color="#c1e9af" stop-opacity=".065"/><stop offset=".4027" stop-color="#c1e9af" stop-opacity=".146"/><stop offset=".5294" stop-color="#c1e9af" stop-opacity=".26"/><stop offset=".6545" stop-color="#c1e9af" stop-opacity=".408"/><stop offset=".7785" stop-color="#c1e9af" stop-opacity=".589"/><stop offset=".8992" stop-color="#c1e9af" stop-opacity=".799"/><stop offset="1" stop-color="#c1e9af"/></linearGradient><linearGradient id="SVGID_00000085250533836303629260000016238456916924047500_" gradientTransform="matrix(1 0 0 -1 0 514)" gradientUnits="userSpaceOnUse" x1="256" x2="256" xlink:href="#lg6" y1="245.139" y2="206.644"/><g><path d="m492.92 411.57-13.19 26.36 13.19 21.27v44.15h-473.84v-44.15l10.12-21.63-10.12-26v-238.26h473.84z" fill="url(#SVGID_1_)"/><path d="m24.156 424.611 5.044 12.959-10.12 21.63v44.15h473.84v-44.15l-13.19-21.27 6.665-13.319z" fill="url(#SVGID_00000028286268844168530700000016793300714354993295_)"/><path d="m492.92 411.57-13.19 26.36 13.19 21.27v44.15h-145.91v-330.04h145.91z" fill="url(#SVGID_00000005975552298880960570000008836376123619183764_)"/><path d="m19.076 411.569h473.847v47.627h-473.847z" fill="url(#SVGID_00000152263538772028627140000002118765873085265585_)"/><path d="m19.076 173.31h473.847v154.254h-473.847z" fill="url(#SVGID_00000101071544123075175010000001814396023784785072_)"/><g><path d="m320.163 503.354h-128.326c-4.734 0-8.572-3.838-8.572-8.572v-198.74c0-4.734 3.838-8.572 8.572-8.572h128.325c4.734 0 8.572 3.838 8.572 8.572v198.741c0 4.733-3.837 8.571-8.571 8.571z" fill="url(#SVGID_00000132769896803154564540000004936766659919349668_)"/><g><path d="m328.734 343.759v-47.718c0-4.734-3.838-8.572-8.572-8.572h-128.325c-4.734 0-8.572 3.838-8.572 8.572v47.718z" fill="url(#SVGID_00000079479358583653593750000012170463210745130883_)"/><path d="m191.837 503.354h63.218v-215.884h-63.218c-4.734 0-8.572 3.838-8.572 8.572v198.741c.001 4.733 3.838 8.571 8.572 8.571z" fill="url(#SVGID_00000036241499762433612630000004587247813680557459_)"/></g></g><g><g><path d="m156.513 376.058h-106.697c-3.936 0-7.127-3.191-7.127-7.127v-95.17c0-3.936 3.191-7.127 7.127-7.127h106.697c3.936 0 7.127 3.191 7.127 7.127v95.17c0 3.936-3.191 7.127-7.127 7.127z" fill="url(#SVGID_00000161593927789468702610000005655766224341554842_)"/><g><path d="m163.64 313.436v-39.675c0-3.936-3.191-7.127-7.127-7.127h-106.697c-3.936 0-7.127 3.191-7.127 7.127v39.675z" fill="url(#SVGID_00000008862752924023175590000006832900521087686017_)"/><path d="m49.816 376.058h52.563v-109.424h-52.563c-3.936 0-7.127 3.191-7.127 7.127v95.17c0 3.936 3.191 7.127 7.127 7.127z" fill="url(#SVGID_00000127749146438824217800000005877233355546240432_)"/></g></g><g><path d="m462.184 376.058h-106.697c-3.936 0-7.127-3.191-7.127-7.127v-95.17c0-3.936 3.191-7.127 7.127-7.127h106.697c3.936 0 7.127 3.191 7.127 7.127v95.17c0 3.936-3.191 7.127-7.127 7.127z" fill="url(#SVGID_00000066496077416078605410000007771999852536363414_)"/><g><path d="m469.311 313.436v-39.675c0-3.936-3.191-7.127-7.127-7.127h-106.697c-3.936 0-7.127 3.191-7.127 7.127v39.675z" fill="url(#SVGID_00000086651601156305864540000016431852210285728136_)"/><path d="m355.487 376.058h52.563v-109.424h-52.563c-3.936 0-7.127 3.191-7.127 7.127v95.17c0 3.936 3.191 7.127 7.127 7.127z" fill="url(#SVGID_00000106837066985254024210000007525366191365276588_)"/></g></g></g><path d="m2.577 494.708h506.847c1.423 0 2.577 1.154 2.577 2.577v12.139c0 1.423-1.154 2.577-2.577 2.577h-506.847c-1.423-.001-2.577-1.155-2.577-2.578v-12.139c0-1.422 1.154-2.576 2.577-2.576z" fill="url(#SVGID_00000023282829194677965860000007717511173303200405_)"/><g><g><path d="m17.64 116.546h476.72c9.742 0 17.64 7.898 17.64 17.64v59.783c0 9.743-7.898 17.64-17.64 17.64h-476.72c-9.743 0-17.64-7.898-17.64-17.64v-59.783c0-9.742 7.898-17.64 17.64-17.64z" fill="url(#SVGID_00000023254740893742479830000008604325078550808751_)"/><path d="m0 135.01v58.959c0 9.743 7.898 17.64 17.64 17.64h476.72c9.743 0 17.64-7.898 17.64-17.64v-58.959z" fill="url(#SVGID_00000008851358467257527550000008117209741247731898_)"/><path d="m494.36 116.546h-143.304v95.064h143.304c9.743 0 17.64-7.898 17.64-17.64v-59.783c0-9.743-7.898-17.641-17.64-17.641z" fill="url(#SVGID_00000026850233439158857470000010467578873888457385_)"/></g><g><path d="m436.04 116.546h-202.072l-45.753 45.753 49.31 49.31h198.515z" fill="url(#SVGID_00000132808345107392496180000011063386526401236358_)"/><g><circle cx="256" cy="95.308" fill="url(#SVGID_00000029032466649845571330000008366382421485932470_)" r="95.308"/><path d="m305.319 78.472h-32.484v-32.483c0-4.751-3.852-8.603-8.603-8.603h-16.465c-4.751 0-8.603 3.852-8.603 8.603v32.484h-32.484c-4.751 0-8.603 3.852-8.603 8.603v16.465c0 4.751 3.852 8.603 8.603 8.603h32.484v32.484c0 4.751 3.852 8.603 8.603 8.603h16.465c4.751 0 8.603-3.852 8.603-8.603v-32.484h32.484c4.751 0 8.603-3.852 8.603-8.603v-16.465c0-4.752-3.851-8.604-8.603-8.604z" fill="#fff"/><path d="m160.692 95.308c0 52.637 42.671 95.308 95.308 95.308s95.308-42.671 95.308-95.308c0-2.635-.112-5.244-.322-7.825h-189.973c-.209 2.581-.321 5.19-.321 7.825z" fill="url(#SVGID_00000076598284491128829840000012881846781575214721_)"/><path d="m256 0c-6.14 0-12.142.588-17.959 1.697v187.222c5.817 1.109 11.819 1.697 17.959 1.697 52.637 0 95.308-42.671 95.308-95.308s-42.671-95.308-95.308-95.308z" fill="url(#SVGID_00000028322848872481681310000006225486703161268109_)"/><path d="m322.991 27.523-134.776 134.777c17.278 17.481 41.265 28.317 67.785 28.317 52.637 0 95.308-42.671 95.308-95.308 0-26.521-10.835-50.508-28.317-67.786z" fill="url(#SVGID_00000173857245033250126560000007745841246223632567_)"/></g></g></g><path d="m178.858 266.634h154.283c2.566 0 4.646 2.08 4.646 4.646v32.38c0 2.566-2.08 4.646-4.646 4.646h-154.283c-2.566 0-4.646-2.08-4.646-4.646v-32.38c0-2.566 2.08-4.646 4.646-4.646z" fill="url(#SVGID_00000085250533836303629260000016238456916924047500_)"/></g></svg>