<svg id="_29_Sanitary_Napkin" enable-background="new 0 0 512 512" viewBox="0 0 512 512" xmlns="http://www.w3.org/2000/svg" xmlns:xlink="http://www.w3.org/1999/xlink"><linearGradient id="lg1"><stop offset="0" stop-color="#f3faff"/><stop offset="1" stop-color="#d5daf3"/></linearGradient><linearGradient id="SVGID_1_" gradientTransform="matrix(.707 .707 .707 -.707 -220.093 251.35)" gradientUnits="userSpaceOnUse" x1="123.164" x2="224.199" xlink:href="#lg1" y1="372.074" y2="325.345"/><linearGradient id="lg2"><stop offset="0" stop-color="#dbd5ef" stop-opacity="0"/><stop offset=".2667" stop-color="#d8d2ec" stop-opacity=".023"/><stop offset=".4431" stop-color="#d1c9e2" stop-opacity=".098"/><stop offset=".5933" stop-color="#c4b9d1" stop-opacity=".225"/><stop offset=".7288" stop-color="#b2a4ba" stop-opacity=".405"/><stop offset=".8545" stop-color="#9a889c" stop-opacity=".638"/><stop offset=".9713" stop-color="#7e6678" stop-opacity=".92"/><stop offset="1" stop-color="#765d6e"/></linearGradient><linearGradient id="SVGID_00000151520947765730353110000009592244831591437467_" gradientTransform="matrix(1 0 0 -1 0 514)" gradientUnits="userSpaceOnUse" x1="106.509" x2="65.842" xlink:href="#lg2" y1="334.885" y2="288.219"/><linearGradient id="SVGID_00000110468463716307152270000012471987067972286353_" gradientTransform="matrix(.707 .707 .707 -.707 -220.093 251.35)" gradientUnits="userSpaceOnUse" x1="450.961" x2="539.367" xlink:href="#lg1" y1="363.679" y2="284.113"/><linearGradient id="SVGID_00000121979635846249516010000009284105662578492331_" gradientTransform="matrix(.707 .707 .707 -.707 -220.093 251.35)" gradientUnits="userSpaceOnUse" x1="491.968" x2="564.848" xlink:href="#lg2" y1="333.36" y2="333.36"/><linearGradient id="SVGID_00000174582725275667736930000015492009069939656370_" gradientTransform="matrix(-.707 -.707 .707 -.707 291.419 762.862)" gradientUnits="userSpaceOnUse" x1="225.217" x2="211.325" xlink:href="#lg2" y1="297.069" y2="223.818"/><linearGradient id="SVGID_00000180353110071894431260000016451119991529132678_" gradientTransform="matrix(.707 .707 .707 -.707 -220.093 251.35)" gradientUnits="userSpaceOnUse" x1="233.487" x2="444.024" xlink:href="#lg1" y1="333.36" y2="333.36"/><linearGradient id="SVGID_00000003806436075502168590000016978624646982828686_" gradientTransform="matrix(.707 .707 .707 -.707 -220.093 251.35)" gradientUnits="userSpaceOnUse" x1="294.858" x2="485.141" xlink:href="#lg1" y1="343.732" y2="299.95"/><linearGradient id="SVGID_00000078038883980509636100000015320367432112849808_" gradientTransform="matrix(.707 .707 .707 -.707 -220.093 251.35)" gradientUnits="userSpaceOnUse" x1="366.044" x2="214.492" y1="327.704" y2="360.54"><stop offset="0" stop-color="#fff" stop-opacity="0"/><stop offset=".0925" stop-color="#fff" stop-opacity=".024"/><stop offset=".2178" stop-color="#fff" stop-opacity=".092"/><stop offset=".3619" stop-color="#fff" stop-opacity=".203"/><stop offset=".52" stop-color="#fff" stop-opacity=".359"/><stop offset=".6897" stop-color="#fff" stop-opacity=".559"/><stop offset=".8661" stop-color="#fff" stop-opacity=".798"/><stop offset="1" stop-color="#fff"/></linearGradient><linearGradient id="SVGID_00000010269187671588863430000002648979939124720789_" gradientTransform="matrix(.707 .707 .707 -.707 -220.093 251.35)" gradientUnits="userSpaceOnUse" x1="339.936" x2="339.936" xlink:href="#lg2" y1="177.843" y2="26.207"/><linearGradient id="SVGID_00000067931949218613824450000014582720215918300555_" gradientTransform="matrix(.707 .707 .707 -.707 -220.093 251.35)" gradientUnits="userSpaceOnUse" x1="354.729" x2="503.867" xlink:href="#lg2" y1="333.36" y2="333.36"/><linearGradient id="SVGID_00000062908301626522949920000000689251416695890098_" gradientTransform="matrix(.707 .707 .707 -.707 -220.093 251.35)" gradientUnits="userSpaceOnUse" x1="286.53" x2="402.763" y1="333.36" y2="333.36"><stop offset="0" stop-color="#99e6fc"/><stop offset=".1325" stop-color="#8ee1fb"/><stop offset=".3627" stop-color="#71d5f9"/><stop offset=".6631" stop-color="#43c2f5"/><stop offset="1" stop-color="#08a9f1"/></linearGradient><linearGradient id="lg3"><stop offset="0" stop-color="#2740b0" stop-opacity="0"/><stop offset=".2505" stop-color="#263fae" stop-opacity=".023"/><stop offset=".4239" stop-color="#253dab" stop-opacity=".095"/><stop offset=".5741" stop-color="#233ba4" stop-opacity=".218"/><stop offset=".711" stop-color="#21379b" stop-opacity=".393"/><stop offset=".8389" stop-color="#1e3290" stop-opacity=".618"/><stop offset=".9585" stop-color="#1a2c82" stop-opacity=".89"/><stop offset="1" stop-color="#192a7d"/></linearGradient><linearGradient id="SVGID_00000109021693296731039010000011975552064256356230_" gradientTransform="matrix(1 0 0 -1 0 514)" gradientUnits="userSpaceOnUse" x1="222.668" x2="190.351" xlink:href="#lg3" y1="258.558" y2="327.944"/><linearGradient id="SVGID_00000181060186841836455150000010956864251313559734_" gradientTransform="matrix(-.707 .707 -.707 -.707 428.358 1611.541)" gradientUnits="userSpaceOnUse" x1="-997.347" x2="-877.724" xlink:href="#lg3" y1="1146.133" y2="1026.509"/><linearGradient id="SVGID_00000039094392006668968410000008232514688859977353_" gradientTransform="matrix(-.707 .707 -.707 -.707 428.358 1611.541)" gradientUnits="userSpaceOnUse" x1="-949.865" x2="-830.241" xlink:href="#lg3" y1="1173.729" y2="1054.105"/><linearGradient id="SVGID_00000155119851885391044830000006039678939690914694_" gradientTransform="matrix(-.707 .707 -.707 -.707 428.358 1611.541)" gradientUnits="userSpaceOnUse" x1="-949.865" x2="-830.241" xlink:href="#lg3" y1="1118.537" y2="998.914"/><linearGradient id="SVGID_00000036952910162790916290000009948869693749430924_" gradientTransform="matrix(-.707 .707 -.707 -.707 428.358 1611.541)" gradientUnits="userSpaceOnUse" x1="-902.382" x2="-782.758" xlink:href="#lg3" y1="1146.133" y2="1026.509"/><linearGradient id="SVGID_00000047763619051441240070000005972815471931499449_" gradientTransform="matrix(-.707 .707 -.707 -.707 428.358 1611.541)" gradientUnits="userSpaceOnUse" x1="-854.899" x2="-735.275" xlink:href="#lg3" y1="1173.729" y2="1054.105"/><linearGradient id="SVGID_00000072983795210041795710000001914712394348716930_" gradientTransform="matrix(-.707 .707 -.707 -.707 428.358 1611.541)" gradientUnits="userSpaceOnUse" x1="-854.899" x2="-735.275" xlink:href="#lg3" y1="1118.537" y2="998.914"/><linearGradient id="SVGID_00000002356682309377811050000003086149603769212040_" gradientTransform="matrix(-.707 .707 -.707 -.707 428.358 1611.541)" gradientUnits="userSpaceOnUse" x1="-807.416" x2="-687.792" xlink:href="#lg3" y1="1146.133" y2="1026.509"/><linearGradient id="SVGID_00000077291620091913520260000003390812871598355121_" gradientTransform="matrix(.707 .707 .707 -.707 -220.093 251.35)" gradientUnits="userSpaceOnUse" x1="339.936" x2="339.936" xlink:href="#lg3" y1="198.405" y2="157.851"/><linearGradient id="SVGID_00000134961656822456408260000004409656496502263945_" gradientTransform="matrix(.707 .707 .707 -.707 -220.093 251.35)" gradientUnits="userSpaceOnUse" x1="377.938" x2="418.78" xlink:href="#lg3" y1="333.36" y2="333.36"/><linearGradient id="SVGID_00000065760409790988600260000006571766713267896196_" gradientTransform="matrix(1 0 0 -1 0 514)" gradientUnits="userSpaceOnUse" x1="223.258" x2="266.418" y1="369.672" y2="321.821"><stop offset="0" stop-color="#fe646f"/><stop offset=".235" stop-color="#fa5964"/><stop offset=".6415" stop-color="#ef3d49"/><stop offset="1" stop-color="#e41f2d"/></linearGradient><linearGradient id="lg4"><stop offset="0" stop-color="#a72b2b" stop-opacity="0"/><stop offset=".1561" stop-color="#a32b2a" stop-opacity=".066"/><stop offset=".386" stop-color="#982c29" stop-opacity=".248"/><stop offset=".6615" stop-color="#872f28" stop-opacity=".545"/><stop offset=".97" stop-color="#6f3226" stop-opacity=".956"/><stop offset="1" stop-color="#6d3326"/></linearGradient><linearGradient id="SVGID_00000101064979294432321810000001337963328493930907_" gradientTransform="matrix(1 0 0 -1 0 514)" gradientUnits="userSpaceOnUse" x1="238.541" x2="238.541" xlink:href="#lg4" y1="354.231" y2="304.955"/><linearGradient id="SVGID_00000022558700590896905620000006445073139922992555_" gradientTransform="matrix(1 0 0 -1 0 514)" gradientUnits="userSpaceOnUse" x1="238.28" x2="282.3" xlink:href="#lg4" y1="358.679" y2="362.718"/><linearGradient id="SVGID_00000131360573045079807970000014417387562465586319_" gradientTransform="matrix(1 0 0 -1 0 514)" gradientUnits="userSpaceOnUse" x1="256.932" x2="280.219" y1="337.336" y2="316.188"><stop offset="0" stop-color="#e41f2d" stop-opacity="0"/><stop offset=".0725" stop-color="#e62533" stop-opacity=".093"/><stop offset=".3356" stop-color="#ee3b48" stop-opacity=".411"/><stop offset=".5691" stop-color="#f54c58" stop-opacity=".664"/><stop offset=".7644" stop-color="#f95964" stop-opacity=".846"/><stop offset=".914" stop-color="#fc616c" stop-opacity=".958"/><stop offset="1" stop-color="#fe646f"/></linearGradient><g><g><g><path d="m98.902 265.199-55.432-83.054c-5.102-7.645-4.097-17.829 2.403-24.328l111.943-111.945c6.499-6.499 16.683-7.505 24.328-2.403l83.055 55.432z" fill="url(#SVGID_1_)"/><path d="m110.84 92.848-64.968 64.968c-6.499 6.499-7.505 16.683-2.403 24.328l55.432 83.055 92.145-92.145z" fill="url(#SVGID_00000151520947765730353110000009592244831591437467_)"/></g><g><path d="m246.801 413.098 83.055 55.432c7.645 5.102 17.829 4.097 24.328-2.403l111.944-111.944c6.499-6.499 7.505-16.683 2.403-24.328l-55.432-83.055z" fill="url(#SVGID_00000110468463716307152270000012471987067972286353_)"/><path d="m246.801 413.098 83.055 55.432c7.645 5.102 17.829 4.097 24.328-2.403l111.944-111.944c6.499-6.499 7.505-16.683 2.403-24.328l-55.432-83.055z" fill="url(#SVGID_00000121979635846249516010000009284105662578492331_)"/><path d="m419.152 401.16-64.968 64.968c-6.499 6.499-16.683 7.505-24.328 2.403l-83.055-55.432 92.145-92.145z" fill="url(#SVGID_00000174582725275667736930000015492009069939656370_)"/></g></g><g><g><path d="m390.488 310.01c28.884-6.676 56.246-21.613 78.317-44.812 58.162-61.132 57.243-158.317-2-218.402-61.256-62.126-161.28-62.393-222.87-.803-21.56 21.56-35.539 47.828-41.938 75.495-9.225 39.884-40.599 71.283-80.484 80.502-28.884 6.676-56.246 21.613-78.317 44.812-58.162 61.132-57.243 158.317 2 218.402 61.256 62.126 161.28 62.393 222.87.803 21.56-21.56 35.539-47.828 41.938-75.495 9.225-39.884 40.599-71.284 80.484-80.502z" fill="url(#SVGID_00000180353110071894431260000016451119991529132678_)"/><path d="m353.31 284.227c22.658-7.867 44.95-21.885 64.005-41.69 50.212-52.191 58.862-126.176 19.487-166.273-40.712-41.459-116.925-32.04-169.794 20.83-18.507 18.507-31.689 39.874-39.228 61.577-10.869 31.287-37.802 58.238-69.089 69.102-22.658 7.867-44.95 21.885-64.004 41.69-50.212 52.191-58.862 126.176-19.487 166.273 40.713 41.459 116.925 32.04 169.794-20.83 18.507-18.507 31.689-39.874 39.228-61.577 10.867-31.287 37.801-58.238 69.088-69.102z" fill="url(#SVGID_00000003806436075502168590000016978624646982828686_)"/><path d="m353.31 284.227c22.658-7.867 44.95-21.885 64.005-41.69 50.212-52.191 58.862-126.176 19.487-166.273-40.712-41.459-116.925-32.04-169.794 20.83-18.507 18.507-31.689 39.874-39.228 61.577-10.869 31.287-37.802 58.238-69.089 69.102-22.658 7.867-44.95 21.885-64.004 41.69-50.212 52.191-58.862 126.176-19.487 166.273 40.713 41.459 116.925 32.04 169.794-20.83 18.507-18.507 31.689-39.874 39.228-61.577 10.867-31.287 37.801-58.238 69.088-69.102z" fill="url(#SVGID_00000078038883980509636100000015320367432112849808_)"/><path d="m43.195 246.803c-58.162 61.132-57.244 158.317 2 218.402 61.256 62.126 161.28 62.393 222.87.803 7.614-7.614 14.263-15.826 19.987-24.469l-217.6-217.6c-9.711 6.429-18.868 14.046-27.257 22.864z" fill="url(#SVGID_00000010269187671588863430000002648979939124720789_)"/><path d="m390.488 310.01c28.884-6.676 56.246-21.613 78.317-44.812 58.162-61.132 57.243-158.317-2-218.402-11.477-11.64-24.315-21.108-38.006-28.405l-410.357 410.356c6.945 13.103 15.859 25.409 26.753 36.458 61.256 62.126 161.28 62.393 222.87.803 21.56-21.56 35.539-47.828 41.938-75.495 9.226-39.885 40.6-71.284 80.485-80.503z" fill="url(#SVGID_00000067931949218613824450000014582720215918300555_)"/></g><g><path d="m344.493 114.686 52.821 52.821c10.074 10.074 10.074 26.408 0 36.482l-193.325 193.325c-10.074 10.074-26.408 10.074-36.482 0l-52.821-52.821c-10.074-10.074-10.074-26.408 0-36.482l193.325-193.325c10.074-10.074 26.408-10.074 36.482 0z" fill="url(#SVGID_00000062908301626522949920000000689251416695890098_)"/><path d="m364.96 236.35-160.97 160.96c-10.08 10.08-26.41 10.08-36.48 0l-52.82-52.82c-10.08-10.07-10.08-26.4 0-36.48l160.97-160.96z" fill="url(#SVGID_00000109021693296731039010000011975552064256356230_)"/><g><g><circle cx="323.151" cy="188.849" fill="url(#SVGID_00000181060186841836455150000010956864251313559734_)" r="12.722"/><g><circle cx="270.062" cy="202.911" fill="url(#SVGID_00000039094392006668968410000008232514688859977353_)" r="12.722"/><circle cx="309.089" cy="241.938" fill="url(#SVGID_00000155119851885391044830000006039678939690914694_)" r="12.722"/></g><circle cx="256" cy="256" fill="url(#SVGID_00000036952910162790916290000009948869693749430924_)" r="12.722"/></g><g><g><circle cx="202.911" cy="270.062" fill="url(#SVGID_00000047763619051441240070000005972815471931499449_)" r="12.722"/><circle cx="241.938" cy="309.089" fill="url(#SVGID_00000072983795210041795710000001914712394348716930_)" r="12.722"/></g><circle cx="188.849" cy="323.151" fill="url(#SVGID_00000002356682309377811050000003086149603769212040_)" r="12.722"/></g></g><path d="m160.867 261.829-46.182 46.182c-10.074 10.074-10.074 26.408 0 36.482l52.821 52.821c10.074 10.074 26.408 10.074 36.482 0l46.182-46.182z" fill="url(#SVGID_00000077291620091913520260000003390812871598355121_)"/><path d="m397.314 167.507-45.924-45.924-229.807 229.808 45.924 45.924c10.074 10.074 26.408 10.074 36.482 0l193.325-193.325c10.074-10.075 10.074-26.409 0-36.483z" fill="url(#SVGID_00000134961656822456408260000004409656496502263945_)"/></g></g><g><path d="m279.57 164.346c0 22.66-18.37 41.03-41.03 41.03s-41.03-18.37-41.03-41.03 27.641-59.272 41.03-59.272 41.03 36.612 41.03 59.272z" fill="url(#SVGID_00000065760409790988600260000006571766713267896196_)"/><path d="m197.51 164.346c0 22.66 18.37 41.03 41.03 41.03s41.03-18.37 41.03-41.03c0-7.57-3.094-16.696-7.702-25.495h-66.657c-4.607 8.799-7.7 17.925-7.701 25.495z" fill="url(#SVGID_00000101064979294432321810000001337963328493930907_)"/><path d="m238.54 105.074c-2.845 0-6.337 1.666-10.068 4.487v94.567c3.222.813 6.593 1.249 10.068 1.249 22.66 0 41.03-18.37 41.03-41.03s-27.641-59.273-41.03-59.273z" fill="url(#SVGID_00000022558700590896905620000006445073139922992555_)"/><path d="m279.57 164.346c0 22.66-18.37 41.03-41.03 41.03s-41.03-18.37-41.03-41.03 27.641-59.272 41.03-59.272 41.03 36.612 41.03 59.272z" fill="url(#SVGID_00000131360573045079807970000014417387562465586319_)"/></g></g></svg>