<svg id="_30_Eye_Drop" enable-background="new 0 0 512 512" viewBox="0 0 512 512" xmlns="http://www.w3.org/2000/svg" xmlns:xlink="http://www.w3.org/1999/xlink"><linearGradient id="SVGID_1_" gradientTransform="matrix(1 0 0 -1 0 514)" gradientUnits="userSpaceOnUse" x1="174.527" x2="202.032" y1="223.527" y2="196.023"><stop offset="0" stop-color="#f3faff"/><stop offset="1" stop-color="#d5daf3"/></linearGradient><linearGradient id="lg1"><stop offset="0" stop-color="#dbd5ef" stop-opacity="0"/><stop offset=".2667" stop-color="#d8d2ec" stop-opacity=".023"/><stop offset=".4431" stop-color="#d1c9e2" stop-opacity=".098"/><stop offset=".5933" stop-color="#c4b9d1" stop-opacity=".225"/><stop offset=".7288" stop-color="#b2a4ba" stop-opacity=".405"/><stop offset=".8545" stop-color="#9a889c" stop-opacity=".638"/><stop offset=".9713" stop-color="#7e6678" stop-opacity=".92"/><stop offset="1" stop-color="#765d6e"/></linearGradient><linearGradient id="SVGID_00000059294394129236289020000017150042353368330628_" gradientTransform="matrix(1 0 0 -1 0 514)" gradientUnits="userSpaceOnUse" x1="182.527" x2="228.162" xlink:href="#lg1" y1="215.527" y2="169.893"/><linearGradient id="SVGID_00000127027144461606486840000015855473973652048551_" gradientTransform="matrix(1 0 0 -1 0 514)" gradientUnits="userSpaceOnUse" x1="263.963" x2="315.94" xlink:href="#lg1" y1="277.1" y2="329.077"/><linearGradient id="lg2"><stop offset="0" stop-color="#7a6d79"/><stop offset="1" stop-color="#593636"/></linearGradient><linearGradient id="SVGID_00000176737933469704756010000012488976545047646594_" gradientTransform="matrix(.707 .707 .707 -.707 -84.606 307.47)" gradientUnits="userSpaceOnUse" x1="165.481" x2="229.079" xlink:href="#lg2" y1="493.409" y2="493.409"/><linearGradient id="lg3"><stop offset="0" stop-color="#593636" stop-opacity="0"/><stop offset="1"/></linearGradient><linearGradient id="SVGID_00000029758067350528551480000014457643435895805877_" gradientTransform="matrix(.707 .707 .707 -.707 -84.606 307.47)" gradientUnits="userSpaceOnUse" x1="188.579" x2="248.91" xlink:href="#lg3" y1="496.661" y2="480.355"/><linearGradient id="SVGID_00000039109381315064671390000015684261108346036912_" gradientTransform="matrix(.707 .707 .707 -.707 -84.606 307.47)" gradientUnits="userSpaceOnUse" x1="196.578" x2="196.578" xlink:href="#lg3" y1="481.688" y2="429.485"/><linearGradient id="SVGID_00000037655522083959505520000011740099204838611100_" gradientTransform="matrix(.707 .707 .707 -.707 -84.606 307.47)" gradientUnits="userSpaceOnUse" x1="165.696" x2="228.854" xlink:href="#lg2" y1="411.199" y2="411.199"/><linearGradient id="SVGID_00000149362784265511140080000007773672469810567554_" gradientTransform="matrix(.707 .707 .707 -.707 -84.607 307.47)" gradientUnits="userSpaceOnUse" x1="152.735" x2="136.413" xlink:href="#lg2" y1="405.673" y2="405.673"/><linearGradient id="SVGID_00000139981109665773701970000018171241025348224425_" gradientTransform="matrix(.707 .707 .707 -.707 -84.606 307.47)" gradientUnits="userSpaceOnUse" x1="186.071" x2="169.749" xlink:href="#lg2" y1="405.673" y2="405.673"/><linearGradient id="SVGID_00000114757478916806838770000015735841385444098491_" gradientTransform="matrix(.707 .707 .707 -.707 -84.606 307.47)" gradientUnits="userSpaceOnUse" x1="219.407" x2="203.086" xlink:href="#lg2" y1="405.673" y2="405.673"/><linearGradient id="SVGID_00000132050112195754571660000016611533270837122745_" gradientTransform="matrix(.707 .707 .707 -.707 -84.606 307.47)" gradientUnits="userSpaceOnUse" x1="252.744" x2="236.422" xlink:href="#lg2" y1="405.673" y2="405.673"/><linearGradient id="SVGID_00000116230843362374249480000015499155948994791300_" gradientTransform="matrix(.707 .707 .707 -.707 -84.606 307.47)" gradientUnits="userSpaceOnUse" x1="196.575" x2="196.575" xlink:href="#lg3" y1="412.324" y2="374.916"/><linearGradient id="SVGID_00000009589715193647386420000010436974089386761912_" gradientTransform="matrix(.707 .707 .707 -.707 -84.606 307.47)" gradientUnits="userSpaceOnUse" x1="218.656" x2="273.179" xlink:href="#lg3" y1="411.199" y2="411.199"/><linearGradient id="SVGID_00000027592488678801571850000010201106926993345182_" gradientTransform="matrix(.707 .707 .707 -.707 -84.606 307.47)" gradientUnits="userSpaceOnUse" x1="196.575" x2="196.575" xlink:href="#lg2" y1="387.705" y2="363.409"/><linearGradient id="SVGID_00000052082851660353750280000003084895494235135156_" gradientTransform="matrix(.707 .707 .707 -.707 -84.606 307.47)" gradientUnits="userSpaceOnUse" x1="196.575" x2="196.575" xlink:href="#lg3" y1="376.432" y2="360.49"/><linearGradient id="SVGID_00000078041748765131809570000006408148092010539175_" gradientTransform="matrix(.707 .707 .707 -.707 -84.606 307.47)" gradientUnits="userSpaceOnUse" x1="244.172" x2="293.939" xlink:href="#lg3" y1="375.868" y2="375.868"/><linearGradient id="SVGID_00000093158356315078502350000012335765101665545904_" gradientTransform="matrix(1 0 0 -1 0 514)" gradientUnits="userSpaceOnUse" x1="27.402" x2="54.669" y1="40.569" y2="10.338"><stop offset="0" stop-color="#fef0ae"/><stop offset="1" stop-color="#fac600"/></linearGradient><linearGradient id="lg4"><stop offset="0" stop-color="#fe9738" stop-opacity="0"/><stop offset=".1648" stop-color="#fe9637" stop-opacity=".012"/><stop offset=".2957" stop-color="#fe9535" stop-opacity=".052"/><stop offset=".415" stop-color="#fe9331" stop-opacity=".118"/><stop offset=".5274" stop-color="#fe902c" stop-opacity=".211"/><stop offset=".635" stop-color="#fe8c25" stop-opacity=".331"/><stop offset=".739" stop-color="#fe871d" stop-opacity=".479"/><stop offset=".8401" stop-color="#fe8213" stop-opacity=".655"/><stop offset=".9364" stop-color="#fe7b09" stop-opacity=".852"/><stop offset="1" stop-color="#fe7701"/></linearGradient><linearGradient id="SVGID_00000158003931020963306110000007423889812683995281_" gradientTransform="matrix(1 0 0 -1 0 514)" gradientUnits="userSpaceOnUse" x1="37.057" x2="37.057" xlink:href="#lg4" y1="30.814" y2="-.318"/><linearGradient id="SVGID_00000180340609112401098900000010861376175533223357_" gradientTransform="matrix(1 0 0 -1 0 514)" gradientUnits="userSpaceOnUse" x1="36.892" x2="64.703" xlink:href="#lg4" y1="33.624" y2="36.175"/><linearGradient id="SVGID_00000093157130616597497650000014930906421018561211_" gradientTransform="matrix(1 0 0 -1 0 514)" gradientUnits="userSpaceOnUse" x1="44.191" x2="62.66" y1="23.649" y2="5.971"><stop offset="0" stop-color="#fac600" stop-opacity="0"/><stop offset=".1175" stop-color="#fac602" stop-opacity=".017"/><stop offset=".2423" stop-color="#fac80b" stop-opacity=".067"/><stop offset=".3705" stop-color="#facc1a" stop-opacity=".151"/><stop offset=".5011" stop-color="#fbd12e" stop-opacity=".268"/><stop offset=".6336" stop-color="#fbd748" stop-opacity=".419"/><stop offset=".7676" stop-color="#fcdf69" stop-opacity=".604"/><stop offset=".9003" stop-color="#fde88e" stop-opacity=".819"/><stop offset="1" stop-color="#fef0ae"/></linearGradient><g><g><path d="m354.499 212.381-141.451 141.451c-5.008 5.008-10.743 9.149-16.983 12.313-6.233 3.164-12.97 5.346-19.968 6.431-13.991 2.163-26.935 8.727-36.951 18.737l-54.856 54.862c-5.053 5.053-12.365 7.123-19.317 5.469l-.806-.192c-7.79-1.854-13.798-8.06-15.398-15.906-1.381-6.769.727-13.78 5.613-18.665l55.169-55.163c5.002-5.008 9.148-10.75 12.313-16.983 3.164-6.239 5.346-12.97 6.424-19.969 2.169-13.997 8.734-26.941 18.744-36.951l141.451-141.451c4.859-4.859 12.736-4.859 17.595 0l48.422 48.422c4.854 4.855 4.854 12.74-.001 17.595z" fill="url(#SVGID_1_)"/><path d="m64.972 451.644c6.952 1.655 14.264-.416 19.317-5.469l54.856-54.862c10.016-10.01 22.961-16.574 36.951-18.737 6.999-1.085 13.735-3.266 19.969-6.431 6.239-3.164 11.975-7.305 16.983-12.313l141.451-141.451c4.855-4.855 4.855-12.74 0-17.595l-33.421-33.421-4.443.762-268.254 268.254c-.088 1.711.036 3.446.386 5.165 1.6 7.846 7.608 14.052 15.398 15.906z" fill="url(#SVGID_00000059294394129236289020000017150042353368330628_)"/><path d="m274.96 291.92 79.539-79.539c4.855-4.855 4.855-12.74 0-17.595l-48.422-48.422c-4.859-4.859-12.736-4.859-17.595 0l-79.538 79.539z" fill="url(#SVGID_00000127027144461606486840000015855473973652048551_)"/><g><path d="m473.556 122.7c-39.761 15.586-75.413 39.885-104.375 70.992l-62.011-62.011c31.108-28.962 55.406-64.615 70.992-104.375 11.295-28.838 48.462-36.612 70.356-14.718l39.755 39.755c17.5 17.5 16.044 44.748.043 60.749-4.026 4.028-8.959 7.344-14.76 9.608z" fill="url(#SVGID_00000176737933469704756010000012488976545047646594_)"/><path d="m488.274 52.344-38.176-38.176-130.221 130.221 49.304 49.304c28.962-31.108 64.615-55.406 104.375-70.992 5.801-2.264 10.734-5.58 14.761-9.607 16.002-16.002 17.458-43.25-.043-60.75z" fill="url(#SVGID_00000029758067350528551480000014457643435895805877_)"/><path d="m477.821 120.768-97.721-97.722c-.709 1.365-1.359 2.784-1.937 4.261-15.586 39.761-39.885 75.413-70.992 104.375l62.011 62.011c28.962-31.108 64.615-55.406 104.375-70.992 1.478-.578 2.899-1.225 4.264-1.933z" fill="url(#SVGID_00000039109381315064671390000015684261108346036912_)"/><path d="m339.033 96.615 65.215 65.215c9.559 9.559 9.559 25.079 0 34.638l-35.654 35.654-99.853-99.853 35.654-35.654c9.559-9.559 25.08-9.559 34.638 0z" fill="url(#SVGID_00000037655522083959505520000011740099204838611100_)"/><g><path d="m328.468 101.678c3.155 3.155 3.155 8.277 0 11.431l-39.443 39.443-11.431-11.431 39.443-39.443c3.155-3.154 8.277-3.154 11.431 0z" fill="url(#SVGID_00000149362784265511140080000007773672469810567554_)"/><path d="m352.04 125.251c3.155 3.155 3.155 8.277 0 11.431l-39.443 39.443-11.431-11.431 39.443-39.443c3.155-3.155 8.277-3.155 11.431 0z" fill="url(#SVGID_00000139981109665773701970000018171241025348224425_)"/><path d="m375.613 148.823c3.155 3.155 3.155 8.277 0 11.431l-39.443 39.443-11.431-11.431 39.443-39.443c3.154-3.155 8.276-3.155 11.431 0z" fill="url(#SVGID_00000114757478916806838770000015735841385444098491_)"/><path d="m399.185 172.395c3.155 3.155 3.155 8.277 0 11.431l-39.443 39.443-11.431-11.431 39.443-39.443c3.154-3.155 8.276-3.155 11.431 0z" fill="url(#SVGID_00000132050112195754571660000016611533270837122745_)"/></g><path d="m304.395 96.615-35.654 35.654 99.853 99.853 35.654-35.654c.2-.2.39-.406.581-.611l-99.823-99.823c-.205.191-.411.381-.611.581z" fill="url(#SVGID_00000116230843362374249480000015499155948994791300_)"/><path d="m404.248 161.83-32.605-32.605-52.973 52.973 49.925 49.925 35.654-35.654c9.564-9.566 9.564-25.074-.001-34.639z" fill="url(#SVGID_00000009589715193647386420000010436974089386761912_)"/><g><path d="m273.844 114.435 112.584 112.584c5.503 5.503 5.503 14.425 0 19.928-5.503 5.503-14.425 5.503-19.928 0l-112.584-112.584c-5.503-5.503-5.503-14.425 0-19.928 5.503-5.503 14.425-5.503 19.928 0z" fill="url(#SVGID_00000027592488678801571850000010201106926993345182_)"/><path d="m386.424 246.948c-2.751 2.751-6.351 4.126-9.963 4.126s-7.212-1.375-9.963-4.126l-112.582-112.583c-5.501-5.501-5.501-14.424 0-19.926.973-.973 2.046-1.767 3.187-2.393l131.714 131.714c-.626 1.141-1.42 2.215-2.393 3.188z" fill="url(#SVGID_00000052082851660353750280000003084895494235135156_)"/><path d="m386.428 227.019-38.18-38.18-19.928 19.928 38.18 38.18c5.503 5.503 14.425 5.503 19.928 0 5.503-5.503 5.503-14.425 0-19.928z" fill="url(#SVGID_00000078041748765131809570000006408148092010539175_)"/></g></g></g><g><path d="m62.978 486.079c0 14.316-11.605 25.921-25.921 25.921s-25.921-11.605-25.921-25.921 17.463-37.446 25.921-37.446 25.921 23.13 25.921 37.446z" fill="url(#SVGID_00000093158356315078502350000012335765101665545904_)"/><path d="m11.135 486.079c0 14.316 11.605 25.921 25.921 25.921s25.921-11.605 25.921-25.921c0-4.783-1.955-10.548-4.866-16.107h-42.11c-2.911 5.559-4.866 11.324-4.866 16.107z" fill="url(#SVGID_00000158003931020963306110000007423889812683995281_)"/><path d="m37.057 448.632c-1.798 0-4.003 1.052-6.36 2.835v59.744c2.035.513 4.165.789 6.36.789 14.316 0 25.921-11.605 25.921-25.921s-17.463-37.447-25.921-37.447z" fill="url(#SVGID_00000180340609112401098900000010861376175533223357_)"/><path d="m62.978 486.079c0 14.316-11.605 25.921-25.921 25.921s-25.921-11.605-25.921-25.921 17.463-37.446 25.921-37.446 25.921 23.13 25.921 37.446z" fill="url(#SVGID_00000093157130616597497650000014930906421018561211_)"/></g></g></svg>