<svg id="_31_Clipboard" enable-background="new 0 0 512 512" viewBox="0 0 512 512" xmlns="http://www.w3.org/2000/svg" xmlns:xlink="http://www.w3.org/1999/xlink"><linearGradient id="SVGID_1_" gradientTransform="matrix(0 1 -1 0 248.815 -313.822)" gradientUnits="userSpaceOnUse" x1="438.331" x2="732.952" y1="144.248" y2="-195.056"><stop offset="0" stop-color="#e5caf3"/><stop offset=".1585" stop-color="#ddbfee"/><stop offset=".4338" stop-color="#caa2e0"/><stop offset=".7905" stop-color="#ac75cb"/><stop offset="1" stop-color="#9857bd"/></linearGradient><linearGradient id="lg1"><stop offset="0" stop-color="#814aa0" stop-opacity="0"/><stop offset=".1758" stop-color="#7f499e" stop-opacity=".038"/><stop offset=".3644" stop-color="#7b4699" stop-opacity=".149"/><stop offset=".559" stop-color="#744291" stop-opacity=".333"/><stop offset=".7577" stop-color="#6a3c85" stop-opacity=".592"/><stop offset=".9577" stop-color="#5d3477" stop-opacity=".922"/><stop offset="1" stop-color="#5b3374"/></linearGradient><linearGradient id="SVGID_00000054949309214873748890000010963108896635167895_" gradientTransform="matrix(0 1 -1 0 248.815 -313.822)" gradientUnits="userSpaceOnUse" x1="569.822" x2="569.822" xlink:href="#lg1" y1="-123.945" y2="-200.755"/><linearGradient id="SVGID_00000037684301655278106440000004754458368062894229_" gradientTransform="matrix(1 0 0 -1 0 514)" gradientUnits="userSpaceOnUse" x1="344.327" x2="293.968" xlink:href="#lg1" y1="486.005" y2="486.005"/><linearGradient id="SVGID_00000054264017036927200650000009967569286669237164_" gradientTransform="matrix(0 1 -1 0 248.815 -313.822)" gradientUnits="userSpaceOnUse" x1="769.352" x2="829.539" xlink:href="#lg1" y1="-7.185" y2="-7.185"/><linearGradient id="SVGID_00000078019949697940242430000001195377517376526480_" gradientTransform="matrix(1 0 0 -1 0 514)" gradientUnits="userSpaceOnUse" x1="386.812" x2="241.387" xlink:href="#lg1" y1="169.63" y2="255.174"/><linearGradient id="lg2"><stop offset="0" stop-color="#f3faff"/><stop offset="1" stop-color="#d5daf3"/></linearGradient><linearGradient id="SVGID_00000078765880397829451080000006867949419459305903_" gradientTransform="matrix(1 0 0 -1 0 514)" gradientUnits="userSpaceOnUse" x1="124.628" x2="436.772" xlink:href="#lg2" y1="384.269" y2="72.125"/><linearGradient id="lg3"><stop offset="0" stop-color="#dbd5ef" stop-opacity="0"/><stop offset=".2667" stop-color="#d8d2ec" stop-opacity=".023"/><stop offset=".4431" stop-color="#d1c9e2" stop-opacity=".098"/><stop offset=".5933" stop-color="#c4b9d1" stop-opacity=".225"/><stop offset=".7288" stop-color="#b2a4ba" stop-opacity=".405"/><stop offset=".8545" stop-color="#9a889c" stop-opacity=".638"/><stop offset=".9713" stop-color="#7e6678" stop-opacity=".92"/><stop offset="1" stop-color="#765d6e"/></linearGradient><linearGradient id="SVGID_00000178190784682307217770000010803994843667422354_" gradientTransform="matrix(1 0 0 -1 0 514)" gradientUnits="userSpaceOnUse" x1="227.606" x2="146.51" xlink:href="#lg3" y1="358.09" y2="439.186"/><linearGradient id="SVGID_00000005975051128220635300000006213522628098438050_" gradientTransform="matrix(1 0 0 -1 0 514)" gradientUnits="userSpaceOnUse" x1="254.892" x2="256.291" xlink:href="#lg3" y1="362.854" y2="156.554"/><linearGradient id="SVGID_00000021834182619344867560000015640533409930632588_" gradientTransform="matrix(1 0 0 -1 0 514)" gradientUnits="userSpaceOnUse" x1="254.892" x2="256.291" xlink:href="#lg3" y1="320.832" y2="114.532"/><linearGradient id="SVGID_00000143597492329761125320000009540332137589654956_" gradientTransform="matrix(1 0 0 -1 0 514)" gradientUnits="userSpaceOnUse" x1="254.892" x2="256.291" xlink:href="#lg3" y1="278.81" y2="72.51"/><linearGradient id="SVGID_00000143578124724469938860000006805540433910912649_" gradientTransform="matrix(1 0 0 -1 0 514)" gradientUnits="userSpaceOnUse" x1="140.698" x2="199.661" xlink:href="#lg2" y1="444.998" y2="386.034"/><linearGradient id="SVGID_00000009579815652249672920000011198471625831938951_" gradientTransform="matrix(1 0 0 -1 0 514)" gradientUnits="userSpaceOnUse" x1="256" x2="256" xlink:href="#lg3" y1="59.628" y2="27.996"/><linearGradient id="SVGID_00000157270266769635499670000013053667808404991423_" gradientTransform="matrix(1 0 0 -1 0 514)" gradientUnits="userSpaceOnUse" x1="357.282" x2="408.053" xlink:href="#lg3" y1="252.897" y2="252.897"/><linearGradient id="SVGID_00000031910452815950348850000001589488402000630661_" gradientTransform="matrix(1 0 0 -1 0 514)" gradientUnits="userSpaceOnUse" x1="256" x2="256" xlink:href="#lg3" y1="452.307" y2="471.025"/><linearGradient id="SVGID_00000177455596717023717150000014014625457564793507_" gradientTransform="matrix(1 0 0 -1 0 514)" gradientUnits="userSpaceOnUse" x1="235.139" x2="216.056" xlink:href="#lg3" y1="459.694" y2="459.694"/><linearGradient id="SVGID_00000148657790639363680090000009036970232019747475_" gradientTransform="matrix(1 0 0 -1 0 514)" gradientUnits="userSpaceOnUse" x1="322.085" x2="299.748" xlink:href="#lg3" y1="420.618" y2="473.37"/><linearGradient id="SVGID_00000070806869245275328000000010917310045439204004_" gradientTransform="matrix(1 0 0 -1 0 514)" gradientUnits="userSpaceOnUse" x1="256" x2="256" y1="466.327" y2="435.911"><stop offset="0" stop-color="#7a6d79"/><stop offset="1" stop-color="#593636"/></linearGradient><linearGradient id="SVGID_00000101088619635314773830000001631327434764871342_" gradientTransform="matrix(1 0 0 -1 0 514)" gradientUnits="userSpaceOnUse" x1="309.905" x2="237.192" xlink:href="#lg3" y1="216.587" y2="244.745"/><linearGradient id="SVGID_00000056426568604147630700000016296543876930301071_" gradientTransform="matrix(1 0 0 -1 0 514)" gradientUnits="userSpaceOnUse" x1="241.252" x2="203.648" xlink:href="#lg3" y1="213.666" y2="233.27"/><linearGradient id="SVGID_00000065068945146049017960000012007471882981275814_" gradientTransform="matrix(1 0 0 -1 0 514)" gradientUnits="userSpaceOnUse" x1="243.634" x2="228.659" xlink:href="#lg3" y1="313.981" y2="313.981"/><linearGradient id="SVGID_00000041256849778452289690000003719990878321173178_" gradientTransform="matrix(1 0 0 -1 0 514)" gradientUnits="userSpaceOnUse" x1="242.352" x2="242.352" xlink:href="#lg3" y1="313.119" y2="330.927"/><linearGradient id="SVGID_00000034778677896212071580000003340585701299369903_" gradientTransform="matrix(1 0 0 -1 0 514)" gradientUnits="userSpaceOnUse" x1="212.143" x2="284.381" y1="321.105" y2="251.244"><stop offset="0" stop-color="#99e6fc"/><stop offset=".1325" stop-color="#8ee1fb"/><stop offset=".3627" stop-color="#71d5f9"/><stop offset=".6631" stop-color="#43c2f5"/><stop offset="1" stop-color="#08a9f1"/></linearGradient><linearGradient id="lg4"><stop offset="0" stop-color="#314dc9" stop-opacity="0"/><stop offset=".1245" stop-color="#304cc8" stop-opacity=".03"/><stop offset=".2787" stop-color="#2f4bc6" stop-opacity=".117"/><stop offset=".4488" stop-color="#2e49c2" stop-opacity=".26"/><stop offset=".6301" stop-color="#2c47bd" stop-opacity=".46"/><stop offset=".8182" stop-color="#2943b7" stop-opacity=".714"/><stop offset="1" stop-color="#2740b0"/></linearGradient><linearGradient id="SVGID_00000006686252568370868910000005053912347603498151_" gradientTransform="matrix(1 0 0 -1 0 514)" gradientUnits="userSpaceOnUse" x1="218.794" x2="218.794" xlink:href="#lg4" y1="253.713" y2="236.157"/><linearGradient id="SVGID_00000019657057015719138720000006033839096815868037_" gradientTransform="matrix(1 0 0 -1 0 514)" gradientUnits="userSpaceOnUse" x1="252.391" x2="249.896" xlink:href="#lg4" y1="233.216" y2="221.454"/><linearGradient id="SVGID_00000156587105223068442300000009921745684718170533_" gradientTransform="matrix(1 0 0 -1 0 514)" gradientUnits="userSpaceOnUse" x1="292.292" x2="300.847" xlink:href="#lg4" y1="237.437" y2="225.496"/><linearGradient id="SVGID_00000069371924872765125390000008158564475636288653_" gradientTransform="matrix(1 0 0 -1 0 514)" gradientUnits="userSpaceOnUse" x1="239.178" x2="225.871" xlink:href="#lg4" y1="291.235" y2="291.235"/><linearGradient id="SVGID_00000026159827978186269190000000677914395975465860_" gradientTransform="matrix(1 0 0 -1 0 514)" gradientUnits="userSpaceOnUse" x1="256" x2="256" y1="502.208" y2="473.229"><stop offset="0" stop-color="#fef0ae"/><stop offset="1" stop-color="#fac600"/></linearGradient><linearGradient id="lg5"><stop offset="0" stop-color="#fe9738" stop-opacity="0"/><stop offset=".1648" stop-color="#fe9637" stop-opacity=".012"/><stop offset=".2957" stop-color="#fe9535" stop-opacity=".052"/><stop offset=".415" stop-color="#fe9331" stop-opacity=".118"/><stop offset=".5274" stop-color="#fe902c" stop-opacity=".211"/><stop offset=".635" stop-color="#fe8c25" stop-opacity=".331"/><stop offset=".739" stop-color="#fe871d" stop-opacity=".479"/><stop offset=".8401" stop-color="#fe8213" stop-opacity=".655"/><stop offset=".9364" stop-color="#fe7b09" stop-opacity=".852"/><stop offset="1" stop-color="#fe7701"/></linearGradient><linearGradient id="SVGID_00000021818670939433040180000007517328745873857163_" gradientTransform="matrix(1 0 0 -1 0 514)" gradientUnits="userSpaceOnUse" x1="291.574" x2="315.029" xlink:href="#lg5" y1="492.107" y2="492.107"/><linearGradient id="SVGID_00000022549852685216888740000008607238010111823025_" gradientTransform="matrix(1 0 0 -1 0 514)" gradientUnits="userSpaceOnUse" x1="256" x2="256" xlink:href="#lg5" y1="488.663" y2="469.334"/><g><g><path d="m444.337 33.331v445.339c0 18.408-14.923 33.331-33.331 33.331h-310.013c-18.408 0-33.331-14.923-33.331-33.331v-445.339c.001-18.408 14.923-33.331 33.331-33.331h310.014c18.408 0 33.33 14.923 33.33 33.331z" fill="url(#SVGID_1_)"/><path d="m222.954 0h188.053c18.408 0 33.331 14.923 33.331 33.331v445.339c0 18.408-14.923 33.331-33.331 33.331h-188.053z" fill="url(#SVGID_00000054949309214873748890000010963108896635167895_)"/><path d="m298.703 0h89.465v55.99h-89.465z" fill="url(#SVGID_00000037684301655278106440000004754458368062894229_)"/><path d="m67.663 478.669v-222.669h376.675v222.669c0 18.408-14.923 33.331-33.331 33.331h-310.014c-18.408 0-33.33-14.923-33.33-33.331z" fill="url(#SVGID_00000054264017036927200650000009967569286669237164_)"/></g><path d="m399.546 40.919-286.781 440.664 30.417 30.417h267.825c18.408 0 33.331-14.923 33.331-33.331v-392.958z" fill="url(#SVGID_00000078019949697940242430000001195377517376526480_)"/><g><path d="m393.502 483.842h-275.004c-4.66 0-8.438-3.778-8.438-8.438v-352.375l84.664-84.664h198.777c4.66 0 8.438 3.778 8.438 8.438v428.602c.001 4.659-3.777 8.437-8.437 8.437z" fill="url(#SVGID_00000078765880397829451080000006867949419459305903_)"/><path d="m110.06 314.557 276.192-276.192h-180.74c-6.907 0-13.531 2.744-18.415 7.628l-69.408 69.408c-4.884 4.884-7.628 11.508-7.628 18.415z" fill="url(#SVGID_00000178190784682307217770000010803994843667422354_)"/><g><path d="m148.68 308.445h214.64c3.375 0 6.112 2.736 6.112 6.112 0 3.375-2.736 6.112-6.112 6.112h-214.64c-3.375 0-6.112-2.736-6.112-6.112 0-3.376 2.736-6.112 6.112-6.112z" fill="url(#SVGID_00000005975051128220635300000006213522628098438050_)"/><path d="m148.68 350.467h214.64c3.375 0 6.112 2.736 6.112 6.112 0 3.375-2.736 6.112-6.112 6.112h-214.64c-3.375 0-6.112-2.736-6.112-6.112 0-3.375 2.736-6.112 6.112-6.112z" fill="url(#SVGID_00000021834182619344867560000015640533409930632588_)"/><path d="m148.68 392.489h214.64c3.375 0 6.112 2.736 6.112 6.112 0 3.375-2.736 6.112-6.112 6.112h-214.64c-3.375 0-6.112-2.736-6.112-6.112 0-3.375 2.736-6.112 6.112-6.112z" fill="url(#SVGID_00000143597492329761125320000009540332137589654956_)"/></g><path d="m191.311 39.202c-39.686 9.737-70.673 40.723-80.411 80.409l-.839 3.418v11.5c0-6.351 5.149-11.5 11.5-11.5h64.726c4.66 0 8.438-3.778 8.438-8.438v-64.726c0-6.352 5.149-11.5 11.5-11.5h-11.5z" fill="url(#SVGID_00000143578124724469938860000006805540433910912649_)"/><path d="m110.06 386.887v88.517c0 4.66 3.778 8.438 8.438 8.438h275.003c4.66 0 8.438-3.778 8.438-8.438v-88.517z" fill="url(#SVGID_00000009579815652249672920000011198471625831938951_)"/><path d="m393.502 38.365h-92.973v445.477h92.973c4.66 0 8.438-3.778 8.438-8.438v-428.601c0-4.661-3.778-8.438-8.438-8.438z" fill="url(#SVGID_00000157270266769635499670000013053667808404991423_)"/></g><path d="m236.972 60.735h34.107l9.513 9.513h12.792c2.696-1.699 4.76-4.306 5.745-7.402v-24.481h-86.257v31.883h14.588z" fill="url(#SVGID_00000031910452815950348850000001589488402000630661_)"/><path d="m236.972 60.735h34.107l9.513 9.513h12.792c2.696-1.699 4.76-4.306 5.745-7.402v-24.481h-86.257v31.883h14.588z" fill="url(#SVGID_00000177455596717023717150000014014625457564793507_)"/><path d="m393.502 38.365h-93.729v20.341c0 7.537-6.11 13.647-13.647 13.647h-3.429l-11.618-11.618h-34.107l-12.408 12.408h-11.354l188.73 188.73v-215.07c0-4.661-3.778-8.438-8.438-8.438z" fill="url(#SVGID_00000148657790639363680090000009036970232019747475_)"/><path d="m289.677 76.788h-2.363c-3.199 0-6.31-1.226-8.995-3.544-5.628-4.862-13.762-7.65-22.319-7.65-8.556 0-16.691 2.788-22.318 7.648-2.685 2.319-5.795 3.546-8.996 3.546h-2.363c-9.169 0-16.352-9.705-16.352-22.095v-23.327h11v23.327c0 6.67 3.221 11.095 5.352 11.095h2.363c.695 0 1.429-.545 1.805-.87 7.596-6.562 18.351-10.324 29.509-10.324s21.914 3.764 29.509 10.325c.375.324 1.11.869 1.805.869h2.363c2.131 0 5.352-4.425 5.352-11.095v-23.327h11v23.327c0 12.39-7.183 22.095-16.352 22.095z" fill="url(#SVGID_00000070806869245275328000000010917310045439204004_)"/><path d="m401.94 302.741-129.548-129.548v32.411l-16.392 20.38v40.214l-14.577 16.032 160.517 160.518z" fill="url(#SVGID_00000101088619635314773830000001631327434764871342_)"/><path d="m401.94 382.801-157.326-157.326h-35.163v42.754l192.489 192.488z" fill="url(#SVGID_00000056426568604147630700000016296543876930301071_)"/><circle cx="242.352" cy="200.019" fill="url(#SVGID_00000065068945146049017960000012007471882981275814_)" r="23.559"/><circle cx="242.352" cy="200.019" fill="url(#SVGID_00000041256849778452289690000003719990878321173178_)" r="23.559"/><g><path d="m304.133 274.119c-.292-.677-.584-1.214-.874-1.603l-16.609-21.709 15.006-19.96c.969-1.359 1.456-2.572 1.456-3.643 0-1.259-.534-2.57-1.601-3.933-1.071-1.359-2.382-2.572-3.935-3.643-1.553-1.067-3.204-1.964-4.952-2.694s-3.256-1.093-4.517-1.093c-.779 0-1.675.169-2.696.511-1.019.342-1.822.995-2.404 1.964l-11.802 18.941-7.58-12.412c4.677-1.986 8.608-5.231 11.771-9.771 3.351-4.809 5.026-11.291 5.026-19.45 0-5.924-.924-10.878-2.767-14.861-1.848-3.981-4.396-7.187-7.65-9.617-3.254-2.425-7.066-4.152-11.436-5.173-4.37-1.019-9.033-1.527-13.987-1.527h-30.159c-2.138 0-3.838.679-5.099 2.038-1.263 1.363-1.893 2.964-1.893 4.807v92.663c0 2.332 1.188 4.08 3.568 5.246s4.978 1.748 7.795 1.748 5.413-.582 7.795-1.748c2.38-1.166 3.57-2.914 3.57-5.246v-35.112h9.614c.061.157.1.325.181.474.34.634.656 1.142.948 1.53l14.861 19.813-16.464 21.856c-.389.489-.705 1.069-.945 1.748-.244.682-.366 1.363-.366 2.04 0 1.361.532 2.696 1.603 4.007 1.067 1.311 2.38 2.503 3.933 3.57 1.553 1.071 3.157 1.945 4.809 2.622 1.649.677 3.059 1.019 4.223 1.019.777 0 1.724-.195 2.843-.582 1.114-.389 1.967-.969 2.549-1.748l13.258-20.105 13.405 20.105c.582.874 1.359 1.48 2.33 1.82.971.342 1.895.511 2.769.511 1.456 0 3.059-.363 4.807-1.09 1.748-.731 3.375-1.627 4.881-2.696s2.743-2.283 3.715-3.643c.971-1.359 1.458-2.622 1.458-3.788-.001-.778-.148-1.505-.438-2.186zm-73.976-89.859h14.424c4.08 0 7.285.974 9.617 2.914 2.33 1.945 3.496 5.489 3.496 10.636 0 5.149-1.166 8.695-3.496 10.636-2.332 1.945-5.536 2.914-9.617 2.914h-14.424z" fill="url(#SVGID_00000034778677896212071580000003340585701299369903_)"/><path d="m207.43 237.95v26.004c0 2.332 1.188 4.08 3.568 5.246s4.978 1.748 7.795 1.748 5.413-.582 7.795-1.748c2.38-1.166 3.57-2.914 3.57-5.246v-26.004z" fill="url(#SVGID_00000006686252568370868910000005053912347603498151_)"/><g><path d="m271.205 265.086-15.443-14.426-16.464 21.856c-.389.489-.705 1.069-.945 1.748-.245.682-.366 1.363-.366 2.04 0 1.361.532 2.696 1.603 4.007 1.067 1.311 2.38 2.503 3.933 3.57 1.553 1.071 3.157 1.945 4.809 2.622 1.649.677 3.059 1.019 4.223 1.019.777 0 1.724-.195 2.843-.582 1.114-.39 1.967-.969 2.549-1.748z" fill="url(#SVGID_00000019657057015719138720000006033839096815868037_)"/><path d="m286.94 287.011c.971.342 1.895.51 2.769.51 1.456 0 3.059-.363 4.807-1.09 1.748-.731 3.375-1.627 4.881-2.696s2.743-2.282 3.715-3.643c.971-1.359 1.458-2.622 1.458-3.788 0-.777-.147-1.504-.437-2.185-.292-.677-.584-1.214-.874-1.603l-16.609-21.708-15.445 14.279 13.405 20.105c.582.873 1.359 1.479 2.33 1.819z" fill="url(#SVGID_00000156587105223068442300000009921745684718170533_)"/></g><path d="m239.953 229.317c.34.634.656 1.142.948 1.53l2.784 3.712 4.998-5.716v-17.872c-1.253.257-2.617.389-4.102.389h-14.424v17.483h9.615c.061.157.1.325.181.474z" fill="url(#SVGID_00000069371924872765125390000008158564475636288653_)"/></g><g><path d="m297.312 0c-2.502 0-4.947 1.03-7.125 2.912-8.425 7.279-20.617 11.857-34.186 11.857s-25.762-4.578-34.186-11.857c-2.18-1.882-4.625-2.912-7.127-2.912h-3.118c-7.907 0-14.317 9.802-14.317 21.893 0 12.091 6.41 21.893 14.317 21.893h88.859c7.907 0 14.317-9.802 14.317-21.893 0-12.091-6.41-21.893-14.317-21.893z" fill="url(#SVGID_00000026159827978186269190000000677914395975465860_)"/><path d="m300.429 43.786c7.907 0 14.317-9.802 14.317-21.893s-6.41-21.893-14.317-21.893h-3.118c-2.502 0-4.947 1.03-7.125 2.912-8.425 7.279-20.617 11.857-34.186 11.857v29.018h44.429z" fill="url(#SVGID_00000021818670939433040180000007517328745873857163_)"/><path d="m256 14.769c-3.41 0-6.732-.29-9.929-.838h-47.836c-.631 2.469-.981 5.152-.981 7.963 0 12.091 6.41 21.893 14.317 21.893h88.859c7.907 0 14.317-9.802 14.317-21.893 0-2.81-.35-5.494-.981-7.963h-47.836c-3.198.548-6.52.838-9.93.838z" fill="url(#SVGID_00000022549852685216888740000008607238010111823025_)"/></g></g></svg>