<svg id="_32_Vitamin" enable-background="new 0 0 512 512" viewBox="0 0 512 512" xmlns="http://www.w3.org/2000/svg" xmlns:xlink="http://www.w3.org/1999/xlink"><linearGradient id="SVGID_1_" gradientTransform="matrix(1 0 0 -1 0 514)" gradientUnits="userSpaceOnUse" x1="281.335" x2="368" y1="229.581" y2="229.581"><stop offset="0" stop-color="#feca9c"/><stop offset=".1252" stop-color="#fdc391"/><stop offset=".3429" stop-color="#fbb174"/><stop offset=".6269" stop-color="#f89346"/><stop offset=".9631" stop-color="#f46b07"/><stop offset="1" stop-color="#f46700"/></linearGradient><linearGradient id="lg1"><stop offset="0" stop-color="#ff7920" stop-opacity="0"/><stop offset=".088" stop-color="#fe7720" stop-opacity=".028"/><stop offset=".2178" stop-color="#fe7221" stop-opacity=".107"/><stop offset=".3734" stop-color="#fe6b22" stop-opacity=".236"/><stop offset=".549" stop-color="#fe6024" stop-opacity=".415"/><stop offset=".7413" stop-color="#fd5227" stop-opacity=".645"/><stop offset=".9447" stop-color="#fd422a" stop-opacity=".92"/><stop offset="1" stop-color="#fd3e2b"/></linearGradient><linearGradient id="SVGID_00000049191813471542615300000000271460038039616179_" gradientTransform="matrix(1 0 0 -1 0 514)" gradientUnits="userSpaceOnUse" x1="325.783" x2="325.783" xlink:href="#lg1" y1="397" y2="439.092"/><linearGradient id="SVGID_00000106116449434245892480000018372689058759038884_" gradientTransform="matrix(1 0 0 -1 0 514)" gradientUnits="userSpaceOnUse" x1="330.803" x2="390.111" xlink:href="#lg1" y1="229.581" y2="229.581"/><linearGradient id="SVGID_00000027571675519324791290000009956009085076756619_" gradientTransform="matrix(1 0 0 -1 0 514)" gradientUnits="userSpaceOnUse" x1="356.999" x2="266.813" xlink:href="#lg1" y1="81.179" y2="105.658"/><linearGradient id="SVGID_00000004524828417612126530000015898463312260460452_" gradientTransform="matrix(1 0 0 -1 0 514)" gradientUnits="userSpaceOnUse" x1="325.781" x2="325.781" xlink:href="#lg1" y1="38.438" y2="1.866"/><linearGradient id="SVGID_00000034796387408122754740000010131870214806534077_" gradientTransform="matrix(1 0 0 -1 0 514)" gradientUnits="userSpaceOnUse" x1="256.078" x2="342.333" y1="245.984" y2="245.984"><stop offset="0" stop-color="#99e6fc"/><stop offset=".1325" stop-color="#8ee1fb"/><stop offset=".3627" stop-color="#71d5f9"/><stop offset=".6631" stop-color="#43c2f5"/><stop offset="1" stop-color="#08a9f1"/></linearGradient><linearGradient id="SVGID_00000134971163746880719310000009263266867430550188_" gradientTransform="matrix(1 0 0 -1 0 514)" gradientUnits="userSpaceOnUse" x1="314.629" x2="249.352" y1="170.505" y2="176.946"><stop offset="0" stop-color="#2740b0" stop-opacity="0"/><stop offset=".2505" stop-color="#263fae" stop-opacity=".023"/><stop offset=".4239" stop-color="#253dab" stop-opacity=".095"/><stop offset=".5741" stop-color="#233ba4" stop-opacity=".218"/><stop offset=".711" stop-color="#21379b" stop-opacity=".393"/><stop offset=".8389" stop-color="#1e3290" stop-opacity=".618"/><stop offset=".9585" stop-color="#1a2c82" stop-opacity=".89"/><stop offset="1" stop-color="#192a7d"/></linearGradient><linearGradient id="lg2"><stop offset="0" stop-color="#f3faff"/><stop offset="1" stop-color="#d5daf3"/></linearGradient><linearGradient id="SVGID_00000129907046307920714820000005712590328549023880_" gradientTransform="matrix(1 0 0 -1 0 514)" gradientUnits="userSpaceOnUse" x1="293.87" x2="349.963" xlink:href="#lg2" y1="448.866" y2="448.866"/><linearGradient id="lg3"><stop offset="0" stop-color="#dbd5ef" stop-opacity="0"/><stop offset=".2667" stop-color="#d8d2ec" stop-opacity=".023"/><stop offset=".4431" stop-color="#d1c9e2" stop-opacity=".098"/><stop offset=".5933" stop-color="#c4b9d1" stop-opacity=".225"/><stop offset=".7288" stop-color="#b2a4ba" stop-opacity=".405"/><stop offset=".8545" stop-color="#9a889c" stop-opacity=".638"/><stop offset=".9713" stop-color="#7e6678" stop-opacity=".92"/><stop offset="1" stop-color="#765d6e"/></linearGradient><linearGradient id="SVGID_00000000219990418685771080000016334277064478681015_" gradientTransform="matrix(1 0 0 -1 0 514)" gradientUnits="userSpaceOnUse" x1="325.781" x2="325.781" xlink:href="#lg3" y1="445.86" y2="418.369"/><linearGradient id="SVGID_00000013178094042225292360000017877091852706911677_" gradientTransform="matrix(1 0 0 -1 0 514)" gradientUnits="userSpaceOnUse" x1="325.781" x2="325.781" xlink:href="#lg3" y1="425.818" y2="456.824"/><linearGradient id="SVGID_00000129885200394885773710000014599929407576148107_" gradientTransform="matrix(1 0 0 -1 0 514)" gradientUnits="userSpaceOnUse" x1="327.94" x2="403.013" xlink:href="#lg3" y1="448.866" y2="448.866"/><linearGradient id="SVGID_00000109011160430404030750000000810650523392476583_" gradientTransform="matrix(1 0 0 -1 0 514)" gradientUnits="userSpaceOnUse" x1="278.123" x2="349.516" xlink:href="#lg2" y1="483.938" y2="483.938"/><linearGradient id="SVGID_00000054241974900106423080000001337816745691951518_" gradientTransform="matrix(1 0 0 -1 0 514)" gradientUnits="userSpaceOnUse" x1="325.781" x2="325.781" xlink:href="#lg3" y1="491.668" y2="453.768"/><linearGradient id="SVGID_00000076564831864460337010000018300164536967518862_" gradientTransform="matrix(1 0 0 -1 0 514)" gradientUnits="userSpaceOnUse" x1="338.247" x2="421.844" xlink:href="#lg3" y1="483.938" y2="483.938"/><linearGradient id="lg4"><stop offset="0" stop-color="#fef0ae"/><stop offset="1" stop-color="#fac600"/></linearGradient><linearGradient id="SVGID_00000056406603802272704930000015073006242930188185_" gradientTransform="matrix(1 0 0 -1 0 514)" gradientUnits="userSpaceOnUse" x1="198.259" x2="271.956" xlink:href="#lg4" y1="121.654" y2="47.957"/><linearGradient id="SVGID_00000098931835541322612990000015402666365518404490_" gradientTransform="matrix(1 0 0 -1 0 514)" gradientUnits="userSpaceOnUse" x1="233.797" x2="233.797" xlink:href="#lg4" y1="74.639" y2="103.185"/><linearGradient id="lg5"><stop offset="0" stop-color="#fe9738" stop-opacity="0"/><stop offset=".1648" stop-color="#fe9637" stop-opacity=".012"/><stop offset=".2957" stop-color="#fe9535" stop-opacity=".052"/><stop offset=".415" stop-color="#fe9331" stop-opacity=".118"/><stop offset=".5274" stop-color="#fe902c" stop-opacity=".211"/><stop offset=".635" stop-color="#fe8c25" stop-opacity=".331"/><stop offset=".739" stop-color="#fe871d" stop-opacity=".479"/><stop offset=".8401" stop-color="#fe8213" stop-opacity=".655"/><stop offset=".9364" stop-color="#fe7b09" stop-opacity=".852"/><stop offset="1" stop-color="#fe7701"/></linearGradient><linearGradient id="SVGID_00000091696671825081121160000004849067765024517310_" gradientTransform="matrix(1 0 0 -1 0 514)" gradientUnits="userSpaceOnUse" x1="233.793" x2="233.793" xlink:href="#lg5" y1="83.716" y2="16.369"/><linearGradient id="SVGID_00000072977321280488408560000002802303756973507261_" gradientTransform="matrix(1 0 0 -1 0 514)" gradientUnits="userSpaceOnUse" x1="239.937" x2="305.313" xlink:href="#lg5" y1="86.12" y2="86.12"/><linearGradient id="lg6"><stop offset="0" stop-color="#fac600" stop-opacity="0"/><stop offset=".1175" stop-color="#fac602" stop-opacity=".017"/><stop offset=".2423" stop-color="#fac80b" stop-opacity=".067"/><stop offset=".3705" stop-color="#facc1a" stop-opacity=".151"/><stop offset=".5011" stop-color="#fbd12e" stop-opacity=".268"/><stop offset=".6336" stop-color="#fbd748" stop-opacity=".419"/><stop offset=".7676" stop-color="#fcdf69" stop-opacity=".604"/><stop offset=".9003" stop-color="#fde88e" stop-opacity=".819"/><stop offset="1" stop-color="#fef0ae"/></linearGradient><linearGradient id="SVGID_00000125578432343584095130000011839292524823686816_" gradientTransform="matrix(1 0 0 -1 0 514)" gradientUnits="userSpaceOnUse" x1="256.489" x2="288.916" xlink:href="#lg6" y1="63.424" y2="30.997"/><linearGradient id="SVGID_00000178908345095536633500000007899826096229633458_" gradientTransform="matrix(1 0 0 -1 0 514)" gradientUnits="userSpaceOnUse" x1="166.016" x2="239.712" xlink:href="#lg4" y1="218.6" y2="144.903"/><linearGradient id="SVGID_00000096770565285946700920000002404217606399831695_" gradientTransform="matrix(1 0 0 -1 0 514)" gradientUnits="userSpaceOnUse" x1="210.843" x2="187.856" xlink:href="#lg4" y1="173.774" y2="196.762"/><linearGradient id="SVGID_00000099656248214653758790000013281897921150060471_" gradientTransform="matrix(1 0 0 -1 0 514)" gradientUnits="userSpaceOnUse" x1="201.55" x2="201.55" xlink:href="#lg5" y1="180.662" y2="113.316"/><linearGradient id="SVGID_00000175291392830067389400000013671515922117122984_" gradientTransform="matrix(1 0 0 -1 0 514)" gradientUnits="userSpaceOnUse" x1="207.694" x2="273.07" xlink:href="#lg5" y1="183.066" y2="183.066"/><linearGradient id="SVGID_00000142164067868325330860000004965800069023437218_" gradientTransform="matrix(1 0 0 -1 0 514)" gradientUnits="userSpaceOnUse" x1="224.246" x2="256.673" xlink:href="#lg6" y1="160.37" y2="127.943"/><linearGradient id="SVGID_00000065070990060022241430000018424001219719705479_" gradientTransform="matrix(1 0 0 -1 0 514)" gradientUnits="userSpaceOnUse" x1="141.18" x2="170.383" xlink:href="#lg4" y1="54.383" y2="-15.619"/><linearGradient id="SVGID_00000156568624131424849970000015458279632905046675_" gradientTransform="matrix(1 0 0 -1 0 514)" gradientUnits="userSpaceOnUse" x1="154.839" x2="154.839" xlink:href="#lg5" y1="24.963" y2="1.773"/><linearGradient id="SVGID_00000126297283677696584810000009709868570160955067_" gradientTransform="matrix(1 0 0 -1 0 514)" gradientUnits="userSpaceOnUse" x1="192.543" x2="221.897" xlink:href="#lg5" y1="21.639" y2="21.639"/><g><g><path d="m398.575 56.839v435.184c0 11.036-8.94 19.977-19.977 19.977h-105.642c-11.025 0-19.965-8.94-19.965-19.977v-112.618l19.471-103.401-19.471-119.378v-99.787z" fill="url(#SVGID_1_)"/><path d="m398.575 56.839v118.968h-142.451l-3.132-19.181v-99.787z" fill="url(#SVGID_00000049191813471542615300000000271460038039616179_)"/><path d="m304.959 511.996h73.645c11.029 0 19.97-8.941 19.97-19.97v-435.184h-93.614v455.154z" fill="url(#SVGID_00000106116449434245892480000018372689058759038884_)"/><path d="m266.881 305.643-13.889 73.762v112.618c0 11.036 8.94 19.977 19.965 19.977h105.642c11.037 0 19.977-8.94 19.977-19.977v-54.687z" fill="url(#SVGID_00000027571675519324791290000009956009085076756619_)"/><path d="m252.988 431.622v60.404c0 11.029 8.941 19.97 19.97 19.97h105.646c11.029 0 19.97-8.941 19.97-19.97v-60.404z" fill="url(#SVGID_00000004524828417612126530000015898463312260460452_)"/><path d="m252.988 379.408h70.158c3.827 0 6.929-3.102 6.929-6.929v-208.926c0-3.827-3.102-6.929-6.929-6.929h-70.158z" fill="url(#SVGID_00000034796387408122754740000010131870214806534077_)"/><path d="m257.057 295.819h-4.069v83.589h70.158c3.827 0 6.929-3.102 6.929-6.929v-3.642z" fill="url(#SVGID_00000134971163746880719310000009263266867430550188_)"/><g><path d="m255.141 36.361h141.279c4.154 0 7.521 3.367 7.521 7.521v42.504c0 4.154-3.367 7.521-7.521 7.521h-141.279c-4.154 0-7.521-3.367-7.521-7.521v-42.504c0-4.154 3.367-7.521 7.521-7.521z" fill="url(#SVGID_00000129907046307920714820000005712590328549023880_)"/><path d="m255.141 36.361h141.279c4.154 0 7.521 3.367 7.521 7.521v42.504c0 4.154-3.367 7.521-7.521 7.521h-141.279c-4.154 0-7.521-3.367-7.521-7.521v-42.504c0-4.154 3.367-7.521 7.521-7.521z" fill="url(#SVGID_00000000219990418685771080000016334277064478681015_)"/><path d="m255.141 36.361h141.279c4.154 0 7.521 3.367 7.521 7.521v42.504c0 4.154-3.367 7.521-7.521 7.521h-141.279c-4.154 0-7.521-3.367-7.521-7.521v-42.504c0-4.154 3.367-7.521 7.521-7.521z" fill="url(#SVGID_00000013178094042225292360000017877091852706911677_)"/><path d="m396.42 36.361h-70.64v57.547h70.64c4.154 0 7.521-3.368 7.521-7.521v-42.505c.001-4.154-3.367-7.521-7.521-7.521z" fill="url(#SVGID_00000129885200394885773710000014599929407576148107_)"/></g><g><path d="m236.818 0h177.926c4.47 0 8.094 3.624 8.094 8.094v43.936c0 4.47-3.624 8.094-8.094 8.094h-177.926c-4.47 0-8.094-3.624-8.094-8.094v-43.936c0-4.47 3.623-8.094 8.094-8.094z" fill="url(#SVGID_00000109011160430404030750000000810650523392476583_)"/><path d="m228.724 16.606v35.424c0 4.47 3.624 8.094 8.094 8.094h177.926c4.47 0 8.094-3.624 8.094-8.094v-35.424z" fill="url(#SVGID_00000054241974900106423080000001337816745691951518_)"/><path d="m414.744 0h-88.96v60.124h88.96c4.47 0 8.094-3.624 8.094-8.094v-43.936c0-4.47-3.624-8.094-8.094-8.094z" fill="url(#SVGID_00000076564831864460337010000018300164536967518862_)"/></g></g><g><g><circle cx="233.793" cy="427.881" fill="url(#SVGID_00000056406603802272704930000015073006242930188185_)" r="65.677"/><path d="m299.47 427.889c0 4.954-.551 9.778-1.587 14.409h-128.173c-1.036-4.63-1.587-9.455-1.587-14.409s.55-9.779 1.587-14.425h128.174c1.036 4.646 1.586 9.471 1.586 14.425z" fill="url(#SVGID_00000098931835541322612990000015402666365518404490_)"/><path d="m168.117 427.881c0 36.272 29.404 65.677 65.677 65.677s65.677-29.404 65.677-65.677c0-1.816-.077-3.613-.222-5.392h-130.91c-.145 1.778-.222 3.576-.222 5.392z" fill="url(#SVGID_00000091696671825081121160000004849067765024517310_)"/><path d="m233.793 362.204c-4.231 0-8.367.405-12.375 1.169v129.014c4.008.764 8.144 1.169 12.375 1.169 36.272 0 65.677-29.404 65.677-65.677s-29.405-65.675-65.677-65.675z" fill="url(#SVGID_00000072977321280488408560000002802303756973507261_)"/><path d="m279.957 381.17-92.874 92.874c11.906 12.046 28.435 19.513 46.711 19.513 36.272 0 65.677-29.404 65.677-65.677-.001-18.275-7.468-34.804-19.514-46.71z" fill="url(#SVGID_00000125578432343584095130000011839292524823686816_)"/></g><g><circle cx="201.55" cy="330.935" fill="url(#SVGID_00000178908345095536633500000007899826096229633458_)" r="65.677"/><path d="m257.057 295.819-90.63 90.63c-8.208-5.213-15.186-12.191-20.367-20.399l90.614-90.63c8.209 5.213 15.186 12.191 20.383 20.399z" fill="url(#SVGID_00000096770565285946700920000002404217606399831695_)"/><path d="m135.873 330.935c0 36.272 29.404 65.677 65.677 65.677s65.677-29.404 65.677-65.677c0-1.816-.077-3.613-.222-5.392h-130.91c-.145 1.778-.222 3.576-.222 5.392z" fill="url(#SVGID_00000099656248214653758790000013281897921150060471_)"/><path d="m201.55 265.258c-4.231 0-8.367.405-12.375 1.169v129.014c4.008.764 8.144 1.169 12.375 1.169 36.272 0 65.677-29.404 65.677-65.677s-29.405-65.675-65.677-65.675z" fill="url(#SVGID_00000175291392830067389400000013671515922117122984_)"/><path d="m247.714 284.224-92.874 92.874c11.906 12.046 28.435 19.513 46.711 19.513 36.272 0 65.677-29.404 65.677-65.677-.001-18.275-7.468-34.804-19.514-46.71z" fill="url(#SVGID_00000142164067868325330860000004965800069023437218_)"/></g></g><g><path d="m220.516 483.397v17.928c0 5.896-4.779 10.675-10.675 10.675h-110.004c-5.896 0-10.675-4.779-10.675-10.675v-17.928c0-5.896 4.779-10.675 10.675-10.675h35.262c2.944 0 5.33 2.386 5.33 5.33v.003c0 2.606 1.877 4.871 4.453 5.261 3.24.491 6.562.744 9.945.744 3.397 0 6.725-.254 9.979-.746 2.577-.39 4.455-2.655 4.455-5.262 0-2.944 2.386-5.33 5.33-5.33h35.25c5.896 0 10.675 4.779 10.675 10.675z" fill="url(#SVGID_00000065070990060022241430000018424001219719705479_)"/><path d="m164.806 483.313c-3.253.492-6.582.746-9.979.746-3.383 0-6.705-.253-9.945-.744-.705-.107-1.35-.364-1.926-.72h-53.753c-.02.266-.04.531-.04.802v17.928c0 5.896 4.779 10.675 10.675 10.675h110.004c5.896 0 10.675-4.779 10.675-10.675v-17.928c0-.271-.021-.536-.04-.802h-53.747c-.575.355-1.22.612-1.924.718z" fill="url(#SVGID_00000156568624131424849970000015458279632905046675_)"/><path d="m209.841 472.721h-35.25c-2.944 0-5.33 2.386-5.33 5.33 0 2.607-1.878 4.872-4.455 5.262-3.25.492-6.574.745-9.967.746v27.941h55.002c5.896 0 10.675-4.779 10.675-10.675v-17.928c0-5.896-4.779-10.675-10.675-10.676z" fill="url(#SVGID_00000126297283677696584810000009709868570160955067_)"/></g></g></svg>