<svg id="_33_First_Aid" enable-background="new 0 0 512 512" viewBox="0 0 512 512" xmlns="http://www.w3.org/2000/svg" xmlns:xlink="http://www.w3.org/1999/xlink"><linearGradient id="SVGID_1_" gradientTransform="matrix(1 0 0 -1 0 514)" gradientUnits="userSpaceOnUse" x1="242.081" x2="259.19" y1="492.815" y2="394.439"><stop offset="0" stop-color="#7a6d79"/><stop offset="1" stop-color="#593636"/></linearGradient><linearGradient id="lg1"><stop offset="0" stop-color="#593636" stop-opacity="0"/><stop offset="1"/></linearGradient><linearGradient id="SVGID_00000135652319353655875870000004960927302752406691_" gradientTransform="matrix(1 0 0 -1 0 514)" gradientUnits="userSpaceOnUse" x1="331.8" x2="363.641" xlink:href="#lg1" y1="447.08" y2="453.733"/><linearGradient id="SVGID_00000049912436071583419800000011609677651613039240_" gradientTransform="matrix(1 0 0 -1 0 514)" gradientUnits="userSpaceOnUse" x1="256" x2="256" xlink:href="#lg1" y1="441.937" y2="485.396"/><linearGradient id="SVGID_00000047044463448815556610000001375809083810739388_" gradientTransform="matrix(1 0 0 -1 0 514)" gradientUnits="userSpaceOnUse" x1="171.518" x2="171.518" xlink:href="#lg1" y1="421.775" y2="400.859"/><linearGradient id="SVGID_00000021120759901201611050000013180298617247954353_" gradientTransform="matrix(1 0 0 -1 0 514)" gradientUnits="userSpaceOnUse" x1="340.482" x2="340.482" xlink:href="#lg1" y1="421.775" y2="400.859"/><linearGradient id="lg2"><stop offset="0" stop-color="#fef0ae"/><stop offset="1" stop-color="#fac600"/></linearGradient><linearGradient id="SVGID_00000123420582765725333210000000341085156715461515_" gradientTransform="matrix(1 0 0 -1 0 514)" gradientUnits="userSpaceOnUse" x1="92.396" x2="92.396" xlink:href="#lg2" y1="423.201" y2="396.993"/><linearGradient id="lg3"><stop offset="0" stop-color="#fe9738" stop-opacity="0"/><stop offset=".1648" stop-color="#fe9637" stop-opacity=".012"/><stop offset=".2957" stop-color="#fe9535" stop-opacity=".052"/><stop offset=".415" stop-color="#fe9331" stop-opacity=".118"/><stop offset=".5274" stop-color="#fe902c" stop-opacity=".211"/><stop offset=".635" stop-color="#fe8c25" stop-opacity=".331"/><stop offset=".739" stop-color="#fe871d" stop-opacity=".479"/><stop offset=".8401" stop-color="#fe8213" stop-opacity=".655"/><stop offset=".9364" stop-color="#fe7b09" stop-opacity=".852"/><stop offset="1" stop-color="#fe7701"/></linearGradient><linearGradient id="SVGID_00000001652232706278320400000006327261875011305905_" gradientTransform="matrix(1 0 0 -1 0 514)" gradientUnits="userSpaceOnUse" x1="104.515" x2="122.73" xlink:href="#lg3" y1="408.662" y2="408.662"/><linearGradient id="SVGID_00000079474518556054204610000010006995497415541680_" gradientTransform="matrix(1 0 0 -1 0 514)" gradientUnits="userSpaceOnUse" x1="419.604" x2="419.604" xlink:href="#lg2" y1="423.201" y2="396.993"/><linearGradient id="SVGID_00000083786608446212242540000005954221020147108226_" gradientTransform="matrix(1 0 0 -1 0 514)" gradientUnits="userSpaceOnUse" x1="431.723" x2="449.938" xlink:href="#lg3" y1="408.662" y2="408.662"/><linearGradient id="lg4"><stop offset="0" stop-color="#f3faff"/><stop offset="1" stop-color="#d5daf3"/></linearGradient><linearGradient id="SVGID_00000023239630502980776740000012836962298019838867_" gradientTransform="matrix(1 0 0 -1 0 514)" gradientUnits="userSpaceOnUse" x1="124.509" x2="419.131" xlink:href="#lg4" y1="365.684" y2="26.381"/><linearGradient id="SVGID_00000011751302114975246310000015135813376370251944_" gradientTransform="matrix(1 0 0 -1 0 514)" gradientUnits="userSpaceOnUse" x1="70.806" x2="37.282" xlink:href="#lg4" y1="44.947" y2="44.947"/><linearGradient id="SVGID_00000052091784485223090480000013786117261281039271_" gradientTransform="matrix(1 0 0 -1 0 514)" gradientUnits="userSpaceOnUse" x1="151.792" x2="118.268" xlink:href="#lg4" y1="44.947" y2="44.947"/><linearGradient id="SVGID_00000014597882200950158210000002438688001618934408_" gradientTransform="matrix(1 0 0 -1 0 514)" gradientUnits="userSpaceOnUse" x1="232.778" x2="199.254" xlink:href="#lg4" y1="44.947" y2="44.947"/><linearGradient id="SVGID_00000098199081036195370580000002689679104794209684_" gradientTransform="matrix(1 0 0 -1 0 514)" gradientUnits="userSpaceOnUse" x1="313.764" x2="280.24" xlink:href="#lg4" y1="44.947" y2="44.947"/><linearGradient id="SVGID_00000181767660882916788820000007003872991724075163_" gradientTransform="matrix(1 0 0 -1 0 514)" gradientUnits="userSpaceOnUse" x1="394.75" x2="361.226" xlink:href="#lg4" y1="44.947" y2="44.947"/><linearGradient id="SVGID_00000065790019492857494070000009193162514628528276_" gradientTransform="matrix(1 0 0 -1 0 514)" gradientUnits="userSpaceOnUse" x1="475.736" x2="442.212" xlink:href="#lg4" y1="44.947" y2="44.947"/><linearGradient id="SVGID_00000013892667858398985670000007900359394209067404_" gradientTransform="matrix(1 0 0 -1 0 514)" gradientUnits="userSpaceOnUse" x1="85.185" x2="49.763" xlink:href="#lg4" y1="214.252" y2="214.252"/><linearGradient id="SVGID_00000165198633391220748280000009966996659446665093_" gradientTransform="matrix(1 0 0 -1 0 514)" gradientUnits="userSpaceOnUse" x1="456.603" x2="421.181" xlink:href="#lg4" y1="214.252" y2="214.252"/><linearGradient id="lg5"><stop offset="0" stop-color="#dbd5ef" stop-opacity="0"/><stop offset=".2667" stop-color="#d8d2ec" stop-opacity=".023"/><stop offset=".4431" stop-color="#d1c9e2" stop-opacity=".098"/><stop offset=".5933" stop-color="#c4b9d1" stop-opacity=".225"/><stop offset=".7288" stop-color="#b2a4ba" stop-opacity=".405"/><stop offset=".8545" stop-color="#9a889c" stop-opacity=".638"/><stop offset=".9713" stop-color="#7e6678" stop-opacity=".92"/><stop offset="1" stop-color="#765d6e"/></linearGradient><linearGradient id="SVGID_00000131360958401026901440000002433381748681063358_" gradientTransform="matrix(1 0 0 -1 0 514)" gradientUnits="userSpaceOnUse" x1="256" x2="256" xlink:href="#lg5" y1="97.492" y2="20.682"/><linearGradient id="SVGID_00000181081431334685402610000017255974319879587773_" gradientTransform="matrix(1 0 0 -1 0 514)" gradientUnits="userSpaceOnUse" x1="455.53" x2="515.717" xlink:href="#lg5" y1="214.252" y2="214.252"/><linearGradient id="SVGID_00000097476646675334427590000017250512836471999115_" gradientTransform="matrix(1 0 0 -1 0 514)" gradientUnits="userSpaceOnUse" x1="394.829" x2="261.321" xlink:href="#lg5" y1="75.422" y2="208.93"/><linearGradient id="SVGID_00000067921343066098272540000004441981774116930690_" gradientTransform="matrix(1 0 0 -1 0 514)" gradientUnits="userSpaceOnUse" x1="208.482" x2="307.032" y1="261.77" y2="163.22"><stop offset="0" stop-color="#fe646f"/><stop offset=".235" stop-color="#fa5964"/><stop offset=".6415" stop-color="#ef3d49"/><stop offset="1" stop-color="#e41f2d"/></linearGradient><linearGradient id="lg6"><stop offset="0" stop-color="#a72b2b" stop-opacity="0"/><stop offset=".1561" stop-color="#a32b2a" stop-opacity=".066"/><stop offset=".386" stop-color="#982c29" stop-opacity=".248"/><stop offset=".6615" stop-color="#872f28" stop-opacity=".545"/><stop offset=".97" stop-color="#6f3226" stop-opacity=".956"/><stop offset="1" stop-color="#6d3326"/></linearGradient><linearGradient id="SVGID_00000008868830153898270600000015833293220686150303_" gradientTransform="matrix(1 0 0 -1 0 514)" gradientUnits="userSpaceOnUse" x1="256" x2="256" xlink:href="#lg6" y1="200.097" y2="125.667"/><linearGradient id="SVGID_00000077287588704479505240000005549682692077570181_" gradientTransform="matrix(1 0 0 -1 0 514)" gradientUnits="userSpaceOnUse" x1="269.841" x2="344.373" xlink:href="#lg6" y1="214.252" y2="214.252"/><linearGradient id="SVGID_00000175288046132033307070000005966137706941188782_" gradientTransform="matrix(1 0 0 -1 0 514)" gradientUnits="userSpaceOnUse" x1="286.349" x2="329.712" y1="183.902" y2="140.54"><stop offset="0" stop-color="#e41f2d" stop-opacity="0"/><stop offset=".0725" stop-color="#e62533" stop-opacity=".093"/><stop offset=".3356" stop-color="#ee3b48" stop-opacity=".411"/><stop offset=".5691" stop-color="#f54c58" stop-opacity=".664"/><stop offset=".7644" stop-color="#f95964" stop-opacity=".846"/><stop offset=".914" stop-color="#fc616c" stop-opacity=".958"/><stop offset="1" stop-color="#fe646f"/></linearGradient><g><g><path d="m199.82 106.089c0-4.209-1.246-8.325-3.58-11.827l-.865-1.297c-1.771-2.657-2.716-5.778-2.716-8.97 0-6.834 5.54-12.375 12.375-12.375h101.933c6.834 0 12.375 5.54 12.375 12.375 0 3.193-.945 6.314-2.716 8.971l-.865 1.297c-2.335 3.503-3.58 7.618-3.58 11.827 0 7.877 6.386 14.263 14.263 14.263h29.774c7.877 0 14.263-6.386 14.263-14.263v-6.456h-.035c-1.194-42.021-35.631-75.719-77.94-75.719h-73.012c-42.31 0-76.746 33.698-77.94 75.719h-.035v6.456c0 7.877 6.386 14.263 14.263 14.263h29.774c7.878-.001 14.264-6.387 14.264-14.264z" fill="url(#SVGID_1_)"/><path d="m292.506 23.914h-36.506v47.704h50.966c6.834 0 12.375 5.54 12.375 12.375 0 3.193-.945 6.314-2.716 8.971l-.865 1.297c-2.335 3.503-3.58 7.618-3.58 11.827 0 7.877 6.386 14.263 14.263 14.263h29.774c7.877 0 14.263-6.386 14.263-14.263v-6.456h-.035c-1.193-42.02-35.63-75.718-77.939-75.718z" fill="url(#SVGID_00000135652319353655875870000004960927302752406691_)"/><path d="m192.659 83.993c0-6.834 5.54-12.375 12.375-12.375h101.933c6.834 0 12.375 5.54 12.375 12.375v-7.473c0-15.454-12.528-27.982-27.982-27.982h-70.717c-15.454 0-27.982 12.528-27.982 27.982z" fill="url(#SVGID_00000049912436071583419800000011609677651613039240_)"/><g><path d="m155.782 120.352h29.774c7.877 0 14.263-6.386 14.263-14.263 0-4.209-1.246-8.325-3.58-11.827l-.865-1.298c-1.771-2.656-2.716-5.778-2.716-8.97 0-5.612 3.738-10.344 8.858-11.86h-54.093c-3.52 8.515-5.594 17.78-5.87 27.5h-.035v6.456c.001 7.876 6.387 14.262 14.264 14.262z" fill="url(#SVGID_00000047044463448815556610000001375809083810739388_)"/><path d="m319.341 83.993c0 3.193-.945 6.314-2.716 8.971l-.865 1.297c-2.335 3.503-3.58 7.618-3.58 11.827 0 7.877 6.386 14.263 14.263 14.263h29.774c7.877 0 14.263-6.386 14.263-14.263v-6.456h-.035c-.276-9.72-2.35-18.985-5.87-27.5h-54.093c5.121 1.517 8.859 6.25 8.859 11.861z" fill="url(#SVGID_00000021120759901201611050000013180298617247954353_)"/></g></g><g><g><path d="m73.624 90.324h37.545c6.426 0 11.644 5.217 11.644 11.644v18.384h-60.833v-18.384c0-6.427 5.218-11.644 11.644-11.644z" fill="url(#SVGID_00000123420582765725333210000000341085156715461515_)"/><path d="m73.624 90.324h37.545c6.426 0 11.644 5.217 11.644 11.644v18.384h-60.833v-18.384c0-6.427 5.218-11.644 11.644-11.644z" fill="url(#SVGID_00000001652232706278320400000006327261875011305905_)"/></g><g><path d="m400.832 90.324h37.545c6.426 0 11.644 5.217 11.644 11.644v18.384h-60.832v-18.384c-.001-6.427 5.216-11.644 11.643-11.644z" fill="url(#SVGID_00000079474518556054204610000010006995497415541680_)"/><path d="m400.832 90.324h37.545c6.426 0 11.644 5.217 11.644 11.644v18.384h-60.832v-18.384c-.001-6.427 5.216-11.644 11.643-11.644z" fill="url(#SVGID_00000083786608446212242540000005954221020147108226_)"/></g></g><g><g><path d="m33.331 111.411h445.339c18.408 0 33.331 14.923 33.331 33.331v310.013c0 18.408-14.923 33.331-33.331 33.331h-445.339c-18.408 0-33.331-14.923-33.331-33.331v-310.013c0-18.408 14.923-33.331 33.331-33.331z" fill="url(#SVGID_00000023239630502980776740000012836962298019838867_)"/><g><path d="m53.535 450.02c10.505 0 19.033 8.528 19.033 19.033v19.033h-38.066v-19.033c0-10.505 8.528-19.033 19.033-19.033z" fill="url(#SVGID_00000011751302114975246310000015135813376370251944_)"/><path d="m134.521 450.02c10.505 0 19.033 8.528 19.033 19.033v19.033h-38.066v-19.033c0-10.505 8.528-19.033 19.033-19.033z" fill="url(#SVGID_00000052091784485223090480000013786117261281039271_)"/><path d="m215.507 450.02c10.505 0 19.033 8.528 19.033 19.033v19.033h-38.066v-19.033c0-10.505 8.528-19.033 19.033-19.033z" fill="url(#SVGID_00000014597882200950158210000002438688001618934408_)"/><path d="m296.493 450.02c10.505 0 19.033 8.528 19.033 19.033v19.033h-38.066v-19.033c0-10.505 8.528-19.033 19.033-19.033z" fill="url(#SVGID_00000098199081036195370580000002689679104794209684_)"/><path d="m377.479 450.02c10.505 0 19.033 8.528 19.033 19.033v19.033h-38.066v-19.033c0-10.505 8.528-19.033 19.033-19.033z" fill="url(#SVGID_00000181767660882916788820000007003872991724075163_)"/><path d="m458.465 450.02c10.505 0 19.033 8.528 19.033 19.033v19.033h-38.066v-19.033c0-10.505 8.528-19.033 19.033-19.033z" fill="url(#SVGID_00000065790019492857494070000009193162514628528276_)"/></g><g><path d="m70.291 178.735c8.74 0 15.825 7.085 15.825 15.825v210.377c0 8.74-7.085 15.825-15.825 15.825-8.74 0-15.825-7.085-15.825-15.825v-210.377c0-8.74 7.085-15.825 15.825-15.825z" fill="url(#SVGID_00000013892667858398985670000007900359394209067404_)"/><path d="m441.709 178.735c8.74 0 15.825 7.085 15.825 15.825v210.377c0 8.74-7.085 15.825-15.825 15.825-8.74 0-15.825-7.085-15.825-15.825v-210.377c0-8.74 7.085-15.825 15.825-15.825z" fill="url(#SVGID_00000165198633391220748280000009966996659446665093_)"/></g><path d="m0 266.702v188.053c0 18.408 14.923 33.331 33.331 33.331h445.339c18.408 0 33.331-14.923 33.331-33.331v-188.053z" fill="url(#SVGID_00000131360958401026901440000002433381748681063358_)"/><path d="m478.669 111.411h-222.669v376.675h222.669c18.408 0 33.331-14.923 33.331-33.331v-310.013c0-18.408-14.923-33.331-33.331-33.331z" fill="url(#SVGID_00000181081431334685402610000017255974319879587773_)"/></g><path d="m512 454.755v-23.202l-194.268-194.268-124.195 124.195 126.606 126.606h158.527c18.407 0 33.33-14.923 33.33-33.331z" fill="url(#SVGID_00000097476646675334427590000017250512836471999115_)"/><g><circle cx="256" cy="299.748" fill="url(#SVGID_00000067921343066098272540000004441981774116930690_)" r="87.825"/><path d="m301.447 284.234h-29.933v-29.933c0-4.378-3.549-7.928-7.928-7.928h-15.173c-4.378 0-7.928 3.549-7.928 7.928v29.933h-29.933c-4.378 0-7.928 3.549-7.928 7.928v15.173c0 4.378 3.549 7.928 7.928 7.928h29.933v29.933c0 4.378 3.549 7.928 7.928 7.928h15.173c4.378 0 7.928-3.549 7.928-7.928v-29.933h29.933c4.378 0 7.928-3.549 7.928-7.928v-15.173c0-4.378-3.549-7.928-7.928-7.928z" fill="#fff"/><path d="m168.175 299.748c0 48.505 39.321 87.825 87.825 87.825s87.825-39.321 87.825-87.825c0-2.428-.103-4.832-.296-7.21h-175.058c-.193 2.378-.296 4.782-.296 7.21z" fill="url(#SVGID_00000008868830153898270600000015833293220686150303_)"/><path d="m256 211.923c-5.658 0-11.188.542-16.549 1.564v172.523c5.36 1.022 10.891 1.564 16.549 1.564 48.505 0 87.825-39.321 87.825-87.825 0-48.505-39.32-87.826-87.825-87.826z" fill="url(#SVGID_00000077287588704479505240000005549682692077570181_)"/><path d="m317.732 237.285-124.195 124.195c15.921 16.109 38.025 26.094 62.463 26.094 48.505 0 87.825-39.321 87.825-87.825 0-24.439-9.985-46.543-26.093-62.464z" fill="url(#SVGID_00000175288046132033307070000005966137706941188782_)"/></g></g></g></svg>