<svg id="_34_Capsule" enable-background="new 0 0 512 512" viewBox="0 0 512 512" xmlns="http://www.w3.org/2000/svg" xmlns:xlink="http://www.w3.org/1999/xlink"><linearGradient id="lg1"><stop offset="0" stop-color="#fef0ae"/><stop offset="1" stop-color="#fac600"/></linearGradient><linearGradient id="SVGID_1_" gradientTransform="matrix(.906 .423 .423 -.906 1462.457 1832.465)" gradientUnits="userSpaceOnUse" x1="-1936.641" x2="-1936.641" xlink:href="#lg1" y1="966.786" y2="879.766"/><linearGradient id="lg2"><stop offset="0" stop-color="#fe9738" stop-opacity="0"/><stop offset=".1648" stop-color="#fe9637" stop-opacity=".012"/><stop offset=".2957" stop-color="#fe9535" stop-opacity=".052"/><stop offset=".415" stop-color="#fe9331" stop-opacity=".118"/><stop offset=".5274" stop-color="#fe902c" stop-opacity=".211"/><stop offset=".635" stop-color="#fe8c25" stop-opacity=".331"/><stop offset=".739" stop-color="#fe871d" stop-opacity=".479"/><stop offset=".8401" stop-color="#fe8213" stop-opacity=".655"/><stop offset=".9364" stop-color="#fe7b09" stop-opacity=".852"/><stop offset="1" stop-color="#fe7701"/></linearGradient><linearGradient id="SVGID_00000111156456583249375670000014010794554024783498_" gradientTransform="matrix(1 0 0 -1 0 514)" gradientUnits="userSpaceOnUse" x1="95.94" x2="69.274" xlink:href="#lg2" y1="325.427" y2="248.76"/><linearGradient id="SVGID_00000161620088520269066740000003666357650888078779_" gradientTransform="matrix(.906 .423 .423 -.906 -154.708 417.843)" gradientUnits="userSpaceOnUse" x1="206.377" x2="254.276" xlink:href="#lg1" y1="338.788" y2="330.366"/><linearGradient id="SVGID_00000177444669096461855160000001281104191709938097_" gradientTransform="matrix(.906 .423 .423 -.906 -154.708 417.843)" gradientUnits="userSpaceOnUse" x1="242.222" x2="194.499" xlink:href="#lg2" y1="331.697" y2="342.926"/><linearGradient id="SVGID_00000011743233388662097350000004661587525855324303_" gradientTransform="matrix(.906 .423 .423 -.906 -154.708 417.843)" gradientUnits="userSpaceOnUse" x1="241.114" x2="185.671" xlink:href="#lg2" y1="340.358" y2="315.093"/><linearGradient id="lg3"><stop offset="0" stop-color="#f3faff"/><stop offset="1" stop-color="#d5daf3"/></linearGradient><linearGradient id="SVGID_00000136381780303612050430000001433462203545469369_" gradientTransform="matrix(1 0 0 -1 0 514)" gradientUnits="userSpaceOnUse" x1="210.426" x2="349.065" xlink:href="#lg3" y1="137.342" y2="137.342"/><linearGradient id="lg4"><stop offset="0" stop-color="#dbd5ef" stop-opacity="0"/><stop offset=".2667" stop-color="#d8d2ec" stop-opacity=".023"/><stop offset=".4431" stop-color="#d1c9e2" stop-opacity=".098"/><stop offset=".5933" stop-color="#c4b9d1" stop-opacity=".225"/><stop offset=".7288" stop-color="#b2a4ba" stop-opacity=".405"/><stop offset=".8545" stop-color="#9a889c" stop-opacity=".638"/><stop offset=".9713" stop-color="#7e6678" stop-opacity=".92"/><stop offset="1" stop-color="#765d6e"/></linearGradient><linearGradient id="SVGID_00000176005316572156244780000007604834160107903152_" gradientTransform="matrix(1 0 0 -1 0 514)" gradientUnits="userSpaceOnUse" x1="125.264" x2="211.298" xlink:href="#lg4" y1="231.778" y2="-8.4"/><linearGradient id="SVGID_00000076594904760468229250000012820057221397015184_" gradientTransform="matrix(1 0 0 -1 0 514)" gradientUnits="userSpaceOnUse" x1="251.963" x2="337.997" xlink:href="#lg4" y1="277.163" y2="36.985"/><linearGradient id="SVGID_00000172402052570038336460000011742353969694426801_" gradientTransform="matrix(1 0 0 -1 0 514)" gradientUnits="userSpaceOnUse" x1="258.314" x2="344.348" xlink:href="#lg4" y1="279.438" y2="39.26"/><linearGradient id="SVGID_00000031923364360404413470000014231321153890660789_" gradientTransform="matrix(1 0 0 -1 0 514)" gradientUnits="userSpaceOnUse" x1="288.506" x2="374.54" xlink:href="#lg4" y1="290.253" y2="50.075"/><linearGradient id="SVGID_00000057150436760261411740000010595767023218522507_" gradientTransform="matrix(1 0 0 -1 0 514)" gradientUnits="userSpaceOnUse" x1="284.776" x2="370.809" xlink:href="#lg4" y1="288.916" y2="48.739"/><linearGradient id="SVGID_00000153672681386927585430000017755790204829773736_" gradientTransform="matrix(1 0 0 -1 0 514)" gradientUnits="userSpaceOnUse" x1="246.62" x2="332.654" xlink:href="#lg4" y1="275.249" y2="35.071"/><linearGradient id="SVGID_00000062891839571085320150000018092298334907199395_" gradientTransform="matrix(1 0 0 -1 0 514)" gradientUnits="userSpaceOnUse" x1="169.541" x2="255.575" xlink:href="#lg4" y1="247.639" y2="7.461"/><linearGradient id="SVGID_00000062174481007056575780000009194690922942537652_" gradientTransform="matrix(1 0 0 -1 0 514)" gradientUnits="userSpaceOnUse" x1="210.467" x2="296.501" xlink:href="#lg4" y1="262.299" y2="22.121"/><linearGradient id="SVGID_00000140014204359266747850000013747798250046525102_" gradientTransform="matrix(1 0 0 -1 0 514)" gradientUnits="userSpaceOnUse" x1="175.892" x2="261.926" xlink:href="#lg4" y1="249.914" y2="9.736"/><linearGradient id="SVGID_00000003107207524105356390000010787260999676852666_" gradientTransform="matrix(1 0 0 -1 0 514)" gradientUnits="userSpaceOnUse" x1="209.368" x2="295.402" xlink:href="#lg4" y1="261.905" y2="21.727"/><linearGradient id="SVGID_00000119104659536869511360000009006765482109832635_" gradientTransform="matrix(1 0 0 -1 0 514)" gradientUnits="userSpaceOnUse" x1="232.194" x2="318.228" xlink:href="#lg4" y1="270.081" y2="29.903"/><linearGradient id="SVGID_00000039110461341556593190000011558375798430777781_" gradientTransform="matrix(1 0 0 -1 0 514)" gradientUnits="userSpaceOnUse" x1="263.293" x2="263.293" xlink:href="#lg4" y1="114.016" y2="65.85"/><linearGradient id="SVGID_00000044877809354484588290000011173417199151109551_" gradientTransform="matrix(1 0 0 -1 0 514)" gradientUnits="userSpaceOnUse" x1="309.902" x2="363.368" xlink:href="#lg4" y1="118.463" y2="160.522"/><linearGradient id="SVGID_00000008852600490904895500000011666578444590251413_" gradientTransform="matrix(1 0 0 -1 0 514)" gradientUnits="userSpaceOnUse" x1="318.027" x2="328.543" xlink:href="#lg3" y1="270.514" y2="259.998"/><linearGradient id="SVGID_00000146478914770239942820000004609092410156836524_" gradientTransform="matrix(1 0 0 -1 0 514)" gradientUnits="userSpaceOnUse" x1="219.448" x2="229.964" xlink:href="#lg3" y1="237.009" y2="226.493"/><linearGradient id="SVGID_00000114775800125131061980000001177686812584654766_" gradientTransform="matrix(1 0 0 -1 0 514)" gradientUnits="userSpaceOnUse" x1="276.794" x2="291.638" xlink:href="#lg3" y1="285.954" y2="271.11"/><linearGradient id="SVGID_00000154420557726655626350000014612442004321251006_" gradientTransform="matrix(1 0 0 -1 0 514)" gradientUnits="userSpaceOnUse" x1="215.214" x2="230.058" xlink:href="#lg3" y1="352.964" y2="338.12"/><linearGradient id="SVGID_00000112630641922125852930000017004365554268902024_" gradientTransform="matrix(1 0 0 -1 0 514)" gradientUnits="userSpaceOnUse" x1="284.521" x2="293.439" xlink:href="#lg3" y1="236.652" y2="227.734"/><linearGradient id="SVGID_00000042003443803213542080000001357010548590103447_" gradientTransform="matrix(1 0 0 -1 0 514)" gradientUnits="userSpaceOnUse" x1="182.485" x2="191.403" xlink:href="#lg3" y1="300.657" y2="291.739"/><linearGradient id="SVGID_00000071525358073123821820000000135162946493987459_" gradientTransform="matrix(1 0 0 -1 0 514)" gradientUnits="userSpaceOnUse" x1="220.314" x2="232.789" xlink:href="#lg3" y1="266.187" y2="253.712"/><linearGradient id="SVGID_00000164473559596924459560000005821633539522368394_" gradientTransform="matrix(1 0 0 -1 0 514)" gradientUnits="userSpaceOnUse" x1="223.199" x2="235.674" xlink:href="#lg3" y1="307.145" y2="294.67"/><linearGradient id="SVGID_00000143575188090039062920000017404006338890177975_" gradientTransform="matrix(1 0 0 -1 0 514)" gradientUnits="userSpaceOnUse" x1="253.96" x2="264.195" xlink:href="#lg3" y1="277.022" y2="266.787"/><linearGradient id="SVGID_00000126325001899915267670000014097089368165932440_" gradientTransform="matrix(1 0 0 -1 0 514)" gradientUnits="userSpaceOnUse" x1="191.941" x2="202.175" xlink:href="#lg3" y1="260.464" y2="250.23"/><linearGradient id="SVGID_00000026855012353039025820000012738991461868638139_" gradientTransform="matrix(1 0 0 -1 0 514)" gradientUnits="userSpaceOnUse" x1="273.602" x2="283.836" xlink:href="#lg3" y1="324.469" y2="314.234"/><linearGradient id="SVGID_00000108990819618248583560000006429135636283700888_" gradientTransform="matrix(1 0 0 -1 0 514)" gradientUnits="userSpaceOnUse" x1="251.641" x2="261.876" xlink:href="#lg3" y1="227.535" y2="217.301"/><linearGradient id="SVGID_00000040574314343411497930000009356253877543970726_" gradientTransform="matrix(-.906 .423 -.423 -.906 780.269 341.018)" gradientUnits="userSpaceOnUse" x1="273.295" x2="273.295" y1="346.513" y2="259.492"><stop offset="0" stop-color="#fe646f"/><stop offset=".235" stop-color="#fa5964"/><stop offset=".6415" stop-color="#ef3d49"/><stop offset="1" stop-color="#e41f2d"/></linearGradient><linearGradient id="SVGID_00000046340023335845458930000003068651177020833157_" gradientTransform="matrix(.906 -.423 -.423 -.906 197.883 612.59)" gradientUnits="userSpaceOnUse" x1="369.297" x2="369.297" y1="311.213" y2="224.066"><stop offset="0" stop-color="#a72b2b" stop-opacity="0"/><stop offset=".1561" stop-color="#a32b2a" stop-opacity=".066"/><stop offset=".386" stop-color="#982c29" stop-opacity=".248"/><stop offset=".6615" stop-color="#872f28" stop-opacity=".545"/><stop offset=".97" stop-color="#6f3226" stop-opacity=".956"/><stop offset="1" stop-color="#6d3326"/></linearGradient><g><g><g><path d="m235.787 122.18-82.98 177.951-96.098-44.811c-49.145-22.916-70.402-81.321-47.486-130.465 11.458-24.572 31.792-42.174 55.397-50.766s50.496-8.178 75.068 3.28c.001 0 96.099 44.811 96.099 44.811z" fill="url(#SVGID_1_)"/><path d="m206.939 184.045-54.132 116.086-96.098-44.811c-49.145-22.916-70.402-81.321-47.486-130.465 4.411-9.458 10.136-17.881 16.85-25.148z" fill="url(#SVGID_00000111156456583249375670000014010794554024783498_)"/></g><path d="m174.261 201.813c22.914-49.14 50.46-84.793 61.526-79.633 11.065 5.16 1.46 49.179-21.454 98.318s-50.46 84.793-61.526 79.633c-11.065-5.159-1.46-49.178 21.454-98.318z" fill="url(#SVGID_00000161620088520269066740000003666357650888078779_)"/><path d="m174.261 201.813c22.914-49.14 50.46-84.793 61.526-79.633 11.065 5.16 1.46 49.179-21.454 98.318s-50.46 84.793-61.526 79.633c-11.065-5.159-1.46-49.178 21.454-98.318z" fill="url(#SVGID_00000177444669096461855160000001281104191709938097_)"/><path d="m174.261 201.813c22.914-49.14 50.46-84.793 61.526-79.633 11.065 5.16 1.46 49.179-21.454 98.318s-50.46 84.793-61.526 79.633c-11.065-5.159-1.46-49.178 21.454-98.318z" fill="url(#SVGID_00000011743233388662097350000004661587525855324303_)"/></g><g><path d="m184.92 341.929-81.943 81.943c-7.373 7.373-2.151 19.98 8.276 19.98h304.078c10.427 0 15.649-12.607 8.276-19.98l-81.943-81.943c-43.284-43.284-113.46-43.284-156.744 0z" fill="url(#SVGID_00000136381780303612050430000001433462203545469369_)"/><g><circle cx="169.239" cy="404.985" fill="url(#SVGID_00000176005316572156244780000007604834160107903152_)" r="8.45"/><circle cx="309.168" cy="396.535" fill="url(#SVGID_00000076594904760468229250000012820057221397015184_)" r="8.45"/><circle cx="326.188" cy="424.046" fill="url(#SVGID_00000172402052570038336460000011742353969694426801_)" r="5.565"/><path d="m338.689 358.277c-3.074 0-5.565 2.492-5.565 5.565s2.492 5.565 5.565 5.565 5.565-2.492 5.565-5.565-2.491-5.565-5.565-5.565z" fill="url(#SVGID_00000031923364360404413470000014231321153890660789_)"/><circle cx="350.021" cy="407.227" fill="url(#SVGID_00000057150436760261411740000010595767023218522507_)" r="5.565"/><circle cx="290.929" cy="362.449" fill="url(#SVGID_00000153672681386927585430000017755790204829773736_)" r="8.45"/><circle cx="207.493" cy="372.311" fill="url(#SVGID_00000062891839571085320150000018092298334907199395_)" r="8.45"/><circle cx="261.532" cy="394.257" fill="url(#SVGID_00000062174481007056575780000009194690922942537652_)" r="8.45"/><path d="m224.514 394.257c-3.074 0-5.565 2.492-5.565 5.565 0 3.074 2.491 5.565 5.565 5.565s5.565-2.492 5.565-5.565c0-3.074-2.492-5.565-5.565-5.565z" fill="url(#SVGID_00000140014204359266747850000013747798250046525102_)"/><circle cx="237.015" cy="329.276" fill="url(#SVGID_00000003107207524105356390000010787260999676852666_)" r="5.565"/><path d="m268.468 339.618c-3.074 0-5.565 2.492-5.565 5.565 0 3.074 2.492 5.565 5.565 5.565s5.565-2.492 5.565-5.565-2.492-5.565-5.565-5.565z" fill="url(#SVGID_00000119104659536869511360000009006765482109832635_)"/></g><path d="m415.33 443.854h-304.08c-10.42 0-15.65-12.61-8.27-19.98l58.1-58.11h204.42l58.11 58.11c7.37 7.37 2.15 19.98-8.28 19.98z" fill="url(#SVGID_00000039110461341556593190000011558375798430777781_)"/><path d="m341.664 341.929c-25.849-25.849-61.288-36.255-94.864-31.231v133.153h168.53c10.427 0 15.649-12.607 8.276-19.98z" fill="url(#SVGID_00000044877809354484588290000011173417199151109551_)"/></g><g><circle cx="324.666" cy="250.125" fill="url(#SVGID_00000008852600490904895500000011666578444590251413_)" r="8.45"/><circle cx="226.087" cy="283.63" fill="url(#SVGID_00000146478914770239942820000004609092410156836524_)" r="8.45"/><circle cx="287.667" cy="238.919" fill="url(#SVGID_00000114775800125131061980000001177686812584654766_)" r="8.45"/><circle cx="226.087" cy="171.909" fill="url(#SVGID_00000154420557726655626350000014612442004321251006_)" r="8.45"/><circle cx="289.371" cy="282.197" fill="url(#SVGID_00000112630641922125852930000017004365554268902024_)" r="8.45"/><circle cx="187.334" cy="218.193" fill="url(#SVGID_00000042003443803213542080000001357010548590103447_)" r="8.45"/><circle cx="226.087" cy="253.586" fill="url(#SVGID_00000071525358073123821820000000135162946493987459_)" r="5.565"/><circle cx="228.971" cy="212.628" fill="url(#SVGID_00000164473559596924459560000005821633539522368394_)" r="5.565"/><path d="m255.64 238.658c-2.173 2.173-2.173 5.697 0 7.87s5.697 2.173 7.87 0 2.173-5.697 0-7.87-5.696-2.173-7.87 0z" fill="url(#SVGID_00000143575188090039062920000017404006338890177975_)"/><path d="m193.62 255.216c-2.173 2.173-2.173 5.697 0 7.87s5.697 2.173 7.87 0 2.173-5.697 0-7.87c-2.173-2.174-5.696-2.174-7.87 0z" fill="url(#SVGID_00000126325001899915267670000014097089368165932440_)"/><path d="m275.281 191.211c-2.173 2.173-2.173 5.697 0 7.87s5.697 2.173 7.87 0 2.173-5.697 0-7.87-5.696-2.173-7.87 0z" fill="url(#SVGID_00000026855012353039025820000012738991461868638139_)"/><path d="m253.321 288.145c-2.173 2.173-2.173 5.697 0 7.87s5.697 2.173 7.87 0 2.173-5.697 0-7.87c-2.173-2.174-5.697-2.174-7.87 0z" fill="url(#SVGID_00000108990819618248583560000006429135636283700888_)"/></g><g><path d="m276.213 122.181 96.098-44.811c24.572-11.458 51.463-11.872 75.068-3.28s43.939 26.193 55.397 50.766c22.916 49.144 1.659 107.549-47.486 130.466l-96.098 44.811c-11.065 5.16-38.611-30.493-61.526-79.633s-32.519-93.16-21.453-98.319z" fill="url(#SVGID_00000040574314343411497930000009356253877543970726_)"/><path d="m297.667 220.499c22.914 49.14 50.46 84.793 61.526 79.633l96.098-44.811c49.144-22.916 70.402-81.321 47.486-130.466-4.409-9.456-10.144-17.868-16.863-25.143l-199.939 93.233c3.372 8.836 7.283 18.098 11.692 27.554z" fill="url(#SVGID_00000046340023335845458930000003068651177020833157_)"/></g></g></svg>