<svg id="_35_Bill" enable-background="new 0 0 512 512" viewBox="0 0 512 512" xmlns="http://www.w3.org/2000/svg" xmlns:xlink="http://www.w3.org/1999/xlink"><linearGradient id="lg1"><stop offset="0" stop-color="#f3faff"/><stop offset="1" stop-color="#d5daf3"/></linearGradient><linearGradient id="SVGID_1_" gradientTransform="matrix(1 0 0 -1 0 514)" gradientUnits="userSpaceOnUse" x1="305.713" x2="441.713" xlink:href="#lg1" y1="156.366" y2="101.033"/><linearGradient id="lg2"><stop offset="0" stop-color="#dbd5ef" stop-opacity="0"/><stop offset=".2667" stop-color="#d8d2ec" stop-opacity=".023"/><stop offset=".4431" stop-color="#d1c9e2" stop-opacity=".098"/><stop offset=".5933" stop-color="#c4b9d1" stop-opacity=".225"/><stop offset=".7288" stop-color="#b2a4ba" stop-opacity=".405"/><stop offset=".8545" stop-color="#9a889c" stop-opacity=".638"/><stop offset=".9713" stop-color="#7e6678" stop-opacity=".92"/><stop offset="1" stop-color="#765d6e"/></linearGradient><linearGradient id="SVGID_00000059269975411700509180000008925029612894975386_" gradientTransform="matrix(1 0 0 -1 0 514)" gradientUnits="userSpaceOnUse" x1="88.333" x2="522.346" xlink:href="#lg2" y1="105.787" y2="105.787"/><linearGradient id="SVGID_00000039100064575871985620000011306919313981645993_" gradientTransform="matrix(1 0 0 -1 0 514)" gradientUnits="userSpaceOnUse" x1="449.851" x2="366.518" xlink:href="#lg2" y1="99.188" y2="36.521"/><linearGradient id="SVGID_00000154412028801244847350000011196320284165506725_" gradientTransform="matrix(1 0 0 -1 0 514)" gradientUnits="userSpaceOnUse" x1="481.37" x2="368.034" xlink:href="#lg2" y1="105.787" y2="105.787"/><linearGradient id="SVGID_00000070102612083144067650000001066249099375653807_" gradientTransform="matrix(1 0 0 -1 0 514)" gradientUnits="userSpaceOnUse" x1="457.625" x2="346.417" xlink:href="#lg2" y1="140.586" y2="76.427"/><linearGradient id="SVGID_00000168078906976627327870000004479753960239892667_" gradientTransform="matrix(1 0 0 -1 0 514)" gradientUnits="userSpaceOnUse" x1="417.82" x2="417.82" xlink:href="#lg2" y1="114.333" y2="-.527"/><linearGradient id="SVGID_00000161614286287427514380000015245258147715636144_" gradientTransform="matrix(1 0 0 -1 0 514)" gradientUnits="userSpaceOnUse" x1="54.599" x2="438.428" xlink:href="#lg1" y1="413.987" y2="30.157"/><linearGradient id="SVGID_00000164506299586805807860000007564673176760537010_" gradientTransform="matrix(1 0 0 -1 0 514)" gradientUnits="userSpaceOnUse" x1="166.25" x2="73.044" xlink:href="#lg2" y1="378.902" y2="472.108"/><linearGradient id="SVGID_00000007392709623988437550000018058173790397166003_" gradientTransform="matrix(1 0 0 -1 0 514)" gradientUnits="userSpaceOnUse" x1="282.284" x2="380.234" xlink:href="#lg2" y1="258" y2="258"/><linearGradient id="SVGID_00000170993726926387836800000008933749262837134976_" gradientTransform="matrix(1 0 0 -1 0 514)" gradientUnits="userSpaceOnUse" x1="222.059" x2="222.059" xlink:href="#lg2" y1="39.837" y2="-2.148"/><linearGradient id="SVGID_00000168074509301665896280000015784434684830766477_" gradientTransform="matrix(1 0 0 -1 0 514)" gradientUnits="userSpaceOnUse" x1="66.364" x2="134.132" xlink:href="#lg1" y1="478.787" y2="411.019"/><linearGradient id="SVGID_00000099623913274029279340000008337771025599605653_" gradientTransform="matrix(1 0 0 -1 0 514)" gradientUnits="userSpaceOnUse" x1="260.838" x2="177.267" xlink:href="#lg2" y1="319.497" y2="351.861"/><linearGradient id="SVGID_00000178899820729336510030000005343625277969384378_" gradientTransform="matrix(1 0 0 -1 0 514)" gradientUnits="userSpaceOnUse" x1="181.934" x2="138.714" xlink:href="#lg2" y1="316.14" y2="338.671"/><linearGradient id="SVGID_00000015327750151513245990000004364828330381432452_" gradientTransform="matrix(1 0 0 -1 0 514)" gradientUnits="userSpaceOnUse" x1="184.671" x2="167.46" xlink:href="#lg2" y1="431.435" y2="431.435"/><linearGradient id="SVGID_00000175314062805074746120000011178938005119028643_" gradientTransform="matrix(1 0 0 -1 0 514)" gradientUnits="userSpaceOnUse" x1="183.198" x2="183.198" xlink:href="#lg2" y1="430.444" y2="450.912"/><linearGradient id="SVGID_00000138569170105898680530000009724343750273678492_" gradientTransform="matrix(1 0 0 -1 0 514)" gradientUnits="userSpaceOnUse" x1="148.478" x2="231.503" y1="439.623" y2="359.329"><stop offset="0" stop-color="#99e6fc"/><stop offset=".1325" stop-color="#8ee1fb"/><stop offset=".3627" stop-color="#71d5f9"/><stop offset=".6631" stop-color="#43c2f5"/><stop offset="1" stop-color="#08a9f1"/></linearGradient><linearGradient id="lg3"><stop offset="0" stop-color="#314dc9" stop-opacity="0"/><stop offset=".1245" stop-color="#304cc8" stop-opacity=".03"/><stop offset=".2787" stop-color="#2f4bc6" stop-opacity=".117"/><stop offset=".4488" stop-color="#2e49c2" stop-opacity=".26"/><stop offset=".6301" stop-color="#2c47bd" stop-opacity=".46"/><stop offset=".8182" stop-color="#2943b7" stop-opacity=".714"/><stop offset="1" stop-color="#2740b0"/></linearGradient><linearGradient id="SVGID_00000071551706824859935750000002136285901641883565_" gradientTransform="matrix(1 0 0 -1 0 514)" gradientUnits="userSpaceOnUse" x1="156.121" x2="156.121" xlink:href="#lg3" y1="363.423" y2="343.246"/><linearGradient id="SVGID_00000078748494039410350610000003840076512951661236_" gradientTransform="matrix(1 0 0 -1 0 514)" gradientUnits="userSpaceOnUse" x1="195.042" x2="192.175" xlink:href="#lg3" y1="340.052" y2="326.533"/><linearGradient id="SVGID_00000071531064166308427740000010501799312842237329_" gradientTransform="matrix(1 0 0 -1 0 514)" gradientUnits="userSpaceOnUse" x1="240.24" x2="250.072" xlink:href="#lg3" y1="343.957" y2="330.233"/><linearGradient id="SVGID_00000055665838221306075260000001663385435173954955_" gradientTransform="matrix(1 0 0 -1 0 514)" gradientUnits="userSpaceOnUse" x1="179.55" x2="164.256" xlink:href="#lg3" y1="405.293" y2="405.293"/><linearGradient id="SVGID_00000170979954247905279240000015362831150825879998_" gradientTransform="matrix(1 0 0 -1 0 514)" gradientUnits="userSpaceOnUse" x1="242.913" x2="244.462" xlink:href="#lg2" y1="383.549" y2="155.04"/><linearGradient id="SVGID_00000139973442761653109760000018281335619249836696_" gradientTransform="matrix(1 0 0 -1 0 514)" gradientUnits="userSpaceOnUse" x1="242.913" x2="244.462" xlink:href="#lg2" y1="335.252" y2="106.743"/><linearGradient id="SVGID_00000145058609141061561230000018302870561513433516_" gradientTransform="matrix(1 0 0 -1 0 514)" gradientUnits="userSpaceOnUse" x1="242.913" x2="244.462" xlink:href="#lg2" y1="286.955" y2="58.446"/><linearGradient id="SVGID_00000113321898498833221490000007405622481839357861_" gradientTransform="matrix(1 0 0 -1 0 514)" gradientUnits="userSpaceOnUse" x1="-101.259" x2="164.169" xlink:href="#lg2" y1="341.7" y2="103.083"/><linearGradient id="SVGID_00000034052254080793090950000004155678795074210188_" gradientTransform="matrix(1 0 0 -1 0 514)" gradientUnits="userSpaceOnUse" x1="197.657" x2="199.206" xlink:href="#lg2" y1="475.661" y2="247.152"/><linearGradient id="SVGID_00000098213044929589027940000005972700295742870175_" gradientTransform="matrix(1 0 0 -1 0 514)" gradientUnits="userSpaceOnUse" x1="197.681" x2="199.2" xlink:href="#lg2" y1="437.674" y2="213.676"/><g><path d="m464.045 304.429h-109.255v160.383c0 26.06 21.126 47.186 47.186 47.186h22.82c30.957 0 56.053-25.096 56.053-56.053v-134.713c0-9.275-7.517-16.803-16.804-16.803z" fill="url(#SVGID_1_)"/><path d="m464.045 304.429h-109.255v160.383c0 26.06 21.126 47.186 47.186 47.186h22.82c30.957 0 56.053-25.096 56.053-56.053v-134.713c0-9.275-7.517-16.803-16.804-16.803z" fill="url(#SVGID_00000059269975411700509180000008925029612894975386_)"/><path d="m354.79 393.87v70.937c0 26.067 21.125 47.191 47.191 47.191h22.814c30.963 0 56.053-25.101 56.053-56.053v-62.075z" fill="url(#SVGID_00000039100064575871985620000011306919313981645993_)"/><path d="m464.045 304.429h-109.255v160.383c0 26.06 21.126 47.186 47.186 47.186h22.82c30.957 0 56.053-25.096 56.053-56.053v-134.713c0-9.275-7.517-16.803-16.804-16.803z" fill="url(#SVGID_00000154412028801244847350000011196320284165506725_)"/><path d="m464.045 304.429h-109.255v160.383c0 26.06 21.126 47.186 47.186 47.186h22.82c30.957 0 56.053-25.096 56.053-56.053v-134.713c0-9.275-7.517-16.803-16.804-16.803z" fill="url(#SVGID_00000070102612083144067650000001066249099375653807_)"/><path d="m354.79 393.87v70.937c0 26.067 21.125 47.191 47.191 47.191h22.814c30.963 0 56.053-25.101 56.053-56.053v-62.075z" fill="url(#SVGID_00000168078906976627327870000004479753960239892667_)"/><g><path d="m366.617 465.65c0 25.598 20.751 46.35 46.35 46.35h-332.167c-27.42 0-49.648-22.228-49.648-49.648v-365.045l97.306-97.307h228.46c5.356 0 9.698 4.342 9.698 9.698v455.952z" fill="url(#SVGID_00000161614286287427514380000015245258147715636144_)"/><path d="m31.151 317.436 317.436-317.436h-207.73c-7.938 0-15.552 3.154-21.165 8.767l-79.774 79.773c-5.613 5.613-8.767 13.227-8.767 21.165z" fill="url(#SVGID_00000164506299586805807860000007564673176760537010_)"/><path d="m356.919 0h-121.386v512h177.433c-25.598 0-46.35-20.751-46.35-46.35v-455.952c.001-5.356-4.341-9.698-9.697-9.698z" fill="url(#SVGID_00000007392709623988437550000018058173790397166003_)"/><path d="m31.151 393.87v68.482c0 27.42 22.229 49.648 49.649 49.648h332.167c-25.598 0-46.35-20.751-46.35-46.35v-71.78z" fill="url(#SVGID_00000170993726926387836800000008933749262837134976_)"/><path d="m124.534.963c-45.612 11.191-81.226 46.803-92.419 92.416l-.964 3.928v13.218c0-7.3 5.918-13.218 13.218-13.218h74.391c5.356 0 9.698-4.342 9.698-9.698v-74.391c0-7.3 5.918-13.218 13.218-13.218h-13.218s-3.924.963-3.924.963z" fill="url(#SVGID_00000168074509301665896280000015784434684830766477_)"/></g><g><path d="m366.617 200.626-148.894-148.893v37.251l-18.839 23.423v46.219l-16.754 18.427 184.487 184.487z" fill="url(#SVGID_00000099623913274029279340000008337771025599605653_)"/><path d="m366.617 292.641-180.819-180.819h-40.414v49.139l221.233 221.232z" fill="url(#SVGID_00000178899820729336510030000005343625277969384378_)"/><circle cx="183.198" cy="82.565" fill="url(#SVGID_00000015327750151513245990000004364828330381432452_)" r="27.077"/><circle cx="183.198" cy="82.565" fill="url(#SVGID_00000175314062805074746120000011178938005119028643_)" r="27.077"/><g><path d="m254.205 167.73c-.336-.778-.671-1.395-1.005-1.843l-19.089-24.95 17.247-22.941c1.114-1.562 1.673-2.957 1.673-4.187 0-1.447-.614-2.954-1.84-4.521-1.231-1.562-2.738-2.957-4.523-4.187-1.785-1.226-3.683-2.258-5.692-3.096s-3.742-1.256-5.192-1.256c-.895 0-1.925.194-3.098.587-1.171.393-2.094 1.144-2.763 2.258l-13.564 21.77-8.712-14.265c5.375-2.282 9.893-6.012 13.529-11.23 3.852-5.528 5.776-12.977 5.776-22.354 0-6.808-1.062-12.503-3.18-17.08-2.124-4.575-5.053-8.26-8.793-11.053-3.74-2.787-8.121-4.772-13.144-5.945-5.023-1.171-10.381-1.756-16.076-1.756h-34.663c-2.457 0-4.411.781-5.861 2.342-1.452 1.567-2.176 3.407-2.176 5.525v106.5c0 2.681 1.365 4.69 4.1 6.03s5.722 2.009 8.959 2.009 6.221-.669 8.959-2.009c2.735-1.34 4.103-3.349 4.103-6.03v-40.355h11.05c.071.181.115.373.208.545.39.729.753 1.313 1.089 1.758l17.08 22.772-18.923 25.119c-.448.562-.811 1.228-1.087 2.009-.281.783-.42 1.567-.42 2.345 0 1.564.612 3.098 1.843 4.605 1.226 1.507 2.735 2.877 4.521 4.103 1.785 1.231 3.628 2.235 5.528 3.014 1.895.778 3.516 1.171 4.854 1.171.893 0 1.982-.224 3.267-.669 1.281-.448 2.26-1.114 2.929-2.009l15.238-23.108 15.407 23.108c.669 1.005 1.562 1.701 2.678 2.091 1.116.393 2.178.587 3.183.587 1.673 0 3.516-.418 5.525-1.253 2.009-.84 3.879-1.87 5.61-3.098s3.153-2.623 4.269-4.187c1.116-1.562 1.676-3.014 1.676-4.354.002-.894-.167-1.729-.5-2.512zm-85.023-103.278h16.578c4.69 0 8.372 1.119 11.053 3.349 2.678 2.235 4.018 6.308 4.018 12.224 0 5.918-1.34 9.994-4.018 12.224-2.681 2.235-6.363 3.349-11.053 3.349h-16.578z" fill="url(#SVGID_00000138569170105898680530000009724343750273678492_)"/><path d="m143.061 126.161v29.887c0 2.681 1.365 4.69 4.1 6.03s5.722 2.009 8.959 2.009 6.221-.669 8.959-2.009c2.735-1.34 4.103-3.349 4.103-6.03v-29.887z" fill="url(#SVGID_00000071551706824859935750000002136285901641883565_)"/><g><path d="m216.359 157.348-17.749-16.581-18.923 25.119c-.448.562-.811 1.228-1.087 2.009-.281.783-.42 1.567-.42 2.345 0 1.564.612 3.098 1.843 4.605 1.226 1.507 2.735 2.877 4.521 4.103 1.785 1.231 3.628 2.235 5.528 3.014 1.895.778 3.516 1.171 4.854 1.171.893 0 1.982-.224 3.267-.669 1.281-.448 2.26-1.114 2.929-2.009z" fill="url(#SVGID_00000078748494039410350610000003840076512951661236_)"/><path d="m234.444 182.547c1.117.393 2.178.587 3.183.587 1.673 0 3.516-.418 5.525-1.253 2.009-.84 3.879-1.87 5.61-3.098s3.153-2.623 4.269-4.187c1.117-1.562 1.676-3.014 1.676-4.354 0-.893-.169-1.728-.502-2.511-.336-.778-.671-1.395-1.005-1.843l-19.089-24.95-17.752 16.411 15.407 23.108c.669 1.003 1.562 1.7 2.678 2.09z" fill="url(#SVGID_00000071531064166308427740000010501799312842237329_)"/></g><path d="m180.44 116.238c.39.729.753 1.313 1.089 1.758l3.2 4.267 5.745-6.569v-20.542c-1.44.295-3.008.447-4.714.447h-16.578v20.094h11.05c.071.181.116.373.208.545z" fill="url(#SVGID_00000055665838221306075260000001663385435173954955_)"/></g></g><g><g><path d="m162.842 304.429h162.596c3.879 0 7.024 3.145 7.024 7.024 0 3.879-3.145 7.024-7.024 7.024h-162.596c-3.879 0-7.024-3.145-7.024-7.024 0-3.879 3.144-7.024 7.024-7.024z" fill="url(#SVGID_00000170979954247905279240000015362831150825879998_)"/><path d="m162.842 352.726h162.596c3.879 0 7.024 3.145 7.024 7.024 0 3.879-3.145 7.024-7.024 7.024h-162.596c-3.879 0-7.024-3.145-7.024-7.024 0-3.879 3.144-7.024 7.024-7.024z" fill="url(#SVGID_00000139973442761653109760000018281335619249836696_)"/><path d="m162.842 401.023h162.596c3.879 0 7.024 3.145 7.024 7.024 0 3.879-3.145 7.024-7.024 7.024h-162.596c-3.879 0-7.024-3.145-7.024-7.024 0-3.879 3.144-7.024 7.024-7.024z" fill="url(#SVGID_00000145058609141061561230000018302870561513433516_)"/></g><path d="m101.252 418.782c-4.946 0-9.593-.632-13.935-1.9-4.344-1.268-8.161-2.894-11.459-4.878s-5.881-4.246-7.75-6.783c-1.871-2.534-2.804-5.127-2.804-7.772 0-1.432.301-2.951.908-4.547.602-1.599 1.401-3.088 2.39-4.464.989-1.381 2.169-2.537 3.546-3.474 1.374-.938 2.828-1.408 4.371-1.408 1.756 0 3.462.524 5.11 1.57 1.65 1.046 3.406 2.231 5.277 3.553 1.868 1.322 3.957 2.644 6.266 3.962 2.309 1.322 5.002 2.258 8.08 2.811v-26.733c-3.849-1.43-7.725-3.022-11.626-4.784-3.903-1.76-7.419-3.903-10.553-6.435-3.132-2.529-5.717-5.637-7.75-9.322-2.035-3.685-3.051-8.166-3.051-13.445s.908-9.873 2.723-13.776c1.812-3.905 4.229-7.204 7.255-9.902 3.022-2.693 6.513-4.838 10.47-6.432s8.134-2.723 12.532-3.381v-4.63c0-1.212.578-2.26 1.731-3.142 1.153-.881 2.664-1.325 4.535-1.325 1.538 0 2.968.448 4.287 1.334 1.32.891 1.978 1.944 1.978 3.164v4.167c2.527 0 5.495.22 8.905.661 3.406.446 6.621 1.19 9.645 2.233 3.022 1.05 5.607 2.485 7.75 4.305 2.145 1.822 3.215 4.167 3.215 7.032 0 1.104-.193 2.429-.575 3.974-.387 1.545-.989 3.034-1.814 4.469s-1.898 2.647-3.215 3.639c-1.32.994-2.86 1.489-4.618 1.489-1.32 0-2.583-.272-3.793-.823-1.21-.548-2.5-1.18-3.874-1.895-1.376-.715-2.997-1.403-4.865-2.062-1.871-.661-4.123-1.097-6.76-1.32v24.111c3.736 1.43 7.529 3.024 11.378 4.784 3.847 1.758 7.336 4.013 10.47 6.763 3.132 2.747 5.688 6.048 7.666 9.897s2.97 8.575 2.97 14.182c0 5.166-.801 9.789-2.392 13.856-1.594 4.067-3.82 7.613-6.677 10.639-2.86 3.022-6.266 5.497-10.225 7.422-3.957 1.925-8.354 3.271-13.19 4.04v4.738c0 1.197-.659 2.233-1.978 3.107-1.32.869-2.75 1.305-4.287 1.305-1.871 0-3.381-.441-4.535-1.317-1.153-.881-1.731-1.925-1.731-3.134zm-8.905-86.523c0 2.419.962 4.432 2.887 6.028 1.922 1.596 4.478 3.056 7.666 4.378v-19.659c-3.736.771-6.43 2.01-8.078 3.717-1.65 1.707-2.475 3.551-2.475 5.536zm29.845 52.63c0-2.752-.933-5.034-2.801-6.851-1.871-1.812-4.287-3.435-7.255-4.868v22.115c2.857-.659 5.247-1.812 7.172-3.465 1.922-1.647 2.884-3.959 2.884-6.931z" fill="url(#SVGID_00000113321898498833221490000007405622481839357861_)"/></g><path d="m117.586 212.317h162.596c3.879 0 7.024 3.145 7.024 7.024 0 3.879-3.145 7.024-7.024 7.024h-162.596c-3.879 0-7.024-3.145-7.024-7.024-.001-3.879 3.144-7.024 7.024-7.024z" fill="url(#SVGID_00000034052254080793090950000004155678795074210188_)"/><path d="m139.644 246.731h118.479c3.879 0 7.024 3.145 7.024 7.024 0 3.879-3.145 7.024-7.024 7.024h-118.479c-3.879 0-7.024-3.145-7.024-7.024 0-3.879 3.145-7.024 7.024-7.024z" fill="url(#SVGID_00000098213044929589027940000005972700295742870175_)"/></g></svg>