<svg id="_36_Ampoule" enable-background="new 0 0 512 512" viewBox="0 0 512 512" xmlns="http://www.w3.org/2000/svg" xmlns:xlink="http://www.w3.org/1999/xlink"><linearGradient id="lg1"><stop offset="0" stop-color="#fef0ae"/><stop offset="1" stop-color="#fac600"/></linearGradient><linearGradient id="SVGID_1_" gradientTransform="matrix(1 0 0 -1 0 514)" gradientUnits="userSpaceOnUse" x1="90.692" x2="152.859" xlink:href="#lg1" y1="257.999" y2="257.999"/><linearGradient id="lg2"><stop offset="0" stop-color="#fe9738" stop-opacity="0"/><stop offset=".1648" stop-color="#fe9637" stop-opacity=".012"/><stop offset=".2957" stop-color="#fe9535" stop-opacity=".052"/><stop offset=".415" stop-color="#fe9331" stop-opacity=".118"/><stop offset=".5274" stop-color="#fe902c" stop-opacity=".211"/><stop offset=".635" stop-color="#fe8c25" stop-opacity=".331"/><stop offset=".739" stop-color="#fe871d" stop-opacity=".479"/><stop offset=".8401" stop-color="#fe8213" stop-opacity=".655"/><stop offset=".9364" stop-color="#fe7b09" stop-opacity=".852"/><stop offset="1" stop-color="#fe7701"/></linearGradient><linearGradient id="SVGID_00000018951110377792331030000012937972365082488478_" gradientTransform="matrix(1 0 0 -1 0 514)" gradientUnits="userSpaceOnUse" x1="140.237" x2="179.47" xlink:href="#lg2" y1="257.999" y2="257.999"/><linearGradient id="SVGID_00000011738076317649269980000017183341268495478410_" gradientTransform="matrix(1 0 0 -1 0 514)" gradientUnits="userSpaceOnUse" x1="130.627" x2="164.845" xlink:href="#lg2" y1="428.261" y2="432.539"/><linearGradient id="SVGID_00000015327219947515784480000018436039979965736579_" gradientTransform="matrix(1 0 0 -1 0 514)" gradientUnits="userSpaceOnUse" x1="130.428" x2="130.428" xlink:href="#lg2" y1="377.295" y2="355.903"/><linearGradient id="SVGID_00000157297875965411292940000011661379405690157471_" gradientTransform="matrix(1 0 0 -1 0 514)" gradientUnits="userSpaceOnUse" x1="130.428" x2="130.428" xlink:href="#lg2" y1="307" y2="358.245"/><linearGradient id="SVGID_00000055669400342722281560000006162756022680527546_" gradientTransform="matrix(1 0 0 -1 0 514)" gradientUnits="userSpaceOnUse" x1="130.428" x2="130.428" xlink:href="#lg2" y1="38.327" y2="1.23"/><linearGradient id="lg3"><stop offset="0" stop-color="#f3faff"/><stop offset="1" stop-color="#d5daf3"/></linearGradient><linearGradient id="SVGID_00000178200875408487378000000000068989570858345346_" gradientTransform="matrix(1 0 0 -1 0 514)" gradientUnits="userSpaceOnUse" x1="118.597" x2="150.773" xlink:href="#lg3" y1="348.773" y2="348.773"/><linearGradient id="lg4"><stop offset="0" stop-color="#dbd5ef" stop-opacity="0"/><stop offset=".2667" stop-color="#d8d2ec" stop-opacity=".023"/><stop offset=".4431" stop-color="#d1c9e2" stop-opacity=".098"/><stop offset=".5933" stop-color="#c4b9d1" stop-opacity=".225"/><stop offset=".7288" stop-color="#b2a4ba" stop-opacity=".405"/><stop offset=".8545" stop-color="#9a889c" stop-opacity=".638"/><stop offset=".9713" stop-color="#7e6678" stop-opacity=".92"/><stop offset="1" stop-color="#765d6e"/></linearGradient><linearGradient id="SVGID_00000005985650797226743460000015919300634498176696_" gradientTransform="matrix(1 0 0 -1 0 514)" gradientUnits="userSpaceOnUse" x1="130.428" x2="130.428" xlink:href="#lg4" y1="348.781" y2="340.907"/><linearGradient id="SVGID_00000037672093132993430740000006074287907997722297_" gradientTransform="matrix(1 0 0 -1 0 514)" gradientUnits="userSpaceOnUse" x1="152.636" x2="165.37" xlink:href="#lg4" y1="348.773" y2="348.773"/><linearGradient id="SVGID_00000147208916713473217860000016372652552762797725_" gradientTransform="matrix(1 0 0 -1 0 514)" gradientUnits="userSpaceOnUse" x1="11.16" x2="231.436" xlink:href="#lg2" y1="216.377" y2="16.774"/><linearGradient id="SVGID_00000074434412293914639030000018235107521563006644_" gradientTransform="matrix(1 0 0 -1 0 514)" gradientUnits="userSpaceOnUse" x1="130.428" x2="130.428" xlink:href="#lg2" y1="37.614" y2="14.702"/><linearGradient id="SVGID_00000181786956699784955930000012101416657235244673_" gradientTransform="matrix(1 0 0 -1 0 514)" gradientUnits="userSpaceOnUse" x1="135.706" x2="169.218" xlink:href="#lg2" y1="110.101" y2="110.101"/><linearGradient id="lg5"><stop offset="0" stop-color="#fff" stop-opacity="0"/><stop offset=".0925" stop-color="#fff" stop-opacity=".024"/><stop offset=".2178" stop-color="#fff" stop-opacity=".092"/><stop offset=".3619" stop-color="#fff" stop-opacity=".203"/><stop offset=".52" stop-color="#fff" stop-opacity=".359"/><stop offset=".6897" stop-color="#fff" stop-opacity=".559"/><stop offset=".8661" stop-color="#fff" stop-opacity=".798"/><stop offset="1" stop-color="#fff"/></linearGradient><linearGradient id="SVGID_00000063599318551695832020000005837314588740342708_" gradientTransform="matrix(1 0 0 -1 0 514)" gradientUnits="userSpaceOnUse" x1="10.864" x2="171.26" xlink:href="#lg5" y1="233.624" y2="195.129"/><linearGradient id="SVGID_00000117666766165766125360000012721659496460659642_" gradientTransform="matrix(1 0 0 -1 0 514)" gradientUnits="userSpaceOnUse" x1="5.069" x2="165.464" xlink:href="#lg5" y1="209.475" y2="170.98"/><linearGradient id="SVGID_00000142892968033342677190000017438615868697318072_" gradientTransform="matrix(1 0 0 -1 0 514)" gradientUnits="userSpaceOnUse" x1="216.264" x2="278.431" xlink:href="#lg1" y1="257.999" y2="257.999"/><linearGradient id="SVGID_00000153676586448165976200000016255259975467345069_" gradientTransform="matrix(1 0 0 -1 0 514)" gradientUnits="userSpaceOnUse" x1="265.808" x2="305.042" xlink:href="#lg2" y1="257.999" y2="257.999"/><linearGradient id="SVGID_00000010997840333328774240000007941930045586323841_" gradientTransform="matrix(1 0 0 -1 0 514)" gradientUnits="userSpaceOnUse" x1="256.199" x2="290.416" xlink:href="#lg2" y1="428.261" y2="432.539"/><linearGradient id="SVGID_00000166659010051985497750000000481632063909273267_" gradientTransform="matrix(1 0 0 -1 0 514)" gradientUnits="userSpaceOnUse" x1="256" x2="256" xlink:href="#lg2" y1="377.295" y2="355.903"/><linearGradient id="SVGID_00000061467147626413938960000004062726573969809554_" gradientTransform="matrix(1 0 0 -1 0 514)" gradientUnits="userSpaceOnUse" x1="256" x2="256" xlink:href="#lg2" y1="307" y2="358.245"/><linearGradient id="SVGID_00000052819550983958238420000008906728867057810859_" gradientTransform="matrix(1 0 0 -1 0 514)" gradientUnits="userSpaceOnUse" x1="256" x2="256" xlink:href="#lg2" y1="38.327" y2="1.23"/><linearGradient id="SVGID_00000078039213609189349270000005209702845711452554_" gradientTransform="matrix(1 0 0 -1 0 514)" gradientUnits="userSpaceOnUse" x1="244.168" x2="276.344" xlink:href="#lg3" y1="348.773" y2="348.773"/><linearGradient id="SVGID_00000034778533435706239200000001396396286592530866_" gradientTransform="matrix(1 0 0 -1 0 514)" gradientUnits="userSpaceOnUse" x1="256" x2="256" xlink:href="#lg4" y1="348.781" y2="340.907"/><linearGradient id="SVGID_00000065054228413366371160000002287946449846851972_" gradientTransform="matrix(1 0 0 -1 0 514)" gradientUnits="userSpaceOnUse" x1="278.208" x2="290.941" xlink:href="#lg4" y1="348.773" y2="348.773"/><linearGradient id="SVGID_00000098200407742571438080000016849494323159078061_" gradientTransform="matrix(1 0 0 -1 0 514)" gradientUnits="userSpaceOnUse" x1="136.732" x2="357.008" xlink:href="#lg2" y1="216.377" y2="16.774"/><linearGradient id="SVGID_00000118383835094341571830000008798862950041745312_" gradientTransform="matrix(1 0 0 -1 0 514)" gradientUnits="userSpaceOnUse" x1="256" x2="256" xlink:href="#lg2" y1="37.614" y2="14.702"/><linearGradient id="SVGID_00000103231385330126419700000008549309623463091354_" gradientTransform="matrix(1 0 0 -1 0 514)" gradientUnits="userSpaceOnUse" x1="261.277" x2="294.79" xlink:href="#lg2" y1="110.101" y2="110.101"/><linearGradient id="SVGID_00000053534896850660052380000000562065291856126652_" gradientTransform="matrix(1 0 0 -1 0 514)" gradientUnits="userSpaceOnUse" x1="136.436" x2="296.831" xlink:href="#lg5" y1="233.624" y2="195.129"/><linearGradient id="SVGID_00000152967584077192267760000017727308392511076498_" gradientTransform="matrix(1 0 0 -1 0 514)" gradientUnits="userSpaceOnUse" x1="130.64" x2="291.036" xlink:href="#lg5" y1="209.475" y2="170.98"/><linearGradient id="SVGID_00000059272180287453323080000017620721372738082211_" gradientTransform="matrix(1 0 0 -1 0 514)" gradientUnits="userSpaceOnUse" x1="341.836" x2="404.002" xlink:href="#lg1" y1="257.999" y2="257.999"/><linearGradient id="SVGID_00000059298663415918258230000003636449490364072354_" gradientTransform="matrix(1 0 0 -1 0 514)" gradientUnits="userSpaceOnUse" x1="391.38" x2="430.614" xlink:href="#lg2" y1="257.999" y2="257.999"/><linearGradient id="SVGID_00000003068992149509301640000010911822388943687075_" gradientTransform="matrix(1 0 0 -1 0 514)" gradientUnits="userSpaceOnUse" x1="381.77" x2="415.988" xlink:href="#lg2" y1="428.261" y2="432.539"/><linearGradient id="SVGID_00000078750517492951069290000011655453036223194261_" gradientTransform="matrix(1 0 0 -1 0 514)" gradientUnits="userSpaceOnUse" x1="381.572" x2="381.572" xlink:href="#lg2" y1="377.295" y2="355.903"/><linearGradient id="SVGID_00000097467851916409834910000016786966982190879653_" gradientTransform="matrix(1 0 0 -1 0 514)" gradientUnits="userSpaceOnUse" x1="381.572" x2="381.572" xlink:href="#lg2" y1="307" y2="358.245"/><linearGradient id="SVGID_00000066500283518158006130000006857179443989305483_" gradientTransform="matrix(1 0 0 -1 0 514)" gradientUnits="userSpaceOnUse" x1="381.572" x2="381.572" xlink:href="#lg2" y1="38.327" y2="1.23"/><linearGradient id="SVGID_00000094591191557880431720000009846276256242465425_" gradientTransform="matrix(1 0 0 -1 0 514)" gradientUnits="userSpaceOnUse" x1="369.74" x2="401.916" xlink:href="#lg3" y1="348.773" y2="348.773"/><linearGradient id="SVGID_00000166644410143754992510000009205554409410213300_" gradientTransform="matrix(1 0 0 -1 0 514)" gradientUnits="userSpaceOnUse" x1="381.572" x2="381.572" xlink:href="#lg4" y1="348.781" y2="340.907"/><linearGradient id="SVGID_00000073708462678424285190000005204996942420500915_" gradientTransform="matrix(1 0 0 -1 0 514)" gradientUnits="userSpaceOnUse" x1="403.78" x2="416.513" xlink:href="#lg4" y1="348.773" y2="348.773"/><linearGradient id="SVGID_00000130647640943404139940000002155927839143931036_" gradientTransform="matrix(1 0 0 -1 0 514)" gradientUnits="userSpaceOnUse" x1="262.303" x2="482.58" xlink:href="#lg2" y1="216.377" y2="16.774"/><linearGradient id="SVGID_00000030483016118956062650000012759075860814318722_" gradientTransform="matrix(1 0 0 -1 0 514)" gradientUnits="userSpaceOnUse" x1="381.572" x2="381.572" xlink:href="#lg2" y1="37.614" y2="14.702"/><linearGradient id="SVGID_00000045592070300360000890000013185926656676348831_" gradientTransform="matrix(1 0 0 -1 0 514)" gradientUnits="userSpaceOnUse" x1="386.849" x2="420.361" xlink:href="#lg2" y1="110.101" y2="110.101"/><linearGradient id="SVGID_00000078013691703528068930000015538448935375150525_" gradientTransform="matrix(1 0 0 -1 0 514)" gradientUnits="userSpaceOnUse" x1="262.008" x2="422.403" xlink:href="#lg5" y1="233.624" y2="195.129"/><linearGradient id="SVGID_00000115512188778010485000000014188137550743339925_" gradientTransform="matrix(1 0 0 -1 0 514)" gradientUnits="userSpaceOnUse" x1="256.212" x2="416.607" xlink:href="#lg5" y1="209.475" y2="170.98"/><g><g><g><path d="m163.668 157.858 7.287-11.227c5.987-9.224 7.42-20.683 3.888-31.097l-11.03-32.527c-5.252-15.489-6.589-32.037-3.891-48.168 2.565-15.339-7.056-30.084-22.129-33.914-4.833-1.228-9.896-1.228-14.729 0-15.073 3.83-24.695 18.575-22.129 33.914 2.698 16.131 1.361 32.679-3.891 48.168l-11.03 32.527c-3.531 10.415-2.099 21.873 3.888 31.097l7.287 11.227c3.137 4.833 2.844 11.128-.729 15.648l-15.137 19.153c-4.455 5.637-6.878 12.612-6.878 19.796v274.493c0 13.836 11.216 25.052 25.052 25.052h61.863c13.836 0 25.052-11.216 25.052-25.052v-274.493c0-7.185-2.423-14.16-6.878-19.796l-15.137-19.153c-3.573-4.521-3.866-10.816-.729-15.648z" fill="url(#SVGID_1_)"/><path d="m164.397 173.505c-3.572-4.52-3.866-10.815-.729-15.648l7.287-11.227c5.987-9.224 7.42-20.683 3.888-31.097l-11.03-32.527c-5.252-15.489-6.589-32.037-3.891-48.168 2.565-15.34-7.056-30.084-22.129-33.915-4.833-1.228-9.896-1.228-14.729 0-2.167.551-4.217 1.333-6.138 2.305v508.772h44.434c13.836 0 25.052-11.216 25.052-25.052v-274.493c0-7.185-2.423-14.16-6.878-19.797z" fill="url(#SVGID_00000018951110377792331030000012937972365082488478_)"/><path d="m170.958 146.632-7.29 11.23c-1.96 3.02-2.58 6.61-1.9 9.98h-44.84v-164.609c1.92-.98 3.97-1.76 6.14-2.31 4.83-1.23 9.89-1.23 14.72 0 15.08 3.83 24.7 18.58 22.13 33.92-2.69 16.13-1.36 32.67 3.9 48.16l11.03 32.53c3.53 10.419 2.09 21.869-3.89 31.099z" fill="url(#SVGID_00000011738076317649269980000017183341268495478410_)"/><path d="m97.043 83.006-11.03 32.527c-3.531 10.414-2.099 21.873 3.888 31.097l7.287 11.227c.981 1.511 1.626 3.166 1.941 4.864h62.597c.315-1.698.96-3.353 1.941-4.864l7.287-11.227c5.987-9.224 7.42-20.683 3.888-31.097l-11.03-32.527c-.041-.12-.076-.242-.117-.363h-66.535c-.04.121-.076.242-.117.363z" fill="url(#SVGID_00000015327219947515784480000018436039979965736579_)"/><path d="m96.46 173.505-15.137 19.153c-4.455 5.637-6.878 12.612-6.878 19.797v16.091h111.967v-16.091c0-7.185-2.423-14.16-6.878-19.797l-15.137-19.153c-.996-1.26-1.728-2.661-2.211-4.128h-63.516c-.483 1.467-1.214 2.868-2.21 4.128z" fill="url(#SVGID_00000157297875965411292940000011661379405690157471_)"/><path d="m74.445 371.795v115.153c0 13.836 11.216 25.052 25.052 25.052h61.863c13.836 0 25.052-11.216 25.052-25.052v-115.153z" fill="url(#SVGID_00000055669400342722281560000006162756022680527546_)"/></g><g><path d="m98.302 157.497h64.253c1.574 0 2.85 1.276 2.85 2.85v9.762c0 1.574-1.276 2.85-2.85 2.85h-64.253c-1.574 0-2.85-1.276-2.85-2.85v-9.762c0-1.574 1.276-2.85 2.85-2.85z" fill="url(#SVGID_00000178200875408487378000000000068989570858345346_)"/><path d="m165.408 162.722v7.39c0 1.57-1.28 2.85-2.85 2.85h-64.26c-1.57 0-2.85-1.28-2.85-2.85v-7.39z" fill="url(#SVGID_00000005985650797226743460000015919300634498176696_)"/><path d="m162.555 157.497h-32.127v15.461h32.127c1.574 0 2.85-1.276 2.85-2.85v-9.762c0-1.573-1.276-2.849-2.85-2.849z" fill="url(#SVGID_00000037672093132993430740000006074287907997722297_)"/></g><path d="m88.082 319.831v166.196c0 10.465 8.484 18.949 18.949 18.949h46.794c10.465 0 18.949-8.484 18.949-18.949v-166.332c0-4.31-4.319-7.282-8.345-5.743-10.247 3.919-21.798 2.182-30.439-4.578-8.664-6.778-20.253-8.505-30.517-4.548l-6.93 2.672c-5.098 1.966-8.461 6.868-8.461 12.333z" fill="url(#SVGID_00000147208916713473217860000016372652552762797725_)"/><path d="m88.082 398.684v87.343c0 10.465 8.484 18.949 18.949 18.949h46.794c10.465 0 18.949-8.484 18.949-18.949v-87.343z" fill="url(#SVGID_00000074434412293914639030000018235107521563006644_)"/><path d="m164.43 313.952c-10.247 3.919-21.798 2.182-30.439-4.578-4.989-3.903-10.949-6.121-17.066-6.553v202.155h36.9c10.465 0 18.949-8.484 18.949-18.949v-166.332c.001-4.31-4.319-7.282-8.344-5.743z" fill="url(#SVGID_00000181786956699784955930000012101416657235244673_)"/><g><path d="m109.904 225.921h16.169c3.314 0 6 2.686 6 6v148.329c0 3.314-2.686 6-6 6h-16.169c-3.314 0-6-2.686-6-6v-148.328c0-3.314 2.686-6.001 6-6.001z" fill="url(#SVGID_00000063599318551695832020000005837314588740342708_)"/><path d="m144.73 380.139v-81.257c0-3.375 2.736-6.112 6.112-6.112 3.375 0 6.112 2.736 6.112 6.112v81.257c0 3.375-2.736 6.112-6.112 6.112-3.376 0-6.112-2.737-6.112-6.112z" fill="url(#SVGID_00000117666766165766125360000012721659496460659642_)"/></g></g><g><g><path d="m289.24 157.858 7.287-11.227c5.987-9.224 7.42-20.683 3.888-31.097l-11.03-32.527c-5.252-15.489-6.589-32.037-3.891-48.168 2.565-15.339-7.056-30.084-22.129-33.914-4.833-1.228-9.896-1.228-14.729 0-15.073 3.83-24.695 18.575-22.129 33.914 2.698 16.131 1.361 32.679-3.891 48.168l-11.03 32.527c-3.531 10.415-2.099 21.873 3.888 31.097l7.287 11.227c3.137 4.833 2.844 11.128-.729 15.648l-15.137 19.153c-4.455 5.637-6.878 12.612-6.878 19.796v274.493c0 13.836 11.216 25.052 25.052 25.052h61.863c13.836 0 25.052-11.216 25.052-25.052v-274.493c0-7.185-2.423-14.16-6.878-19.796l-15.137-19.153c-3.573-4.521-3.866-10.816-.729-15.648z" fill="url(#SVGID_00000142892968033342677190000017438615868697318072_)"/><path d="m289.969 173.505c-3.572-4.52-3.866-10.815-.729-15.648l7.287-11.227c5.987-9.224 7.42-20.683 3.888-31.097l-11.03-32.527c-5.252-15.489-6.589-32.037-3.891-48.168 2.565-15.34-7.056-30.084-22.129-33.915-4.833-1.228-9.896-1.228-14.729 0-2.167.551-4.217 1.333-6.138 2.305v508.772h44.434c13.836 0 25.052-11.216 25.052-25.052v-274.493c0-7.185-2.423-14.16-6.878-19.797z" fill="url(#SVGID_00000153676586448165976200000016255259975467345069_)"/><path d="m296.53 146.632-7.29 11.23c-1.96 3.02-2.58 6.61-1.9 9.98h-44.84v-164.609c1.92-.98 3.97-1.76 6.14-2.31 4.83-1.23 9.89-1.23 14.72 0 15.08 3.83 24.7 18.58 22.13 33.92-2.69 16.13-1.36 32.67 3.9 48.16l11.03 32.53c3.53 10.419 2.09 21.869-3.89 31.099z" fill="url(#SVGID_00000010997840333328774240000007941930045586323841_)"/><path d="m222.615 83.006-11.03 32.527c-3.531 10.414-2.099 21.873 3.888 31.097l7.287 11.227c.981 1.511 1.626 3.166 1.941 4.864h62.597c.315-1.698.96-3.353 1.941-4.864l7.287-11.227c5.987-9.224 7.42-20.683 3.888-31.097l-11.03-32.527c-.041-.12-.076-.242-.117-.363h-66.537c-.039.121-.074.242-.115.363z" fill="url(#SVGID_00000166659010051985497750000000481632063909273267_)"/><path d="m222.031 173.505-15.137 19.153c-4.455 5.637-6.878 12.612-6.878 19.797v16.091h111.967v-16.091c0-7.185-2.423-14.16-6.878-19.797l-15.137-19.153c-.996-1.26-1.728-2.661-2.211-4.128h-63.516c-.482 1.467-1.213 2.868-2.21 4.128z" fill="url(#SVGID_00000061467147626413938960000004062726573969809554_)"/><path d="m200.016 371.795v115.153c0 13.836 11.216 25.052 25.052 25.052h61.863c13.836 0 25.052-11.216 25.052-25.052v-115.153z" fill="url(#SVGID_00000052819550983958238420000008906728867057810859_)"/></g><g><path d="m223.873 157.497h64.253c1.574 0 2.85 1.276 2.85 2.85v9.762c0 1.574-1.276 2.85-2.85 2.85h-64.253c-1.574 0-2.85-1.276-2.85-2.85v-9.762c.001-1.574 1.276-2.85 2.85-2.85z" fill="url(#SVGID_00000078039213609189349270000005209702845711452554_)"/><path d="m290.98 162.722v7.39c0 1.57-1.28 2.85-2.85 2.85h-64.26c-1.57 0-2.85-1.28-2.85-2.85v-7.39z" fill="url(#SVGID_00000034778533435706239200000001396396286592530866_)"/><path d="m288.127 157.497h-32.127v15.461h32.127c1.574 0 2.85-1.276 2.85-2.85v-9.762c-.001-1.573-1.276-2.849-2.85-2.849z" fill="url(#SVGID_00000065054228413366371160000002287946449846851972_)"/></g><path d="m213.654 319.831v166.196c0 10.465 8.484 18.949 18.949 18.949h46.794c10.465 0 18.949-8.484 18.949-18.949v-166.332c0-4.31-4.319-7.282-8.345-5.743-10.247 3.919-21.798 2.182-30.439-4.578-8.664-6.778-20.253-8.505-30.517-4.548l-6.93 2.672c-5.098 1.966-8.461 6.868-8.461 12.333z" fill="url(#SVGID_00000098200407742571438080000016849494323159078061_)"/><path d="m213.654 398.684v87.343c0 10.465 8.484 18.949 18.949 18.949h46.794c10.465 0 18.949-8.484 18.949-18.949v-87.343z" fill="url(#SVGID_00000118383835094341571830000008798862950041745312_)"/><path d="m290.002 313.952c-10.247 3.919-21.798 2.182-30.439-4.578-4.989-3.903-10.949-6.121-17.066-6.553v202.155h36.9c10.465 0 18.949-8.484 18.949-18.949v-166.332c0-4.31-4.319-7.282-8.344-5.743z" fill="url(#SVGID_00000103231385330126419700000008549309623463091354_)"/><g><path d="m235.475 225.921h16.169c3.314 0 6 2.686 6 6v148.329c0 3.314-2.686 6-6 6h-16.169c-3.314 0-6-2.686-6-6v-148.328c0-3.314 2.687-6.001 6-6.001z" fill="url(#SVGID_00000053534896850660052380000000562065291856126652_)"/><path d="m270.301 380.139v-81.257c0-3.375 2.736-6.112 6.112-6.112 3.375 0 6.112 2.736 6.112 6.112v81.257c0 3.375-2.736 6.112-6.112 6.112-3.375 0-6.112-2.737-6.112-6.112z" fill="url(#SVGID_00000152967584077192267760000017727308392511076498_)"/></g></g><g><g><path d="m414.811 157.858 7.287-11.227c5.987-9.224 7.42-20.683 3.888-31.097l-11.03-32.527c-5.252-15.489-6.589-32.037-3.891-48.168 2.565-15.339-7.056-30.084-22.129-33.914-4.833-1.228-9.896-1.228-14.729 0-15.073 3.83-24.695 18.575-22.129 33.914 2.698 16.131 1.361 32.679-3.891 48.168l-11.03 32.527c-3.531 10.415-2.099 21.873 3.888 31.097l7.287 11.227c3.137 4.833 2.844 11.128-.729 15.648l-15.137 19.153c-4.455 5.637-6.878 12.612-6.878 19.796v274.493c0 13.836 11.216 25.052 25.052 25.052h61.863c13.836 0 25.052-11.216 25.052-25.052v-274.493c0-7.185-2.423-14.16-6.878-19.796l-15.137-19.153c-3.572-4.521-3.865-10.816-.729-15.648z" fill="url(#SVGID_00000059272180287453323080000017620721372738082211_)"/><path d="m415.54 173.505c-3.572-4.52-3.866-10.815-.729-15.648l7.287-11.227c5.987-9.224 7.42-20.683 3.888-31.097l-11.03-32.527c-5.252-15.489-6.589-32.037-3.891-48.168 2.565-15.34-7.056-30.084-22.129-33.915-4.833-1.228-9.896-1.228-14.729 0-2.167.551-4.217 1.333-6.138 2.305v508.772h44.434c13.836 0 25.052-11.216 25.052-25.052v-274.493c0-7.185-2.423-14.16-6.878-19.797z" fill="url(#SVGID_00000059298663415918258230000003636449490364072354_)"/><path d="m422.102 146.632-7.29 11.23c-1.96 3.02-2.58 6.61-1.9 9.98h-44.84v-164.609c1.92-.98 3.97-1.76 6.14-2.31 4.83-1.23 9.89-1.23 14.72 0 15.08 3.83 24.7 18.58 22.13 33.92-2.69 16.13-1.36 32.67 3.9 48.16l11.03 32.53c3.529 10.419 2.089 21.869-3.89 31.099z" fill="url(#SVGID_00000003068992149509301640000010911822388943687075_)"/><path d="m348.187 83.006-11.03 32.527c-3.531 10.414-2.099 21.873 3.888 31.097l7.287 11.227c.981 1.511 1.626 3.166 1.941 4.864h62.597c.315-1.698.96-3.353 1.941-4.864l7.287-11.227c5.987-9.224 7.42-20.683 3.888-31.097l-11.03-32.527c-.041-.12-.076-.242-.117-.363h-66.537c-.039.121-.075.242-.115.363z" fill="url(#SVGID_00000078750517492951069290000011655453036223194261_)"/><path d="m347.603 173.505-15.137 19.153c-4.455 5.637-6.878 12.612-6.878 19.797v16.091h111.967v-16.091c0-7.185-2.423-14.16-6.878-19.797l-15.137-19.153c-.996-1.26-1.728-2.661-2.211-4.128h-63.516c-.482 1.467-1.214 2.868-2.21 4.128z" fill="url(#SVGID_00000097467851916409834910000016786966982190879653_)"/><path d="m325.588 371.795v115.153c0 13.836 11.216 25.052 25.052 25.052h61.863c13.836 0 25.052-11.216 25.052-25.052v-115.153z" fill="url(#SVGID_00000066500283518158006130000006857179443989305483_)"/></g><g><path d="m349.445 157.497h64.253c1.574 0 2.85 1.276 2.85 2.85v9.762c0 1.574-1.276 2.85-2.85 2.85h-64.253c-1.574 0-2.85-1.276-2.85-2.85v-9.762c0-1.574 1.276-2.85 2.85-2.85z" fill="url(#SVGID_00000094591191557880431720000009846276256242465425_)"/><path d="m416.552 162.722v7.39c0 1.57-1.28 2.85-2.85 2.85h-64.26c-1.57 0-2.85-1.28-2.85-2.85v-7.39z" fill="url(#SVGID_00000166644410143754992510000009205554409410213300_)"/><path d="m413.698 157.497h-32.127v15.461h32.127c1.574 0 2.85-1.276 2.85-2.85v-9.762c0-1.573-1.276-2.849-2.85-2.849z" fill="url(#SVGID_00000073708462678424285190000005204996942420500915_)"/></g><path d="m339.225 319.831v166.196c0 10.465 8.484 18.949 18.949 18.949h46.794c10.465 0 18.949-8.484 18.949-18.949v-166.332c0-4.31-4.319-7.282-8.345-5.743-10.247 3.919-21.798 2.182-30.439-4.578-8.664-6.778-20.253-8.505-30.517-4.548l-6.93 2.672c-5.097 1.966-8.461 6.868-8.461 12.333z" fill="url(#SVGID_00000130647640943404139940000002155927839143931036_)"/><path d="m339.225 398.684v87.343c0 10.465 8.484 18.949 18.949 18.949h46.794c10.465 0 18.949-8.484 18.949-18.949v-87.343z" fill="url(#SVGID_00000030483016118956062650000012759075860814318722_)"/><path d="m415.573 313.952c-10.247 3.919-21.798 2.182-30.439-4.578-4.989-3.903-10.949-6.121-17.066-6.553v202.155h36.9c10.465 0 18.949-8.484 18.949-18.949v-166.332c.001-4.31-4.318-7.282-8.344-5.743z" fill="url(#SVGID_00000045592070300360000890000013185926656676348831_)"/><g><path d="m361.047 225.921h16.169c3.314 0 6 2.686 6 6v148.329c0 3.314-2.686 6-6 6h-16.169c-3.314 0-6-2.686-6-6v-148.328c0-3.314 2.686-6.001 6-6.001z" fill="url(#SVGID_00000078013691703528068930000015538448935375150525_)"/><path d="m395.873 380.139v-81.257c0-3.375 2.736-6.112 6.112-6.112 3.375 0 6.112 2.736 6.112 6.112v81.257c0 3.375-2.736 6.112-6.112 6.112-3.376 0-6.112-2.737-6.112-6.112z" fill="url(#SVGID_00000115512188778010485000000014188137550743339925_)"/></g></g></g></svg>