<svg id="_37_Medical_Check" enable-background="new 0 0 512 512" viewBox="0 0 512 512" xmlns="http://www.w3.org/2000/svg" xmlns:xlink="http://www.w3.org/1999/xlink"><linearGradient id="lg1"><stop offset="0" stop-color="#fe646f"/><stop offset=".235" stop-color="#fa5964"/><stop offset=".6415" stop-color="#ef3d49"/><stop offset="1" stop-color="#e41f2d"/></linearGradient><linearGradient id="SVGID_1_" gradientTransform="matrix(1 0 0 -1 0 514)" gradientUnits="userSpaceOnUse" x1="208.168" x2="285.871" xlink:href="#lg1" y1="321.914" y2="199.301"/><linearGradient id="lg2"><stop offset="0" stop-color="#a72b2b" stop-opacity="0"/><stop offset=".1561" stop-color="#a32b2a" stop-opacity=".066"/><stop offset=".386" stop-color="#982c29" stop-opacity=".248"/><stop offset=".6615" stop-color="#872f28" stop-opacity=".545"/><stop offset=".97" stop-color="#6f3226" stop-opacity=".956"/><stop offset="1" stop-color="#6d3326"/></linearGradient><linearGradient id="SVGID_00000005250035070922994930000003111689307962893758_" gradientTransform="matrix(1 0 0 -1 0 514)" gradientUnits="userSpaceOnUse" x1="287.714" x2="404.344" xlink:href="#lg2" y1="231.317" y2="142.715"/><linearGradient id="SVGID_00000176726775714268466400000001816698383658756262_" gradientTransform="matrix(1 0 0 -1 0 514)" gradientUnits="userSpaceOnUse" x1="245.402" x2="245.402" xlink:href="#lg2" y1="158.901" y2="36.273"/><linearGradient id="SVGID_00000021085255691681133180000015662077244079485112_" gradientTransform="matrix(1 0 0 -1 0 514)" gradientUnits="userSpaceOnUse" x1="151.834" x2="206.984" xlink:href="#lg2" y1="351.488" y2="408.446"/><linearGradient id="SVGID_00000166652520477567429450000000144581237259288756_" gradientTransform="matrix(1 0 0 -1 0 514)" gradientUnits="userSpaceOnUse" x1="244.695" x2="244.695" xlink:href="#lg2" y1="109.238" y2="261.682"/><linearGradient id="lg3"><stop offset="0" stop-color="#f3faff"/><stop offset="1" stop-color="#d5daf3"/></linearGradient><linearGradient id="SVGID_00000155829473817107905880000003209045112298594188_" gradientTransform="matrix(1 0 0 -1 0 514)" gradientUnits="userSpaceOnUse" x1="245.4" x2="245.4" xlink:href="#lg3" y1="297.436" y2="122.79"/><linearGradient id="SVGID_00000107549734497629175010000017097269340164421510_" gradientTransform="matrix(1 0 0 -1 0 514)" gradientUnits="userSpaceOnUse" x1="409.713" x2="405.792" xlink:href="#lg2" y1="234.659" y2="284.56"/><linearGradient id="SVGID_00000002373414470448673720000013069902903475739779_" gradientTransform="matrix(1 0 0 -1 0 514)" gradientUnits="userSpaceOnUse" x1="360.87" x2="470.915" xlink:href="#lg3" y1="435.412" y2="325.367"/><linearGradient id="SVGID_00000096768762968288377730000005428640447225098126_" gradientTransform="matrix(1 0 0 -1 0 514)" gradientUnits="userSpaceOnUse" x1="391.405" x2="437.285" xlink:href="#lg1" y1="404.027" y2="359.878"/><linearGradient id="lg4"><stop offset="0" stop-color="#dbd5ef" stop-opacity="0"/><stop offset=".2667" stop-color="#d8d2ec" stop-opacity=".023"/><stop offset=".4431" stop-color="#d1c9e2" stop-opacity=".098"/><stop offset=".5933" stop-color="#c4b9d1" stop-opacity=".225"/><stop offset=".7288" stop-color="#b2a4ba" stop-opacity=".405"/><stop offset=".8545" stop-color="#9a889c" stop-opacity=".638"/><stop offset=".9713" stop-color="#7e6678" stop-opacity=".92"/><stop offset="1" stop-color="#765d6e"/></linearGradient><linearGradient id="SVGID_00000134250778782352886690000015217890610796735130_" gradientTransform="matrix(1 0 0 -1 0 514)" gradientUnits="userSpaceOnUse" x1="415.629" x2="427.315" xlink:href="#lg4" y1="369.34" y2="283.64"/><linearGradient id="SVGID_00000169518432076085538490000005036928656572172185_" gradientTransform="matrix(1 0 0 -1 0 514)" gradientUnits="userSpaceOnUse" x1="416.045" x2="510.509" xlink:href="#lg4" y1="382.028" y2="367.42"/><linearGradient id="SVGID_00000150821131504125838870000013520243951413505198_" gradientTransform="matrix(1 0 0 -1 0 514)" gradientUnits="userSpaceOnUse" x1="447.82" x2="496.241" y1="348.462" y2="300.041"><stop offset="0" stop-color="#d5daf3" stop-opacity="0"/><stop offset=".1385" stop-color="#d8ddf4" stop-opacity=".114"/><stop offset=".4399" stop-color="#e1e6f7" stop-opacity=".406"/><stop offset=".8782" stop-color="#eff5fd" stop-opacity=".867"/><stop offset="1" stop-color="#f3faff"/></linearGradient><g><g><g><path d="m463.982 271.239c-4.76 26.712-15.991 52.865-33.559 78.244-21.464 31.008-52.152 54.246-87.034 68.582-27.698 11.384-52.206 28.272-71.932 49.171-14.076 14.913-38.032 14.913-52.108 0-19.741-20.903-44.264-37.798-71.977-49.187-34.85-14.322-65.501-37.553-86.957-68.526-17.587-25.387-28.83-51.553-33.591-78.284-6.817-38.253 2.904-77.31 26.701-107.167 22.014-27.632 53.229-43.776 87.883-45.464 2.036-.11 4.103-.158 6.139-.158 32.461 0 63.107 12.514 86.289 35.238 4.182 4.103 8.048 8.443 11.567 13.019 3.519-4.576 7.385-8.916 11.567-13.035 23.182-22.709 53.828-35.223 86.289-35.223 2.036 0 4.103.047 6.139.158 34.655 1.689 65.869 17.832 87.899 45.48 23.781 29.842 33.502 68.9 26.685 107.152z" fill="url(#SVGID_1_)"/><path d="m349.397 118.608c-2.036-.11-4.103-.158-6.139-.158-32.461 0-63.107 12.514-86.289 35.223-4.182 4.119-8.048 8.458-11.567 13.035-3.519-4.576-7.385-8.916-11.567-13.019-9.883-9.688-21.132-17.501-33.291-23.299v319.348c6.658 5.457 12.946 11.297 18.804 17.5 14.076 14.913 38.032 14.913 52.108 0 19.726-20.898 44.234-37.787 71.932-49.171 34.881-14.336 65.569-37.574 87.034-68.582 17.568-25.379 28.799-51.532 33.559-78.244 6.817-38.253-2.904-77.31-26.685-107.151-22.03-27.65-53.244-43.794-87.899-45.482z" fill="url(#SVGID_00000005250035070922994930000003111689307962893758_)"/><path d="m44.361 322.702c4.582 9.028 9.923 17.973 16.053 26.821 21.456 30.973 52.106 54.204 86.957 68.526 27.714 11.389 52.236 28.284 71.977 49.187 14.076 14.913 38.032 14.913 52.108 0 19.726-20.898 44.234-37.787 71.932-49.171 34.881-14.336 65.569-37.574 87.034-68.582 6.116-8.836 11.446-17.767 16.021-26.781z" fill="url(#SVGID_00000176726775714268466400000001816698383658756262_)"/><path d="m233.836 153.681c-23.184-22.717-53.83-35.228-86.294-35.228-2.032 0-4.097.05-6.134.15-34.65 1.689-65.863 17.839-87.891 45.476-23.784 29.842-33.516 68.901-26.7 107.163 4.842 27.178 16.398 53.769 34.495 79.556l184.089-184.089c-3.517-4.57-7.378-8.924-11.565-13.028z" fill="url(#SVGID_00000021085255691681133180000015662077244079485112_)"/></g><path d="m430.422 349.483c12.134-17.529 21.241-35.427 27.285-53.623h-97.445l-35.644 48.222-49.155-94.588-42.787 136.733-59.187-196.04-29.25 101.228h-112.557c6 19.744 15.594 39.144 28.732 58.108 21.456 30.973 52.106 54.204 86.957 68.526 27.714 11.389 52.236 28.284 71.977 49.187 14.076 14.913 38.032 14.913 52.108 0 19.726-20.898 44.234-37.787 71.932-49.171 34.882-14.335 65.57-37.574 87.034-68.582z" fill="url(#SVGID_00000166652520477567429450000000144581237259288756_)"/><path d="m233.802 411.009c-10.645 0-19.546-7.229-21.717-17.69l-34.666-167.039c-.457-2.203-3.602-2.209-4.067-.007l-14.07 66.57c-2.158 10.204-11.292 17.61-21.721 17.61h-125.061c-6.904 0-12.5-5.596-12.5-12.5 0-6.904 5.596-12.5 12.5-12.5h119.219c2.082 0 3.881-1.458 4.311-3.495l17.677-83.635c2.193-10.374 11.121-17.61 21.719-17.61.014 0 .028.001.042.001 10.617.019 19.54 7.293 21.698 17.689l34.228 164.931c.465 2.242 3.683 2.193 4.08-.062l20.197-114.749c1.806-10.262 10.005-17.618 20.403-18.304 10.4-.695 19.493 5.528 22.632 15.465l25.001 79.149c.569 1.8 3.049 1.97 3.858.264l12.782-26.955c3.654-7.708 11.528-12.689 20.06-12.689h117.893c6.904 0 12.5 5.596 12.5 12.5 0 6.904-5.596 12.5-12.5 12.5h-113.335c-1.702 0-3.252.98-3.981 2.518l-16.147 34.053c-3.938 8.306-12.409 13.257-21.578 12.638-9.169-.629-16.883-6.698-19.652-15.463l-22.74-71.99c-.655-2.073-3.65-1.875-4.027.266l-21.153 120.181c-1.873 10.64-10.725 18.186-21.527 18.35-.119.002-.24.003-.358.003z" fill="url(#SVGID_00000155829473817107905880000003209045112298594188_)"/></g><path d="m407.619 137.143-63.438 63.438 108.542 108.542c5.215-12.485 8.984-25.119 11.258-37.883 6.817-38.253-2.904-77.31-26.685-107.151-8.604-10.799-18.614-19.833-29.677-26.946z" fill="url(#SVGID_00000107549734497629175010000017097269340164421510_)"/><g><circle cx="413.93" cy="131.649" fill="url(#SVGID_00000002373414470448673720000013069902903475739779_)" r="98.07"/><path d="m464.679 114.325h-33.425v-33.425c0-4.889-3.963-8.852-8.852-8.852h-16.942c-4.889 0-8.852 3.963-8.852 8.852v33.425h-33.425c-4.889 0-8.852 3.964-8.852 8.852v16.942c0 4.889 3.963 8.852 8.852 8.852h33.425v33.425c0 4.889 3.963 8.852 8.852 8.852h16.942c4.889 0 8.852-3.963 8.852-8.852v-33.425h33.425c4.889 0 8.852-3.963 8.852-8.852v-16.942c0-4.888-3.963-8.852-8.852-8.852z" fill="url(#SVGID_00000096768762968288377730000005428640447225098126_)"/><path d="m315.861 131.649c0 54.162 43.907 98.07 98.07 98.07s98.069-43.908 98.069-98.07c0-2.711-.115-5.396-.331-8.051h-195.477c-.216 2.655-.331 5.339-.331 8.051z" fill="url(#SVGID_00000134250778782352886690000015217890610796735130_)"/><path d="m413.93 33.579c-6.318 0-12.494.605-18.479 1.746v192.647c5.985 1.141 12.161 1.746 18.479 1.746 54.162 0 98.07-43.907 98.07-98.07 0-54.162-43.907-98.069-98.07-98.069z" fill="url(#SVGID_00000169518432076085538490000005036928656572172185_)"/><path d="m482.863 61.899-138.682 138.682c17.778 17.988 42.46 29.137 69.749 29.137 54.162 0 98.07-43.907 98.07-98.07 0-27.288-11.15-51.97-29.137-69.749z" fill="url(#SVGID_00000150821131504125838870000013520243951413505198_)"/></g></g></svg>