<svg id="_38_Computer" enable-background="new 0 0 512 512" viewBox="0 0 512 512" xmlns="http://www.w3.org/2000/svg" xmlns:xlink="http://www.w3.org/1999/xlink"><linearGradient id="lg1"><stop offset="0" stop-color="#7a6d79"/><stop offset="1" stop-color="#593636"/></linearGradient><linearGradient id="SVGID_1_" gradientTransform="matrix(1 0 0 -1 0 514)" gradientUnits="userSpaceOnUse" x1="214.571" x2="283.13" xlink:href="#lg1" y1="103.664" y2="35.106"/><linearGradient id="SVGID_00000001650043814651734260000004381676819555691415_" gradientTransform="matrix(1 0 0 -1 0 514)" gradientUnits="userSpaceOnUse" x1="279.898" x2="230.977" xlink:href="#lg1" y1="59.684" y2="108.606"/><linearGradient id="lg2"><stop offset="0" stop-color="#593636" stop-opacity="0"/><stop offset="1"/></linearGradient><linearGradient id="SVGID_00000082333878077608778330000009619452738254897082_" gradientTransform="matrix(1 0 0 -1 0 514)" gradientUnits="userSpaceOnUse" x1="256" x2="256" xlink:href="#lg2" y1="96.034" y2="126.464"/><linearGradient id="SVGID_00000097459152486192739160000013437849543505318590_" gradientTransform="matrix(1 0 0 -1 0 514)" gradientUnits="userSpaceOnUse" x1="256" x2="256" xlink:href="#lg2" y1="61.816" y2="38.011"/><linearGradient id="SVGID_00000067194685352996953490000005188955508576783488_" gradientTransform="matrix(1 0 0 -1 0 514)" gradientUnits="userSpaceOnUse" x1="287.457" x2="330.229" xlink:href="#lg2" y1="77.576" y2="98.962"/><linearGradient id="SVGID_00000170961278887533793030000001445819420664568216_" gradientTransform="matrix(1 0 0 -1 534.661 -599.666)" gradientUnits="userSpaceOnUse" x1="-410.151" x2="-115.53" xlink:href="#lg1" y1="-649.2" y2="-988.504"/><linearGradient id="SVGID_00000166667814444191883110000001673001716921424299_" gradientTransform="matrix(1 0 0 -1 534.661 -599.666)" gradientUnits="userSpaceOnUse" x1="-278.661" x2="-278.661" xlink:href="#lg2" y1="-917.393" y2="-994.203"/><linearGradient id="SVGID_00000008858898751241096780000017436593136677460109_" gradientTransform="matrix(1 0 0 -1 534.661 -599.666)" gradientUnits="userSpaceOnUse" x1="-79.131" x2="-18.943" xlink:href="#lg2" y1="-800.633" y2="-800.633"/><linearGradient id="SVGID_00000112626571707113690410000011380812091211371652_" gradientTransform="matrix(1 0 0 -1 0 514)" gradientUnits="userSpaceOnUse" x1="186.269" x2="404.408" y1="424.237" y2="76.356"><stop offset="0" stop-color="#fef0ae"/><stop offset="1" stop-color="#fac600"/></linearGradient><linearGradient id="lg3"><stop offset="0" stop-color="#fe9738" stop-opacity="0"/><stop offset=".1648" stop-color="#fe9637" stop-opacity=".012"/><stop offset=".2957" stop-color="#fe9535" stop-opacity=".052"/><stop offset=".415" stop-color="#fe9331" stop-opacity=".118"/><stop offset=".5274" stop-color="#fe902c" stop-opacity=".211"/><stop offset=".635" stop-color="#fe8c25" stop-opacity=".331"/><stop offset=".739" stop-color="#fe871d" stop-opacity=".479"/><stop offset=".8401" stop-color="#fe8213" stop-opacity=".655"/><stop offset=".9364" stop-color="#fe7b09" stop-opacity=".852"/><stop offset="1" stop-color="#fe7701"/></linearGradient><linearGradient id="SVGID_00000133516229121129717470000006908488523246761891_" gradientTransform="matrix(1 0 0 -1 0 514)" gradientUnits="userSpaceOnUse" x1="256" x2="256" xlink:href="#lg3" y1="426.331" y2="489.644"/><linearGradient id="SVGID_00000149379674033381331670000010539043427919310229_" gradientTransform="matrix(1 0 0 -1 0 514)" gradientUnits="userSpaceOnUse" x1="83.376" x2="12.075" xlink:href="#lg3" y1="313.033" y2="313.033"/><linearGradient id="SVGID_00000033371125269247418000000013025878361287170741_" gradientTransform="matrix(1 0 0 -1 0 514)" gradientUnits="userSpaceOnUse" x1="401.645" x2="370.74" xlink:href="#lg3" y1="177.63" y2="208.535"/><linearGradient id="lg4"><stop offset="0" stop-color="#fff" stop-opacity="0"/><stop offset=".0925" stop-color="#fff" stop-opacity=".024"/><stop offset=".2178" stop-color="#fff" stop-opacity=".092"/><stop offset=".3619" stop-color="#fff" stop-opacity=".203"/><stop offset=".52" stop-color="#fff" stop-opacity=".359"/><stop offset=".6897" stop-color="#fff" stop-opacity=".559"/><stop offset=".8661" stop-color="#fff" stop-opacity=".798"/><stop offset="1" stop-color="#fff"/></linearGradient><linearGradient id="SVGID_00000182507252650000541340000006096946909188337076_" gradientTransform="matrix(1 0 0 -1 0 514)" gradientUnits="userSpaceOnUse" x1="-69.458" x2="405.146" xlink:href="#lg4" y1="534.542" y2="59.939"/><linearGradient id="SVGID_00000169537230891684550200000006792667467495477932_" gradientTransform="matrix(1 0 0 -1 0 514)" gradientUnits="userSpaceOnUse" x1="162.09" x2="162.09" xlink:href="#lg4" y1="219" y2="197.976"/><linearGradient id="SVGID_00000019668817468088972340000010093241645322238621_" gradientTransform="matrix(1 0 0 -1 0 514)" gradientUnits="userSpaceOnUse" x1="251" x2="269.248" xlink:href="#lg4" y1="302.995" y2="302.995"/><linearGradient id="SVGID_00000137851922870684279010000002990286012155883160_" gradientTransform="matrix(.707 .707 .707 -.707 -1494.984 697.783)" gradientUnits="userSpaceOnUse" x1="872.013" x2="872.013" y1="1532.854" y2="1488.67"><stop offset="0" stop-color="#99e6fc"/><stop offset=".1325" stop-color="#8ee1fb"/><stop offset=".3627" stop-color="#71d5f9"/><stop offset=".6631" stop-color="#43c2f5"/><stop offset="1" stop-color="#08a9f1"/></linearGradient><linearGradient id="lg5"><stop offset="0" stop-color="#2740b0" stop-opacity="0"/><stop offset=".1646" stop-color="#263fae" stop-opacity=".036"/><stop offset=".3472" stop-color="#243ca8" stop-opacity=".143"/><stop offset=".5386" stop-color="#22389f" stop-opacity=".321"/><stop offset=".7359" stop-color="#1f3392" stop-opacity=".569"/><stop offset=".9359" stop-color="#1a2c82" stop-opacity=".885"/><stop offset="1" stop-color="#192a7d"/></linearGradient><linearGradient id="SVGID_00000160154123842344295220000002762090354076810901_" gradientTransform="matrix(1 0 0 -1 0 514)" gradientUnits="userSpaceOnUse" x1="191.006" x2="145.653" xlink:href="#lg5" y1="268.994" y2="223.641"/><linearGradient id="lg6"><stop offset="0" stop-color="#f3faff"/><stop offset="1" stop-color="#d5daf3"/></linearGradient><linearGradient id="SVGID_00000030478973814667709650000005056694730224036260_" gradientTransform="matrix(.707 .707 .707 -.707 -1494.984 697.783)" gradientUnits="userSpaceOnUse" x1="775.681" x2="775.681" xlink:href="#lg6" y1="1532.854" y2="1488.67"/><linearGradient id="lg7"><stop offset="0" stop-color="#dbd5ef" stop-opacity="0"/><stop offset=".2667" stop-color="#d8d2ec" stop-opacity=".023"/><stop offset=".4431" stop-color="#d1c9e2" stop-opacity=".098"/><stop offset=".5933" stop-color="#c4b9d1" stop-opacity=".225"/><stop offset=".7288" stop-color="#b2a4ba" stop-opacity=".405"/><stop offset=".8545" stop-color="#9a889c" stop-opacity=".638"/><stop offset=".9713" stop-color="#7e6678" stop-opacity=".92"/><stop offset="1" stop-color="#765d6e"/></linearGradient><linearGradient id="SVGID_00000151536431382196448130000003258164333554302910_" gradientTransform="matrix(1 0 0 -1 0 514)" gradientUnits="userSpaceOnUse" x1="133.889" x2="85.222" xlink:href="#lg7" y1="348.111" y2="299.444"/><linearGradient id="SVGID_00000115512303462202479500000014339531841929201061_" gradientTransform="matrix(.707 .707 .707 -.707 -1494.984 697.783)" gradientUnits="userSpaceOnUse" x1="889.985" x2="913.883" xlink:href="#lg5" y1="1494.777" y2="1461.243"/><linearGradient id="SVGID_00000096056249683752151640000017232348159284848017_" gradientTransform="matrix(1 0 0 -1 0 514)" gradientUnits="userSpaceOnUse" x1="194.097" x2="253.503" y1="273.326" y2="251.465"><stop offset="0" stop-color="#08a9f1" stop-opacity="0"/><stop offset=".0927" stop-color="#0baaf1" stop-opacity=".025"/><stop offset=".2192" stop-color="#15aef2" stop-opacity=".094"/><stop offset=".3651" stop-color="#26b5f3" stop-opacity=".208"/><stop offset=".5256" stop-color="#3dbff5" stop-opacity=".367"/><stop offset=".698" stop-color="#5acbf7" stop-opacity=".571"/><stop offset=".8776" stop-color="#7edaf9" stop-opacity=".816"/><stop offset="1" stop-color="#99e6fc"/></linearGradient><linearGradient id="SVGID_00000073708032401076619510000006384195426695984533_" gradientTransform="matrix(1 0 0 -1 0 514)" gradientUnits="userSpaceOnUse" x1="345.996" x2="347.326" xlink:href="#lg3" y1="434.444" y2="238.23"/><linearGradient id="SVGID_00000121970375109178268990000001935080481138200981_" gradientTransform="matrix(1 0 0 -1 0 514)" gradientUnits="userSpaceOnUse" x1="367.015" x2="368.375" xlink:href="#lg3" y1="471.883" y2="271.366"/><linearGradient id="SVGID_00000052786069241130913920000010052390540456238227_" gradientTransform="matrix(1 0 0 -1 0 514)" gradientUnits="userSpaceOnUse" x1="367.015" x2="368.375" xlink:href="#lg3" y1="505.914" y2="305.397"/><linearGradient id="SVGID_00000173158204288416937260000015725578986040447157_" gradientTransform="matrix(1 0 0 -1 0 514)" gradientUnits="userSpaceOnUse" x1="331.576" x2="335.238" xlink:href="#lg4" y1="816.597" y2="276.419"/><linearGradient id="SVGID_00000067223930671698948030000013658983130149593246_" gradientTransform="matrix(-.707 .707 .707 .707 471.486 -103.94)" gradientUnits="userSpaceOnUse" x1="321.731" x2="394.594" xlink:href="#lg6" y1="228.093" y2="199.539"/><linearGradient id="SVGID_00000081631649328481851600000001631913111688875413_" gradientTransform="matrix(-.707 .707 .707 .707 471.486 -103.94)" gradientUnits="userSpaceOnUse" x1="369.765" x2="382.643" xlink:href="#lg7" y1="201.309" y2="193.385"/><linearGradient id="SVGID_00000157987459124828791410000009680310883720320403_" gradientTransform="matrix(-1 0 0 -1 2381.866 5016.602)" gradientUnits="userSpaceOnUse" x1="2028.173" x2="2019.838" xlink:href="#lg7" y1="4695.184" y2="4686.849"/><linearGradient id="SVGID_00000160875897173985174840000015702450156260740993_" gradientTransform="matrix(-1 0 0 -1 2381.866 5016.602)" gradientUnits="userSpaceOnUse" x1="1994.942" x2="1986.607" xlink:href="#lg7" y1="4728.415" y2="4720.08"/><linearGradient id="SVGID_00000064330784524036937090000015543011629804469146_" gradientTransform="matrix(1 0 0 -1 0 514)" gradientUnits="userSpaceOnUse" x1="252.638" x2="258.924" xlink:href="#lg1" y1="44.146" y2="7.74"/><linearGradient id="SVGID_00000139282161147923104150000009384976362922781824_" gradientTransform="matrix(1 0 0 -1 0 514)" gradientUnits="userSpaceOnUse" x1="256" x2="256" xlink:href="#lg2" y1="26.18" y2="14.597"/><linearGradient id="SVGID_00000179622978207285569550000009503487199081050276_" gradientTransform="matrix(1 0 0 -1 0 514)" gradientUnits="userSpaceOnUse" x1="329.976" x2="373.994" xlink:href="#lg2" y1="28.676" y2="28.676"/><g><g><path d="m329.75 449.97c-14.03-14.03-21.9-33.05-21.9-52.88v-18.21h-103.7v18.21c0 19.83-7.87 38.85-21.9 52.88l-26.39 26.39h200.28zm-73.75 3.03c-12.47 0-22.58-10.11-22.58-22.58s10.11-22.58 22.58-22.58 22.58 10.11 22.58 22.58-10.11 22.58-22.58 22.58z" fill="url(#SVGID_1_)"/><path d="m256 398.48c-17.64 0-31.94 14.3-31.94 31.94s14.3 31.93 31.94 31.93 31.94-14.29 31.94-31.93-14.3-31.94-31.94-31.94zm0 54.52c-12.47 0-22.58-10.11-22.58-22.58s10.11-22.58 22.58-22.58 22.58 10.11 22.58 22.58-10.11 22.58-22.58 22.58z" fill="url(#SVGID_00000001650043814651734260000004381676819555691415_)"/><path d="m233.593 433.174c-.11-.903-.173-1.821-.173-2.755 0-12.47 10.11-22.58 22.58-22.58s22.58 10.11 22.58 22.58c0 .933-.063 1.851-.173 2.755h38.742c-6.038-10.959-9.299-23.351-9.299-36.085v-18.21h-103.7v18.21c0 12.734-3.261 25.126-9.299 36.085z" fill="url(#SVGID_00000082333878077608778330000009619452738254897082_)"/><path d="m329.75 449.97c-5.02-5.03-9.25-10.69-12.61-16.8h-38.73c-1.35 11.17-10.87 19.83-22.41 19.83s-21.06-8.66-22.41-19.83h-38.73c-3.36 6.11-7.59 11.77-12.61 16.8l-26.39 26.39h200.28z" fill="url(#SVGID_00000097459152486192739160000013437849543505318590_)"/><path d="m329.75 449.97c-14.03-14.03-21.9-33.05-21.9-52.88v-18.21h-53.86v29.054c.663-.058 1.332-.094 2.01-.094 12.47 0 22.58 10.11 22.58 22.58s-10.11 22.58-22.58 22.58c-.678 0-1.347-.035-2.01-.094v23.454h102.15z" fill="url(#SVGID_00000067194685352996953490000005188955508576783488_)"/></g><g><g><path d="m33.331 12.63h445.339c18.407 0 33.33 14.923 33.33 33.331v310.013c0 18.408-14.923 33.331-33.331 33.331h-445.338c-18.408 0-33.331-14.923-33.331-33.331v-310.013c0-18.408 14.923-33.331 33.331-33.331z" fill="url(#SVGID_00000170961278887533793030000001445819420664568216_)"/><path d="m0 167.921v188.053c0 18.408 14.923 33.331 33.331 33.331h445.339c18.408 0 33.331-14.923 33.331-33.331v-188.053z" fill="url(#SVGID_00000166667814444191883110000001673001716921424299_)"/><path d="m478.669 12.63h-222.669v376.675h222.669c18.408 0 33.331-14.923 33.331-33.331v-310.013c0-18.408-14.923-33.331-33.331-33.331z" fill="url(#SVGID_00000008858898751241096780000017436593136677460109_)"/></g><g><path d="m47.02 40.62h417.96c9.843 0 17.822 7.979 17.822 17.822v285.051c0 9.843-7.979 17.822-17.822 17.822h-417.96c-9.843 0-17.822-7.979-17.822-17.822v-285.051c0-9.843 7.979-17.822 17.822-17.822z" fill="url(#SVGID_00000112626571707113690410000011380812091211371652_)"/><path d="m464.98 40.62h-417.96c-9.843 0-17.822 7.979-17.822 17.822v129.03h453.603v-129.03c.001-9.843-7.978-17.822-17.821-17.822z" fill="url(#SVGID_00000133516229121129717470000006908488523246761891_)"/><path d="m175.406 40.62h-128.386c-9.843 0-17.822 7.979-17.822 17.822v285.051c0 9.843 7.979 17.822 17.822 17.822h128.386z" fill="url(#SVGID_00000149379674033381331670000010539043427919310229_)"/></g><path d="m475.03 358.207-76.424-76.424-51.548 51.548 27.984 27.984h89.938c3.729 0 7.188-1.15 10.05-3.108z" fill="url(#SVGID_00000033371125269247418000000013025878361287170741_)"/><g><g><g opacity=".7"><path d="m79.658 107.671h164.864c11.544 0 20.902 9.358 20.902 20.902v164.864c0 11.544-9.358 20.902-20.902 20.902h-164.864c-11.544 0-20.902-9.358-20.902-20.902v-164.864c-.001-11.544 9.358-20.902 20.902-20.902z" fill="url(#SVGID_00000182507252650000541340000006096946909188337076_)"/><path d="m58.755 199.544v93.892c0 11.544 9.358 20.902 20.902 20.902h164.864c11.544 0 20.902-9.358 20.902-20.902v-93.892z" fill="url(#SVGID_00000169537230891684550200000006792667467495477932_)"/><path d="m244.521 107.671h-101.635v206.668h101.635c11.544 0 20.902-9.358 20.902-20.902v-164.864c.001-11.544-9.358-20.902-20.902-20.902z" fill="url(#SVGID_00000019668817468088972340000010093241645322238621_)"/></g><g><path d="m235.406 284.322c-9.734 9.734-22.493 14.601-35.247 14.601-12.755 0-25.513-4.867-35.247-14.601l-38.069-38.069 24.848-45.647 45.647-24.848 38.069 38.069c19.468 19.468 19.468 51.026-.001 70.495z" fill="url(#SVGID_00000137851922870684279010000002990286012155883160_)"/><path d="m235.406 284.322c-9.734 9.734-22.493 14.601-35.247 14.601-12.755 0-25.513-4.867-35.247-14.601l-38.069-38.069 24.848-45.647 13.909-7.57 78.88 78.88c-2.307 4.468-5.327 8.659-9.074 12.406z" fill="url(#SVGID_00000160154123842344295220000002762090354076810901_)"/><path d="m197.337 175.758-70.495 70.495-38.069-38.069c-19.468-19.469-19.468-51.026 0-70.495 9.734-9.734 22.493-14.601 35.247-14.601 12.755 0 25.513 4.867 35.247 14.601z" fill="url(#SVGID_00000030478973814667709650000005056694730224036260_)"/><path d="m172.829 200.265-45.987 45.987-38.069-38.069c-19.468-19.469-19.468-51.026 0-70.495 3.747-3.747 7.941-6.771 12.407-9.073z" fill="url(#SVGID_00000151536431382196448130000003258164333554302910_)"/><path d="m235.406 213.827-27.294-27.294-70.495 70.495 27.294 27.294c9.734 9.734 22.493 14.601 35.247 14.601 12.755 0 25.513-4.867 35.247-14.601 19.47-19.469 19.47-51.027.001-70.495z" fill="url(#SVGID_00000115512303462202479500000014339531841929201061_)"/><path d="m235.406 213.827-27.294-27.294-70.495 70.495 27.294 27.294c9.734 9.734 22.493 14.601 35.247 14.601 12.755 0 25.513-4.867 35.247-14.601 19.47-19.469 19.47-51.027.001-70.495z" fill="url(#SVGID_00000096056249683752151640000017232348159284848017_)"/></g></g><g><path d="m289.051 228.866h115.996c3.375 0 6.112 2.736 6.112 6.112 0 3.375-2.736 6.112-6.112 6.112h-115.996c-3.375 0-6.112-2.736-6.112-6.112.001-3.376 2.737-6.112 6.112-6.112z" fill="url(#SVGID_00000073708032401076619510000006384195426695984533_)"/><path d="m289.051 194.835h158.081c3.375 0 6.112 2.736 6.112 6.112 0 3.375-2.736 6.112-6.112 6.112h-158.081c-3.375 0-6.112-2.736-6.112-6.112.001-3.375 2.737-6.112 6.112-6.112z" fill="url(#SVGID_00000121970375109178268990000001935080481138200981_)"/><path d="m289.051 160.805h158.081c3.375 0 6.112 2.736 6.112 6.112 0 3.375-2.736 6.112-6.112 6.112h-158.081c-3.375 0-6.112-2.736-6.112-6.112.001-3.376 2.737-6.112 6.112-6.112z" fill="url(#SVGID_00000052786069241130913920000010052390540456238227_)"/><path d="m290.317 107.671h88.321c4.074 0 7.377 3.303 7.377 7.377v20.464c0 4.074-3.303 7.377-7.377 7.377h-88.321c-4.074 0-7.377-3.303-7.377-7.377v-20.464c0-4.074 3.303-7.377 7.377-7.377z" fill="url(#SVGID_00000173158204288416937260000015725578986040447157_)"/></g></g><g><path d="m334.015 275.032 11.34 55.369c.853 4.157 5.987 5.7 8.988 2.699l14.807-14.807 16.456 16.456c2.39 2.39 6.266 2.39 8.656 0l6.226-6.226c2.39-2.39 2.39-6.266 0-8.656l-16.456-16.456 14.341-14.341c3.001-3.001 1.458-8.135-2.699-8.988l-55.369-11.34c-3.745-.769-7.058 2.544-6.29 6.29z" fill="url(#SVGID_00000067223930671698948030000013658983130149593246_)"/><path d="m334.015 275.032 11.34 55.369c.853 4.157 5.987 5.7 8.988 2.699l44.03-44.03c3.001-3.001 1.458-8.135-2.699-8.988l-55.369-11.34c-3.745-.769-7.058 2.544-6.29 6.29z" fill="url(#SVGID_00000081631649328481851600000001631913111688875413_)"/><g><path d="m369.151 318.295-14.805 14.805c-3.003 3.003-8.139 1.46-8.991-2.7l-9.248-45.15z" fill="url(#SVGID_00000157987459124828791410000009680310883720320403_)"/><path d="m395.675 280.081c4.16.852 5.702 5.989 2.7 8.991l-14.341 14.341-32.341-32.341z" fill="url(#SVGID_00000160875897173985174840000015702450156260740993_)"/></g></g></g><g><path d="m150.5 471.278h211c7.184 0 13.017 5.833 13.017 13.017v10.813c0 2.352-1.91 4.262-4.262 4.262h-228.51c-2.352 0-4.262-1.91-4.262-4.262v-10.813c0-7.184 5.833-13.017 13.017-13.017z" fill="url(#SVGID_00000064330784524036937090000015543011629804469146_)"/><path d="m137.483 486.07v9.038c0 2.354 1.908 4.262 4.262 4.262h228.51c2.354 0 4.262-1.908 4.262-4.262v-9.038z" fill="url(#SVGID_00000139282161147923104150000009384976362922781824_)"/><path d="m361.5 471.278h-38.086v28.092h46.841c2.354 0 4.262-1.908 4.262-4.262v-10.813c0-7.189-5.828-13.017-13.017-13.017z" fill="url(#SVGID_00000179622978207285569550000009503487199081050276_)"/></g></g></svg>