<svg id="_39_Medical_Report" enable-background="new 0 0 512 512" viewBox="0 0 512 512" xmlns="http://www.w3.org/2000/svg" xmlns:xlink="http://www.w3.org/1999/xlink"><linearGradient id="lg1"><stop offset="0" stop-color="#f3faff"/><stop offset="1" stop-color="#d5daf3"/></linearGradient><linearGradient id="SVGID_1_" gradientTransform="matrix(1 0 0 -1 0 514)" gradientUnits="userSpaceOnUse" x1="105.01" x2="463.766" xlink:href="#lg1" y1="408.99" y2="50.234"/><linearGradient id="lg2"><stop offset="0" stop-color="#dbd5ef" stop-opacity="0"/><stop offset=".2667" stop-color="#d8d2ec" stop-opacity=".023"/><stop offset=".4431" stop-color="#d1c9e2" stop-opacity=".098"/><stop offset=".5933" stop-color="#c4b9d1" stop-opacity=".225"/><stop offset=".7288" stop-color="#b2a4ba" stop-opacity=".405"/><stop offset=".8545" stop-color="#9a889c" stop-opacity=".638"/><stop offset=".9713" stop-color="#7e6678" stop-opacity=".92"/><stop offset="1" stop-color="#765d6e"/></linearGradient><linearGradient id="SVGID_00000070083291780468382080000018188789349204312975_" gradientTransform="matrix(1 0 0 -1 0 514)" gradientUnits="userSpaceOnUse" x1="223.366" x2="130.16" xlink:href="#lg2" y1="378.902" y2="472.108"/><linearGradient id="SVGID_00000044136166684148482910000005960511152199763390_" gradientTransform="matrix(1 0 0 -1 0 514)" gradientUnits="userSpaceOnUse" x1="254.727" x2="256.334" xlink:href="#lg2" y1="345.786" y2="108.679"/><linearGradient id="SVGID_00000068666304192488767620000013055774090471477943_" gradientTransform="matrix(1 0 0 -1 0 514)" gradientUnits="userSpaceOnUse" x1="254.727" x2="256.334" xlink:href="#lg2" y1="297.489" y2="60.382"/><linearGradient id="SVGID_00000081611780143477275250000009931497366235745726_" gradientTransform="matrix(1 0 0 -1 0 514)" gradientUnits="userSpaceOnUse" x1="254.727" x2="256.334" xlink:href="#lg2" y1="249.192" y2="12.084"/><linearGradient id="SVGID_00000080196642216540603790000002769223975429008033_" gradientTransform="matrix(1 0 0 -1 0 514)" gradientUnits="userSpaceOnUse" x1="123.48" x2="191.248" xlink:href="#lg1" y1="478.787" y2="411.019"/><linearGradient id="SVGID_00000133519935304124882290000011076308723915148709_" gradientTransform="matrix(1 0 0 -1 0 514)" gradientUnits="userSpaceOnUse" x1="256" x2="256" xlink:href="#lg2" y1="35.871" y2="-.485"/><linearGradient id="SVGID_00000066501433019784535890000007549693481301401000_" gradientTransform="matrix(1 0 0 -1 0 514)" gradientUnits="userSpaceOnUse" x1="372.406" x2="430.759" xlink:href="#lg2" y1="258" y2="258"/><linearGradient id="SVGID_00000081646090111362283850000012364837077467321746_" gradientTransform="matrix(1 0 0 -1 0 514)" gradientUnits="userSpaceOnUse" x1="442.562" x2="277.889" xlink:href="#lg2" y1="132.351" y2="300.589"/><linearGradient id="lg3"><stop offset="0" stop-color="#99e6fc"/><stop offset=".1325" stop-color="#8ee1fb"/><stop offset=".3627" stop-color="#71d5f9"/><stop offset=".6631" stop-color="#43c2f5"/><stop offset="1" stop-color="#08a9f1"/></linearGradient><linearGradient id="SVGID_00000137118594481024401560000018368014827159238537_" gradientTransform="matrix(1 0 0 -1 0 514)" gradientUnits="userSpaceOnUse" x1="187.352" x2="333.847" xlink:href="#lg3" y1="381.677" y2="250.152"/><linearGradient id="SVGID_00000093141447655776578530000016318499266613716651_" gradientTransform="matrix(1 0 0 -1 0 514)" gradientUnits="userSpaceOnUse" x1="321.531" x2="143.068" xlink:href="#lg3" y1="254.581" y2="433.045"/><linearGradient id="lg4"><stop offset="0" stop-color="#314dc9" stop-opacity="0"/><stop offset=".1245" stop-color="#304cc8" stop-opacity=".03"/><stop offset=".2787" stop-color="#2f4bc6" stop-opacity=".117"/><stop offset=".4488" stop-color="#2e49c2" stop-opacity=".26"/><stop offset=".6301" stop-color="#2c47bd" stop-opacity=".46"/><stop offset=".8182" stop-color="#2943b7" stop-opacity=".714"/><stop offset="1" stop-color="#2740b0"/></linearGradient><linearGradient id="SVGID_00000109730452563463918770000008868715773140654217_" gradientTransform="matrix(1 0 0 -1 0 514)" gradientUnits="userSpaceOnUse" x1="346.941" x2="368.348" xlink:href="#lg4" y1="303.748" y2="303.748"/><linearGradient id="SVGID_00000164496656289010717210000012610255578013077682_" gradientTransform="matrix(1 0 0 -1 0 514)" gradientUnits="userSpaceOnUse" x1="295.249" x2="314.259" xlink:href="#lg4" y1="243.007" y2="212.116"/><linearGradient id="SVGID_00000169516789297159625210000000192715382625069978_" gradientTransform="matrix(-1 0 0 -1 414 514)" gradientUnits="userSpaceOnUse" x1="197.249" x2="216.259" xlink:href="#lg4" y1="243.007" y2="212.116"/><linearGradient id="SVGID_00000171001042790231130220000001099573723918129087_" gradientTransform="matrix(1 0 0 -1 0 514)" gradientUnits="userSpaceOnUse" x1="125.179" x2="355.438" xlink:href="#lg4" y1="449.595" y2="219.336"/><linearGradient id="SVGID_00000127026797328571540810000018094960732424792481_" gradientTransform="matrix(1 0 0 -1 0 514)" gradientUnits="userSpaceOnUse" x1="220.05" x2="162.218" xlink:href="#lg4" y1="303.58" y2="303.58"/><linearGradient id="SVGID_00000043456715793406646630000015339131882836053132_" gradientTransform="matrix(1 0 0 -1 0 514)" gradientUnits="userSpaceOnUse" x1="256" x2="256" xlink:href="#lg4" y1="350.921" y2="400.213"/><linearGradient id="SVGID_00000028323527371689859200000004010505724107771323_" gradientTransform="matrix(1 0 0 -1 0 514)" gradientUnits="userSpaceOnUse" x1="313.495" x2="327.752" y1="236.883" y2="221.2"><stop offset="0" stop-color="#08a9f1" stop-opacity="0"/><stop offset=".0927" stop-color="#0baaf1" stop-opacity=".025"/><stop offset=".2192" stop-color="#15aef2" stop-opacity=".094"/><stop offset=".3651" stop-color="#26b5f3" stop-opacity=".208"/><stop offset=".5256" stop-color="#3dbff5" stop-opacity=".367"/><stop offset=".698" stop-color="#5acbf7" stop-opacity=".571"/><stop offset=".8776" stop-color="#7edaf9" stop-opacity=".816"/><stop offset="1" stop-color="#99e6fc"/></linearGradient><linearGradient id="SVGID_00000178165314191945968780000007280186300977898912_" gradientTransform="matrix(1 0 0 -1 0 514)" gradientUnits="userSpaceOnUse" x1="321.096" x2="262.405" xlink:href="#lg4" y1="239.888" y2="298.578"/><linearGradient id="SVGID_00000089550413551888997660000014211434453314454406_" gradientTransform="matrix(1 0 0 -1 0 514)" gradientUnits="userSpaceOnUse" x1="222.662" x2="291.804" xlink:href="#lg1" y1="338.322" y2="269.179"/><linearGradient id="SVGID_00000061461554756267290010000008526865541582322567_" gradientTransform="matrix(1 0 0 -1 0 514)" gradientUnits="userSpaceOnUse" x1="241.847" x2="270.674" y1="318.602" y2="290.863"><stop offset="0" stop-color="#fe646f"/><stop offset=".235" stop-color="#fa5964"/><stop offset=".6415" stop-color="#ef3d49"/><stop offset="1" stop-color="#e41f2d"/></linearGradient><linearGradient id="SVGID_00000065058015890927872500000009172110936560119950_" gradientTransform="matrix(1 0 0 -1 0 514)" gradientUnits="userSpaceOnUse" x1="257.067" x2="264.41" xlink:href="#lg2" y1="296.808" y2="242.962"/><linearGradient id="SVGID_00000109721622762091775300000000373727223570859904_" gradientTransform="matrix(1 0 0 -1 0 514)" gradientUnits="userSpaceOnUse" x1="257.329" x2="316.681" xlink:href="#lg2" y1="304.78" y2="295.602"/><linearGradient id="SVGID_00000002359118332416540790000017628544637264299180_" gradientTransform="matrix(1 0 0 -1 0 514)" gradientUnits="userSpaceOnUse" x1="277.293" x2="307.716" y1="283.69" y2="253.267"><stop offset="0" stop-color="#fff" stop-opacity="0"/><stop offset=".0925" stop-color="#fff" stop-opacity=".024"/><stop offset=".2178" stop-color="#fff" stop-opacity=".092"/><stop offset=".3619" stop-color="#fff" stop-opacity=".203"/><stop offset=".52" stop-color="#fff" stop-opacity=".359"/><stop offset=".6897" stop-color="#fff" stop-opacity=".559"/><stop offset=".8661" stop-color="#fff" stop-opacity=".798"/><stop offset="1" stop-color="#fff"/></linearGradient><g><g><path d="m414.035 512h-316.07c-5.356 0-9.698-4.342-9.698-9.698v-404.995l97.307-97.307h228.46c5.356 0 9.698 4.342 9.698 9.698v492.604c.001 5.356-4.341 9.698-9.697 9.698z" fill="url(#SVGID_1_)"/><path d="m88.267 317.436 317.436-317.436h-207.73c-7.938 0-15.552 3.154-21.165 8.767l-79.774 79.773c-5.613 5.613-8.767 13.227-8.767 21.165z" fill="url(#SVGID_00000070083291780468382080000018188789349204312975_)"/><g><path d="m132.654 349.003h246.692c3.879 0 7.024 3.145 7.024 7.024 0 3.879-3.145 7.024-7.024 7.024h-246.692c-3.879 0-7.024-3.145-7.024-7.024-.001-3.879 3.144-7.024 7.024-7.024z" fill="url(#SVGID_00000044136166684148482910000005960511152199763390_)"/><path d="m132.654 397.3h246.692c3.879 0 7.024 3.145 7.024 7.024 0 3.879-3.145 7.024-7.024 7.024h-246.692c-3.879 0-7.024-3.145-7.024-7.024-.001-3.879 3.144-7.024 7.024-7.024z" fill="url(#SVGID_00000068666304192488767620000013055774090471477943_)"/><path d="m132.654 445.597h246.692c3.879 0 7.024 3.145 7.024 7.024 0 3.879-3.145 7.024-7.024 7.024h-246.692c-3.879 0-7.024-3.145-7.024-7.024-.001-3.879 3.144-7.024 7.024-7.024z" fill="url(#SVGID_00000081611780143477275250000009931497366235745726_)"/></g><path d="m181.651.963c-45.612 11.191-81.226 46.804-92.419 92.416l-.964 3.928v13.218c0-7.3 5.918-13.218 13.218-13.218h74.391c5.356 0 9.698-4.342 9.698-9.698v-74.391c0-7.3 5.918-13.218 13.218-13.218h-13.218z" fill="url(#SVGID_00000080196642216540603790000002769223975429008033_)"/><path d="m88.267 400.567v101.735c0 5.356 4.342 9.698 9.698 9.698h316.069c5.356 0 9.698-4.342 9.698-9.698v-101.735z" fill="url(#SVGID_00000133519935304124882290000011076308723915148709_)"/><path d="m414.035 0h-106.857v512h106.856c5.356 0 9.698-4.342 9.698-9.698v-492.604c.001-5.356-4.341-9.698-9.697-9.698z" fill="url(#SVGID_00000066501433019784535890000007549693481301401000_)"/></g><path d="m361.74 130.144-176.978 158.401 223.456 223.455h5.817c5.356 0 9.698-4.342 9.698-9.698v-310.166z" fill="url(#SVGID_00000081646090111362283850000012364837077467321746_)"/><g><g><path d="m364.919 137.021c-.394-4.545-3.358-8.285-7.303-9.051-19.399-3.765-36.01-16.875-46.149-35.129-2.367-4.261-7.106-5.862-11.146-3.817-13.55 6.859-28.544 10.675-44.321 10.675-17.494 0-34.026-4.69-48.693-13.021-4.021-2.284-9.273-.559-11.545 3.863-9.083 17.675-24.099 30.896-41.929 36.103-3.588 1.048-6.194 4.554-6.606 8.755-.451 4.597-.683 9.27-.683 14.004v45.691c0 44.794 21.477 85.997 55.968 107.374l43.623 27.037c6.152 3.813 13.576 3.813 19.728 0l43.623-27.037c34.491-21.377 55.968-62.58 55.968-107.374v-45.691c.001-4.179-.181-8.309-.535-12.382z" fill="url(#SVGID_00000137118594481024401560000018368014827159238537_)"/><path d="m256 317.365c-.649 0-1.31-.205-1.962-.609l-43.623-27.038c-30.145-18.683-48.87-54.94-48.87-94.624v-45.691c0-2.107.052-4.224.156-6.337.095-1.931 1.299-3.637 3.095-4.352 15.465-6.16 29.095-17.437 38.914-32.142 1.349-2.02 3.941-2.782 6.155-1.786 14.627 6.584 30.1 9.914 46.135 9.914 14.368 0 28.343-2.697 41.675-8.03 2.137-.855 4.565-.105 5.887 1.779 10.976 15.645 26.177 26.979 43.316 32.27 2.028.626 3.444 2.459 3.512 4.581.044 1.37.066 2.739.066 4.102v45.691c0 39.684-18.726 75.941-48.87 94.624l-43.623 27.037c-.653.406-1.314.611-1.963.611z" fill="url(#SVGID_00000093141447655776578530000016318499266613716651_)"/><path d="m357.616 127.97c-19.399-3.765-36.01-16.875-46.149-35.129-2.366-4.26-7.106-5.862-11.146-3.817-13.55 6.859-28.544 10.675-44.321 10.675-3.958 0-7.864-.252-11.713-.72v229.381l1.849 1.146c6.152 3.813 13.576 3.813 19.728 0l43.624-27.037c34.491-21.377 55.968-62.58 55.968-107.374v-45.691c0-4.179-.183-8.309-.536-12.382-.395-4.547-3.358-8.287-7.304-9.052z" fill="url(#SVGID_00000109730452563463918770000008868715773140654217_)"/><path d="m146.545 180.713v14.381c0 44.794 21.477 85.997 55.968 107.374l43.624 27.037c6.152 3.813 13.576 3.813 19.728 0l43.624-27.037c34.491-21.377 55.968-62.58 55.968-107.374v-14.381z" fill="url(#SVGID_00000164496656289010717210000012610255578013077682_)"/><path d="m365.455 180.713v14.381c0 44.794-21.477 85.997-55.968 107.374l-43.624 27.037c-6.152 3.813-13.576 3.813-19.728 0l-43.624-27.037c-34.491-21.377-55.968-62.58-55.968-107.374v-14.381z" fill="url(#SVGID_00000169516789297159625210000000192715382625069978_)"/><path d="m215.684 281.218c-27.226-16.873-44.139-49.874-44.139-86.124v-45.691c0-.009 0-.018 0-.027 0-1.59.92-3.051 2.355-3.735 13.056-6.231 24.589-15.629 33.85-27.576 1.12-1.445 3.062-2.004 4.77-1.353 13.91 5.304 28.504 7.987 43.48 7.987 13.286 0 26.326-2.131 38.855-6.342 1.68-.565 3.537-.064 4.652 1.313 10.376 12.813 23.652 22.677 38.297 28.453 1.604.633 2.651 2.186 2.651 3.91v43.061c0 36.25-16.913 69.251-44.138 86.124l-38.096 23.611c-1.361.844-3.083.844-4.444 0z" fill="url(#SVGID_00000171001042790231130220000001099573723918129087_)"/><path d="m253.082 124.664c-13.954-.326-27.557-2.994-40.562-7.952-1.709-.651-3.65-.093-4.77 1.353-9.261 11.947-20.794 21.344-33.85 27.575-1.435.685-2.354 2.146-2.355 3.735v45.718c0 36.25 16.913 69.251 44.139 86.124l37.398 23.18z" fill="url(#SVGID_00000127026797328571540810000018094960732424792481_)"/><path d="m337.804 148.123c-14.645-5.776-27.921-15.639-38.297-28.453-1.115-1.377-2.972-1.878-4.652-1.313-12.53 4.212-25.569 6.342-38.855 6.342-14.976 0-29.57-2.684-43.48-7.987-1.709-.651-3.65-.093-4.77 1.353-9.261 11.947-20.794 21.344-33.85 27.575-1.435.685-2.354 2.146-2.355 3.735v45.718c0 4.706.291 9.355.847 13.923h167.217c.556-4.568.847-9.217.847-13.923v-43.061c-.001-1.723-1.048-3.277-2.652-3.909z" fill="url(#SVGID_00000043456715793406646630000015339131882836053132_)"/></g><path d="m365.455 180.713v14.381c0 44.794-21.477 85.997-55.968 107.374l-43.624 27.037c-6.152 3.813-13.576 3.813-19.728 0l-43.624-27.037c-34.491-21.377-55.968-62.58-55.968-107.374v-14.381z" fill="url(#SVGID_00000028323527371689859200000004010505724107771323_)"/></g><path d="m299.311 165.193-87.135 87.135 68.19 68.19 29.122-18.05c25.939-16.077 44.514-43.368 52.132-74.966z" fill="url(#SVGID_00000178165314191945968780000007280186300977898912_)"/><g><circle cx="256" cy="209.017" fill="url(#SVGID_00000089550413551888997660000014211434453314454406_)" r="61.618"/><path d="m287.886 198.132h-21.001v-21.001c0-3.072-2.49-5.562-5.562-5.562h-10.645c-3.072 0-5.562 2.49-5.562 5.562v21.001h-21.001c-3.072 0-5.562 2.49-5.562 5.562v10.645c0 3.072 2.49 5.562 5.562 5.562h21.001v21.001c0 3.072 2.49 5.562 5.562 5.562h10.645c3.072 0 5.562-2.49 5.562-5.562v-21.001h21.001c3.072 0 5.562-2.49 5.562-5.562v-10.645c0-3.071-2.491-5.562-5.562-5.562z" fill="url(#SVGID_00000061461554756267290010000008526865541582322567_)"/><path d="m194.382 209.017c0 34.031 27.587 61.618 61.618 61.618s61.618-27.587 61.618-61.618c0-1.704-.072-3.39-.208-5.059h-122.82c-.136 1.669-.208 3.355-.208 5.059z" fill="url(#SVGID_00000065058015890927872500000009172110936560119950_)"/><path d="m256 147.399c-3.97 0-7.85.38-11.61 1.097v121.042c3.761.717 7.641 1.097 11.61 1.097 34.031 0 61.618-27.587 61.618-61.618s-27.587-61.618-61.618-61.618z" fill="url(#SVGID_00000109721622762091775300000000373727223570859904_)"/><path d="m299.311 165.193-87.135 87.135c11.17 11.302 26.678 18.307 43.824 18.307 34.031 0 61.618-27.587 61.618-61.618 0-17.146-7.005-32.654-18.307-43.824z" fill="url(#SVGID_00000002359118332416540790000017628544637264299180_)"/></g></g></svg>