<svg id="_42_Glucometer" enable-background="new 0 0 512 512" viewBox="0 0 512 512" xmlns="http://www.w3.org/2000/svg" xmlns:xlink="http://www.w3.org/1999/xlink"><linearGradient id="SVGID_1_" gradientTransform="matrix(1 0 0 -1 0 514)" gradientUnits="userSpaceOnUse" x1="259.301" x2="315.083" y1="78.04" y2="78.04"><stop offset="0" stop-color="#ffdfcf"/><stop offset="1" stop-color="#ffa78f"/></linearGradient><linearGradient id="lg1"><stop offset="0" stop-color="#f89580" stop-opacity="0"/><stop offset=".1028" stop-color="#f5937e" stop-opacity=".049"/><stop offset=".2747" stop-color="#ee8e79" stop-opacity=".18"/><stop offset=".4946" stop-color="#e38671" stop-opacity=".393"/><stop offset=".7511" stop-color="#d57c65" stop-opacity=".686"/><stop offset=".9972" stop-color="#c5715a"/></linearGradient><linearGradient id="SVGID_00000008118814170020882850000004479106891957706676_" gradientTransform="matrix(1 0 0 -1 0 514)" gradientUnits="userSpaceOnUse" x1="286.063" x2="286.063" xlink:href="#lg1" y1="115.04" y2="137.896"/><linearGradient id="SVGID_00000092439509129487443190000011430586086413151399_" gradientTransform="matrix(1 0 0 -1 0 514)" gradientUnits="userSpaceOnUse" x1="291.855" x2="316.292" xlink:href="#lg1" y1="78.04" y2="78.04"/><linearGradient id="SVGID_00000073716957483536671520000007965487465045731744_" gradientTransform="matrix(1 0 0 -1 0 514)" gradientUnits="userSpaceOnUse" x1="173.225" x2="414.888" y1="423.353" y2="258.68"><stop offset="0" stop-color="#7a6d79"/><stop offset="1" stop-color="#593636"/></linearGradient><linearGradient id="lg2"><stop offset="0" stop-color="#593636" stop-opacity="0"/><stop offset="1"/></linearGradient><linearGradient id="SVGID_00000103262382848504775750000006918930459674438541_" gradientTransform="matrix(1 0 0 -1 0 514)" gradientUnits="userSpaceOnUse" x1="286.063" x2="286.063" xlink:href="#lg2" y1="297.444" y2="132.833"/><linearGradient id="SVGID_00000021814338990465094760000005337339835392515753_" gradientTransform="matrix(1 0 0 -1 0 514)" gradientUnits="userSpaceOnUse" x1="161.524" x2="135.386" xlink:href="#lg2" y1="243.847" y2="272.362"/><linearGradient id="SVGID_00000044177220704130439840000004456139385269468085_" gradientTransform="matrix(1 0 0 -1 0 514)" gradientUnits="userSpaceOnUse" x1="343.182" x2="471.16" xlink:href="#lg2" y1="325.663" y2="325.663"/><linearGradient id="SVGID_00000156567053568965142630000013043105620533626290_" gradientTransform="matrix(1 0 0 -1 0 514)" gradientUnits="userSpaceOnUse" x1="210.435" x2="381.524" y1="472.271" y2="228.469"><stop offset="0" stop-color="#c1e9af"/><stop offset=".1072" stop-color="#b6e4aa"/><stop offset=".2935" stop-color="#99d69e"/><stop offset=".5365" stop-color="#6bc18a"/><stop offset=".8238" stop-color="#2ca36f"/><stop offset="1" stop-color="#02905d"/></linearGradient><linearGradient id="lg3"><stop offset="0" stop-color="#026841" stop-opacity="0"/><stop offset=".2182" stop-color="#026841" stop-opacity=".033"/><stop offset=".4099" stop-color="#026841" stop-opacity=".137"/><stop offset=".5916" stop-color="#026841" stop-opacity=".31"/><stop offset=".7671" stop-color="#026841" stop-opacity=".553"/><stop offset=".9367" stop-color="#026841" stop-opacity=".864"/><stop offset="1" stop-color="#026841"/></linearGradient><linearGradient id="SVGID_00000085233073808700614950000011534746940651561372_" gradientTransform="matrix(1 0 0 -1 0 514)" gradientUnits="userSpaceOnUse" x1="286.063" x2="286.063" xlink:href="#lg3" y1="450.355" y2="505"/><linearGradient id="SVGID_00000159470792323539459430000004052315112186089122_" gradientTransform="matrix(1 0 0 -1 0 514)" gradientUnits="userSpaceOnUse" x1="168.528" x2="124.124" xlink:href="#lg3" y1="364.501" y2="364.501"/><linearGradient id="SVGID_00000179628625179970464920000015069240037000467355_" gradientTransform="matrix(1 0 0 -1 0 514)" gradientUnits="userSpaceOnUse" x1="107.718" x2="289.863" xlink:href="#lg3" y1="655.578" y2="242.251"/><linearGradient id="SVGID_00000057829338163920433990000000466918663947750079_" gradientTransform="matrix(1 0 0 -1 0 514)" gradientUnits="userSpaceOnUse" x1="158.087" x2="340.231" xlink:href="#lg3" y1="677.774" y2="264.447"/><linearGradient id="SVGID_00000134239098445834605390000000057108316770614691_" gradientTransform="matrix(1 0 0 -1 0 514)" gradientUnits="userSpaceOnUse" x1="223.616" x2="405.761" xlink:href="#lg3" y1="706.652" y2="293.324"/><linearGradient id="SVGID_00000021829435465764176890000005518767891870409096_" gradientTransform="matrix(1 0 0 -1 0 514)" gradientUnits="userSpaceOnUse" x1="204.129" x2="204.129" xlink:href="#lg3" y1="564.15" y2="380.786"/><linearGradient id="SVGID_00000070812116263111310110000010363285641287616646_" gradientTransform="matrix(1 0 0 -1 0 514)" gradientUnits="userSpaceOnUse" x1="384.128" x2="384.128" xlink:href="#lg3" y1="564.15" y2="380.786"/><linearGradient id="SVGID_00000122695543286597422350000007026613956856610712_" gradientTransform="matrix(1 0 0 -1 0 514)" gradientUnits="userSpaceOnUse" x1="308.875" x2="308.875" xlink:href="#lg3" y1="564.15" y2="380.786"/><linearGradient id="SVGID_00000140727628370227716970000003935154382777743757_" gradientTransform="matrix(1 0 0 -1 0 514)" gradientUnits="userSpaceOnUse" x1="367.997" x2="367.997" xlink:href="#lg3" y1="395.823" y2="212.46"/><linearGradient id="SVGID_00000115501625700156870070000004537203984075357598_" gradientTransform="matrix(1 0 0 -1 0 514)" gradientUnits="userSpaceOnUse" x1="305.98" x2="349.197" y1="215.538" y2="172.322"><stop offset="0" stop-color="#fef0ae"/><stop offset="1" stop-color="#fac600"/></linearGradient><linearGradient id="lg4"><stop offset="0" stop-color="#fe9738" stop-opacity="0"/><stop offset=".1648" stop-color="#fe9637" stop-opacity=".012"/><stop offset=".2957" stop-color="#fe9535" stop-opacity=".052"/><stop offset=".415" stop-color="#fe9331" stop-opacity=".118"/><stop offset=".5274" stop-color="#fe902c" stop-opacity=".211"/><stop offset=".635" stop-color="#fe8c25" stop-opacity=".331"/><stop offset=".739" stop-color="#fe871d" stop-opacity=".479"/><stop offset=".8401" stop-color="#fe8213" stop-opacity=".655"/><stop offset=".9364" stop-color="#fe7b09" stop-opacity=".852"/><stop offset="1" stop-color="#fe7701"/></linearGradient><linearGradient id="SVGID_00000137102793955709800880000006658525060364905647_" gradientTransform="matrix(1 0 0 -1 0 514)" gradientUnits="userSpaceOnUse" x1="326.818" x2="326.818" xlink:href="#lg4" y1="188.494" y2="155.855"/><linearGradient id="SVGID_00000119831974494110653900000008317702423244039830_" gradientTransform="matrix(1 0 0 -1 0 514)" gradientUnits="userSpaceOnUse" x1="332.887" x2="365.571" xlink:href="#lg4" y1="194.701" y2="194.701"/><linearGradient id="SVGID_00000164502238187896495740000011489198247562096518_" gradientTransform="matrix(1 0 0 -1 0 514)" gradientUnits="userSpaceOnUse" x1="340.127" x2="359.142" y1="181.392" y2="162.377"><stop offset="0" stop-color="#fac600" stop-opacity="0"/><stop offset=".1175" stop-color="#fac602" stop-opacity=".017"/><stop offset=".2423" stop-color="#fac80b" stop-opacity=".067"/><stop offset=".3705" stop-color="#facc1a" stop-opacity=".151"/><stop offset=".5011" stop-color="#fbd12e" stop-opacity=".268"/><stop offset=".6336" stop-color="#fbd748" stop-opacity=".419"/><stop offset=".7676" stop-color="#fcdf69" stop-opacity=".604"/><stop offset=".9003" stop-color="#fde88e" stop-opacity=".819"/><stop offset="1" stop-color="#fef0ae"/></linearGradient><linearGradient id="lg5"><stop offset="0" stop-color="#f3faff"/><stop offset="1" stop-color="#d5daf3"/></linearGradient><linearGradient id="SVGID_00000098909630165628344470000007418587943116275329_" gradientTransform="matrix(1 0 0 -1 0 514)" gradientUnits="userSpaceOnUse" x1="234.412" x2="246.337" xlink:href="#lg5" y1="230.596" y2="191.152"/><linearGradient id="lg6"><stop offset="0" stop-color="#dbd5ef" stop-opacity="0"/><stop offset=".2667" stop-color="#d8d2ec" stop-opacity=".023"/><stop offset=".4431" stop-color="#d1c9e2" stop-opacity=".098"/><stop offset=".5933" stop-color="#c4b9d1" stop-opacity=".225"/><stop offset=".7288" stop-color="#b2a4ba" stop-opacity=".405"/><stop offset=".8545" stop-color="#9a889c" stop-opacity=".638"/><stop offset=".9713" stop-color="#7e6678" stop-opacity=".92"/><stop offset="1" stop-color="#765d6e"/></linearGradient><linearGradient id="SVGID_00000069374248163604138260000005907197964231732155_" gradientTransform="matrix(1 0 0 -1 0 514)" gradientUnits="userSpaceOnUse" x1="196.278" x2="248.382" xlink:href="#lg6" y1="273.215" y2="197.335"/><linearGradient id="SVGID_00000047746647569618815490000010600202474133098415_" gradientTransform="matrix(1 0 0 -1 0 514)" gradientUnits="userSpaceOnUse" x1="238.671" x2="238.671" xlink:href="#lg6" y1="218.825" y2="196.893"/><linearGradient id="SVGID_00000047060179758051039840000002575989791898273202_" gradientTransform="matrix(1 0 0 -1 0 514)" gradientUnits="userSpaceOnUse" x1="244.72" x2="269.982" xlink:href="#lg6" y1="216.509" y2="216.509"/><linearGradient id="lg7"><stop offset="0" stop-color="#d5daf3" stop-opacity="0"/><stop offset=".1385" stop-color="#d8ddf4" stop-opacity=".114"/><stop offset=".4399" stop-color="#e1e6f7" stop-opacity=".406"/><stop offset=".8782" stop-color="#eff5fd" stop-opacity=".867"/><stop offset="1" stop-color="#f3faff"/></linearGradient><linearGradient id="SVGID_00000027579904136707161530000011358742004344771215_" gradientTransform="matrix(1 0 0 -1 0 514)" gradientUnits="userSpaceOnUse" x1="247.475" x2="258.503" xlink:href="#lg7" y1="207.753" y2="196.725"/><linearGradient id="SVGID_00000086689455407836959150000003779430483323580318_" gradientTransform="matrix(1 0 0 -1 0 514)" gradientUnits="userSpaceOnUse" x1="234.412" x2="246.337" xlink:href="#lg5" y1="186.98" y2="147.536"/><linearGradient id="SVGID_00000111154955619055063910000017560372800925744789_" gradientTransform="matrix(1 0 0 -1 0 514)" gradientUnits="userSpaceOnUse" x1="174.062" x2="253.003" xlink:href="#lg6" y1="240.958" y2="162.016"/><linearGradient id="SVGID_00000060014223172217577650000013259851442464738704_" gradientTransform="matrix(1 0 0 -1 0 514)" gradientUnits="userSpaceOnUse" x1="238.671" x2="238.671" xlink:href="#lg6" y1="175.208" y2="153.277"/><linearGradient id="SVGID_00000046300810592634961370000004979555166233487283_" gradientTransform="matrix(1 0 0 -1 0 514)" gradientUnits="userSpaceOnUse" x1="244.72" x2="269.982" xlink:href="#lg6" y1="172.893" y2="172.893"/><linearGradient id="SVGID_00000104703890128973922670000007106295783485234062_" gradientTransform="matrix(1 0 0 -1 0 514)" gradientUnits="userSpaceOnUse" x1="247.475" x2="258.503" xlink:href="#lg7" y1="164.137" y2="153.108"/><linearGradient id="SVGID_00000020385085698359746070000002409228957636529829_" gradientTransform="matrix(1 0 0 -1 0 514)" gradientUnits="userSpaceOnUse" x1="209.254" x2="141.293" xlink:href="#lg3" y1="284.81" y2="300.968"/><linearGradient id="lg8"><stop offset="0" stop-color="#fe646f"/><stop offset=".235" stop-color="#fa5964"/><stop offset=".6415" stop-color="#ef3d49"/><stop offset="1" stop-color="#e41f2d"/></linearGradient><linearGradient id="SVGID_00000038404519385992604720000006746033139190843278_" gradientTransform="matrix(1 0 0 -1 0 514)" gradientUnits="userSpaceOnUse" x1="74.753" x2="138" xlink:href="#lg8" y1="338.899" y2="268.778"/><linearGradient id="lg9"><stop offset="0" stop-color="#a72b2b" stop-opacity="0"/><stop offset=".1561" stop-color="#a32b2a" stop-opacity=".066"/><stop offset=".386" stop-color="#982c29" stop-opacity=".248"/><stop offset=".6615" stop-color="#872f28" stop-opacity=".545"/><stop offset=".97" stop-color="#6f3226" stop-opacity=".956"/><stop offset="1" stop-color="#6d3326"/></linearGradient><linearGradient id="SVGID_00000123432993345115897850000016114136853431583166_" gradientTransform="matrix(1 0 0 -1 0 514)" gradientUnits="userSpaceOnUse" x1="97.148" x2="97.148" xlink:href="#lg9" y1="316.272" y2="244.061"/><linearGradient id="SVGID_00000129167378620885985150000016488348313265996716_" gradientTransform="matrix(1 0 0 -1 0 514)" gradientUnits="userSpaceOnUse" x1="96.766" x2="161.274" xlink:href="#lg9" y1="322.79" y2="328.708"/><linearGradient id="SVGID_00000179631654879286142020000006314216773978289823_" gradientTransform="matrix(1 0 0 -1 0 514)" gradientUnits="userSpaceOnUse" x1="124.099" x2="167.026" y1="291.513" y2="252.529"><stop offset="0" stop-color="#e41f2d" stop-opacity="0"/><stop offset=".0725" stop-color="#e62533" stop-opacity=".093"/><stop offset=".3356" stop-color="#ee3b48" stop-opacity=".411"/><stop offset=".5691" stop-color="#f54c58" stop-opacity=".664"/><stop offset=".7644" stop-color="#f95964" stop-opacity=".846"/><stop offset=".914" stop-color="#fc616c" stop-opacity=".958"/><stop offset="1" stop-color="#fe646f"/></linearGradient><linearGradient id="SVGID_00000117635828981008898270000017625194304702550921_" gradientTransform="matrix(1 0 0 -1 0 514)" gradientUnits="userSpaceOnUse" x1="277.598" x2="296.272" xlink:href="#lg8" y1="24.126" y2="24.126"/><g><path d="m316.503 359.92v140.74c0 6.26-5.08 11.34-11.34 11.34h-8.82l-10.28-22.13-10.28 22.13h-8.82c-6.26 0-11.34-5.08-11.34-11.34v-140.74z" fill="url(#SVGID_1_)"/><path d="m255.623 359.92h60.88v82.599h-60.88z" fill="url(#SVGID_00000008118814170020882850000004479106891957706676_)"/><path d="m275.782 512 10.281-22.13 10.28 22.13h8.82c6.26 0 11.34-5.08 11.34-11.34v-140.74h-40.721z" fill="url(#SVGID_00000092439509129487443190000011430586086413151399_)"/><g><g><path d="m162.789 0h246.547c36.228 0 65.641 29.413 65.641 65.641v157.146c0 84.933-68.955 153.888-153.888 153.888h-70.054c-84.933 0-153.888-68.955-153.888-153.888v-157.146c.001-36.228 29.414-65.641 65.642-65.641z" fill="url(#SVGID_00000073716957483536671520000007965487465045731744_)"/><path d="m97.148 155.291v67.495c0 84.99 68.898 153.888 153.888 153.888h70.054c84.99 0 153.888-68.898 153.888-153.888v-67.495z" fill="url(#SVGID_00000103262382848504775750000006918930459674438541_)"/><path d="m197.281 367.016v-140.57h-100.086c1.505 64.494 42.689 119.169 100.086 140.57z" fill="url(#SVGID_00000021814338990465094760000005337339835392515753_)"/><path d="m409.336 0h-155.352v376.675h67.106c84.99 0 153.888-68.898 153.888-153.888v-157.146c0-36.252-29.389-65.641-65.642-65.641z" fill="url(#SVGID_00000044177220704130439840000004456139385269468085_)"/></g><g><path d="m169.854 33.015h232.419c17.907 0 32.424 14.517 32.424 32.424v168.12c0 17.907-14.517 32.424-32.424 32.424h-232.419c-17.907 0-32.424-14.517-32.424-32.424v-168.12c-.001-17.908 14.516-32.424 32.424-32.424z" fill="url(#SVGID_00000156567053568965142630000013043105620533626290_)"/><path d="m402.272 33.014h-232.418c-17.907 0-32.424 14.517-32.424 32.424v95.009h297.267v-95.008c0-17.908-14.517-32.425-32.425-32.425z" fill="url(#SVGID_00000085233073808700614950000011534746940651561372_)"/><path d="m286.063 33.014h-116.209c-17.907 0-32.424 14.517-32.424 32.424v168.12c0 17.907 14.517 32.424 32.424 32.424h116.209z" fill="url(#SVGID_00000159470792323539459430000004052315112186089122_)"/></g><g><g><path d="m224.428 121.261-4.165 2.585c-1.149.768-2.348 1.149-3.591 1.149-2.107 0-3.805-.934-5.099-2.8-1.292-1.866-1.939-3.901-1.939-6.106 0-1.529.335-2.964 1.007-4.308.668-1.339 1.723-2.44 3.158-3.301l18.959-11.491c1.051-.67 2.44-1.007 4.163-1.007 2.299 0 4.525.627 6.679 1.868 2.154 1.245 3.231 2.969 3.231 5.17v91.341c0 2.299-1.173 4.022-3.519 5.172-2.346 1.149-4.907 1.723-7.684 1.723s-5.338-.574-7.682-1.723c-2.348-1.149-3.519-2.873-3.519-5.172.001.001.001-73.1.001-73.1z" fill="url(#SVGID_00000179628625179970464920000015069240037000467355_)"/><path d="m295.949 202.118c-4.98 0-9.601-.599-13.86-1.794-4.261-1.199-7.97-3.161-11.13-5.89-3.158-2.73-5.649-6.223-7.469-10.484-1.819-4.259-2.728-9.501-2.728-15.726v-38.059c0-6.125.909-11.346 2.728-15.654s4.31-7.827 7.469-10.557c3.161-2.73 6.869-4.69 11.13-5.888 4.259-1.196 8.88-1.794 13.86-1.794 4.978 0 9.622.597 13.93 1.794 4.308 1.199 8.042 3.158 11.203 5.888 3.158 2.73 5.647 6.249 7.469 10.557 1.817 4.308 2.728 9.529 2.728 15.654v38.059c0 6.225-.911 11.467-2.728 15.726-1.821 4.261-4.31 7.754-7.469 10.484-3.161 2.73-6.895 4.692-11.203 5.89-4.308 1.195-8.953 1.794-13.93 1.794zm12.925-71.953c0-4.978-1.15-8.616-3.448-10.915-2.297-2.297-5.457-3.446-9.477-3.446-4.022 0-7.159 1.149-9.407 3.446-2.252 2.299-3.376 5.937-3.376 10.915v38.059c0 4.98 1.124 8.616 3.376 10.915 2.248 2.299 5.385 3.446 9.407 3.446 4.02 0 7.181-1.147 9.477-3.446 2.299-2.299 3.448-5.935 3.448-10.915z" fill="url(#SVGID_00000057829338163920433990000000466918663947750079_)"/><path d="m375.083 182.585c4.882 0 8.305-.981 10.269-2.943 1.96-1.962 2.943-5.289 2.943-9.981v-2.73c0-2.393-.358-4.329-1.077-5.818-.717-1.482-1.676-2.655-2.873-3.517-1.196-.864-2.634-1.435-4.308-1.725-1.676-.286-3.519-.431-5.53-.431-2.491 0-4.189-.883-5.097-2.655-.911-1.772-1.365-3.756-1.365-5.961 0-2.201.454-4.189 1.365-5.959.909-1.772 2.606-2.657 5.097-2.657 1.341 0 2.681-.094 4.022-.288 1.339-.19 2.536-.693 3.591-1.508 1.051-.813 1.913-2.058 2.585-3.734.668-1.674 1.004-3.95 1.004-6.822 0-4.116-1.03-6.869-3.088-8.258-2.06-1.386-4.572-2.081-7.539-2.081-3.544 0-6.202.525-7.972 1.578-1.772 1.054-2.657 2.969-2.657 5.745 0 2.491-.695 4.476-2.081 5.959-1.388 1.486-4.191 2.226-8.403 2.226-2.585 0-4.645-.143-6.174-.431-1.533-.286-2.706-.789-3.519-1.508-.815-.719-1.341-1.651-1.58-2.8-.241-1.147-.358-2.585-.358-4.308 0-2.777.548-5.673 1.651-8.688 1.1-3.016 2.92-5.792 5.457-8.33 2.536-2.538 5.888-4.619 10.053-6.249 4.165-1.625 9.358-2.44 15.583-2.44 4.596 0 8.831.454 12.711 1.363 3.877.911 7.251 2.369 10.124 4.38s5.12 4.668 6.75 7.97c1.627 3.306 2.442 7.398 2.442 12.28 0 2.585-.239 5.123-.717 7.614-.482 2.491-1.199 4.788-2.156 6.893-.958 2.107-2.107 3.928-3.446 5.457-1.341 1.533-2.922 2.728-4.739 3.589 4.308 1.629 7.827 4.095 10.557 7.398 2.728 3.303 4.093 7.876 4.093 13.715v2.73c0 5.937-.96 10.964-2.873 15.078-1.917 4.12-4.502 7.469-7.756 10.053s-7.108 4.453-11.561 5.602c-4.451 1.149-9.168 1.723-14.146 1.723-6.225 0-11.489-.838-15.799-2.514-4.308-1.672-7.827-3.852-10.554-6.534-2.73-2.679-4.717-5.6-5.961-8.761-1.245-3.158-1.868-6.27-1.868-9.332 0-3.254.766-5.434 2.299-6.537 1.531-1.098 4.308-1.653 8.33-1.653 4.596 0 7.658.554 9.192 1.653 1.529 1.103 2.297 3.041 2.297 5.816 0 1.723.36 3.114 1.077 4.167.719 1.054 1.674 1.89 2.873 2.512 1.196.623 2.561 1.054 4.093 1.292s3.109.36 4.739.36z" fill="url(#SVGID_00000134239098445834605390000000057108316770614691_)"/></g><path d="m171.05 55.712h66.158c5.315 0 9.624 4.309 9.624 9.624 0 5.315-4.309 9.624-9.624 9.624h-66.158c-5.315 0-9.624-4.309-9.624-9.624 0-5.316 4.309-9.624 9.624-9.624z" fill="url(#SVGID_00000021829435465764176890000005518767891870409096_)"/><path d="m367.18 55.712h33.896c5.315 0 9.624 4.309 9.624 9.624 0 5.315-4.309 9.624-9.624 9.624h-33.896c-5.315 0-9.624-4.309-9.624-9.624.001-5.316 4.309-9.624 9.624-9.624z" fill="url(#SVGID_00000070812116263111310110000010363285641287616646_)"/><path d="m291.927 55.712h33.896c5.315 0 9.624 4.309 9.624 9.624 0 5.315-4.309 9.624-9.624 9.624h-33.896c-5.315 0-9.624-4.309-9.624-9.624 0-5.316 4.309-9.624 9.624-9.624z" fill="url(#SVGID_00000122695543286597422350000007026613956856610712_)"/><path d="m334.918 224.038h66.158c5.315 0 9.624 4.309 9.624 9.624 0 5.315-4.309 9.624-9.624 9.624h-66.158c-5.315 0-9.624-4.309-9.624-9.624 0-5.315 4.309-9.624 9.624-9.624z" fill="url(#SVGID_00000140727628370227716970000003935154382777743757_)"/></g><g><g><circle cx="326.818" cy="319.299" fill="url(#SVGID_00000115501625700156870070000004537203984075357598_)" r="38.513"/><path d="m288.305 319.299c0 21.27 17.243 38.513 38.513 38.513s38.513-17.243 38.513-38.513c0-1.065-.045-2.119-.13-3.162h-76.766c-.085 1.043-.13 2.097-.13 3.162z" fill="url(#SVGID_00000137102793955709800880000006658525060364905647_)"/><path d="m326.818 280.786c-2.481 0-4.906.237-7.257.686v75.655c2.351.448 4.776.686 7.257.686 21.27 0 38.513-17.243 38.513-38.513 0-21.271-17.243-38.514-38.513-38.514z" fill="url(#SVGID_00000119831974494110653900000008317702423244039830_)"/><path d="m353.889 291.908-54.462 54.462c6.982 7.064 16.675 11.443 27.391 11.443 21.27 0 38.513-17.243 38.513-38.513 0-10.717-4.378-20.41-11.442-27.392z" fill="url(#SVGID_00000164502238187896495740000011489198247562096518_)"/></g><g><g><path d="m226.287 277.998h24.767c10.765 0 19.493 8.727 19.493 19.493 0 10.766-8.727 19.493-19.493 19.493h-24.767c-10.766 0-19.493-8.727-19.493-19.493.001-10.765 8.728-19.493 19.493-19.493z" fill="url(#SVGID_00000098909630165628344470000007418587943116275329_)"/><path d="m233.959 289.129-6.91 10.556c-2.451 3.745.235 8.715 4.712 8.715h13.82c4.476 0 7.163-4.97 4.712-8.715l-6.91-10.556c-2.223-3.396-7.201-3.396-9.424 0z" fill="url(#SVGID_00000069374248163604138260000005907197964231732155_)"/><path d="m206.795 297.491c0 10.766 8.727 19.493 19.493 19.493h24.767c10.765 0 19.493-8.727 19.493-19.493 0-2.177-.362-4.269-1.021-6.224h-61.711c-.659 1.956-1.021 4.047-1.021 6.224z" fill="url(#SVGID_00000047746647569618815490000010600202474133098415_)"/><path d="m251.055 277.998h-8.714v38.985h8.714c10.765 0 19.493-8.727 19.493-19.493-.001-10.764-8.728-19.492-19.493-19.492z" fill="url(#SVGID_00000047060179758051039840000002575989791898273202_)"/><path d="m251.055 277.999h-3.05l-34.34 34.34c3.401 2.895 7.807 4.645 12.623 4.645h24.767c10.766 0 19.493-8.727 19.493-19.493-.001-10.765-8.728-19.492-19.493-19.492z" fill="url(#SVGID_00000027579904136707161530000011358742004344771215_)"/></g><g><path d="m226.287 321.615h24.767c10.765 0 19.493 8.727 19.493 19.493 0 10.766-8.727 19.493-19.493 19.493h-24.767c-10.766 0-19.493-8.727-19.493-19.493.001-10.766 8.728-19.493 19.493-19.493z" fill="url(#SVGID_00000086689455407836959150000003779430483323580318_)"/><path d="m233.959 349.47-6.91-10.556c-2.451-3.745.235-8.715 4.712-8.715h13.82c4.476 0 7.163 4.97 4.712 8.715l-6.91 10.556c-2.223 3.396-7.201 3.396-9.424 0z" fill="url(#SVGID_00000111154955619055063910000017560372800925744789_)"/><path d="m206.795 341.108c0 10.766 8.727 19.493 19.493 19.493h24.767c10.765 0 19.493-8.727 19.493-19.493 0-2.177-.362-4.269-1.021-6.224h-61.711c-.659 1.955-1.021 4.046-1.021 6.224z" fill="url(#SVGID_00000060014223172217577650000013259851442464738704_)"/><path d="m251.055 321.615h-8.714v38.985h8.714c10.765 0 19.493-8.727 19.493-19.493-.001-10.765-8.728-19.492-19.493-19.492z" fill="url(#SVGID_00000046300810592634961370000004979555166233487283_)"/><path d="m251.055 321.615h-3.05l-34.34 34.34c3.401 2.895 7.807 4.645 12.623 4.645h24.767c10.766 0 19.493-8.727 19.493-19.493-.001-10.765-8.728-19.492-19.493-19.492z" fill="url(#SVGID_00000104703890128973922670000007106295783485234062_)"/></g></g></g></g><path d="m145.988 167.076-8.559 13.914v52.569c0 17.907 14.517 32.424 32.424 32.424h75.042z" fill="url(#SVGID_00000020385085698359746070000002409228957636529829_)"/><g><path d="m157.274 204.437c0 33.207-26.919 60.126-60.126 60.126s-60.126-26.919-60.126-60.126 40.505-86.859 60.126-86.859 60.126 53.652 60.126 86.859z" fill="url(#SVGID_00000038404519385992604720000006746033139190843278_)"/><path d="m37.022 204.436c0 33.206 26.919 60.126 60.126 60.126s60.126-26.919 60.126-60.126c0-11.093-4.534-24.466-11.286-37.361h-97.68c-6.752 12.895-11.286 26.268-11.286 37.361z" fill="url(#SVGID_00000123432993345115897850000016114136853431583166_)"/><path d="m97.148 117.578c-4.17 0-9.286 2.441-14.753 6.576v138.579c4.721 1.191 9.662 1.83 14.753 1.83 33.206 0 60.126-26.919 60.126-60.126s-40.506-86.859-60.126-86.859z" fill="url(#SVGID_00000129167378620885985150000016488348313265996716_)"/><path d="m157.274 204.437c0 33.207-26.919 60.126-60.126 60.126s-60.126-26.919-60.126-60.126 40.505-86.859 60.126-86.859 60.126 53.652 60.126 86.859z" fill="url(#SVGID_00000179631654879286142020000006314216773978289823_)"/></g><path d="m279.158 467.747h13.81c1.863 0 3.376 1.513 3.376 3.376v40.877h-20.561v-40.877c-.001-1.863 1.512-3.376 3.375-3.376z" fill="url(#SVGID_00000117635828981008898270000017625194304702550921_)"/></g></svg>