<svg id="_43_Cutton_Bud" enable-background="new 0 0 512 512" viewBox="0 0 512 512" xmlns="http://www.w3.org/2000/svg" xmlns:xlink="http://www.w3.org/1999/xlink"><linearGradient id="lg1"><stop offset="0" stop-color="#f3faff"/><stop offset="1" stop-color="#d5daf3"/></linearGradient><linearGradient id="SVGID_1_" gradientTransform="matrix(1 0 0 -1 0 514)" gradientUnits="userSpaceOnUse" x1="203.535" x2="252.346" xlink:href="#lg1" y1="71.042" y2="16.926"/><linearGradient id="lg2"><stop offset="0" stop-color="#dbd5ef" stop-opacity="0"/><stop offset=".2667" stop-color="#d8d2ec" stop-opacity=".023"/><stop offset=".4431" stop-color="#d1c9e2" stop-opacity=".098"/><stop offset=".5933" stop-color="#c4b9d1" stop-opacity=".225"/><stop offset=".7288" stop-color="#b2a4ba" stop-opacity=".405"/><stop offset=".8545" stop-color="#9a889c" stop-opacity=".638"/><stop offset=".9713" stop-color="#7e6678" stop-opacity=".92"/><stop offset="1" stop-color="#765d6e"/></linearGradient><linearGradient id="SVGID_00000051371785569951298000000002463013828547702684_" gradientTransform="matrix(1 0 0 -1 0 514)" gradientUnits="userSpaceOnUse" x1="220.819" x2="220.819" xlink:href="#lg2" y1="58.516" y2="-1.156"/><linearGradient id="SVGID_00000148656446026676724670000007821532620970864308_" gradientTransform="matrix(1 0 0 -1 0 514)" gradientUnits="userSpaceOnUse" x1="222.419" x2="270.389" xlink:href="#lg2" y1="57.929" y2="47.448"/><linearGradient id="SVGID_00000131351656543232658760000012022162359586344348_" gradientTransform="matrix(1 0 0 -1 0 514)" gradientUnits="userSpaceOnUse" x1="220.819" x2="220.819" xlink:href="#lg2" y1="87.871" y2="111.083"/><linearGradient id="SVGID_00000027581920737056017680000014366789242561697697_" gradientTransform="matrix(1 0 0 -1 0 514)" gradientUnits="userSpaceOnUse" x1="193.365" x2="244.559" xlink:href="#lg1" y1="475.98" y2="446.15"/><linearGradient id="SVGID_00000095320246081984326350000003196659289977042617_" gradientTransform="matrix(1 0 0 -1 0 514)" gradientUnits="userSpaceOnUse" x1="225.205" x2="271.562" xlink:href="#lg2" y1="458.135" y2="464.988"/><linearGradient id="SVGID_00000076599822244925903140000001913825427915985853_" gradientTransform="matrix(1 0 0 -1 0 514)" gradientUnits="userSpaceOnUse" x1="217.329" x2="261.67" xlink:href="#lg2" y1="462.219" y2="435.614"/><linearGradient id="SVGID_00000145778495967087168400000006202866541960319884_" gradientTransform="matrix(1 0 0 -1 0 514)" gradientUnits="userSpaceOnUse" x1="220.819" x2="220.819" xlink:href="#lg2" y1="449.018" y2="396.46"/><linearGradient id="lg3"><stop offset="0" stop-color="#99e6fc"/><stop offset=".1325" stop-color="#8ee1fb"/><stop offset=".3627" stop-color="#71d5f9"/><stop offset=".6631" stop-color="#43c2f5"/><stop offset="1" stop-color="#08a9f1"/></linearGradient><linearGradient id="SVGID_00000112620547797409158160000009192249858783837590_" gradientTransform="matrix(1 0 0 -1 0 514)" gradientUnits="userSpaceOnUse" x1="212.868" x2="235.002" xlink:href="#lg3" y1="258" y2="258"/><linearGradient id="lg4"><stop offset="0" stop-color="#2740b0" stop-opacity="0"/><stop offset=".2505" stop-color="#263fae" stop-opacity=".023"/><stop offset=".4239" stop-color="#253dab" stop-opacity=".095"/><stop offset=".5741" stop-color="#233ba4" stop-opacity=".218"/><stop offset=".711" stop-color="#21379b" stop-opacity=".393"/><stop offset=".8389" stop-color="#1e3290" stop-opacity=".618"/><stop offset=".9585" stop-color="#1a2c82" stop-opacity=".89"/><stop offset="1" stop-color="#192a7d"/></linearGradient><linearGradient id="SVGID_00000170277784846227883990000015931576359829405838_" gradientTransform="matrix(1 0 0 -1 0 514)" gradientUnits="userSpaceOnUse" x1="247.001" x2="208.506" xlink:href="#lg4" y1="136.505" y2="172.861"/><linearGradient id="SVGID_00000084521902146864998190000006145560788558974645_" gradientTransform="matrix(1 0 0 -1 0 514)" gradientUnits="userSpaceOnUse" x1="312.821" x2="361.632" xlink:href="#lg1" y1="71.042" y2="16.926"/><linearGradient id="SVGID_00000117664057319350983230000017280650527874194588_" gradientTransform="matrix(1 0 0 -1 0 514)" gradientUnits="userSpaceOnUse" x1="330.104" x2="330.104" xlink:href="#lg2" y1="58.516" y2="-1.156"/><linearGradient id="SVGID_00000126324061060863685180000008122997602026305432_" gradientTransform="matrix(1 0 0 -1 0 514)" gradientUnits="userSpaceOnUse" x1="331.705" x2="379.675" xlink:href="#lg2" y1="57.929" y2="47.448"/><linearGradient id="SVGID_00000134228782482662482860000007696185924726955411_" gradientTransform="matrix(1 0 0 -1 0 514)" gradientUnits="userSpaceOnUse" x1="330.104" x2="330.104" xlink:href="#lg2" y1="87.871" y2="111.083"/><linearGradient id="SVGID_00000036938713122507984990000012362978012667056271_" gradientTransform="matrix(1 0 0 -1 0 514)" gradientUnits="userSpaceOnUse" x1="302.65" x2="353.845" xlink:href="#lg1" y1="475.98" y2="446.15"/><linearGradient id="SVGID_00000069368709703745705420000018364429524449930681_" gradientTransform="matrix(1 0 0 -1 0 514)" gradientUnits="userSpaceOnUse" x1="334.49" x2="380.848" xlink:href="#lg2" y1="458.135" y2="464.988"/><linearGradient id="SVGID_00000170997340961471960440000000265022795804714133_" gradientTransform="matrix(1 0 0 -1 0 514)" gradientUnits="userSpaceOnUse" x1="326.614" x2="370.956" xlink:href="#lg2" y1="462.219" y2="435.614"/><linearGradient id="SVGID_00000079480865138342366260000017881979224802327725_" gradientTransform="matrix(1 0 0 -1 0 514)" gradientUnits="userSpaceOnUse" x1="330.104" x2="330.104" xlink:href="#lg2" y1="449.018" y2="396.46"/><linearGradient id="SVGID_00000012445866802963808970000012822908400369001900_" gradientTransform="matrix(1 0 0 -1 0 514)" gradientUnits="userSpaceOnUse" x1="322.154" x2="344.287" xlink:href="#lg3" y1="258" y2="258"/><linearGradient id="SVGID_00000169552534396481969050000009344416101164985740_" gradientTransform="matrix(1 0 0 -1 0 514)" gradientUnits="userSpaceOnUse" x1="331.181" x2="291.261" xlink:href="#lg4" y1="214.819" y2="255.452"/><linearGradient id="SVGID_00000057865597371953135880000007581738157433493644_" gradientTransform="matrix(1 0 0 -1 0 514)" gradientUnits="userSpaceOnUse" x1="422.106" x2="470.917" xlink:href="#lg1" y1="71.042" y2="16.926"/><linearGradient id="SVGID_00000159440381721111193780000005150951809860556717_" gradientTransform="matrix(1 0 0 -1 0 514)" gradientUnits="userSpaceOnUse" x1="439.389" x2="439.389" xlink:href="#lg2" y1="58.516" y2="-1.156"/><linearGradient id="SVGID_00000127007016291297004000000003917189969301035916_" gradientTransform="matrix(1 0 0 -1 0 514)" gradientUnits="userSpaceOnUse" x1="440.99" x2="488.96" xlink:href="#lg2" y1="57.929" y2="47.448"/><linearGradient id="SVGID_00000109733889422250053670000003990971054087933093_" gradientTransform="matrix(1 0 0 -1 0 514)" gradientUnits="userSpaceOnUse" x1="439.389" x2="439.389" xlink:href="#lg2" y1="87.871" y2="111.083"/><linearGradient id="SVGID_00000178166327990638477350000017819423082327214505_" gradientTransform="matrix(1 0 0 -1 0 514)" gradientUnits="userSpaceOnUse" x1="411.936" x2="463.13" xlink:href="#lg1" y1="475.98" y2="446.15"/><linearGradient id="SVGID_00000176723967970840232790000005755099744813700543_" gradientTransform="matrix(1 0 0 -1 0 514)" gradientUnits="userSpaceOnUse" x1="443.776" x2="490.133" xlink:href="#lg2" y1="458.135" y2="464.988"/><linearGradient id="SVGID_00000163074871673171713310000014881876636487168142_" gradientTransform="matrix(1 0 0 -1 0 514)" gradientUnits="userSpaceOnUse" x1="435.899" x2="480.241" xlink:href="#lg2" y1="462.219" y2="435.614"/><linearGradient id="SVGID_00000129902074535036654050000017449138088294896564_" gradientTransform="matrix(1 0 0 -1 0 514)" gradientUnits="userSpaceOnUse" x1="439.389" x2="439.389" xlink:href="#lg2" y1="449.018" y2="396.46"/><linearGradient id="SVGID_00000018949340637424121620000013040608810061902508_" gradientTransform="matrix(1 0 0 -1 0 514)" gradientUnits="userSpaceOnUse" x1="431.439" x2="453.572" xlink:href="#lg3" y1="258" y2="258"/><linearGradient id="SVGID_00000111155292323495912320000000796405449131108741_" gradientTransform="matrix(.707 .707 .707 -.707 -459.457 171.781)" gradientUnits="userSpaceOnUse" x1="566.705" x2="615.516" xlink:href="#lg1" y1="191.109" y2="136.992"/><linearGradient id="SVGID_00000023969840571154025290000007664601036012217257_" gradientTransform="matrix(.707 .707 .707 -.707 -459.457 171.781)" gradientUnits="userSpaceOnUse" x1="583.988" x2="583.988" xlink:href="#lg2" y1="178.583" y2="118.911"/><linearGradient id="SVGID_00000024701737309749294060000010871673362722024853_" gradientTransform="matrix(.707 .707 .707 -.707 -459.457 171.781)" gradientUnits="userSpaceOnUse" x1="585.589" x2="633.559" xlink:href="#lg2" y1="177.995" y2="167.514"/><linearGradient id="SVGID_00000005989580732765684680000003418919368473566604_" gradientTransform="matrix(.707 .707 .707 -.707 -459.457 171.781)" gradientUnits="userSpaceOnUse" x1="583.988" x2="583.988" xlink:href="#lg2" y1="207.938" y2="231.15"/><linearGradient id="SVGID_00000150802314701792907460000008796404894217406397_" gradientTransform="matrix(.707 .707 .707 -.707 -459.457 171.781)" gradientUnits="userSpaceOnUse" x1="556.534" x2="607.729" xlink:href="#lg1" y1="596.046" y2="566.216"/><linearGradient id="SVGID_00000002359957288530427740000012100533720092161960_" gradientTransform="matrix(.707 .707 .707 -.707 -459.457 171.781)" gradientUnits="userSpaceOnUse" x1="588.375" x2="634.732" xlink:href="#lg2" y1="578.202" y2="585.055"/><linearGradient id="SVGID_00000164501680182209800580000016411770958070005924_" gradientTransform="matrix(.707 .707 .707 -.707 -459.457 171.781)" gradientUnits="userSpaceOnUse" x1="580.498" x2="624.84" xlink:href="#lg2" y1="582.285" y2="555.68"/><linearGradient id="SVGID_00000156546288712183362520000004138817284026099336_" gradientTransform="matrix(.707 .707 .707 -.707 -459.457 171.781)" gradientUnits="userSpaceOnUse" x1="583.988" x2="583.988" xlink:href="#lg2" y1="569.085" y2="516.526"/><linearGradient id="SVGID_00000124849920011493220590000009756024153530651322_" gradientTransform="matrix(.707 .707 .707 -.707 -459.457 171.781)" gradientUnits="userSpaceOnUse" x1="576.038" x2="598.171" xlink:href="#lg3" y1="378.066" y2="378.066"/><g><g><g><g><path d="m267.221 465.598c0 25.627-20.775 46.402-46.402 46.402s-46.402-20.775-46.402-46.402 31.26-67.033 46.402-67.033 46.402 41.405 46.402 67.033z" fill="url(#SVGID_1_)"/><path d="m174.416 465.598c0 25.627 20.775 46.402 46.402 46.402s46.402-20.775 46.402-46.402c0-8.561-3.499-18.882-8.71-28.833h-75.385c-5.21 9.951-8.709 20.271-8.709 28.833z" fill="url(#SVGID_00000051371785569951298000000002463013828547702684_)"/><path d="m220.819 398.564c-3.218 0-7.167 1.884-11.386 5.075v106.949c3.643.919 7.457 1.412 11.386 1.412 25.627 0 46.402-20.775 46.402-46.402s-31.26-67.034-46.402-67.034z" fill="url(#SVGID_00000148656446026676724670000007821532620970864308_)"/><path d="m220.819 398.56c-10.087 0-27.316 18.362-37.688 38.2h75.377c-10.374-19.838-27.603-38.2-37.689-38.2z" fill="url(#SVGID_00000131351656543232658760000012022162359586344348_)"/></g><g><path d="m267.221 46.402c0-25.627-20.775-46.402-46.402-46.402s-46.402 20.775-46.402 46.402 31.26 67.033 46.402 67.033 46.402-41.405 46.402-67.033z" fill="url(#SVGID_00000027581920737056017680000014366789242561697697_)"/><path d="m220.819 113.436c-3.218 0-7.167-1.884-11.386-5.075v-106.949c3.643-.919 7.456-1.412 11.386-1.412 25.627 0 46.402 20.775 46.402 46.402s-31.26 67.034-46.402 67.034z" fill="url(#SVGID_00000095320246081984326350000003196659289977042617_)"/><path d="m220.819 113.436c-3.218 0-7.167-1.884-11.386-5.075v-106.949c3.643-.919 7.456-1.412 11.386-1.412 25.627 0 46.402 20.775 46.402 46.402s-31.26 67.034-46.402 67.034z" fill="url(#SVGID_00000076599822244925903140000001913825427915985853_)"/><path d="m175.406 54.904c5.392 25.342 31.855 58.532 45.413 58.532s40.021-33.19 45.413-58.532z" fill="url(#SVGID_00000145778495967087168400000006202866541960319884_)"/></g><path d="m208.431 104.98h24.775c1.794 0 3.249 1.455 3.249 3.249v295.542c0 1.794-1.455 3.249-3.249 3.249h-24.775c-1.794 0-3.249-1.455-3.249-3.249v-295.542c0-1.794 1.455-3.249 3.249-3.249z" fill="url(#SVGID_00000112620547797409158160000009192249858783837590_)"/><path d="m236.454 300.36v103.41c0 1.8-1.45 3.25-3.25 3.25h-24.77c-1.8 0-3.25-1.45-3.25-3.25v-72.14z" fill="url(#SVGID_00000170277784846227883990000015931576359829405838_)"/></g><g><g><path d="m376.506 465.598c0 25.627-20.775 46.402-46.402 46.402s-46.402-20.775-46.402-46.402 31.26-67.033 46.402-67.033 46.402 41.405 46.402 67.033z" fill="url(#SVGID_00000084521902146864998190000006145560788558974645_)"/><path d="m283.702 465.598c0 25.627 20.775 46.402 46.402 46.402s46.402-20.775 46.402-46.402c0-8.561-3.499-18.882-8.71-28.833h-75.385c-5.211 9.951-8.709 20.271-8.709 28.833z" fill="url(#SVGID_00000117664057319350983230000017280650527874194588_)"/><path d="m330.104 398.564c-3.218 0-7.167 1.884-11.386 5.075v106.949c3.643.919 7.457 1.412 11.386 1.412 25.627 0 46.402-20.775 46.402-46.402s-31.26-67.034-46.402-67.034z" fill="url(#SVGID_00000126324061060863685180000008122997602026305432_)"/><path d="m330.104 398.56c-10.087 0-27.316 18.362-37.688 38.2h75.377c-10.373-19.838-27.602-38.2-37.689-38.2z" fill="url(#SVGID_00000134228782482662482860000007696185924726955411_)"/></g><g><path d="m376.506 46.402c0-25.627-20.775-46.402-46.402-46.402s-46.402 20.775-46.402 46.402 31.26 67.033 46.402 67.033 46.402-41.405 46.402-67.033z" fill="url(#SVGID_00000036938713122507984990000012362978012667056271_)"/><path d="m330.104 113.436c-3.218 0-7.167-1.884-11.386-5.075v-106.949c3.644-.919 7.457-1.412 11.386-1.412 25.627 0 46.402 20.775 46.402 46.402s-31.26 67.034-46.402 67.034z" fill="url(#SVGID_00000069368709703745705420000018364429524449930681_)"/><path d="m330.104 113.436c-3.218 0-7.167-1.884-11.386-5.075v-106.949c3.644-.919 7.457-1.412 11.386-1.412 25.627 0 46.402 20.775 46.402 46.402s-31.26 67.034-46.402 67.034z" fill="url(#SVGID_00000170997340961471960440000000265022795804714133_)"/><path d="m284.691 54.904c5.392 25.342 31.855 58.532 45.413 58.532s40.021-33.19 45.413-58.532z" fill="url(#SVGID_00000079480865138342366260000017881979224802327725_)"/></g><path d="m317.716 104.98h24.775c1.794 0 3.249 1.455 3.249 3.249v295.542c0 1.794-1.455 3.249-3.249 3.249h-24.775c-1.794 0-3.249-1.455-3.249-3.249v-295.542c0-1.794 1.455-3.249 3.249-3.249z" fill="url(#SVGID_00000012445866802963808970000012822908400369001900_)"/><path d="m345.744 191.07v212.7c0 1.8-1.46 3.25-3.25 3.25h-24.78c-1.79 0-3.25-1.45-3.25-3.25v-181.42z" fill="url(#SVGID_00000169552534396481969050000009344416101164985740_)"/></g><g><g><path d="m485.792 465.598c0 25.627-20.775 46.402-46.402 46.402s-46.402-20.775-46.402-46.402 31.26-67.033 46.402-67.033 46.402 41.405 46.402 67.033z" fill="url(#SVGID_00000057865597371953135880000007581738157433493644_)"/><path d="m392.987 465.598c0 25.627 20.775 46.402 46.402 46.402s46.402-20.775 46.402-46.402c0-8.561-3.499-18.882-8.71-28.833h-75.385c-5.21 9.951-8.709 20.271-8.709 28.833z" fill="url(#SVGID_00000159440381721111193780000005150951809860556717_)"/><path d="m439.389 398.564c-3.218 0-7.167 1.884-11.386 5.075v106.949c3.643.919 7.457 1.412 11.386 1.412 25.627 0 46.402-20.775 46.402-46.402s-31.26-67.034-46.402-67.034z" fill="url(#SVGID_00000127007016291297004000000003917189969301035916_)"/><path d="m439.389 398.56c-10.087 0-27.316 18.362-37.688 38.2h75.377c-10.373-19.838-27.602-38.2-37.689-38.2z" fill="url(#SVGID_00000109733889422250053670000003990971054087933093_)"/></g><g><path d="m485.792 46.402c0-25.627-20.775-46.402-46.403-46.402s-46.402 20.775-46.402 46.402 31.26 67.033 46.402 67.033 46.403-41.405 46.403-67.033z" fill="url(#SVGID_00000178166327990638477350000017819423082327214505_)"/><path d="m439.389 113.436c-3.218 0-7.167-1.884-11.386-5.075v-106.949c3.644-.919 7.457-1.412 11.386-1.412 25.627 0 46.402 20.775 46.402 46.402s-31.26 67.034-46.402 67.034z" fill="url(#SVGID_00000176723967970840232790000005755099744813700543_)"/><path d="m439.389 113.436c-3.218 0-7.167-1.884-11.386-5.075v-106.949c3.644-.919 7.457-1.412 11.386-1.412 25.627 0 46.402 20.775 46.402 46.402s-31.26 67.034-46.402 67.034z" fill="url(#SVGID_00000163074871673171713310000014881876636487168142_)"/><path d="m393.976 54.904c5.392 25.342 31.855 58.532 45.413 58.532s40.021-33.19 45.413-58.532z" fill="url(#SVGID_00000129902074535036654050000017449138088294896564_)"/></g><path d="m427.002 104.98h24.775c1.794 0 3.249 1.455 3.249 3.249v295.542c0 1.794-1.455 3.249-3.249 3.249h-24.775c-1.794 0-3.249-1.455-3.249-3.249v-295.542c0-1.794 1.454-3.249 3.249-3.249z" fill="url(#SVGID_00000018949340637424121620000013040608810061902508_)"/></g></g><g><g><path d="m105.422 498.409c-18.121 18.121-47.502 18.121-65.623 0s-18.121-47.502 0-65.623 69.504-25.296 80.211-14.588c10.707 10.707 3.533 62.09-14.588 80.211z" fill="url(#SVGID_00000111155292323495912320000000796405449131108741_)"/><path d="m39.799 432.786c-18.121 18.121-18.121 47.502 0 65.623s47.502 18.121 65.623 0c6.054-6.054 10.878-15.826 14.229-26.547l-53.305-53.305c-10.721 3.351-20.493 8.175-26.547 14.229z" fill="url(#SVGID_00000023969840571154025290000007664601036012217257_)"/><path d="m120.01 418.198c-2.275-2.275-6.4-3.736-11.64-4.462l-75.623 75.624c1.926 3.226 4.274 6.271 7.052 9.05 18.121 18.121 47.502 18.121 65.623 0 18.121-18.122 25.295-69.505 14.588-80.212z" fill="url(#SVGID_00000024701737309749294060000010871673362722024853_)"/><path d="m120.013 418.195c-7.132-7.132-32.299-6.331-53.661.362l53.299 53.299c6.694-21.362 7.495-46.529.362-53.661z" fill="url(#SVGID_00000005989580732765684680000003418919368473566604_)"/></g><g><path d="m401.838 201.993c18.121-18.121 18.121-47.502 0-65.623s-47.502-18.121-65.623 0-25.296 69.504-14.588 80.211c10.707 10.708 62.09 3.533 80.211-14.588z" fill="url(#SVGID_00000150802314701792907460000008796404894217406397_)"/><path d="m321.627 216.582c-2.275-2.275-3.736-6.4-4.462-11.64l75.624-75.624c3.226 1.926 6.271 4.274 9.05 7.052 18.121 18.121 18.121 47.502 0 65.623s-69.505 25.296-80.212 14.589z" fill="url(#SVGID_00000002359957288530427740000012100533720092161960_)"/><path d="m321.627 216.582c-2.275-2.275-3.736-6.4-4.462-11.64l75.624-75.624c3.226 1.926 6.271 4.274 9.05 7.052 18.121 18.121 18.121 47.502 0 65.623s-69.505 25.296-80.212 14.589z" fill="url(#SVGID_00000164501680182209800580000016411770958070005924_)"/><path d="m330.903 143.082c-14.107 21.732-18.863 63.913-9.276 73.5s51.768 4.83 73.5-9.276z" fill="url(#SVGID_00000156546288712183362520000004138817284026099336_)"/></g><path d="m318.846 201.843 17.519 17.519c1.269 1.269 1.269 3.326 0 4.595l-208.979 208.979c-1.269 1.269-3.326 1.269-4.595 0l-17.519-17.519c-1.269-1.269-1.269-3.326 0-4.595l208.979-208.979c1.269-1.269 3.326-1.269 4.595 0z" fill="url(#SVGID_00000124849920011493220590000009756024153530651322_)"/></g></g></svg>