<svg id="_44_Online_Shop" enable-background="new 0 0 512 512" viewBox="0 0 512 512" xmlns="http://www.w3.org/2000/svg" xmlns:xlink="http://www.w3.org/1999/xlink"><linearGradient id="lg1"><stop offset="0" stop-color="#7a6d79"/><stop offset="1" stop-color="#593636"/></linearGradient><linearGradient id="SVGID_1_" gradientTransform="matrix(0 1 -1 0 -340.48 275.474)" gradientUnits="userSpaceOnUse" x1="-143.68" x2="134.619" xlink:href="#lg1" y1="-453.436" y2="-773.941"/><linearGradient id="lg2"><stop offset="0" stop-color="#593636" stop-opacity="0"/><stop offset="1"/></linearGradient><linearGradient id="SVGID_00000045608390876677766740000009485456139532602767_" gradientTransform="matrix(0 1 -1 0 -340.479 275.475)" gradientUnits="userSpaceOnUse" x1="-19.475" x2="-19.475" xlink:href="#lg2" y1="-705.556" y2="-767.276"/><linearGradient id="SVGID_00000056411529744804877010000015108909476809841825_" gradientTransform="matrix(1 0 0 -1 0 514)" gradientUnits="userSpaceOnUse" x1="256" x2="256" xlink:href="#lg1" y1="17.852" y2="49.931"/><linearGradient id="SVGID_00000131337915079669336200000002540195594865389225_" gradientTransform="matrix(0 1 -1 0 -340.479 275.475)" gradientUnits="userSpaceOnUse" x1="180.056" x2="240.243" xlink:href="#lg2" y1="-596.48" y2="-596.48"/><linearGradient id="SVGID_00000016776212670664640150000005421022993191388340_" gradientTransform="matrix(1 0 0 -1 0 514)" gradientUnits="userSpaceOnUse" x1="127.881" x2="461.505" y1="342.124" y2="168.897"><stop offset="0" stop-color="#99e6fc"/><stop offset=".1325" stop-color="#8ee1fb"/><stop offset=".3627" stop-color="#71d5f9"/><stop offset=".6631" stop-color="#43c2f5"/><stop offset="1" stop-color="#08a9f1"/></linearGradient><linearGradient id="lg3"><stop offset="0" stop-color="#2740b0" stop-opacity="0"/><stop offset=".2505" stop-color="#263fae" stop-opacity=".023"/><stop offset=".4239" stop-color="#253dab" stop-opacity=".095"/><stop offset=".5741" stop-color="#233ba4" stop-opacity=".218"/><stop offset=".711" stop-color="#21379b" stop-opacity=".393"/><stop offset=".8389" stop-color="#1e3290" stop-opacity=".618"/><stop offset=".9585" stop-color="#1a2c82" stop-opacity=".89"/><stop offset="1" stop-color="#192a7d"/></linearGradient><linearGradient id="SVGID_00000120531370840148074650000015425035746687785367_" gradientTransform="matrix(1 0 0 -1 0 514)" gradientUnits="userSpaceOnUse" x1="155.535" x2="93.515" xlink:href="#lg3" y1="275.601" y2="275.601"/><linearGradient id="SVGID_00000011735617232865433160000008055077934494426788_" gradientTransform="matrix(1 0 0 -1 0 514)" gradientUnits="userSpaceOnUse" x1="256" x2="256" xlink:href="#lg3" y1="463.04" y2="503.673"/><linearGradient id="lg4"><stop offset="0" stop-color="#fff" stop-opacity="0"/><stop offset=".0925" stop-color="#fff" stop-opacity=".024"/><stop offset=".2178" stop-color="#fff" stop-opacity=".092"/><stop offset=".3619" stop-color="#fff" stop-opacity=".203"/><stop offset=".52" stop-color="#fff" stop-opacity=".359"/><stop offset=".6897" stop-color="#fff" stop-opacity=".559"/><stop offset=".8661" stop-color="#fff" stop-opacity=".798"/><stop offset="1" stop-color="#fff"/></linearGradient><linearGradient id="SVGID_00000134234675192823279660000006708193429101811369_" gradientTransform="matrix(1 0 0 -1 0 514)" gradientUnits="userSpaceOnUse" x1="24.453" x2="499.056" xlink:href="#lg4" y1="563.21" y2="88.607"/><linearGradient id="SVGID_00000105405360683438257000000010184168788966593163_" gradientTransform="matrix(1 0 0 -1 0 514)" gradientUnits="userSpaceOnUse" x1="256" x2="256" xlink:href="#lg4" y1="247.668" y2="226.644"/><linearGradient id="SVGID_00000118354676544490401420000000740228446529288338_" gradientTransform="matrix(1 0 0 -1 0 514)" gradientUnits="userSpaceOnUse" x1="344.911" x2="363.159" xlink:href="#lg4" y1="331.663" y2="331.663"/><linearGradient id="SVGID_00000018943007721323561610000006280093843401950356_" gradientTransform="matrix(.707 .707 .707 -.707 -3632.075 442.396)" gradientUnits="userSpaceOnUse" x1="2602.999" x2="2602.999" y1="2947.478" y2="2910.131"><stop offset="0" stop-color="#fef0ae"/><stop offset="1" stop-color="#fac600"/></linearGradient><linearGradient id="lg5"><stop offset="0" stop-color="#fe9738" stop-opacity="0"/><stop offset=".1648" stop-color="#fe9637" stop-opacity=".012"/><stop offset=".2957" stop-color="#fe9535" stop-opacity=".052"/><stop offset=".415" stop-color="#fe9331" stop-opacity=".118"/><stop offset=".5274" stop-color="#fe902c" stop-opacity=".211"/><stop offset=".635" stop-color="#fe8c25" stop-opacity=".331"/><stop offset=".739" stop-color="#fe871d" stop-opacity=".479"/><stop offset=".8401" stop-color="#fe8213" stop-opacity=".655"/><stop offset=".9364" stop-color="#fe7b09" stop-opacity=".852"/><stop offset="1" stop-color="#fe7701"/></linearGradient><linearGradient id="SVGID_00000122680441430425320950000003870860880023381650_" gradientTransform="matrix(.707 .707 .707 -.707 -3632.075 442.396)" gradientUnits="userSpaceOnUse" x1="2602.999" x2="2602.999" xlink:href="#lg5" y1="2942.043" y2="2889.182"/><linearGradient id="SVGID_00000066479501902348390940000003560375004728053176_" gradientTransform="matrix(.707 .707 .707 -.707 -3632.075 442.396)" gradientUnits="userSpaceOnUse" x1="2521.575" x2="2521.575" y1="2947.478" y2="2910.131"><stop offset="0" stop-color="#fe646f"/><stop offset=".235" stop-color="#fa5964"/><stop offset=".6415" stop-color="#ef3d49"/><stop offset="1" stop-color="#e41f2d"/></linearGradient><linearGradient id="SVGID_00000132080908858752552150000005245811821860275642_" gradientTransform="matrix(.707 .707 .707 -.707 -3632.075 442.396)" gradientUnits="userSpaceOnUse" x1="2521.575" x2="2521.575" y1="2944.113" y2="2886.163"><stop offset="0" stop-color="#a72b2b" stop-opacity="0"/><stop offset=".1561" stop-color="#a32b2a" stop-opacity=".066"/><stop offset=".386" stop-color="#982c29" stop-opacity=".248"/><stop offset=".6615" stop-color="#872f28" stop-opacity=".545"/><stop offset=".97" stop-color="#6f3226" stop-opacity=".956"/><stop offset="1" stop-color="#6d3326"/></linearGradient><linearGradient id="SVGID_00000111188856177588538250000017310574773794660499_" gradientTransform="matrix(.707 .707 .707 -.707 -3632.075 442.396)" gradientUnits="userSpaceOnUse" x1="2611.636" x2="2631.835" xlink:href="#lg5" y1="2924.489" y2="2896.144"/><linearGradient id="SVGID_00000181786036197385370840000016573968112058260364_" gradientTransform="matrix(.707 .707 .707 -.707 -3632.075 442.396)" gradientUnits="userSpaceOnUse" x1="2601.473" x2="2653.275" xlink:href="#lg5" y1="2932.026" y2="2914.921"/><linearGradient id="SVGID_00000127027109147464237860000012700449058194908583_" gradientTransform="matrix(.707 .707 .707 -.707 -3632.075 442.396)" gradientUnits="userSpaceOnUse" x1="2613.838" x2="2627.419" y1="2907.973" y2="2882.469"><stop offset="0" stop-color="#fac600" stop-opacity="0"/><stop offset=".1175" stop-color="#fac602" stop-opacity=".017"/><stop offset=".2423" stop-color="#fac80b" stop-opacity=".067"/><stop offset=".3705" stop-color="#facc1a" stop-opacity=".151"/><stop offset=".5011" stop-color="#fbd12e" stop-opacity=".268"/><stop offset=".6336" stop-color="#fbd748" stop-opacity=".419"/><stop offset=".7676" stop-color="#fcdf69" stop-opacity=".604"/><stop offset=".9003" stop-color="#fde88e" stop-opacity=".819"/><stop offset="1" stop-color="#fef0ae"/></linearGradient><linearGradient id="SVGID_00000083069712780714541740000010320645869481095061_" gradientTransform="matrix(1 0 0 -1 0 514)" gradientUnits="userSpaceOnUse" x1="266.667" x2="267.736" xlink:href="#lg3" y1="238.711" y2="80.989"/><linearGradient id="SVGID_00000085960701405441574450000002144648534241278906_" gradientTransform="matrix(1 0 0 -1 0 514)" gradientUnits="userSpaceOnUse" x1="293.15" x2="294.256" xlink:href="#lg3" y1="270.694" y2="107.549"/><linearGradient id="SVGID_00000001661003339142114160000006864251420679053203_" gradientTransform="matrix(1 0 0 -1 0 514)" gradientUnits="userSpaceOnUse" x1="264.316" x2="267.296" xlink:href="#lg4" y1="523.471" y2="83.972"/><linearGradient id="SVGID_00000090267333038724439620000015545762803322494638_" gradientTransform="matrix(1 0 0 -1 0 514)" gradientUnits="userSpaceOnUse" x1="13.173" x2="229.13" xlink:href="#lg3" y1="301.751" y2="107.608"/><linearGradient id="SVGID_00000088816345143194646820000001449094918821440664_" gradientTransform="matrix(1 0 0 -1 0 514)" gradientUnits="userSpaceOnUse" x1="175.944" x2="271.944" xlink:href="#lg2" y1="528.733" y2="428.931"/><linearGradient id="SVGID_00000067230307595919771270000008646888067140300675_" gradientTransform="matrix(1 0 0 -1 0 514)" gradientUnits="userSpaceOnUse" x1="163.791" x2="374.287" xlink:href="#lg2" y1="588.808" y2="369.976"/><g><g><path d="m422.592 33.331v445.339c0 18.408-14.923 33.331-33.331 33.331h-266.523c-18.408 0-33.331-14.923-33.331-33.331v-445.339c.001-18.408 14.923-33.331 33.331-33.331h266.523c18.408 0 33.331 14.923 33.331 33.331z" fill="url(#SVGID_1_)"/><path d="m244.699 0h144.563c18.408 0 33.331 14.923 33.331 33.331v445.339c0 18.408-14.923 33.331-33.331 33.331h-144.563z" fill="url(#SVGID_00000045608390876677766740000009485456139532602767_)"/><path d="m236.448 461.931h39.103c9.843 0 17.822 7.979 17.822 17.822 0 9.843-7.979 17.822-17.822 17.822h-39.103c-9.843 0-17.822-7.979-17.822-17.822.001-9.843 7.98-17.822 17.822-17.822z" fill="url(#SVGID_00000056411529744804877010000015108909476809841825_)"/><path d="m89.408 478.669v-222.669h333.185v222.669c0 18.408-14.923 33.331-33.331 33.331h-266.523c-18.408 0-33.331-14.923-33.331-33.331z" fill="url(#SVGID_00000131337915079669336200000002540195594865389225_)"/></g><path d="m308.932 43.138c0 9.786-7.933 17.718-17.718 17.718h-70.428c-9.786 0-17.718-7.933-17.718-17.718 0-9.786-7.933-17.718-17.718-17.718h-47.258c-9.786 0-17.718 7.933-17.718 17.718v390.522c0 9.786 7.933 17.718 17.718 17.718h235.817c9.786 0 17.718-7.933 17.718-17.718v-390.522c0-9.786-7.933-17.718-17.718-17.718h-47.258c-9.786 0-17.718 7.932-17.719 17.718z" fill="url(#SVGID_00000016776212670664640150000005421022993191388340_)"/><path d="m267.514 60.856h-46.728c-9.786 0-17.718-7.933-17.718-17.718 0-9.785-7.933-17.718-17.718-17.718h-47.258c-9.786 0-17.718 7.933-17.718 17.718v390.522c0 9.786 7.933 17.718 17.718 17.718h129.423v-390.522z" fill="url(#SVGID_00000120531370840148074650000015425035746687785367_)"/><path d="m373.909 25.419h-47.258c-9.786 0-17.718 7.933-17.718 17.718 0 9.786-7.933 17.718-17.718 17.718h-70.428c-9.786 0-17.718-7.933-17.718-17.718 0-9.785-7.933-17.718-17.718-17.718h-47.258c-9.786 0-17.718 7.933-17.718 17.718v139.199h271.254v-139.198c-.002-9.786-7.935-17.719-17.72-17.719z" fill="url(#SVGID_00000011735617232865433160000008055077934494426788_)"/><g><g opacity=".7"><path d="m173.568 79.003h164.864c11.544 0 20.902 9.358 20.902 20.902v164.864c0 11.544-9.358 20.902-20.902 20.902h-164.864c-11.544 0-20.902-9.358-20.902-20.902v-164.864c0-11.544 9.358-20.902 20.902-20.902z" fill="url(#SVGID_00000134234675192823279660000006708193429101811369_)"/><path d="m152.666 170.876v93.892c0 11.544 9.358 20.902 20.902 20.902h164.864c11.544 0 20.902-9.358 20.902-20.902v-93.892z" fill="url(#SVGID_00000105405360683438257000000010184168788966593163_)"/><path d="m338.432 79.003h-101.635v206.668h101.635c11.544 0 20.902-9.358 20.902-20.902v-164.864c0-11.544-9.358-20.902-20.902-20.902z" fill="url(#SVGID_00000118354676544490401420000000740228446529288338_)"/></g><g><path d="m317.97 244.307c-8.228 8.228-19.012 12.342-29.793 12.342s-21.565-4.114-29.793-12.342l-32.178-32.178 21.003-38.583 38.583-21.003 32.178 32.178c16.456 16.456 16.456 43.131 0 59.586z" fill="url(#SVGID_00000018943007721323561610000006280093843401950356_)"/><path d="m317.97 244.307c-8.228 8.228-19.012 12.342-29.793 12.342s-21.565-4.114-29.793-12.342l-32.178-32.178 21.003-38.583 11.757-6.399 66.672 66.672c-1.948 3.779-4.501 7.321-7.668 10.488z" fill="url(#SVGID_00000122680441430425320950000003870860880023381650_)"/><path d="m285.793 152.544-59.585 59.585-32.178-32.178c-16.456-16.456-16.456-43.13 0-59.585 8.228-8.228 19.012-12.342 29.793-12.342s21.565 4.114 29.793 12.342z" fill="url(#SVGID_00000066479501902348390940000003560375004728053176_)"/><path d="m265.078 173.259-38.87 38.87-32.178-32.178c-16.456-16.456-16.456-43.13 0-59.585 3.167-3.167 6.712-5.723 10.487-7.669z" fill="url(#SVGID_00000132080908858752552150000005245811821860275642_)"/><path d="m317.97 184.722-23.07-23.07-59.585 59.585 23.07 23.07c8.228 8.228 19.012 12.342 29.793 12.342s21.565-4.114 29.793-12.342c16.455-16.455 16.455-43.13-.001-59.585z" fill="url(#SVGID_00000111188856177588538250000017310574773794660499_)"/><path d="m317.97 184.722-23.07-23.07-59.585 59.585 23.07 23.07c8.228 8.228 19.012 12.342 29.793 12.342s21.565-4.114 29.793-12.342c16.455-16.455 16.455-43.13-.001-59.585z" fill="url(#SVGID_00000181786036197385370840000016573968112058260364_)"/><path d="m317.972 244.306c-8.228 8.228-19.012 12.342-29.793 12.342s-21.565-4.114-29.793-12.342l-32.178-32.178 38.87-38.87 60.561 60.561c-1.947 3.778-4.5 7.32-7.667 10.487z" fill="url(#SVGID_00000127027109147464237860000012700449058194908583_)"/></g></g><g><g><path d="m229.717 395.249h75.593c2.746 0 4.973 2.226 4.973 4.973 0 2.746-2.226 4.973-4.973 4.973h-75.593c-2.746 0-4.973-2.226-4.973-4.973.001-2.747 2.227-4.973 4.973-4.973z" fill="url(#SVGID_00000083069712780714541740000010320645869481095061_)"/><path d="m229.717 367.561h128.618c2.746 0 4.973 2.226 4.973 4.973 0 2.746-2.226 4.973-4.973 4.973h-128.618c-2.746 0-4.973-2.226-4.973-4.973.001-2.747 2.227-4.973 4.973-4.973z" fill="url(#SVGID_00000085960701405441574450000002144648534241278906_)"/><path d="m230.747 324.33h71.859c3.315 0 6.002 2.687 6.002 6.002v16.65c0 3.315-2.687 6.002-6.002 6.002h-71.859c-3.315 0-6.002-2.687-6.002-6.002v-16.65c0-3.315 2.687-6.002 6.002-6.002z" fill="url(#SVGID_00000001661003339142114160000006864251420679053203_)"/></g><path d="m177.939 412.791c-4.024 0-7.805-.514-11.338-1.546-3.534-1.032-6.64-2.355-9.323-3.968s-4.785-3.454-6.305-5.518c-1.522-2.062-2.281-4.172-2.281-6.323 0-1.165.245-2.401.739-3.699.49-1.301 1.14-2.512 1.944-3.632.805-1.124 1.765-2.064 2.885-2.827 1.118-.763 2.301-1.146 3.556-1.146 1.428 0 2.817.426 4.158 1.277 1.343.851 2.771 1.815 4.293 2.891 1.52 1.076 3.219 2.152 5.098 3.223 1.879 1.076 4.07 1.837 6.574 2.287v-21.751c-3.132-1.163-6.285-2.458-9.459-3.893-3.176-1.432-6.036-3.176-8.586-5.235-2.548-2.058-4.652-4.586-6.305-7.584-1.656-2.998-2.482-6.644-2.482-10.939s.739-8.033 2.215-11.208c1.474-3.178 3.441-5.861 5.903-8.056 2.458-2.191 5.299-3.937 8.519-5.233s6.618-2.215 10.196-2.751v-3.767c0-.986.47-1.839 1.408-2.556s2.167-1.078 3.69-1.078c1.251 0 2.415.365 3.488 1.086 1.074.725 1.61 1.582 1.61 2.574v3.391c2.056 0 4.47.179 7.246.538 2.771.363 5.387.968 7.847 1.817 2.458.855 4.562 2.022 6.305 3.502 1.745 1.482 2.616 3.391 2.616 5.722 0 .898-.157 1.976-.468 3.233-.315 1.257-.805 2.468-1.476 3.636s-1.544 2.154-2.616 2.96c-1.074.809-2.327 1.211-3.757 1.211-1.074 0-2.102-.221-3.086-.669-.984-.446-2.034-.96-3.152-1.542-1.12-.582-2.438-1.142-3.958-1.677-1.522-.538-3.355-.892-5.5-1.074v19.617c3.04 1.163 6.126 2.46 9.258 3.893 3.13 1.43 5.969 3.265 8.519 5.502 2.548 2.235 4.628 4.921 6.238 8.052s2.417 6.977 2.417 11.539c0 4.204-.651 7.965-1.946 11.274-1.297 3.309-3.108 6.194-5.433 8.656-2.327 2.458-5.098 4.472-8.319 6.038-3.219 1.566-6.797 2.662-10.732 3.287v3.855c0 .974-.536 1.817-1.61 2.528-1.074.707-2.237 1.062-3.488 1.062-1.522 0-2.751-.359-3.69-1.072-.938-.717-1.408-1.566-1.408-2.55v-3.357zm-7.245-70.396c0 1.968.783 3.606 2.349 4.905 1.564 1.299 3.644 2.486 6.238 3.562v-15.995c-3.04.628-5.231 1.636-6.572 3.024-1.344 1.388-2.015 2.888-2.015 4.504zm24.283 42.82c0-2.239-.759-4.096-2.279-5.574-1.522-1.474-3.488-2.795-5.903-3.96v17.993c2.325-.536 4.269-1.474 5.835-2.819 1.564-1.341 2.347-3.222 2.347-5.64z" fill="url(#SVGID_00000090267333038724439620000015545762803322494638_)"/></g><g><circle cx="224.395" cy="35.636" fill="url(#SVGID_00000088816345143194646820000001449094918821440664_)" r="10.217"/><path d="m252.451 25.419h35.154c5.643 0 10.217 4.574 10.217 10.217 0 5.643-4.574 10.217-10.217 10.217h-35.154c-5.643 0-10.217-4.574-10.217-10.217 0-5.642 4.574-10.217 10.217-10.217z" fill="url(#SVGID_00000067230307595919771270000008646888067140300675_)"/></g></g></svg>