<svg id="_45_Location" enable-background="new 0 0 512 512" viewBox="0 0 512 512" xmlns="http://www.w3.org/2000/svg" xmlns:xlink="http://www.w3.org/1999/xlink"><linearGradient id="SVGID_1_" gradientTransform="matrix(1 0 0 -1 0 514)" gradientUnits="userSpaceOnUse" x1="211.897" x2="327.554" y1="58.057" y2="58.057"><stop offset="0" stop-color="#c1e9af"/><stop offset=".1072" stop-color="#b6e4aa"/><stop offset=".2935" stop-color="#99d69e"/><stop offset=".5365" stop-color="#6bc18a"/><stop offset=".8238" stop-color="#2ca36f"/><stop offset="1" stop-color="#02905d"/></linearGradient><linearGradient id="lg1"><stop offset="0" stop-color="#026841" stop-opacity="0"/><stop offset=".2182" stop-color="#026841" stop-opacity=".033"/><stop offset=".4099" stop-color="#026841" stop-opacity=".137"/><stop offset=".5916" stop-color="#026841" stop-opacity=".31"/><stop offset=".7671" stop-color="#026841" stop-opacity=".553"/><stop offset=".9367" stop-color="#026841" stop-opacity=".864"/><stop offset="1" stop-color="#026841"/></linearGradient><linearGradient id="SVGID_00000126281081263765094910000002207921563773305488_" gradientTransform="matrix(1 0 0 -1 0 514)" gradientUnits="userSpaceOnUse" x1="256" x2="256" xlink:href="#lg1" y1="32.419" y2="-7.763"/><linearGradient id="SVGID_00000101812162299579535520000014590683635885519807_" gradientTransform="matrix(1 0 0 -1 0 514)" gradientUnits="userSpaceOnUse" x1="305.842" x2="332.575" xlink:href="#lg1" y1="50.799" y2="72.185"/><linearGradient id="SVGID_00000074418225812194143460000006815430790365277353_" gradientTransform="matrix(1 0 0 -1 0 514)" gradientUnits="userSpaceOnUse" x1="303.064" x2="292.846" xlink:href="#lg1" y1="81.447" y2="122.556"/><linearGradient id="lg2"><stop offset="0" stop-color="#fe646f"/><stop offset=".235" stop-color="#fa5964"/><stop offset=".6415" stop-color="#ef3d49"/><stop offset="1" stop-color="#e41f2d"/></linearGradient><linearGradient id="SVGID_00000009564941230296458740000015379481345180205445_" gradientTransform="matrix(1 0 0 -1 0 514)" gradientUnits="userSpaceOnUse" x1="165.434" x2="362.934" xlink:href="#lg2" y1="369.958" y2="251.458"/><linearGradient id="SVGID_00000057858688962718813310000007218182492799572132_" gradientTransform="matrix(1 0 0 -1 0 514)" gradientUnits="userSpaceOnUse" x1="337.708" x2="167.204" xlink:href="#lg2" y1="259.034" y2="429.538"/><linearGradient id="lg3"><stop offset="0" stop-color="#a72b2b" stop-opacity="0"/><stop offset=".1561" stop-color="#a32b2a" stop-opacity=".066"/><stop offset=".386" stop-color="#982c29" stop-opacity=".248"/><stop offset=".6615" stop-color="#872f28" stop-opacity=".545"/><stop offset=".97" stop-color="#6f3226" stop-opacity=".956"/><stop offset="1" stop-color="#6d3326"/></linearGradient><linearGradient id="SVGID_00000082328228117655578840000011076369596248223913_" gradientTransform="matrix(1 0 0 -1 0 514)" gradientUnits="userSpaceOnUse" x1="224.65" x2="397.842" xlink:href="#lg3" y1="314.912" y2="272.374"/><linearGradient id="SVGID_00000140011969409221648800000002374347830976626874_" gradientTransform="matrix(1 0 0 -1 0 514)" gradientUnits="userSpaceOnUse" x1="256" x2="256" xlink:href="#lg3" y1="280.862" y2="91.281"/><linearGradient id="SVGID_00000059278741564115199010000015711053338693584543_" gradientTransform="matrix(1 0 0 -1 0 514)" gradientUnits="userSpaceOnUse" x1="190.398" x2="326.453" y1="406.344" y2="270.289"><stop offset="0" stop-color="#f3faff"/><stop offset="1" stop-color="#d5daf3"/></linearGradient><linearGradient id="SVGID_00000169531285331403867540000015809025752540172188_" gradientTransform="matrix(1 0 0 -1 0 514)" gradientUnits="userSpaceOnUse" x1="228.151" x2="284.874" xlink:href="#lg2" y1="367.54" y2="312.957"/><linearGradient id="lg4"><stop offset="0" stop-color="#dbd5ef" stop-opacity="0"/><stop offset=".2667" stop-color="#d8d2ec" stop-opacity=".023"/><stop offset=".4431" stop-color="#d1c9e2" stop-opacity=".098"/><stop offset=".5933" stop-color="#c4b9d1" stop-opacity=".225"/><stop offset=".7288" stop-color="#b2a4ba" stop-opacity=".405"/><stop offset=".8545" stop-color="#9a889c" stop-opacity=".638"/><stop offset=".9713" stop-color="#7e6678" stop-opacity=".92"/><stop offset="1" stop-color="#765d6e"/></linearGradient><linearGradient id="SVGID_00000065776281845881953030000003120419494333728650_" gradientTransform="matrix(1 0 0 -1 0 514)" gradientUnits="userSpaceOnUse" x1="258.099" x2="272.548" xlink:href="#lg4" y1="324.655" y2="218.7"/><linearGradient id="SVGID_00000181047650373437846350000014351683613607656888_" gradientTransform="matrix(1 0 0 -1 0 514)" gradientUnits="userSpaceOnUse" x1="258.615" x2="375.406" xlink:href="#lg4" y1="340.342" y2="322.282"/><linearGradient id="SVGID_00000031910180209632355150000008661664276458803081_" gradientTransform="matrix(1 0 0 -1 0 514)" gradientUnits="userSpaceOnUse" x1="286.143" x2="345.991" xlink:href="#lg4" y1="310.599" y2="250.752"/><g><g><path d="m190.619 426.971-68.359 68.359c-6.151 6.151-1.795 16.668 6.904 16.668h253.672c8.699 0 13.055-10.517 6.904-16.668l-68.359-68.359c-36.109-36.109-94.654-36.109-130.762 0z" fill="url(#SVGID_1_)"/><path d="m382.835 512h-253.674c-8.693 0-13.056-10.52-6.899-16.668l48.469-48.477h170.534l48.477 48.477c6.149 6.148 1.794 16.668-6.907 16.668z" fill="url(#SVGID_00000126281081263765094910000002207921563773305488_)"/><path d="m321.38 426.97c-21.564-21.564-51.129-30.245-79.139-26.054v111.081h140.594c8.699 0 13.055-10.517 6.904-16.668z" fill="url(#SVGID_00000101812162299579535520000014590683635885519807_)"/></g><path d="m389.74 495.33-68.36-68.36c-26.257-26.257-64.371-33.4-97.101-21.471l-.394.362 106.137 106.137h52.814c8.698 0 13.055-10.517 6.904-16.668z" fill="url(#SVGID_00000074418225812194143460000006815430790365277353_)"/><g><path d="m426.849 170.849c0-94.357-76.492-170.849-170.849-170.849s-170.849 76.492-170.849 170.849 115.097 246.811 170.849 246.811 170.849-152.454 170.849-246.811z" fill="url(#SVGID_00000009564941230296458740000015379481345180205445_)"/><circle cx="256" cy="173.258" fill="url(#SVGID_00000057858688962718813310000007218182492799572132_)" r="140.771"/><path d="m256 417.66c-11.848 0-26.387-6.936-41.921-18.685v-393.775c13.415-3.385 27.454-5.2 41.921-5.2 94.357 0 170.849 76.492 170.849 170.849s-115.098 246.811-170.849 246.811z" fill="url(#SVGID_00000082328228117655578840000011076369596248223913_)"/><path d="m87.797 197.383c17.458 93.85 117.431 220.276 168.203 220.276s150.744-126.426 168.203-220.276z" fill="url(#SVGID_00000140011969409221648800000002374347830976626874_)"/></g><g><circle cx="256" cy="173.258" fill="url(#SVGID_00000059278741564115199010000015711053338693584543_)" r="121.249"/><path d="m318.743 151.84h-41.325v-41.325c0-6.045-4.9-10.945-10.945-10.945h-20.947c-6.044 0-10.945 4.9-10.945 10.945v41.325h-41.325c-6.045 0-10.945 4.9-10.945 10.945v20.947c0 6.045 4.9 10.945 10.945 10.945h41.325v41.325c0 6.045 4.9 10.945 10.945 10.945h20.947c6.045 0 10.945-4.9 10.945-10.945v-41.325h41.325c6.045 0 10.945-4.9 10.945-10.945v-20.947c0-6.045-4.9-10.945-10.945-10.945z" fill="url(#SVGID_00000169531285331403867540000015809025752540172188_)"/><path d="m134.751 173.258c0 66.964 54.285 121.249 121.249 121.249s121.249-54.285 121.249-121.249c0-3.352-.142-6.671-.409-9.954h-241.68c-.267 3.283-.409 6.602-.409 9.954z" fill="url(#SVGID_00000065776281845881953030000003120419494333728650_)"/><path d="m256 52.009c-7.811 0-15.446.748-22.846 2.159v238.18c7.4 1.411 15.035 2.159 22.846 2.159 66.964 0 121.249-54.285 121.249-121.249s-54.285-121.249-121.249-121.249z" fill="url(#SVGID_00000181047650373437846350000014351683613607656888_)"/><path d="m341.225 87.023-171.46 171.46c21.98 22.239 52.496 36.024 86.235 36.024 66.964 0 121.249-54.285 121.249-121.249 0-33.739-13.785-64.255-36.024-86.235z" fill="url(#SVGID_00000031910180209632355150000008661664276458803081_)"/></g></g></svg>