<svg id="_46_Condom" enable-background="new 0 0 512 512" viewBox="0 0 512 512" xmlns="http://www.w3.org/2000/svg" xmlns:xlink="http://www.w3.org/1999/xlink"><linearGradient id="lg1"><stop offset="0" stop-color="#c1e9af"/><stop offset=".1072" stop-color="#b6e4aa"/><stop offset=".2935" stop-color="#99d69e"/><stop offset=".5365" stop-color="#6bc18a"/><stop offset=".8238" stop-color="#2ca36f"/><stop offset="1" stop-color="#02905d"/></linearGradient><linearGradient id="SVGID_1_" gradientTransform="matrix(1 0 0 -1 0 514)" gradientUnits="userSpaceOnUse" x1="228.472" x2="485.106" xlink:href="#lg1" y1="232.628" y2="54.054"/><linearGradient id="SVGID_00000056396244095717515200000005701621679690840216_" gradientTransform="matrix(1 0 0 -1 0 514)" gradientUnits="userSpaceOnUse" x1="284.584" x2="426.897" xlink:href="#lg1" y1="209.196" y2="66.883"/><linearGradient id="SVGID_00000052824517717648256890000005241006333902119074_" gradientTransform="matrix(1 0 0 -1 0 514)" gradientUnits="userSpaceOnUse" x1="375.832" x2="422.256" y1="117.948" y2="71.524"><stop offset="0" stop-color="#fff" stop-opacity="0"/><stop offset=".0925" stop-color="#fff" stop-opacity=".024"/><stop offset=".2178" stop-color="#fff" stop-opacity=".092"/><stop offset=".3619" stop-color="#fff" stop-opacity=".203"/><stop offset=".52" stop-color="#fff" stop-opacity=".359"/><stop offset=".6897" stop-color="#fff" stop-opacity=".559"/><stop offset=".8661" stop-color="#fff" stop-opacity=".798"/><stop offset="1" stop-color="#fff"/></linearGradient><linearGradient id="SVGID_00000165931633850547032930000006937193957199841408_" gradientTransform="matrix(1 0 0 -1 0 514)" gradientUnits="userSpaceOnUse" x1="389.376" x2="195.407" xlink:href="#lg1" y1="104.403" y2="298.373"/><linearGradient id="lg2"><stop offset="0" stop-color="#026841" stop-opacity="0"/><stop offset=".2182" stop-color="#026841" stop-opacity=".033"/><stop offset=".4099" stop-color="#026841" stop-opacity=".137"/><stop offset=".5916" stop-color="#026841" stop-opacity=".31"/><stop offset=".7671" stop-color="#026841" stop-opacity=".553"/><stop offset=".9367" stop-color="#026841" stop-opacity=".864"/><stop offset="1" stop-color="#026841"/></linearGradient><linearGradient id="SVGID_00000119796686941240779050000010358964116021927594_" gradientTransform="matrix(1 0 0 -1 0 514)" gradientUnits="userSpaceOnUse" x1="335.911" x2="335.911" xlink:href="#lg2" y1="62.631" y2="-3.7"/><linearGradient id="SVGID_00000094598712758891196010000002150114491152952506_" gradientTransform="matrix(1 0 0 -1 0 514)" gradientUnits="userSpaceOnUse" x1="417.109" x2="475.833" xlink:href="#lg2" y1="157.869" y2="157.869"/><linearGradient id="SVGID_00000124868768479455405630000006695072056081311142_" gradientTransform="matrix(1 0 0 -1 0 514)" gradientUnits="userSpaceOnUse" x1="276.673" x2="235.327" xlink:href="#lg2" y1="152.762" y2="149.198"/><linearGradient id="lg3"><stop offset="0" stop-color="#f3faff"/><stop offset="1" stop-color="#d5daf3"/></linearGradient><linearGradient id="SVGID_00000028283569472279536510000004186339000693998266_" gradientTransform="matrix(1 0 0 -1 0 514)" gradientUnits="userSpaceOnUse" x1="116.853" x2="186.49" xlink:href="#lg3" y1="270.873" y2="270.873"/><linearGradient id="lg4"><stop offset="0" stop-color="#dbd5ef" stop-opacity="0"/><stop offset=".2667" stop-color="#d8d2ec" stop-opacity=".023"/><stop offset=".4431" stop-color="#d1c9e2" stop-opacity=".098"/><stop offset=".5933" stop-color="#c4b9d1" stop-opacity=".225"/><stop offset=".7288" stop-color="#b2a4ba" stop-opacity=".405"/><stop offset=".8545" stop-color="#9a889c" stop-opacity=".638"/><stop offset=".9713" stop-color="#7e6678" stop-opacity=".92"/><stop offset="1" stop-color="#765d6e"/></linearGradient><linearGradient id="SVGID_00000135668924437159678660000013036264128308084899_" gradientTransform="matrix(1 0 0 -1 0 514)" gradientUnits="userSpaceOnUse" x1="150.002" x2="246.832" xlink:href="#lg4" y1="270.873" y2="270.873"/><linearGradient id="SVGID_00000053537183166569770310000004235263910919972799_" gradientTransform="matrix(1 0 0 -1 0 514)" gradientUnits="userSpaceOnUse" x1="193.549" x2="254.143" y1="267.299" y2="263.022"><stop offset="0" stop-color="#d5daf3" stop-opacity="0"/><stop offset=".1385" stop-color="#d8ddf4" stop-opacity=".114"/><stop offset=".4399" stop-color="#e1e6f7" stop-opacity=".406"/><stop offset=".8782" stop-color="#eff5fd" stop-opacity=".867"/><stop offset="1" stop-color="#f3faff"/></linearGradient><linearGradient id="SVGID_00000061455660968004062180000006469321582077685686_" gradientTransform="matrix(1 0 0 -1 0 514)" gradientUnits="userSpaceOnUse" x1="155.418" x2="155.418" xlink:href="#lg4" y1="99.317" y2="-10.087"/><linearGradient id="SVGID_00000155143669640956806050000013433016353446302354_" gradientTransform="matrix(1 0 0 -1 0 514)" gradientUnits="userSpaceOnUse" x1="155.418" x2="155.418" xlink:href="#lg3" y1="36.009" y2="4.143"/><linearGradient id="SVGID_00000177444134870844887940000000477015817140255676_" gradientTransform="matrix(1 0 0 -1 0 514)" gradientUnits="userSpaceOnUse" x1="155.418" x2="155.418" xlink:href="#lg4" y1="21.224" y2=".314"/><linearGradient id="SVGID_00000056393828172834921730000006570370735287459003_" gradientTransform="matrix(1 0 0 -1 0 514)" gradientUnits="userSpaceOnUse" x1="204.783" x2="270.057" xlink:href="#lg4" y1="20.484" y2="20.484"/><g><g><path d="m448.071 216.835-16.605-15.064c-2.38-2.159-6.059-1.98-8.218.4l-12.939 14.263c-2.159 2.38-5.838 2.559-8.218.4l-16.605-15.064c-2.38-2.159-6.059-1.98-8.218.4l-12.939 14.263c-2.159 2.38-5.838 2.559-8.218.4l-16.605-15.063c-2.38-2.159-6.059-1.98-8.218.4l-12.939 14.263c-2.159 2.38-5.838 2.559-8.218.4l-16.605-15.064c-2.38-2.159-6.059-1.98-8.218.4l-12.939 14.263c-2.159 2.38-5.838 2.559-8.218.4l-16.605-15.064c-2.38-2.159-6.059-1.98-8.218.4l-12.939 14.263c-2.159 2.38-5.838 2.559-8.218.4l-3.037-2.755c-3.739-3.392-9.727-.739-9.727 4.309v273.53c0 5.321 6.552 7.85 10.127 3.909 2.159-2.38 5.838-2.559 8.218-.4l16.605 15.064c2.38 2.159 6.059 1.98 8.218-.4l12.939-14.263c2.159-2.38 5.838-2.559 8.218-.4l16.605 15.064c2.38 2.159 6.059 1.98 8.218-.4l12.939-14.263c2.159-2.38 5.838-2.559 8.218-.4l16.605 15.064c2.38 2.159 6.059 1.98 8.218-.4l12.939-14.263c2.159-2.38 5.838-2.559 8.218-.4l16.605 15.064c2.38 2.159 6.059 1.98 8.218-.4l12.939-14.263c2.159-2.38 5.838-2.559 8.218-.4l16.605 15.064c2.38 2.159 6.059 1.98 8.218-.4l12.939-14.263c2.159-2.38 5.838-2.559 8.218-.4l3.037 2.755c3.739 3.391 9.727.739 9.727-4.309v-273.53c0-5.321-6.552-7.85-10.127-3.909-2.159 2.379-5.838 2.558-8.218.399z" fill="url(#SVGID_1_)"/><circle cx="335.911" cy="356.131" fill="url(#SVGID_00000056396244095717515200000005701621679690840216_)" r="99.98"/><circle cx="335.911" cy="356.131" fill="url(#SVGID_00000052824517717648256890000005241006333902119074_)" r="99.98"/><circle cx="335.911" cy="356.131" fill="url(#SVGID_00000165931633850547032930000006937193957199841408_)" r="86.148"/><path d="m205.406 371.171v120.748c0 5.321 6.552 7.85 10.127 3.909 2.159-2.38 5.838-2.559 8.218-.4l16.605 15.063c2.38 2.159 6.059 1.98 8.218-.4l12.939-14.263c2.159-2.38 5.838-2.559 8.218-.4l16.605 15.063c2.38 2.159 6.059 1.98 8.218-.4l12.939-14.263c2.159-2.38 5.838-2.559 8.218-.4l16.605 15.063c2.38 2.159 6.059 1.98 8.218-.4l12.939-14.263c2.159-2.38 5.838-2.559 8.218-.4l16.605 15.063c2.38 2.159 6.059 1.98 8.218-.4l12.939-14.263c2.159-2.38 5.838-2.559 8.218-.4l16.605 15.063c2.38 2.159 6.059 1.98 8.218-.4l12.939-14.263c2.159-2.38 5.838-2.559 8.218-.4l3.037 2.755c3.739 3.392 9.727.739 9.727-4.309v-122.703z" fill="url(#SVGID_00000119796686941240779050000010358964116021927594_)"/><path d="m456.289 216.435c-2.159 2.38-5.838 2.559-8.218.4l-16.605-15.063c-2.38-2.159-6.059-1.98-8.218.4l-12.939 14.263c-2.159 2.38-5.838 2.559-8.218.4l-16.605-15.063c-2.38-2.159-6.059-1.98-8.218.4l-12.939 14.263c-2.159 2.38-5.838 2.559-8.218.4l-16.605-15.063c-2.38-2.159-6.059-1.98-8.218.4l-8.277 9.125v290.752l9.307 8.443c2.38 2.159 6.059 1.98 8.218-.4l12.939-14.263c2.159-2.38 5.838-2.559 8.218-.4l16.605 15.063c2.38 2.159 6.059 1.98 8.218-.4l12.939-14.263c2.159-2.38 5.838-2.559 8.218-.4l16.605 15.063c2.38 2.159 6.059 1.98 8.218-.4l12.939-14.263c2.159-2.38 5.838-2.559 8.218-.4l3.037 2.755c3.739 3.392 9.727.739 9.727-4.309v-273.53c-.001-5.322-6.553-7.851-10.128-3.91z" fill="url(#SVGID_00000094598712758891196010000002150114491152952506_)"/></g><path d="m448.071 216.835-16.605-15.064c-2.38-2.159-6.059-1.98-8.218.4l-12.939 14.263c-2.159 2.38-5.838 2.559-8.218.4l-16.605-15.064c-2.38-2.159-6.059-1.98-8.218.4l-12.939 14.263c-2.159 2.38-5.838 2.559-8.218.4l-16.605-15.063c-2.38-2.159-6.059-1.98-8.218.4l-12.939 14.263c-2.159 2.38-5.838 2.559-8.218.4l-16.605-15.064c-2.38-2.159-6.059-1.98-8.218.4l-12.939 14.263c-2.159 2.38-5.838 2.559-8.218.4l-16.605-15.064c-2.38-2.159-6.059-1.98-8.218.4l-12.939 14.263c-2.159 2.38-5.838 2.559-8.218.4l-3.037-2.755c-3.739-3.392-9.727-.739-9.727 4.309v273.53c0 5.321 6.552 7.85 10.127 3.909 2.159-2.38 5.838-2.559 8.218-.4l16.605 15.064c2.38 2.159 6.059 1.98 8.218-.4l12.939-14.263c2.159-2.38 5.838-2.559 8.218-.4l16.605 15.064c2.38 2.159 6.059 1.98 8.218-.4l12.939-14.263c2.159-2.38 5.838-2.559 8.218-.4l16.605 15.064c2.38 2.159 6.059 1.98 8.218-.4l12.939-14.263c2.159-2.38 5.838-2.559 8.218-.4l16.605 15.064c2.38 2.159 6.059 1.98 8.218-.4l12.939-14.263c2.159-2.38 5.838-2.559 8.218-.4l16.605 15.064c2.38 2.159 6.059 1.98 8.218-.4l12.939-14.263c2.159-2.38 5.838-2.559 8.218-.4l3.037 2.755c3.739 3.391 9.727.739 9.727-4.309v-273.53c0-5.321-6.552-7.85-10.127-3.909-2.159 2.379-5.838 2.558-8.218.399z" fill="url(#SVGID_00000124868768479455405630000006695072056081311142_)"/><g><path d="m175.95 20.532c0-11.339-9.193-20.532-20.532-20.532-11.34 0-20.532 9.193-20.532 20.532 0 1.122-.771 2.085-1.859 2.359-39.569 9.983-68.857 45.81-68.857 88.479v374.884h182.495v-374.884c0-42.669-29.288-78.497-68.857-88.479-1.087-.274-1.858-1.237-1.858-2.359z" fill="url(#SVGID_00000028283569472279536510000004186339000693998266_)"/><path d="m177.809 22.891c-1.088-.274-1.859-1.237-1.859-2.359 0-11.34-9.193-20.532-20.532-20.532-11.34 0-20.532 9.193-20.532 20.532 0 1.122-.771 2.084-1.859 2.359-1.123.283-2.236.594-3.342.918v462.445h116.98v-374.884c0-42.669-29.287-78.496-68.856-88.479z" fill="url(#SVGID_00000135668924437159678660000013036264128308084899_)"/><path d="m177.809 22.891c-1.088-.274-1.859-1.237-1.859-2.359 0-11.34-9.193-20.532-20.532-20.532-11.34 0-20.532 9.193-20.532 20.532 0 1.122-.771 2.084-1.859 2.359-1.123.283-2.236.594-3.342.918v462.445h116.98v-374.884c0-42.669-29.287-78.496-68.856-88.479z" fill="url(#SVGID_00000053537183166569770310000004235263910919972799_)"/><path d="m64.17 321.243h182.495v165.011h-182.495z" fill="url(#SVGID_00000061455660968004062180000006469321582077685686_)"/><g><path d="m64.066 475.034h182.704c10.207 0 18.482 8.275 18.482 18.482 0 10.207-8.275 18.482-18.482 18.482h-182.704c-10.207 0-18.482-8.275-18.482-18.482 0-10.207 8.275-18.482 18.482-18.482z" fill="url(#SVGID_00000155143669640956806050000013433016353446302354_)"/><path d="m265.248 493.52c0 5.102-2.064 9.717-5.413 13.067-3.35 3.35-7.964 5.413-13.066 5.413h-182.702c-10.204 0-18.48-8.275-18.48-18.48 0-1.804.259-3.536.736-5.175h218.189c.477 1.639.736 3.371.736 5.175z" fill="url(#SVGID_00000177444134870844887940000000477015817140255676_)"/><path d="m246.77 475.034h-70.817v36.963h70.817c10.207 0 18.482-8.274 18.482-18.482-.001-10.206-8.275-18.481-18.482-18.481z" fill="url(#SVGID_00000056393828172834921730000006570370735287459003_)"/></g></g></g></svg>