<svg id="_48_Syrup" enable-background="new 0 0 512 512" viewBox="0 0 512 512" xmlns="http://www.w3.org/2000/svg" xmlns:xlink="http://www.w3.org/1999/xlink"><linearGradient id="lg1"><stop offset="0" stop-color="#7a6d79"/><stop offset="1" stop-color="#593636"/></linearGradient><linearGradient id="SVGID_1_" gradientTransform="matrix(1 0 0 -1 0 514)" gradientUnits="userSpaceOnUse" x1="331.63" x2="378.374" xlink:href="#lg1" y1="411.321" y2="411.321"/><linearGradient id="lg2"><stop offset="0" stop-color="#593636" stop-opacity="0"/><stop offset="1"/></linearGradient><linearGradient id="SVGID_00000153673166775054672940000015498097710824877963_" gradientTransform="matrix(1 0 0 -1 0 514)" gradientUnits="userSpaceOnUse" x1="353.304" x2="359.284" xlink:href="#lg2" y1="458.128" y2="390.86"/><linearGradient id="SVGID_00000162312079812174240640000000934700812166579858_" gradientTransform="matrix(1 0 0 -1 0 514)" gradientUnits="userSpaceOnUse" x1="357.465" x2="357.465" xlink:href="#lg2" y1="393.993" y2="432.068"/><linearGradient id="SVGID_00000149347061061440801010000013941680451953875884_" gradientTransform="matrix(1 0 0 -1 0 514)" gradientUnits="userSpaceOnUse" x1="409.677" x2="428.373" xlink:href="#lg2" y1="411.321" y2="411.321"/><linearGradient id="SVGID_00000111900365958342583280000015683324760460140730_" gradientTransform="matrix(1 0 0 -1 0 514)" gradientUnits="userSpaceOnUse" x1="265.907" x2="380.535" xlink:href="#lg1" y1="202.355" y2="202.355"/><linearGradient id="SVGID_00000106105313505804225440000000899806388040750270_" gradientTransform="matrix(1 0 0 -1 0 514)" gradientUnits="userSpaceOnUse" x1="357.465" x2="357.465" xlink:href="#lg2" y1="69.228" y2="-.048"/><linearGradient id="SVGID_00000041297440057662528400000005772725351879619772_" gradientTransform="matrix(1 0 0 -1 0 514)" gradientUnits="userSpaceOnUse" x1="355.178" x2="335.218" xlink:href="#lg2" y1="49.29" y2="82.082"/><linearGradient id="SVGID_00000123403330410932443590000013519105630292131720_" gradientTransform="matrix(1 0 0 -1 0 514)" gradientUnits="userSpaceOnUse" x1="262.141" x2="245.032" xlink:href="#lg2" y1="112.272" y2="157.421"/><linearGradient id="SVGID_00000121258216563195305310000001607072623084024962_" gradientTransform="matrix(1 0 0 -1 0 514)" gradientUnits="userSpaceOnUse" x1="406.141" x2="494.675" xlink:href="#lg2" y1="202.355" y2="202.355"/><linearGradient id="SVGID_00000179625136711200918180000005313899878314581146_" gradientTransform="matrix(1 0 0 -1 0 514)" gradientUnits="userSpaceOnUse" x1="302.672" x2="436.556" y1="181.211" y2="181.211"><stop offset="0" stop-color="#f3faff"/><stop offset="1" stop-color="#d5daf3"/></linearGradient><linearGradient id="lg3"><stop offset="0" stop-color="#dbd5ef" stop-opacity="0"/><stop offset=".2667" stop-color="#d8d2ec" stop-opacity=".023"/><stop offset=".4431" stop-color="#d1c9e2" stop-opacity=".098"/><stop offset=".5933" stop-color="#c4b9d1" stop-opacity=".225"/><stop offset=".7288" stop-color="#b2a4ba" stop-opacity=".405"/><stop offset=".8545" stop-color="#9a889c" stop-opacity=".638"/><stop offset=".9713" stop-color="#7e6678" stop-opacity=".92"/><stop offset="1" stop-color="#765d6e"/></linearGradient><linearGradient id="SVGID_00000127760106143293533090000001247753094487294395_" gradientTransform="matrix(1 0 0 -1 0 514)" gradientUnits="userSpaceOnUse" x1="325.2" x2="262.824" xlink:href="#lg3" y1="134.608" y2="142.449"/><linearGradient id="SVGID_00000034773163781136106970000010602875968430982553_" gradientTransform="matrix(1 0 0 -1 0 514)" gradientUnits="userSpaceOnUse" x1="368.372" x2="310.629" xlink:href="#lg3" y1="50.41" y2="81.776"/><linearGradient id="SVGID_00000083783321573330225950000004304484660437458101_" gradientTransform="matrix(1 0 0 -1 0 514)" gradientUnits="userSpaceOnUse" x1="402.247" x2="494.026" xlink:href="#lg3" y1="181.213" y2="181.213"/><linearGradient id="SVGID_00000144299282426109433580000000233753963805704628_" gradientTransform="matrix(1 0 0 -1 0 514)" gradientUnits="userSpaceOnUse" x1="496.521" x2="410.356" xlink:href="#lg3" y1="20.47" y2="189.904"/><linearGradient id="SVGID_00000174593873310249205190000005320994327271042474_" gradientTransform="matrix(1 0 0 -1 0 514)" gradientUnits="userSpaceOnUse" x1="344.794" x2="327.461" y1="378.579" y2="467.246"><stop offset="0" stop-color="#fff" stop-opacity="0"/><stop offset=".0925" stop-color="#fff" stop-opacity=".024"/><stop offset=".2178" stop-color="#fff" stop-opacity=".092"/><stop offset=".3619" stop-color="#fff" stop-opacity=".203"/><stop offset=".52" stop-color="#fff" stop-opacity=".359"/><stop offset=".6897" stop-color="#fff" stop-opacity=".559"/><stop offset=".8661" stop-color="#fff" stop-opacity=".798"/><stop offset="1" stop-color="#fff"/></linearGradient><linearGradient id="lg4"><stop offset="0" stop-color="#fe646f"/><stop offset=".235" stop-color="#fa5964"/><stop offset=".6415" stop-color="#ef3d49"/><stop offset="1" stop-color="#e41f2d"/></linearGradient><linearGradient id="SVGID_00000056422442690828382110000006738850431255708093_" gradientTransform="matrix(1 0 0 -1 0 514)" gradientUnits="userSpaceOnUse" x1="357.465" x2="357.465" xlink:href="#lg4" y1="514" y2="417.708"/><linearGradient id="SVGID_00000170252337131681474920000005029876643525921196_" gradientTransform="matrix(1 0 0 -1 0 514)" gradientUnits="userSpaceOnUse" x1="426.538" x2="241.973" xlink:href="#lg4" y1="466.822" y2="466.822"/><linearGradient id="SVGID_00000065795346064931436410000009417700141988419457_" gradientTransform="matrix(1 0 0 -1 0 514)" gradientUnits="userSpaceOnUse" x1="357.465" x2="357.465" xlink:href="#lg4" y1="519.044" y2="426.384"/><linearGradient id="SVGID_00000054249831084537126220000009094815020078417586_" gradientTransform="matrix(1 0 0 -1 0 514)" gradientUnits="userSpaceOnUse" x1="371.766" x2="336.506" xlink:href="#lg4" y1="466.822" y2="466.822"/><linearGradient id="lg5"><stop offset="0" stop-color="#a72b2b" stop-opacity="0"/><stop offset=".1561" stop-color="#a32b2a" stop-opacity=".066"/><stop offset=".386" stop-color="#982c29" stop-opacity=".248"/><stop offset=".6615" stop-color="#872f28" stop-opacity=".545"/><stop offset=".97" stop-color="#6f3226" stop-opacity=".956"/><stop offset="1" stop-color="#6d3326"/></linearGradient><linearGradient id="SVGID_00000085232943179256796300000011791962654300541344_" gradientTransform="matrix(1 0 0 -1 0 514)" gradientUnits="userSpaceOnUse" x1="357.465" x2="357.465" xlink:href="#lg5" y1="449.351" y2="417.209"/><linearGradient id="lg6"><stop offset="0" stop-color="#e41f2d" stop-opacity="0"/><stop offset=".0725" stop-color="#e62533" stop-opacity=".093"/><stop offset=".3356" stop-color="#ee3b48" stop-opacity=".411"/><stop offset=".5691" stop-color="#f54c58" stop-opacity=".664"/><stop offset=".7644" stop-color="#f95964" stop-opacity=".846"/><stop offset=".914" stop-color="#fc616c" stop-opacity=".958"/><stop offset="1" stop-color="#fe646f"/></linearGradient><linearGradient id="SVGID_00000130620328076147613660000004232406038468083339_" gradientTransform="matrix(1 0 0 -1 0 514)" gradientUnits="userSpaceOnUse" x1="357.465" x2="357.465" xlink:href="#lg6" y1="436.333" y2="398.333"/><linearGradient id="SVGID_00000088844755463837340430000009031108515417478061_" gradientTransform="matrix(1 0 0 -1 0 514)" gradientUnits="userSpaceOnUse" x1="422.451" x2="441.821" xlink:href="#lg5" y1="466.822" y2="466.822"/><linearGradient id="SVGID_00000084527002405951489860000004574744033030150275_" gradientTransform="matrix(1 0 0 -1 0 514)" gradientUnits="userSpaceOnUse" x1="365.328" x2="445.557" xlink:href="#lg4" y1="222.35" y2="142.12"/><linearGradient id="SVGID_00000097501918879771859220000002376657417856592049_" gradientTransform="matrix(1 0 0 -1 0 514)" gradientUnits="userSpaceOnUse" x1="404.012" x2="404.012" xlink:href="#lg5" y1="172.143" y2="111.549"/><linearGradient id="SVGID_00000075873699417808218700000006682154553186321081_" gradientTransform="matrix(1 0 0 -1 0 514)" gradientUnits="userSpaceOnUse" x1="415.28" x2="475.957" xlink:href="#lg5" y1="183.666" y2="183.666"/><linearGradient id="SVGID_00000078735575361217150910000006015695974088895931_" gradientTransform="matrix(1 0 0 -1 0 514)" gradientUnits="userSpaceOnUse" x1="428.719" x2="464.021" xlink:href="#lg6" y1="158.958" y2="123.657"/><linearGradient id="SVGID_00000048477971587664278960000007424403020495614638_" gradientTransform="matrix(1 0 0 -1 0 514)" gradientUnits="userSpaceOnUse" x1="216.459" x2="267.976" y1="215.362" y2="158.246"><stop offset="0" stop-color="#fef0ae"/><stop offset="1" stop-color="#fac600"/></linearGradient><linearGradient id="lg7"><stop offset="0" stop-color="#fe9738" stop-opacity="0"/><stop offset=".1648" stop-color="#fe9637" stop-opacity=".012"/><stop offset=".2957" stop-color="#fe9535" stop-opacity=".052"/><stop offset=".415" stop-color="#fe9331" stop-opacity=".118"/><stop offset=".5274" stop-color="#fe902c" stop-opacity=".211"/><stop offset=".635" stop-color="#fe8c25" stop-opacity=".331"/><stop offset=".739" stop-color="#fe871d" stop-opacity=".479"/><stop offset=".8401" stop-color="#fe8213" stop-opacity=".655"/><stop offset=".9364" stop-color="#fe7b09" stop-opacity=".852"/><stop offset="1" stop-color="#fe7701"/></linearGradient><linearGradient id="SVGID_00000072243013169370511930000013701546705984269967_" gradientTransform="matrix(1 0 0 -1 0 514)" gradientUnits="userSpaceOnUse" x1="234.7" x2="234.7" xlink:href="#lg7" y1="196.932" y2="138.114"/><linearGradient id="SVGID_00000024724626317457628180000016271294401596251548_" gradientTransform="matrix(1 0 0 -1 0 514)" gradientUnits="userSpaceOnUse" x1="234.389" x2="286.933" xlink:href="#lg7" y1="202.241" y2="207.061"/><linearGradient id="SVGID_00000178905543105886327830000016182892083369851802_" gradientTransform="matrix(1 0 0 -1 0 514)" gradientUnits="userSpaceOnUse" x1="248.178" x2="279.815" y1="183.396" y2="153.115"><stop offset="0" stop-color="#fac600" stop-opacity="0"/><stop offset=".1175" stop-color="#fac602" stop-opacity=".017"/><stop offset=".2423" stop-color="#fac80b" stop-opacity=".067"/><stop offset=".3705" stop-color="#facc1a" stop-opacity=".151"/><stop offset=".5011" stop-color="#fbd12e" stop-opacity=".268"/><stop offset=".6336" stop-color="#fbd748" stop-opacity=".419"/><stop offset=".7676" stop-color="#fcdf69" stop-opacity=".604"/><stop offset=".9003" stop-color="#fde88e" stop-opacity=".819"/><stop offset="1" stop-color="#fef0ae"/></linearGradient><linearGradient id="lg8"><stop offset="0" stop-color="#99e6fc"/><stop offset=".1325" stop-color="#8ee1fb"/><stop offset=".3627" stop-color="#71d5f9"/><stop offset=".6631" stop-color="#43c2f5"/><stop offset="1" stop-color="#08a9f1"/></linearGradient><linearGradient id="SVGID_00000175303743490546361940000004551357795223095713_" gradientTransform="matrix(1 0 0 -1 0 514)" gradientUnits="userSpaceOnUse" x1="104.663" x2="104.663" xlink:href="#lg8" y1="112.861" y2="70.089"/><linearGradient id="SVGID_00000044137162418462185100000013664976599055826095_" gradientTransform="matrix(1 0 0 -1 0 514)" gradientUnits="userSpaceOnUse" x1="232.463" x2="249.572" xlink:href="#lg8" y1="113.104" y2="38.252"/><linearGradient id="lg9"><stop offset="0" stop-color="#2740b0" stop-opacity="0"/><stop offset=".2505" stop-color="#263fae" stop-opacity=".023"/><stop offset=".4239" stop-color="#253dab" stop-opacity=".095"/><stop offset=".5741" stop-color="#233ba4" stop-opacity=".218"/><stop offset=".711" stop-color="#21379b" stop-opacity=".393"/><stop offset=".8389" stop-color="#1e3290" stop-opacity=".618"/><stop offset=".9585" stop-color="#1a2c82" stop-opacity=".89"/><stop offset="1" stop-color="#192a7d"/></linearGradient><linearGradient id="SVGID_00000180357371648717489070000012493512751421433266_" gradientTransform="matrix(1 0 0 -1 0 514)" gradientUnits="userSpaceOnUse" x1="234.7" x2="234.7" xlink:href="#lg9" y1="79.119" y2="18.755"/><linearGradient id="SVGID_00000014628111671463653840000016609307739235159222_" gradientTransform="matrix(1 0 0 -1 0 514)" gradientUnits="userSpaceOnUse" x1="253.145" x2="316.353" xlink:href="#lg9" y1="79.712" y2="36.465"/><g><g><g><g><path d="m286.797 75.849h141.337v53.661h-141.337z" fill="url(#SVGID_1_)"/><path d="m286.797 75.849h141.337v53.661h-141.337z" fill="url(#SVGID_00000153673166775054672940000015498097710824877963_)"/><path d="m286.797 75.849h141.337v53.661h-141.337z" fill="url(#SVGID_00000162312079812174240640000000934700812166579858_)"/><path d="m402.842 75.849h25.292v53.661h-25.292z" fill="url(#SVGID_00000149347061061440801010000013941680451953875884_)"/></g><g><path d="m493.595 209.572-57.08 123.216 57.08 123.216v17.595c0 21.206-17.196 38.402-38.402 38.402h-195.456c-21.206 0-38.402-17.195-38.402-38.402v-274.072c0-48.729 39.508-88.236 88.236-88.236h95.787c48.729 0 88.236 39.508 88.236 88.236z" fill="url(#SVGID_00000111900365958342583280000015683324760460140730_)"/><path d="m493.595 456.003v17.595c0 21.206-17.196 38.402-38.402 38.402h-195.456c-21.206 0-38.402-17.195-38.402-38.402v-102.35h232.999z" fill="url(#SVGID_00000106105313505804225440000000899806388040750270_)"/><path d="m493.595 456v17.6c0 21.2-17.2 38.4-38.4 38.4h-195.46c-21.2 0-38.4-17.2-38.4-38.4v-31.98h265.6z" fill="url(#SVGID_00000041297440057662528400000005772725351879619772_)"/><path d="m221.335 346.01h65.318v68.436h-65.318z" fill="url(#SVGID_00000123403330410932443590000013519105630292131720_)"/><path d="m493.595 209.572-57.08 123.216 57.08 123.216v17.595c0 21.206-17.196 38.402-38.402 38.402h-66.265v-400.71h16.431c48.729 0 88.236 39.508 88.236 88.236z" fill="url(#SVGID_00000121258216563195305310000001607072623084024962_)"/><path d="m292.151 209.574h201.439v246.429h-201.439c-10.327 0-18.712-8.384-18.712-18.712v-209.005c.001-10.327 8.385-18.712 18.712-18.712z" fill="url(#SVGID_00000179625136711200918180000005313899878314581146_)"/><path d="m274.482 292.101-1.042 1.042v144.148c0 10.334 8.378 18.712 18.712 18.712h146.233z" fill="url(#SVGID_00000127760106143293533090000001247753094487294395_)"/><path d="m324.169 403.183-46.245 46.245c3.432 4.019 8.527 6.576 14.227 6.576h84.838z" fill="url(#SVGID_00000034773163781136106970000010602875968430982553_)"/><path d="m388.928 209.572h104.667v246.431h-104.667z" fill="url(#SVGID_00000083783321573330225950000004304484660437458101_)"/><path d="m493.59 318.806-39.322-39.323-101.107 101.107 75.413 75.413h65.016z" fill="url(#SVGID_00000144299282426109433580000000233753963805704628_)"/></g><path d="m405.359 111.291h-95.787c-48.729 0-88.236 39.508-88.236 88.236v10.047h272.259l.001-.003v-10.045c-.001-48.728-39.509-88.235-88.237-88.235z" fill="url(#SVGID_00000174593873310249205190000005320994327271042474_)"/></g><g><path d="m283.325 0h148.281c4.926 0 8.92 3.993 8.92 8.92v76.517c0 4.926-3.993 8.92-8.92 8.92h-148.281c-4.926 0-8.92-3.993-8.92-8.92v-76.517c0-4.927 3.993-8.92 8.92-8.92z" fill="url(#SVGID_00000056422442690828382110000006738850431255708093_)"/><path d="m298.791 0h117.348c4.413 0 7.991 3.578 7.991 7.991v78.374c0 4.413-3.578 7.991-7.991 7.991h-117.348c-4.413 0-7.991-3.578-7.991-7.991v-78.374c0-4.413 3.578-7.991 7.991-7.991z" fill="url(#SVGID_00000170252337131681474920000005029876643525921196_)"/><path d="m321.559 0h71.812c3.514 0 6.363 2.849 6.363 6.363v81.63c0 3.514-2.849 6.363-6.363 6.363h-71.812c-3.514 0-6.363-2.849-6.363-6.363v-81.63c0-3.514 2.849-6.363 6.363-6.363z" fill="url(#SVGID_00000065795346064931436410000009417700141988419457_)"/><path d="m345.693 0h23.545c2.138 0 3.871 1.733 3.871 3.871v86.614c0 2.138-1.733 3.871-3.871 3.871h-23.545c-2.138 0-3.871-1.733-3.871-3.871v-86.614c0-2.138 1.733-3.871 3.871-3.871z" fill="url(#SVGID_00000054249831084537126220000009094815020078417586_)"/><path d="m274.405 51.055v34.381c0 4.926 3.993 8.92 8.92 8.92h148.281c4.926 0 8.92-3.993 8.92-8.92v-34.381c-.001 0-166.121 0-166.121 0z" fill="url(#SVGID_00000085232943179256796300000011791962654300541344_)"/><path d="m274.405 51.055v34.381c0 4.926 3.993 8.92 8.92 8.92h148.281c4.926 0 8.92-3.993 8.92-8.92v-34.381c-.001 0-166.121 0-166.121 0z" fill="url(#SVGID_00000130620328076147613660000004232406038468083339_)"/><path d="m431.605 0h-74.14v94.356h74.14c4.926 0 8.92-3.993 8.92-8.92v-76.516c0-4.927-3.994-8.92-8.92-8.92z" fill="url(#SVGID_00000088844755463837340430000009031108515417478061_)"/></g><g><circle cx="404.012" cy="330.334" fill="url(#SVGID_00000084527002405951489860000004574744033030150275_)" r="71.498"/><path d="m441.01 317.705h-24.369v-24.369c0-3.564-2.889-6.454-6.454-6.454h-12.352c-3.564 0-6.454 2.89-6.454 6.454v24.369h-24.369c-3.564 0-6.454 2.89-6.454 6.454v12.352c0 3.564 2.889 6.454 6.454 6.454h24.369v24.369c0 3.564 2.89 6.454 6.454 6.454h12.352c3.564 0 6.454-2.889 6.454-6.454v-24.369h24.369c3.564 0 6.454-2.889 6.454-6.454v-12.352c0-3.565-2.889-6.454-6.454-6.454z" fill="#fff"/><path d="m332.514 330.334c0 39.487 32.011 71.498 71.498 71.498s71.498-32.011 71.498-71.498c0-1.977-.084-3.934-.241-5.87h-142.514c-.158 1.937-.241 3.894-.241 5.87z" fill="url(#SVGID_00000097501918879771859220000002376657417856592049_)"/><path d="m404.012 258.836c-4.606 0-9.109.441-13.472 1.273v140.451c4.364.832 8.866 1.273 13.472 1.273 39.487 0 71.498-32.011 71.498-71.498 0-39.488-32.011-71.499-71.498-71.499z" fill="url(#SVGID_00000075873699417808218700000006682154553186321081_)"/><path d="m454.268 279.483-101.107 101.107c12.961 13.114 30.956 21.243 50.851 21.243 39.487 0 71.498-32.011 71.498-71.498 0-19.896-8.128-37.89-21.242-50.852z" fill="url(#SVGID_00000078735575361217150910000006015695974088895931_)"/></g></g><g><path d="m283.675 322.533c0 27.048-21.927 48.974-48.974 48.974s-48.974-21.927-48.974-48.974 32.993-70.749 48.974-70.749 48.974 43.701 48.974 70.749z" fill="url(#SVGID_00000048477971587664278960000007424403020495614638_)"/><path d="m185.726 322.533c0 27.048 21.927 48.974 48.974 48.974s48.974-21.927 48.974-48.974c0-9.036-3.693-19.929-9.193-30.432h-79.563c-5.5 10.503-9.192 21.396-9.192 30.432z" fill="url(#SVGID_00000072243013169370511930000013701546705984269967_)"/><path d="m234.7 251.784c-3.396 0-7.564 1.988-12.017 5.356v112.877c3.845.97 7.87 1.49 12.017 1.49 27.048 0 48.974-21.927 48.974-48.974s-32.992-70.749-48.974-70.749z" fill="url(#SVGID_00000024724626317457628180000016271294401596251548_)"/><path d="m283.675 322.533c0 27.048-21.927 48.974-48.974 48.974s-48.974-21.927-48.974-48.974 32.993-70.749 48.974-70.749 48.974 43.701 48.974 70.749z" fill="url(#SVGID_00000178905543105886327830000016182892083369851802_)"/></g><g><path d="m185.101 399.136h-156.917c-5.401 0-9.779 4.378-9.779 9.779 0 4.926 3.665 9.083 8.552 9.701l163.963 20.729z" fill="url(#SVGID_00000175303743490546361940000004551357795223095713_)"/><path d="m315.37 399.136c7.261 0 12.781 6.626 11.357 13.746-7.573 37.865-45.894 66.673-92.027 66.673s-84.454-28.807-92.027-66.673c-1.424-7.12 4.097-13.746 11.357-13.746z" fill="url(#SVGID_00000044137162418462185100000013664976599055826095_)"/><path d="m315.37 399.136c7.261 0 12.781 6.626 11.357 13.746-7.573 37.865-45.894 66.673-92.027 66.673s-84.454-28.807-92.027-66.673c-1.424-7.12 4.097-13.746 11.357-13.746z" fill="url(#SVGID_00000180357371648717489070000012493512751421433266_)"/><path d="m315.37 399.136c7.261 0 12.781 6.626 11.357 13.746-7.573 37.865-45.894 66.673-92.027 66.673s-84.454-28.807-92.027-66.673c-1.424-7.12 4.097-13.746 11.357-13.746z" fill="url(#SVGID_00000014628111671463653840000016609307739235159222_)"/></g></g></svg>