<svg id="_49_Allergen_Free" enable-background="new 0 0 512 512" viewBox="0 0 512 512" xmlns="http://www.w3.org/2000/svg" xmlns:xlink="http://www.w3.org/1999/xlink"><linearGradient id="lg1"><stop offset="0" stop-color="#fef0ae"/><stop offset="1" stop-color="#fac600"/></linearGradient><linearGradient id="SVGID_1_" gradientTransform="matrix(.707 -.707 -.707 -.707 216.855 423.555)" gradientUnits="userSpaceOnUse" x1="-54.788" x2="-.965" xlink:href="#lg1" y1="154.384" y2="-23.647"/><linearGradient id="SVGID_00000041293312187196106730000018209607006105821837_" gradientTransform="matrix(.707 -.707 -.707 -.707 216.855 423.555)" gradientUnits="userSpaceOnUse" x1="-22.425" x2="-62.096" xlink:href="#lg1" y1="90.8" y2="90.8"/><linearGradient id="lg2"><stop offset="0" stop-color="#fe9738" stop-opacity="0"/><stop offset=".1648" stop-color="#fe9637" stop-opacity=".012"/><stop offset=".2957" stop-color="#fe9535" stop-opacity=".052"/><stop offset=".415" stop-color="#fe9331" stop-opacity=".118"/><stop offset=".5274" stop-color="#fe902c" stop-opacity=".211"/><stop offset=".635" stop-color="#fe8c25" stop-opacity=".331"/><stop offset=".739" stop-color="#fe871d" stop-opacity=".479"/><stop offset=".8401" stop-color="#fe8213" stop-opacity=".655"/><stop offset=".9364" stop-color="#fe7b09" stop-opacity=".852"/><stop offset="1" stop-color="#fe7701"/></linearGradient><linearGradient id="SVGID_00000060719780396621758510000007615442403222066342_" gradientTransform="matrix(.707 -.707 -.707 -.707 216.855 423.555)" gradientUnits="userSpaceOnUse" x1="-35.565" x2="-35.565" xlink:href="#lg2" y1="70.587" y2="1.167"/><linearGradient id="SVGID_00000150084693530042545810000013362809463867184315_" gradientTransform="matrix(.707 -.707 -.707 -.707 216.855 423.555)" gradientUnits="userSpaceOnUse" x1="30.801" x2="84.624" xlink:href="#lg2" y1="79.016" y2="35.543"/><linearGradient id="SVGID_00000142156924766925937740000009763057484838248351_" gradientTransform="matrix(1 0 0 -1 0 514)" gradientUnits="userSpaceOnUse" x1="134.564" x2="193.81" xlink:href="#lg2" y1="136.565" y2="195.811"/><linearGradient id="SVGID_00000045596606080540212350000005964684357746025884_" gradientTransform="matrix(1 0 0 -1 0 514)" gradientUnits="userSpaceOnUse" x1="299.33" x2="353.153" xlink:href="#lg1" y1="185.617" y2="7.587"/><linearGradient id="SVGID_00000159455383362258654900000018378739191598787971_" gradientTransform="matrix(1 0 0 -1 0 514)" gradientUnits="userSpaceOnUse" x1="331.692" x2="292.021" xlink:href="#lg1" y1="122.033" y2="122.033"/><linearGradient id="SVGID_00000150790595895198251090000012347419845063017115_" gradientTransform="matrix(1 0 0 -1 0 514)" gradientUnits="userSpaceOnUse" x1="318.553" x2="318.553" xlink:href="#lg2" y1="101.821" y2="32.401"/><linearGradient id="SVGID_00000037671059673109950620000011499662625166036123_" gradientTransform="matrix(1 0 0 -1 0 514)" gradientUnits="userSpaceOnUse" x1="384.918" x2="438.741" xlink:href="#lg2" y1="110.249" y2="66.777"/><linearGradient id="SVGID_00000095335411100812228060000012974176568439428513_" gradientTransform="matrix(1 0 0 -1 0 514)" gradientUnits="userSpaceOnUse" x1="417.602" x2="468.093" xlink:href="#lg2" y1="122.033" y2="122.033"/><linearGradient id="SVGID_00000029006322784193107610000010709685541105232002_" gradientTransform="matrix(1 0 0 -1 0 514)" gradientUnits="userSpaceOnUse" x1="318.381" x2="299.847" xlink:href="#lg2" y1="122.832" y2="209.327"/><linearGradient id="SVGID_00000169531638229984319680000018436299786831943346_" gradientTransform="matrix(.707 .707 .707 -.707 -316.164 338.237)" gradientUnits="userSpaceOnUse" x1="272.039" x2="325.862" xlink:href="#lg1" y1="523.898" y2="345.868"/><linearGradient id="SVGID_00000021798249495596964350000011981442751107771536_" gradientTransform="matrix(.707 .707 .707 -.707 -316.164 338.237)" gradientUnits="userSpaceOnUse" x1="304.402" x2="264.731" xlink:href="#lg1" y1="460.314" y2="460.314"/><linearGradient id="SVGID_00000044135732734140683370000000962915382922148791_" gradientTransform="matrix(.707 .707 .707 -.707 -316.164 338.237)" gradientUnits="userSpaceOnUse" x1="291.262" x2="291.262" xlink:href="#lg2" y1="440.102" y2="370.682"/><linearGradient id="SVGID_00000054244809564432774280000006704593296658202277_" gradientTransform="matrix(1 0 0 -1 0 514)" gradientUnits="userSpaceOnUse" x1="238.454" x2="283.603" xlink:href="#lg2" y1="311.156" y2="342.048"/><linearGradient id="SVGID_00000014598207396772191760000004545385125300818105_" gradientTransform="matrix(.707 .707 .707 -.707 -316.164 338.237)" gradientUnits="userSpaceOnUse" x1="357.628" x2="411.451" xlink:href="#lg2" y1="448.53" y2="405.058"/><linearGradient id="SVGID_00000021802168841034744120000004282919477760161974_" gradientTransform="matrix(.707 .707 .707 -.707 -316.164 338.237)" gradientUnits="userSpaceOnUse" x1="390.312" x2="440.802" xlink:href="#lg2" y1="460.314" y2="460.314"/><linearGradient id="SVGID_00000011714383105276877560000001289976618972426145_" gradientTransform="matrix(1 0 0 -1 0 514)" gradientUnits="userSpaceOnUse" x1="255.489" x2="277.876" y1="238.681" y2="159.583"><stop offset="0" stop-color="#fac600" stop-opacity="0"/><stop offset=".1175" stop-color="#fac602" stop-opacity=".017"/><stop offset=".2423" stop-color="#fac80b" stop-opacity=".067"/><stop offset=".3705" stop-color="#facc1a" stop-opacity=".151"/><stop offset=".5011" stop-color="#fbd12e" stop-opacity=".268"/><stop offset=".6336" stop-color="#fbd748" stop-opacity=".419"/><stop offset=".7676" stop-color="#fcdf69" stop-opacity=".604"/><stop offset=".9003" stop-color="#fde88e" stop-opacity=".819"/><stop offset="1" stop-color="#fef0ae"/></linearGradient><linearGradient id="lg3"><stop offset="0" stop-color="#c1e9af"/><stop offset=".1072" stop-color="#b6e4aa"/><stop offset=".2935" stop-color="#99d69e"/><stop offset=".5365" stop-color="#6bc18a"/><stop offset=".8238" stop-color="#2ca36f"/><stop offset="1" stop-color="#02905d"/></linearGradient><linearGradient id="SVGID_00000153677802340644013980000010801136931158981820_" gradientTransform="matrix(1 0 0 -1 0 514)" gradientUnits="userSpaceOnUse" x1="288.007" x2="451.108" xlink:href="#lg3" y1="447.29" y2="284.189"/><linearGradient id="SVGID_00000066505696851274367930000002833813952720180624_" gradientTransform="matrix(1 0 0 -1 0 514)" gradientUnits="userSpaceOnUse" x1="451.225" x2="266.354" xlink:href="#lg3" y1="320.599" y2="425.628"/><linearGradient id="lg4"><stop offset="0" stop-color="#026841" stop-opacity="0"/><stop offset=".2182" stop-color="#026841" stop-opacity=".033"/><stop offset=".4099" stop-color="#026841" stop-opacity=".137"/><stop offset=".5916" stop-color="#026841" stop-opacity=".31"/><stop offset=".7671" stop-color="#026841" stop-opacity=".553"/><stop offset=".9367" stop-color="#026841" stop-opacity=".864"/><stop offset="1" stop-color="#026841"/></linearGradient><linearGradient id="SVGID_00000059299641849680071430000010023161044415423637_" gradientTransform="matrix(1 0 0 -1 0 514)" gradientUnits="userSpaceOnUse" x1="322.759" x2="292.343" xlink:href="#lg4" y1="463.915" y2="436.825"/><linearGradient id="SVGID_00000170967019375157282430000007682880272329128600_" gradientTransform="matrix(1 0 0 -1 0 514)" gradientUnits="userSpaceOnUse" x1="366.648" x2="366.648" xlink:href="#lg4" y1="345.221" y2="222.039"/><linearGradient id="SVGID_00000085226565384181604520000004950101328497273259_" gradientTransform="matrix(1 0 0 -1 0 514)" gradientUnits="userSpaceOnUse" x1="389.558" x2="512.907" xlink:href="#lg4" y1="368.648" y2="368.648"/><linearGradient id="lg5"><stop offset="0" stop-color="#c1e9af" stop-opacity="0"/><stop offset=".1414" stop-color="#c1e9af" stop-opacity=".016"/><stop offset=".2738" stop-color="#c1e9af" stop-opacity=".065"/><stop offset=".4027" stop-color="#c1e9af" stop-opacity=".146"/><stop offset=".5294" stop-color="#c1e9af" stop-opacity=".26"/><stop offset=".6545" stop-color="#c1e9af" stop-opacity=".408"/><stop offset=".7785" stop-color="#c1e9af" stop-opacity=".589"/><stop offset=".8992" stop-color="#c1e9af" stop-opacity=".799"/><stop offset="1" stop-color="#c1e9af"/></linearGradient><linearGradient id="SVGID_00000049193777109242988850000007250253919328328586_" gradientTransform="matrix(1 0 0 -1 0 514)" gradientUnits="userSpaceOnUse" x1="441.15" x2="483.15" xlink:href="#lg5" y1="294.15" y2="252.15"/><linearGradient id="SVGID_00000077287170545829942680000004881569846430651025_" gradientTransform="matrix(1 0 0 -1 0 514)" gradientUnits="userSpaceOnUse" x1="357.437" x2="332.248" xlink:href="#lg4" y1="253.443" y2="286.71"/><linearGradient id="SVGID_00000101075386841841105300000015527307918196532869_" gradientTransform="matrix(.707 .707 .707 -.707 -3831.359 -350.815)" gradientUnits="userSpaceOnUse" x1="3305.365" x2="3354.469" xlink:href="#lg3" y1="2551.51" y2="2551.51"/><linearGradient id="SVGID_00000089532587167553730470000010808704667126393227_" gradientTransform="matrix(.707 .707 .707 -.707 -6532.002 -350.812)" gradientUnits="userSpaceOnUse" x1="5218.402" x2="5240.306" xlink:href="#lg4" y1="4462.481" y2="4460.548"/><linearGradient id="SVGID_00000082361450363936211620000004217873271386635393_" gradientTransform="matrix(.707 .707 .707 -.707 -6532.002 -350.812)" gradientUnits="userSpaceOnUse" x1="5242.42" x2="5267.76" xlink:href="#lg4" y1="4460.343" y2="4457.981"/><linearGradient id="SVGID_00000074405835529855777350000005456731068364603790_" gradientTransform="matrix(.707 .707 .707 -.707 -6532.002 -350.812)" gradientUnits="userSpaceOnUse" x1="5254.689" x2="5272.513" xlink:href="#lg4" y1="4448.982" y2="4438.245"/><linearGradient id="SVGID_00000002356639312720642850000010696133543755311785_" gradientTransform="matrix(.707 .707 .707 -.707 -6532.002 -350.812)" gradientUnits="userSpaceOnUse" x1="5233.574" x2="5233.574" xlink:href="#lg4" y1="4420.213" y2="4376.526"/><linearGradient id="SVGID_00000064350005274077510250000006051606506535312778_" gradientTransform="matrix(.707 .707 .707 -.707 -6532.002 -350.812)" gradientUnits="userSpaceOnUse" x1="5231.911" x2="5219.67" xlink:href="#lg4" y1="4456.415" y2="4459.421"/><linearGradient id="SVGID_00000083810051136409612480000015429065591523859875_" gradientTransform="matrix(.707 .707 .707 -.707 -6532.002 -350.812)" gradientUnits="userSpaceOnUse" x1="5242.955" x2="5224.486" xlink:href="#lg4" y1="4441.887" y2="4447.899"/><linearGradient id="SVGID_00000152959832393645538170000001074631196130015669_" gradientTransform="matrix(.707 .707 .707 -.707 -6532.002 -350.812)" gradientUnits="userSpaceOnUse" x1="5251.56" x2="5231.911" xlink:href="#lg4" y1="4422.033" y2="4429.119"/><linearGradient id="SVGID_00000092440726568379227160000016828288621577717427_" gradientTransform="matrix(.707 .707 .707 -.707 -6532.002 -350.812)" gradientUnits="userSpaceOnUse" x1="5241.382" x2="5267.581" xlink:href="#lg4" y1="4460.659" y2="4471.611"/><linearGradient id="SVGID_00000156578912083103526960000010636302515910840204_" gradientTransform="matrix(.707 .707 .707 -.707 -6532.002 -350.812)" gradientUnits="userSpaceOnUse" x1="5229.293" x2="5247.332" xlink:href="#lg4" y1="4444.523" y2="4452.039"/><linearGradient id="SVGID_00000007426117263249638490000014527767514770365596_" gradientTransform="matrix(.707 .707 .707 -.707 -6532.002 -350.812)" gradientUnits="userSpaceOnUse" x1="5218.421" x2="5237.963" xlink:href="#lg4" y1="4423.484" y2="4433.577"/><linearGradient id="SVGID_00000120547699833920837320000012157319998891858620_" gradientTransform="matrix(1 0 0 -1 0 514)" gradientUnits="userSpaceOnUse" x1="238.657" x2="305.078" xlink:href="#lg3" y1="368.648" y2="368.648"/><linearGradient id="SVGID_00000085210142163516149080000015769965043551139252_" gradientTransform="matrix(1 0 0 -1 -1909.641 2423.645)" gradientUnits="userSpaceOnUse" x1="2152.891" x2="2182.52" xlink:href="#lg4" y1="2280.087" y2="2277.473"/><linearGradient id="SVGID_00000155829040399603602780000017303858168637559730_" gradientTransform="matrix(1 0 0 -1 -1909.641 2423.645)" gradientUnits="userSpaceOnUse" x1="2185.379" x2="2219.656" xlink:href="#lg4" y1="2277.196" y2="2274.001"/><linearGradient id="SVGID_00000093137717495219861540000000538843503213216135_" gradientTransform="matrix(1 0 0 -1 -1909.641 2423.645)" gradientUnits="userSpaceOnUse" x1="2201.975" x2="2226.085" xlink:href="#lg4" y1="2261.827" y2="2247.303"/><linearGradient id="SVGID_00000060007965536227486350000009591349676145535413_" gradientTransform="matrix(1 0 0 -1 -1909.641 2423.645)" gradientUnits="userSpaceOnUse" x1="2173.414" x2="2173.414" xlink:href="#lg4" y1="2222.914" y2="2163.819"/><linearGradient id="SVGID_00000148652345943336550680000006349369584490816935_" gradientTransform="matrix(1 0 0 -1 -1909.641 2423.645)" gradientUnits="userSpaceOnUse" x1="2171.164" x2="2154.606" xlink:href="#lg4" y1="2271.882" y2="2275.949"/><linearGradient id="SVGID_00000161615214767037127660000001038820637493110664_" gradientTransform="matrix(1 0 0 -1 -1909.641 2423.645)" gradientUnits="userSpaceOnUse" x1="2186.102" x2="2161.121" xlink:href="#lg4" y1="2252.231" y2="2260.364"/><linearGradient id="SVGID_00000051369564455899839920000011026993472033631382_" gradientTransform="matrix(1 0 0 -1 -1909.641 2423.645)" gradientUnits="userSpaceOnUse" x1="2197.743" x2="2171.164" xlink:href="#lg4" y1="2225.375" y2="2234.96"/><linearGradient id="SVGID_00000153700865651291463750000001491944295995627908_" gradientTransform="matrix(1 0 0 -1 -1909.641 2423.645)" gradientUnits="userSpaceOnUse" x1="2183.975" x2="2219.414" xlink:href="#lg4" y1="2277.623" y2="2292.437"/><linearGradient id="SVGID_00000042698149904122286520000011205953133134940290_" gradientTransform="matrix(1 0 0 -1 -1909.641 2423.645)" gradientUnits="userSpaceOnUse" x1="2167.623" x2="2192.023" xlink:href="#lg4" y1="2255.796" y2="2265.963"/><linearGradient id="SVGID_00000012438811974857865040000009415013556853739166_" gradientTransform="matrix(1 0 0 -1 -1909.641 2423.645)" gradientUnits="userSpaceOnUse" x1="2152.918" x2="2179.351" xlink:href="#lg4" y1="2227.338" y2="2240.99"/><linearGradient id="SVGID_00000175291627666323643950000000363917170149578633_" gradientTransform="matrix(1 0 0 -1 0 514)" gradientUnits="userSpaceOnUse" x1="279.023" x2="298.162" xlink:href="#lg5" y1="301.411" y2="279.421"/><g><g><g><path d="m25.769 361.809 79.045-79.045c34.358-34.358 90.064-34.358 124.422 0 34.358 34.358 34.358 90.064 0 124.422l-79.045 79.045c-34.358 34.358-90.064 34.358-124.422 0-34.359-34.358-34.359-90.064 0-124.422z" fill="url(#SVGID_1_)"/><path d="m53.581 333.997 23.42-23.421 124.423 124.422-23.421 23.421z" fill="url(#SVGID_00000041293312187196106730000018209607006105821837_)"/><path d="m25.769 486.231c34.358 34.358 90.064 34.358 124.422 0l79.045-79.045c34.358-34.358 34.358-90.064 0-124.422-6.949-6.949-14.78-12.467-23.121-16.605l-196.951 196.951c4.138 8.342 9.656 16.173 16.605 23.121z" fill="url(#SVGID_00000060719780396621758510000007615442403222066342_)"/><path d="m104.813 282.764-27.812 27.812 124.423 124.423 27.812-27.812c34.358-34.358 34.358-90.064 0-124.422-34.358-34.359-90.064-34.359-124.423-.001z" fill="url(#SVGID_00000150084693530042545810000013362809463867184315_)"/><path d="m104.813 282.764-27.812 27.812 124.423 124.423 27.812-27.812c34.358-34.358 34.358-90.064 0-124.422-34.358-34.359-90.064-34.359-124.423-.001z" fill="url(#SVGID_00000142156924766925937740000009763057484838248351_)"/></g><g><path d="m262.659 303.987h111.786c48.59 0 87.98 39.39 87.98 87.98 0 48.59-39.39 87.98-87.98 87.98h-111.786c-48.59 0-87.98-39.39-87.98-87.98.001-48.59 39.391-87.98 87.98-87.98z" fill="url(#SVGID_00000045596606080540212350000005964684357746025884_)"/><path d="m301.992 303.987h33.122v175.96h-33.122z" fill="url(#SVGID_00000159455383362258654900000018378739191598787971_)"/><path d="m174.68 391.967c0 48.59 39.39 87.98 87.98 87.98h111.786c48.59 0 87.98-39.39 87.98-87.98 0-9.827-1.635-19.266-4.608-28.091h-278.531c-2.972 8.825-4.607 18.264-4.607 28.091z" fill="url(#SVGID_00000150790595895198251090000012347419845063017115_)"/><path d="m374.446 303.987h-39.332v175.96h39.332c48.59 0 87.98-39.39 87.98-87.98 0-48.59-39.39-87.98-87.98-87.98z" fill="url(#SVGID_00000037671059673109950620000011499662625166036123_)"/><path d="m374.446 303.987h-39.332v175.96h39.332c48.59 0 87.98-39.39 87.98-87.98 0-48.59-39.39-87.98-87.98-87.98z" fill="url(#SVGID_00000095335411100812228060000012974176568439428513_)"/></g><path d="m262.659 303.987h111.786c48.59 0 87.98 39.39 87.98 87.98 0 48.59-39.39 87.98-87.98 87.98h-111.786c-48.59 0-87.98-39.39-87.98-87.98.001-48.59 39.391-87.98 87.98-87.98z" fill="url(#SVGID_00000029006322784193107610000010709685541105232002_)"/><g><path d="m237.97 116.965 79.045 79.045c34.358 34.358 34.358 90.064 0 124.422-34.358 34.358-90.064 34.358-124.422 0l-79.045-79.045c-34.358-34.358-34.358-90.064 0-124.422 34.358-34.358 90.064-34.358 124.422 0z" fill="url(#SVGID_00000169531638229984319680000018436299786831943346_)"/><path d="m141.36 269.2 124.422-124.423 23.421 23.421-124.423 124.422z" fill="url(#SVGID_00000021798249495596964350000011981442751107771536_)"/><path d="m113.548 116.965c-34.358 34.358-34.358 90.064 0 124.422l79.045 79.045c34.358 34.358 90.064 34.358 124.422 0 6.949-6.949 12.467-14.78 16.605-23.121l-196.951-196.951c-8.342 4.138-16.173 9.657-23.121 16.605z" fill="url(#SVGID_00000044135732734140683370000000962915382922148791_)"/><path d="m237.97 116.965 79.045 79.045c34.358 34.358 34.358 90.064 0 124.422-34.358 34.358-90.064 34.358-124.422 0l-79.045-79.045c-34.358-34.358-34.358-90.064 0-124.422 34.358-34.358 90.064-34.358 124.422 0z" fill="url(#SVGID_00000054244809564432774280000006704593296658202277_)"/><path d="m317.015 196.01-27.812-27.812-124.423 124.422 27.812 27.812c34.358 34.358 90.064 34.358 124.422 0 34.359-34.358 34.359-90.064.001-124.422z" fill="url(#SVGID_00000014598207396772191760000004545385125300818105_)"/><path d="m317.015 196.01-27.812-27.812-124.423 124.422 27.812 27.812c34.358 34.358 90.064 34.358 124.422 0 34.359-34.358 34.359-90.064.001-124.422z" fill="url(#SVGID_00000021802168841034744120000004282919477760161974_)"/><path d="m317.015 196.01-27.812-27.812-124.423 124.422 27.812 27.812c34.358 34.358 90.064 34.358 124.422 0 34.359-34.358 34.359-90.064.001-124.422z" fill="url(#SVGID_00000011714383105276877560000001289976618972426145_)"/></g></g><g><g><g><path d="m366.648 0c-80.273 0-145.352 65.079-145.352 145.352s65.079 145.352 145.352 145.352c80.282 0 145.352-65.079 145.352-145.352s-65.07-145.352-145.352-145.352zm0 235.091c-49.56 0-89.739-40.178-89.739-89.739s40.178-89.738 89.739-89.738 89.739 40.178 89.739 89.738-40.178 89.739-89.739 89.739z" fill="url(#SVGID_00000153677802340644013980000010801136931158981820_)"/><path d="m366.648 43.604c-56.192 0-101.748 45.556-101.748 101.749s45.556 101.747 101.748 101.747c56.198 0 101.748-45.556 101.748-101.748s-45.55-101.748-101.748-101.748zm0 191.487c-49.56 0-89.739-40.178-89.739-89.739s40.178-89.739 89.739-89.739 89.739 40.178 89.739 89.739c0 49.56-40.179 89.739-89.739 89.739z" fill="url(#SVGID_00000066505696851274367930000002833813952720180624_)"/><path d="m235.257 83.134v22.4h50.955c14.672-29.582 45.177-49.921 80.436-49.921 5.458 0 10.802.489 15.991 1.422v-56.156c-5.252-.574-10.586-.879-15.991-.879-58.009 0-108.076 33.989-131.391 83.134z" fill="url(#SVGID_00000059299641849680071430000010023161044415423637_)"/><path d="m512 145.352c0 80.273-65.07 145.352-145.352 145.352-80.273 0-145.352-65.079-145.352-145.352 0-4.019.174-7.996.49-11.931h55.921c-.531 3.902-.797 7.888-.797 11.931 0 49.56 40.178 89.739 89.739 89.739s89.739-40.178 89.739-89.739c0-4.043-.266-8.029-.797-11.931h55.92c.323 3.935.489 7.913.489 11.931z" fill="url(#SVGID_00000170967019375157282430000007682880272329128600_)"/><path d="m512 145.352c0 80.273-65.07 145.352-145.352 145.352-9.357 0-18.516-.897-27.383-2.591v-57.282c8.627 2.765 17.835 4.259 27.383 4.259 49.561 0 89.739-40.178 89.739-89.739s-40.178-89.738-89.739-89.738c-9.548 0-18.756 1.495-27.383 4.259v-57.281c8.867-1.694 18.025-2.591 27.383-2.591 80.282 0 145.352 65.079 145.352 145.352z" fill="url(#SVGID_00000085226565384181604520000004950101328497273259_)"/><path d="m512 145.352c0 80.273-65.07 145.352-145.352 145.352-40.444 0-77.027-16.531-103.372-43.184l39.323-39.331c16.274 16.606 38.958 26.902 64.049 26.902 49.561 0 89.739-40.178 89.739-89.739 0-25.092-10.296-47.775-26.902-64.049l39.331-39.331c26.661 26.353 43.184 62.936 43.184 103.38z" fill="url(#SVGID_00000049193777109242988850000007250253919328328586_)"/></g><g fill="#fff"><path d="m324.666 247.27c.197-.624.618-1.005 1.262-1.145s1.304-.103 1.98.111l13.526 4.273c.649.205 1.029.633 1.139 1.282.109.649.065 1.285-.132 1.909-.23.728-.585 1.309-1.065 1.743s-1.019.557-1.617.368l-10.096-3.19-2.081 6.588 5.886 1.86c.597.189.976.573 1.137 1.152.16.58.141 1.181-.056 1.805-.164.52-.47.988-.915 1.404-.446.416-.994.522-1.643.317l-5.886-1.859-3.177 10.057c-.197.624-.663.991-1.398 1.102-.736.111-1.48.047-2.233-.191-.754-.238-1.4-.614-1.938-1.127-.539-.513-.709-1.082-.512-1.705z"/><path d="m344.12 252.895c.057-.514.282-.942.676-1.283.394-.34.889-.478 1.485-.412l8.411.928c1.381.152 2.666.438 3.854.857 1.187.419 2.197 1.017 3.03 1.794.833.778 1.445 1.75 1.837 2.917.392 1.168.497 2.578.315 4.23-.251 2.276-.918 4.032-2.001 5.27-1.082 1.238-2.358 2.05-3.826 2.436l3.966 9.527c.111.232.152.483.123.754-.045.406-.211.793-.498 1.159s-.638.684-1.051.953c-.414.27-.868.474-1.363.61-.495.137-.973.181-1.433.13-.406-.045-.783-.176-1.129-.392s-.604-.553-.773-1.011l-4.374-11.423-2.682-.296-1.08 9.793c-.072.65-.457 1.101-1.157 1.353s-1.442.334-2.228.248c-.786-.087-1.493-.329-2.12-.727-.628-.398-.906-.923-.834-1.573zm5.94 4.316-.834 7.558 4.023.444c1.138.126 2.062-.046 2.772-.517.71-.47 1.144-1.422 1.302-2.859.158-1.436-.058-2.46-.648-3.074-.591-.613-1.454-.983-2.592-1.108z"/><path d="m373.243 264.921 6.109-.53c.624-.054 1.121.156 1.491.63s.582 1.037.639 1.688c.047.543-.056 1.092-.308 1.648-.253.556-.719.863-1.397.922l-6.109.53.601 6.924 10.915-.948c.624-.054 1.124.183 1.498.711s.594 1.173.66 1.933c.057.652-.039 1.283-.287 1.892-.248.61-.712.944-1.39 1.003l-14.499 1.259c-.706.061-1.358-.046-1.956-.322-.599-.276-.926-.741-.983-1.392l-2.245-25.862c-.057-.652.186-1.165.728-1.54s1.165-.594 1.872-.655l14.499-1.259c.678-.059 1.193.191 1.542.748.349.558.552 1.163.609 1.814.066.76-.04 1.433-.317 2.018-.278.585-.729.904-1.353.959l-10.915.948z"/><path d="m396.211 261.369 5.896-1.686c.602-.172 1.131-.061 1.584.334s.77.907.949 1.536c.15.524.154 1.083.012 1.676s-.541.984-1.196 1.171l-5.895 1.686 1.911 6.682 10.533-3.013c.602-.172 1.138-.034 1.606.413s.807 1.038 1.017 1.771c.18.629.206 1.266.079 1.912-.128.646-.519 1.062-1.173 1.25l-13.992 4.002c-.682.195-1.342.214-1.982.057s-1.05-.55-1.23-1.179l-7.138-24.958c-.18-.629-.04-1.179.421-1.651.46-.472 1.031-.805 1.712-1l13.992-4.002c.655-.187 1.207-.04 1.656.441s.764 1.036.944 1.665c.21.734.234 1.414.073 2.041s-.543 1.027-1.145 1.199l-10.534 3.013z"/></g></g><path d="m412.785 222.332c-13.482 8.098-29.265 12.759-46.137 12.759-25.092 0-47.775-10.296-64.049-26.902l-39.323 39.331c26.345 26.653 62.928 43.184 103.372 43.184 16.129 0 31.641-2.632 46.137-7.48z" fill="url(#SVGID_00000077287170545829942680000004881569846430651025_)"/><g><g><path d="m382.38 142.551c-.326-3.577-2.777-6.028-6.354-6.354-24.263-2.209-54.143 9.798-78.169 33.824s-36.033 53.907-33.824 78.169c.326 3.577 2.777 6.028 6.354 6.354 24.263 2.209 54.143-9.798 78.169-33.824s36.033-53.906 33.824-78.169z" fill="url(#SVGID_00000101075386841841105300000015527307918196532869_)"/><path d="m380.423 138.155c-1.101-1.101-2.608-1.795-4.396-1.958-24.263-2.209-54.143 9.798-78.169 33.824s-36.033 53.907-33.824 78.169c.163 1.789.857 3.296 1.958 4.396z" fill="url(#SVGID_00000089532587167553730470000010808704667126393227_)"/><path d="m348.557 220.722c-24.024 24.024-53.906 36.032-78.17 33.821-1.789-.16-3.297-.856-4.397-1.955l114.432-114.432c1.099 1.099 1.796 2.607 1.955 4.397 2.212 24.263-9.796 54.144-33.82 78.169z" fill="url(#SVGID_00000082361450363936211620000004217873271386635393_)"/><path d="m348.557 220.722c-24.024 24.024-53.906 36.032-78.17 33.821-1.789-.16-3.297-.856-4.397-1.955l114.432-114.432c1.099 1.099 1.796 2.607 1.955 4.397 2.212 24.263-9.796 54.144-33.82 78.169z" fill="url(#SVGID_00000074405835529855777350000005456731068364603790_)"/><path d="m283.487 187.013c-14.336 20.208-21.165 42.379-19.454 61.179.326 3.577 2.777 6.028 6.354 6.354 18.799 1.711 40.97-5.118 61.179-19.454z" fill="url(#SVGID_00000002356639312720642850000010696133543755311785_)"/><g><path d="m348.556 220.721c18.629-18.629 30.026-40.776 33.179-61.096h-5.919c-10.797 0-21.152 4.289-28.787 11.924l-81.039 81.039c1.101 1.101 2.608 1.795 4.396 1.958 24.263 2.208 54.144-9.799 78.17-33.825z" fill="url(#SVGID_00000064350005274077510250000006051606506535312778_)"/><path d="m348.556 220.721c9.794-9.794 17.589-20.561 23.24-31.524h-25.552c-10.797 0-21.152 4.289-28.787 11.924l-51.467 51.467c1.101 1.101 2.608 1.795 4.396 1.958 24.263 2.208 54.144-9.799 78.17-33.825z" fill="url(#SVGID_00000083810051136409612480000015429065591523859875_)"/><path d="m265.99 252.587c1.101 1.101 2.608 1.795 4.396 1.958 24.263 2.209 54.143-9.798 78.169-33.824.646-.646 1.278-1.297 1.907-1.951h-33.791c-10.797 0-21.152 4.289-28.787 11.924z" fill="url(#SVGID_00000152959832393645538170000001074631196130015669_)"/></g><g><path d="m297.857 170.022c18.629-18.629 40.776-30.026 61.096-33.179v5.919c0 10.797-4.289 21.152-11.924 28.787l-81.039 81.039c-1.101-1.101-1.795-2.608-1.958-4.396-2.208-24.264 9.799-54.144 33.825-78.17z" fill="url(#SVGID_00000092440726568379227160000016828288621577717427_)"/><path d="m297.857 170.022c9.794-9.794 20.561-17.589 31.524-23.24v25.552c0 10.797-4.289 21.152-11.924 28.787l-51.467 51.467c-1.101-1.101-1.795-2.608-1.958-4.396-2.208-24.264 9.799-54.144 33.825-78.17z" fill="url(#SVGID_00000156578912083103526960000010636302515910840204_)"/><path d="m265.99 252.587c-1.101-1.101-1.795-2.608-1.958-4.396-2.209-24.263 9.798-54.143 33.824-78.169.646-.646 1.297-1.278 1.951-1.907v33.791c0 10.797-4.289 21.152-11.924 28.787z" fill="url(#SVGID_00000007426117263249638490000014527767514770365596_)"/></g></g><g><path d="m269.851 38.233c-3.733-3.11-8.422-3.11-12.155 0-25.319 21.094-42.415 61.158-42.415 107.119s17.096 86.025 42.415 107.119c3.733 3.11 8.422 3.11 12.155 0 25.319-21.094 42.415-61.158 42.415-107.119s-17.096-86.025-42.415-107.119z" fill="url(#SVGID_00000120547699833920837320000012157319998891858620_)"/><path d="m263.773 35.901c-2.105 0-4.211.777-6.077 2.332-25.319 21.094-42.415 61.158-42.415 107.119s17.096 86.025 42.415 107.119c1.866 1.555 3.972 2.332 6.077 2.332z" fill="url(#SVGID_00000085210142163516149080000015769965043551139252_)"/><path d="m312.267 145.352c0 45.958-17.096 86.023-42.419 107.116-1.864 1.559-3.973 2.335-6.076 2.335v-218.902c2.103 0 4.211.776 6.076 2.335 25.324 21.093 42.419 61.158 42.419 107.116z" fill="url(#SVGID_00000155829040399603602780000017303858168637559730_)"/><path d="m312.267 145.352c0 45.958-17.096 86.023-42.419 107.116-1.864 1.559-3.973 2.335-6.076 2.335v-218.902c2.103 0 4.211.776 6.076 2.335 25.324 21.093 42.419 61.158 42.419 107.116z" fill="url(#SVGID_00000093137717495219861540000000538843503213216135_)"/><path d="m217.787 175.348c5.617 33.041 20.291 60.778 39.909 77.123 3.733 3.11 8.422 3.11 12.155 0 19.618-16.344 34.292-44.082 39.909-77.123z" fill="url(#SVGID_00000060007965536227486350000009591349676145535413_)"/><g><path d="m312.265 145.352c0-35.636-10.282-67.72-26.702-90.172l-5.661 5.661c-10.327 10.327-16.129 24.334-16.129 38.939v155.024c2.105 0 4.211-.777 6.077-2.332 25.32-21.095 42.415-61.16 42.415-107.12z" fill="url(#SVGID_00000148652345943336550680000006349369584490816935_)"/><path d="m312.265 145.352c0-18.736-2.843-36.49-7.923-52.38l-24.44 24.44c-10.327 10.327-16.129 24.334-16.129 38.939v98.453c2.105 0 4.211-.777 6.077-2.332 25.32-21.095 42.415-61.16 42.415-107.12z" fill="url(#SVGID_00000161615214767037127660000001038820637493110664_)"/><path d="m263.773 254.803c2.105 0 4.211-.777 6.077-2.332 25.319-21.094 42.415-61.159 42.415-107.119 0-1.235-.018-2.464-.043-3.69l-32.32 32.32c-10.327 10.327-16.129 24.334-16.129 38.939z" fill="url(#SVGID_00000051369564455899839920000011026993472033631382_)"/></g><g><path d="m215.281 145.352c0-35.636 10.282-67.72 26.702-90.172l5.661 5.661c10.327 10.327 16.129 24.334 16.129 38.939v155.024c-2.105 0-4.211-.777-6.077-2.332-25.319-21.095-42.415-61.16-42.415-107.12z" fill="url(#SVGID_00000153700865651291463750000001491944295995627908_)"/><path d="m215.281 145.352c0-18.736 2.843-36.49 7.923-52.38l24.44 24.44c10.327 10.327 16.129 24.334 16.129 38.939v98.453c-2.105 0-4.211-.777-6.077-2.332-25.319-21.095-42.415-61.16-42.415-107.12z" fill="url(#SVGID_00000042698149904122286520000011205953133134940290_)"/><path d="m263.773 254.803c-2.105 0-4.211-.777-6.077-2.332-25.319-21.094-42.415-61.159-42.415-107.119 0-1.235.018-2.464.043-3.69l32.32 32.32c10.327 10.327 16.129 24.334 16.129 38.939z" fill="url(#SVGID_00000012438811974857865040000009415013556853739166_)"/></g></g><path d="m308.769 180.69c-6.23 30.685-20.368 56.323-38.919 71.781-3.736 3.11-8.423 3.11-12.151 0-18.551-15.458-32.69-41.096-38.919-71.781z" fill="url(#SVGID_00000175291627666323643950000000363917170149578633_)"/></g><g fill="#fff"><path d="m325.184 46.834c-.409.153-.86.25-1.354.289-.495.04-.974.024-1.438-.05-.464-.073-.872-.211-1.225-.414-.353-.202-.595-.482-.73-.84-.029-.076-.056-.226-.081-.45l-1.636-26.019c-.045-.74.247-1.417.875-2.031s1.389-1.088 2.282-1.423 1.778-.477 2.656-.428c.877.05 1.542.368 1.995.954l15.914 20.665c.128.186.206.316.234.392.134.358.135.729.003 1.112-.133.385-.349.757-.651 1.117-.301.361-.652.689-1.05.983-.399.296-.803.519-1.211.672-.485.182-.931.255-1.337.217-.407-.036-.751-.235-1.031-.596l-3.096-4.297-8.076 3.029.493 5.273c.025.456-.103.832-.385 1.127-.282.298-.667.536-1.151.718zm6.134-14.263-6.641-9.21 1.053 11.306z"/><path d="m347.445 39.601c-.7.113-1.358.054-1.975-.177s-.978-.67-1.083-1.315l-4.157-25.665c-.109-.672.142-1.21.753-1.613.611-.402 1.306-.667 2.087-.794.78-.126 1.524-.095 2.231.094.707.19 1.115.62 1.224 1.293l3.582 22.114 9.201-1.491c.619-.1 1.122.108 1.509.625s.638 1.126.751 1.825c.113.7.068 1.356-.137 1.968-.205.613-.616.969-1.235 1.07z"/><path d="m366.137 37.372c-.709-.015-1.345-.192-1.911-.531-.565-.339-.841-.835-.827-1.489l.548-25.994c.014-.681.358-1.164 1.032-1.45.674-.285 1.405-.42 2.196-.404.79.017 1.515.182 2.177.496.661.314.985.812.97 1.493l-.472 22.397 9.319.196c.626.013 1.083.309 1.371.888.287.578.424 1.222.409 1.93-.015.709-.178 1.346-.49 1.912s-.781.842-1.408.829z"/><path d="m392.058 22.23 5.995 1.287c.613.131 1.026.478 1.24 1.04s.252 1.162.115 1.802c-.115.533-.374 1.028-.779 1.484-.405.457-.94.613-1.606.471l-5.996-1.287-1.459 6.795 10.712 2.3c.613.131 1.021.505 1.223 1.12s.224 1.296.064 2.042c-.137.639-.414 1.214-.83 1.724-.417.51-.958.693-1.623.55l-14.229-3.055c-.693-.149-1.285-.443-1.776-.883s-.668-.979-.53-1.619l5.449-25.381c.137-.639.52-1.059 1.148-1.259s1.288-.225 1.981-.076l14.229 3.055c.666.143 1.084.532 1.255 1.168.17.636.186 1.273.049 1.913-.16.747-.459 1.359-.896 1.836-.437.478-.962.651-1.575.519l-10.712-2.3z"/><path d="m413.596 16.885c.209-.473.552-.813 1.031-1.02.478-.206.991-.188 1.54.054l7.742 3.416c1.272.561 2.411 1.22 3.417 1.977 1.007.757 1.789 1.631 2.35 2.623.56.992.851 2.103.875 3.335.022 1.231-.302 2.608-.973 4.128-.924 2.095-2.089 3.569-3.493 4.424-1.405.855-2.866 1.245-4.382 1.172l.916 10.279c.036.255 0 .507-.11.756-.165.374-.44.693-.823.955-.384.263-.814.461-1.289.593-.476.133-.971.19-1.483.172-.513-.018-.982-.12-1.406-.307-.374-.165-.693-.403-.959-.714-.265-.31-.41-.709-.433-1.196l-.734-12.209-2.469-1.089-3.977 9.014c-.264.598-.767.912-1.51.942s-1.476-.115-2.199-.434c-.724-.319-1.324-.763-1.803-1.332s-.586-1.152-.322-1.751c0-.001 10.494-23.788 10.494-23.788zm4.366 5.903-3.069 6.957 3.703 1.634c1.047.462 1.98.576 2.799.341.818-.235 1.519-1.012 2.102-2.334.583-1.321.685-2.363.307-3.126-.379-.763-1.091-1.375-2.139-1.837z"/><path d="m445.636 42.984c.208-.286.418-.622.631-1.007.212-.385.327-.798.345-1.24s-.094-.902-.336-1.381-.715-.975-1.42-1.487c-.948-.689-1.878-.952-2.788-.788-.911.164-1.774.807-2.592 1.932l-6.37 8.763c-.817 1.124-1.163 2.145-1.038 3.061.125.917.651 1.711 1.577 2.384s1.849.932 2.772.776c.922-.155 1.791-.795 2.608-1.919l.817-1.124-1.951-1.418c-.507-.369-.745-.853-.713-1.453s.232-1.153.601-1.66c.352-.485.813-.841 1.382-1.067s1.107-.156 1.614.213l5.555 4.038c.507.369.776.809.809 1.321.032.512-.112.989-.433 1.429l-2.524 3.472c-1.042 1.433-2.129 2.488-3.26 3.164-1.132.677-2.29 1.064-3.474 1.164-1.184.099-2.373-.074-3.565-.519-1.192-.446-2.362-1.085-3.508-1.918s-2.11-1.745-2.89-2.733c-.781-.988-1.306-2.062-1.577-3.218-.271-1.157-.26-2.378.035-3.664.294-1.285.962-2.644 2.004-4.077l6.37-8.763c1.025-1.41 2.108-2.46 3.248-3.148s2.302-1.081 3.486-1.18 2.356.062 3.515.483c1.159.422 2.279 1.025 3.359 1.81 1.19.865 2.182 1.806 2.978 2.822.795 1.016 1.362 2.077 1.703 3.184s.424 2.221.25 3.341c-.175 1.12-.646 2.209-1.415 3.267-.721.992-1.408 1.496-2.058 1.511-.652.015-1.418-.298-2.3-.939-.706-.513-1.226-1.06-1.562-1.641-.333-.583-.296-1.18.115-1.791z"/><path d="m457.45 58.101 4.12 4.542c.421.464.555.987.401 1.568s-.473 1.091-.957 1.531c-.404.367-.903.617-1.498.752s-1.122-.05-1.579-.554l-4.12-4.542-5.147 4.67 7.361 8.114c.421.464.535 1.006.341 1.623-.194.618-.574 1.183-1.139 1.695-.484.44-1.045.745-1.68.917-.636.172-1.182.005-1.64-.499l-9.779-10.779c-.476-.525-.785-1.109-.928-1.753s.029-1.185.513-1.625l19.226-17.442c.485-.44 1.04-.557 1.667-.353s1.178.568 1.654 1.094l9.778 10.779c.458.504.57 1.065.338 1.681-.233.616-.591 1.143-1.076 1.583-.565.513-1.165.836-1.798.969-.634.133-1.161-.032-1.582-.497l-7.361-8.114z"/><path d="m462.87 95.766c-.369-.637-.616-1.281-.74-1.933-.126-.652.023-1.32.446-2.005l8.354-13.806-12.031 6.96c-.566.327-1.158.284-1.775-.13-.618-.414-1.124-.964-1.52-1.648s-.619-1.397-.67-2.139.206-1.276.772-1.604l22.47-12.999c.589-.341 1.187-.301 1.793.12.605.421 1.106.973 1.502 1.658.287.495.508.934.666 1.315.157.381.236.776.237 1.185 0 .409-.106.864-.32 1.366-.214.501-.543 1.101-.989 1.8l-7.618 12.058 12.031-6.96c.59-.341 1.181-.298 1.775.13.593.428 1.088.983 1.484 1.668.395.684.631 1.39.706 2.118.074.728-.183 1.263-.772 1.604l-22.505 13.019c-.566.328-1.158.284-1.775-.13-.619-.415-1.126-.964-1.521-1.647z"/></g></g></g></svg>