<svg id="_50_Fish_Oil" enable-background="new 0 0 512 512" viewBox="0 0 512 512" xmlns="http://www.w3.org/2000/svg" xmlns:xlink="http://www.w3.org/1999/xlink"><linearGradient id="lg1"><stop offset="0" stop-color="#feca9c"/><stop offset=".1252" stop-color="#fdc391"/><stop offset=".3429" stop-color="#fbb174"/><stop offset=".6269" stop-color="#f89346"/><stop offset=".9631" stop-color="#f46b07"/><stop offset="1" stop-color="#f46700"/></linearGradient><linearGradient id="SVGID_1_" gradientTransform="matrix(1 0 0 -1 0 514)" gradientUnits="userSpaceOnUse" x1="280.937" x2="346.04" xlink:href="#lg1" y1="420.085" y2="420.085"/><linearGradient id="lg2"><stop offset="0" stop-color="#ff7920" stop-opacity="0"/><stop offset=".088" stop-color="#fe7720" stop-opacity=".028"/><stop offset=".2178" stop-color="#fe7221" stop-opacity=".107"/><stop offset=".3734" stop-color="#fe6b22" stop-opacity=".236"/><stop offset=".549" stop-color="#fe6024" stop-opacity=".415"/><stop offset=".7413" stop-color="#fd5227" stop-opacity=".645"/><stop offset=".9447" stop-color="#fd422a" stop-opacity=".92"/><stop offset="1" stop-color="#fd3e2b"/></linearGradient><linearGradient id="SVGID_00000000218581157756893540000014843238418843397763_" gradientTransform="matrix(1 0 0 -1 0 514)" gradientUnits="userSpaceOnUse" x1="312.96" x2="318.649" xlink:href="#lg2" y1="464.62" y2="400.617"/><linearGradient id="SVGID_00000067193971406929767140000008545134899652443547_" gradientTransform="matrix(1 0 0 -1 0 514)" gradientUnits="userSpaceOnUse" x1="316.918" x2="316.918" xlink:href="#lg2" y1="405.388" y2="437.682"/><linearGradient id="SVGID_00000160904921886255835360000010324405388258006457_" gradientTransform="matrix(1 0 0 -1 0 514)" gradientUnits="userSpaceOnUse" x1="343.517" x2="416.276" xlink:href="#lg2" y1="420.085" y2="420.085"/><linearGradient id="SVGID_00000058552000771266771160000009157005837956627390_" gradientTransform="matrix(1 0 0 -1 0 514)" gradientUnits="userSpaceOnUse" x1="213.378" x2="343.008" xlink:href="#lg1" y1="207.391" y2="207.391"/><linearGradient id="SVGID_00000026874022603286476200000001672181153209551538_" gradientTransform="matrix(1 0 0 -1 0 514)" gradientUnits="userSpaceOnUse" x1="205.9" x2="169.306" xlink:href="#lg1" y1="202.734" y2="174.219"/><linearGradient id="SVGID_00000026164946548126151770000014539814007552772765_" gradientTransform="matrix(1 0 0 -1 0 514)" gradientUnits="userSpaceOnUse" x1="316.918" x2="316.918" xlink:href="#lg2" y1="59.02" y2=".263"/><linearGradient id="SVGID_00000012458238968519498230000005799591279490728118_" gradientTransform="matrix(1 0 0 -1 0 514)" gradientUnits="userSpaceOnUse" x1="332.376" x2="472.574" xlink:href="#lg2" y1="207.391" y2="207.391"/><linearGradient id="SVGID_00000090257678656975327350000014097580579027569562_" gradientTransform="matrix(1 0 0 -1 0 514)" gradientUnits="userSpaceOnUse" x1="286.146" x2="251.929" xlink:href="#lg2" y1="11.879" y2="44.671"/><linearGradient id="SVGID_00000180366512511650755630000017808291769220897171_" gradientTransform="matrix(1 0 0 -1 0 514)" gradientUnits="userSpaceOnUse" x1="242.179" x2="402.545" y1="189.458" y2="189.458"><stop offset="0" stop-color="#f3faff"/><stop offset="1" stop-color="#d5daf3"/></linearGradient><linearGradient id="lg3"><stop offset="0" stop-color="#dbd5ef" stop-opacity="0"/><stop offset=".2667" stop-color="#d8d2ec" stop-opacity=".023"/><stop offset=".4431" stop-color="#d1c9e2" stop-opacity=".098"/><stop offset=".5933" stop-color="#c4b9d1" stop-opacity=".225"/><stop offset=".7288" stop-color="#b2a4ba" stop-opacity=".405"/><stop offset=".8545" stop-color="#9a889c" stop-opacity=".638"/><stop offset=".9713" stop-color="#7e6678" stop-opacity=".92"/><stop offset="1" stop-color="#765d6e"/></linearGradient><linearGradient id="SVGID_00000105426704068062297140000014849670990086883978_" gradientTransform="matrix(1 0 0 -1 0 514)" gradientUnits="userSpaceOnUse" x1="350.984" x2="472.879" xlink:href="#lg3" y1="189.459" y2="189.459"/><linearGradient id="SVGID_00000090997881387025317890000002963688726701312917_" gradientTransform="matrix(1 0 0 -1 0 514)" gradientUnits="userSpaceOnUse" x1="311.133" x2="308.466" y1="394.834" y2="422.167"><stop offset="0" stop-color="#feca9c" stop-opacity="0"/><stop offset=".0882" stop-color="#feca9c" stop-opacity=".028"/><stop offset=".217" stop-color="#feca9c" stop-opacity=".105"/><stop offset=".3709" stop-color="#feca9c" stop-opacity=".231"/><stop offset=".544" stop-color="#feca9c" stop-opacity=".407"/><stop offset=".7333" stop-color="#feca9c" stop-opacity=".632"/><stop offset=".9331" stop-color="#feca9c" stop-opacity=".903"/><stop offset="1" stop-color="#feca9c"/></linearGradient><linearGradient id="lg4"><stop offset="0" stop-color="#7a6d79"/><stop offset="1" stop-color="#593636"/></linearGradient><linearGradient id="SVGID_00000053537308817150986870000008809578822714674326_" gradientTransform="matrix(1 0 0 -1 0 514)" gradientUnits="userSpaceOnUse" x1="316.918" x2="316.918" xlink:href="#lg4" y1="514" y2="433.398"/><linearGradient id="SVGID_00000055702129592865484100000013090327723706748339_" gradientTransform="matrix(1 0 0 -1 0 514)" gradientUnits="userSpaceOnUse" x1="259.667" x2="204.935" xlink:href="#lg4" y1="474.51" y2="474.51"/><linearGradient id="SVGID_00000025424573109584790220000011020214392852344995_" gradientTransform="matrix(1 0 0 -1 0 514)" gradientUnits="userSpaceOnUse" x1="410.333" x2="372.976" xlink:href="#lg4" y1="474.51" y2="474.51"/><linearGradient id="SVGID_00000005229777397900622110000016633498475488568209_" gradientTransform="matrix(1 0 0 -1 0 514)" gradientUnits="userSpaceOnUse" x1="316.918" x2="316.918" xlink:href="#lg4" y1="518.222" y2="440.661"/><linearGradient id="SVGID_00000142158191762199649950000014928766329814942142_" gradientTransform="matrix(1 0 0 -1 0 514)" gradientUnits="userSpaceOnUse" x1="337.117" x2="287.317" xlink:href="#lg4" y1="474.509" y2="474.509"/><linearGradient id="lg5"><stop offset="0" stop-color="#593636" stop-opacity="0"/><stop offset="1"/></linearGradient><linearGradient id="SVGID_00000139276953733855508410000010495510332633795223_" gradientTransform="matrix(1 0 0 -1 0 514)" gradientUnits="userSpaceOnUse" x1="316.918" x2="316.918" xlink:href="#lg5" y1="476.976" y2="431.579"/><linearGradient id="SVGID_00000062151412667736732810000012102848049410605445_" gradientTransform="matrix(1 0 0 -1 0 514)" gradientUnits="userSpaceOnUse" x1="408.705" x2="436.063" xlink:href="#lg5" y1="474.509" y2="474.509"/><linearGradient id="SVGID_00000118362292900130427950000001253067237516113050_" gradientTransform="matrix(1 0 0 -1 0 514)" gradientUnits="userSpaceOnUse" x1="368.802" x2="346.466" xlink:href="#lg3" y1="103.903" y2="188.497"/><linearGradient id="lg6"><stop offset="0" stop-color="#fef0ae"/><stop offset="1" stop-color="#fac600"/></linearGradient><linearGradient id="SVGID_00000059298188191052133180000009217358148735248047_" gradientTransform="matrix(1 0 0 -1 0 514)" gradientUnits="userSpaceOnUse" x1="153.598" x2="184.401" xlink:href="#lg6" y1="100.128" y2="17.13"/><linearGradient id="lg7"><stop offset="0" stop-color="#fe9738" stop-opacity="0"/><stop offset=".1648" stop-color="#fe9637" stop-opacity=".012"/><stop offset=".2957" stop-color="#fe9535" stop-opacity=".052"/><stop offset=".415" stop-color="#fe9331" stop-opacity=".118"/><stop offset=".5274" stop-color="#fe902c" stop-opacity=".211"/><stop offset=".635" stop-color="#fe8c25" stop-opacity=".331"/><stop offset=".739" stop-color="#fe871d" stop-opacity=".479"/><stop offset=".8401" stop-color="#fe8213" stop-opacity=".655"/><stop offset=".9364" stop-color="#fe7b09" stop-opacity=".852"/><stop offset="1" stop-color="#fe7701"/></linearGradient><linearGradient id="SVGID_00000039133127155085106100000007289138975659262138_" gradientTransform="matrix(1 0 0 -1 0 514)" gradientUnits="userSpaceOnUse" x1="165.534" x2="160.901" xlink:href="#lg7" y1="77.595" y2="117.516"/><linearGradient id="SVGID_00000057145254556800920760000013896527098640735920_" gradientTransform="matrix(1 0 0 -1 0 514)" gradientUnits="userSpaceOnUse" x1="167.161" x2="167.161" xlink:href="#lg7" y1="70.711" y2="6.697"/><linearGradient id="SVGID_00000086652536675295058410000015494637692030065795_" gradientTransform="matrix(1 0 0 -1 0 514)" gradientUnits="userSpaceOnUse" x1="180.649" x2="253.986" xlink:href="#lg7" y1="63.583" y2="63.583"/><linearGradient id="lg8"><stop offset="0" stop-color="#fac600" stop-opacity="0"/><stop offset=".1175" stop-color="#fac602" stop-opacity=".017"/><stop offset=".2423" stop-color="#fac80b" stop-opacity=".067"/><stop offset=".3705" stop-color="#facc1a" stop-opacity=".151"/><stop offset=".5011" stop-color="#fbd12e" stop-opacity=".268"/><stop offset=".6336" stop-color="#fbd748" stop-opacity=".419"/><stop offset=".7676" stop-color="#fcdf69" stop-opacity=".604"/><stop offset=".9003" stop-color="#fde88e" stop-opacity=".819"/><stop offset="1" stop-color="#fef0ae"/></linearGradient><linearGradient id="SVGID_00000135683811287355213160000005077259788449154456_" gradientTransform="matrix(1 0 0 -1 0 514)" gradientUnits="userSpaceOnUse" x1="188.865" x2="239.186" xlink:href="#lg8" y1="41.038" y2="-15.445"/><linearGradient id="SVGID_00000139286144021111298580000000541112458054085557_" gradientTransform="matrix(.707 .707 .707 -.707 -1440.01 1216.919)" gradientUnits="userSpaceOnUse" x1="468.282" x2="499.086" xlink:href="#lg6" y1="1760.25" y2="1677.252"/><linearGradient id="SVGID_00000079478142223012363960000003445301545716902566_" gradientTransform="matrix(1 0 0 -1 0 514)" gradientUnits="userSpaceOnUse" x1="115.81" x2="94.476" xlink:href="#lg7" y1="165.876" y2="112.543"/><linearGradient id="SVGID_00000147925008162224485610000004583539113173393342_" gradientTransform="matrix(.707 .707 .707 -.707 -1440.011 1216.919)" gradientUnits="userSpaceOnUse" x1="495.333" x2="568.67" xlink:href="#lg7" y1="1723.706" y2="1723.706"/><linearGradient id="SVGID_00000176013770221679888670000013735892281569107612_" gradientTransform="matrix(.707 .707 .707 -.707 -1440.011 1216.919)" gradientUnits="userSpaceOnUse" x1="496.404" x2="538.331" xlink:href="#lg8" y1="1709.182" y2="1662.121"/><linearGradient id="SVGID_00000135648578029101497450000009650643283490867625_" gradientTransform="matrix(1 0 0 -1 0 514)" gradientUnits="userSpaceOnUse" x1="125.615" x2="181.932" xlink:href="#lg7" y1="88.43" y2="149.736"/><linearGradient id="SVGID_00000121269025781666211890000000346881444171794086_" gradientTransform="matrix(1 0 0 -1 0 514)" gradientUnits="userSpaceOnUse" x1="180.371" x2="136.648" xlink:href="#lg7" y1="172.783" y2="131.912"/><linearGradient id="SVGID_00000172407209445618906540000003620626227869575811_" gradientTransform="matrix(1 0 0 -1 0 514)" gradientUnits="userSpaceOnUse" x1="189.684" x2="140.496" xlink:href="#lg7" y1="62.379" y2="48.835"/><linearGradient id="lg9"><stop offset="0" stop-color="#99e6fc"/><stop offset=".1325" stop-color="#8ee1fb"/><stop offset=".3627" stop-color="#71d5f9"/><stop offset=".6631" stop-color="#43c2f5"/><stop offset="1" stop-color="#08a9f1"/></linearGradient><linearGradient id="SVGID_00000080922431874223239320000007672289809748198833_" gradientTransform="matrix(1 0 0 -1 0 514)" gradientUnits="userSpaceOnUse" x1="264.344" x2="264.344" xlink:href="#lg9" y1="214.495" y2="156.176"/><linearGradient id="lg10"><stop offset="0" stop-color="#2740b0" stop-opacity="0"/><stop offset=".2505" stop-color="#263fae" stop-opacity=".023"/><stop offset=".4239" stop-color="#253dab" stop-opacity=".095"/><stop offset=".5741" stop-color="#233ba4" stop-opacity=".218"/><stop offset=".711" stop-color="#21379b" stop-opacity=".393"/><stop offset=".8389" stop-color="#1e3290" stop-opacity=".618"/><stop offset=".9585" stop-color="#1a2c82" stop-opacity=".89"/><stop offset="1" stop-color="#192a7d"/></linearGradient><linearGradient id="SVGID_00000039103455722681964040000000770439706868664231_" gradientTransform="matrix(1 0 0 -1 0 514)" gradientUnits="userSpaceOnUse" x1="259.024" x2="270.905" xlink:href="#lg10" y1="186.784" y2="160.17"/><linearGradient id="SVGID_00000176017819919063607990000006724516660817578669_" gradientTransform="matrix(1 0 0 -1 0 514)" gradientUnits="userSpaceOnUse" x1="367.292" x2="367.292" xlink:href="#lg9" y1="218.223" y2="154.713"/><linearGradient id="SVGID_00000089555648575603486190000004544492516207639944_" gradientTransform="matrix(1 0 0 -1 0 514)" gradientUnits="userSpaceOnUse" x1="367.292" x2="367.292" xlink:href="#lg10" y1="191.134" y2="145.895"/><linearGradient id="SVGID_00000142174448440151485050000001482841018218253442_" gradientTransform="matrix(1 0 0 -1 0 514)" gradientUnits="userSpaceOnUse" x1="353.141" x2="465.774" xlink:href="#lg10" y1="219.807" y2="151.372"/><linearGradient id="SVGID_00000097493948559943031610000012186004535626463163_" gradientTransform="matrix(1 0 0 -1 0 514)" gradientUnits="userSpaceOnUse" x1="329.569" x2="388.785" xlink:href="#lg10" y1="212.512" y2="165.296"/><g><g><g><path d="m218.494 71.159h196.848v45.513h-196.848z" fill="url(#SVGID_1_)"/><path d="m218.494 71.159h196.848v45.513h-196.848z" fill="url(#SVGID_00000000218581157756893540000014843238418843397763_)"/><path d="m218.494 71.159h196.848v45.513h-196.848z" fill="url(#SVGID_00000067193971406929767140000008545134899652443547_)"/><path d="m316.918 71.159h98.424v45.513h-98.424z" fill="url(#SVGID_00000160904921886255835360000010324405388258006457_)"/></g><g><path d="m470.864 184.576-48.412 104.506 48.412 175.423v14.924c0 17.986-14.585 32.571-32.571 32.571h-242.75c-17.986 0-32.571-14.584-32.571-32.571v-303.372c0-41.329 33.509-74.838 74.838-74.838h158.215c41.329 0 74.838 33.509 74.838 74.838v8.519z" fill="url(#SVGID_00000058552000771266771160000009157005837956627390_)"/><path d="m162.973 217.693h82.067v190.099h-82.067z" fill="url(#SVGID_00000026874022603286476200000001672181153209551538_)"/><path d="m470.864 464.506v14.924c0 17.986-14.585 32.571-32.571 32.571h-242.75c-17.986 0-32.571-14.584-32.571-32.571v-86.81h288.053z" fill="url(#SVGID_00000026164946548126151770000014539814007552772765_)"/><path d="m470.864 184.576-48.412 104.506 48.412 175.423v14.924c0 17.986-14.585 32.571-32.571 32.571h-133.176v-410.781h90.909c41.329 0 74.838 33.509 74.838 74.838z" fill="url(#SVGID_00000012458238968519498230000005799591279490728118_)"/><path d="m339.013 443.537h-176.04v35.892c0 17.986 14.584 32.571 32.571 32.571h143.469z" fill="url(#SVGID_00000090257678656975327350000014097580579027569562_)"/><path d="m223.036 184.579h247.824v279.928h-247.824c-8.759 0-15.87-7.111-15.87-15.87v-248.188c-.001-8.759 7.111-15.87 15.87-15.87z" fill="url(#SVGID_00000180366512511650755630000017808291769220897171_)"/><path d="m305.117 184.576h165.747v279.929h-165.747z" fill="url(#SVGID_00000105426704068062297140000014849670990086883978_)"/></g><path d="m396.026 101.219h-158.215c-41.329 0-74.838 33.509-74.838 74.838v8.522h307.89l.001-.002v-8.519c0-41.33-33.509-74.839-74.838-74.839z" fill="url(#SVGID_00000090997881387025317890000002963688726701312917_)"/><path d="m212.203 0h209.431c6.958 0 12.598 5.64 12.598 12.598v53.785c0 6.958-5.64 12.598-12.598 12.598h-209.431c-6.958 0-12.598-5.64-12.598-12.598v-53.785c0-6.958 5.64-12.598 12.598-12.598z" fill="url(#SVGID_00000053537308817150986870000008809578822714674326_)"/><path d="m257.22 8.99v61c0 4.97 4.02 8.99 8.98 8.99h-32.15c-6.24 0-11.29-5.05-11.29-11.29v-56.4c0-6.24 5.05-11.29 11.29-11.29h32.15c-4.96 0-8.98 4.02-8.98 8.99z" fill="url(#SVGID_00000055702129592865484100000013090327723706748339_)"/><path d="m411.08 11.29v56.4c0 6.24-5.06 11.29-11.29 11.29h-32.16c4.97 0 8.99-4.02 8.99-8.99v-61c0-4.97-4.02-8.99-8.99-8.99h32.16c6.23 0 11.29 5.05 11.29 11.29z" fill="url(#SVGID_00000025424573109584790220000011020214392852344995_)"/><path d="m266.205 0h101.427c4.963 0 8.987 4.024 8.987 8.987v61.007c0 4.963-4.024 8.987-8.987 8.987h-101.427c-4.963 0-8.987-4.024-8.987-8.987v-61.007c0-4.963 4.023-8.987 8.987-8.987z" fill="url(#SVGID_00000005229777397900622110000016633498475488568209_)"/><path d="m300.291 0h33.254c3.02 0 5.467 2.448 5.467 5.467v68.047c0 3.019-2.448 5.467-5.467 5.467h-33.254c-3.02 0-5.467-2.448-5.467-5.467v-68.047c0-3.019 2.448-5.467 5.467-5.467z" fill="url(#SVGID_00000142158191762199649950000014928766329814942142_)"/><path d="m199.605 17.823v48.56c0 6.958 5.64 12.598 12.598 12.598h209.431c6.958 0 12.598-5.64 12.598-12.598v-48.56z" fill="url(#SVGID_00000139276953733855508410000010495510332633795223_)"/><path d="m421.634 0h-104.716v78.981h104.716c6.958 0 12.598-5.64 12.598-12.598v-53.785c0-6.958-5.64-12.598-12.598-12.598z" fill="url(#SVGID_00000062151412667736732810000012102848049410605445_)"/></g><path d="m470.86 335.592-20.595-20.596h-174.901l-41.395 45.479 104.031 104.031h132.86z" fill="url(#SVGID_00000118362292900130427950000001253067237516113050_)"/><g><g><ellipse cx="167.161" cy="450.417" fill="url(#SVGID_00000059298188191052133180000009217358148735248047_)" rx="92.208" ry="61.583"/><ellipse cx="167.161" cy="450.417" fill="url(#SVGID_00000039133127155085106100000007289138975659262138_)" rx="92.208" ry="61.583"/><path d="m74.953 450.417c0 34.011 41.283 61.583 92.208 61.583s92.208-27.572 92.208-61.583c0-10.294-3.802-19.99-10.488-28.518h-163.44c-6.687 8.528-10.488 18.224-10.488 28.518z" fill="url(#SVGID_00000057145254556800920760000013896527098640735920_)"/><path d="m167.161 388.833c-4.133 0-8.193.2-12.182.552v122.064c3.989.352 8.049.552 12.182.552 50.925 0 92.208-27.572 92.208-61.583 0-34.013-41.283-61.585-92.208-61.585z" fill="url(#SVGID_00000086652536675295058410000015494637692030065795_)"/><path d="m101.769 493.829c16.702 11.221 39.83 18.171 65.392 18.171 50.925 0 92.208-27.572 92.208-61.583 0-25.735-23.644-47.772-57.208-56.979z" fill="url(#SVGID_00000135683811287355213160000005077259788449154456_)"/></g><g><path d="m54.349 273.59c24.05-24.05 72.737-14.355 108.747 21.655s45.705 84.697 21.655 108.747-72.737 14.355-108.747-21.655-45.705-84.697-21.655-108.747z" fill="url(#SVGID_00000139286144021111298580000000541112458054085557_)"/><path d="m54.349 273.59c-24.05 24.05-14.355 72.737 21.655 108.747s84.697 45.705 108.747 21.655c7.279-7.279 11.447-16.823 12.749-27.582l-115.57-115.569c-10.758 1.303-20.302 5.47-27.581 12.749z" fill="url(#SVGID_00000079478142223012363960000003445301545716902566_)"/><path d="m163.096 295.245c-2.922-2.922-5.934-5.652-9.004-8.224l-86.312 86.313c2.572 3.069 5.301 6.082 8.223 9.004 36.009 36.009 84.697 45.705 108.747 21.655 24.05-24.051 14.355-72.738-21.654-108.748z" fill="url(#SVGID_00000147925008162224485610000004583539113173393342_)"/><path d="m42.614 323.25c3.875 19.744 15.315 41.013 33.39 59.087 36.009 36.009 84.697 45.705 108.747 21.655 18.197-18.197 17.061-50.499-.162-80.742z" fill="url(#SVGID_00000176013770221679888670000013735892281569107612_)"/></g><path d="m193.421 391.371c-8.323-1.649-17.136-2.538-26.26-2.538-23.724 0-45.353 5.986-61.693 15.817 29.818 16.436 61.378 17.247 79.282-.658 3.674-3.674 6.546-7.93 8.671-12.621z" fill="url(#SVGID_00000135648578029101497450000009650643283490867625_)"/></g><path d="m193.416 391.37c-8.32-1.65-17.13-2.54-26.26-2.54-1.4 0-2.8.02-4.18.06v-93.76c.04.04.08.07.12.12 30.51 30.5 42.12 70.11 30.32 96.12z" fill="url(#SVGID_00000121269025781666211890000000346881444171794086_)"/><path d="m259.366 450.42c0 29.62-31.32 54.36-73.05 60.25-13.49-3.98-23.34-16.46-23.34-31.24v-63.68c8.39-1.93 15.83-5.81 21.77-11.76 3.68-3.67 6.55-7.93 8.67-12.62 38.14 7.55 65.95 31.13 65.95 59.05z" fill="url(#SVGID_00000172407209445618906540000003620626227869575811_)"/><g><path d="m289.438 309.97c-13.336-10.852-30.945-18.877-50.909-22.686-4.375-.835-7.712 3.831-5.56 7.731.898 1.627 1.776 3.281 2.633 4.964 6.881 13.515 6.881 35.613 0 49.128-.857 1.683-1.735 3.338-2.633 4.964-2.153 3.899 1.185 8.565 5.56 7.731 19.964-3.809 37.572-11.834 50.909-22.686 9.269-7.543 9.269-21.604 0-29.146z" fill="url(#SVGID_00000080922431874223239320000007672289809748198833_)"/><path d="m289.438 309.97c-13.336-10.852-30.945-18.877-50.909-22.686-4.375-.835-7.712 3.831-5.56 7.731.898 1.627 1.776 3.281 2.633 4.964 6.881 13.515 6.881 35.613 0 49.128-.857 1.683-1.735 3.338-2.633 4.964-2.153 3.899 1.185 8.565 5.56 7.731 19.964-3.809 37.572-11.834 50.909-22.686 9.269-7.543 9.269-21.604 0-29.146z" fill="url(#SVGID_00000039103455722681964040000000770439706868664231_)"/><path d="m367.292 284.815c-33.952 0-64.085 11.859-82.973 30.181-5.374 5.213-5.374 13.879 0 19.092 18.888 18.322 49.021 30.181 82.973 30.181s64.085-11.859 82.973-30.181c5.374-5.213 5.374-13.879 0-19.092-18.888-18.321-49.021-30.181-82.973-30.181z" fill="url(#SVGID_00000176017819919063607990000006724516660817578669_)"/><path d="m284.319 314.996c-5.374 5.213-5.374 13.879 0 19.093 18.888 18.322 49.021 30.181 82.973 30.181s64.085-11.859 82.973-30.181c5.374-5.213 5.374-13.879 0-19.093-2.118-2.055-4.385-4.023-6.775-5.907h-152.395c-2.391 1.884-4.658 3.853-6.776 5.907z" fill="url(#SVGID_00000089555648575603486190000004544492516207639944_)"/><path d="m396.327 287.818c-5.342 11.114-8.337 23.569-8.337 36.724s2.995 25.611 8.337 36.724c21.816-4.617 40.658-14.297 53.938-27.178 5.374-5.213 5.374-13.879 0-19.093-13.28-12.88-32.122-22.56-53.938-27.177z" fill="url(#SVGID_00000142174448440151485050000001482841018218253442_)"/><path d="m381.066 316.543c-7.32-5.957-16.986-10.362-27.944-12.452-2.401-.458-4.233 2.103-3.052 4.243.493.893.975 1.801 1.445 2.725 3.777 7.418 3.777 19.548 0 26.966-.47.924-.952 1.832-1.445 2.725-1.182 2.14.65 4.701 3.052 4.243 10.958-2.091 20.623-6.496 27.944-12.452 5.088-4.139 5.088-11.858 0-15.998z" fill="url(#SVGID_00000097493948559943031610000012186004535626463163_)"/></g></g></svg>